<svg width="230" height="231" viewBox="0 0 230 231" fill="none" xmlns="http://www.w3.org/2000/svg">
<g filter="url(#filter0_f_594_873)">
<circle cx="115" cy="115.5" r="80" fill="#3760E7"/>
</g>
<circle cx="114.5" cy="115" r="89.5" stroke="white"/>
<g clip-path="url(#clip0_594_873)">
<path d="M115.144 131.61C115.144 127.784 115.144 124.15 115.144 120.42C114.748 120.402 114.379 120.363 114.008 120.372C105.598 120.602 97.1884 120.801 88.7832 121.11C87.0777 121.172 85.3446 121.517 83.7036 121.999C80.3964 122.972 79.2717 125.106 80.053 128.446C80.1982 129.066 80.7283 129.946 79.7373 130.202C78.737 130.46 78.7601 129.405 78.6149 128.808C77.6147 124.666 79.1634 121.7 83.2888 120.579C85.8147 119.895 88.4928 119.6 91.1178 119.494C98.6772 119.187 106.246 119.065 113.81 118.869C114.229 118.858 114.649 118.828 115.128 118.802C115.128 116.454 115.128 114.16 115.128 111.655C113.411 111.655 111.694 111.676 109.979 111.65C104.142 111.568 98.3015 111.549 92.4661 111.349C87.6516 111.183 82.8532 110.623 78.6356 108.027C73.0859 104.612 70.2327 99.7207 71.173 93.0528C71.9636 87.459 75.2938 83.6053 79.9839 80.7865C83.1344 78.8942 86.5707 77.9492 90.2351 77.6957C92.0282 77.5735 93.8074 77.2417 95.5912 76.9835C96.7251 76.8199 97.2667 76.1607 97.4603 75.006C99.0298 65.6299 105.04 59.9854 114.545 58.7915C119.56 58.1622 124.471 58.3881 129.037 60.6999C134.718 63.5763 137.988 68.239 138.65 74.6349C138.71 75.2042 138.673 75.785 138.64 76.3589C138.608 76.9259 138.525 77.4883 138.449 78.2028C138.954 78.1475 139.353 78.0921 139.756 78.0622C146.877 77.5136 153.105 79.4727 157.809 85.0135C162.208 90.1925 161.819 97.6648 157.2 103.189C153.688 107.391 149.012 109.396 143.819 110.443C137.758 111.662 131.604 111.611 125.462 111.692C122.888 111.727 120.314 111.75 117.742 111.708C116.88 111.694 116.61 111.962 116.635 112.824C116.693 114.771 116.654 116.721 116.654 118.779C117.165 118.779 117.541 118.777 117.914 118.779C126.25 118.848 134.587 118.855 142.918 119.026C145.119 119.07 147.373 119.388 149.491 119.98C152.455 120.81 154.513 122.751 154.953 125.987C155.034 126.577 154.939 127.224 154.764 127.796C154.688 128.047 154.209 128.301 153.907 128.31C153.734 128.314 153.351 127.791 153.395 127.572C153.729 125.876 153.218 124.468 152.084 123.237C150.648 121.674 148.751 120.994 146.739 120.863C142.183 120.563 137.617 120.328 133.052 120.259C127.829 120.178 122.604 120.301 117.38 120.34C117.191 120.342 117.002 120.384 116.734 120.416C116.734 124.092 116.734 127.752 116.734 131.663C118.638 131.663 120.477 131.629 122.314 131.67C126.502 131.767 127.652 132.873 127.642 137.084C127.624 144.803 127.536 152.522 127.421 160.241C127.373 163.491 125.771 165.04 122.563 165.074C119.184 165.111 115.803 165.15 112.425 165.095C109.454 165.047 107.308 163.046 106.9 160.093C106.827 159.563 106.797 159.022 106.799 158.487C106.833 151.879 106.854 145.273 106.937 138.665C106.953 137.372 107.096 136.054 107.391 134.793C107.889 132.657 109.143 131.698 111.318 131.62C112.574 131.573 113.837 131.61 115.144 131.61ZM114.324 110.353C114.324 110.309 114.326 110.268 114.326 110.224C118.014 110.224 121.701 110.249 125.386 110.217C131.298 110.166 137.216 110.143 143.056 109.058C147.295 108.272 151.307 106.9 154.511 103.844C157.935 100.576 159.885 96.6714 159.242 91.8105C158.724 87.8992 156.518 84.9928 153.321 82.8862C148.641 79.8 143.529 78.6292 137.97 79.936C136.792 80.2126 136.469 79.8715 136.725 78.6914C136.88 77.9815 137.073 77.267 137.101 76.5479C137.366 69.933 134.278 65.1828 128.599 62.1727C123.796 59.6258 118.583 59.4967 113.34 60.5754C108.988 61.4697 105.133 63.2997 102.229 66.8077C100.141 69.3292 99.3525 72.3577 98.8708 75.4877C98.638 77.0043 97.8613 77.9792 96.384 78.2742C94.6578 78.6176 92.9155 78.9772 91.1662 79.0809C86.2734 79.3736 81.8438 80.8188 78.0341 83.9672C69.3178 91.1698 71.1223 103.512 81.528 107.818C84.5402 109.062 87.7184 109.634 90.9473 109.74C98.7394 110.003 106.534 110.157 114.324 110.353ZM108.599 138.278C108.532 138.463 108.486 138.534 108.484 138.606C108.419 145.559 108.325 152.511 108.322 159.464C108.322 161.426 109.714 163.191 111.385 163.454C112.874 163.689 114.402 163.684 116.124 163.8C114.404 162.057 114.204 160.695 115.329 159.54C116.32 158.524 118.071 158.413 119.067 159.427C119.491 159.858 119.943 160.584 119.871 161.105C119.749 162.002 119.226 162.843 118.864 163.726C120.189 163.664 121.715 163.599 123.238 163.514C124.709 163.433 125.488 162.776 125.783 161.336C125.905 160.737 125.99 160.119 125.999 159.508C126.098 152.824 126.181 146.14 126.262 139.458C126.267 139.087 126.216 138.714 126.188 138.278C120.286 138.278 114.464 138.278 108.599 138.278ZM126.048 136.681C126.048 133.885 125.647 133.351 123.095 133.256C119.417 133.118 115.736 133.09 112.056 133.058C109.599 133.035 108.58 134.146 108.647 136.681C114.427 136.681 120.208 136.681 126.048 136.681ZM117.311 159.75C116.757 160.451 116.158 160.882 116.204 161.232C116.257 161.628 116.88 162.223 117.26 162.228C117.647 162.232 118.283 161.668 118.357 161.267C118.421 160.93 117.838 160.471 117.311 159.75Z" fill="white"/>
<path d="M87.504 147.096C87.345 152.404 87.2736 156.551 87.0823 160.69C86.9486 163.571 85.3791 165.033 82.5236 165.069C79.0689 165.116 75.6142 165.155 72.1617 165.097C69.0481 165.044 66.5913 162.758 66.5844 159.665C66.5683 151.835 66.6328 144.003 66.8448 136.176C66.914 133.668 67.9972 131.472 71.6777 131.578C75.8193 131.695 79.9631 131.695 84.1 131.891C85.9092 131.977 86.8218 132.892 87.0731 134.696C87.3381 136.589 87.4395 138.513 87.4879 140.426C87.5547 143.035 87.504 145.649 87.504 147.096ZM75.7202 163.645C74.1876 162.152 73.9433 160.706 75.0057 159.57C75.9345 158.579 77.6884 158.369 78.6356 159.342C79.1657 159.886 79.6243 160.799 79.5805 161.515C79.5367 162.262 78.8522 162.972 78.4282 163.73C79.6842 163.673 80.9864 163.539 82.2862 163.571C84.5149 163.627 85.5865 162.857 85.6557 160.07C85.8285 153.204 85.8585 146.333 85.9392 139.463C85.9438 139.087 85.9023 138.711 85.8792 138.28C79.9608 138.28 74.1092 138.28 68.1354 138.28C68.1354 139.919 68.147 141.486 68.1331 143.054C68.0847 148.274 68.0041 153.492 67.981 158.713C67.9672 161.605 69.456 163.403 72.0511 163.627C73.2588 163.733 74.4779 163.645 75.7202 163.645ZM68.3129 136.679C74.1392 136.679 79.9608 136.679 85.7824 136.679C85.7525 133.86 85.3883 133.366 82.6803 133.251C79.1542 133.101 75.6211 133.092 72.0903 133.058C69.2763 133.03 68.5549 133.74 68.3129 136.679ZM77.0315 159.766C76.4623 160.457 75.8423 160.895 75.893 161.234C75.9529 161.635 76.5775 162.214 76.9785 162.23C77.3473 162.246 77.988 161.665 78.0571 161.269C78.117 160.923 77.5409 160.469 77.0315 159.766Z" fill="white"/>
<path d="M167.76 148.524C167.76 152.324 167.772 156.123 167.748 159.923C167.744 160.569 167.64 161.228 167.486 161.857C166.995 163.867 165.58 165.017 163.397 165.058C159.945 165.125 156.488 165.075 153.035 165.137C149.039 165.208 147.087 162.09 147.08 159.179C147.062 151.808 147.179 144.437 147.281 137.066C147.292 136.273 147.476 135.464 147.695 134.697C148.29 132.606 149.442 131.629 151.586 131.634C155.882 131.641 160.18 131.668 164.469 131.874C166.624 131.977 167.571 133.116 167.762 135.294C167.912 137.011 167.986 138.74 168.011 140.464C168.05 143.151 168.023 145.838 168.023 148.526C167.935 148.524 167.848 148.524 167.76 148.524ZM158.585 163.749C160.291 163.671 161.701 163.616 163.111 163.537C165.243 163.42 166.043 162.668 166.17 160.5C166.303 158.202 166.37 155.899 166.405 153.599C166.476 148.842 166.499 144.082 166.566 139.323C166.578 138.518 166.359 138.18 165.46 138.186C160.24 138.228 155.02 138.223 149.8 138.189C148.954 138.184 148.654 138.419 148.666 139.286C148.698 141.856 148.652 144.428 148.643 147C148.629 151.068 148.597 155.136 148.617 159.204C148.629 161.189 149.71 163.005 151.309 163.346C152.909 163.687 154.582 163.671 156.225 163.812C154.656 162.138 154.444 160.721 155.642 159.52C156.704 158.457 158.557 158.487 159.567 159.587C160.632 160.751 160.355 162.286 158.585 163.749ZM166.324 136.672C166.465 134.072 165.914 133.344 163.464 133.261C159.634 133.132 155.801 133.09 151.971 133.065C149.848 133.051 148.698 134.501 149 136.672C154.775 136.672 160.551 136.672 166.324 136.672ZM157.481 159.767C156.993 160.481 156.432 160.951 156.502 161.292C156.582 161.689 157.235 162.254 157.603 162.228C158.002 162.203 158.617 161.608 158.661 161.209C158.7 160.864 158.071 160.447 157.481 159.767Z" fill="white"/>
<path d="M117.286 133.713C118.051 133.713 118.823 133.643 119.575 133.745C119.888 133.786 120.153 134.19 120.441 134.429C120.151 134.669 119.867 135.1 119.565 135.114C118.04 135.183 116.507 135.183 114.981 135.112C114.684 135.098 114.405 134.658 114.117 134.416C114.41 134.18 114.68 133.784 114.995 133.743C115.747 133.646 116.521 133.713 117.286 133.713Z" fill="white"/>
<path d="M77.0509 133.718C77.8137 133.718 78.5881 133.648 79.3371 133.752C79.6367 133.794 79.881 134.218 80.1507 134.467C79.8902 134.692 79.639 135.1 79.3717 135.112C77.8091 135.174 76.2419 135.181 74.6793 135.11C74.4005 135.098 74.1423 134.637 73.875 134.384C74.17 134.16 74.4466 133.782 74.7646 133.743C75.5159 133.648 76.288 133.713 77.0509 133.713C77.0509 133.715 77.0509 133.715 77.0509 133.718Z" fill="white"/>
<path d="M157.585 135.149C156.822 135.149 156.05 135.216 155.299 135.117C154.981 135.075 154.707 134.686 154.414 134.455C154.686 134.209 154.951 133.762 155.235 133.748C156.797 133.679 158.364 133.683 159.927 133.745C160.187 133.755 160.434 134.167 160.687 134.393C160.418 134.642 160.171 135.066 159.872 135.108C159.123 135.211 158.35 135.142 157.588 135.142C157.585 135.147 157.585 135.149 157.585 135.149Z" fill="white"/>
</g>
<defs>
<filter id="filter0_f_594_873" x="0" y="0.5" width="230" height="230" filterUnits="userSpaceOnUse" color-interpolation-filters="sRGB">
<feFlood flood-opacity="0" result="BackgroundImageFix"/>
<feBlend mode="normal" in="SourceGraphic" in2="BackgroundImageFix" result="shape"/>
<feGaussianBlur stdDeviation="17.5" result="effect1_foregroundBlur_594_873"/>
</filter>
<clipPath id="clip0_594_873">
<rect width="118" height="124" fill="white" transform="translate(55.5 54)"/>
</clipPath>
</defs>
</svg>
