<svg width="230" height="231" viewBox="0 0 230 231" fill="none" xmlns="http://www.w3.org/2000/svg">
<g filter="url(#filter0_f_594_778)">
<circle cx="115" cy="115.5" r="80" fill="#3760E7"/>
</g>
<circle cx="114.5" cy="115" r="89.5" stroke="white"/>
<path d="M75.9345 83.8775C75.3625 80.1935 75.7801 76.8356 76.7553 73.4978C78.6141 67.1252 82.7408 63.1981 89.1638 61.5621C94.0026 60.3293 98.9328 59.8889 103.886 59.8946C116.609 59.9089 129.335 59.9489 142.053 60.2121C148.321 60.3408 154.63 60.5181 160.761 62.1656C169.998 64.6454 175.741 71.3097 176.278 80.8886C176.802 90.2558 176.942 99.6459 177.131 109.03C177.176 111.298 176.879 113.598 176.521 115.849C175.632 121.469 172.272 125.15 167.15 127.373C160.693 130.176 153.875 130.985 146.926 131.054C143.834 131.085 140.74 131.06 137.463 131.06C137.463 132.527 137.543 133.891 137.445 135.244C137.237 138.224 137.262 141.273 136.61 144.165C135.103 150.849 130.928 154.327 124.09 154.496C118.434 154.636 112.766 154.287 107.103 154.153C101.012 154.01 94.9206 153.775 88.8293 153.75C85.0515 153.733 82.0287 155.629 79.3519 158.157C77.1356 160.251 74.9078 162.333 72.6114 164.335C71.8364 165.01 70.8841 165.537 69.9318 165.937C67.3809 167.01 64.6355 166.289 63.1198 163.958C62.1218 162.425 61.3239 160.7 60.7548 158.958C59.711 155.752 57.9293 153.306 54.8093 151.873C53.6911 151.361 52.6988 150.583 51.6178 149.983C47.2995 147.589 45.6151 143.587 44.7715 139.008C43.8764 134.146 43.8249 129.252 43.9851 124.341C44.1481 119.387 44.1795 114.422 44.5399 109.482C44.803 105.89 45.189 102.252 46.0813 98.7763C48.2147 90.456 54.2488 85.3991 62.8281 84.4839C66.3257 84.112 69.8575 84.0605 73.3779 83.8803C74.1815 83.8432 74.9879 83.8775 75.9345 83.8775ZM135.63 121.944C135.661 121.944 135.692 121.944 135.727 121.944C135.727 116.893 135.787 111.839 135.701 106.788C135.658 104.271 135.512 101.734 135.129 99.2483C134.097 92.5582 130.116 88.3737 123.461 87.3555C118.723 86.629 113.912 86.1599 109.122 86.0255C99.3103 85.7509 89.4927 85.6708 79.678 85.7252C73.8326 85.7595 67.9471 85.8682 62.1532 86.5547C55.5243 87.3384 50.6483 90.9451 48.4492 97.4893C47.6828 99.7717 47.0107 102.169 46.8363 104.554C46.3758 110.869 46.1042 117.205 45.9612 123.534C45.8639 127.765 45.9554 132.012 46.2529 136.234C46.6704 142.169 48.841 147.14 54.7321 149.705C55.2068 149.911 55.6158 150.275 56.0876 150.495C59.3049 152.011 61.2324 154.553 62.3191 157.906C62.871 159.607 63.6375 161.283 64.584 162.797C65.7222 164.621 67.501 165.01 69.4542 164.127C70.1835 163.798 70.9127 163.383 71.5076 162.854C73.784 160.826 76.0089 158.744 78.2423 156.667C81.1851 153.933 84.4995 152.185 88.6376 151.882C95.4239 151.384 102.153 152.105 108.905 152.365C114.321 152.574 119.758 152.717 125.166 152.483C130.107 152.268 133.345 149.531 134.537 144.697C135.258 141.774 135.481 138.691 135.592 135.665C135.755 131.097 135.63 126.518 135.63 121.944ZM137.411 129.378C143.357 129.163 149.076 129.143 154.761 128.691C159.42 128.32 163.927 127.041 168.099 124.824C171.188 123.183 173.373 120.737 174.265 117.331C174.731 115.546 175.077 113.69 175.149 111.85C175.575 101.222 175.489 90.5904 174.294 80.0191C173.453 72.5682 169.641 66.9822 162.271 64.6826C158.453 63.4927 154.381 62.689 150.395 62.546C136.496 62.0455 122.589 61.8167 108.682 61.6765C102.788 61.6164 96.8595 61.6851 91.057 63.0237C87.2993 63.8903 83.6588 65.1002 81.3023 68.4323C78.2338 72.7656 77.1356 77.6422 77.6618 82.9165C77.7476 83.7745 78.1909 83.8718 78.8972 83.8803C86.3756 83.9604 93.8539 84.1177 101.335 84.1463C108.576 84.1721 115.803 84.1149 122.989 85.2933C129.538 86.3659 134.214 89.6465 136.207 96.102C136.914 98.3931 137.351 100.853 137.394 103.244C137.531 110.721 137.42 118.203 137.405 125.685C137.408 126.812 137.411 127.948 137.411 129.378Z" fill="white"/>
<path d="M93.4537 128.923C87.9143 128.76 83.5103 124.229 83.6847 118.872C83.8391 114.076 88.5435 109.542 93.2592 109.642C97.9979 109.742 102.345 114.536 102.242 119.547C102.133 124.867 98.2009 129.063 93.4537 128.923ZM100.329 119.421C100.34 115.257 96.9712 111.596 93.0819 111.55C89.2813 111.504 85.5693 115.283 85.5321 119.235C85.4921 123.323 89.3299 127.081 93.5481 127.087C97.3573 127.09 100.314 123.749 100.329 119.421Z" fill="white"/>
<path d="M123.488 119.413C123.485 124.77 119.701 128.966 114.903 128.932C109.549 128.892 105.025 124.49 105.008 119.302C104.991 114.328 109.581 109.623 114.431 109.643C119.221 109.663 123.491 114.265 123.488 119.413ZM114.497 111.553C110.782 111.447 106.961 115.163 106.852 118.987C106.732 123.229 110.399 126.976 114.768 127.084C118.537 127.176 121.617 123.818 121.698 119.522C121.775 115.46 118.343 111.662 114.497 111.553Z" fill="white"/>
<path d="M80.8685 119.342C80.8942 124.705 77.1651 128.912 72.3578 128.935C67.0386 128.961 62.4658 124.576 62.3915 119.376C62.32 114.419 66.8842 109.666 71.7401 109.643C76.5331 109.62 80.8427 114.199 80.8685 119.342ZM64.2332 119.304C64.236 123.409 68.0281 127.053 72.332 127.084C76.0355 127.11 79.1069 123.589 79.0811 119.345C79.0554 115.254 75.5493 111.548 71.7058 111.548C67.9108 111.545 64.2303 115.366 64.2332 119.304Z" fill="white"/>
<defs>
<filter id="filter0_f_594_778" x="0" y="0.5" width="230" height="230" filterUnits="userSpaceOnUse" color-interpolation-filters="sRGB">
<feFlood flood-opacity="0" result="BackgroundImageFix"/>
<feBlend mode="normal" in="SourceGraphic" in2="BackgroundImageFix" result="shape"/>
<feGaussianBlur stdDeviation="17.5" result="effect1_foregroundBlur_594_778"/>
</filter>
</defs>
</svg>
