<svg width="230" height="231" viewBox="0 0 230 231" fill="none" xmlns="http://www.w3.org/2000/svg">
<g filter="url(#filter0_f_594_904)">
<circle cx="115" cy="115.5" r="80" fill="#3760E7"/>
</g>
<circle cx="114.5" cy="115" r="89.5" stroke="white"/>
<g clip-path="url(#clip0_594_904)">
<path d="M103.501 159.79C100.896 157.575 100.201 154.29 101.552 150.528C101.792 149.858 101.694 149.059 101.701 148.32C101.706 147.858 101.555 147.389 101.585 146.932C101.822 143.261 100.196 140.302 97.9445 137.642C96.4675 135.898 94.8881 134.224 93.225 132.657C88.8032 128.491 86.1794 123.39 85.0187 117.466C83.6486 110.474 83.3579 103.475 85.5351 96.6184C89.3335 84.649 97.6258 77.3423 109.752 74.8034C121.97 72.2435 131.954 76.8481 140.127 85.8193C144.421 90.5311 147.112 96.1055 148.208 102.435C149.324 108.882 148.164 114.953 145.256 120.718C142.46 126.262 138.906 131.268 134.512 135.69C132.972 137.241 131.558 139.008 130.481 140.903C129.758 142.176 129.709 143.843 129.4 145.342C129.323 145.713 129.444 146.121 129.402 146.504C129.239 147.958 129.409 149.241 130.125 150.646C131.523 153.388 130.265 157.149 127.616 159.128C127.176 159.457 126.936 159.674 127.134 160.331C128.348 164.376 126.58 167.332 122.387 167.91C117.725 168.556 113.024 168.556 108.372 167.74C105.269 167.197 103.527 165.423 103.201 162.586C103.101 161.709 103.383 160.793 103.501 159.79ZM116.15 149.698C116.153 149.572 116.157 149.446 116.16 149.318C118.988 149.318 121.817 149.332 124.645 149.313C127.548 149.297 128.013 148.886 127.897 146.009C127.804 143.731 128.081 141.545 129.36 139.663C130.553 137.91 131.861 136.192 133.356 134.697C136.785 131.27 139.62 127.416 142.156 123.308C148.189 113.533 148.855 103.498 143.484 93.2565C137.65 82.131 124.696 73.274 110.41 76.1603C99.2983 78.4055 91.4595 84.8471 87.4587 95.5623C84.8907 102.442 85.1117 109.56 86.405 116.692C87.4703 122.565 90.0173 127.603 94.4043 131.706C96.1 133.294 97.7049 134.998 99.1936 136.782C101.608 139.668 103.346 142.869 103.048 146.832C103.022 147.173 103.139 147.52 103.166 147.867C103.234 148.725 103.739 149.077 104.546 149.117C108.416 149.306 112.285 149.504 116.15 149.698ZM128.302 150.444C126.762 150.562 125.357 150.7 123.945 150.772C122.245 150.859 120.54 150.966 118.839 150.931C113.855 150.833 108.87 150.658 103.885 150.551C103.597 150.544 103.132 150.789 103.036 151.029C102.273 152.969 102.134 154.943 102.994 156.902C103.443 157.923 104.181 158.566 105.341 158.727C107.481 159.028 109.603 159.506 111.75 159.697C116.406 160.117 121.04 159.853 125.529 158.452C128.811 157.433 130.242 152.805 128.302 150.444ZM125.38 160.138C121.391 161.117 117.327 161.578 113.21 161.287C111.131 161.14 109.058 160.87 106.995 160.574C105.032 160.291 104.278 161.063 104.748 162.989C105.202 164.845 106.542 165.773 108.263 166.125C112.896 167.074 117.572 167.039 122.235 166.383C125.683 165.898 126.95 163.341 125.38 160.138Z" fill="white"/>
<path d="M158.975 109.611C157.51 109.611 156.04 109.66 154.579 109.576C154.202 109.555 153.851 109.112 153.488 108.86C153.844 108.599 154.188 108.133 154.558 108.112C157.45 107.96 160.345 107.895 163.239 107.804C163.355 107.799 163.504 107.755 163.581 107.808C163.886 108.025 164.167 108.275 164.456 108.51C164.172 108.757 163.907 109.193 163.604 109.221C162.069 109.364 160.522 109.399 158.98 109.473C158.975 109.52 158.975 109.564 158.975 109.611Z" fill="white"/>
<path d="M133.891 75.9902C133.819 75.5775 133.535 74.9947 133.707 74.7755C135.665 72.2879 137.682 69.8446 139.731 67.4269C139.887 67.2451 140.399 67.3663 140.745 67.3477C140.692 67.7883 140.794 68.3525 140.559 68.6463C139.21 70.3389 137.773 71.9592 136.386 73.6192C135.917 74.181 135.524 74.8082 135.061 75.377C134.858 75.6265 134.572 75.8084 134.323 76.0205C134.179 76.0112 134.035 76.0019 133.891 75.9902Z" fill="white"/>
<path d="M157.286 133.447C156.888 134.004 156.77 134.345 156.583 134.387C156.281 134.454 155.874 134.426 155.618 134.265C154.574 133.603 153.569 132.876 152.55 132.174C151.243 131.274 149.908 130.409 148.649 129.449C148.352 129.22 148.305 128.661 148.145 128.255C148.582 128.241 149.135 128.045 149.435 128.243C151.764 129.771 154.041 131.379 156.344 132.951C156.63 133.144 156.963 133.279 157.286 133.447Z" fill="white"/>
<path d="M81.1596 125.42C81.434 125.646 81.8062 125.826 81.7899 125.963C81.7481 126.343 81.6504 126.823 81.3875 127.059C79.5197 128.733 77.6286 130.383 75.691 131.974C75.177 132.395 74.5024 133.421 73.8 132.456C73.1766 131.598 74.2722 131.258 74.7792 130.815C76.5819 129.241 78.4009 127.688 80.2199 126.133C80.5013 125.893 80.8083 125.686 81.1596 125.42Z" fill="white"/>
<path d="M155.622 85.5C155.824 85.6772 156.192 85.845 156.222 86.0619C156.259 86.3393 156.11 86.7706 155.892 86.9292C155.366 87.3115 154.757 87.5796 154.175 87.8827C152.468 88.7803 150.777 89.7105 149.035 90.5358C148.66 90.713 148.1 90.5009 147.625 90.4682C147.855 90.0602 147.983 89.4657 148.332 89.2722C150.453 88.0879 152.624 86.9921 154.778 85.8707C155.017 85.7448 155.271 85.6539 155.622 85.5Z" fill="white"/>
<path d="M114.198 65.7362C114.198 64.4982 114.139 63.2532 114.233 62.0223C114.26 61.6492 114.698 61.3089 114.949 60.9521C115.193 61.2785 115.642 61.5979 115.649 61.929C115.707 64.4842 115.707 67.0395 115.647 69.5947C115.64 69.9187 115.177 70.2311 114.923 70.5482C114.681 70.2218 114.253 69.9071 114.23 69.5667C114.146 68.2937 114.198 67.0138 114.198 65.7362Z" fill="white"/>
<path d="M97.4095 73.8981C97.249 74.1056 97.1001 74.4669 96.935 74.4739C96.5954 74.4902 96.1418 74.4226 95.9162 74.2012C94.9741 73.2802 94.1158 72.2754 93.197 71.3312C92.4946 70.6085 91.6991 69.972 91.0478 69.2096C90.8222 68.9462 90.9129 68.4146 90.8594 68.0043C91.2385 68.0323 91.7619 67.9087 91.9712 68.1115C93.6948 69.7855 95.3626 71.5154 97.035 73.2383C97.1885 73.3968 97.263 73.6323 97.4095 73.8981Z" fill="white"/>
<path d="M73.7321 107.173C72.6528 107.173 71.5665 107.231 70.4942 107.138C70.157 107.11 69.8522 106.676 69.5312 106.429C69.8569 106.191 70.1779 105.755 70.5105 105.746C72.7086 105.685 74.9091 105.685 77.1072 105.744C77.4514 105.753 77.7864 106.163 78.126 106.389C77.7794 106.651 77.4514 107.103 77.0862 107.135C75.9744 107.236 74.8509 107.173 73.7321 107.173Z" fill="white"/>
<path d="M73.5491 83.7393C73.8864 83.8815 74.1003 83.9654 74.305 84.061C75.9821 84.8467 77.6732 85.6044 79.32 86.4484C79.6829 86.6349 80.1667 87.1874 80.1085 87.4742C79.9666 88.1689 79.3595 88.1037 78.8059 87.8425C77.0614 87.0195 75.3006 86.2269 73.584 85.3503C73.2932 85.2011 73.1001 84.7138 73.0257 84.3478C72.9908 84.1869 73.3653 83.9421 73.5491 83.7393Z" fill="white"/>
<path d="M113.662 130.339C108.356 131.752 103.467 129.428 102.085 124.35C101.597 122.559 100.752 121.457 99.3682 120.312C93.6647 115.598 92.8018 107.393 97.2375 101.742C99.0681 99.4084 101.099 98.35 104.816 97.7858C104.755 96.4475 104.586 95.1046 104.651 93.7734C104.893 88.7842 109.375 85.6718 114.134 87.1126C114.397 87.1919 114.75 87.2268 114.981 87.1149C116.944 86.1637 118.958 86.8258 120.931 86.968C122.005 87.0473 122.773 88.4228 122.777 89.887C122.78 90.8918 122.664 91.9013 122.536 92.8991C122.401 93.9529 123.257 94.2234 123.889 94.5381C124.278 94.7316 124.971 94.678 125.35 94.4449C126.167 93.9389 126.839 93.2092 127.62 92.638C128.946 91.6682 129.988 91.7264 131.14 92.8851C131.875 93.6242 132.57 94.4239 133.154 95.2842C133.901 96.3846 133.742 97.5083 132.789 98.4386C132.151 99.0587 131.44 99.6019 130.763 100.182C129.951 100.882 129.797 101.712 130.223 102.693C130.679 103.75 131.244 104.638 132.582 104.542C133.277 104.493 133.97 104.386 134.666 104.374C136.517 104.349 137.42 105.088 137.632 106.92C137.755 107.995 137.76 109.093 137.711 110.177C137.641 111.674 136.913 112.446 135.447 112.669C134.915 112.751 134.366 112.737 133.824 112.737C132.307 112.735 131.275 113.621 131.2 115.157C131.184 115.497 131.542 116.076 131.851 116.178C134.438 117.057 134.61 119.083 133.019 121.284C132.542 121.944 132.051 122.594 131.561 123.245C130.505 124.637 129.074 124.886 127.597 123.935C127.402 123.809 127.22 123.662 127.036 123.522C125.127 122.058 123.659 122.226 122.275 124.166C122.061 124.466 122.156 125.028 122.198 125.462C122.296 126.457 122.554 127.451 122.554 128.444C122.554 129.628 121.938 130.642 120.758 130.875C118.874 131.246 116.948 131.451 115.032 131.568C114.653 131.584 114.236 130.878 113.662 130.339ZM101.95 120.272C102.252 119.799 102.455 119.298 102.818 118.981C103.069 118.761 103.541 118.799 103.913 118.719C103.939 119.097 104.132 119.591 103.964 119.832C103.218 120.902 103.099 122.067 103.288 123.282C103.95 127.565 109.056 130.453 113.092 128.884C113.841 128.593 114.159 128.215 114.146 127.36C114.076 123.557 114.069 119.752 114.071 115.947C114.078 107.174 114.099 98.4013 114.139 89.6282C114.141 88.9124 113.876 88.607 113.21 88.4088C110.619 87.6441 107.542 89.2342 106.551 91.913C105.753 94.0648 106.035 96.1771 106.767 98.2824C107.121 99.2988 106.758 99.7978 105.807 99.5833C103.718 99.1123 101.906 99.7092 100.243 100.931C93.9113 105.584 94.8464 116.582 101.95 120.272ZM115.669 129.982C116.544 129.982 117.353 130.038 118.153 129.973C121.01 129.735 121.568 128.898 120.807 126.101C120.717 125.765 120.5 125.406 120.556 125.096C120.679 124.413 120.779 123.627 121.184 123.116C121.724 122.438 122.505 121.923 123.252 121.443C124.476 120.655 125.734 120.659 126.936 121.54C127.467 121.93 127.967 122.366 128.518 122.72C129.195 123.154 129.818 123.119 130.323 122.382C130.849 121.615 131.456 120.902 131.961 120.123C132.891 118.689 132.777 118.356 131.226 117.598C129.644 116.824 129.144 115.78 129.874 114.185C131.288 111.105 131.102 110.902 134.217 111.184C136.015 111.348 136.392 110.926 136.271 109.14C136.013 105.34 136.308 105.967 132.977 105.957C132.03 105.955 130.816 105.799 130.188 105.214C128.281 103.435 127.523 100.842 130.093 98.7183C132.631 96.6201 132.586 96.2843 130.158 94.0042C129.57 93.4517 129.035 93.3981 128.423 93.9063C127.709 94.5008 127.009 95.1163 126.271 95.6805C125.248 96.4639 124.171 96.5851 123.043 95.867C121.794 95.072 120.654 94.2723 121.003 92.4702C121.186 91.5283 121.273 90.5258 121.152 89.5839C121.093 89.1269 120.505 88.4601 120.07 88.3832C118.937 88.185 117.756 88.2573 116.595 88.2247C115.867 88.206 115.578 88.5347 115.588 89.2901C115.62 92.1251 115.616 94.9601 115.588 97.7951C115.581 98.4199 115.825 98.5691 116.399 98.7836C118.084 99.4177 119.891 99.9633 121.314 101.005C126.499 104.803 126.274 111.641 120.863 115.11C119.347 116.083 117.493 116.526 115.669 117.262C115.669 121.303 115.669 125.634 115.669 129.982ZM115.646 115.262C119.712 115.33 123.519 111.756 123.533 107.974C123.547 104.204 119.537 100.294 115.646 100.299C115.646 105.26 115.646 110.221 115.646 115.262Z" fill="white"/>
</g>
<defs>
<filter id="filter0_f_594_904" x="0" y="0.5" width="230" height="230" filterUnits="userSpaceOnUse" color-interpolation-filters="sRGB">
<feFlood flood-opacity="0" result="BackgroundImageFix"/>
<feBlend mode="normal" in="SourceGraphic" in2="BackgroundImageFix" result="shape"/>
<feGaussianBlur stdDeviation="17.5" result="effect1_foregroundBlur_594_904"/>
</filter>
<clipPath id="clip0_594_904">
<rect width="117" height="121" fill="white" transform="translate(56.5 54)"/>
</clipPath>
</defs>
</svg>
