<svg width="141" height="140" viewBox="0 0 141 140" fill="none" xmlns="http://www.w3.org/2000/svg">
<circle cx="70.5" cy="70" r="69.5" stroke="white"/>
<g clip-path="url(#clip0_782_99)">
<path d="M55.3656 83.1231C54.9868 82.6716 54.5833 82.2388 54.2348 81.7658C53.5837 80.8818 53.5993 80.0571 54.3627 79.2658C54.9478 78.6584 55.6101 78.1167 56.2907 77.616C56.8038 77.2376 56.9377 76.7918 56.8317 76.2138C56.6122 75.0079 55.8129 74.2884 54.6079 74.1785C53.9706 74.1206 53.3288 74.0525 52.7078 73.9107C51.9935 73.7466 51.6262 73.2272 51.6483 72.5015C51.6785 71.5019 51.7133 70.4983 51.8359 69.5055C52.0459 67.8025 53.062 67.0986 54.7498 67.4161C55.2287 67.5063 55.7 67.6332 56.1767 67.7375C56.7208 67.8574 57.067 67.6573 57.2116 67.1041C57.3611 66.5326 57.5883 65.9744 57.6651 65.3957C57.6992 65.136 57.502 64.7953 57.3153 64.5703C56.8913 64.0602 56.3739 63.6285 55.9558 63.1135C55.2744 62.275 55.2686 61.5185 55.9142 60.6614C56.8219 59.4558 57.8831 58.4187 59.3085 57.8374C60.2649 57.4467 60.9514 57.6018 61.6434 58.3832C62.0838 58.8816 62.4904 59.4142 62.8649 59.9638C63.2229 60.489 63.6493 60.6897 64.298 60.5954C66.489 60.2777 66.7405 60.0225 66.8107 57.8381C66.8132 57.7617 66.8146 57.6842 66.8149 57.6076C66.8317 55.4581 67.7266 54.6649 69.8494 55.0493C70.7994 55.2204 71.7268 55.5592 72.6398 55.888C73.3968 56.1607 73.752 56.7426 73.6821 57.5747C73.6134 58.3937 73.5478 59.2142 73.5359 60.0337C73.5299 60.4446 73.2498 60.9589 73.9 61.2148C74.6644 61.5156 75.4113 61.9877 76.1905 61.3017C76.6135 60.9288 76.9776 60.4906 77.3786 60.0939C78.6936 58.7996 79.7555 58.8206 80.9495 60.2435C81.7535 61.2041 82.484 62.2284 83.2194 63.2465C83.8893 64.177 83.797 64.7326 82.9344 65.5066C82.1909 66.1726 81.4291 66.824 80.7307 67.5365C80.2779 67.9988 80.3312 69.9268 80.8042 70.3415C81.0164 70.5271 81.4038 70.5636 81.716 70.5729C82.5094 70.5982 83.3078 70.5189 84.0975 70.5734C85.5345 70.6714 86.1827 71.3047 86.3482 72.7127C86.5044 74.0401 86.2798 75.3174 85.7817 76.557C85.4128 77.4772 84.7397 77.9436 83.7666 77.9324C83.1271 77.9246 82.4874 77.8447 81.8501 77.7868C80.873 77.6986 79.4813 78.6253 79.2677 79.572C79.2244 79.763 79.3917 80.0465 79.5363 80.2285C80.157 81.0115 80.8329 81.7521 81.4372 82.5468C82.0239 83.3181 82.0508 83.7777 81.3709 84.4547C80.3162 85.5043 79.1859 86.483 78.0365 87.4293C77.4848 87.8842 76.8529 87.7535 76.3825 87.2241C75.6854 86.439 75.0098 85.6338 74.3587 84.8121C73.9113 84.2454 73.4918 84.1996 72.7892 84.4698C71.3669 85.0164 70.5444 85.7828 70.8409 87.4385C70.925 87.9063 70.7334 88.4588 70.5598 88.9319C70.2966 89.6489 69.72 90.1126 68.9535 89.9944C67.4885 89.7693 66.009 89.5342 64.5958 89.1089C63.254 88.704 63.0427 88.0918 63.4001 86.7493C63.5714 86.1054 63.7996 85.4619 63.8538 84.8057C63.8801 84.4743 63.6692 83.9923 63.4031 83.7977C62.832 83.379 62.1708 83.074 61.5154 82.7902C61.3542 82.7206 61.0257 82.8577 60.8652 83.0004C60.2928 83.5148 59.778 84.0954 59.2055 84.612C58.2869 85.437 57.3484 85.3828 56.5103 84.4729C56.1111 84.0404 55.749 83.5728 55.3702 83.1213C55.368 83.1211 55.3668 83.1221 55.3656 83.1231ZM82.8028 64.247C81.7708 62.9594 80.8129 61.7361 79.8229 60.5419C79.3705 59.9955 78.8341 60.0698 78.3478 60.5282C77.8636 60.9867 77.4083 61.4772 76.931 61.9439C76.1707 62.6884 75.2902 62.8547 74.3084 62.4632C73.9512 62.3209 73.6091 62.1439 73.2485 62.0146C72.6801 61.8105 72.4641 61.4112 72.5008 60.8279C72.5662 59.7767 72.6326 58.7265 72.6631 57.6744C72.6703 57.4212 72.6126 57.0016 72.4591 56.9316C71.2466 56.378 70.0079 55.8605 68.6203 56.0304C68.0881 56.0953 67.815 56.4088 67.8064 56.9705C67.7958 57.7146 67.8352 58.4751 67.6855 59.1953C67.5744 59.7405 67.3313 60.3926 66.9245 60.7198C65.9001 61.5412 64.6177 61.7092 63.3447 61.552C62.1995 61.4101 61.7033 60.4824 61.2684 59.5436C60.993 58.9511 60.003 58.5162 59.4622 58.8856C58.6011 59.4715 57.7613 60.126 57.041 60.875C56.212 61.7394 56.2832 62.1799 57.1441 63.0184C59.1809 65.0037 59.0028 64.2029 58.2288 67.1486C57.8597 68.5491 57.133 68.966 55.7017 68.6683C55.2001 68.563 54.704 68.4187 54.1959 68.3609C53.4127 68.2708 53.0212 68.5491 52.8844 69.3208C52.7858 69.8736 52.7765 70.4439 52.7535 71.0076C52.6736 73.0314 52.6779 73.0317 54.7123 73.1929C56.5466 73.3392 57.7551 74.5872 57.8586 76.4309C57.9005 77.1752 57.6816 77.7767 57.056 78.2374C56.4573 78.6795 55.8796 79.1562 55.3261 79.6548C54.8524 80.0824 54.5628 80.6167 55.0331 81.2084C55.7347 82.0902 56.462 82.9545 57.2156 83.7926C57.6726 84.3011 58.1656 84.2953 58.6572 83.7542C59.1743 83.1837 59.7332 82.6484 60.2887 82.114C60.709 81.7091 61.2075 81.5198 61.7667 81.7899C62.502 82.1472 63.229 82.5235 63.9419 82.9238C64.7235 83.3628 65.0357 84.0591 64.872 84.9357C64.7479 85.5902 64.5764 86.2364 64.4039 86.8813C64.1573 87.8055 64.2078 88.0243 65.1461 88.2775C66.2564 88.5773 67.3984 88.7682 68.5348 88.9596C69.4275 89.1105 69.6971 88.9105 69.7997 87.9827C69.8864 87.1947 69.8823 86.3946 69.8877 85.5986C69.89 85.0823 70.063 84.7263 70.5638 84.511C71.1512 84.2572 71.716 83.95 72.2889 83.6621C73.7867 82.9075 74.0071 82.9396 75.0995 84.2006C75.6868 84.8789 76.2363 85.589 76.8106 86.2783C77.0617 86.5799 77.3197 86.7552 77.7073 86.4098C78.5706 85.6392 79.4629 84.9006 80.3432 84.1478C80.7141 83.8306 80.7873 83.5261 80.4166 83.118C79.745 82.3777 79.0975 81.6132 78.4932 80.8185C78.2767 80.5341 78.0626 80.1132 78.1047 79.7885C78.3229 78.153 80.3771 76.6343 82.032 76.8045C82.5926 76.8624 83.1558 76.9162 83.7184 76.9403C84.2658 76.9632 84.6355 76.6951 84.8497 76.1839C85.3192 75.0687 85.4853 73.9189 85.3451 72.7187C85.26 71.9926 84.8554 71.5968 84.1378 71.5802C83.2937 71.5593 82.4401 71.6568 81.6045 71.5764C81.0804 71.526 80.4501 71.3779 80.092 71.0376C79.1912 70.1803 79.2003 67.6877 80.0417 66.7707C80.5957 66.1672 81.2235 65.6324 81.828 65.077C82.103 64.8161 82.4006 64.5845 82.8028 64.247Z" fill="#FCFBFB"/>
<path d="M42.2635 60.9549C43.4159 62.3283 44.6189 63.6612 45.709 65.0829C47.5178 67.4403 47.4401 69.6831 45.2627 71.7492C42.7697 74.1143 40.1693 76.3827 37.4756 78.5184C35.1354 80.3736 32.2727 79.9893 30.321 77.7378C28.1916 75.2818 26.1156 72.7789 24.0619 70.2594C23.5531 69.6337 23.1609 68.89 22.823 68.151C21.9921 66.3391 22.2917 64.9085 23.7425 63.5646C26.0048 61.4675 28.25 59.3524 30.5669 57.318C31.365 56.6161 32.3043 56.0248 33.2683 55.5735C35.2726 54.637 37.0685 55.0425 38.5877 56.6224C39.1916 57.2508 39.8001 57.8751 40.3744 58.5283C41.0521 59.2975 41.6967 60.0946 42.3555 60.8797C42.324 60.9021 42.2942 60.9291 42.2635 60.9549ZM41.5546 61.7728C41.5581 61.7698 41.5617 61.7668 41.5642 61.7626C40.3307 60.2926 39.1607 58.7612 37.8459 57.3674C36.3783 55.8105 34.8075 55.6059 33.0209 56.8116C31.649 57.7378 30.4319 58.9038 29.1815 60.0012C27.6164 61.3747 26.045 62.7455 24.5509 64.1941C23.0844 65.6154 22.9507 66.5372 24.0078 68.2919C26.1229 71.8025 28.9337 74.7655 31.7562 77.6967C32.6767 78.652 33.9831 78.9499 35.257 78.4716C36.1981 78.1179 37.1444 77.6191 37.9039 76.9698C40.2463 74.9681 42.5628 72.9259 44.7685 70.7758C46.2501 69.3316 46.3875 67.8303 45.2263 66.199C44.1186 64.6435 42.7881 63.2428 41.5546 61.7728Z" fill="#FCFBFB"/>
<path d="M44.4298 88.4358C43.9415 88.7572 43.5174 89.0447 43.0868 89.3196C41.6827 90.2146 40.361 89.9033 39.7318 88.3822C38.7632 86.0409 38.7299 83.5818 39.2458 81.1261C39.4456 80.1749 40.1687 79.5903 41.101 79.3463C43.7467 78.6551 46.3532 78.8686 48.8927 79.8073C49.9555 80.1993 50.3683 81.1526 50.0295 82.2505C49.8954 82.6865 49.6828 83.1059 49.4547 83.5043C49.242 83.8755 48.964 84.2073 48.6862 84.597C50.2403 85.8845 51.7926 87.093 53.2549 88.4033C55.0821 90.0402 56.9019 91.6972 58.5989 93.4674C59.9364 94.8643 59.8888 96.0593 58.5121 97.4435C57.5058 98.4547 56.3853 99.3969 55.1831 100.163C53.3716 101.317 51.6286 100.871 50.4851 99.0302C49.1638 96.9006 47.9307 94.715 46.6845 92.5404C45.9129 91.1931 45.1893 89.8214 44.4298 88.4358ZM45.2345 87.7586C46.2109 89.5829 47.1045 91.3663 48.1055 93.0878C49.2486 95.0555 50.4282 97.0068 51.7062 98.8854C52.4154 99.9276 53.416 100.097 54.4765 99.3975C55.6499 98.6238 56.7776 97.7478 57.7913 96.7767C58.7809 95.8298 58.7272 95.1819 57.887 94.0869C57.684 93.8233 57.4673 93.5652 57.2211 93.3438C55.1631 91.499 53.1097 89.6501 51.0274 87.8316C50.0527 86.98 49.0206 86.1968 48.0395 85.4049C47.0777 86.2119 46.1928 86.9545 45.2345 87.7586ZM45.4103 86.4016C45.4016 86.3889 45.3908 86.3759 45.382 86.3631C45.737 86.0653 46.1449 85.8114 46.4365 85.4622C47.305 84.4262 48.2074 83.4017 48.9418 82.2732C49.4301 81.524 49.1679 80.9545 48.3911 80.6823C46.1134 79.8875 43.7863 79.6946 41.4209 80.2873C40.7392 80.4575 40.253 80.8896 40.1461 81.584C39.8239 83.6603 39.8062 85.7343 40.5359 87.7355C40.9729 88.9338 41.6886 89.1188 42.7425 88.371C43.6434 87.7316 44.5219 87.0607 45.4103 86.4016Z" fill="#FCFBFB"/>
<path d="M60.2836 113.931C58.8193 111.872 57.2368 109.885 55.9242 107.732C54.7174 105.753 55.0541 104.312 56.7473 102.716C58.8792 100.706 61.0064 98.6882 63.2158 96.7659C64.1508 95.9533 65.2301 95.2405 66.3523 94.7207C68.2657 93.8344 70.0721 94.2572 71.4507 95.8185C73.8401 98.5244 76.2065 101.256 78.4447 104.086C80.5395 106.734 80.3561 108.947 77.8804 111.278C75.5995 113.425 73.2299 115.485 70.797 117.458C68.127 119.624 65.3069 119.315 63.0401 116.755C62.174 115.778 61.3567 114.759 60.5169 113.758C60.4384 113.816 60.3611 113.872 60.2836 113.931ZM60.7005 112.768C60.7486 112.732 60.7977 112.697 60.8458 112.66C61.4057 113.327 61.9547 114.006 62.53 114.66C63.1213 115.331 63.7035 116.018 64.3523 116.632C65.9205 118.117 67.7619 118.308 69.5437 117.118C72.5513 115.106 75.1705 112.627 77.6643 110.033C79.1882 108.447 79.367 106.995 78.0241 105.255C75.6649 102.198 73.086 99.3098 70.5643 96.3815C69.6113 95.2746 68.3136 94.9533 67.0035 95.5544C65.8795 96.0697 64.7932 96.7622 63.8547 97.5657C61.7276 99.3867 59.7104 101.339 57.6298 103.215C56.0908 104.603 55.7976 105.717 56.907 107.474C58.0667 109.305 59.4282 111.009 60.7005 112.768Z" fill="#FCFBFB"/>
<path d="M90.4576 58.6671C88.2533 56.8787 86.1145 55.1779 84.0171 53.4303C82.918 52.5144 81.8279 51.5709 80.8457 50.5348C79.4253 49.0367 79.3618 47.5291 80.7835 46.0328C81.8852 44.8734 83.1538 43.8289 84.4907 42.9522C85.7473 42.1289 86.7945 42.3269 87.6745 43.5271C89.2432 45.6681 90.7037 47.8939 92.1264 50.1373C93.1355 51.7314 94.0086 53.4135 94.9363 55.0477C95.6578 54.7758 96.3292 54.4515 97.0369 54.2715C98.5813 53.8776 99.5621 54.5251 99.7862 56.0848C100.142 58.5442 99.9072 60.9453 98.9239 63.2549C98.4143 64.4519 97.5138 65.087 96.2244 65.0399C94.2346 64.9679 92.2994 64.6029 90.4881 63.7321C90.2352 63.6109 89.9907 63.4685 89.7596 63.3108C88.3158 62.3206 88.1838 60.9427 89.4128 59.6804C89.7355 59.3514 90.0742 59.0391 90.4576 58.6671ZM91.1899 58.0406C92.1293 57.2524 92.9701 56.575 93.766 55.8489C93.8912 55.7338 93.9054 55.3423 93.8105 55.1667C92.9204 53.527 92.0491 51.8735 91.069 50.2873C89.8322 48.2897 88.5473 46.3163 87.1861 44.401C86.4218 43.3267 85.7481 43.211 84.6879 43.968C83.527 44.7974 82.4209 45.7377 81.434 46.7647C80.5012 47.7362 80.5993 48.7467 81.4838 49.7985C81.6806 50.0331 81.8948 50.2571 82.1289 50.4544C85.1191 52.9656 88.1154 55.4697 91.1899 58.0406ZM91.925 58.364C91.9634 58.4242 92.0018 58.4844 92.039 58.5455C91.4273 59.1332 90.7814 59.6872 90.2122 60.3135C89.2594 61.362 89.3631 61.9782 90.6064 62.6646C92.3732 63.6409 94.3194 63.9565 96.3059 64.0414C97.0625 64.0735 97.6321 63.6759 97.9465 62.9742C98.9451 60.7501 99.1424 58.4289 98.7661 56.0488C98.6538 55.3334 98.1854 55.0515 97.487 55.1875C97.1629 55.2505 96.8143 55.318 96.54 55.486C94.9915 56.4277 93.4611 57.4005 91.925 58.364Z" fill="#FCFBFB"/>
<path d="M80.6065 28.8066C81.7262 30.1411 82.8839 31.4438 83.9555 32.8147C85.8265 35.2102 85.815 37.4357 83.6183 39.5462C81.0853 41.979 78.4095 44.2825 75.6539 46.4621C73.4801 48.1817 70.6098 47.8099 68.7914 45.7317C66.5511 43.1699 64.3787 40.545 62.2402 37.8978C61.6883 37.2138 61.2982 36.374 60.9566 35.5537C60.2723 33.9141 60.8614 32.5379 62.0808 31.3962C64.315 29.3065 66.5502 27.2179 68.844 25.1968C69.6232 24.5108 70.5297 23.9189 71.4672 23.4698C73.555 22.4692 75.3127 22.8365 76.9238 24.4779C77.5518 25.1181 78.1689 25.7695 78.7612 26.4417C79.4221 27.1909 80.0499 27.9679 80.6928 28.7342C80.6645 28.758 80.6349 28.7828 80.6065 28.8066ZM66.0839 41.3662C66.1354 41.329 66.1847 41.2917 66.2361 41.2545C66.7139 41.8239 67.1893 42.3953 67.6695 42.9627C68.1664 43.5501 68.648 44.1505 69.1702 44.7127C70.8647 46.5352 72.5475 46.9694 74.4549 46.0278C75.0926 45.7137 75.7051 45.3002 76.2387 44.8284C78.5484 42.7878 80.8876 40.7727 83.0924 38.6214C84.5921 37.1581 84.7647 35.605 83.5063 33.9851C81.2005 31.0162 78.7721 28.1341 76.2701 25.3278C74.7113 23.5782 73.1903 23.4281 71.217 24.7404C69.9034 25.6136 68.7542 26.7427 67.5637 27.7939C65.9635 29.2049 64.3531 30.6084 62.8249 32.0956C61.4166 33.4662 61.2572 34.3934 62.3068 36.06C63.4608 37.8941 64.8163 39.6033 66.0839 41.3662Z" fill="#FCFBFB"/>
<path d="M113.495 68.0207C114.666 69.4153 115.874 70.7782 116.996 72.2113C118.588 74.2439 118.705 76.2353 117 78.1679C114.396 81.1221 111.511 83.8244 108.153 85.9229C105.907 87.3256 103.407 86.9078 101.678 84.9259C99.4874 82.4165 97.3612 79.8514 95.2608 77.2666C94.7205 76.601 94.3168 75.8027 93.9636 75.0142C93.2424 73.4076 93.5211 72.0266 94.8126 70.8124C96.6871 69.0507 98.5748 67.3 100.515 65.6096C101.689 64.5866 102.88 63.5289 104.223 62.7676C106.29 61.5958 108.258 61.9953 109.863 63.7466C111.125 65.124 112.28 66.6015 113.483 68.035C113.485 68.0297 113.489 68.0257 113.495 68.0207ZM112.824 68.8275C112.876 68.7817 112.927 68.7368 112.98 68.6921C111.634 67.2157 110.293 65.7376 108.943 64.2652C107.935 63.1667 106.661 62.7851 105.319 63.3988C104.195 63.9119 103.111 64.6089 102.171 65.4135C100.063 67.2186 98.0688 69.1549 96.0032 71.0107C94.404 72.4469 94.1518 73.4702 95.2213 75.331C97.1528 78.6924 99.8625 81.4509 102.471 84.2586C104.264 86.187 106.071 86.3397 108.17 84.7154C110.906 82.5964 113.493 80.2667 115.981 77.8575C117.556 76.3315 117.605 74.8817 116.351 73.0838C115.299 71.5758 114.009 70.2398 112.824 68.8275Z" fill="#FCFBFB"/>
<path d="M86.9918 95.2297C87.2327 95.6081 87.4495 95.9505 87.6674 96.292C88.6471 97.8223 88.3667 99.1003 86.7336 99.8257C84.4646 100.834 82.0533 100.959 79.631 100.582C78.6994 100.438 78.0882 99.7818 77.8693 98.8505C77.2417 96.1829 77.5913 93.5915 78.6386 91.0915C79.0754 90.048 80.0218 89.6838 81.1369 90.0036C81.5264 90.1147 81.9009 90.2967 82.2578 90.4914C82.5918 90.6732 82.8919 90.9155 83.29 91.1882C83.5019 90.9601 83.7239 90.7297 83.9379 90.4899C86.5267 87.6045 89.1071 84.714 91.7059 81.8383C92.0132 81.4981 92.4007 81.2271 92.7675 80.9435C94.0292 79.9652 95.1086 79.8629 96.2183 80.9548C97.3179 82.037 98.3049 83.278 99.1239 84.5856C99.9438 85.8944 99.6757 87.3047 98.4422 88.2373C96.8085 89.4714 95.0653 90.5726 93.3103 91.6333C91.251 92.8792 89.1266 94.021 86.9918 95.2297ZM84.1357 91.7803C84.7836 92.5525 85.3753 93.1951 85.8898 93.8924C86.2149 94.3327 86.465 94.388 86.9522 94.1038C89.0142 92.9019 91.1195 91.7782 93.1757 90.5671C94.6567 89.694 96.1294 88.7918 97.5175 87.7817C98.6975 86.9222 98.8538 85.9432 98.1004 84.7594C97.5399 83.8777 96.8876 83.0449 96.197 82.2604C95.0156 80.9173 94.2448 80.8349 92.9524 82.048C91.5319 83.3825 90.1859 84.8032 88.8831 86.2539C87.2526 88.066 85.7024 89.9474 84.1357 91.7803ZM84.979 94.287C84.9662 94.2957 84.9532 94.3066 84.9404 94.3154C84.6762 94.0006 84.4525 93.6379 84.1417 93.3804C83.1804 92.588 82.2333 91.7595 81.1851 91.0942C80.4486 90.6274 79.8047 90.8643 79.5143 91.5801C78.6062 93.8207 78.2826 96.1332 78.8149 98.5191C78.9571 99.1571 79.3689 99.583 80.0218 99.6499C82.1355 99.8671 84.2319 99.8116 86.2287 98.9597C87.33 98.4895 87.5195 97.8023 86.8402 96.8294C86.2374 95.9692 85.6006 95.1334 84.979 94.287Z" fill="#FCFBFB"/>
<path d="M54.7975 45.643C54.5367 44.9358 54.2115 44.2624 54.0419 43.5509C53.7319 42.2421 54.3317 41.3712 55.6569 41.1893C58.0005 40.8661 60.264 41.1706 62.4174 42.1681C63.4704 42.6566 64.0557 43.4934 64.0455 44.649C64.0296 46.4824 63.7603 48.2853 62.9784 49.97C62.7777 50.4035 62.4998 50.8316 62.1653 51.1705C61.3449 51.9996 60.2246 51.885 59.2355 50.9249C58.9274 50.625 58.6325 50.312 58.2763 49.9499C58.0542 50.2186 57.8788 50.4301 57.7056 50.6417C55.6961 53.1074 53.7202 55.6011 51.669 58.0314C50.0436 59.9577 48.4703 60.0986 46.6631 58.3989C45.6503 57.4467 44.768 56.3087 44.0194 55.1329C43.1976 53.8437 43.3815 52.948 44.5782 51.9499C45.6199 51.0819 46.751 50.3036 47.9134 49.6034C50.1941 48.2321 52.5242 46.9438 54.7975 45.643ZM55.3385 46.5209C53.613 47.4846 51.8705 48.4064 50.1834 49.4183C48.6016 50.3659 47.042 51.3591 45.5412 52.4296C44.3583 53.2736 44.25 53.8004 45.0531 54.9305C45.8174 56.0047 46.6965 57.0188 47.6432 57.938C48.5518 58.8189 49.4266 58.7659 50.3685 57.8992C51.0075 57.3128 51.5905 56.6549 52.1408 55.9821C53.9677 53.7481 55.7681 51.4921 57.5996 49.218C56.8273 48.2951 56.123 47.4558 55.3385 46.5209ZM57.6425 48.0269C57.6946 47.9953 57.7455 47.9646 57.7975 47.933C58.4052 48.5923 58.9947 49.2708 59.6228 49.9089C60.7901 51.091 61.5462 51.007 62.0813 49.439C62.5645 48.0231 62.7902 46.5118 63.0376 45.0287C63.1997 44.059 62.7349 43.3681 61.8049 42.9733C60.044 42.225 58.209 41.9628 56.3104 42.1075C54.9551 42.2101 54.5963 42.6739 55.1918 43.8858C55.9001 45.3185 56.8165 46.6509 57.6425 48.0269Z" fill="#FCFBFB"/>
<path d="M63.0986 76.6936C60.1682 73.17 60.5492 68.1917 63.9692 65.348C67.4699 62.4347 72.398 62.9643 75.3941 66.5733C78.2774 70.048 77.8286 75.0391 74.3702 77.9189C71.0174 80.7081 65.9836 80.1629 63.0986 76.6936ZM73.7649 77.0989C76.787 74.533 77.1457 70.172 74.5846 67.1199C71.9859 64.0252 67.5996 63.5935 64.5471 66.1328C61.6068 68.5799 61.3157 73.1152 63.9061 76.1446C66.4619 79.1328 70.8661 79.5595 73.7649 77.0989Z" fill="#FCFBFB"/>
<path d="M31.0222 70.6075C30.0331 69.4286 29.0437 68.2519 28.0568 67.0711C27.7947 66.7587 27.4049 66.3927 27.8225 66.0182C28.2448 65.6397 28.5589 66.0572 28.8259 66.3755C30.8528 68.791 32.8796 71.2065 34.9065 73.622C34.9728 73.701 35.0864 73.7764 35.0931 73.8612C35.1156 74.1355 35.0995 74.4142 35.0988 74.6921C34.8278 74.6262 34.459 74.6504 34.3023 74.4805C33.5077 73.6104 32.7691 72.6894 32.0102 71.7873C31.681 71.3926 31.3516 71 31.0222 70.6075Z" fill="#FCFBFB"/>
<path d="M35.1804 67.2205C36.1181 68.3381 37.0758 69.441 37.9771 70.5871C38.153 70.8112 38.2668 71.3505 38.1334 71.4966C37.7788 71.8885 37.453 71.5411 37.1978 71.237C35.3211 69.0028 33.4352 66.7745 31.5857 64.5175C31.407 64.2998 31.2973 63.751 31.4296 63.6059C31.7812 63.2224 32.1058 63.5588 32.3649 63.8676C33.3039 64.9842 34.2416 66.1018 35.1804 67.2205Z" fill="#FCFBFB"/>
<path d="M37.0949 65.6327C36.4212 64.8299 35.7241 64.0448 35.0915 63.2116C34.9397 63.0115 35.0027 62.6492 34.9659 62.3627C35.2466 62.4305 35.6342 62.4047 35.7891 62.5821C37.1649 64.1617 38.5132 65.7685 39.8311 67.3967C39.9858 67.5883 40.0512 68.0819 39.9221 68.2284C39.5799 68.6159 39.3006 68.2638 39.0651 67.9832C38.4095 67.1994 37.7527 66.4167 37.0949 65.6327Z" fill="#FCFBFB"/>
<path d="M63.9373 109.834C62.9333 108.637 61.9082 107.456 60.9418 106.23C60.753 105.991 60.6166 105.41 60.7505 105.272C61.1544 104.854 61.4648 105.275 61.729 105.59C63.7708 108.021 65.8232 110.445 67.8355 112.901C68.0201 113.125 67.9554 113.555 68.0043 113.89C67.6853 113.774 67.2629 113.749 67.0651 113.525C65.9915 112.322 64.974 111.069 63.9373 109.834Z" fill="#FCFBFB"/>
<path d="M68.1095 106.464C69.0305 107.561 69.9739 108.64 70.8536 109.77C71.0382 110.007 70.9897 110.427 71.0485 110.762C70.7267 110.652 70.2945 110.639 70.102 110.417C68.2147 108.228 66.3582 106.013 64.5289 103.775C64.3423 103.548 64.2342 102.97 64.3747 102.818C64.7391 102.426 65.0478 102.818 65.2961 103.113C66.2362 104.229 67.1728 105.348 68.1095 106.464Z" fill="#FCFBFB"/>
<path d="M70.7746 104.241C71.4324 105.025 72.1148 105.791 72.7314 106.607C72.8879 106.815 72.839 107.18 72.8851 107.473C72.5852 107.387 72.1749 107.397 72.002 107.201C70.6386 105.641 69.3076 104.05 68.0033 102.44C67.8437 102.243 67.7562 101.752 67.8809 101.605C68.2108 101.22 68.5129 101.551 68.7505 101.832C69.4277 102.631 70.0999 103.437 70.7746 104.241Z" fill="#FCFBFB"/>
<path d="M69.3861 38.5115C68.3643 37.2937 67.3223 36.0928 66.3394 34.8444C66.1506 34.6051 66.1916 34.183 66.1276 33.8449C66.4485 33.9533 66.8841 33.9655 67.0746 34.1853C69.1624 36.6159 71.2113 39.0793 73.2696 41.5347C73.5218 41.8353 73.8323 42.2196 73.3881 42.5C73.2153 42.6088 72.6713 42.3762 72.4664 42.1464C71.4099 40.9617 70.407 39.7281 69.3861 38.5115Z" fill="#FCFBFB"/>
<path d="M72.6957 35.7147C71.7906 34.6361 70.8843 33.5584 69.9815 32.4778C69.7204 32.1665 69.3314 31.8039 69.7492 31.4272C70.1764 31.0426 70.4854 31.4684 70.7495 31.7832C72.5947 33.9774 74.447 36.1657 76.2627 38.3848C76.453 38.6188 76.5778 39.2192 76.4425 39.3488C76.0305 39.7467 75.7248 39.3223 75.4607 39.0075C74.5374 37.912 73.6166 36.8123 72.6957 35.7147Z" fill="#FCFBFB"/>
<path d="M75.4234 33.4775C74.7666 32.6947 74.1064 31.9128 73.4532 31.127C73.2298 30.8584 72.8939 30.5758 73.2872 30.2156C73.6829 29.8535 73.9379 30.1959 74.1665 30.4682C75.5016 32.0498 76.8426 33.6287 78.1446 35.2381C78.3003 35.4308 78.3748 35.9208 78.2479 36.0675C77.9061 36.4627 77.6281 36.1074 77.3937 35.828C76.7381 35.0442 76.0812 34.2614 75.4234 33.4775Z" fill="#FCFBFB"/>
<path d="M102.305 77.7416C101.301 76.5451 100.295 75.3505 99.2958 74.15C99.1516 73.9757 98.9812 73.7871 98.9319 73.5794C98.8957 73.4209 98.9867 73.1738 99.1088 73.0573C99.2008 72.97 99.4638 72.9663 99.5913 73.0341C99.7856 73.1383 99.9419 73.3246 100.088 73.4991C102.083 75.8691 104.073 78.2432 106.064 80.6163C106.179 80.753 106.356 80.8841 106.382 81.0407C106.42 81.2617 106.428 81.6026 106.299 81.7053C106.166 81.8109 105.785 81.7784 105.634 81.656C105.321 81.4027 105.085 81.0542 104.822 80.7406C103.984 79.7421 103.144 78.7413 102.305 77.7416Z" fill="#FCFBFB"/>
<path d="M105.654 74.9923C104.701 73.8558 103.727 72.7341 102.81 71.5691C102.641 71.3533 102.7 70.9568 102.654 70.6433C102.957 70.725 103.376 70.7062 103.546 70.9035C105.481 73.1525 107.387 75.4264 109.269 77.7211C109.426 77.914 109.348 78.3012 109.378 78.5992C109.074 78.5129 108.662 78.5257 108.483 78.3277C107.51 77.2443 106.592 76.1098 105.654 74.9923Z" fill="#FCFBFB"/>
<path d="M108.287 72.6426C107.629 71.8587 106.948 71.0924 106.33 70.279C106.174 70.0742 106.224 69.7131 106.181 69.4238C106.463 69.4906 106.854 69.4618 107.009 69.6392C108.402 71.24 109.766 72.87 111.104 74.5175C111.249 74.6952 111.177 75.0489 111.205 75.3205C110.924 75.2515 110.543 75.2736 110.378 75.0965C109.645 74.3093 108.977 73.4655 108.287 72.6426Z" fill="#FCFBFB"/>
</g>
<defs>
<clipPath id="clip0_782_99">
<rect width="87.7175" height="82.4695" fill="white" transform="translate(73.6758 10) rotate(50)"/>
</clipPath>
</defs>
</svg>
