<svg width="141" height="140" viewBox="0 0 141 140" fill="none" xmlns="http://www.w3.org/2000/svg">
<g clip-path="url(#clip0_630_593)">
<path d="M71.0026 81.7115C71.0026 78.7186 71.0026 75.8753 71.0026 72.9581C70.6935 72.9437 70.406 72.913 70.1167 72.9202C63.5599 73.1005 57.0031 73.2556 50.4499 73.4972C49.1202 73.5459 47.769 73.8163 46.4896 74.1931C43.9111 74.954 43.0342 76.6235 43.6434 79.236C43.7566 79.7211 44.1698 80.4098 43.3972 80.6099C42.6173 80.8118 42.6353 79.9861 42.5221 79.5191C41.7423 76.2792 42.9498 73.9587 46.1662 73.0825C48.1355 72.547 50.2235 72.3162 52.2702 72.2333C58.1639 71.9935 64.0648 71.8979 69.9622 71.7447C70.2892 71.7357 70.6162 71.7122 70.99 71.6924C70.99 69.8552 70.99 68.0612 70.99 66.1014C69.6513 66.1014 68.3127 66.1176 66.9758 66.0978C62.4243 66.0329 57.871 66.0184 53.3213 65.8616C49.5677 65.7318 45.8266 65.2936 42.5383 63.2635C38.2114 60.5915 35.9869 56.7656 36.72 51.5496C37.3363 47.1738 39.9328 44.1592 43.5894 41.9541C46.0458 40.4739 48.7249 39.7347 51.5819 39.5364C52.9799 39.4408 54.3671 39.1812 55.7579 38.9792C56.6419 38.8512 57.0642 38.3356 57.2152 37.4323C58.4388 30.0978 63.1251 25.6823 70.5354 24.7484C74.4454 24.2562 78.2745 24.4328 81.8341 26.2412C86.2634 28.4913 88.8132 32.1388 89.3289 37.142C89.3756 37.5873 89.3469 38.0417 89.3217 38.4906C89.2966 38.9342 89.2319 39.3741 89.1726 39.933C89.5661 39.8897 89.8769 39.8465 90.1914 39.823C95.7437 39.3939 100.599 40.9265 104.266 45.2608C107.697 49.3121 107.393 55.1573 103.792 59.4791C101.054 62.7659 97.4076 64.3345 93.3593 65.153C88.6335 66.1068 83.8358 66.0671 79.0472 66.1302C77.0401 66.1573 75.033 66.1753 73.0276 66.1428C72.3556 66.132 72.1454 66.3412 72.1652 67.0155C72.2101 68.539 72.1795 70.0643 72.1795 71.6744C72.5784 71.6744 72.8713 71.6726 73.1624 71.6744C79.6617 71.7285 86.161 71.7339 92.6567 71.8673C94.3727 71.9016 96.1301 72.1504 97.7814 72.6137C100.092 73.2628 101.697 74.7809 102.04 77.3123C102.103 77.7738 102.029 78.2805 101.893 78.7276C101.833 78.9241 101.46 79.1225 101.224 79.1297C101.089 79.1333 100.791 78.724 100.825 78.5527C101.086 77.2257 100.687 76.1241 99.8029 75.1613C98.6834 73.9389 97.2046 73.407 95.6359 73.3043C92.0835 73.0699 88.5239 72.886 84.9643 72.8319C80.8926 72.7688 76.8191 72.8643 72.7455 72.895C72.5982 72.8968 72.4509 72.9292 72.2424 72.9545C72.2424 75.8302 72.2424 78.6934 72.2424 81.753C73.7266 81.753 75.1605 81.726 76.5926 81.7584C79.8576 81.8341 80.7542 82.6996 80.747 85.9936C80.7326 92.0318 80.6644 98.0699 80.5745 104.108C80.5368 106.65 79.288 107.862 76.7867 107.889C74.1525 107.918 71.5165 107.948 68.8823 107.905C66.5661 107.867 64.8932 106.302 64.5752 103.993C64.5177 103.578 64.4943 103.154 64.4961 102.736C64.523 97.5669 64.5392 92.3996 64.6039 87.2304C64.6165 86.219 64.7279 85.1877 64.9579 84.2014C65.346 82.5301 66.3235 81.78 68.0198 81.7187C68.9991 81.6827 69.9837 81.7115 71.0026 81.7115ZM70.3629 65.0827C70.3629 65.0484 70.3647 65.016 70.3647 64.9817C73.2397 64.9817 76.1147 65.0016 78.9879 64.9763C83.5969 64.9367 88.2112 64.9186 92.7645 64.0694C96.069 63.4546 99.1973 62.3818 101.695 59.9911C104.365 57.4345 105.885 54.3802 105.384 50.5778C104.98 47.5181 103.26 45.2446 100.768 43.5967C97.1184 41.1825 93.1329 40.2666 88.7988 41.2889C87.8806 41.5052 87.6291 41.2384 87.8285 40.3152C87.9489 39.7599 88.0998 39.201 88.1214 38.6385C88.328 33.4639 85.9202 29.748 81.4927 27.3933C77.748 25.401 73.6835 25.3001 69.5956 26.1439C66.2031 26.8434 63.1969 28.275 60.9329 31.0191C59.3049 32.9916 58.6904 35.3607 58.3148 37.8091C58.1334 38.9955 57.5278 39.7581 56.376 39.9889C55.0302 40.2576 53.6717 40.5388 52.3079 40.6199C48.4931 40.8489 45.0395 41.9794 42.0693 44.4423C35.2735 50.0765 36.6805 59.7315 44.7934 63.0994C47.1419 64.073 49.6198 64.5202 52.1372 64.6031C58.2124 64.8086 64.2894 64.9294 70.3629 65.0827ZM65.8994 86.9275C65.8473 87.0718 65.8114 87.1277 65.8096 87.1836C65.7593 92.6231 65.6856 98.0609 65.6838 103.5C65.6838 105.035 66.7691 106.416 68.0719 106.621C69.2327 106.805 70.424 106.802 71.7662 106.892C70.4258 105.529 70.2694 104.463 71.1463 103.56C71.919 102.765 73.2846 102.678 74.0609 103.472C74.3915 103.809 74.7437 104.377 74.688 104.784C74.5927 105.486 74.1848 106.144 73.9027 106.834C74.9359 106.785 76.1255 106.735 77.3132 106.668C78.4596 106.605 79.0669 106.091 79.2969 104.964C79.3922 104.496 79.4587 104.013 79.4659 103.535C79.5431 98.3061 79.6078 93.0775 79.6707 87.8507C79.6743 87.5604 79.6348 87.2683 79.6132 86.9275C75.0114 86.9275 70.4725 86.9275 65.8994 86.9275ZM79.5036 85.6781C79.5036 83.4911 79.1909 83.0728 77.2018 82.9989C74.334 82.8907 71.4644 82.869 68.5948 82.8438C66.6793 82.8258 65.8851 83.6948 65.9372 85.6781C70.4437 85.6781 74.9503 85.6781 79.5036 85.6781ZM72.6916 103.724C72.2604 104.272 71.7932 104.609 71.8291 104.883C71.8705 105.193 72.3556 105.659 72.6521 105.662C72.954 105.666 73.4499 105.224 73.5074 104.91C73.5577 104.647 73.1031 104.288 72.6916 103.724Z" fill="white"/>
<path d="M49.4527 93.8258C49.3287 97.978 49.273 101.222 49.1239 104.46C49.0196 106.713 47.796 107.857 45.5697 107.885C42.8761 107.921 40.1826 107.952 37.4909 107.907C35.0633 107.866 33.1479 106.077 33.1425 103.657C33.1299 97.5327 33.1802 91.4062 33.3455 85.2833C33.3994 83.3217 34.2439 81.6034 37.1136 81.6864C40.3425 81.7783 43.5733 81.7783 46.7987 81.9316C48.2093 81.9983 48.9208 82.7141 49.1167 84.1258C49.3233 85.606 49.4024 87.1115 49.4401 88.608C49.4922 90.6489 49.4527 92.6935 49.4527 93.8258ZM40.2653 106.771C39.0704 105.603 38.8799 104.472 39.7082 103.583C40.4324 102.808 41.7998 102.644 42.5383 103.405C42.9516 103.83 43.3092 104.544 43.275 105.105C43.2409 105.689 42.7072 106.245 42.3766 106.838C43.3559 106.793 44.3711 106.688 45.3846 106.713C47.1222 106.757 47.9577 106.155 48.0116 103.975C48.1464 98.6037 48.1697 93.229 48.2326 87.8543C48.2362 87.5604 48.2039 87.2666 48.1859 86.9294C43.5715 86.9294 39.0093 86.9294 34.3518 86.9294C34.3518 88.2113 34.3607 89.4373 34.35 90.6634C34.3122 94.7471 34.2493 98.829 34.2314 102.913C34.2206 105.176 35.3814 106.582 37.4047 106.757C38.3462 106.84 39.2968 106.771 40.2653 106.771ZM34.4901 85.6763C39.0326 85.6763 43.5715 85.6763 48.1104 85.6763C48.0871 83.4713 47.8032 83.0855 45.6918 82.9953C42.9426 82.8781 40.188 82.8709 37.4352 82.8439C35.2412 82.8222 34.6788 83.3775 34.4901 85.6763ZM41.2877 103.737C40.8439 104.278 40.3605 104.62 40.4 104.885C40.4468 105.199 40.9337 105.651 41.2464 105.664C41.5339 105.677 42.0334 105.222 42.0873 104.912C42.134 104.642 41.6848 104.287 41.2877 103.737Z" fill="white"/>
<path d="M112.027 94.9418C112.027 97.9149 112.036 100.886 112.018 103.859C112.015 104.364 111.934 104.88 111.813 105.372C111.431 106.944 110.327 107.844 108.626 107.876C105.934 107.929 103.239 107.889 100.547 107.938C97.4312 107.994 95.9092 105.554 95.9038 103.277C95.8895 97.5111 95.9811 91.7451 96.0602 85.9792C96.0692 85.359 96.2129 84.7262 96.3836 84.1258C96.8472 82.4905 97.7456 81.726 99.4167 81.7296C102.766 81.735 106.117 81.7567 109.461 81.9171C111.141 81.9983 111.88 82.8889 112.029 84.5928C112.146 85.936 112.203 87.2882 112.223 88.6368C112.254 90.7391 112.232 92.8414 112.232 94.9436C112.164 94.9418 112.095 94.9418 112.027 94.9418ZM104.874 106.852C106.204 106.791 107.303 106.748 108.403 106.686C110.065 106.594 110.689 106.007 110.787 104.31C110.892 102.513 110.944 100.711 110.971 98.912C111.026 95.1906 111.044 91.4675 111.096 87.7444C111.105 87.1151 110.935 86.8501 110.234 86.8555C106.164 86.8879 102.094 86.8843 98.0242 86.8573C97.3647 86.8537 97.1311 87.0376 97.1401 87.7155C97.1653 89.7258 97.1293 91.7379 97.1221 93.7501C97.1113 96.9323 97.0862 100.115 97.1024 103.297C97.1113 104.849 97.9541 106.27 99.2011 106.537C100.448 106.804 101.753 106.791 103.034 106.901C101.81 105.592 101.645 104.483 102.579 103.544C103.408 102.713 104.852 102.736 105.639 103.596C106.469 104.507 106.254 105.707 104.874 106.852ZM110.908 85.6709C111.017 83.6372 110.588 83.0674 108.678 83.0025C105.691 82.9016 102.703 82.8691 99.7168 82.8493C98.0619 82.8385 97.1653 83.9725 97.4006 85.6709C101.904 85.6709 106.407 85.6709 110.908 85.6709ZM104.013 103.737C103.632 104.296 103.196 104.663 103.249 104.93C103.312 105.24 103.821 105.682 104.108 105.662C104.419 105.642 104.899 105.177 104.933 104.865C104.964 104.595 104.473 104.269 104.013 103.737Z" fill="white"/>
<path d="M72.6738 83.3559C73.2704 83.3559 73.8723 83.3018 74.4581 83.3811C74.7025 83.4136 74.9091 83.7291 75.1338 83.9166C74.9073 84.1041 74.6863 84.4413 74.4509 84.4521C73.2614 84.5062 72.0665 84.5062 70.877 84.4503C70.6452 84.4395 70.4277 84.0951 70.2031 83.9058C70.4313 83.7219 70.6416 83.4118 70.8877 83.3793C71.4735 83.3036 72.0773 83.3559 72.6738 83.3559Z" fill="white"/>
<path d="M41.3003 83.3594C41.8951 83.3594 42.4988 83.3053 43.0828 83.3865C43.3164 83.4189 43.5069 83.7507 43.7171 83.9454C43.5141 84.1221 43.3182 84.4412 43.1098 84.4502C41.8915 84.4989 40.6696 84.5043 39.4513 84.4484C39.2339 84.4394 39.0327 84.0788 38.8242 83.8805C39.0542 83.7056 39.2698 83.4099 39.5178 83.3793C40.1036 83.3053 40.7055 83.3558 41.3003 83.3558C41.3003 83.3576 41.3003 83.3576 41.3003 83.3594Z" fill="white"/>
<path d="M104.09 84.4792C103.495 84.4792 102.893 84.5314 102.307 84.4539C102.059 84.4215 101.845 84.1168 101.617 83.9365C101.829 83.7435 102.036 83.3938 102.257 83.3829C103.475 83.3289 104.697 83.3325 105.915 83.3811C106.118 83.3884 106.311 83.7111 106.508 83.8878C106.298 84.0825 106.106 84.4142 105.872 84.4467C105.288 84.5278 104.686 84.4737 104.091 84.4737C104.09 84.4774 104.09 84.4792 104.09 84.4792Z" fill="white"/>
</g>
<circle cx="70.5" cy="70" r="69.5" stroke="white"/>
<defs>
<clipPath id="clip0_630_593">
<rect width="92" height="97" fill="white" transform="translate(24.5 21)"/>
</clipPath>
</defs>
</svg>
