<svg width="141" height="140" viewBox="0 0 141 140" fill="none" xmlns="http://www.w3.org/2000/svg">
<circle cx="70.5" cy="70" r="69.5" stroke="white"/>
<path d="M40.5063 45.7932C40.0615 42.9279 40.3862 40.3162 41.1447 37.7201C42.5905 32.7637 45.8001 29.7093 50.7958 28.4368C54.5593 27.478 58.394 27.1354 62.2464 27.1399C72.1422 27.151 82.0402 27.1821 91.9315 27.3868C96.8071 27.4869 101.714 27.6248 106.483 28.9062C113.667 30.835 118.133 36.0183 118.552 43.4685C118.959 50.7541 119.068 58.0575 119.214 65.3565C119.25 67.1206 119.019 68.9092 118.741 70.66C118.049 75.0313 115.435 77.8944 111.452 79.6229C106.429 81.803 101.127 82.4326 95.7217 82.486C93.3173 82.5105 90.9106 82.4904 88.3616 82.4904C88.3616 83.6317 88.4238 84.6928 88.3482 85.745C88.1859 88.0631 88.2059 90.4345 87.6987 92.6836C86.5265 97.8825 83.2791 100.588 77.9609 100.719C73.5613 100.828 69.1528 100.557 64.7487 100.452C60.011 100.341 55.2733 100.158 50.5356 100.138C47.5973 100.125 45.2463 101.6 43.1644 103.566C41.4405 105.195 39.7078 106.814 37.9217 108.372C37.319 108.897 36.5783 109.306 35.8376 109.617C33.8536 110.452 31.7183 109.891 30.5394 108.078C29.7631 106.886 29.1425 105.544 28.6999 104.189C27.8881 101.696 26.5023 99.7935 24.0757 98.6789C23.206 98.2807 22.4341 97.6756 21.5934 97.2085C18.2347 95.3465 16.9246 92.2342 16.2685 88.6726C15.5723 84.8908 15.5322 81.0845 15.6568 77.2648C15.7836 73.4118 15.808 69.5499 16.0883 65.708C16.2929 62.9139 16.5932 60.0841 17.2872 57.3812C18.9465 50.9098 23.6397 46.9767 30.3125 46.2649C33.0328 45.9757 35.7798 45.9356 38.5179 45.7955C39.1429 45.7665 39.7701 45.7932 40.5063 45.7932ZM86.9358 75.4006C86.9603 75.4006 86.9847 75.4006 87.0114 75.4006C87.0114 71.4719 87.0582 67.541 86.9914 63.6124C86.9581 61.6547 86.8446 59.6815 86.5466 57.7483C85.7436 52.5449 82.6474 49.2903 77.4715 48.4984C73.7859 47.9333 70.0447 47.5685 66.319 47.4639C58.6876 47.2504 51.0516 47.1881 43.4179 47.2303C38.8715 47.257 34.294 47.3416 29.7876 47.8755C24.6317 48.485 20.8393 51.2903 19.1289 56.3802C18.5328 58.1554 18.0101 60.0196 17.8744 61.875C17.5163 66.7869 17.305 71.7144 17.1938 76.6375C17.1181 79.9277 17.1893 83.2312 17.4206 86.5148C17.7454 91.1308 19.4336 94.9972 24.0156 96.9927C24.3848 97.1529 24.7029 97.4354 25.0699 97.6067C27.5722 98.7857 29.0714 100.763 29.9166 103.371C30.3459 104.694 30.942 105.998 31.6782 107.175C32.5635 108.594 33.947 108.897 35.4662 108.209C36.0333 107.953 36.6005 107.631 37.0632 107.219C38.8337 105.642 40.5642 104.022 42.3013 102.407C44.5901 100.281 47.168 98.9214 50.3866 98.6856C55.6648 98.2985 60.8985 98.8591 66.15 99.0616C70.3628 99.224 74.5911 99.3352 78.7972 99.1528C82.6407 98.9859 85.1586 96.857 86.0861 93.0974C86.6467 90.8238 86.8202 88.4257 86.9069 86.0721C87.0337 82.5194 86.9358 78.9578 86.9358 75.4006ZM88.3215 81.1824C92.9458 81.0155 97.3943 80.9999 101.816 80.6485C105.44 80.3593 108.945 79.3649 112.19 77.6408C114.592 76.3639 116.292 74.4618 116.986 71.8123C117.348 70.4241 117.617 68.9804 117.673 67.5499C118.004 59.2833 117.938 51.0144 117.008 42.7922C116.354 36.9971 113.389 32.6525 107.657 30.8639C104.688 29.9384 101.52 29.3133 98.4197 29.2021C87.6098 28.8128 76.7931 28.6348 65.9765 28.5258C61.3923 28.4791 56.7814 28.5325 52.2683 29.5736C49.3456 30.2477 46.5141 31.1887 44.6813 33.7803C42.2947 37.1506 41.4405 40.9436 41.8498 45.0458C41.9165 45.7132 42.2613 45.7888 42.8107 45.7955C48.6272 45.8578 54.4436 45.9801 60.2623 46.0024C65.8942 46.0224 71.5149 45.9779 77.1045 46.8944C82.1981 47.7287 85.8348 50.2803 87.3851 55.3012C87.9345 57.0831 88.2748 58.9963 88.3082 60.8561C88.4149 66.6712 88.3282 72.4908 88.3171 78.3104C88.3193 79.1869 88.3215 80.0701 88.3215 81.1824Z" fill="white"/>
<path d="M54.1294 80.8286C49.8209 80.7018 46.3956 77.178 46.5312 73.0113C46.6514 69.2806 50.3103 65.7546 53.9781 65.8325C57.6637 65.9104 61.0446 69.6388 60.9645 73.5363C60.88 77.6741 57.8216 80.9376 54.1294 80.8286ZM59.4765 73.4385C59.4854 70.1994 56.8652 67.3519 53.8402 67.3163C50.8841 67.2807 47.997 70.2194 47.9681 73.2939C47.937 76.4728 50.922 79.396 54.2028 79.4004C57.1655 79.4026 59.4654 76.8043 59.4765 73.4385Z" fill="white"/>
<path d="M77.4905 73.4321C77.4882 77.5988 74.5455 80.8623 70.8132 80.8356C66.6494 80.8044 63.1306 77.3808 63.1172 73.3453C63.1039 69.4767 66.6738 65.8172 70.4462 65.8328C74.1719 65.8484 77.4927 69.4278 77.4905 73.4321ZM70.4974 67.3189C67.608 67.2365 64.6364 70.1263 64.5519 73.1006C64.4585 76.3997 67.31 79.314 70.7087 79.3985C73.6403 79.4697 76.0358 76.858 76.0981 73.5166C76.1581 70.3577 73.489 67.4034 70.4974 67.3189Z" fill="white"/>
<path d="M44.3404 73.3765C44.3604 77.5476 41.46 80.82 37.721 80.8378C33.5838 80.8579 30.0272 77.4475 29.9694 73.4032C29.9138 69.5479 33.4637 65.8506 37.2405 65.8328C40.9684 65.815 44.3204 69.3766 44.3404 73.3765ZM31.4018 73.3476C31.4041 76.5399 34.3534 79.374 37.701 79.3985C40.5814 79.4185 42.9703 76.68 42.9502 73.3787C42.9302 70.1975 40.2033 67.3144 37.2138 67.3144C34.2622 67.3122 31.3996 70.2843 31.4018 73.3476Z" fill="white"/>
</svg>
