<svg width="141" height="140" viewBox="0 0 141 140" fill="none" xmlns="http://www.w3.org/2000/svg">
<circle cx="70.5" cy="70" r="69.5" stroke="white"/>
<g clip-path="url(#clip0_630_568)">
<path d="M80.2614 96.9321C81.4296 98.135 82.7867 99.5112 84.113 100.914C84.5939 101.422 85.0265 101.976 85.4393 102.535C86.669 104.203 86.6427 104.462 85.1297 105.907C83.7024 107.271 82.2794 108.641 80.8279 109.985C79.4137 111.296 78.0369 111.534 76.4031 110.458C75.1427 109.628 74.0381 108.553 73.0192 107.463C71.7412 106.095 71.5436 105.956 69.8154 106.818C68.1443 107.654 66.5018 108.543 64.8856 109.467C64.6287 109.614 64.4376 110.052 64.431 110.36C64.3893 112.227 64.4244 114.097 64.4047 115.965C64.3849 117.759 63.6756 118.421 61.7279 118.397C59.3563 118.368 56.9671 118.425 54.6175 118.177C52.0417 117.904 51.2226 116.664 51.5322 114.283C51.7123 112.904 51.8265 111.514 51.888 110.127C51.9495 108.77 51.2885 107.677 49.9073 107.247C48.1549 106.7 46.3301 106.337 44.5185 105.97C43.4645 105.756 42.5971 106.245 41.8527 106.9C41.1104 107.554 40.3858 108.229 39.6611 108.9C38.5215 109.952 37.1798 110.168 35.7283 109.62C33.5345 108.79 31.7844 107.408 30.4822 105.591C29.3338 103.988 29.415 102.219 30.5064 100.686C31.4989 99.289 32.7967 98.0657 34.0638 96.8607C34.5556 96.3918 34.7994 96.088 34.5337 95.4193C33.7014 93.3213 32.9153 91.207 32.1885 89.0765C31.9557 88.3955 31.6153 88.2079 30.8687 88.2263C28.8265 88.2793 26.7711 88.3629 24.7399 88.212C21.5119 87.9694 19.9221 86.218 19.9946 83.2087C20.0231 82.0241 20.0275 80.8233 20.2405 79.6611C20.5611 77.9057 21.5537 77.0555 23.4553 76.8251C24.5708 76.6885 25.7105 76.7089 26.8414 76.6987C27.5353 76.6926 28.2292 76.7843 28.9231 76.7884C31.3562 76.8006 32.0655 76.2644 32.7308 74.1053C33.091 72.935 33.5894 71.8014 33.9737 70.6372C34.5227 68.9735 34.1933 68.05 32.7221 66.9836C31.9162 66.3985 31.0949 65.8297 30.2692 65.269C28.6728 64.1864 28.2863 62.7062 28.7562 61.0241C29.6061 57.974 31.5165 55.5702 34.2921 53.8046C36.3387 52.5038 37.575 52.6792 39.3449 54.2919C40.3616 55.2196 41.3652 56.1615 42.3863 57.0871C43.3151 57.9292 44.3845 58.2391 45.6955 57.9598C46.9033 57.7029 48.1396 57.5377 49.3715 57.4174C50.4167 57.3155 50.7681 56.7956 50.7944 55.8944C50.8361 54.5366 50.8888 53.1767 51.0338 51.8249C51.1414 50.8198 51.328 49.8105 51.6091 48.8339C51.9824 47.5332 52.942 46.6891 54.3145 46.2385C54.6043 46.1427 54.9469 45.9959 55.105 45.7757C56.0339 44.481 56.9078 43.1517 57.8191 41.8448C58.7831 40.4584 58.7963 40.0037 57.7445 38.6296C57.0462 37.7162 56.2469 36.866 55.5925 35.9301C55.0194 35.1126 54.5143 34.24 54.108 33.3408C53.6118 32.2399 53.8797 31.2062 54.7668 30.3335C57.6676 27.4812 61.2228 25.6809 65.3401 24.9347C67.2045 24.5963 68.7196 25.4995 69.7188 26.9226C70.6323 28.2213 71.4052 29.6179 72.1145 31.0247C72.6767 32.14 73.5111 32.7434 74.8155 32.7292C77.3364 32.7027 79.8573 32.6578 82.3782 32.5905C83.7002 32.5559 84.5873 31.879 84.9892 30.7474C85.4349 29.4956 85.7731 28.2091 86.153 26.9368C86.77 24.8674 87.5298 24.217 89.8685 24.217C91.309 24.217 92.7912 24.3842 94.1769 24.741C95.8194 25.1631 97.4048 25.8155 98.9683 26.4679C101.415 27.4894 102.141 28.9349 101.379 31.3346C101.032 32.4315 100.488 33.4815 99.9587 34.5193C99.4383 35.5367 99.4295 36.5092 100.174 37.39C101.23 38.6377 102.289 39.8998 103.505 41.0048C103.922 41.382 104.902 41.5512 105.479 41.384C106.753 41.013 107.961 40.4156 109.149 39.8264C112.699 38.0628 114.59 38.391 116.876 41.4778C118.92 44.2384 119.898 47.3395 119.533 50.7178C119.331 52.5813 118.259 53.8678 116.272 54.3898C115.115 54.6935 113.933 54.9219 112.776 55.2257C110.932 55.7109 110.198 56.5897 110.08 58.3716C109.968 60.0312 109.849 61.6908 109.746 63.3525C109.673 64.5044 110.124 65.4545 111.246 65.9765C112.416 66.5229 113.655 66.9388 114.856 67.4281C115.89 67.8501 116.968 68.209 117.93 68.7432C119.968 69.8767 120.723 71.4833 120.111 73.6058C119.265 76.5315 117.506 78.9781 115.023 80.9333C113.661 82.0037 112.638 82.018 111.116 81.1515C109.278 80.1056 107.438 79.0597 105.659 77.9301C104.627 77.2736 103.863 77.4123 103.127 78.2686C101.645 79.9914 100.13 81.6918 98.6938 83.4472C98.5226 83.6572 98.6521 84.2016 98.819 84.5074C99.9323 86.5483 100.951 88.6014 100.881 90.9665C100.833 92.6036 100.154 93.9697 98.6785 94.8586C96.6341 96.0921 94.3877 96.8995 91.9239 97.0361C89.6247 97.1625 88.63 96.5304 87.9119 94.51C87.3959 93.0644 86.8733 91.6128 86.4846 90.1367C86.1728 88.9582 85.2153 89.4047 84.4709 89.2681C83.7551 89.1356 83.575 89.5372 83.351 90.0612C82.3694 92.306 81.3396 94.5385 80.2614 96.9321ZM62.5865 47.0377C66.1834 41.9162 71.436 39.3289 78.0149 39.2657C86.9677 39.1801 94.2954 42.22 99.021 49.5822C102.018 54.2511 103.488 59.3441 102.686 64.7878C101.827 70.6148 98.8014 75.4224 93.8628 79.0984C88.3248 83.2209 81.9412 85.117 74.9099 84.0568C65.7112 82.6684 58.8358 76.1237 57.0154 67.5647C56.8903 66.9775 56.8156 66.3822 56.7124 65.7563C56.2403 65.7848 55.8736 65.7685 55.5244 65.8358C54.6307 66.007 53.7523 66.2395 52.8586 66.4026C52.0702 66.5453 51.9978 66.9408 52.1998 67.5769C52.4787 68.4536 52.7268 69.3426 52.8937 70.2437C53.1177 71.4568 52.5028 72.3356 51.2446 72.7658C50.2872 73.094 49.3078 73.3815 48.3811 73.7709C46.2511 74.666 45.5791 75.93 46.4004 77.9628C47.1536 79.8283 48.1681 81.6 49.0816 83.4085C49.3715 83.9834 49.8941 84.0732 50.465 83.8285C51.5564 83.3616 52.6346 82.8682 53.7106 82.3707C54.8195 81.859 55.8911 81.2677 57.0308 80.8294C58.0936 80.4196 59.1477 80.5969 59.9316 81.4349C60.9132 82.4849 61.9013 83.541 62.7665 84.6746C64.1214 86.4484 64.0643 87.5616 62.6985 89.317C62.1209 90.0592 61.5039 90.7748 60.9242 91.5169C60.4411 92.1367 60.5003 92.7362 61.1416 93.2275C63.8337 95.2929 66.9058 96.5182 70.3995 96.7771C71.4645 96.8567 72.097 96.402 72.3451 95.3989C72.7206 93.882 73.1181 92.3651 73.6231 90.8829C74.1392 89.368 75.3052 88.3343 77.0246 88.2303C79.8595 88.0591 82.7076 88.0917 85.5491 88.002C86.7788 87.9633 87.4332 88.4974 87.756 89.5597C88.2128 91.0582 88.7134 92.5466 89.2295 94.0288C89.7675 95.5722 90.5865 96.088 92.2906 95.6904C93.9419 95.3051 95.5822 94.7974 97.1326 94.1511C98.9969 93.3723 99.8423 91.9206 99.3614 90.0653C98.9068 88.3099 98.1053 86.6258 97.3873 84.9356C97.0996 84.2567 96.6802 83.6083 97.2511 82.9375C98.8827 81.021 100.473 79.0678 102.229 77.2533C103.641 75.7934 104.471 75.7588 106.274 76.768C108.182 77.8364 110.062 78.9496 111.926 80.0852C112.697 80.5541 113.378 80.4889 114.021 79.969C116.336 78.0973 118.031 75.8403 118.764 73.0451C119.089 71.8116 118.679 70.7147 117.467 70.0541C116.465 69.5098 115.381 69.0959 114.322 68.6473C112.965 68.0724 111.54 67.6116 110.251 66.9286C108.927 66.2293 108.259 65.0427 108.33 63.6012C108.422 61.6704 108.553 59.7417 108.716 57.815C108.887 55.768 110.174 54.5508 112.229 53.9901C113.349 53.6843 114.498 53.4723 115.618 53.1746C117.309 52.724 118.139 51.7943 118.189 50.1653C118.281 47.158 117.432 44.3811 115.486 41.961C113.705 39.7448 112.713 39.598 110.073 40.8601C108.777 41.4799 107.477 42.1058 106.125 42.5992C104.772 43.0926 103.424 42.9458 102.381 41.9121C101.309 40.8519 100.284 39.7468 99.3109 38.6071C97.9428 37.0046 97.866 35.2838 98.8717 33.4672C99.3351 32.6293 99.7457 31.7465 100.022 30.8412C100.534 29.1714 100.132 28.3865 98.4062 27.679C96.8383 27.0367 95.2528 26.4027 93.6169 25.9501C92.4465 25.6259 91.1794 25.4913 89.9519 25.4852C88.305 25.477 87.9471 25.8318 87.5079 27.2936C87.1455 28.5006 86.8711 29.7341 86.4209 30.9105C85.5886 33.0901 84.2996 33.9341 81.8117 33.9851C79.5433 34.032 77.2749 33.9871 75.0065 34.0259C72.9885 34.0605 71.6226 33.2715 70.7948 31.5303C70.1777 30.2336 69.4553 28.9634 68.6362 27.7687C67.6744 26.3701 66.3876 25.9154 64.767 26.3456C61.6356 27.1754 58.7897 28.5292 56.4028 30.6231C55.1138 31.7526 55.0106 32.4091 55.8538 33.8567C56.2337 34.5091 56.708 35.1187 57.1735 35.7263C57.8543 36.6091 58.5899 37.4552 59.2553 38.3482C60.1534 39.5532 60.239 40.805 59.3387 42.0528C58.8117 42.7867 58.2473 43.4963 57.7159 44.2282C57.3404 44.744 56.9957 45.2802 56.6663 45.7634C58.6975 46.1998 60.5662 46.6014 62.5865 47.0377ZM82.1015 89.3068C80.7401 89.3068 79.4994 89.2701 78.2653 89.315C76.0518 89.3925 74.9516 90.6117 74.5125 92.5262C74.216 93.8167 73.8581 95.0951 73.4804 96.3673C73.1708 97.4031 72.3451 98.0269 71.234 97.9964C69.9208 97.9617 68.9239 98.4938 67.9313 99.132C63.7305 101.835 59.1103 102.417 54.2156 101.383C41.901 98.7793 36.0159 86.6645 39.5316 76.5091C42.6081 67.6259 53.5393 62.4391 63.3924 64.9326C70.382 66.7002 76.9521 72.4477 76.2604 81.123C76.2143 81.6877 76.1308 82.2504 76.0606 82.8641C80.8608 83.2841 85.279 82.3748 89.4271 80.2748C89.6335 80.1708 89.8773 79.8589 89.8509 79.6734C89.695 78.5765 89.4666 77.4898 89.2492 76.3297C88.7398 76.4031 88.3445 76.4377 87.9602 76.5193C86.9984 76.7232 86.0498 76.978 85.0836 77.1554C83.2039 77.5 82.9975 77.3654 82.3936 75.6997C81.5108 73.2612 80.6325 70.8207 79.719 68.3925C79.4247 67.6096 79.4928 66.8878 80.0725 66.2966C80.7291 65.6237 81.4999 65.0447 82.2091 64.4127C82.914 63.7827 83.6716 63.1853 84.2799 62.4799C84.8596 61.807 85.0462 60.9181 84.4775 60.1923C83.2127 58.5857 81.9368 56.9648 80.4634 55.5295C79.4686 54.561 78.419 54.7017 77.3628 55.6233C76.4295 56.4347 75.606 57.3542 74.675 58.1698C73.7088 59.0179 72.613 59.913 71.2164 59.6581C69.1962 59.2891 67.1671 58.7957 65.2633 58.0801C63.691 57.4888 62.9576 56.1268 63.0542 54.5141C63.1201 53.4335 63.2826 52.355 63.4297 51.2785C63.6427 49.7371 63.1903 48.8543 61.6181 48.3161C60.3598 47.8859 59.0401 47.5556 57.7181 47.3435C54.4001 46.8114 52.7949 48.0123 52.5358 51.1215C52.3843 52.9483 52.2305 54.7771 52.1142 56.606C52.0461 57.7008 51.5476 58.3736 50.3201 58.5388C48.6951 58.759 47.0723 58.9996 45.4584 59.2789C43.7829 59.5684 42.4478 58.9934 41.2861 57.9516C40.2057 56.9852 39.1319 56.0106 38.0998 55.0014C37.2764 54.194 36.3892 54.1512 35.4428 54.7139C32.6781 56.3572 30.8292 58.6305 30.0672 61.6195C29.8059 62.647 30.1397 63.4993 31.04 64.1415C31.9096 64.7634 32.7967 65.3628 33.6663 65.9826C35.423 67.2344 36.0708 68.8471 35.3989 70.837C35.0058 71.9992 34.481 73.1267 34.1252 74.299C33.2052 77.3226 32.1336 78.1035 28.7562 78.0749C27.2564 78.0627 25.7544 78.0015 24.2568 78.0484C22.4584 78.1055 21.7381 78.7334 21.5471 80.3706C21.4285 81.3819 21.3912 82.4034 21.3846 83.4207C21.3714 85.4453 22.1905 86.5401 24.3666 86.7848C26.5296 87.0295 28.7387 86.9479 30.928 86.9479C32.654 86.9479 32.9351 87.0845 33.4884 88.5769C34.2724 90.6912 35.0475 92.8075 35.8381 94.9198C36.4485 96.5508 36.3036 96.6956 34.9663 97.8985C33.7476 98.9954 32.6123 100.213 31.6658 101.517C30.8907 102.584 30.917 103.878 31.7493 104.981C32.8824 106.48 34.3756 107.614 36.185 108.37C37.1315 108.765 37.9505 108.633 38.684 107.944C39.4306 107.242 40.186 106.551 40.9567 105.874C41.9251 105.028 43.0802 104.392 44.4109 104.614C46.4136 104.949 48.414 105.385 50.3399 105.985C52.101 106.533 53.2077 107.813 53.2516 109.581C53.2934 111.235 53.0672 112.892 52.975 114.548C52.8761 116.334 53.2407 116.823 55.1775 116.947C57.3975 117.09 59.633 117.039 61.8596 117.1C62.6721 117.123 62.9642 116.764 62.9707 116.06C62.9839 114.601 63.2233 113.112 63.0015 111.685C62.6787 109.605 63.3506 108.348 65.5004 107.561C67.0486 106.994 68.4166 106.017 69.9208 105.326C71.4799 104.61 72.479 104.857 73.6165 106.072C74.0228 106.508 74.3302 107.03 74.7738 107.428C75.5577 108.131 76.3636 108.829 77.2486 109.414C77.9864 109.901 78.8296 109.924 79.5631 109.292C81.4098 107.695 83.2522 106.097 85.0968 104.498C84.6488 103.844 84.4599 103.473 84.1789 103.173C82.4551 101.328 80.7598 99.4562 78.9482 97.6844C78.2697 97.0218 78.2148 96.6038 78.8099 95.8964C80.4282 93.9656 81.3374 91.7168 82.1015 89.3068ZM91.2607 79.2289C91.6472 78.9863 91.9502 78.8109 92.2379 78.6132C98.8366 74.0706 103.613 65.5035 100.444 55.7374C95.9797 41.9773 82.4902 39.0231 73.5704 41.1394C69.3147 42.1486 66.0011 44.375 63.7327 47.9205C64.6572 48.7972 64.9734 49.8146 64.8548 50.9523C64.7626 51.829 64.6528 52.7036 64.5057 53.5742C64.1763 55.503 64.7999 56.6366 66.7675 57.3502C67.7798 57.7171 68.8799 57.8762 69.9142 58.1983C71.4294 58.6713 72.6371 58.2105 73.6912 57.2299C74.5169 56.4612 75.281 55.6334 76.1177 54.875C77.9864 53.1807 79.7826 53.091 81.7107 54.7404C82.7757 55.6518 83.687 56.7385 84.561 57.8211C87.0292 60.8773 86.6273 63.0895 83.2983 65.324C82.6791 65.74 82.1213 66.2313 81.5372 66.6921C80.9531 67.1529 80.9355 67.6626 81.2012 68.3272C81.9478 70.1989 82.6088 72.0991 83.3005 73.9891C83.5421 74.6476 83.7814 75.3062 84.0383 76.0136C85.5996 75.6732 87.0138 75.3449 88.4389 75.0595C89.9914 74.7475 90.5119 75.1043 90.7578 76.5478C90.9071 77.4062 91.0784 78.2625 91.2607 79.2289ZM50.6736 67.159C48.4909 68.0601 46.6815 69.1815 45.1202 70.627C40.2409 75.1471 39.1495 80.652 40.4934 86.6951C42.5422 95.9045 51.8331 101.813 61.7015 100.245C63.8425 99.9047 65.6981 98.9566 67.2132 97.9311C65.0766 96.8567 62.8412 95.9208 60.8319 94.6731C58.7151 93.358 58.6448 92.1082 60.16 90.208C60.6826 89.5535 61.2316 88.9174 61.752 88.263C62.4108 87.4332 62.4723 86.5728 61.8069 85.7226C61.2711 85.0375 60.7243 84.3566 60.1468 83.7001C58.2012 81.49 58.1859 81.5165 55.4805 82.9294C54.0224 83.6919 52.5402 84.4401 50.9964 85.0314C49.624 85.5554 48.5612 85.2822 48.0166 84.2852C46.9098 82.2668 45.7636 80.2401 44.9621 78.1096C44.0266 75.6303 44.9906 73.8362 47.5467 72.674C48.526 72.2296 49.5625 71.883 50.6056 71.5792C51.3083 71.3753 51.5827 70.9981 51.451 70.3783C51.2358 69.3568 50.9635 68.3395 50.6736 67.159ZM58.3352 65.7155C57.6325 72.411 67.479 82.6174 74.5564 82.5257C76.7808 72.9391 67.5734 65.3465 58.3352 65.7155Z" fill="white"/>
</g>
<defs>
<clipPath id="clip0_630_568">
<rect width="120.556" height="105" fill="white" transform="translate(10.6094 17.8889)"/>
</clipPath>
</defs>
</svg>
