<svg width="92" height="94" viewBox="0 0 92 94" fill="none" xmlns="http://www.w3.org/2000/svg">
<g clip-path="url(#clip0_594_654)">
<path d="M45.2567 70.9304C35.9034 70.8758 26.8082 69.4311 18.1187 65.8242C12.7462 63.5938 7.87446 60.6049 3.92078 56.2474C-0.0755866 51.843 -0.176515 47.0487 3.60247 42.4007C6.60315 38.706 10.4268 36.0662 14.5532 33.8552C21.9481 29.8915 29.7701 27.123 38.0423 25.6977C49.0047 23.8085 59.4605 25.4521 69.3825 30.4296C75.5061 33.5023 81.2027 37.2516 86.2045 41.9776C87.3477 43.0577 88.3434 44.327 89.2401 45.6255C90.8181 47.9086 90.8375 50.3457 89.0441 52.4591C87.4855 54.2957 85.7756 56.0914 83.8405 57.503C76.9405 62.539 69.6309 66.8283 61.2752 69.0275C56.0231 70.4079 50.6739 70.9499 45.2567 70.9304ZM43.7351 69.6982C50.4895 69.6982 55.8581 69.0685 60.0524 68.0371C68.9108 65.8574 76.5775 61.3068 83.8191 55.9471C85.2864 54.8611 86.6005 53.51 87.7864 52.1121C89.5177 50.0708 89.541 48.2965 88.0542 46.0661C87.4467 45.1536 86.746 44.2821 85.9716 43.5081C81.5308 39.0765 76.3504 35.6431 70.8983 32.6445C60.6774 27.0216 49.8179 24.953 38.2461 26.9592C30.4824 28.3045 23.136 30.8469 16.1467 34.4479C11.8689 36.6511 7.87834 39.2773 4.73209 43.0207C1.16273 47.2652 1.25589 51.4823 4.99606 55.5494C7.9288 58.741 11.4031 61.1898 15.248 63.12C24.6635 67.848 34.7466 69.5345 43.7351 69.6982Z" fill="#D8E3FD"/>
<path d="M85.489 87.0992C85.489 86.6118 85.489 86.2316 85.489 85.8534C85.489 81.5348 85.489 77.2143 85.4909 72.8957C85.4909 72.5721 85.4463 72.2212 85.553 71.9326C85.6346 71.7123 85.9257 71.4296 86.1217 71.4315C86.3275 71.4335 86.5914 71.7045 86.7195 71.9228C86.8205 72.0944 86.7564 72.3654 86.7564 72.5935C86.7584 77.4327 86.7584 82.2718 86.7564 87.1109C86.7564 88.2671 86.6225 88.4074 85.4851 88.4094C79.9884 88.4133 74.4917 88.4113 68.9969 88.4094C68.7407 88.4094 68.4379 88.4503 68.24 88.3334C68.0265 88.2086 67.8071 87.9278 67.7858 87.6958C67.7703 87.5301 68.0439 87.2415 68.2438 87.1713C68.5369 87.07 68.8805 87.1031 69.2027 87.1031C74.2141 87.0992 79.2256 87.1012 84.2371 87.1012C84.6136 87.0992 84.9941 87.0992 85.489 87.0992Z" fill="#D8E3FD"/>
<path d="M81.5075 18.3416C81.0281 18.3416 80.6516 18.3416 80.275 18.3416C75.2636 18.3416 70.2521 18.3416 65.2406 18.3396C64.9495 18.3396 64.6253 18.4039 64.3769 18.2967C64.1265 18.1875 63.9538 17.9029 63.7461 17.6962C63.9577 17.4915 64.144 17.2458 64.3905 17.0957C64.5341 17.008 64.769 17.0723 64.9631 17.0723C70.4598 17.0723 75.9565 17.0704 81.4512 17.0723C82.6701 17.0723 82.7284 17.1249 82.7284 18.324C82.7323 23.1631 82.7303 28.0022 82.7284 32.8414C82.7284 33.0675 82.7827 33.3327 82.6857 33.5121C82.5692 33.7304 82.3188 34.0112 82.1247 34.0131C81.9268 34.0151 81.6512 33.748 81.5444 33.5316C81.4415 33.319 81.5056 33.0227 81.5056 32.7634C81.5036 28.3473 81.5056 23.9294 81.5056 19.5133C81.5075 19.1643 81.5075 18.8153 81.5075 18.3416Z" fill="#D8E3FD"/>
<path d="M7.45237 6.70587C7.45237 7.21083 7.45237 7.59492 7.45237 7.97706C7.45237 12.9761 7.45237 17.977 7.45237 22.976C7.45237 23.2684 7.51448 23.5901 7.41355 23.8436C7.31456 24.0951 7.04283 24.2764 6.8468 24.4889C6.63524 24.2569 6.39844 24.0444 6.2257 23.7851C6.15 23.672 6.21017 23.4693 6.21017 23.3074C6.21017 17.7547 6.2257 12.204 6.19465 6.65127C6.18882 5.72712 6.48773 5.37618 7.41937 5.38203C12.2678 5.40933 17.1163 5.39373 21.9647 5.39763C22.1898 5.39763 22.4635 5.35668 22.6265 5.46587C22.8342 5.60624 23.0555 5.8714 23.0768 6.10341C23.0924 6.27304 22.8342 6.55769 22.6343 6.63763C22.38 6.74096 22.0637 6.70392 21.7745 6.70392C17.4113 6.70782 13.0481 6.70587 8.68486 6.70587C8.33161 6.70587 7.97836 6.70587 7.45237 6.70587Z" fill="#D8E3FD"/>
<path d="M7.96898 79.3883C8.46003 79.3883 8.84046 79.3883 9.22088 79.3883C14.2013 79.3883 19.1798 79.3883 24.1602 79.3883C24.4513 79.3883 24.7774 79.3142 25.0239 79.4234C25.2956 79.5442 25.4936 79.8328 25.7246 80.0492C25.4723 80.2442 25.2335 80.4645 24.9599 80.6205C24.8376 80.6907 24.6435 80.6341 24.4824 80.6341C18.9857 80.6341 13.489 80.6361 7.99227 80.6341C6.79472 80.6341 6.75202 80.5912 6.75202 79.3571C6.74814 74.5492 6.75008 69.7432 6.75202 64.9353C6.75202 64.7071 6.68603 64.4381 6.78501 64.2646C6.91894 64.0267 7.18096 63.861 7.38864 63.6641C7.58079 63.8785 7.85058 64.0618 7.94569 64.3133C8.04273 64.5687 7.97286 64.8904 7.97286 65.1829C7.97092 69.8563 7.96898 74.5316 7.96898 79.3883Z" fill="#D8E3FD"/>
<path d="M66.4732 48.8776C66.4402 59.905 57.574 68.7937 46.5981 68.8014C35.5872 68.8092 26.6997 59.8446 26.7463 48.7762C26.7929 37.7371 35.694 28.8485 46.6524 28.9031C57.6439 28.9577 66.5062 37.8872 66.4732 48.8776ZM65.2155 48.8523C65.2155 38.5423 56.8598 30.1431 46.6 30.1392C36.3616 30.1353 27.9671 38.5638 27.9652 48.8484C27.9632 59.1291 36.3655 67.5673 46.5961 67.5634C56.8559 67.5595 65.2155 59.1583 65.2155 48.8523Z" fill="#D8E3FD"/>
<path d="M46.5475 40.1371C51.2775 40.0864 55.2719 44.0736 55.2778 48.8464C55.2816 53.5802 51.4037 57.4991 46.6503 57.5654C41.9261 57.6297 37.9394 53.6446 37.9375 48.8522C37.9356 44.093 41.7922 40.1878 46.5475 40.1371ZM53.9754 48.8951C53.989 44.752 50.7418 41.4473 46.6406 41.4337C42.5356 41.42 39.2127 44.713 39.203 48.8074C39.1933 52.929 42.4754 56.261 46.5533 56.2708C50.6778 56.2786 53.9618 53.0148 53.9754 48.8951Z" fill="#D8E3FD"/>
</g>
<defs>
<clipPath id="clip0_594_654">
<rect width="92" height="93" fill="white" transform="translate(0 0.5)"/>
</clipPath>
</defs>
</svg>
