<svg width="92" height="93" viewBox="0 0 92 93" fill="none" xmlns="http://www.w3.org/2000/svg">
<path d="M8.25547 50.0998C8.09301 49.9954 8.01933 49.9304 7.93244 49.8969C4.19954 48.3994 2.76948 45.1996 2.29909 41.3929C1.93638 38.463 2.17252 35.5528 3.27387 32.7864C4.37712 30.0161 6.13022 27.9611 9.16792 27.2655C8.98656 27.1414 8.89777 27.0429 8.79009 27.0094C5.25178 25.908 3.37588 23.2914 2.59001 19.66C1.76825 15.8632 1.99494 12.155 3.52135 8.59067C4.94007 5.27656 7.26747 3.44415 10.9248 3.41459C24.0863 3.31214 37.2459 3.13678 50.3998 3.76137C52.4948 3.85989 54.6125 4.06678 56.6603 4.51601C60.4423 5.34553 62.8132 7.86165 63.8843 11.7334C64.8742 15.3135 64.8119 18.8739 63.6161 22.3712C62.4712 25.7169 60.3195 27.8291 56.9626 27.9709C58.3435 28.8458 60.0758 29.5708 61.3113 30.8279C62.5657 32.1067 63.3308 33.9076 64.2565 35.3932C65.0386 34.938 66.0341 34.3942 66.9881 33.7815C67.3187 33.5687 67.5908 33.216 67.8156 32.8751C71.403 27.4448 74.9545 21.989 78.5722 16.5784C79.7227 14.8583 81.0148 13.2367 82.29 11.6132C83.3271 10.295 84.572 9.29014 86.2571 8.97489C89.0115 8.46063 90.655 10.0073 90.4075 12.9451C90.1865 15.5716 89.3949 18.0306 88.1217 20.2748C85.0953 25.6085 82.0198 30.9126 78.8726 36.1675C77.792 37.9724 77.093 39.6688 77.2064 41.9446C77.314 44.1021 76.5867 46.3168 76.1598 48.49C74.8185 55.3192 74.8771 62.0164 77.5048 68.5776C78.5042 71.0741 79.2976 73.6789 79.9682 76.2955C80.2648 77.454 80.2195 78.8037 79.9909 79.9938C79.3373 83.3887 76.2127 85.3689 72.6819 84.6044C71.199 84.2832 69.801 83.5404 68.3521 83.034C67.519 82.7424 66.6575 82.5414 65.8093 82.2991C65.764 82.4232 65.7205 82.5454 65.6752 82.6695C65.8565 82.7936 66.0417 82.9119 66.2174 83.0419C67.7305 84.1532 69.2683 85.229 70.7418 86.3954C71.3973 86.9136 71.9244 87.6367 71.7071 88.6022C71.4748 89.6327 70.6889 90.0484 69.7878 90.2573C69.3609 90.3558 68.9188 90.4326 68.4843 90.4307C52.2058 90.3814 35.9273 90.3262 19.6487 90.2553C18.963 90.2533 18.2583 90.1883 17.5953 90.0189C15.7874 89.5578 15.0412 88.1451 15.5512 86.2752C17.3875 79.5406 25.7279 75.6827 31.6843 78.8293C32.5231 79.2726 33.3241 79.7987 34.1269 80.3149C35.4758 81.1819 35.7195 81.2016 36.9549 80.112C38.8875 78.4096 41.1091 77.4107 43.6046 77.1112C44.5341 77.0008 45.4862 77.0934 46.4761 77.0934C45.3218 76.3388 44.245 75.6039 43.1342 74.932C42.8887 74.7822 42.5203 74.8295 42.2086 74.8236C33.2372 74.6325 24.2676 74.469 15.2981 74.2365C13.5129 74.1911 11.7126 74.0059 9.95946 73.6651C6.09243 72.9124 3.62714 70.483 2.6788 66.4832C1.83625 62.9267 1.94582 59.388 3.13597 55.9241C4.03896 53.2996 5.49925 51.1618 8.25547 50.0998ZM61.8327 40.9101C61.5815 41.253 61.3623 41.5288 61.1659 41.8185C56.2296 49.1343 49.1511 52.3834 40.9126 53.4001C38.385 53.7114 35.8366 53.8533 33.3146 54.2099C31.4708 54.472 30.6207 55.5576 30.5697 57.4905C30.479 60.8795 31.5653 63.6538 34.5085 65.431C36.1105 66.3984 37.6747 67.4368 39.2823 68.3964C39.475 68.5107 39.8925 68.4161 40.1022 68.2644C41.6211 67.1551 43.1645 66.0714 44.604 64.8557C47.2128 62.6489 49.3948 60.0205 51.2518 57.1004C51.5125 56.6906 51.845 56.2689 52.2851 56.6886C52.4608 56.8561 52.3418 57.4275 52.2643 57.794C52.2152 58.0324 52.0036 58.2353 51.8601 58.4501C49.0358 62.6824 45.524 66.1679 41.3717 68.9579C41.0675 69.1628 40.7672 69.3737 40.4536 69.5884C41.1582 70.5224 41.8213 71.3578 42.439 72.2267C43.8275 74.1754 45.643 75.4226 47.8986 76.0117C49.782 76.5043 51.6561 77.0422 53.5924 77.5762C53.6396 77.4402 53.7379 77.2058 53.804 76.9614C55.1075 72.2169 56.9154 67.689 59.1634 63.3503C59.4033 62.8893 59.5563 61.9849 60.3007 62.375C61.1186 62.8065 60.4726 63.4686 60.2175 63.9651C57.9903 68.3156 56.1805 72.8434 54.9242 77.5998C54.8392 77.919 54.9242 78.5062 55.132 78.652C56.513 79.6175 57.9336 80.5258 59.3712 81.3967C60.5406 82.106 61.8006 82.1809 63.1098 81.8301C64.1979 81.5385 65.3068 81.3297 66.4535 81.0755C66.4648 80.8706 66.48 80.644 66.4875 80.4194C66.6179 76.2186 66.7331 72.0179 66.8823 67.8171C66.922 66.7039 67.0278 65.5886 67.1903 64.4872C67.2337 64.1877 67.5964 63.9395 67.8118 63.6676C68.0007 63.9907 68.1953 64.3079 68.3691 64.6389C68.4087 64.7138 68.371 64.832 68.3653 64.9305C68.2085 67.1235 67.9686 69.3146 67.9157 71.5095C67.8382 74.7566 67.8949 78.0057 67.8949 81.3297C69.5479 82.2991 71.3501 83.2626 73.4546 83.4557C76.2939 83.7158 78.4853 82.0804 78.8877 79.2352C78.9954 78.4688 79.0388 77.6176 78.8291 76.8925C78.0376 74.1399 77.2687 71.3637 76.2354 68.7057C74.3576 63.8784 73.7474 58.9033 74.1989 53.7607C74.3689 51.816 74.6542 49.8811 74.8997 47.8438C69.8652 47.0734 65.7054 44.3346 61.8327 40.9101ZM31.382 4.48252C31.382 4.55739 31.3802 4.63029 31.3802 4.70517C24.5208 4.70517 17.6595 4.72881 10.8001 4.69137C8.36882 4.67758 6.52315 5.70216 5.30845 7.84786C3.06607 11.8102 2.88094 16.0386 4.04652 20.3812C4.85695 23.4037 6.81408 25.2597 9.71387 25.9415C11.176 26.2863 12.6911 26.5089 14.1892 26.5523C22.4616 26.7887 30.7341 27.0488 39.0084 27.1119C44.7627 27.1552 50.5188 26.903 56.2731 26.771C59.4657 26.6981 61.5078 24.9839 62.5015 21.8747C63.4895 18.7813 63.599 15.6307 62.8264 12.4722C61.9177 8.76209 59.6999 6.40951 56.0596 5.65093C54.8619 5.4007 53.6396 5.18199 52.423 5.13864C45.4087 4.89038 38.3944 4.69531 31.382 4.48252ZM31.7448 28.2231C31.7429 28.3098 31.7429 28.3965 31.741 28.4832C24.6927 28.4832 17.6444 28.499 10.5942 28.4753C8.19313 28.4675 6.42492 29.5551 5.21966 31.6594C3.29843 35.0129 3.02829 38.6305 3.71781 42.3958C4.42057 46.236 6.55527 48.6102 10.2768 49.2644C11.8807 49.5461 13.5186 49.7432 15.1432 49.7629C26.1851 49.8831 37.2289 49.9481 48.2708 50.0249C48.6127 50.0269 48.9943 50.0703 49.289 49.9323C52.5458 48.4132 55.7403 46.7561 58.0658 43.8125C59.7037 41.7377 61.2169 39.5565 62.7584 37.401C62.9171 37.1803 62.9889 36.7902 62.9303 36.5183C62.2559 33.3322 60.6407 30.9048 57.5765 29.8447C56.2768 29.3955 54.8921 29.0448 53.5338 28.9857C46.274 28.6724 39.0084 28.4655 31.7448 28.2231ZM41.7268 73.4267C40.1438 71.0583 38.4965 68.9441 35.9764 67.7521C35.0091 67.295 34.1137 66.6605 33.2202 66.0517C30.2901 64.0577 29.2813 61.0411 29.3097 57.5891C29.3323 54.9665 30.5924 53.406 33.0898 52.9804C35.4418 52.5805 37.839 52.4721 40.2099 52.1923C41.8591 51.9972 43.4988 51.7273 45.1443 51.4909C45.1329 51.3372 45.1197 51.1815 45.1084 51.0278C43.4762 51.0278 41.8421 51.0278 40.2099 51.0278C30.4828 51.0337 20.7558 51.0692 11.0287 51.0278C8.15346 51.016 6.14722 52.3204 4.89662 54.935C3.1643 58.5565 2.97539 62.3474 3.90673 66.2369C4.7096 69.5904 6.72151 71.6612 9.96512 72.3548C11.2214 72.6227 12.5079 72.8355 13.7868 72.8809C20.0795 73.0996 26.3721 73.2769 32.6666 73.4148C35.6477 73.4799 38.6306 73.4267 41.7268 73.4267ZM43.9088 89.0376C43.9088 89.0692 43.9088 89.0987 43.9088 89.1302C51.0232 89.1302 58.1376 89.1342 65.252 89.1263C66.633 89.1243 68.0177 89.1322 69.393 89.0337C69.7632 89.0061 70.2563 88.679 70.4093 88.348C70.5075 88.1372 70.1543 87.5875 69.886 87.3175C68.165 85.5935 66.1739 84.295 63.9523 83.3907C63.6406 83.2645 63.2628 83.1325 62.9568 83.2015C61.5324 83.5305 60.2194 83.2409 58.9235 82.6281C58.5929 82.4725 58.1886 82.4055 57.824 82.4272C55.3946 82.5769 53.3053 81.7848 51.2971 80.3465C48.1725 78.1082 44.6965 77.6648 41.1393 79.0638C39.8736 79.5623 38.7156 80.4273 37.601 81.2587C36.0803 82.3937 35.1848 82.5079 33.6395 81.509C32.9443 81.0597 32.2529 80.6046 31.537 80.1967C30.1749 79.4184 28.7467 78.8392 27.1636 78.8136C24.3961 78.7682 22.0914 79.9465 20.0908 81.8203C18.657 83.1641 17.3799 84.6655 16.7641 86.6358C16.3995 87.7983 16.7376 88.4899 17.8654 88.7795C18.5304 88.9509 19.2331 89.0278 19.9189 89.0278C27.9174 89.0436 35.9121 89.0376 43.9088 89.0376ZM76.4639 37.7812C76.6188 37.5586 76.7171 37.4364 76.7964 37.3025C78.6156 34.2721 80.4878 31.2752 82.2371 28.2034C84.1942 24.7672 86.1154 21.3053 87.9007 17.7685C88.7753 16.0346 89.2835 14.1057 89.172 12.0801C89.1002 10.762 88.5127 10.1926 87.2583 10.1729C85.8755 10.1512 84.7269 10.7324 83.8353 11.7688C82.7434 13.0377 81.6533 14.3244 80.7163 15.7174C76.8701 21.4393 73.0843 27.2045 69.2796 32.9559C69.2192 33.0485 69.2003 33.1707 69.1361 33.3578C72.3268 33.4879 74.743 34.9046 76.4639 37.7812ZM62.6167 39.9151C66.3194 43.1977 70.2979 45.899 75.2587 46.5788C76.9608 41.515 76.2486 37.3911 72.2947 35.4405C67.9742 33.3086 65.1141 35.6139 62.6167 39.9151ZM56.1559 81.0381C54.0798 79.2175 51.1498 77.8304 49.5686 77.9624C51.9281 78.7288 53.4639 81.0046 56.1559 81.0381Z" fill="#D8E3FD"/>
<path d="M26.6799 15.8533C26.2605 16.9449 26.0206 18.0207 25.4765 18.8916C24.326 20.7339 22.129 20.7634 20.7707 19.0729C19.4275 17.402 19.3954 14.484 20.7008 12.7658C22.0289 11.0181 24.1787 10.9649 25.4066 12.7855C25.9922 13.6564 26.2454 14.7716 26.6799 15.8533ZM25.2857 15.8317C25.0779 15.148 24.9778 14.4485 24.668 13.8672C23.8613 12.3521 22.2914 12.3658 21.4678 13.8672C20.7594 15.1578 20.6989 16.5449 21.4527 17.7882C21.7908 18.3478 22.5427 18.931 23.1227 18.9487C23.6478 18.9645 24.3241 18.3241 24.6887 17.7902C25.0458 17.268 25.093 16.5173 25.2857 15.8317Z" fill="#D8E3FD"/>
<path d="M15.5362 15.8399C15.1867 16.8645 15.0072 17.8536 14.5406 18.6634C13.2711 20.8722 10.7321 20.8347 9.39464 18.6634C8.35752 16.9788 8.40663 14.5434 9.50988 12.914C10.8304 10.9673 13.2125 10.9338 14.4405 12.9455C14.9581 13.7927 15.1716 14.8409 15.5362 15.8399ZM14.3366 15.9069C13.9587 15.0045 13.7358 14.1316 13.2673 13.4381C12.6326 12.4962 11.4953 12.5278 10.734 13.3494C9.58355 14.5927 9.59111 17.1778 10.7472 18.4073C11.5275 19.2368 12.5344 19.3018 13.1974 18.3777C13.7037 17.6802 13.9493 16.7798 14.3366 15.9069Z" fill="#D8E3FD"/>
<path d="M19.7384 39.5089C19.7762 37.9917 20.1068 36.8863 20.9134 35.978C22.1678 34.5673 23.9511 34.5673 25.2169 35.9623C26.8094 37.7198 26.8207 40.9334 25.2395 42.7087C23.9757 44.1273 22.0923 44.1096 20.8643 42.6555C20.0312 41.6743 19.7309 40.494 19.7384 39.5089ZM25.2849 39.3039C25.0827 38.6557 24.9713 37.9247 24.6445 37.3218C23.8189 35.8066 22.2868 35.848 21.4613 37.3691C20.7774 38.6301 20.7094 39.9817 21.4216 41.1994C21.7541 41.7688 22.4493 42.3127 23.0652 42.4466C23.8586 42.6181 24.4574 41.9344 24.7691 41.1699C24.9958 40.6063 25.0997 39.9916 25.2849 39.3039Z" fill="#D8E3FD"/>
<path d="M8.66128 39.3637C8.62539 38.1362 8.97487 37.0367 9.72296 36.093C10.9226 34.5797 12.8929 34.5384 14.1586 35.9806C15.6416 37.6692 15.7115 40.7508 14.306 42.5143C12.9817 44.1753 10.949 44.2521 9.72296 42.5222C9.10333 41.6473 8.83508 40.5026 8.40625 39.478C8.49315 39.4406 8.57816 39.4031 8.66128 39.3637ZM14.2398 39.2652C13.9924 38.5697 13.8393 37.8131 13.4748 37.1924C12.7021 35.8742 11.2588 35.8545 10.5145 37.1845C10.1386 37.8564 9.90621 38.7135 9.89299 39.4938C9.86276 41.1607 10.9301 42.5438 12.0239 42.5064C13.1442 42.467 14.1378 40.9518 14.2398 39.2652Z" fill="#D8E3FD"/>
<path d="M26.4287 62.4208C26.3758 63.5064 26.0622 64.7162 25.1535 65.6817C23.8897 67.0235 22.0308 66.9545 20.8444 65.532C19.3955 63.7941 19.3709 60.7539 20.7953 58.9944C22.0213 57.4772 23.9294 57.424 25.231 58.8722C25.9602 59.686 26.4192 60.9568 26.4287 62.4208ZM25.3878 62.208C25.0307 61.341 24.8305 60.4938 24.3752 59.8377C23.6384 58.7737 22.4577 58.8545 21.6719 59.885C20.6952 61.1677 20.7254 63.4079 21.7361 64.6414C22.5333 65.6127 23.6724 65.6719 24.3695 64.6315C24.8342 63.9419 25.0402 63.0651 25.3878 62.208Z" fill="#D8E3FD"/>
<path d="M15.3166 61.9078C15.3071 63.6988 14.8802 64.9599 13.8128 65.9214C12.7153 66.9105 11.2172 66.8868 10.1234 65.8958C8.20594 64.1579 8.14737 60.4655 10.01 58.6705C11.2701 57.4568 13.0402 57.5514 14.1831 58.9168C14.9803 59.8646 15.3392 60.9916 15.3166 61.9078ZM14.2398 62.1561C13.9961 61.4586 13.8506 60.7 13.4879 60.0774C12.719 58.7572 11.2739 58.7277 10.5201 60.0478C10.1385 60.7177 9.90992 61.5748 9.89103 62.3551C9.85325 63.9964 10.9319 65.415 12.0106 65.3894C13.1176 65.3638 14.1302 63.8308 14.2398 62.1561Z" fill="#D8E3FD"/>
</svg>
