<svg width="92" height="93" viewBox="0 0 92 93" fill="none" xmlns="http://www.w3.org/2000/svg">
<path d="M39.662 80.9593C35.7022 80.9593 31.7509 80.9573 27.7995 80.9593C21.8301 80.9652 15.8629 80.9849 9.89347 80.9711C8.98194 80.9691 8.05558 80.8844 7.1589 80.7248C3.52766 80.0726 1.53927 77.8521 1.51171 74.0316C1.45448 66.2546 1.53715 58.4777 1.57955 50.6988C1.60075 46.9571 1.60287 43.2135 1.72369 39.4738C1.78093 37.7143 1.906 35.9193 2.34692 34.2189C3.36443 30.294 6.80489 27.6577 11.1272 27.4055C13.9783 27.24 16.8422 27.2636 19.6997 27.2045C20.0813 27.1966 20.465 27.2025 20.9313 27.2025C21.0267 25.441 21.1412 23.7485 21.2027 22.054C21.2769 20.0778 22.4089 18.9507 24.5668 18.9291C25.8663 18.9153 27.1827 19.002 28.4673 19.1852C29.8918 19.3882 30.0995 18.2631 30.7058 17.5853C31.2442 16.9843 31.2082 16.2987 30.691 15.6859C30.0148 14.8879 29.2813 14.1293 28.6051 13.3313C27.0873 11.5364 27.2018 10.3601 29.0375 8.83109C29.7731 8.21831 30.5087 7.59568 31.3078 7.06172C32.69 6.14157 34.0297 6.26176 35.1956 7.41047C35.8972 8.10009 36.4717 8.89808 37.1607 9.60149C38.2778 10.7423 39.1745 10.9059 40.6605 10.3246C42.4941 9.60937 43.0728 8.8902 43.0113 7.3356C42.9774 6.48441 42.8333 5.6352 42.8375 4.78401C42.8439 3.03829 43.6325 2.14376 45.4873 1.93687C46.8821 1.77924 48.3045 1.72604 49.7078 1.7753C51.5457 1.83835 52.4742 2.75456 52.5632 4.45102C52.6141 5.40073 52.5251 6.35831 52.5972 7.30407C52.6226 7.61736 52.8833 8.02128 53.1695 8.18876C53.8521 8.58676 54.5961 8.9099 55.3487 9.18378C56.2072 9.49706 56.9513 9.39066 57.3095 8.45475C57.4049 8.20846 57.5406 7.97793 57.6635 7.74149C58.5708 5.98198 59.9847 5.42634 61.8099 6.37801C63.3976 7.20753 64.873 8.2459 66.2996 9.30791C67.296 10.0507 67.3998 11.4497 66.6537 12.6535C66.2 13.3865 65.5937 14.0407 65.0341 14.7145C64.3452 15.544 64.2901 16.4169 64.9027 17.2681C65.4496 18.0286 66.0241 18.803 66.7384 19.4177C67.0543 19.6896 67.7623 19.6798 68.2711 19.6246C69.384 19.5044 70.4778 19.1537 71.5886 19.1103C73.6003 19.0335 74.639 19.7881 75.1923 21.6304C75.4551 22.5072 75.5802 23.4254 75.6989 24.3337C75.8176 25.242 75.8494 26.1602 75.93 27.2025C76.3009 27.2025 76.674 27.1868 77.045 27.2045C79.2263 27.307 81.4372 27.2439 83.5825 27.5611C87.7607 28.1798 89.4926 29.8585 90.2642 33.7243C90.5016 34.9125 90.6733 36.1301 90.6924 37.336C90.8662 47.8399 91.0252 58.3437 91.1206 68.8476C91.1418 71.0721 90.9913 73.3124 90.7242 75.5231C90.3235 78.8451 88.4666 80.4568 84.8692 80.5632C78.6942 80.7465 72.5149 80.8273 66.3378 80.9219C63.6923 80.9613 61.0446 80.9278 58.2443 80.9278C58.4436 82.2045 59.2322 82.9434 60.2391 83.4892C60.998 83.899 61.8438 84.165 62.6239 84.5414C64.4406 85.4201 65.1465 87.0023 64.7161 89.1441C64.3685 90.874 63.4464 91.7134 61.2396 91.808C57.4325 91.9715 53.6189 91.9952 49.8075 92.0306C45.676 92.07 41.5423 92.0582 37.4108 92.0641C36.8808 92.0641 36.3509 92.0582 35.8231 92.0149C33.0991 91.7883 31.31 89.1303 32.2766 86.7442C32.6242 85.8832 33.3195 85.3551 34.2629 85.1246C34.9094 84.967 35.575 84.8704 36.2237 84.7207C38.0234 84.3089 39.4755 82.7405 39.662 80.9593ZM30.5002 28.6606C30.1716 28.5956 30.0699 28.5581 29.9681 28.5581C23.9648 28.5621 17.9594 28.5148 11.9582 28.6192C10.629 28.6428 9.21512 29.0074 8.00259 29.5374C4.62996 31.0151 3.30508 33.7972 3.19697 37.07C2.9977 43.1071 2.88323 49.1482 2.8472 55.1873C2.80904 61.6184 2.79208 68.0536 2.98287 74.4808C3.08462 77.8796 4.94794 79.4382 8.63429 79.5919C11.3455 79.7042 14.0653 79.6076 16.7829 79.6076C34.9391 79.6076 53.0953 79.6332 71.2515 79.5899C75.9787 79.5781 80.7102 79.4185 85.4331 79.1978C87.7204 79.0894 88.9287 78.0964 89.217 76.0157C89.5625 73.5193 89.7363 70.9835 89.7194 68.4654C89.6494 58.3871 89.4862 48.3108 89.3314 38.2325C89.3124 36.9557 89.2 35.673 89.0071 34.41C88.4454 30.7176 86.9318 29.0586 83.0208 28.8024C78.5289 28.5069 73.9988 28.6901 69.4857 28.6704C69.4264 28.6704 69.3691 28.7354 69.1063 28.8891C69.1063 30.6979 69.0702 32.6308 69.1423 34.5578C69.1529 34.8711 69.5663 35.3085 69.9076 35.4464C70.906 35.8484 71.9638 36.1183 72.9919 36.4612C75.3958 37.2591 76.2437 38.3448 76.2967 40.7092C76.32 41.783 76.3009 42.8588 76.3009 44.0272C77.0386 44.0706 77.6661 44.108 78.2914 44.1455C79.9279 44.244 80.7674 44.8351 80.9031 46.3247C81.0175 47.5857 80.9094 48.8763 80.7716 50.1432C80.6423 51.3471 79.7414 52.0721 78.5161 52.147C76.585 52.2672 74.6348 52.283 72.7036 52.1647C71.3808 52.084 70.1704 51.4692 69.8949 50.1373C69.6511 48.9649 69.5726 47.7295 69.6638 46.5394C69.7655 45.2154 70.7746 44.443 72.1228 44.1573C73.0046 43.9701 73.9267 43.9386 74.8785 43.8322C74.8785 42.7446 74.8446 41.6392 74.887 40.5338C74.9443 38.9694 74.0667 38.1103 72.5531 37.6591C71.4466 37.3301 70.3443 36.9853 69.2547 36.6109C68.3537 36.3016 67.7835 35.7164 67.7666 34.7745C67.7517 33.8899 67.7517 33.0071 67.7496 32.1225C67.7475 30.9915 67.7496 29.8605 67.7496 28.7276C62.2847 28.7276 56.9131 28.7276 51.4249 28.7276C53.4599 30.3531 55.3678 31.9077 57.3137 33.4209C58.4775 34.3253 59.0075 35.409 59.0096 36.8434C59.016 40.8156 59.122 44.7878 59.2237 48.76C59.2343 49.1442 59.3657 49.6427 59.6455 49.887C60.909 50.9845 62.236 52.019 63.5651 53.0475C63.7813 53.2149 64.1184 53.3154 64.4067 53.3312C66.3081 53.4277 68.2117 53.4711 70.1111 53.5735C71.5271 53.6504 72.3178 54.1883 72.4683 55.5183C72.6421 57.0689 72.6294 58.655 72.4959 60.2116C72.3581 61.8312 71.4444 62.6667 69.7125 62.7829C67.8853 62.9051 66.0347 62.9405 64.2116 62.8184C61.7442 62.6529 60.5825 61.3426 60.6313 59.0255C60.6461 58.3063 60.8284 57.5871 60.8114 56.8699C60.7818 55.6286 61.0361 54.5351 62.3441 53.8001C61.0764 52.7736 59.936 51.7963 58.7298 50.8939C58.1299 50.4446 57.8543 49.9856 57.8479 49.2447C57.8161 45.0755 57.708 40.9062 57.6593 36.737C57.6487 35.8543 57.3583 35.1489 56.6269 34.5775C54.4923 32.9086 52.2919 31.3028 50.2675 29.5256C48.8218 28.2567 47.2319 28.7177 45.6272 28.631C45.6039 28.9285 45.5869 29.0901 45.5806 29.2536C45.4343 33.0249 45.2859 36.7961 45.1439 40.5673C45.0676 42.6283 44.0585 44.1356 42.0489 45.0144C41.2561 45.3612 40.4252 45.6488 39.5857 45.8892C38.14 46.3069 36.6689 46.6439 35.2231 47.0576C33.5188 47.5443 32.6094 48.6713 32.4356 50.2969C32.2872 51.6938 32.196 53.0967 32.071 54.5942C32.6031 54.6533 33.0779 54.7321 33.557 54.7577C35.2677 54.8503 36.035 55.3547 36.1707 56.8837C36.2894 58.2098 36.1771 59.5673 36.0287 60.8973C35.9163 61.9061 35.185 62.6332 34.0933 62.708C32.2745 62.8341 30.4281 62.9327 28.6178 62.7829C26.9749 62.647 26.1185 61.6776 26.0125 60.1407C25.9405 59.1023 26.0083 58.0364 26.1694 57.0059C26.3729 55.6995 27.295 54.9173 28.6771 54.6631C29.3216 54.5449 29.9893 54.539 30.7058 54.4779C30.7885 53.3194 30.8881 52.212 30.9454 51.1008C31.1022 48.0842 32.3678 46.5473 35.45 45.6528C37.396 45.0873 39.3737 44.5908 41.2752 43.913C42.7485 43.3869 43.6558 42.3387 43.7194 40.7624C43.8699 36.9912 44.0607 33.2219 44.2281 29.4507C44.2387 29.1985 44.1836 28.9423 44.1518 28.6251C40.0224 28.6251 35.9502 28.6251 31.806 28.6251C31.806 29.2339 31.8102 29.7856 31.806 30.3393C31.7827 33.2318 30.3963 34.7351 27.3289 35.0819C25.7221 35.2632 24.0878 35.2592 22.4852 35.4681C20.5731 35.7164 19.4242 36.7193 19.3224 38.5123C19.1719 41.1486 19.2843 43.7987 19.2843 46.4173C20.0007 46.5316 20.5604 46.6025 21.1115 46.7109C22.9367 47.0675 23.8525 47.8832 24.0432 49.6112C24.1535 50.6062 24.0517 51.6446 23.8736 52.6376C23.5811 54.2651 22.5403 55.073 20.7257 55.1459C19.244 55.205 17.7559 55.2188 16.2762 55.1518C13.7748 55.0395 12.2973 53.546 12.3609 51.2525C12.38 50.5333 12.469 49.8102 12.5899 49.0989C12.8188 47.7433 13.6985 46.9315 15.1421 46.6931C16.0664 46.5414 17.0054 46.4626 17.9297 46.3522C17.9297 45.7355 17.9403 45.1819 17.9276 44.6262C17.8894 42.8234 17.7474 41.0166 17.8173 39.2177C17.9445 35.9843 19.8884 34.2327 23.3479 34.0632C24.5117 34.0061 25.6797 33.9864 26.8372 33.8721C28.2807 33.7283 29.7498 33.4209 30.1737 31.9077C30.462 30.8654 30.4048 29.7344 30.5002 28.6606ZM22.3198 27.2774C26.7418 27.2774 30.939 27.2872 35.1362 27.2478C35.3652 27.2459 35.7361 26.8577 35.7976 26.5996C37.4384 19.5872 44.8937 15.0002 52.417 16.5903C57.301 17.6227 60.8856 20.2433 62.4055 24.8696C62.6663 25.6637 62.715 26.5188 62.8465 27.2636C66.7257 27.2636 70.5499 27.2636 74.6305 27.2636C74.3804 25.4292 74.2553 23.7308 73.8907 22.0757C73.5685 20.6137 72.6951 20.1448 71.0798 20.3654C70.109 20.4975 69.1529 20.7516 68.199 20.9802C67.3129 21.191 66.4798 21.1319 65.8608 20.4699C65.121 19.6798 64.3939 18.866 63.7813 17.9892C62.7977 16.5844 62.9101 15.2268 63.9954 13.8811C64.4596 13.3038 64.996 12.7659 65.3945 12.1531C66.005 11.2152 65.8163 10.4921 64.8963 9.84975C63.9933 9.22121 63.103 8.56903 62.1618 7.99172C60.1119 6.73859 59.2513 7.07749 58.6301 8.87837C58.609 8.93946 58.5644 8.99462 58.5326 9.05373C57.7462 10.5197 56.7138 10.9669 55.0752 10.431C54.1828 10.1394 53.3666 9.65469 52.4848 9.32958C51.4185 8.93748 51.109 8.2321 51.1896 7.22723C51.2617 6.34649 51.2786 5.45195 51.196 4.57318C51.0857 3.40083 50.6512 3.00282 49.3644 2.98706C48.0629 2.9713 46.7549 3.07376 45.4555 3.19395C44.7008 3.26488 44.2451 3.71806 44.2578 4.46284C44.2726 5.44604 44.3256 6.42924 44.3489 7.41441C44.3956 9.49509 43.5095 10.6202 41.1311 11.5265C39.1702 12.2752 37.7139 12.0092 36.2449 10.5571C35.5687 9.88916 35.0069 9.12467 34.354 8.43702C33.5379 7.57598 32.9655 7.49717 31.9735 8.19073C31.1298 8.77986 30.3539 9.45962 29.5717 10.1217C28.8213 10.7581 28.7768 11.4792 29.4127 12.2122C30.055 12.953 30.7397 13.6604 31.3736 14.4071C32.637 15.8948 32.7748 16.8779 31.9417 18.1803C30.5066 20.4206 29.8854 20.6925 27.5621 20.4088C26.3878 20.265 25.1731 20.2216 23.9987 20.328C23.5281 20.3714 22.7735 20.9073 22.7268 21.2797C22.4958 23.1968 22.447 25.1317 22.3198 27.2774ZM41.2561 80.9908C40.4464 83.4616 39.3292 84.9315 37.5634 85.6231C36.6985 85.96 35.7404 86.0979 34.8183 86.3028C33.894 86.5078 33.4658 87.022 33.4552 87.9106C33.434 89.8298 34.5088 90.8248 36.8215 90.8149C44.6881 90.7775 52.5548 90.7105 60.4193 90.6337C61.0086 90.6277 61.6509 90.5647 62.166 90.3322C62.6218 90.1253 63.1178 89.7017 63.2747 89.2741C63.9191 87.5067 63.2789 86.1413 61.4304 85.4418C59.1453 84.5749 57.2396 83.4242 56.7562 80.9948C51.5436 80.9908 46.4327 80.9908 41.2561 80.9908ZM61.2545 27.3089C61.6085 22.5545 56.2157 17.8001 50.2314 17.5518C42.8757 17.2464 37.4892 22.8461 37.1925 27.3089C45.1948 27.3089 53.1907 27.3089 61.2545 27.3089ZM67.1052 61.7367C67.1073 61.715 67.1115 61.6913 67.1136 61.6697C67.9234 61.6125 68.7311 61.5258 69.5408 61.5042C70.5266 61.4766 71.1053 60.9722 71.1604 60.1328C71.2537 58.7299 71.2621 57.3152 71.1625 55.9143C71.1349 55.538 70.6092 54.8956 70.2849 54.8799C68.0464 54.7715 65.7972 54.7498 63.5545 54.7991C62.7214 54.8168 62.2656 55.4001 62.202 56.1921C62.1236 57.1734 62.0113 58.1506 61.9667 59.1338C61.9053 60.5091 62.5031 61.2441 63.9572 61.4687C64.9938 61.6303 66.0559 61.6519 67.1052 61.7367ZM18.5974 54.0129C18.5995 53.9913 18.6038 53.9696 18.6059 53.9479C19.3457 53.9065 20.0855 53.8711 20.8232 53.8257C21.8005 53.7647 22.4131 53.3075 22.5106 52.3795C22.5996 51.5342 22.695 50.6831 22.6802 49.8358C22.6632 48.8841 22.1566 48.1945 21.084 48.0428C20.0092 47.8911 18.9175 47.6881 17.8385 47.7177C13.9656 47.828 13.8024 48.1157 13.7812 51.7135C13.7748 52.8366 14.4532 53.5696 15.6572 53.7627C16.6239 53.9203 17.616 53.9361 18.5974 54.0129ZM75.364 51.0889C76.4832 51.0101 77.416 51.0279 78.2999 50.8466C78.7302 50.7579 79.3662 50.3225 79.4022 49.9954C79.5379 48.7364 79.504 47.4576 79.4489 46.1887C79.4383 45.9562 79.044 45.5543 78.8087 45.5424C76.7419 45.4341 74.6666 45.3257 72.5997 45.373C71.7221 45.3927 70.9505 45.9483 71.0056 46.9039C71.0819 48.2339 70.429 49.7866 72.127 50.7047C72.303 50.7993 72.5234 50.8486 72.7312 50.8683C73.6724 50.9569 74.6178 51.0279 75.364 51.0889ZM30.8118 61.7288C31.9289 61.6401 32.8277 61.6559 33.6693 61.4608C34.0827 61.3662 34.6593 60.9012 34.6953 60.5604C34.8267 59.3348 34.7928 58.0896 34.7419 56.8542C34.7313 56.602 34.3964 56.1626 34.1866 56.1488C32.408 56.0365 30.6231 55.9478 28.8425 55.9734C28.0751 55.9852 27.5897 56.533 27.524 57.2837C27.4477 58.1625 27.3819 59.0432 27.3459 59.924C27.312 60.7633 27.7911 61.3071 28.6475 61.4746C29.4318 61.6283 30.2416 61.6657 30.8118 61.7288Z" fill="#D8E3FD"/>
<path d="M58.725 65.5315C58.725 66.9423 58.7568 68.355 58.7017 69.7638C58.689 70.1007 58.4855 70.5815 58.2057 70.7352C55.6322 72.1499 53.0291 73.5193 50.4175 74.8788C49.4975 75.3576 48.5838 75.3103 47.6087 74.865C45.0183 73.6828 42.3897 72.5755 39.776 71.4366C38.5741 70.9125 38.042 70.1382 38.1162 68.8062C38.254 66.3512 38.1734 63.8863 38.1437 61.4253C38.1352 60.8145 38.3493 60.4815 38.9662 60.2353C41.8788 59.0747 44.7618 57.8531 47.6808 56.7103C48.1069 56.5428 48.7364 56.531 49.1604 56.6965C52.0794 57.8433 54.9581 59.0747 57.8707 60.2333C58.53 60.4953 58.7632 60.8441 58.7399 61.4943C58.6932 62.84 58.725 64.1878 58.725 65.5315ZM48.1217 73.7715C48.1217 71.1371 48.1429 68.7786 48.092 66.4221C48.0857 66.1423 47.7444 65.7483 47.4497 65.6162C45.7411 64.8458 43.9987 64.1444 42.2752 63.4036C41.4019 63.0272 40.5476 62.6154 39.5174 62.1425C39.5174 64.7178 39.5068 67.1019 39.5364 69.484C39.5386 69.6909 39.7611 69.9924 39.9668 70.0869C42.6102 71.3026 45.2663 72.4868 48.1217 73.7715ZM57.3768 62.1898C54.8012 63.3681 52.4292 64.4439 50.0719 65.5512C49.8324 65.6635 49.542 65.967 49.5399 66.1857C49.5017 68.7057 49.5165 71.2258 49.5165 73.736C49.6925 73.7498 49.7773 73.7833 49.8282 73.7577C52.249 72.4868 54.6698 71.2179 57.0758 69.9214C57.2411 69.8328 57.3641 69.5412 57.3662 69.3441C57.3832 67.0231 57.3768 64.704 57.3768 62.1898ZM40.5349 60.8736C40.5158 60.9899 40.4946 61.1061 40.4755 61.2244C43.1232 62.3376 45.7708 63.4587 48.427 64.5562C48.6262 64.639 48.9378 64.639 49.1329 64.5503C51.5558 63.4489 53.9682 62.3258 56.4674 61.1672C56.2703 61.0352 56.1728 60.9426 56.0519 60.8933C53.6714 59.9101 51.2951 58.925 48.9018 57.9674C48.6453 57.8649 48.268 57.8433 48.0178 57.9398C45.5143 58.8974 43.0278 59.8904 40.5349 60.8736Z" fill="#D8E3FD"/>
</svg>
