<svg width="371" height="534" viewBox="0 0 371 534" fill="none" xmlns="http://www.w3.org/2000/svg">
<mask id="mask0_600_1096" style="mask-type:alpha" maskUnits="userSpaceOnUse" x="0" y="0" width="371" height="534">
<rect width="371" height="534" rx="60" fill="black"/>
</mask>
<g mask="url(#mask0_600_1096)">
<rect x="286.211" y="-25" width="157.912" height="30" transform="rotate(45 286.211 -25)" fill="#3760E7"/>
<path d="M305.647 14.9171C306.139 15.6638 306.36 16.3851 306.309 17.0809C306.266 17.7682 305.948 18.4088 305.354 19.0028C304.582 19.7749 303.712 20.0931 302.745 19.9574C301.786 19.8301 300.776 19.2361 299.716 18.1755L295.77 14.2298L304.68 5.32027L308.383 9.0241C309.334 9.97445 309.881 10.9121 310.025 11.837C310.17 12.7619 309.873 13.5934 309.134 14.3316C308.634 14.8323 308.082 15.1293 307.48 15.2226C306.886 15.3074 306.275 15.2056 305.647 14.9171ZM301.574 10.2842L304.298 13.0079C304.985 13.6952 305.651 14.0813 306.296 14.1662C306.949 14.2595 307.543 14.0389 308.078 13.5043C308.613 12.9698 308.833 12.3758 308.74 11.7224C308.655 11.0775 308.269 10.4114 307.582 9.72413L304.858 7.00036L301.574 10.2842ZM300.467 17.4245C302.003 18.9604 303.343 19.1555 304.489 18.01C305.609 16.89 305.401 15.562 303.865 14.0262L300.849 11.0097L297.45 14.408L300.467 17.4245ZM307.607 26.3471C306.691 25.4307 306.212 24.5015 306.169 23.5597C306.144 22.6178 306.547 21.7311 307.378 20.8995L311.604 16.6739L312.508 17.5776L309.72 20.365C310.17 20.3225 310.658 20.4032 311.184 20.6068C311.71 20.8104 312.215 21.1541 312.699 21.6378C313.513 22.4524 313.933 23.2966 313.959 24.1706C314.001 25.0446 313.662 25.8422 312.94 26.5635C312.44 27.0641 311.88 27.395 311.26 27.5562C310.658 27.7175 310.034 27.6963 309.389 27.4926C308.761 27.289 308.167 26.9071 307.607 26.3471ZM318.312 23.3815L319.215 24.2852L312.52 30.9801L311.617 30.0764L318.312 23.3815ZM308.333 25.6725C308.91 26.2495 309.529 26.5295 310.191 26.5126C310.861 26.4871 311.464 26.2071 311.998 25.6725C312.499 25.1719 312.737 24.6034 312.711 23.967C312.694 23.3221 312.385 22.6984 311.782 22.096C311.341 21.6547 310.861 21.362 310.344 21.2177C309.835 21.082 309.33 21.0947 308.829 21.2559L308.218 21.8669C307.641 22.4439 307.353 23.0633 307.353 23.7251C307.37 24.387 307.696 25.0361 308.333 25.6725ZM325.721 32.3945L321.89 28.5634L315.997 34.4565L315.093 33.5528L321.788 26.8579L326.523 31.5927L325.721 32.3945ZM323.521 42.1084C322.877 41.4636 322.44 40.7381 322.21 39.932C321.99 39.1174 321.99 38.3028 322.21 37.4882C322.431 36.6736 322.868 35.9396 323.521 35.2863C324.175 34.6329 324.909 34.1959 325.723 33.9753C326.538 33.7547 327.348 33.7589 328.154 33.988C328.96 34.2171 329.686 34.6541 330.331 35.299C330.976 35.9439 331.413 36.6694 331.642 37.4755C331.871 38.2816 331.871 39.0877 331.642 39.8938C331.421 40.7084 330.984 41.4423 330.331 42.0957C329.677 42.7491 328.944 43.1861 328.129 43.4067C327.323 43.6358 326.512 43.64 325.698 43.4194C324.892 43.1903 324.166 42.7533 323.521 42.1084ZM324.323 41.3066C324.798 41.7818 325.329 42.1 325.914 42.2612C326.517 42.4224 327.123 42.4097 327.734 42.223C328.345 42.0363 328.905 41.6884 329.414 41.1793C329.924 40.6702 330.271 40.1102 330.458 39.4992C330.645 38.8883 330.653 38.2858 330.484 37.6918C330.331 37.0979 330.017 36.5633 329.542 36.0881C329.067 35.613 328.528 35.2948 327.925 35.1335C327.34 34.9723 326.737 34.9808 326.118 35.159C325.507 35.3457 324.947 35.6936 324.438 36.2027C323.929 36.7118 323.581 37.2718 323.394 37.8828C323.216 38.5022 323.203 39.1089 323.356 39.7029C323.526 40.2968 323.848 40.8314 324.323 41.3066ZM341.795 46.8654L335.915 52.7457C334.778 53.8827 333.658 54.4428 332.555 54.4258C331.452 54.4258 330.34 53.8658 329.22 52.7457C328.601 52.1263 328.104 51.4432 327.731 50.6965C327.358 49.9668 327.158 49.2667 327.133 48.5964L328.278 48.3673C328.312 48.9782 328.478 49.5934 328.775 50.2128C329.08 50.8408 329.488 51.4093 329.997 51.9184C330.845 52.7669 331.668 53.1912 332.466 53.1912C333.255 53.1997 334.065 52.7881 334.897 51.9566L335.75 51.1038C335.045 51.248 334.354 51.2014 333.675 50.9638C333.005 50.7347 332.394 50.3444 331.842 49.7928C331.214 49.1649 330.777 48.4564 330.531 47.6673C330.302 46.8781 330.285 46.089 330.48 45.2999C330.692 44.5107 331.112 43.8022 331.74 43.1743C332.368 42.5464 333.073 42.1306 333.853 41.927C334.642 41.7318 335.427 41.753 336.208 41.9906C336.989 42.2282 337.697 42.6652 338.333 43.3016C338.902 43.8701 339.301 44.498 339.53 45.1853C339.759 45.8726 339.797 46.5727 339.644 47.2854L340.93 45.9999L341.795 46.8654ZM332.733 49.0801C333.217 49.5637 333.756 49.8989 334.35 50.0856C334.952 50.2638 335.546 50.2722 336.131 50.111C336.725 49.9583 337.26 49.6443 337.735 49.1692C338.21 48.694 338.52 48.1636 338.664 47.5782C338.826 46.9927 338.813 46.4029 338.626 45.809C338.456 45.215 338.126 44.672 337.633 44.1798C337.15 43.6961 336.611 43.361 336.017 43.1743C335.431 42.9961 334.842 42.9834 334.248 43.1361C333.662 43.2973 333.132 43.6155 332.657 44.0907C332.182 44.5659 331.863 45.0962 331.702 45.6817C331.549 46.2757 331.558 46.8696 331.728 47.4636C331.914 48.0576 332.249 48.5964 332.733 49.0801ZM344.373 49.4425L345.276 50.3462L342.311 53.3118L346.524 57.5247L349.489 54.5591L350.393 55.4628L343.698 62.1577L342.794 61.254L345.747 58.3011L341.534 54.0882L338.581 57.0411L337.678 56.1374L344.373 49.4425ZM348.965 67.5518C348.32 66.907 347.883 66.1815 347.654 65.3754C347.433 64.5608 347.433 63.7462 347.654 62.9316C347.874 62.117 348.311 61.383 348.965 60.7297C349.618 60.0763 350.352 59.6393 351.167 59.4187C351.981 59.1981 352.792 59.2023 353.598 59.4314C354.404 59.6605 355.129 60.0975 355.774 60.7424C356.419 61.3873 356.856 62.1128 357.085 62.9189C357.314 63.725 357.314 64.5311 357.085 65.3372C356.865 66.1518 356.428 66.8858 355.774 67.5391C355.121 68.1925 354.387 68.6295 353.572 68.8501C352.766 69.0792 351.956 69.0834 351.141 68.8628C350.335 68.6337 349.61 68.1967 348.965 67.5518ZM349.767 66.75C350.242 67.2252 350.772 67.5434 351.358 67.7046C351.96 67.8658 352.567 67.8531 353.178 67.6664C353.789 67.4797 354.349 67.1318 354.858 66.6227C355.367 66.1136 355.715 65.5536 355.902 64.9426C356.088 64.3317 356.097 63.7292 355.927 63.1353C355.774 62.5413 355.46 62.0067 354.985 61.5315C354.51 61.0564 353.971 60.7382 353.369 60.5769C352.783 60.4157 352.181 60.4242 351.561 60.6024C350.95 60.7891 350.39 61.137 349.881 61.6461C349.372 62.1552 349.024 62.7152 348.838 63.3262C348.659 63.9456 348.647 64.5523 348.799 65.1463C348.969 65.7402 349.292 66.2748 349.767 66.75Z" fill="white"/>
</g>
</svg>
