<svg width="335" height="160" viewBox="0 0 335 160" fill="none" xmlns="http://www.w3.org/2000/svg">
<g clip-path="url(#clip0_998_2676)">
<rect width="335" height="160" rx="17.8105" transform="matrix(-1 0 0 1 335 0)" fill="#D8E3FD"/>
<path d="M166 231.503C313.471 132.833 278.918 30.9576 254.696 65.1536C235.318 92.5105 335.437 61.1166 387.918 42" stroke="#3760E7" stroke-width="4.27451"/>
<path d="M31.99 107.2L26.74 117H24.57L26.11 114.13H24.99L21 107.2H23.31L26.6 112.94H26.74L29.82 107.2H31.99ZM42.9089 107.2V117H40.8789V108.25H35.1389V117H33.1089V107.2H42.9089ZM49.9067 107.2C50.6067 107.2 51.2321 107.279 51.7827 107.438C52.3427 107.587 52.8141 107.811 53.1967 108.11C53.5794 108.399 53.8734 108.759 54.0787 109.188C54.2841 109.608 54.3867 110.089 54.3867 110.63C54.3867 111.171 54.2841 111.657 54.0787 112.086C53.8734 112.506 53.5794 112.865 53.1967 113.164C52.8141 113.453 52.3427 113.677 51.7827 113.836C51.2321 113.985 50.6067 114.06 49.9067 114.06H46.8967V117H44.8667V107.2H49.9067ZM46.8967 108.25V113.01H49.9067C50.6441 113.01 51.2134 112.819 51.6147 112.436C52.0254 112.044 52.2307 111.442 52.2307 110.63C52.2307 109.818 52.0254 109.221 51.6147 108.838C51.2134 108.446 50.6441 108.25 49.9067 108.25H46.8967ZM57.5329 113.57H61.8729L59.7729 108.39H59.6329L57.5329 113.57ZM61.3129 107.2L65.3029 117H63.2869L62.3629 114.62H57.0429L56.1189 117H54.1029L58.0929 107.2H61.3129ZM66.4273 107.2H71.1873C71.9059 107.2 72.5266 107.265 73.0493 107.396C73.5813 107.517 74.0199 107.695 74.3653 107.928C74.7106 108.152 74.9673 108.423 75.1353 108.74C75.3033 109.057 75.3873 109.407 75.3873 109.79C75.3873 110.285 75.2473 110.714 74.9673 111.078C74.6873 111.442 74.2673 111.713 73.7073 111.89C74.4073 112.03 74.9533 112.305 75.3453 112.716C75.7466 113.117 75.9473 113.635 75.9473 114.27C75.9473 115.11 75.5973 115.777 74.8973 116.272C74.2066 116.757 73.1099 117 71.6073 117H66.4273V107.2ZM68.4573 112.52V115.95H71.6073C72.3073 115.95 72.8439 115.81 73.2173 115.53C73.5906 115.25 73.7773 114.83 73.7773 114.27C73.7773 113.673 73.5906 113.234 73.2173 112.954C72.8439 112.665 72.3073 112.52 71.6073 112.52H68.4573ZM71.1873 111.47C72.5406 111.47 73.2173 110.91 73.2173 109.79C73.2173 109.295 73.0446 108.917 72.6993 108.656C72.3633 108.385 71.8593 108.25 71.1873 108.25H68.4573V111.47H71.1873ZM76.5007 116.16H76.9207C77.2007 116.16 77.448 116.043 77.6627 115.81C77.8774 115.577 78.0034 115.18 78.0407 114.62L78.5307 107.2H86.8607V117H84.8307V108.25H80.4207L80.0007 114.62C79.9354 115.535 79.6787 116.197 79.2307 116.608C78.792 117.009 78.1854 117.21 77.4107 117.21C77.168 117.21 76.9534 117.187 76.7667 117.14C76.664 117.121 76.5754 117.098 76.5007 117.07V116.16ZM90.8518 108.25V111.47H95.9618V112.52H90.8518V115.95H97.3618V117H88.8218V107.2H97.3618V108.25H90.8518ZM108.561 107.2V117H106.531V112.73H100.791V117H98.7613V107.2H100.791V111.68H106.531V107.2H108.561ZM118.569 117V109.02H118.429L113.179 117H110.519V107.2H112.549V115.18H112.689L117.939 107.2H120.599V117H118.569ZM122.144 117L124.454 113.696C123.754 113.425 123.217 113.033 122.844 112.52C122.471 112.007 122.284 111.377 122.284 110.63C122.284 110.089 122.387 109.608 122.592 109.188C122.797 108.759 123.091 108.399 123.474 108.11C123.857 107.811 124.323 107.587 124.874 107.438C125.434 107.279 126.064 107.2 126.764 107.2H131.804V117H129.774V114.06H126.764H126.512L124.454 117H122.144ZM126.764 108.25C126.027 108.25 125.457 108.446 125.056 108.838C124.655 109.221 124.454 109.818 124.454 110.63C124.454 111.442 124.655 112.044 125.056 112.436C125.457 112.819 126.027 113.01 126.764 113.01H129.774V108.25H126.764ZM143.836 111.12C144.554 111.12 145.184 111.19 145.726 111.33C146.267 111.47 146.72 111.671 147.084 111.932C147.448 112.193 147.718 112.506 147.896 112.87C148.082 113.225 148.176 113.621 148.176 114.06C148.176 114.499 148.082 114.9 147.896 115.264C147.718 115.619 147.448 115.927 147.084 116.188C146.72 116.449 146.267 116.65 145.726 116.79C145.184 116.93 144.554 117 143.836 117H138.656V107.2H147.056V108.25H140.686V111.12H143.836ZM140.686 112.17V115.95H143.836C144.508 115.95 145.035 115.787 145.418 115.46C145.81 115.124 146.006 114.657 146.006 114.06C146.006 113.463 145.81 113.001 145.418 112.674C145.035 112.338 144.508 112.17 143.836 112.17H140.686ZM157.698 117V109.02H157.558L152.308 117H149.648V107.2H151.678V115.18H151.818L157.068 107.2H159.728V117H157.698ZM165.613 107.97C164.941 107.97 164.311 108.068 163.723 108.264C163.144 108.451 162.589 108.773 162.057 109.23L161.427 108.39C161.959 107.933 162.594 107.573 163.331 107.312C164.068 107.051 164.876 106.92 165.753 106.92C166.472 106.92 167.102 106.985 167.643 107.116C168.184 107.247 168.637 107.429 169.001 107.662C169.365 107.895 169.636 108.171 169.813 108.488C170 108.805 170.093 109.146 170.093 109.51C170.093 110.107 169.948 110.602 169.659 110.994C169.37 111.377 168.908 111.675 168.273 111.89C168.973 112.067 169.519 112.366 169.911 112.786C170.312 113.197 170.513 113.738 170.513 114.41C170.513 114.811 170.415 115.189 170.219 115.544C170.032 115.889 169.734 116.193 169.323 116.454C168.922 116.706 168.404 116.907 167.769 117.056C167.134 117.205 166.369 117.28 165.473 117.28C164.558 117.28 163.714 117.135 162.939 116.846C162.174 116.557 161.525 116.165 160.993 115.67L161.693 114.83C162.225 115.325 162.79 115.684 163.387 115.908C163.984 116.123 164.633 116.23 165.333 116.23C165.874 116.23 166.336 116.183 166.719 116.09C167.102 115.987 167.41 115.847 167.643 115.67C167.886 115.493 168.063 115.287 168.175 115.054C168.287 114.811 168.343 114.55 168.343 114.27C168.343 113.71 168.166 113.281 167.811 112.982C167.456 112.674 166.91 112.52 166.173 112.52H163.233V111.47H165.893C167.246 111.47 167.923 110.863 167.923 109.65C167.923 109.155 167.722 108.754 167.321 108.446C166.92 108.129 166.35 107.97 165.613 107.97ZM181.925 107.2V117H179.895V112.73H174.155V117H172.125V107.2H174.155V111.68H179.895V107.2H181.925ZM185.912 108.25V111.47H191.022V112.52H185.912V115.95H192.422V117H183.882V107.2H192.422V108.25H185.912ZM198.998 116.23C199.633 116.23 200.239 116.123 200.818 115.908C201.406 115.684 201.966 115.325 202.498 114.83L203.198 115.67C202.666 116.165 202.022 116.557 201.266 116.846C200.51 117.135 199.707 117.28 198.858 117.28C197.981 117.28 197.187 117.168 196.478 116.944C195.778 116.72 195.176 116.389 194.672 115.95C194.177 115.511 193.795 114.97 193.524 114.326C193.253 113.682 193.118 112.94 193.118 112.1C193.118 111.26 193.249 110.518 193.51 109.874C193.781 109.23 194.159 108.689 194.644 108.25C195.139 107.811 195.731 107.48 196.422 107.256C197.113 107.032 197.878 106.92 198.718 106.92C199.567 106.92 200.37 107.065 201.126 107.354C201.882 107.643 202.526 108.035 203.058 108.53L202.358 109.37C201.826 108.875 201.266 108.521 200.678 108.306C200.099 108.082 199.493 107.97 198.858 107.97C198.354 107.97 197.883 108.054 197.444 108.222C197.005 108.381 196.627 108.628 196.31 108.964C195.993 109.3 195.741 109.729 195.554 110.252C195.377 110.765 195.288 111.381 195.288 112.1C195.288 112.819 195.377 113.439 195.554 113.962C195.741 114.475 195.997 114.9 196.324 115.236C196.66 115.572 197.052 115.824 197.5 115.992C197.957 116.151 198.457 116.23 198.998 116.23ZM209.355 107.9C208.879 107.9 208.431 107.984 208.011 108.152C207.6 108.32 207.241 108.577 206.933 108.922C206.625 109.267 206.377 109.706 206.191 110.238C206.013 110.761 205.925 111.381 205.925 112.1C205.925 112.819 206.013 113.444 206.191 113.976C206.377 114.499 206.625 114.933 206.933 115.278C207.241 115.623 207.6 115.88 208.011 116.048C208.431 116.216 208.879 116.3 209.355 116.3C209.831 116.3 210.274 116.216 210.685 116.048C211.105 115.88 211.469 115.623 211.777 115.278C212.085 114.933 212.327 114.499 212.505 113.976C212.691 113.444 212.785 112.819 212.785 112.1C212.785 111.381 212.691 110.761 212.505 110.238C212.327 109.706 212.085 109.267 211.777 108.922C211.469 108.577 211.105 108.32 210.685 108.152C210.274 107.984 209.831 107.9 209.355 107.9ZM209.355 106.92C210.195 106.92 210.955 107.032 211.637 107.256C212.327 107.48 212.915 107.811 213.401 108.25C213.895 108.689 214.278 109.23 214.549 109.874C214.819 110.518 214.955 111.26 214.955 112.1C214.955 112.94 214.819 113.682 214.549 114.326C214.278 114.97 213.895 115.511 213.401 115.95C212.915 116.389 212.327 116.72 211.637 116.944C210.955 117.168 210.195 117.28 209.355 117.28C208.515 117.28 207.749 117.168 207.059 116.944C206.368 116.72 205.775 116.389 205.281 115.95C204.795 115.511 204.417 114.97 204.147 114.326C203.885 113.682 203.755 112.94 203.755 112.1C203.755 111.26 203.885 110.518 204.147 109.874C204.417 109.23 204.795 108.689 205.281 108.25C205.775 107.811 206.368 107.48 207.059 107.256C207.749 107.032 208.515 106.92 209.355 106.92ZM223.29 115.6H223.43L227.07 107.2H230.08V117H228.05V109.16H227.91L224.55 117H222.17L218.81 109.16H218.67V117H216.64V107.2H219.65L223.29 115.6Z" fill="#3760E7"/>
<path d="M21.84 84.95C22.12 84.95 22.3767 84.8193 22.61 84.558C22.8527 84.2967 22.9927 83.9373 23.03 83.48L23.59 76.2H31.43V84.95H32.62V88.24H30.94L30.66 86H23.1L22.82 88.24H21.14V84.95H21.84ZM24.99 83.48C24.9713 83.7227 24.9107 83.9373 24.808 84.124C24.7053 84.3107 24.5933 84.4647 24.472 84.586C24.332 84.7353 24.178 84.8567 24.01 84.95H29.4V77.25H25.48L24.99 83.48ZM33.4616 85.16H33.8816C34.1616 85.16 34.409 85.0433 34.6236 84.81C34.8383 84.5767 34.9643 84.18 35.0016 83.62L35.4916 76.2H43.8216V86H41.7916V77.25H37.3816L36.9616 83.62C36.8963 84.5347 36.6396 85.1973 36.1916 85.608C35.753 86.0093 35.1463 86.21 34.3716 86.21C34.129 86.21 33.9143 86.1867 33.7276 86.14C33.625 86.1213 33.5363 86.098 33.4616 86.07V85.16ZM45.3627 86L47.6727 82.696C46.9727 82.4253 46.4361 82.0333 46.0627 81.52C45.6894 81.0067 45.5027 80.3767 45.5027 79.63C45.5027 79.0887 45.6054 78.608 45.8107 78.188C46.0161 77.7587 46.3101 77.3993 46.6927 77.11C47.0754 76.8113 47.5421 76.5873 48.0927 76.438C48.6527 76.2793 49.2827 76.2 49.9827 76.2H55.0227V86H52.9927V83.06H49.9827H49.7307L47.6727 86H45.3627ZM49.9827 77.25C49.2454 77.25 48.6761 77.446 48.2747 77.838C47.8734 78.2207 47.6727 78.818 47.6727 79.63C47.6727 80.442 47.8734 81.044 48.2747 81.436C48.6761 81.8187 49.2454 82.01 49.9827 82.01H52.9927V77.25H49.9827Z" fill="#3760E7"/>
<path d="M24.57 51.6032H28.91L26.81 46.4232H26.67L24.57 51.6032ZM28.35 45.2332L32.34 55.0332H30.324L29.4 52.6532H24.08L23.156 55.0332H21.14L25.13 45.2332H28.35ZM43.2644 45.2332V55.0332H41.2344V50.7632H35.4944V55.0332H33.4644V45.2332H35.4944V49.7132H41.2344V45.2332H43.2644ZM47.8122 51.6032H52.1522L50.0522 46.4232H49.9122L47.8122 51.6032ZM51.5922 45.2332L55.5822 55.0332H53.5662L52.6422 52.6532H47.3222L46.3982 55.0332H44.3822L48.3722 45.2332H51.5922ZM56.0066 54.1932H56.4266C56.7066 54.1932 56.9539 54.0765 57.1686 53.8432C57.3832 53.6099 57.5092 53.2132 57.5466 52.6532L58.0366 45.2332H66.3666V55.0332H64.3366V46.2832H59.9266L59.5066 52.6532C59.4412 53.5679 59.1846 54.2305 58.7366 54.6412C58.2979 55.0425 57.6912 55.2432 56.9166 55.2432C56.6739 55.2432 56.4592 55.2199 56.2726 55.1732C56.1699 55.1545 56.0812 55.1312 56.0066 55.1032V54.1932ZM76.3777 55.0332V47.0532H76.2377L70.9877 55.0332H68.3277V45.2332H70.3577V53.2132H70.4977L75.7477 45.2332H78.4077V55.0332H76.3777ZM89.1226 46.2832H85.3426V55.0332H83.3126V46.2832H79.5326V45.2332H89.1226V46.2832ZM98.2937 55.0332V47.0532H98.1537L92.9037 55.0332H90.2437V45.2332H92.2737V53.2132H92.4137L97.6637 45.2332H100.324V55.0332H98.2937ZM108.589 50.0632L112.299 55.0332H109.989L106.769 50.6932H104.319V55.0332H102.289V45.2332H104.319V49.6432H106.629L109.849 45.2332H112.089L108.589 50.0632ZM116.008 51.6032H120.347L118.248 46.4232H118.108L116.008 51.6032ZM119.788 45.2332L123.778 55.0332H121.762L120.838 52.6532H115.518L114.594 55.0332H112.578L116.568 45.2332H119.788ZM137.846 55.0332V47.0532H137.706L132.456 55.0332H129.796V45.2332H131.826V53.2132H131.966L137.216 45.2332H139.876V55.0332H137.846ZM152.056 45.9332C151.58 45.9332 151.132 46.0172 150.712 46.1852C150.301 46.3532 149.942 46.6099 149.634 46.9552C149.326 47.3005 149.079 47.7392 148.892 48.2712C148.715 48.7939 148.626 49.4145 148.626 50.1332C148.626 50.8519 148.715 51.4772 148.892 52.0092C149.079 52.5319 149.326 52.9659 149.634 53.3112C149.942 53.6565 150.301 53.9132 150.712 54.0812C151.132 54.2492 151.58 54.3332 152.056 54.3332C152.532 54.3332 152.975 54.2492 153.386 54.0812C153.806 53.9132 154.17 53.6565 154.478 53.3112C154.786 52.9659 155.029 52.5319 155.206 52.0092C155.393 51.4772 155.486 50.8519 155.486 50.1332C155.486 49.4145 155.393 48.7939 155.206 48.2712C155.029 47.7392 154.786 47.3005 154.478 46.9552C154.17 46.6099 153.806 46.3532 153.386 46.1852C152.975 46.0172 152.532 45.9332 152.056 45.9332ZM152.056 44.9532C152.896 44.9532 153.657 45.0652 154.338 45.2892C155.029 45.5132 155.617 45.8445 156.102 46.2832C156.597 46.7219 156.979 47.2632 157.25 47.9072C157.521 48.5512 157.656 49.2932 157.656 50.1332C157.656 50.9732 157.521 51.7152 157.25 52.3592C156.979 53.0032 156.597 53.5445 156.102 53.9832C155.617 54.4219 155.029 54.7532 154.338 54.9772C153.657 55.2012 152.896 55.3132 152.056 55.3132C151.216 55.3132 150.451 55.2012 149.76 54.9772C149.069 54.7532 148.477 54.4219 147.982 53.9832C147.497 53.5445 147.119 53.0032 146.848 52.3592C146.587 51.7152 146.456 50.9732 146.456 50.1332C146.456 49.2932 146.587 48.5512 146.848 47.9072C147.119 47.2632 147.497 46.7219 147.982 46.2832C148.477 45.8445 149.069 45.5132 149.76 45.2892C150.451 45.0652 151.216 44.9532 152.056 44.9532ZM167.107 46.2832H163.327V55.0332H161.297V46.2832H157.517V45.2332H167.107V46.2832ZM172.568 51.8132C171.747 51.8132 171.042 51.7479 170.454 51.6172C169.875 51.4865 169.399 51.2952 169.026 51.0432C168.653 50.7912 168.377 50.4785 168.2 50.1052C168.032 49.7319 167.948 49.2979 167.948 48.8032V45.2332H169.978V48.8032C169.978 49.4659 170.174 49.9605 170.566 50.2872C170.958 50.6045 171.625 50.7632 172.568 50.7632H175.228V45.2332H177.258V55.0332H175.228V51.8132H172.568ZM181.25 46.2832V49.5032H186.36V50.5532H181.25V53.9832H187.76V55.0332H179.22V45.2332H187.76V46.2832H181.25ZM197.91 46.2832H194.13V55.0332H192.1V46.2832H188.32V45.2332H197.91V46.2832ZM211.701 55.0332H209.671V45.2332H211.701V55.0332ZM203.931 48.8732C205.368 48.8732 206.451 49.1532 207.179 49.7132C207.907 50.2639 208.271 51.0105 208.271 51.9532C208.271 52.8959 207.907 53.6472 207.179 54.2072C206.451 54.7579 205.368 55.0332 203.931 55.0332H199.031V45.2332H201.061V48.8732H203.931ZM201.061 49.9232V53.9832H203.931C204.603 53.9832 205.13 53.8152 205.513 53.4792C205.905 53.1339 206.101 52.6252 206.101 51.9532C206.101 51.2812 205.905 50.7772 205.513 50.4412C205.13 50.0959 204.603 49.9232 203.931 49.9232H201.061Z" fill="#3760E7"/>
<path d="M103.934 4.39881V0.999128C107.55 1.76726 111.059 0.407902 114.476 -0.60277C114.557 -1.06016 114.447 -0.920691 114.226 -1.04683C113.431 -1.4991 109.153 -2.80102 108.326 -2.80102H103.934V-6.00072H106.96C107.647 -6.00072 109.784 -5.34283 110.564 -5.09311C112.93 -4.33575 115.123 -3.07177 117.395 -2.0852L118.233 -2.24364L119.651 -3.00203C114.745 -5.71767 109.759 -9.33733 103.934 -9.20093V-12.6006C110.704 -11.9099 116.034 -7.24111 121.696 -3.88143L123.647 -4.50086C117.292 -8.49023 111.522 -14.4517 103.934 -15.8003V-19C111.064 -17.4478 116.427 -11.5751 122.223 -7.43751C123.011 -6.87499 125.486 -5.01363 126.259 -5.01569C127.904 -5.01927 129.918 -5.95611 131.666 -5.08491L131.655 -3.99937C123.972 -4.46548 117.732 1.04476 110.817 3.35121C109.94 3.644 107.554 4.39932 106.765 4.39932H103.934L103.934 4.39881Z" fill="#3760E7"/>
<path d="M103.067 11.332V7.97963C109.153 8.04947 114.176 4.15343 119.38 1.48122C119.431 0.926789 117.479 0.974605 117.971 0.439518C118.044 0.361081 119.77 -0.385676 119.902 -0.399107C120.586 -0.470559 121.104 0.0521703 121.684 0.0124147C122.227 -0.0246546 123.248 -0.598422 123.577 -0.802572C123.906 -1.00672 123.052 -1.2603 122.402 -1.65624C123.446 -2.1462 124.336 -2.28158 124.336 -2.28158L125.725 -1.85394C125.725 -1.85394 127.135 -2.28695 127.839 -2.28964L126.832 -3.12343C128.623 -3.59083 129.948 -3.45598 131.666 -2.79948V-1.44833C120.937 -0.666652 113.789 10.5874 103.066 11.3325L103.067 11.332Z" fill="#3760E7"/>
<path d="M103.067 18.2659V14.7951C110.878 13.7963 116.703 7.36104 123.317 3.57044C123.317 3.57044 123.728 3.37884 123.451 3.19876C123.099 2.97052 122.408 2.7517 122.408 2.7517C122.939 2.45069 123.933 1.84659 124.371 1.68116C124.536 1.61887 125.265 2.20046 126.028 2.04708C126.545 1.94343 127.127 1.34613 127.718 1.2875L126.838 0.909013C128.135 -0.278265 130.033 0.0651451 131.666 0.300193V1.54715C120.741 4.31484 114.029 15.6275 103.066 18.2659H103.067Z" fill="#3760E7"/>
<path d="M127.332 5.01449C128.474 2.6912 130.156 2.88741 131.665 2.66602V5.02056C130.248 5.34527 128.75 5.35222 127.332 5.01449Z" fill="#3760E7"/>
<path d="M159.398 4.39881V0.999128C155.782 1.76726 152.273 0.407902 148.856 -0.60277C148.775 -1.06016 148.885 -0.920691 149.106 -1.04683C149.901 -1.4991 154.179 -2.80102 155.006 -2.80102H159.398V-6.00072H156.372C155.685 -6.00072 153.548 -5.34283 152.768 -5.09311C150.402 -4.33575 148.209 -3.07177 145.937 -2.0852L145.099 -2.24364L143.681 -3.00203C148.587 -5.71767 153.573 -9.33733 159.398 -9.20093V-12.6006C152.628 -11.9099 147.298 -7.24111 141.636 -3.88143L139.685 -4.50086C146.04 -8.49023 151.81 -14.4517 159.398 -15.8003V-19C152.268 -17.4478 146.905 -11.5751 141.109 -7.43751C140.321 -6.87499 137.846 -5.01363 137.073 -5.01569C135.428 -5.01927 133.414 -5.95611 131.666 -5.08491L131.677 -3.99937C139.36 -4.46548 145.6 1.04476 152.515 3.35121C153.392 3.644 155.778 4.39932 156.567 4.39932H159.398L159.398 4.39881Z" fill="#3760E7"/>
<path d="M159.398 11.332V7.97963C153.496 8.04947 148.626 4.15343 143.579 1.48122C143.53 0.926789 145.422 0.974605 144.945 0.439518C144.875 0.361081 143.201 -0.385676 143.073 -0.399107C142.41 -0.470559 141.907 0.0521703 141.345 0.0124147C140.819 -0.0246546 139.828 -0.598422 139.509 -0.802572C139.191 -1.00672 140.019 -1.2603 140.649 -1.65624C139.637 -2.1462 138.774 -2.28158 138.774 -2.28158L137.427 -1.85394C137.427 -1.85394 136.059 -2.28695 135.377 -2.28964L136.353 -3.12343C134.617 -3.59083 133.332 -3.45598 131.666 -2.79948V-1.44833C142.069 -0.666652 149 10.5874 159.398 11.3325L159.398 11.332Z" fill="#3760E7"/>
<path d="M159.398 18.2659V14.7951C151.824 13.7963 146.175 7.36104 139.761 3.57044C139.761 3.57044 139.363 3.37884 139.632 3.19876C139.973 2.97052 140.643 2.7517 140.643 2.7517C140.128 2.45069 139.165 1.84659 138.739 1.68116C138.58 1.61887 137.872 2.20046 137.132 2.04708C136.631 1.94343 136.067 1.34613 135.494 1.2875L136.347 0.909013C135.09 -0.278265 133.249 0.0651451 131.666 0.300193V1.54715C142.259 4.31484 148.768 15.6275 159.398 18.2659H159.398Z" fill="#3760E7"/>
<path d="M136.863 5.01449C135.493 2.6912 133.474 2.88741 131.663 2.66602V5.02056C133.364 5.34527 135.162 5.35222 136.863 5.01449Z" fill="#3760E7"/>
<path d="M103.934 4.39881V0.999128C107.55 1.76726 111.059 0.407902 114.476 -0.60277C114.557 -1.06016 114.447 -0.920691 114.226 -1.04683C113.431 -1.4991 109.153 -2.80102 108.326 -2.80102H103.934V-6.00072H106.96C107.647 -6.00072 109.784 -5.34283 110.564 -5.09311C112.93 -4.33575 115.123 -3.07177 117.395 -2.0852L118.233 -2.24364L119.651 -3.00203C114.745 -5.71767 109.759 -9.33733 103.934 -9.20093V-12.6006C110.704 -11.9099 116.034 -7.24111 121.696 -3.88143L123.647 -4.50086C117.292 -8.49023 111.522 -14.4517 103.934 -15.8003V-19C111.064 -17.4478 116.427 -11.5751 122.223 -7.43751C123.011 -6.87499 125.486 -5.01363 126.259 -5.01569C127.904 -5.01927 129.918 -5.95611 131.666 -5.08491L131.655 -3.99937C123.972 -4.46548 117.732 1.04476 110.817 3.35121C109.94 3.644 107.554 4.39932 106.765 4.39932H103.934L103.934 4.39881Z" fill="#3760E7"/>
<path d="M103.067 11.332V7.97963C109.153 8.04947 114.176 4.15343 119.38 1.48122C119.431 0.926789 117.479 0.974605 117.971 0.439518C118.044 0.361081 119.77 -0.385676 119.902 -0.399107C120.586 -0.470559 121.104 0.0521703 121.684 0.0124147C122.227 -0.0246546 123.248 -0.598422 123.577 -0.802572C123.906 -1.00672 123.052 -1.2603 122.402 -1.65624C123.446 -2.1462 124.336 -2.28158 124.336 -2.28158L125.725 -1.85394C125.725 -1.85394 127.135 -2.28695 127.839 -2.28964L126.832 -3.12343C128.623 -3.59083 129.948 -3.45598 131.666 -2.79948V-1.44833C120.937 -0.666652 113.789 10.5874 103.066 11.3325L103.067 11.332Z" fill="#3760E7"/>
<path d="M103.067 18.2659V14.7951C110.878 13.7963 116.703 7.36104 123.317 3.57044C123.317 3.57044 123.728 3.37884 123.451 3.19876C123.099 2.97052 122.408 2.7517 122.408 2.7517C122.939 2.45069 123.933 1.84659 124.371 1.68116C124.536 1.61887 125.265 2.20046 126.028 2.04708C126.545 1.94343 127.127 1.34613 127.718 1.2875L126.838 0.909013C128.135 -0.278265 130.033 0.0651451 131.666 0.300193V1.54715C120.741 4.31484 114.029 15.6275 103.066 18.2659H103.067Z" fill="#3760E7"/>
<path d="M127.332 5.01449C128.474 2.6912 130.156 2.88741 131.665 2.66602V5.02056C130.248 5.34527 128.75 5.35222 127.332 5.01449Z" fill="#3760E7"/>
<path d="M159.398 4.39881V0.999128C155.782 1.76726 152.273 0.407902 148.856 -0.60277C148.775 -1.06016 148.885 -0.920691 149.106 -1.04683C149.901 -1.4991 154.179 -2.80102 155.006 -2.80102H159.398V-6.00072H156.372C155.685 -6.00072 153.548 -5.34283 152.768 -5.09311C150.402 -4.33575 148.209 -3.07177 145.937 -2.0852L145.099 -2.24364L143.681 -3.00203C148.587 -5.71767 153.573 -9.33733 159.398 -9.20093V-12.6006C152.628 -11.9099 147.298 -7.24111 141.636 -3.88143L139.685 -4.50086C146.04 -8.49023 151.81 -14.4517 159.398 -15.8003V-19C152.268 -17.4478 146.905 -11.5751 141.109 -7.43751C140.321 -6.87499 137.846 -5.01363 137.073 -5.01569C135.428 -5.01927 133.414 -5.95611 131.666 -5.08491L131.677 -3.99937C139.36 -4.46548 145.6 1.04476 152.515 3.35121C153.392 3.644 155.778 4.39932 156.567 4.39932H159.398L159.398 4.39881Z" fill="#3760E7"/>
<path d="M159.398 11.332V7.97963C153.496 8.04947 148.626 4.15343 143.579 1.48122C143.53 0.926789 145.422 0.974605 144.945 0.439518C144.875 0.361081 143.201 -0.385676 143.073 -0.399107C142.41 -0.470559 141.907 0.0521703 141.345 0.0124147C140.819 -0.0246546 139.828 -0.598422 139.509 -0.802572C139.191 -1.00672 140.019 -1.2603 140.649 -1.65624C139.637 -2.1462 138.774 -2.28158 138.774 -2.28158L137.427 -1.85394C137.427 -1.85394 136.059 -2.28695 135.377 -2.28964L136.353 -3.12343C134.617 -3.59083 133.332 -3.45598 131.666 -2.79948V-1.44833C142.069 -0.666652 149 10.5874 159.398 11.3325L159.398 11.332Z" fill="#3760E7"/>
<path d="M159.398 18.2659V14.7951C151.824 13.7963 146.175 7.36104 139.761 3.57044C139.761 3.57044 139.363 3.37884 139.632 3.19876C139.973 2.97052 140.643 2.7517 140.643 2.7517C140.128 2.45069 139.165 1.84659 138.739 1.68116C138.58 1.61887 137.872 2.20046 137.132 2.04708C136.631 1.94343 136.067 1.34613 135.494 1.2875L136.347 0.909013C135.09 -0.278265 133.249 0.0651451 131.666 0.300193V1.54715C142.259 4.31484 148.768 15.6275 159.398 18.2659H159.398Z" fill="#3760E7"/>
<path d="M136.863 5.01449C135.493 2.6912 133.474 2.88741 131.663 2.66602V5.02056C133.364 5.34527 135.162 5.35222 136.863 5.01449Z" fill="#3760E7"/>
<path d="M57.1328 4.39881V0.999128C60.7496 1.76726 64.2583 0.407902 67.6748 -0.60277C67.7561 -1.06016 67.6464 -0.920691 67.425 -1.04683C66.63 -1.4991 62.3525 -2.80102 61.5256 -2.80102H57.1333V-6.00072H60.159C60.8464 -6.00072 62.9833 -5.34283 63.7629 -5.09311C66.1295 -4.33575 68.322 -3.07177 70.5943 -2.0852L71.4321 -2.24364L72.8502 -3.00203C67.9441 -5.71767 62.9581 -9.33733 57.1333 -9.20093V-12.6006C63.9035 -11.9099 69.2334 -7.24111 74.895 -3.88143L76.846 -4.50086C70.4914 -8.49023 64.7217 -14.4517 57.1333 -15.8003V-19C64.2634 -17.4478 69.6258 -11.5751 75.4222 -7.43751C76.2101 -6.87499 78.6853 -5.01363 79.4587 -5.01569C81.1028 -5.01927 83.1172 -5.95611 84.8653 -5.08491L84.8545 -3.99937C77.1709 -4.46548 70.9311 1.04476 64.0163 3.35121C63.1393 3.644 60.7532 4.39932 59.9638 4.39932H57.1333L57.1328 4.39881Z" fill="#3760E7"/>
<path d="M56.2662 11.332V7.97963C62.352 8.04947 67.3749 4.15343 72.5794 1.48122C72.6304 0.926789 70.6786 0.974605 71.1706 0.439518C71.2428 0.361081 72.9688 -0.385676 73.1016 -0.399107C73.7848 -0.470559 74.3033 0.0521703 74.8828 0.0124147C75.4258 -0.0246546 76.4473 -0.598422 76.7762 -0.802572C77.105 -1.00672 76.2508 -1.2603 75.6011 -1.65624C76.645 -2.1462 77.5348 -2.28158 77.5348 -2.28158L78.924 -1.85394C78.924 -1.85394 80.3344 -2.28695 81.0378 -2.28964L80.0311 -3.12343C81.8219 -3.59083 83.1468 -3.45598 84.8648 -2.79948V-1.44833C74.1365 -0.666652 66.9887 10.5874 56.2656 11.3325L56.2662 11.332Z" fill="#3760E7"/>
<path d="M56.2662 18.2659V14.7951C64.0772 13.7963 69.9026 7.36104 76.5165 3.57044C76.5165 3.57044 76.9272 3.37884 76.6499 3.19876C76.2981 2.97052 75.6068 2.7517 75.6068 2.7517C76.1387 2.45069 77.1318 1.84659 77.5702 1.68116C77.7349 1.61887 78.4645 2.20046 79.2275 2.04708C79.7445 1.94343 80.3264 1.34613 80.9167 1.2875L80.0373 0.909013C81.3339 -0.278265 83.2319 0.0651451 84.8648 0.300193V1.54715C73.9404 4.31484 67.2282 15.6275 56.2656 18.2659H56.2662Z" fill="#3760E7"/>
<path d="M80.5312 5.09836C81.6734 3.5495 83.3553 3.68031 84.8645 3.53271V5.10241C83.4469 5.31888 81.9488 5.32352 80.5312 5.09836Z" fill="#3760E7"/>
<path d="M112.598 4.39881V0.999128C108.981 1.76726 105.472 0.407902 102.056 -0.60277C101.974 -1.06016 102.084 -0.920691 102.305 -1.04683C103.1 -1.4991 107.378 -2.80102 108.205 -2.80102H112.597V-6.00072H109.571C108.884 -6.00072 106.747 -5.34283 105.968 -5.09311C103.601 -4.33575 101.408 -3.07177 99.1361 -2.0852L98.2983 -2.24364L96.8803 -3.00203C101.786 -5.71767 106.772 -9.33733 112.597 -9.20093V-12.6006C105.827 -11.9099 100.497 -7.24111 94.8355 -3.88143L92.8845 -4.50086C99.2391 -8.49023 105.009 -14.4517 112.597 -15.8003V-19C105.467 -17.4478 100.105 -11.5751 94.3082 -7.43751C93.5204 -6.87499 91.0452 -5.01363 90.2718 -5.01569C88.6276 -5.01927 86.6133 -5.95611 84.8651 -5.08491L84.8759 -3.99937C92.5596 -4.46548 98.7994 1.04476 105.714 3.35121C106.591 3.644 108.977 4.39932 109.767 4.39932H112.597L112.598 4.39881Z" fill="#3760E7"/>
<path d="M112.597 11.332V7.97963C106.696 8.04947 101.825 4.15343 96.7782 1.48122C96.7288 0.926789 98.6214 0.974605 98.1444 0.439518C98.0743 0.361081 96.4006 -0.385676 96.2719 -0.399107C95.6094 -0.470559 95.1066 0.0521703 94.5446 0.0124147C94.0181 -0.0246546 93.0275 -0.598422 92.7086 -0.802572C92.3898 -1.00672 93.2181 -1.2603 93.8481 -1.65624C92.8359 -2.1462 91.973 -2.28158 91.973 -2.28158L90.6259 -1.85394C90.6259 -1.85394 89.2582 -2.28695 88.5762 -2.28964L89.5524 -3.12343C87.8158 -3.59083 86.5311 -3.45598 84.8651 -2.79948V-1.44833C95.2684 -0.666652 102.2 10.5874 112.598 11.3325L112.597 11.332Z" fill="#3760E7"/>
<path d="M112.597 18.2659V14.7951C105.023 13.7963 99.3739 7.36104 92.9604 3.57044C92.9604 3.57044 92.5621 3.37884 92.8311 3.19876C93.1722 2.97052 93.8426 2.7517 93.8426 2.7517C93.3268 2.45069 92.3638 1.84659 91.9387 1.68116C91.7789 1.61887 91.0715 2.20046 90.3316 2.04708C89.8302 1.94343 89.266 1.34613 88.6935 1.2875L89.5463 0.909013C88.2891 -0.278265 86.4485 0.0651451 84.8651 0.300193V1.54715C95.4584 4.31484 101.967 15.6275 112.598 18.2659H112.597Z" fill="#3760E7"/>
<path d="M90.0664 5.09836C88.6958 3.5495 86.6776 3.68031 84.8666 3.53271V5.10241C86.5676 5.31888 88.3654 5.32352 90.0664 5.09836Z" fill="#3760E7"/>
<path d="M11.2031 4.39881V0.999128C14.8199 1.76726 18.3286 0.407902 21.7451 -0.60277C21.8264 -1.06016 21.7167 -0.920691 21.4953 -1.04683C20.7003 -1.4991 16.4229 -2.80102 15.5959 -2.80102H11.2036V-6.00072H14.2293C14.9167 -6.00072 17.0536 -5.34283 17.8332 -5.09311C20.1998 -4.33575 22.3923 -3.07177 24.6647 -2.0852L25.5024 -2.24364L26.9205 -3.00203C22.0144 -5.71767 17.0284 -9.33733 11.2036 -9.20093V-12.6006C17.9738 -11.9099 23.3037 -7.24111 28.9653 -3.88143L30.9163 -4.50086C24.5617 -8.49023 18.792 -14.4517 11.2036 -15.8003V-19C18.3337 -17.4478 23.6961 -11.5751 29.4925 -7.43751C30.2804 -6.87499 32.7556 -5.01363 33.529 -5.01569C35.1731 -5.01927 37.1875 -5.95611 38.9357 -5.08491L38.9248 -3.99937C31.2412 -4.46548 25.0014 1.04476 18.0866 3.35121C17.2097 3.644 14.8235 4.39932 14.0342 4.39932H11.2036L11.2031 4.39881Z" fill="#3760E7"/>
<path d="M10.3365 11.332V7.97963C16.4223 8.04947 21.4452 4.15343 26.6497 1.48122C26.7007 0.926789 24.7489 0.974605 25.2409 0.439518C25.3131 0.361081 27.0391 -0.385676 27.1719 -0.399107C27.8551 -0.470559 28.3736 0.0521703 28.9532 0.0124147C29.4961 -0.0246546 30.5176 -0.598422 30.8465 -0.802572C31.1753 -1.00672 30.3211 -1.2603 29.6714 -1.65624C30.7153 -2.1462 31.6051 -2.28158 31.6051 -2.28158L32.9943 -1.85394C32.9943 -1.85394 34.4047 -2.28695 35.1081 -2.28964L34.1014 -3.12343C35.8922 -3.59083 37.2171 -3.45598 38.9351 -2.79948V-1.44833C28.2068 -0.666652 21.059 10.5874 10.3359 11.3325L10.3365 11.332Z" fill="#3760E7"/>
<path d="M10.3365 18.2659V14.7951C18.1475 13.7963 23.9729 7.36104 30.5868 3.57044C30.5868 3.57044 30.9976 3.37884 30.7202 3.19876C30.3684 2.97052 29.6771 2.7517 29.6771 2.7517C30.209 2.45069 31.2021 1.84659 31.6405 1.68116C31.8052 1.61887 32.5348 2.20046 33.2978 2.04708C33.8149 1.94343 34.3967 1.34613 34.9871 1.2875L34.1076 0.909013C35.4042 -0.278265 37.3022 0.0651451 38.9351 0.300193V1.54715C28.0108 4.31484 21.2985 15.6275 10.3359 18.2659H10.3365Z" fill="#3760E7"/>
<path d="M34.6016 5.09836C35.7437 3.5495 37.4256 3.68031 38.9348 3.53271V5.10241C37.5172 5.31888 36.0191 5.32352 34.6016 5.09836Z" fill="#3760E7"/>
<path d="M67.5312 4.39881V0.999128C63.8014 1.76726 60.1831 0.407902 56.6599 -0.60277C56.576 -1.06016 56.6891 -0.920691 56.9174 -1.04683C57.7373 -1.4991 62.1484 -2.80102 63.0012 -2.80102H67.5307V-6.00072H64.4105C63.7016 -6.00072 61.4979 -5.34283 60.694 -5.09311C58.2534 -4.33575 55.9924 -3.07177 53.649 -2.0852L52.7851 -2.24364L51.3227 -3.00203C56.3822 -5.71767 61.5239 -9.33733 67.5307 -9.20093V-12.6006C60.549 -11.9099 55.0525 -7.24111 49.214 -3.88143L47.202 -4.50086C53.7552 -8.49023 59.7052 -14.4517 67.5307 -15.8003V-19C60.1778 -17.4478 54.6479 -11.5751 48.6703 -7.43751C47.8578 -6.87499 45.3053 -5.01363 44.5077 -5.01569C42.8122 -5.01927 40.7349 -5.95611 38.9321 -5.08491L38.9432 -3.99937C46.867 -4.46548 53.3018 1.04476 60.4327 3.35121C61.337 3.644 63.7977 4.39932 64.6118 4.39932H67.5307L67.5312 4.39881Z" fill="#3760E7"/>
<path d="M67.5307 11.332V7.97963C61.4449 8.04947 56.422 4.15343 51.2175 1.48122C51.1665 0.926789 53.1182 0.974605 52.6263 0.439518C52.5541 0.361081 50.8281 -0.385676 50.6953 -0.399107C50.0121 -0.470559 49.4936 0.0521703 48.914 0.0124147C48.3711 -0.0246546 47.3495 -0.598422 47.0207 -0.802572C46.6919 -1.00672 47.5461 -1.2603 48.1958 -1.65624C47.1519 -2.1462 46.2621 -2.28158 46.2621 -2.28158L44.8729 -1.85394C44.8729 -1.85394 43.4625 -2.28695 42.7591 -2.28964L43.7658 -3.12343C41.975 -3.59083 40.6501 -3.45598 38.9321 -2.79948V-1.44833C49.6604 -0.666652 56.8082 10.5874 67.5312 11.3325L67.5307 11.332Z" fill="#3760E7"/>
<path d="M67.5307 18.2659V14.7951C59.7196 13.7963 53.8943 7.36104 47.2804 3.57044C47.2804 3.57044 46.8696 3.37884 47.147 3.19876C47.4988 2.97052 48.1901 2.7517 48.1901 2.7517C47.6582 2.45069 46.665 1.84659 46.2267 1.68116C46.0619 1.61887 45.3324 2.20046 44.5693 2.04708C44.0523 1.94343 43.4705 1.34613 42.8801 1.2875L43.7595 0.909013C42.463 -0.278265 40.565 0.0651451 38.9321 0.300193V1.54715C49.8564 4.31484 56.5686 15.6275 67.5312 18.2659H67.5307Z" fill="#3760E7"/>
<path d="M44.1328 5.09836C42.7623 3.5495 40.744 3.68031 38.933 3.53271V5.10241C40.634 5.31888 42.4318 5.32352 44.1328 5.09836Z" fill="#3760E7"/>
<path d="M11.2031 4.39881V0.999128C14.8199 1.76726 18.3286 0.407902 21.7451 -0.60277C21.8264 -1.06016 21.7167 -0.920691 21.4953 -1.04683C20.7003 -1.4991 16.4229 -2.80102 15.5959 -2.80102H11.2036V-6.00072H14.2293C14.9167 -6.00072 17.0536 -5.34283 17.8332 -5.09311C20.1998 -4.33575 22.3923 -3.07177 24.6647 -2.0852L25.5024 -2.24364L26.9205 -3.00203C22.0144 -5.71767 17.0284 -9.33733 11.2036 -9.20093V-12.6006C17.9738 -11.9099 23.3037 -7.24111 28.9653 -3.88143L30.9163 -4.50086C24.5617 -8.49023 18.792 -14.4517 11.2036 -15.8003V-19C18.3337 -17.4478 23.6961 -11.5751 29.4925 -7.43751C30.2804 -6.87499 32.7556 -5.01363 33.529 -5.01569C35.1731 -5.01927 37.1875 -5.95611 38.9357 -5.08491L38.9248 -3.99937C31.2412 -4.46548 25.0014 1.04476 18.0866 3.35121C17.2097 3.644 14.8235 4.39932 14.0342 4.39932H11.2036L11.2031 4.39881Z" fill="#3760E7"/>
<path d="M10.3365 11.332V7.97963C16.4223 8.04947 21.4452 4.15343 26.6497 1.48122C26.7007 0.926789 24.7489 0.974605 25.2409 0.439518C25.3131 0.361081 27.0391 -0.385676 27.1719 -0.399107C27.8551 -0.470559 28.3736 0.0521703 28.9532 0.0124147C29.4961 -0.0246546 30.5176 -0.598422 30.8465 -0.802572C31.1753 -1.00672 30.3211 -1.2603 29.6714 -1.65624C30.7153 -2.1462 31.6051 -2.28158 31.6051 -2.28158L32.9943 -1.85394C32.9943 -1.85394 34.4047 -2.28695 35.1081 -2.28964L34.1014 -3.12343C35.8922 -3.59083 37.2171 -3.45598 38.9351 -2.79948V-1.44833C28.2068 -0.666652 21.059 10.5874 10.3359 11.3325L10.3365 11.332Z" fill="#3760E7"/>
<path d="M10.3365 18.2659V14.7951C18.1475 13.7963 23.9729 7.36104 30.5868 3.57044C30.5868 3.57044 30.9976 3.37884 30.7202 3.19876C30.3684 2.97052 29.6771 2.7517 29.6771 2.7517C30.209 2.45069 31.2021 1.84659 31.6405 1.68116C31.8052 1.61887 32.5348 2.20046 33.2978 2.04708C33.8149 1.94343 34.3967 1.34613 34.9871 1.2875L34.1076 0.909013C35.4042 -0.278265 37.3022 0.0651451 38.9351 0.300193V1.54715C28.0108 4.31484 21.2985 15.6275 10.3359 18.2659H10.3365Z" fill="#3760E7"/>
<path d="M34.6016 5.09836C35.7437 3.5495 37.4256 3.68031 38.9348 3.53271V5.10241C37.5172 5.31888 36.0191 5.32352 34.6016 5.09836Z" fill="#3760E7"/>
<path d="M67.5312 4.39881V0.999128C63.8014 1.76726 60.1831 0.407902 56.6599 -0.60277C56.576 -1.06016 56.6891 -0.920691 56.9174 -1.04683C57.7373 -1.4991 62.1484 -2.80102 63.0012 -2.80102H67.5307V-6.00072H64.4105C63.7016 -6.00072 61.4979 -5.34283 60.694 -5.09311C58.2534 -4.33575 55.9924 -3.07177 53.649 -2.0852L52.7851 -2.24364L51.3227 -3.00203C56.3822 -5.71767 61.5239 -9.33733 67.5307 -9.20093V-12.6006C60.549 -11.9099 55.0525 -7.24111 49.214 -3.88143L47.202 -4.50086C53.7552 -8.49023 59.7052 -14.4517 67.5307 -15.8003V-19C60.1778 -17.4478 54.6479 -11.5751 48.6703 -7.43751C47.8578 -6.87499 45.3053 -5.01363 44.5077 -5.01569C42.8122 -5.01927 40.7349 -5.95611 38.9321 -5.08491L38.9432 -3.99937C46.867 -4.46548 53.3018 1.04476 60.4327 3.35121C61.337 3.644 63.7977 4.39932 64.6118 4.39932H67.5307L67.5312 4.39881Z" fill="#3760E7"/>
<path d="M67.5307 11.332V7.97963C61.4449 8.04947 56.422 4.15343 51.2175 1.48122C51.1665 0.926789 53.1182 0.974605 52.6263 0.439518C52.5541 0.361081 50.8281 -0.385676 50.6953 -0.399107C50.0121 -0.470559 49.4936 0.0521703 48.914 0.0124147C48.3711 -0.0246546 47.3495 -0.598422 47.0207 -0.802572C46.6919 -1.00672 47.5461 -1.2603 48.1958 -1.65624C47.1519 -2.1462 46.2621 -2.28158 46.2621 -2.28158L44.8729 -1.85394C44.8729 -1.85394 43.4625 -2.28695 42.7591 -2.28964L43.7658 -3.12343C41.975 -3.59083 40.6501 -3.45598 38.9321 -2.79948V-1.44833C49.6604 -0.666652 56.8082 10.5874 67.5312 11.3325L67.5307 11.332Z" fill="#3760E7"/>
<path d="M67.5307 18.2659V14.7951C59.7196 13.7963 53.8943 7.36104 47.2804 3.57044C47.2804 3.57044 46.8696 3.37884 47.147 3.19876C47.4988 2.97052 48.1901 2.7517 48.1901 2.7517C47.6582 2.45069 46.665 1.84659 46.2267 1.68116C46.0619 1.61887 45.3324 2.20046 44.5693 2.04708C44.0523 1.94343 43.4705 1.34613 42.8801 1.2875L43.7595 0.909013C42.463 -0.278265 40.565 0.0651451 38.9321 0.300193V1.54715C49.8564 4.31484 56.5686 15.6275 67.5312 18.2659H67.5307Z" fill="#3760E7"/>
<path d="M44.1328 5.09836C42.7623 3.5495 40.744 3.68031 38.933 3.53271V5.10241C40.634 5.31888 42.4318 5.32352 44.1328 5.09836Z" fill="#3760E7"/>
<path d="M20.7344 4.39881V0.999128C17.1176 1.76726 13.6089 0.407902 10.1924 -0.60277C10.1111 -1.06016 10.2208 -0.920691 10.4422 -1.04683C11.2372 -1.4991 15.5146 -2.80102 16.3416 -2.80102H20.7339L20.7339 -6.00072H17.7082C17.0208 -6.00072 14.8839 -5.34283 14.1043 -5.09311C11.7377 -4.33575 9.54518 -3.07177 7.27284 -2.0852L6.43507 -2.24364L5.01698 -3.00203C9.92313 -5.71767 14.9091 -9.33733 20.7339 -9.20093V-12.6006C13.9637 -11.9099 8.63377 -7.24111 2.97223 -3.88143L1.0212 -4.50086C7.37582 -8.49023 13.1455 -14.4517 20.7339 -15.8003V-19C13.6038 -17.4478 8.2414 -11.5751 2.44495 -7.43751C1.65713 -6.87499 -0.81809 -5.01363 -1.5915 -5.01569C-3.23564 -5.01927 -5.25 -5.95611 -6.99815 -5.08491L-6.98734 -3.99937C0.696293 -4.46548 6.93608 1.04476 13.8509 3.35121C14.7278 3.644 17.114 4.39932 17.9033 4.39932H20.7339L20.7344 4.39881Z" fill="#3760E7"/>
<path d="M20.7339 11.332L20.7339 7.97963C14.8324 8.04947 9.96178 4.15343 4.91496 1.48122C4.86551 0.926789 6.75813 0.974605 6.28111 0.439518C6.21105 0.361081 4.53736 -0.385676 4.40858 -0.399107C3.74611 -0.470559 3.24333 0.0521703 2.68132 0.0124147C2.15484 -0.0246546 1.16423 -0.598422 0.84536 -0.802572C0.526487 -1.00672 1.35483 -1.2603 1.98485 -1.65624C0.972599 -2.1462 0.109739 -2.28158 0.109739 -2.28158L-1.23734 -1.85394C-1.23734 -1.85394 -2.60504 -2.28695 -3.28709 -2.28964L-2.3109 -3.12343C-4.04744 -3.59083 -5.33219 -3.45598 -6.99815 -2.79948V-1.44833C3.40509 -0.666652 10.3363 10.5874 20.7344 11.3325L20.7339 11.332Z" fill="#3760E7"/>
<path d="M20.7339 18.2659V14.7951C13.1595 13.7963 7.51064 7.36104 1.09716 3.57044C1.09716 3.57044 0.698862 3.37884 0.967831 3.19876C1.30894 2.97052 1.97929 2.7517 1.97929 2.7517C1.46351 2.45069 0.500483 1.84659 0.0753899 1.68116C-0.084341 1.61887 -0.791796 2.20046 -1.53172 2.04708C-2.03307 1.94343 -2.59728 1.34613 -3.16974 1.2875L-2.31698 0.909013C-3.57422 -0.278265 -5.41475 0.0651451 -6.99815 0.300193V1.54715C3.59516 4.31484 10.104 15.6275 20.7344 18.2659H20.7339Z" fill="#3760E7"/>
<path d="M244.707 4.61902V1.21934C248.324 1.98747 251.832 0.628117 255.249 -0.382555C255.33 -0.839949 255.221 -0.700476 254.999 -0.826618C254.204 -1.27888 249.927 -2.58081 249.1 -2.58081H244.708V-5.78051H247.733C248.421 -5.78051 250.558 -5.12262 251.337 -4.8729C253.704 -4.11553 255.896 -2.85155 258.169 -1.86498L259.006 -2.02343L260.424 -2.78181C255.518 -5.49745 250.532 -9.11711 244.708 -8.98071V-12.3804C251.478 -11.6897 256.808 -7.0209 262.469 -3.66122L264.42 -4.28065C258.066 -8.27001 252.296 -14.2315 244.708 -15.5801V-18.7798C251.838 -17.2276 257.2 -11.3548 262.996 -7.21729C263.784 -6.65478 266.259 -4.79342 267.033 -4.79547C268.677 -4.79906 270.691 -5.7359 272.44 -4.8647L272.429 -3.77916C264.745 -4.24527 258.505 1.26498 251.59 3.57143C250.714 3.86422 248.327 4.61954 247.538 4.61954H244.708L244.707 4.61902Z" fill="#3760E7"/>
<path d="M243.844 11.5522V8.19984C249.93 8.26968 254.953 4.37364 260.158 1.70143C260.209 1.147 258.257 1.19482 258.749 0.659733C258.821 0.581296 260.547 -0.165461 260.68 -0.178892C261.363 -0.250344 261.881 0.272385 262.461 0.23263C263.004 0.19556 264.025 -0.378207 264.354 -0.582357C264.683 -0.786506 263.829 -1.04008 263.179 -1.43603C264.223 -1.92598 265.113 -2.06137 265.113 -2.06137L266.502 -1.63373C266.502 -1.63373 267.913 -2.06674 268.616 -2.06943L267.609 -2.90322C269.4 -3.37061 270.725 -3.23577 272.443 -2.57926V-1.22812C261.715 -0.446437 254.567 10.8076 243.844 11.5527L243.844 11.5522Z" fill="#3760E7"/>
<path d="M243.844 18.4856V15.0149C251.655 14.016 257.481 7.58076 264.095 3.79017C264.095 3.79017 264.505 3.59857 264.228 3.41849C263.876 3.19025 263.185 2.97143 263.185 2.97143C263.717 2.67042 264.71 2.06631 265.148 1.90089C265.313 1.83859 266.043 2.42019 266.806 2.26681C267.323 2.16316 267.905 1.56585 268.495 1.50722L267.615 1.12874C268.912 -0.0585381 270.81 0.284872 272.443 0.519919V1.76687C261.519 4.53457 254.806 15.8472 243.844 18.4856H243.844Z" fill="#3760E7"/>
<path d="M198.777 4.61902V1.21934C202.394 1.98747 205.903 0.628117 209.319 -0.382555C209.401 -0.839949 209.291 -0.700476 209.07 -0.826618C208.275 -1.27888 203.997 -2.58081 203.17 -2.58081H198.778V-5.78051H201.804C202.491 -5.78051 204.628 -5.12262 205.407 -4.8729C207.774 -4.11553 209.967 -2.85155 212.239 -1.86498L213.077 -2.02343L214.495 -2.78181C209.589 -5.49745 204.603 -9.11711 198.778 -8.98071V-12.3804C205.548 -11.6897 210.878 -7.0209 216.539 -3.66122L218.491 -4.28065C212.136 -8.27001 206.366 -14.2315 198.778 -15.5801V-18.7798C205.908 -17.2276 211.27 -11.3548 217.067 -7.21729C217.855 -6.65478 220.33 -4.79342 221.103 -4.79547C222.747 -4.79906 224.762 -5.7359 226.51 -4.8647L226.499 -3.77916C218.815 -4.24527 212.576 1.26498 205.661 3.57143C204.784 3.86422 202.398 4.61954 201.608 4.61954H198.778L198.777 4.61902Z" fill="#3760E7"/>
<path d="M197.911 11.5522V8.19984C203.997 8.26968 209.019 4.37364 214.224 1.70143C214.275 1.147 212.323 1.19482 212.815 0.659733C212.887 0.581296 214.613 -0.165461 214.746 -0.178892C215.429 -0.250344 215.948 0.272385 216.527 0.23263C217.07 0.19556 218.092 -0.378207 218.421 -0.582357C218.75 -0.786506 217.895 -1.04008 217.246 -1.43603C218.289 -1.92598 219.179 -2.06137 219.179 -2.06137L220.568 -1.63373C220.568 -1.63373 221.979 -2.06674 222.682 -2.06943L221.676 -2.90322C223.466 -3.37061 224.791 -3.23577 226.509 -2.57926V-1.22812C215.781 -0.446437 208.633 10.8076 197.91 11.5527L197.911 11.5522Z" fill="#3760E7"/>
<path d="M197.911 18.4856V15.0149C205.722 14.016 211.547 7.58076 218.161 3.79017C218.161 3.79017 218.572 3.59857 218.294 3.41849C217.943 3.19025 217.251 2.97143 217.251 2.97143C217.783 2.67042 218.776 2.06631 219.215 1.90089C219.379 1.83859 220.109 2.42019 220.872 2.26681C221.389 2.16316 221.971 1.56585 222.561 1.50722L221.682 1.12874C222.978 -0.0585381 224.876 0.284872 226.509 0.519919V1.76687C215.585 4.53457 208.873 15.8472 197.91 18.4856H197.911Z" fill="#3760E7"/>
<path d="M222.176 5.31858C223.318 3.76972 225 3.90052 226.509 3.75293V5.32263C225.091 5.5391 223.593 5.54373 222.176 5.31858Z" fill="#3760E7"/>
<path d="M255.109 4.61902V1.21934C251.38 1.98747 247.761 0.628117 244.238 -0.382555C244.154 -0.839949 244.267 -0.700476 244.496 -0.826618C245.315 -1.27888 249.727 -2.58081 250.579 -2.58081H255.109V-5.78051H251.989C251.28 -5.78051 249.076 -5.12262 248.272 -4.8729C245.832 -4.11553 243.571 -2.85155 241.227 -1.86498L240.363 -2.02343L238.901 -2.78181C243.96 -5.49745 249.102 -9.11711 255.109 -8.98071V-12.3804C248.127 -11.6897 242.631 -7.0209 236.792 -3.66122L234.78 -4.28065C241.333 -8.27001 247.283 -14.2315 255.109 -15.5801V-18.7798C247.756 -17.2276 242.226 -11.3548 236.248 -7.21729C235.436 -6.65478 232.883 -4.79342 232.086 -4.79547C230.39 -4.79906 228.313 -5.7359 226.51 -4.8647L226.521 -3.77916C234.445 -4.24527 240.88 1.26498 248.011 3.57143C248.915 3.86422 251.376 4.61954 252.19 4.61954H255.109L255.109 4.61902Z" fill="#3760E7"/>
<path d="M255.109 11.5522V8.19984C249.023 8.26968 244 4.37364 238.796 1.70143C238.745 1.147 240.696 1.19482 240.204 0.659733C240.132 0.581296 238.406 -0.165461 238.273 -0.178892C237.59 -0.250344 237.072 0.272385 236.492 0.23263C235.949 0.19556 234.928 -0.378207 234.599 -0.582357C234.27 -0.786506 235.124 -1.04008 235.774 -1.43603C234.73 -1.92598 233.84 -2.06137 233.84 -2.06137L232.451 -1.63373C232.451 -1.63373 231.041 -2.06674 230.337 -2.06943L231.344 -2.90322C229.553 -3.37061 228.228 -3.23577 226.51 -2.57926V-1.22812C237.239 -0.446437 244.386 10.8076 255.109 11.5527L255.109 11.5522Z" fill="#3760E7"/>
<path d="M255.109 18.4856V15.0149C247.298 14.016 241.472 7.58076 234.858 3.79017C234.858 3.79017 234.448 3.59857 234.725 3.41849C235.077 3.19025 235.768 2.97143 235.768 2.97143C235.236 2.67042 234.243 2.06631 233.805 1.90089C233.64 1.83859 232.911 2.42019 232.147 2.26681C231.63 2.16316 231.049 1.56585 230.458 1.50722L231.338 1.12874C230.041 -0.0585381 228.143 0.284872 226.51 0.519919V1.76687C237.435 4.53457 244.147 15.8472 255.109 18.4856H255.109Z" fill="#3760E7"/>
<path d="M231.707 5.31858C230.336 3.76972 228.318 3.90052 226.507 3.75293V5.32263C228.208 5.5391 230.006 5.54373 231.707 5.31858Z" fill="#3760E7"/>
<path d="M198.777 4.61902V1.21934C202.394 1.98747 205.903 0.628117 209.319 -0.382555C209.401 -0.839949 209.291 -0.700476 209.07 -0.826618C208.275 -1.27888 203.997 -2.58081 203.17 -2.58081H198.778V-5.78051H201.804C202.491 -5.78051 204.628 -5.12262 205.407 -4.8729C207.774 -4.11553 209.967 -2.85155 212.239 -1.86498L213.077 -2.02343L214.495 -2.78181C209.589 -5.49745 204.603 -9.11711 198.778 -8.98071V-12.3804C205.548 -11.6897 210.878 -7.0209 216.539 -3.66122L218.491 -4.28065C212.136 -8.27001 206.366 -14.2315 198.778 -15.5801V-18.7798C205.908 -17.2276 211.27 -11.3548 217.067 -7.21729C217.855 -6.65478 220.33 -4.79342 221.103 -4.79547C222.747 -4.79906 224.762 -5.7359 226.51 -4.8647L226.499 -3.77916C218.815 -4.24527 212.576 1.26498 205.661 3.57143C204.784 3.86422 202.398 4.61954 201.608 4.61954H198.778L198.777 4.61902Z" fill="#3760E7"/>
<path d="M197.911 11.5522V8.19984C203.997 8.26968 209.019 4.37364 214.224 1.70143C214.275 1.147 212.323 1.19482 212.815 0.659733C212.887 0.581296 214.613 -0.165461 214.746 -0.178892C215.429 -0.250344 215.948 0.272385 216.527 0.23263C217.07 0.19556 218.092 -0.378207 218.421 -0.582357C218.75 -0.786506 217.895 -1.04008 217.246 -1.43603C218.289 -1.92598 219.179 -2.06137 219.179 -2.06137L220.568 -1.63373C220.568 -1.63373 221.979 -2.06674 222.682 -2.06943L221.676 -2.90322C223.466 -3.37061 224.791 -3.23577 226.509 -2.57926V-1.22812C215.781 -0.446437 208.633 10.8076 197.91 11.5527L197.911 11.5522Z" fill="#3760E7"/>
<path d="M197.911 18.4856V15.0149C205.722 14.016 211.547 7.58076 218.161 3.79017C218.161 3.79017 218.572 3.59857 218.294 3.41849C217.943 3.19025 217.251 2.97143 217.251 2.97143C217.783 2.67042 218.776 2.06631 219.215 1.90089C219.379 1.83859 220.109 2.42019 220.872 2.26681C221.389 2.16316 221.971 1.56585 222.561 1.50722L221.682 1.12874C222.978 -0.0585381 224.876 0.284872 226.509 0.519919V1.76687C215.585 4.53457 208.873 15.8472 197.91 18.4856H197.911Z" fill="#3760E7"/>
<path d="M222.176 5.31858C223.318 3.76972 225 3.90052 226.509 3.75293V5.32263C225.091 5.5391 223.593 5.54373 222.176 5.31858Z" fill="#3760E7"/>
<path d="M255.109 4.61902V1.21934C251.38 1.98747 247.761 0.628117 244.238 -0.382555C244.154 -0.839949 244.267 -0.700476 244.496 -0.826618C245.315 -1.27888 249.727 -2.58081 250.579 -2.58081H255.109V-5.78051H251.989C251.28 -5.78051 249.076 -5.12262 248.272 -4.8729C245.832 -4.11553 243.571 -2.85155 241.227 -1.86498L240.363 -2.02343L238.901 -2.78181C243.96 -5.49745 249.102 -9.11711 255.109 -8.98071V-12.3804C248.127 -11.6897 242.631 -7.0209 236.792 -3.66122L234.78 -4.28065C241.333 -8.27001 247.283 -14.2315 255.109 -15.5801V-18.7798C247.756 -17.2276 242.226 -11.3548 236.248 -7.21729C235.436 -6.65478 232.883 -4.79342 232.086 -4.79547C230.39 -4.79906 228.313 -5.7359 226.51 -4.8647L226.521 -3.77916C234.445 -4.24527 240.88 1.26498 248.011 3.57143C248.915 3.86422 251.376 4.61954 252.19 4.61954H255.109L255.109 4.61902Z" fill="#3760E7"/>
<path d="M255.109 11.5522V8.19984C249.023 8.26968 244 4.37364 238.796 1.70143C238.745 1.147 240.696 1.19482 240.204 0.659733C240.132 0.581296 238.406 -0.165461 238.273 -0.178892C237.59 -0.250344 237.072 0.272385 236.492 0.23263C235.949 0.19556 234.928 -0.378207 234.599 -0.582357C234.27 -0.786506 235.124 -1.04008 235.774 -1.43603C234.73 -1.92598 233.84 -2.06137 233.84 -2.06137L232.451 -1.63373C232.451 -1.63373 231.041 -2.06674 230.337 -2.06943L231.344 -2.90322C229.553 -3.37061 228.228 -3.23577 226.51 -2.57926V-1.22812C237.239 -0.446437 244.386 10.8076 255.109 11.5527L255.109 11.5522Z" fill="#3760E7"/>
<path d="M255.109 18.4856V15.0149C247.298 14.016 241.472 7.58076 234.858 3.79017C234.858 3.79017 234.448 3.59857 234.725 3.41849C235.077 3.19025 235.768 2.97143 235.768 2.97143C235.236 2.67042 234.243 2.06631 233.805 1.90089C233.64 1.83859 232.911 2.42019 232.147 2.26681C231.63 2.16316 231.049 1.56585 230.458 1.50722L231.338 1.12874C230.041 -0.0585381 228.143 0.284872 226.51 0.519919V1.76687C237.435 4.53457 244.147 15.8472 255.109 18.4856H255.109Z" fill="#3760E7"/>
<path d="M231.707 5.31858C230.336 3.76972 228.318 3.90052 226.507 3.75293V5.32263C228.208 5.5391 230.006 5.54373 231.707 5.31858Z" fill="#3760E7"/>
<path d="M151.977 4.61902V1.21934C155.706 1.98747 159.325 0.628117 162.848 -0.382555C162.932 -0.839949 162.819 -0.700476 162.59 -0.826618C161.771 -1.27888 157.359 -2.58081 156.507 -2.58081H151.977V-5.78051H155.097C155.806 -5.78051 158.01 -5.12262 158.814 -4.8729C161.254 -4.11553 163.515 -2.85155 165.859 -1.86498L166.723 -2.02343L168.185 -2.78181C163.126 -5.49745 157.984 -9.11711 151.977 -8.98071V-12.3804C158.959 -11.6897 164.455 -7.0209 170.294 -3.66122L172.306 -4.28065C165.753 -8.27001 159.803 -14.2315 151.977 -15.5801V-18.7798C159.33 -17.2276 164.86 -11.3548 170.838 -7.21729C171.65 -6.65478 174.203 -4.79342 175 -4.79547C176.696 -4.79906 178.773 -5.7359 180.576 -4.8647L180.565 -3.77916C172.641 -4.24527 166.206 1.26498 159.075 3.57143C158.171 3.86422 155.71 4.61954 154.896 4.61954H151.977L151.977 4.61902Z" fill="#3760E7"/>
<path d="M151.977 11.5522V8.19984C158.063 8.26968 163.086 4.37364 168.29 1.70143C168.341 1.147 166.39 1.19482 166.881 0.659733C166.954 0.581296 168.68 -0.165461 168.813 -0.178892C169.496 -0.250344 170.014 0.272385 170.594 0.23263C171.137 0.19556 172.158 -0.378207 172.487 -0.582357C172.816 -0.786506 171.962 -1.04008 171.312 -1.43603C172.356 -1.92598 173.246 -2.06137 173.246 -2.06137L174.635 -1.63373C174.635 -1.63373 176.045 -2.06674 176.749 -2.06943L175.742 -2.90322C177.533 -3.37061 178.858 -3.23577 180.576 -2.57926V-1.22812C169.847 -0.446437 162.7 10.8076 151.977 11.5527L151.977 11.5522Z" fill="#3760E7"/>
<path d="M151.977 18.4856V15.0149C159.788 14.016 165.614 7.58076 172.227 3.79017C172.227 3.79017 172.638 3.59857 172.361 3.41849C172.009 3.19025 171.318 2.97143 171.318 2.97143C171.85 2.67042 172.843 2.06631 173.281 1.90089C173.446 1.83859 174.175 2.42019 174.938 2.26681C175.455 2.16316 176.037 1.56585 176.628 1.50722L175.748 1.12874C177.045 -0.0585381 178.943 0.284872 180.576 0.519919V1.76687C169.651 4.53457 162.939 15.8472 151.977 18.4856H151.977Z" fill="#3760E7"/>
<path d="M175.379 5.31858C176.749 3.76972 178.768 3.90052 180.579 3.75293V5.32263C178.878 5.5391 177.08 5.54373 175.379 5.31858Z" fill="#3760E7"/>
<path d="M208.309 4.61902V1.21934C204.692 1.98747 201.183 0.628117 197.767 -0.382555C197.685 -0.839949 197.795 -0.700476 198.016 -0.826618C198.811 -1.27888 203.089 -2.58081 203.916 -2.58081H208.308V-5.78051H205.282C204.595 -5.78051 202.458 -5.12262 201.678 -4.8729C199.312 -4.11553 197.119 -2.85155 194.847 -1.86498L194.009 -2.02343L192.591 -2.78181C197.497 -5.49745 202.483 -9.11711 208.308 -8.98071V-12.3804C201.538 -11.6897 196.208 -7.0209 190.546 -3.66122L188.595 -4.28065C194.95 -8.27001 200.72 -14.2315 208.308 -15.5801V-18.7798C201.178 -17.2276 195.816 -11.3548 190.019 -7.21729C189.231 -6.65478 186.756 -4.79342 185.983 -4.79547C184.339 -4.79906 182.324 -5.7359 180.576 -4.8647L180.587 -3.77916C188.271 -4.24527 194.51 1.26498 201.425 3.57143C202.302 3.86422 204.688 4.61954 205.478 4.61954H208.308L208.309 4.61902Z" fill="#3760E7"/>
<path d="M208.308 11.5522V8.19984C202.407 8.26968 197.536 4.37364 192.489 1.70143C192.44 1.147 194.332 1.19482 193.855 0.659733C193.785 0.581296 192.112 -0.165461 191.983 -0.178892C191.32 -0.250344 190.818 0.272385 190.256 0.23263C189.729 0.19556 188.738 -0.378207 188.42 -0.582357C188.101 -0.786506 188.929 -1.04008 189.559 -1.43603C188.547 -1.92598 187.684 -2.06137 187.684 -2.06137L186.337 -1.63373C186.337 -1.63373 184.969 -2.06674 184.287 -2.06943L185.263 -2.90322C183.527 -3.37061 182.242 -3.23577 180.576 -2.57926V-1.22812C190.979 -0.446437 197.911 10.8076 208.309 11.5527L208.308 11.5522Z" fill="#3760E7"/>
<path d="M208.308 18.4856V15.0149C200.734 14.016 195.085 7.58076 188.671 3.79017C188.671 3.79017 188.273 3.59857 188.542 3.41849C188.883 3.19025 189.554 2.97143 189.554 2.97143C189.038 2.67042 188.075 2.06631 187.65 1.90089C187.49 1.83859 186.782 2.42019 186.043 2.26681C185.541 2.16316 184.977 1.56585 184.404 1.50722L185.257 1.12874C184 -0.0585381 182.159 0.284872 180.576 0.519919V1.76687C191.169 4.53457 197.678 15.8472 208.309 18.4856H208.308Z" fill="#3760E7"/>
<path d="M184.91 5.31858C183.768 3.76972 182.086 3.90052 180.577 3.75293V5.32263C181.994 5.5391 183.493 5.54373 184.91 5.31858Z" fill="#3760E7"/>
<path d="M290.199 4.39881V0.999128C293.816 1.76726 297.325 0.407902 300.741 -0.60277C300.823 -1.06016 300.713 -0.920691 300.491 -1.04683C299.696 -1.4991 295.419 -2.80102 294.592 -2.80102H290.2V-6.00072H293.225C293.913 -6.00072 296.05 -5.34283 296.829 -5.09311C299.196 -4.33575 301.388 -3.07177 303.661 -2.0852L304.499 -2.24364L305.917 -3.00203C301.01 -5.71767 296.024 -9.33733 290.2 -9.20093V-12.6006C296.97 -11.9099 302.3 -7.24111 307.961 -3.88143L309.912 -4.50086C303.558 -8.49023 297.788 -14.4517 290.2 -15.8003V-19C297.33 -17.4478 302.692 -11.5751 308.489 -7.43751C309.276 -6.87499 311.752 -5.01363 312.525 -5.01569C314.169 -5.01927 316.184 -5.95611 317.932 -5.08491L317.921 -3.99937C310.237 -4.46548 303.998 1.04476 297.083 3.35121C296.206 3.644 293.82 4.39932 293.03 4.39932H290.2L290.199 4.39881Z" fill="#3760E7"/>
<path d="M289.333 11.332V7.97963C295.418 8.04947 300.441 4.15343 305.646 1.48122C305.697 0.926789 303.745 0.974605 304.237 0.439518C304.309 0.361081 306.035 -0.385676 306.168 -0.399107C306.851 -0.470559 307.37 0.0521703 307.949 0.0124147C308.492 -0.0246546 309.514 -0.598422 309.843 -0.802572C310.171 -1.00672 309.317 -1.2603 308.667 -1.65624C309.711 -2.1462 310.601 -2.28158 310.601 -2.28158L311.99 -1.85394C311.99 -1.85394 313.401 -2.28695 314.104 -2.28964L313.097 -3.12343C314.888 -3.59083 316.213 -3.45598 317.931 -2.79948V-1.44833C307.203 -0.666652 300.055 10.5874 289.332 11.3325L289.333 11.332Z" fill="#3760E7"/>
<path d="M289.333 18.2659V14.7951C297.144 13.7963 302.969 7.36104 309.583 3.57044C309.583 3.57044 309.994 3.37884 309.716 3.19876C309.365 2.97052 308.673 2.7517 308.673 2.7517C309.205 2.45069 310.198 1.84659 310.637 1.68116C310.801 1.61887 311.531 2.20046 312.294 2.04708C312.811 1.94343 313.393 1.34613 313.983 1.2875L313.104 0.909013C314.4 -0.278265 316.298 0.0651451 317.931 0.300193V1.54715C307.007 4.31484 300.295 15.6275 289.332 18.2659H289.333Z" fill="#3760E7"/>
<path d="M313.598 5.09836C314.74 3.5495 316.422 3.68031 317.931 3.53271V5.10241C316.513 5.31888 315.015 5.32352 313.598 5.09836Z" fill="#3760E7"/>
<path d="M346.527 4.39881V0.999128C342.798 1.76726 339.179 0.407902 335.656 -0.60277C335.572 -1.06016 335.685 -0.920691 335.914 -1.04683C336.733 -1.4991 341.144 -2.80102 341.997 -2.80102H346.527V-6.00072H343.407C342.698 -6.00072 340.494 -5.34283 339.69 -5.09311C337.25 -4.33575 334.988 -3.07177 332.645 -2.0852L331.781 -2.24364L330.319 -3.00203C335.378 -5.71767 340.52 -9.33733 346.527 -9.20093V-12.6006C339.545 -11.9099 334.049 -7.24111 328.21 -3.88143L326.198 -4.50086C332.751 -8.49023 338.701 -14.4517 346.527 -15.8003V-19C339.174 -17.4478 333.644 -11.5751 327.666 -7.43751C326.854 -6.87499 324.301 -5.01363 323.504 -5.01569C321.808 -5.01927 319.731 -5.95611 317.928 -5.08491L317.939 -3.99937C325.863 -4.46548 332.298 1.04476 339.429 3.35121C340.333 3.644 342.794 4.39932 343.608 4.39932H346.527L346.527 4.39881Z" fill="#3760E7"/>
<path d="M346.527 11.332V7.97963C340.441 8.04947 335.418 4.15343 330.214 1.48122C330.163 0.926789 332.114 0.974605 331.622 0.439518C331.55 0.361081 329.824 -0.385676 329.691 -0.399107C329.008 -0.470559 328.49 0.0521703 327.91 0.0124147C327.367 -0.0246546 326.346 -0.598422 326.017 -0.802572C325.688 -1.00672 326.542 -1.2603 327.192 -1.65624C326.148 -2.1462 325.258 -2.28158 325.258 -2.28158L323.869 -1.85394C323.869 -1.85394 322.459 -2.28695 321.755 -2.28964L322.762 -3.12343C320.971 -3.59083 319.646 -3.45598 317.928 -2.79948V-1.44833C328.657 -0.666652 335.804 10.5874 346.527 11.3325L346.527 11.332Z" fill="#3760E7"/>
<path d="M346.527 18.2659V14.7951C338.716 13.7963 332.89 7.36104 326.276 3.57044C326.276 3.57044 325.866 3.37884 326.143 3.19876C326.495 2.97052 327.186 2.7517 327.186 2.7517C326.654 2.45069 325.661 1.84659 325.223 1.68116C325.058 1.61887 324.328 2.20046 323.565 2.04708C323.048 1.94343 322.467 1.34613 321.876 1.2875L322.756 0.909013C321.459 -0.278265 319.561 0.0651451 317.928 0.300193V1.54715C328.853 4.31484 335.565 15.6275 346.527 18.2659H346.527Z" fill="#3760E7"/>
<path d="M323.129 5.09836C321.758 3.5495 319.74 3.68031 317.929 3.53271V5.10241C319.63 5.31888 321.428 5.32352 323.129 5.09836Z" fill="#3760E7"/>
<path d="M290.199 4.39881V0.999128C293.816 1.76726 297.325 0.407902 300.741 -0.60277C300.823 -1.06016 300.713 -0.920691 300.491 -1.04683C299.696 -1.4991 295.419 -2.80102 294.592 -2.80102H290.2V-6.00072H293.225C293.913 -6.00072 296.05 -5.34283 296.829 -5.09311C299.196 -4.33575 301.388 -3.07177 303.661 -2.0852L304.499 -2.24364L305.917 -3.00203C301.01 -5.71767 296.024 -9.33733 290.2 -9.20093V-12.6006C296.97 -11.9099 302.3 -7.24111 307.961 -3.88143L309.912 -4.50086C303.558 -8.49023 297.788 -14.4517 290.2 -15.8003V-19C297.33 -17.4478 302.692 -11.5751 308.489 -7.43751C309.276 -6.87499 311.752 -5.01363 312.525 -5.01569C314.169 -5.01927 316.184 -5.95611 317.932 -5.08491L317.921 -3.99937C310.237 -4.46548 303.998 1.04476 297.083 3.35121C296.206 3.644 293.82 4.39932 293.03 4.39932H290.2L290.199 4.39881Z" fill="#3760E7"/>
<path d="M289.333 11.332V7.97963C295.418 8.04947 300.441 4.15343 305.646 1.48122C305.697 0.926789 303.745 0.974605 304.237 0.439518C304.309 0.361081 306.035 -0.385676 306.168 -0.399107C306.851 -0.470559 307.37 0.0521703 307.949 0.0124147C308.492 -0.0246546 309.514 -0.598422 309.843 -0.802572C310.171 -1.00672 309.317 -1.2603 308.667 -1.65624C309.711 -2.1462 310.601 -2.28158 310.601 -2.28158L311.99 -1.85394C311.99 -1.85394 313.401 -2.28695 314.104 -2.28964L313.097 -3.12343C314.888 -3.59083 316.213 -3.45598 317.931 -2.79948V-1.44833C307.203 -0.666652 300.055 10.5874 289.332 11.3325L289.333 11.332Z" fill="#3760E7"/>
<path d="M289.333 18.2659V14.7951C297.144 13.7963 302.969 7.36104 309.583 3.57044C309.583 3.57044 309.994 3.37884 309.716 3.19876C309.365 2.97052 308.673 2.7517 308.673 2.7517C309.205 2.45069 310.198 1.84659 310.637 1.68116C310.801 1.61887 311.531 2.20046 312.294 2.04708C312.811 1.94343 313.393 1.34613 313.983 1.2875L313.104 0.909013C314.4 -0.278265 316.298 0.0651451 317.931 0.300193V1.54715C307.007 4.31484 300.295 15.6275 289.332 18.2659H289.333Z" fill="#3760E7"/>
<path d="M313.598 5.09836C314.74 3.5495 316.422 3.68031 317.931 3.53271V5.10241C316.513 5.31888 315.015 5.32352 313.598 5.09836Z" fill="#3760E7"/>
<path d="M346.527 4.39881V0.999128C342.798 1.76726 339.179 0.407902 335.656 -0.60277C335.572 -1.06016 335.685 -0.920691 335.914 -1.04683C336.733 -1.4991 341.144 -2.80102 341.997 -2.80102H346.527V-6.00072H343.407C342.698 -6.00072 340.494 -5.34283 339.69 -5.09311C337.25 -4.33575 334.988 -3.07177 332.645 -2.0852L331.781 -2.24364L330.319 -3.00203C335.378 -5.71767 340.52 -9.33733 346.527 -9.20093V-12.6006C339.545 -11.9099 334.049 -7.24111 328.21 -3.88143L326.198 -4.50086C332.751 -8.49023 338.701 -14.4517 346.527 -15.8003V-19C339.174 -17.4478 333.644 -11.5751 327.666 -7.43751C326.854 -6.87499 324.301 -5.01363 323.504 -5.01569C321.808 -5.01927 319.731 -5.95611 317.928 -5.08491L317.939 -3.99937C325.863 -4.46548 332.298 1.04476 339.429 3.35121C340.333 3.644 342.794 4.39932 343.608 4.39932H346.527L346.527 4.39881Z" fill="#3760E7"/>
<path d="M346.527 11.332V7.97963C340.441 8.04947 335.418 4.15343 330.214 1.48122C330.163 0.926789 332.114 0.974605 331.622 0.439518C331.55 0.361081 329.824 -0.385676 329.691 -0.399107C329.008 -0.470559 328.49 0.0521703 327.91 0.0124147C327.367 -0.0246546 326.346 -0.598422 326.017 -0.802572C325.688 -1.00672 326.542 -1.2603 327.192 -1.65624C326.148 -2.1462 325.258 -2.28158 325.258 -2.28158L323.869 -1.85394C323.869 -1.85394 322.459 -2.28695 321.755 -2.28964L322.762 -3.12343C320.971 -3.59083 319.646 -3.45598 317.928 -2.79948V-1.44833C328.657 -0.666652 335.804 10.5874 346.527 11.3325L346.527 11.332Z" fill="#3760E7"/>
<path d="M346.527 18.2659V14.7951C338.716 13.7963 332.89 7.36104 326.276 3.57044C326.276 3.57044 325.866 3.37884 326.143 3.19876C326.495 2.97052 327.186 2.7517 327.186 2.7517C326.654 2.45069 325.661 1.84659 325.223 1.68116C325.058 1.61887 324.328 2.20046 323.565 2.04708C323.048 1.94343 322.467 1.34613 321.876 1.2875L322.756 0.909013C321.459 -0.278265 319.561 0.0651451 317.928 0.300193V1.54715C328.853 4.31484 335.565 15.6275 346.527 18.2659H346.527Z" fill="#3760E7"/>
<path d="M323.129 5.09836C321.758 3.5495 319.74 3.68031 317.929 3.53271V5.10241C319.63 5.31888 321.428 5.32352 323.129 5.09836Z" fill="#3760E7"/>
<path d="M299.73 4.39881V0.999128C296.114 1.76726 292.605 0.407902 289.189 -0.60277C289.107 -1.06016 289.217 -0.920691 289.438 -1.04683C290.233 -1.4991 294.511 -2.80102 295.338 -2.80102H299.73V-6.00072H296.704C296.017 -6.00072 293.88 -5.34283 293.1 -5.09311C290.734 -4.33575 288.541 -3.07177 286.269 -2.0852L285.431 -2.24364L284.013 -3.00203C288.919 -5.71767 293.905 -9.33733 299.73 -9.20093V-12.6006C292.96 -11.9099 287.63 -7.24111 281.968 -3.88143L280.017 -4.50086C286.372 -8.49023 292.142 -14.4517 299.73 -15.8003V-19C292.6 -17.4478 287.237 -11.5751 281.441 -7.43751C280.653 -6.87499 278.178 -5.01363 277.405 -5.01569C275.76 -5.01927 273.746 -5.95611 271.998 -5.08491L272.009 -3.99937C279.692 -4.46548 285.932 1.04476 292.847 3.35121C293.724 3.644 296.11 4.39932 296.899 4.39932H299.73L299.73 4.39881Z" fill="#3760E7"/>
<path d="M299.73 11.332V7.97963C293.829 8.04947 288.958 4.15343 283.911 1.48122C283.862 0.926789 285.754 0.974605 285.277 0.439518C285.207 0.361081 283.533 -0.385676 283.405 -0.399107C282.742 -0.470559 282.239 0.0521703 281.677 0.0124147C281.151 -0.0246546 280.16 -0.598422 279.841 -0.802572C279.523 -1.00672 280.351 -1.2603 280.981 -1.65624C279.969 -2.1462 279.106 -2.28158 279.106 -2.28158L277.759 -1.85394C277.759 -1.85394 276.391 -2.28695 275.709 -2.28964L276.685 -3.12343C274.949 -3.59083 273.664 -3.45598 271.998 -2.79948V-1.44833C282.401 -0.666652 289.332 10.5874 299.73 11.3325L299.73 11.332Z" fill="#3760E7"/>
<path d="M299.73 18.2659V14.7951C292.156 13.7963 286.507 7.36104 280.093 3.57044C280.093 3.57044 279.695 3.37884 279.964 3.19876C280.305 2.97052 280.975 2.7517 280.975 2.7517C280.46 2.45069 279.497 1.84659 279.071 1.68116C278.912 1.61887 278.204 2.20046 277.464 2.04708C276.963 1.94343 276.399 1.34613 275.826 1.2875L276.679 0.909013C275.422 -0.278265 273.581 0.0651451 271.998 0.300193V1.54715C282.591 4.31484 289.1 15.6275 299.73 18.2659H299.73Z" fill="#3760E7"/>
<path d="M276.332 5.09836C275.19 3.5495 273.508 3.68031 271.999 3.53271V5.10241C273.416 5.31888 274.914 5.32352 276.332 5.09836Z" fill="#3760E7"/>
</g>
<defs>
<clipPath id="clip0_998_2676">
<rect width="335" height="160" rx="17.8105" fill="white"/>
</clipPath>
</defs>
</svg>
