<svg width="335" height="160" viewBox="0 0 335 160" fill="none" xmlns="http://www.w3.org/2000/svg">
<g clip-path="url(#clip0_998_2767)">
<rect width="335" height="160" rx="17.8105" transform="matrix(1 0 0 -1 0 160)" fill="#3760E7"/>
<path d="M200.02 71.2C200.72 71.2 201.345 71.2793 201.896 71.438C202.456 71.5873 202.927 71.8113 203.31 72.11C203.693 72.3993 203.987 72.7587 204.192 73.188C204.397 73.608 204.5 74.0887 204.5 74.63C204.5 75.1713 204.397 75.6567 204.192 76.086C203.987 76.506 203.693 76.8653 203.31 77.164C202.927 77.4533 202.456 77.6773 201.896 77.836C201.345 77.9853 200.72 78.06 200.02 78.06H197.01V81H194.98V71.2H200.02ZM197.01 72.25V77.01H200.02C200.757 77.01 201.327 76.8187 201.728 76.436C202.139 76.044 202.344 75.442 202.344 74.63C202.344 73.818 202.139 73.2207 201.728 72.838C201.327 72.446 200.757 72.25 200.02 72.25H197.01ZM208.071 72.25V75.47H213.181V76.52H208.071V79.95H214.581V81H206.041V71.2H214.581V72.25H208.071ZM222.28 76.03L225.99 81H223.68L220.46 76.66H218.01V81H215.98V71.2H218.01V75.61H220.32L223.54 71.2H225.78L222.28 76.03ZM226.409 80.16H226.829C227.109 80.16 227.356 80.0433 227.571 79.81C227.786 79.5767 227.912 79.18 227.949 78.62L228.439 71.2H236.769V81H234.739V72.25H230.329L229.909 78.62C229.844 79.5347 229.587 80.1973 229.139 80.608C228.7 81.0093 228.094 81.21 227.319 81.21C227.076 81.21 226.862 81.1867 226.675 81.14C226.572 81.1213 226.484 81.098 226.409 81.07V80.16ZM241.32 77.57H245.66L243.56 72.39H243.42L241.32 77.57ZM245.1 71.2L249.09 81H247.074L246.15 78.62H240.83L239.906 81H237.89L241.88 71.2H245.1ZM256.864 79.6H257.004L260.644 71.2H263.654V81H261.624V73.16H261.484L258.124 81H255.744L252.384 73.16H252.244V81H250.214V71.2H253.224L256.864 79.6ZM268.199 77.57H272.539L270.439 72.39H270.299L268.199 77.57ZM271.979 71.2L275.969 81H273.953L273.029 78.62H267.709L266.785 81H264.769L268.759 71.2H271.979Z" fill="#D8E3FD"/>
<path d="M185.03 81V73.02H184.89L179.64 81H176.98V71.2H179.01V79.18H179.15L184.4 71.2H187.06V81H185.03Z" fill="#D8E3FD"/>
<path d="M202.979 -77C224.049 -60.6805 304.288 -26.8376 298.659 0.0495121C292.062 31.5657 149.727 21.3184 110.762 49.0081C71.7972 76.6977 165.555 120.366 337 111.938" stroke="#D8E3FD" stroke-width="4.27451"/>
<path d="M42.9525 90.2158H40.4105C40.9848 87.5082 39.9684 84.8815 39.2128 82.3239C38.8708 82.263 38.975 82.3451 38.8807 82.5108C38.5426 83.106 37.5691 86.3082 37.5691 86.9273V90.2154H35.1767V87.9504C35.1767 87.4357 35.6686 85.836 35.8553 85.2524C36.4216 83.4807 37.3667 81.8393 38.1043 80.1382L37.9859 79.511L37.4188 78.4494C35.3883 82.1223 32.6819 85.8549 32.7839 90.2154H30.2419C30.7583 85.1471 34.2492 81.157 36.7613 76.9187L36.2981 75.4581C33.3153 80.2153 28.8578 84.5346 27.8495 90.2154H25.457C26.6176 84.8777 31.0087 80.8633 34.1024 76.5239C34.523 75.9341 35.9147 74.0811 35.9132 73.5021C35.9105 72.2713 35.21 70.7633 35.8614 69.4546L36.6731 69.4627C36.3246 75.2148 40.4446 79.8861 42.1692 85.0627C42.3881 85.7192 42.9529 87.5055 42.9529 88.0964V90.2154L42.9525 90.2158Z" fill="#D8E3FD"/>
<path d="M48.1366 90.8643H45.63C45.6822 86.3083 42.7691 82.5481 40.7711 78.6519C40.3566 78.6137 40.3923 80.0748 39.9922 79.7066C39.9336 79.6525 39.3752 78.3604 39.3652 78.2609C39.3117 77.7495 39.7026 77.3613 39.6729 76.9275C39.6452 76.521 39.2161 75.7562 39.0635 75.5101C38.9109 75.2639 38.7213 75.9034 38.4252 76.3898C38.0589 75.6083 37.9576 74.9421 37.9576 74.9421L38.2774 73.9022C38.2774 73.9022 37.9536 72.8463 37.9516 72.3197L37.3282 73.0734C36.9787 71.7327 37.0795 70.7409 37.5704 69.4547H38.5807C39.1651 77.4862 47.5798 82.8372 48.137 90.8647L48.1366 90.8643Z" fill="#D8E3FD"/>
<path d="M53.3227 90.8643H50.7276C49.9808 85.0168 45.1691 80.6558 42.3348 75.7045C42.3348 75.7045 42.1916 75.397 42.0569 75.6046C41.8863 75.8679 41.7227 76.3855 41.7227 76.3855C41.4976 75.9873 41.0459 75.2438 40.9222 74.9156C40.8756 74.7923 41.3105 74.2461 41.1958 73.6749C41.1183 73.2879 40.6717 72.8523 40.6279 72.4103L40.3449 73.0687C39.4571 72.0981 39.7139 70.6771 39.8896 69.4547H40.822C42.8914 77.633 51.35 82.6579 53.3227 90.8647V90.8643Z" fill="#D8E3FD"/>
<path d="M43.4161 72.6987C41.679 71.8437 41.8257 70.5846 41.6602 69.4548H43.4207C43.6635 70.516 43.6686 71.6375 43.4161 72.6987Z" fill="#D8E3FD"/>
<path d="M42.9525 48.6934H40.4105C40.9848 51.401 39.9684 54.0276 39.2128 56.5853C38.8708 56.6462 38.975 56.5641 38.8807 56.3984C38.5426 55.8032 37.5691 52.601 37.5691 51.9819V48.6937H35.1767V50.9588C35.1767 51.4734 35.6686 53.0732 35.8553 53.6568C36.4216 55.4285 37.3667 57.0699 38.1043 58.771L37.9859 59.3982L37.4188 60.4598C35.3883 56.7869 32.6819 53.0543 32.7839 48.6937H30.2419C30.7583 53.762 34.2492 57.7522 36.7613 61.9905L36.2981 63.4511C33.3153 58.6939 28.8578 54.3746 27.8495 48.6937H25.457C26.6176 54.0315 31.0087 58.0459 34.1024 62.3853C34.523 62.975 35.9147 64.8281 35.9132 65.407C35.9105 66.6379 35.21 68.1459 35.8614 69.4546L36.6731 69.4465C36.3246 63.6943 40.4446 59.0231 42.1692 53.8465C42.3881 53.19 42.9529 51.4037 42.9529 50.8127V48.6937L42.9525 48.6934Z" fill="#D8E3FD"/>
<path d="M48.1366 48.6937H45.63C45.6822 53.1117 42.7691 56.758 40.7711 60.5362C40.3566 60.5732 40.3923 59.1563 39.9922 59.5134C39.9336 59.5659 39.3752 60.8188 39.3652 60.9152C39.3117 61.4112 39.7026 61.7876 39.6729 62.2083C39.6452 62.6024 39.2161 63.344 39.0635 63.5828C38.9109 63.8215 38.7213 63.2013 38.4252 62.7297C38.0589 63.4875 37.9576 64.1335 37.9576 64.1335L38.2774 65.1419C38.2774 65.1419 37.9536 66.1658 37.9516 66.6764L37.3282 65.9456C36.9787 67.2456 37.0795 68.2074 37.5704 69.4546H38.5807C39.1651 61.6665 47.5798 56.4776 48.137 48.6934L48.1366 48.6937Z" fill="#D8E3FD"/>
<path d="M53.3227 48.6937H50.7276C49.9808 54.3641 45.1691 58.593 42.3348 63.3943C42.3348 63.3943 42.1916 63.6924 42.0569 63.4911C41.8863 63.2357 41.7227 62.7339 41.7227 62.7339C41.4976 63.12 41.0459 63.8409 40.9222 64.1592C40.8756 64.2787 41.3105 64.8084 41.1958 65.3623C41.1183 65.7376 40.6717 66.16 40.6279 66.5886L40.3449 65.9502C39.4571 66.8914 39.7139 68.2692 39.8896 69.4546H40.822C42.8914 61.5242 51.35 56.6515 53.3227 48.6934V48.6937Z" fill="#D8E3FD"/>
<path d="M43.4161 65.562C41.679 66.588 41.8257 68.099 41.6602 69.4547H43.4207C43.6635 68.1813 43.6686 66.8355 43.4161 65.562Z" fill="#D8E3FD"/>
<path d="M42.9525 90.2158H40.4105C40.9848 87.5082 39.9684 84.8815 39.2128 82.3239C38.8708 82.263 38.975 82.3451 38.8807 82.5108C38.5426 83.106 37.5691 86.3082 37.5691 86.9273V90.2154H35.1767V87.9504C35.1767 87.4357 35.6686 85.836 35.8553 85.2524C36.4216 83.4807 37.3667 81.8393 38.1043 80.1382L37.9859 79.511L37.4188 78.4494C35.3883 82.1223 32.6819 85.8549 32.7839 90.2154H30.2419C30.7583 85.1471 34.2492 81.157 36.7613 76.9187L36.2981 75.4581C33.3153 80.2153 28.8578 84.5346 27.8495 90.2154H25.457C26.6176 84.8777 31.0087 80.8633 34.1024 76.5239C34.523 75.9341 35.9147 74.0811 35.9132 73.5021C35.9105 72.2713 35.21 70.7633 35.8614 69.4546L36.6731 69.4627C36.3246 75.2148 40.4446 79.8861 42.1692 85.0627C42.3881 85.7192 42.9529 87.5055 42.9529 88.0964V90.2154L42.9525 90.2158Z" fill="#D8E3FD"/>
<path d="M48.1366 90.8643H45.63C45.6822 86.3083 42.7691 82.5481 40.7711 78.6519C40.3566 78.6137 40.3923 80.0748 39.9922 79.7066C39.9336 79.6525 39.3752 78.3604 39.3652 78.2609C39.3117 77.7495 39.7026 77.3613 39.6729 76.9275C39.6452 76.521 39.2161 75.7562 39.0635 75.5101C38.9109 75.2639 38.7213 75.9034 38.4252 76.3898C38.0589 75.6083 37.9576 74.9421 37.9576 74.9421L38.2774 73.9022C38.2774 73.9022 37.9536 72.8463 37.9516 72.3197L37.3282 73.0734C36.9787 71.7327 37.0795 70.7409 37.5704 69.4547H38.5807C39.1651 77.4862 47.5798 82.8372 48.137 90.8647L48.1366 90.8643Z" fill="#D8E3FD"/>
<path d="M53.3227 90.8643H50.7276C49.9808 85.0168 45.1691 80.6558 42.3348 75.7045C42.3348 75.7045 42.1916 75.397 42.0569 75.6046C41.8863 75.8679 41.7227 76.3855 41.7227 76.3855C41.4976 75.9873 41.0459 75.2438 40.9222 74.9156C40.8756 74.7923 41.3105 74.2461 41.1958 73.6749C41.1183 73.2879 40.6717 72.8523 40.6279 72.4103L40.3449 73.0687C39.4571 72.0981 39.7139 70.6771 39.8896 69.4547H40.822C42.8914 77.633 51.35 82.6579 53.3227 90.8647V90.8643Z" fill="#D8E3FD"/>
<path d="M43.4161 72.6987C41.679 71.8437 41.8257 70.5846 41.6602 69.4548H43.4207C43.6635 70.516 43.6686 71.6375 43.4161 72.6987Z" fill="#D8E3FD"/>
<path d="M42.9525 48.6934H40.4105C40.9848 51.401 39.9684 54.0276 39.2128 56.5853C38.8708 56.6462 38.975 56.5641 38.8807 56.3984C38.5426 55.8032 37.5691 52.601 37.5691 51.9819V48.6937H35.1767V50.9588C35.1767 51.4734 35.6686 53.0732 35.8553 53.6568C36.4216 55.4285 37.3667 57.0699 38.1043 58.771L37.9859 59.3982L37.4188 60.4598C35.3883 56.7869 32.6819 53.0543 32.7839 48.6937H30.2419C30.7583 53.762 34.2492 57.7522 36.7613 61.9905L36.2981 63.4511C33.3153 58.6939 28.8578 54.3746 27.8495 48.6937H25.457C26.6176 54.0315 31.0087 58.0459 34.1024 62.3853C34.523 62.975 35.9147 64.8281 35.9132 65.407C35.9105 66.6379 35.21 68.1459 35.8614 69.4546L36.6731 69.4465C36.3246 63.6943 40.4446 59.0231 42.1692 53.8465C42.3881 53.19 42.9529 51.4037 42.9529 50.8127V48.6937L42.9525 48.6934Z" fill="#D8E3FD"/>
<path d="M48.1366 48.6937H45.63C45.6822 53.1117 42.7691 56.758 40.7711 60.5362C40.3566 60.5732 40.3923 59.1563 39.9922 59.5134C39.9336 59.5659 39.3752 60.8188 39.3652 60.9152C39.3117 61.4112 39.7026 61.7876 39.6729 62.2083C39.6452 62.6024 39.2161 63.344 39.0635 63.5828C38.9109 63.8215 38.7213 63.2013 38.4252 62.7297C38.0589 63.4875 37.9576 64.1335 37.9576 64.1335L38.2774 65.1419C38.2774 65.1419 37.9536 66.1658 37.9516 66.6764L37.3282 65.9456C36.9787 67.2456 37.0795 68.2074 37.5704 69.4546H38.5807C39.1651 61.6665 47.5798 56.4776 48.137 48.6934L48.1366 48.6937Z" fill="#D8E3FD"/>
<path d="M53.3227 48.6937H50.7276C49.9808 54.3641 45.1691 58.593 42.3348 63.3943C42.3348 63.3943 42.1916 63.6924 42.0569 63.4911C41.8863 63.2357 41.7227 62.7339 41.7227 62.7339C41.4976 63.12 41.0459 63.8409 40.9222 64.1592C40.8756 64.2787 41.3105 64.8084 41.1958 65.3623C41.1183 65.7376 40.6717 66.16 40.6279 66.5886L40.3449 65.9502C39.4571 66.8914 39.7139 68.2692 39.8896 69.4546H40.822C42.8914 61.5242 51.35 56.6515 53.3227 48.6934V48.6937Z" fill="#D8E3FD"/>
<path d="M43.4161 65.562C41.679 66.588 41.8257 68.099 41.6602 69.4547H43.4207C43.6635 68.1813 43.6686 66.8355 43.4161 65.562Z" fill="#D8E3FD"/>
<path d="M42.9525 125.25H40.4105C40.9848 122.543 39.9684 119.916 39.2128 117.359C38.8708 117.298 38.975 117.38 38.8807 117.545C38.5426 118.141 37.5691 121.343 37.5691 121.962V125.25H35.1767V122.985C35.1767 122.47 35.6686 120.871 35.8553 120.287C36.4216 118.515 37.3667 116.874 38.1043 115.173L37.9859 114.546L37.4188 113.484C35.3883 117.157 32.6819 120.89 32.7839 125.25H30.2419C30.7583 120.182 34.2492 116.192 36.7613 111.953L36.2981 110.493C33.3153 115.25 28.8578 119.569 27.8495 125.25H25.457C26.6176 119.912 31.0087 115.898 34.1024 111.559C34.523 110.969 35.9147 109.116 35.9132 108.537C35.9105 107.306 35.21 105.798 35.8614 104.489L36.6731 104.497C36.3246 110.25 40.4446 114.921 42.1692 120.097C42.3881 120.754 42.9529 122.54 42.9529 123.131V125.25L42.9525 125.25Z" fill="#D8E3FD"/>
<path d="M48.1366 125.899H45.63C45.6822 121.343 42.7691 117.582 40.7711 113.686C40.3566 113.648 40.3923 115.109 39.9922 114.741C39.9336 114.687 39.3752 113.395 39.3652 113.295C39.3117 112.784 39.7026 112.396 39.6729 111.962C39.6452 111.555 39.2161 110.79 39.0635 110.544C38.9109 110.298 38.7213 110.938 38.4252 111.424C38.0589 110.642 37.9576 109.976 37.9576 109.976L38.2774 108.936C38.2774 108.936 37.9536 107.88 37.9516 107.354L37.3282 108.108C36.9787 106.767 37.0795 105.775 37.5704 104.489H38.5807C39.1651 112.52 47.5798 117.871 48.137 125.899L48.1366 125.899Z" fill="#D8E3FD"/>
<path d="M53.3227 125.899H50.7276C49.9808 120.051 45.1691 115.69 42.3348 110.739C42.3348 110.739 42.1916 110.431 42.0569 110.639C41.8863 110.902 41.7227 111.42 41.7227 111.42C41.4976 111.021 41.0459 110.278 40.9222 109.95C40.8756 109.826 41.3105 109.28 41.1958 108.709C41.1183 108.322 40.6717 107.886 40.6279 107.445L40.3449 108.103C39.4571 107.132 39.7139 105.711 39.8896 104.489H40.822C42.8914 112.667 51.35 117.692 53.3227 125.899V125.899Z" fill="#D8E3FD"/>
<path d="M43.4792 107.733C42.3211 106.878 42.419 105.619 42.3086 104.489H43.4823C43.6441 105.55 43.6476 106.672 43.4792 107.733Z" fill="#D8E3FD"/>
<path d="M42.9525 83.728H40.4105C40.9848 86.4356 39.9684 89.0623 39.2128 91.62C38.8708 91.6809 38.975 91.5988 38.8807 91.433C38.5426 90.8378 37.5691 87.6356 37.5691 87.0166V83.7284H35.1767V85.9935C35.1767 86.5081 35.6686 88.1079 35.8553 88.6915C36.4216 90.4631 37.3667 92.1045 38.1043 93.8057L37.9859 94.4328L37.4188 95.4944C35.3883 91.8216 32.6819 88.089 32.7839 83.7284H30.2419C30.7583 88.7967 34.2492 92.7868 36.7613 97.0252L36.2981 98.4858C33.3153 93.7286 28.8578 89.4092 27.8495 83.7284H25.457C26.6176 89.0662 31.0087 93.0806 34.1024 97.4199C34.523 98.0097 35.9147 99.8627 35.9132 100.442C35.9105 101.673 35.21 103.181 35.8614 104.489L36.6731 104.481C36.3246 98.729 40.4446 94.0578 42.1692 88.8811C42.3881 88.2247 42.9529 86.4383 42.9529 85.8474V83.7284L42.9525 83.728Z" fill="#D8E3FD"/>
<path d="M48.1366 83.7284H45.63C45.6822 88.1464 42.7691 91.7926 40.7711 95.5708C40.3566 95.6078 40.3923 94.191 39.9922 94.5481C39.9336 94.6005 39.3752 95.8535 39.3652 95.9499C39.3117 96.4458 39.7026 96.8222 39.6729 97.243C39.6452 97.6371 39.2161 98.3787 39.0635 98.6174C38.9109 98.8561 38.7213 98.236 38.4252 97.7644C38.0589 98.5222 37.9576 99.1681 37.9576 99.1681L38.2774 100.177C38.2774 100.177 37.9536 101.2 37.9516 101.711L37.3282 100.98C36.9787 102.28 37.0795 103.242 37.5704 104.489H38.5807C39.1651 96.7011 47.5798 91.5123 48.137 83.728L48.1366 83.7284Z" fill="#D8E3FD"/>
<path d="M53.3227 83.7284H50.7276C49.9808 89.3988 45.1691 93.6276 42.3348 98.4289C42.3348 98.4289 42.1916 98.7271 42.0569 98.5257C41.8863 98.2704 41.7227 97.7685 41.7227 97.7685C41.4976 98.1547 41.0459 98.8756 40.9222 99.1938C40.8756 99.3134 41.3105 99.843 41.1958 100.397C41.1183 100.772 40.6717 101.195 40.6279 101.623L40.3449 100.985C39.4571 101.926 39.7139 103.304 39.8896 104.489H40.822C42.8914 96.5589 51.35 91.6862 53.3227 83.728V83.7284Z" fill="#D8E3FD"/>
<path d="M43.4792 100.596C42.3211 101.622 42.419 103.133 42.3086 104.489H43.4823C43.6441 103.215 43.6476 101.87 43.4792 100.596Z" fill="#D8E3FD"/>
<path d="M42.9525 159.636H40.4105C40.9848 156.929 39.9684 154.302 39.2128 151.744C38.8708 151.683 38.975 151.765 38.8807 151.931C38.5426 152.526 37.5691 155.729 37.5691 156.348V159.636H35.1767V157.371C35.1767 156.856 35.6686 155.256 35.8553 154.673C36.4216 152.901 37.3667 151.26 38.1043 149.559L37.9859 148.931L37.4188 147.87C35.3883 151.543 32.6819 155.275 32.7839 159.636H30.2419C30.7583 154.568 34.2492 150.577 36.7613 146.339L36.2981 144.878C33.3153 149.636 28.8578 153.955 27.8495 159.636H25.457C26.6176 154.298 31.0087 150.284 34.1024 145.944C34.523 145.355 35.9147 143.502 35.9132 142.923C35.9105 141.692 35.21 140.184 35.8614 138.875L36.6731 138.883C36.3246 144.635 40.4446 149.306 42.1692 154.483C42.3881 155.14 42.9529 156.926 42.9529 157.517V159.636L42.9525 159.636Z" fill="#D8E3FD"/>
<path d="M48.1366 160.285H45.63C45.6822 155.729 42.7691 151.969 40.7711 148.072C40.3566 148.034 40.3923 149.495 39.9922 149.127C39.9336 149.073 39.3752 147.781 39.3652 147.681C39.3117 147.17 39.7026 146.782 39.6729 146.348C39.6452 145.941 39.2161 145.177 39.0635 144.93C38.9109 144.684 38.7213 145.324 38.4252 145.81C38.0589 145.029 37.9576 144.363 37.9576 144.363L38.2774 143.323C38.2774 143.323 37.9536 142.267 37.9516 141.74L37.3282 142.494C36.9787 141.153 37.0795 140.161 37.5704 138.875H38.5807C39.1651 146.907 47.5798 152.258 48.137 160.285L48.1366 160.285Z" fill="#D8E3FD"/>
<path d="M53.3227 160.285H50.7276C49.9808 154.437 45.1691 150.076 42.3348 145.125C42.3348 145.125 42.1916 144.817 42.0569 145.025C41.8863 145.288 41.7227 145.806 41.7227 145.806C41.4976 145.408 41.0459 144.664 40.9222 144.336C40.8756 144.213 41.3105 143.667 41.1958 143.095C41.1183 142.708 40.6717 142.273 40.6279 141.831L40.3449 142.489C39.4571 141.518 39.7139 140.098 39.8896 138.875H40.822C42.8914 147.053 51.35 152.078 53.3227 160.285V160.285Z" fill="#D8E3FD"/>
<path d="M43.4792 142.119C42.3211 141.264 42.419 140.005 42.3086 138.875H43.4823C43.6441 139.936 43.6476 141.057 43.4792 142.119Z" fill="#D8E3FD"/>
<path d="M42.9525 117.465H40.4105C40.9848 120.257 39.9684 122.966 39.2128 125.603C38.8708 125.666 38.975 125.582 38.8807 125.411C38.5426 124.797 37.5691 121.495 37.5691 120.856V117.465H35.1767V119.801C35.1767 120.332 35.6686 121.982 35.8553 122.583C36.4216 124.41 37.3667 126.103 38.1043 127.857L37.9859 128.504L37.4188 129.599C35.3883 125.811 32.6819 121.962 32.7839 117.465H30.2419C30.7583 122.692 34.2492 126.807 36.7613 131.178L36.2981 132.684C33.3153 127.778 28.8578 123.324 27.8495 117.465H25.457C26.6176 122.97 31.0087 127.11 34.1024 131.585C34.523 132.193 35.9147 134.104 35.9132 134.701C35.9105 135.97 35.21 137.525 35.8614 138.875L36.6731 138.867C36.3246 132.935 40.4446 128.117 42.1692 122.779C42.3881 122.102 42.9529 120.26 42.9529 119.65V117.465L42.9525 117.465Z" fill="#D8E3FD"/>
<path d="M48.1366 117.465H45.63C45.6822 122.021 42.7691 125.781 40.7711 129.678C40.3566 129.716 40.3923 128.255 39.9922 128.623C39.9336 128.677 39.3752 129.969 39.3652 130.069C39.3117 130.58 39.7026 130.968 39.6729 131.402C39.6452 131.809 39.2161 132.573 39.0635 132.82C38.9109 133.066 38.7213 132.426 38.4252 131.94C38.0589 132.721 37.9576 133.387 37.9576 133.387L38.2774 134.427C38.2774 134.427 37.9536 135.483 37.9516 136.01L37.3282 135.256C36.9787 136.597 37.0795 137.589 37.5704 138.875H38.5807C39.1651 130.843 47.5798 125.492 48.137 117.465L48.1366 117.465Z" fill="#D8E3FD"/>
<path d="M53.3227 117.465H50.7276C49.9808 123.313 45.1691 127.674 42.3348 132.625C42.3348 132.625 42.1916 132.933 42.0569 132.725C41.8863 132.462 41.7227 131.944 41.7227 131.944C41.4976 132.342 41.0459 133.086 40.9222 133.414C40.8756 133.537 41.3105 134.083 41.1958 134.655C41.1183 135.042 40.6717 135.477 40.6279 135.919L40.3449 135.261C39.4571 136.232 39.7139 137.652 39.8896 138.875H40.822C42.8914 130.697 51.35 125.672 53.3227 117.465V117.465Z" fill="#D8E3FD"/>
<path d="M43.4792 134.982C42.3211 136.008 42.419 137.519 42.3086 138.875H43.4823C43.6441 137.602 43.6476 136.256 43.4792 134.982Z" fill="#D8E3FD"/>
<path d="M42.9525 159.636H40.4105C40.9848 156.929 39.9684 154.302 39.2128 151.744C38.8708 151.683 38.975 151.765 38.8807 151.931C38.5426 152.526 37.5691 155.729 37.5691 156.348V159.636H35.1767V157.371C35.1767 156.856 35.6686 155.256 35.8553 154.673C36.4216 152.901 37.3667 151.26 38.1043 149.559L37.9859 148.931L37.4188 147.87C35.3883 151.543 32.6819 155.275 32.7839 159.636H30.2419C30.7583 154.568 34.2492 150.577 36.7613 146.339L36.2981 144.878C33.3153 149.636 28.8578 153.955 27.8495 159.636H25.457C26.6176 154.298 31.0087 150.284 34.1024 145.944C34.523 145.355 35.9147 143.502 35.9132 142.923C35.9105 141.692 35.21 140.184 35.8614 138.875L36.6731 138.883C36.3246 144.635 40.4446 149.306 42.1692 154.483C42.3881 155.14 42.9529 156.926 42.9529 157.517V159.636L42.9525 159.636Z" fill="#D8E3FD"/>
<path d="M48.1366 160.285H45.63C45.6822 155.729 42.7691 151.969 40.7711 148.072C40.3566 148.034 40.3923 149.495 39.9922 149.127C39.9336 149.073 39.3752 147.781 39.3652 147.681C39.3117 147.17 39.7026 146.782 39.6729 146.348C39.6452 145.941 39.2161 145.177 39.0635 144.93C38.9109 144.684 38.7213 145.324 38.4252 145.81C38.0589 145.029 37.9576 144.363 37.9576 144.363L38.2774 143.323C38.2774 143.323 37.9536 142.267 37.9516 141.74L37.3282 142.494C36.9787 141.153 37.0795 140.161 37.5704 138.875H38.5807C39.1651 146.907 47.5798 152.258 48.137 160.285L48.1366 160.285Z" fill="#D8E3FD"/>
<path d="M53.3227 160.285H50.7276C49.9808 154.437 45.1691 150.076 42.3348 145.125C42.3348 145.125 42.1916 144.817 42.0569 145.025C41.8863 145.288 41.7227 145.806 41.7227 145.806C41.4976 145.408 41.0459 144.664 40.9222 144.336C40.8756 144.213 41.3105 143.667 41.1958 143.095C41.1183 142.708 40.6717 142.273 40.6279 141.831L40.3449 142.489C39.4571 141.518 39.7139 140.098 39.8896 138.875H40.822C42.8914 147.053 51.35 152.078 53.3227 160.285V160.285Z" fill="#D8E3FD"/>
<path d="M43.4792 142.119C42.3211 141.264 42.419 140.005 42.3086 138.875H43.4823C43.6441 139.936 43.6476 141.057 43.4792 142.119Z" fill="#D8E3FD"/>
<path d="M42.9525 117.465H40.4105C40.9848 120.257 39.9684 122.966 39.2128 125.603C38.8708 125.666 38.975 125.582 38.8807 125.411C38.5426 124.797 37.5691 121.495 37.5691 120.856V117.465H35.1767V119.801C35.1767 120.332 35.6686 121.982 35.8553 122.583C36.4216 124.41 37.3667 126.103 38.1043 127.857L37.9859 128.504L37.4188 129.599C35.3883 125.811 32.6819 121.962 32.7839 117.465H30.2419C30.7583 122.692 34.2492 126.807 36.7613 131.178L36.2981 132.684C33.3153 127.778 28.8578 123.324 27.8495 117.465H25.457C26.6176 122.97 31.0087 127.11 34.1024 131.585C34.523 132.193 35.9147 134.104 35.9132 134.701C35.9105 135.97 35.21 137.525 35.8614 138.875L36.6731 138.867C36.3246 132.935 40.4446 128.117 42.1692 122.779C42.3881 122.102 42.9529 120.26 42.9529 119.65V117.465L42.9525 117.465Z" fill="#D8E3FD"/>
<path d="M48.1366 117.465H45.63C45.6822 122.021 42.7691 125.781 40.7711 129.678C40.3566 129.716 40.3923 128.255 39.9922 128.623C39.9336 128.677 39.3752 129.969 39.3652 130.069C39.3117 130.58 39.7026 130.968 39.6729 131.402C39.6452 131.809 39.2161 132.573 39.0635 132.82C38.9109 133.066 38.7213 132.426 38.4252 131.94C38.0589 132.721 37.9576 133.387 37.9576 133.387L38.2774 134.427C38.2774 134.427 37.9536 135.483 37.9516 136.01L37.3282 135.256C36.9787 136.597 37.0795 137.589 37.5704 138.875H38.5807C39.1651 130.843 47.5798 125.492 48.137 117.465L48.1366 117.465Z" fill="#D8E3FD"/>
<path d="M53.3227 117.465H50.7276C49.9808 123.313 45.1691 127.674 42.3348 132.625C42.3348 132.625 42.1916 132.933 42.0569 132.725C41.8863 132.462 41.7227 131.944 41.7227 131.944C41.4976 132.342 41.0459 133.086 40.9222 133.414C40.8756 133.537 41.3105 134.083 41.1958 134.655C41.1183 135.042 40.6717 135.477 40.6279 135.919L40.3449 135.261C39.4571 136.232 39.7139 137.652 39.8896 138.875H40.822C42.8914 130.697 51.35 125.672 53.3227 117.465V117.465Z" fill="#D8E3FD"/>
<path d="M43.4792 134.982C42.3211 136.008 42.419 137.519 42.3086 138.875H43.4823C43.6441 137.602 43.6476 136.256 43.4792 134.982Z" fill="#D8E3FD"/>
<path d="M42.9525 152.5H40.4105C40.9848 155.207 39.9684 157.834 39.2128 160.391C38.8708 160.452 38.975 160.37 38.8807 160.205C38.5426 159.609 37.5691 156.407 37.5691 155.788V152.5H35.1767V154.765C35.1767 155.28 35.6686 156.879 35.8553 157.463C36.4216 159.235 37.3667 160.876 38.1043 162.577L37.9859 163.204L37.4188 164.266C35.3883 160.593 32.6819 156.86 32.7839 152.5H30.2419C30.7583 157.568 34.2492 161.558 36.7613 165.797L36.2981 167.257C33.3153 162.5 28.8578 158.181 27.8495 152.5H25.457C26.6176 157.838 31.0087 161.852 34.1024 166.191C34.523 166.781 35.9147 168.634 35.9132 169.213C35.9105 170.444 35.21 171.952 35.8614 173.261L36.6731 173.253C36.3246 167.5 40.4446 162.829 42.1692 157.653C42.3881 156.996 42.9529 155.21 42.9529 154.619V152.5L42.9525 152.5Z" fill="#D8E3FD"/>
<path d="M48.1366 152.5H45.63C45.6822 156.918 42.7691 160.564 40.7711 164.342C40.3566 164.379 40.3923 162.962 39.9922 163.32C39.9336 163.372 39.3752 164.625 39.3652 164.721C39.3117 165.217 39.7026 165.594 39.6729 166.014C39.6452 166.409 39.2161 167.15 39.0635 167.389C38.9109 167.628 38.7213 167.007 38.4252 166.536C38.0589 167.294 37.9576 167.94 37.9576 167.94L38.2774 168.948C38.2774 168.948 37.9536 169.972 37.9516 170.483L37.3282 169.752C36.9787 171.052 37.0795 172.014 37.5704 173.261H38.5807C39.1651 165.473 47.5798 160.284 48.137 152.5L48.1366 152.5Z" fill="#D8E3FD"/>
<path d="M53.3227 152.5H50.7276C49.9808 158.17 45.1691 162.399 42.3348 167.2C42.3348 167.2 42.1916 167.499 42.0569 167.297C41.8863 167.042 41.7227 166.54 41.7227 166.54C41.4976 166.926 41.0459 167.647 40.9222 167.965C40.8756 168.085 41.3105 168.615 41.1958 169.168C41.1183 169.544 40.6717 169.966 40.6279 170.395L40.3449 169.756C39.4571 170.698 39.7139 172.075 39.8896 173.261H40.822C42.8914 165.33 51.35 160.458 53.3227 152.5V152.5Z" fill="#D8E3FD"/>
<path d="M43.1204 19.2129H40.5785C41.1528 16.5053 40.1364 13.8786 39.3807 11.3209C39.0387 11.26 39.143 11.3421 39.0487 11.5079C38.7105 12.1031 37.7371 15.3053 37.7371 15.9244V19.2125H35.3446V16.9474C35.3446 16.4328 35.8365 14.8331 36.0233 14.2494C36.5896 12.4778 37.5346 10.8364 38.2723 9.13526L38.1538 8.50809L37.5868 7.44647C35.5563 11.1193 32.8498 14.8519 32.9518 19.2125H30.4099C30.9263 14.1442 34.4172 10.1541 36.9292 5.91573L36.4661 4.45514C33.4832 9.21236 29.0258 13.5317 28.0174 19.2125H25.625C26.7856 13.8748 31.1767 9.86035 34.2704 5.52099C34.6909 4.93121 36.0827 3.0782 36.0812 2.49921C36.0785 1.26837 35.378 -0.239634 36.0294 -1.54834L36.8411 -1.54024C36.4926 4.2119 40.6126 8.88316 42.3371 14.0598C42.5561 14.7163 43.1208 16.5026 43.1208 17.0935V19.2125L43.1204 19.2129Z" fill="#D8E3FD"/>
<path d="M48.3045 19.8614H45.798C45.8502 15.3054 42.9371 11.5452 40.9391 7.64894C40.5245 7.61076 40.5603 9.0719 40.1602 8.70363C40.1015 8.64954 39.5432 7.35743 39.5331 7.258C39.4797 6.74656 39.8706 6.35841 39.8408 5.92452C39.8131 5.51808 39.3841 4.75331 39.2315 4.50713C39.0788 4.26096 38.8892 4.90045 38.5932 5.38684C38.2268 4.60536 38.1256 3.93922 38.1256 3.93922L38.4454 2.89924C38.4454 2.89924 38.1216 1.84336 38.1196 1.31681L37.4961 2.07044C37.1467 0.729805 37.2475 -0.262053 37.7384 -1.5482H38.7486C39.3331 6.48329 47.7478 11.8343 48.3049 19.8618L48.3045 19.8614Z" fill="#D8E3FD"/>
<path d="M53.4868 19.8614H50.8917C50.1448 14.0139 45.3331 9.65285 42.4989 4.70152C42.4989 4.70152 42.3556 4.39403 42.221 4.60168C42.0503 4.86502 41.8867 5.38255 41.8867 5.38255C41.6617 4.98435 41.21 4.24088 41.0863 3.9127C41.0397 3.78938 41.4746 3.24322 41.3599 2.67199C41.2824 2.28493 40.8358 1.84935 40.7919 1.4074L40.5089 2.06575C39.6212 1.09513 39.878 -0.325787 40.0537 -1.5482H40.9861C43.0555 6.63002 51.514 11.6549 53.4868 19.8618V19.8614Z" fill="#D8E3FD"/>
<path d="M43.6433 1.6958C42.4852 0.840772 42.583 -0.418331 42.4727 -1.54814H43.6463C43.8082 -0.48694 43.8117 0.634599 43.6433 1.6958Z" fill="#D8E3FD"/>
<path d="M43.1204 19.2129H40.5785C41.1528 16.5053 40.1364 13.8786 39.3807 11.3209C39.0387 11.26 39.143 11.3421 39.0487 11.5079C38.7105 12.1031 37.7371 15.3053 37.7371 15.9244V19.2125H35.3446V16.9474C35.3446 16.4328 35.8365 14.8331 36.0233 14.2494C36.5896 12.4778 37.5346 10.8364 38.2723 9.13526L38.1538 8.50809L37.5868 7.44647C35.5563 11.1193 32.8498 14.8519 32.9518 19.2125H30.4099C30.9263 14.1442 34.4172 10.1541 36.9292 5.91573L36.4661 4.45514C33.4832 9.21236 29.0258 13.5317 28.0174 19.2125H25.625C26.7856 13.8748 31.1767 9.86035 34.2704 5.52099C34.6909 4.93121 36.0827 3.0782 36.0812 2.49921C36.0785 1.26837 35.378 -0.239634 36.0294 -1.54834L36.8411 -1.54024C36.4926 4.2119 40.6126 8.88316 42.3371 14.0598C42.5561 14.7163 43.1208 16.5026 43.1208 17.0935V19.2125L43.1204 19.2129Z" fill="#D8E3FD"/>
<path d="M48.3045 19.8614H45.798C45.8502 15.3054 42.9371 11.5452 40.9391 7.64894C40.5245 7.61076 40.5603 9.0719 40.1602 8.70363C40.1015 8.64954 39.5432 7.35743 39.5331 7.258C39.4797 6.74656 39.8706 6.35841 39.8408 5.92452C39.8131 5.51808 39.3841 4.75331 39.2315 4.50713C39.0788 4.26096 38.8892 4.90045 38.5932 5.38684C38.2268 4.60536 38.1256 3.93922 38.1256 3.93922L38.4454 2.89924C38.4454 2.89924 38.1216 1.84336 38.1196 1.31681L37.4961 2.07044C37.1467 0.729805 37.2475 -0.262053 37.7384 -1.5482H38.7486C39.3331 6.48329 47.7478 11.8343 48.3049 19.8618L48.3045 19.8614Z" fill="#D8E3FD"/>
<path d="M53.4868 19.8614H50.8917C50.1448 14.0139 45.3331 9.65285 42.4989 4.70152C42.4989 4.70152 42.3556 4.39403 42.221 4.60168C42.0503 4.86502 41.8867 5.38255 41.8867 5.38255C41.6617 4.98435 41.21 4.24088 41.0863 3.9127C41.0397 3.78938 41.4746 3.24322 41.3599 2.67199C41.2824 2.28493 40.8358 1.84935 40.7919 1.4074L40.5089 2.06575C39.6212 1.09513 39.878 -0.325787 40.0537 -1.5482H40.9861C43.0555 6.63002 51.514 11.6549 53.4868 19.8618V19.8614Z" fill="#D8E3FD"/>
<path d="M43.6433 1.6958C42.4852 0.840772 42.583 -0.418331 42.4727 -1.54814H43.6463C43.8082 -0.48694 43.8117 0.634599 43.6433 1.6958Z" fill="#D8E3FD"/>
<path d="M43.1204 54.2476H40.5785C41.1528 51.4553 40.1364 48.7466 39.3807 46.109C39.0387 46.0462 39.143 46.1308 39.0487 46.3018C38.7105 46.9156 37.7371 50.2178 37.7371 50.8563V54.2472H35.3446V51.9113C35.3446 51.3806 35.8365 49.7309 36.0233 49.129C36.5896 47.302 37.5346 45.6093 38.2723 43.855L38.1538 43.2082L37.5868 42.1134C35.5563 45.9011 32.8498 49.7503 32.9518 54.2472H30.4099C30.9263 49.0205 34.4172 44.9057 36.9292 40.5349L36.4661 39.0286C33.4832 43.9345 29.0258 48.3888 28.0174 54.2472H25.625C26.7856 48.7426 31.1767 44.6028 34.2704 40.1278C34.6909 39.5196 36.0827 37.6087 36.0812 37.0116C36.0785 35.7423 35.378 34.1871 36.0294 32.8375L36.8411 32.8459C36.4926 38.7778 40.6126 43.595 42.3371 48.9334C42.5561 49.6104 43.1208 51.4525 43.1208 52.062V54.2472L43.1204 54.2476Z" fill="#D8E3FD"/>
<path d="M48.3045 54.2472H45.798C45.8502 49.6911 42.9371 45.9309 40.9391 42.0347C40.5245 41.9965 40.5603 43.4576 40.1602 43.0894C40.1015 43.0353 39.5432 41.7432 39.5331 41.6437C39.4797 41.1323 39.8706 40.7442 39.8408 40.3103C39.8131 39.9038 39.3841 39.139 39.2315 38.8929C39.0788 38.6467 38.8892 39.2862 38.5932 39.7726C38.2268 38.9911 38.1256 38.325 38.1256 38.325L38.4454 37.285C38.4454 37.285 38.1216 36.2291 38.1196 35.7025L37.4961 36.4562C37.1467 35.1155 37.2475 34.1237 37.7384 32.8375H38.7486C39.3331 40.869 47.7478 46.22 48.3049 54.2476L48.3045 54.2472Z" fill="#D8E3FD"/>
<path d="M53.4868 54.2472H50.8917C50.1448 48.3996 45.3331 44.0386 42.4989 39.0873C42.4989 39.0873 42.3556 38.7798 42.221 38.9874C42.0503 39.2508 41.8867 39.7683 41.8867 39.7683C41.6617 39.3701 41.21 38.6266 41.0863 38.2984C41.0397 38.1751 41.4746 37.629 41.3599 37.0577C41.2824 36.6707 40.8358 36.2351 40.7919 35.7931L40.5089 36.4515C39.6212 35.4809 39.878 34.06 40.0537 32.8375H40.9861C43.0555 41.0158 51.514 46.0407 53.4868 54.2476V54.2472Z" fill="#D8E3FD"/>
<path d="M43.6433 36.7305C42.4852 35.7044 42.583 34.1935 42.4727 32.8377H43.6463C43.8082 34.1112 43.8117 35.457 43.6433 36.7305Z" fill="#D8E3FD"/>
<path d="M43.1204 12.0762H40.5785C41.1528 14.7838 40.1364 17.4105 39.3807 19.9681C39.0387 20.029 39.143 19.9469 39.0487 19.7812C38.7105 19.186 37.7371 15.9838 37.7371 15.3647V12.0766H35.3446V14.3416C35.3446 14.8563 35.8365 16.456 36.0233 17.0396C36.5896 18.8113 37.5346 20.4527 38.2723 22.1538L38.1538 22.781L37.5868 23.8426C35.5563 20.1697 32.8498 16.4371 32.9518 12.0766H30.4099C30.9263 17.1449 34.4172 21.135 36.9292 25.3733L36.4661 26.8339C33.4832 22.0767 29.0258 17.7574 28.0174 12.0766H25.625C26.7856 17.4143 31.1767 21.4287 34.2704 25.7681C34.6909 26.3579 36.0827 28.2109 36.0812 28.7899C36.0785 30.0207 35.378 31.5287 36.0294 32.8374L36.8411 32.8293C36.4926 27.0772 40.6126 22.4059 42.3371 17.2293C42.5561 16.5728 43.1208 14.7865 43.1208 14.1955V12.0766L43.1204 12.0762Z" fill="#D8E3FD"/>
<path d="M48.3045 12.0766H45.798C45.8502 16.4945 42.9371 20.1408 40.9391 23.919C40.5245 23.956 40.5603 22.5391 40.1602 22.8962C40.1015 22.9487 39.5432 24.2016 39.5331 24.2981C39.4797 24.794 39.8706 25.1704 39.8408 25.5911C39.8131 25.9853 39.3841 26.7268 39.2315 26.9656C39.0788 27.2043 38.8892 26.5842 38.5932 26.1125C38.2268 26.8703 38.1256 27.5163 38.1256 27.5163L38.4454 28.5247C38.4454 28.5247 38.1216 29.5486 38.1196 30.0592L37.4961 29.3284C37.1467 30.6284 37.2475 31.5902 37.7384 32.8374H38.7486C39.3331 25.0493 47.7478 19.8604 48.3049 12.0762L48.3045 12.0766Z" fill="#D8E3FD"/>
<path d="M53.4868 12.0766L50.8917 12.0766C50.1448 17.7469 45.3331 21.9758 42.4989 26.7771C42.4989 26.7771 42.3556 27.0752 42.221 26.8739C42.0503 26.6185 41.8867 26.1167 41.8867 26.1167C41.6617 26.5028 41.21 27.2237 41.0863 27.542C41.0397 27.6616 41.4746 28.1912 41.3599 28.7451C41.2824 29.1204 40.8358 29.5428 40.7919 29.9714L40.5089 29.333C39.6212 30.2742 39.878 31.652 40.0537 32.8374H40.9861C43.0555 24.907 51.514 20.0343 53.4868 12.0762V12.0766Z" fill="#D8E3FD"/>
<path d="M43.6433 29.5938C42.4852 30.4488 42.583 31.7079 42.4727 32.8377H43.6463C43.8082 31.7765 43.8117 30.655 43.6433 29.5938Z" fill="#D8E3FD"/>
<path d="M183.63 60.6H183.77L187.41 52.2H190.42V62H188.39V54.16H188.25L184.89 62H182.51L179.15 54.16H179.01V62H176.98V52.2H179.99L183.63 60.6ZM194.965 58.57H199.305L197.205 53.39H197.065L194.965 58.57ZM198.745 52.2L202.735 62H200.719L199.795 59.62H194.475L193.551 62H191.535L195.525 52.2H198.745ZM208.899 52.2C209.599 52.2 210.224 52.2793 210.775 52.438C211.335 52.5873 211.806 52.8113 212.189 53.11C212.572 53.3993 212.866 53.7587 213.071 54.188C213.276 54.608 213.379 55.0887 213.379 55.63C213.379 56.1713 213.276 56.6567 213.071 57.086C212.866 57.506 212.572 57.8653 212.189 58.164C211.806 58.4533 211.335 58.6773 210.775 58.836C210.224 58.9853 209.599 59.06 208.899 59.06H205.889V62H203.859V52.2H208.899ZM205.889 53.25V58.01H208.899C209.636 58.01 210.206 57.8187 210.607 57.436C211.018 57.044 211.223 56.442 211.223 55.63C211.223 54.818 211.018 54.2207 210.607 53.838C210.206 53.446 209.636 53.25 208.899 53.25H205.889ZM221.219 57.03L224.929 62H222.619L219.399 57.66H216.949V62H214.919V52.2H216.949V56.61H219.259L222.479 52.2H224.719L221.219 57.03ZM228.078 53.25V56.47H233.188V57.52H228.078V60.95H234.588V62H226.048V52.2H234.588V53.25H228.078ZM244.738 53.25H240.958V62H238.928V53.25H235.148V52.2H244.738V53.25ZM253.909 62V54.02H253.769L248.519 62H245.859V52.2H247.889V60.18H248.029L253.279 52.2H255.939V62H253.909ZM267.704 52.2V62H265.674V57.73H259.934V62H257.904V52.2H259.934V56.68H265.674V52.2H267.704ZM271.692 53.25V62H269.662V52.2H277.782V53.25H271.692Z" fill="#D8E3FD"/>
</g>
<defs>
<clipPath id="clip0_998_2767">
<rect x="335" y="160" width="335" height="160" rx="17.8105" transform="rotate(-180 335 160)" fill="white"/>
</clipPath>
</defs>
</svg>
