<svg width="335" height="160" viewBox="0 0 335 160" fill="none" xmlns="http://www.w3.org/2000/svg">
<g clip-path="url(#clip0_998_2762)">
<rect x="335" width="160" height="335" rx="18.1667" transform="rotate(90 335 0)" fill="#D8E3FD"/>
<path d="M105.78 74.2V84H103.75V79.73H98.01V84H95.98V74.2H98.01V78.68H103.75V74.2H105.78ZM109.768 75.25V78.47H114.878V79.52H109.768V82.95H116.278V84H107.738V74.2H116.278V75.25H109.768ZM117.537 82.95C117.817 82.95 118.074 82.8193 118.307 82.558C118.55 82.2967 118.69 81.9373 118.727 81.48L119.287 74.2H127.127V82.95H128.317V86.24H126.637L126.357 84H118.797L118.517 86.24H116.837V82.95H117.537ZM120.687 81.48C120.669 81.7227 120.608 81.9373 120.505 82.124C120.403 82.3107 120.291 82.4647 120.169 82.586C120.029 82.7353 119.875 82.8567 119.707 82.95H125.097V75.25H121.177L120.687 81.48ZM129.859 74.2H134.619C135.338 74.2 135.958 74.2653 136.481 74.396C137.013 74.5173 137.452 74.6947 137.797 74.928C138.142 75.152 138.399 75.4227 138.567 75.74C138.735 76.0573 138.819 76.4073 138.819 76.79C138.819 77.2847 138.679 77.714 138.399 78.078C138.119 78.442 137.699 78.7127 137.139 78.89C137.839 79.03 138.385 79.3053 138.777 79.716C139.178 80.1173 139.379 80.6353 139.379 81.27C139.379 82.11 139.029 82.7773 138.329 83.272C137.638 83.7573 136.542 84 135.039 84H129.859V74.2ZM131.889 79.52V82.95H135.039C135.739 82.95 136.276 82.81 136.649 82.53C137.022 82.25 137.209 81.83 137.209 81.27C137.209 80.6727 137.022 80.234 136.649 79.954C136.276 79.6647 135.739 79.52 135.039 79.52H131.889ZM134.619 78.47C135.972 78.47 136.649 77.91 136.649 76.79C136.649 76.2953 136.476 75.9173 136.131 75.656C135.795 75.3853 135.291 75.25 134.619 75.25H131.889V78.47H134.619ZM149.106 84V76.02H148.966L143.716 84H141.056V74.2H143.086V82.18H143.226L148.476 74.2H151.136V84H149.106ZM159.121 74.2H161.151V78.61H163.041L165.561 74.2H167.801L165.001 79.03L168.011 84H165.701L163.111 79.66H161.151V84H159.121V79.66H157.161L154.571 84H152.261L155.271 79.03L152.471 74.2H154.711L157.231 78.61H159.121V74.2ZM177.175 84V76.02H177.035L171.785 84H169.125V74.2H171.155V82.18H171.295L176.545 74.2H179.205V84H177.175ZM187.819 82.6H187.959L191.599 74.2H194.609V84H192.579V76.16H192.439L189.079 84H186.699L183.339 76.16H183.199V84L181.169 84V74.2H184.179L187.819 82.6ZM201.884 74.9C201.408 74.9 200.96 74.984 200.54 75.152C200.129 75.32 199.77 75.5767 199.462 75.922C199.154 76.2673 198.907 76.706 198.72 77.238C198.543 77.7607 198.454 78.3813 198.454 79.1C198.454 79.8187 198.543 80.444 198.72 80.976C198.907 81.4987 199.154 81.9327 199.462 82.278C199.77 82.6233 200.129 82.88 200.54 83.048C200.96 83.216 201.408 83.3 201.884 83.3C202.36 83.3 202.803 83.216 203.214 83.048C203.634 82.88 203.998 82.6233 204.306 82.278C204.614 81.9327 204.857 81.4987 205.034 80.976C205.221 80.444 205.314 79.8187 205.314 79.1C205.314 78.3813 205.221 77.7607 205.034 77.238C204.857 76.706 204.614 76.2673 204.306 75.922C203.998 75.5767 203.634 75.32 203.214 75.152C202.803 74.984 202.36 74.9 201.884 74.9ZM201.884 73.92C202.724 73.92 203.485 74.032 204.166 74.256C204.857 74.48 205.445 74.8113 205.93 75.25C206.425 75.6887 206.807 76.23 207.078 76.874C207.349 77.518 207.484 78.26 207.484 79.1C207.484 79.94 207.349 80.682 207.078 81.326C206.807 81.97 206.425 82.5113 205.93 82.95C205.445 83.3887 204.857 83.72 204.166 83.944C203.485 84.168 202.724 84.28 201.884 84.28C201.044 84.28 200.279 84.168 199.588 83.944C198.897 83.72 198.305 83.3887 197.81 82.95C197.325 82.5113 196.947 81.97 196.676 81.326C196.415 80.682 196.284 79.94 196.284 79.1C196.284 78.26 196.415 77.518 196.676 76.874C196.947 76.23 197.325 75.6887 197.81 75.25C198.305 74.8113 198.897 74.48 199.588 74.256C200.279 74.032 201.044 73.92 201.884 73.92ZM214.769 83.23C215.404 83.23 216.011 83.1227 216.589 82.908C217.177 82.684 217.737 82.3247 218.269 81.83L218.969 82.67C218.437 83.1647 217.793 83.5567 217.037 83.846C216.281 84.1353 215.479 84.28 214.629 84.28C213.752 84.28 212.959 84.168 212.249 83.944C211.549 83.72 210.947 83.3887 210.443 82.95C209.949 82.5113 209.566 81.97 209.295 81.326C209.025 80.682 208.889 79.94 208.889 79.1C208.889 78.26 209.02 77.518 209.281 76.874C209.552 76.23 209.93 75.6887 210.415 75.25C210.91 74.8113 211.503 74.48 212.193 74.256C212.884 74.032 213.649 73.92 214.489 73.92C215.339 73.92 216.141 74.0647 216.897 74.354C217.653 74.6433 218.297 75.0353 218.829 75.53L218.129 76.37C217.597 75.8753 217.037 75.5207 216.449 75.306C215.871 75.082 215.264 74.97 214.629 74.97C214.125 74.97 213.654 75.054 213.215 75.222C212.777 75.3807 212.399 75.628 212.081 75.964C211.764 76.3 211.512 76.7293 211.325 77.252C211.148 77.7653 211.059 78.3813 211.059 79.1C211.059 79.8187 211.148 80.4393 211.325 80.962C211.512 81.4753 211.769 81.9 212.095 82.236C212.431 82.572 212.823 82.824 213.271 82.992C213.729 83.1507 214.228 83.23 214.769 83.23ZM228.98 75.25H225.2V84H223.17V75.25H219.39V74.2H228.98V75.25ZM235.281 77.84C236.718 77.84 237.801 78.12 238.529 78.68C239.257 79.2307 239.621 79.9773 239.621 80.92C239.621 81.8627 239.257 82.614 238.529 83.174C237.801 83.7247 236.718 84 235.281 84H230.101V74.2H232.131V77.84H235.281ZM232.131 78.89V82.95H235.281C235.953 82.95 236.48 82.782 236.863 82.446C237.255 82.1007 237.451 81.592 237.451 80.92C237.451 80.248 237.255 79.744 236.863 79.408C236.48 79.0627 235.953 78.89 235.281 78.89H232.131Z" fill="#3760E7"/>
<path d="M119.106 201.723C120.681 196.515 148.111 190.896 270.191 163.573C422.791 129.42 172.432 145.801 112.566 119.973C85.6173 108.347 277.883 98.6577 362.903 88" stroke="#3760E7" stroke-width="4.36"/>
<path d="M-2.89371 83.7232C-1.31927 78.5155 26.1106 72.896 148.191 45.5733C300.791 11.42 50.4319 27.801 -9.43371 1.97324C-36.3827 -9.65333 155.883 -19.3423 240.903 -30" stroke="#3760E7" stroke-width="4.36"/>
</g>
<defs>
<clipPath id="clip0_998_2762">
<rect x="335" width="160" height="335" rx="18.1667" transform="rotate(90 335 0)" fill="white"/>
</clipPath>
</defs>
</svg>
