<svg width="335" height="160" viewBox="0 0 335 160" fill="none" xmlns="http://www.w3.org/2000/svg">
<g clip-path="url(#clip0_998_2668)">
<rect x="-0.356209" y="0.356209" width="334.288" height="159.288" rx="17.4542" transform="matrix(-1 0 0 1 334.288 0)" fill="white" stroke="#3760E7" stroke-width="0.712418"/>
<path d="M87.78 56.2V66H85.75V57.25H80.01V66H77.98V56.2H87.78ZM94.7778 56.2C95.4778 56.2 96.1031 56.2793 96.6538 56.438C97.2138 56.5873 97.6851 56.8113 98.0678 57.11C98.4505 57.3993 98.7445 57.7587 98.9498 58.188C99.1551 58.608 99.2578 59.0887 99.2578 59.63C99.2578 60.1713 99.1551 60.6567 98.9498 61.086C98.7445 61.506 98.4505 61.8653 98.0678 62.164C97.6851 62.4533 97.2138 62.6773 96.6538 62.836C96.1031 62.9853 95.4778 63.06 94.7778 63.06H91.7678V66H89.7378V56.2H94.7778ZM91.7678 57.25V62.01H94.7778C95.5151 62.01 96.0845 61.8187 96.4858 61.436C96.8965 61.044 97.1018 60.442 97.1018 59.63C97.1018 58.818 96.8965 58.2207 96.4858 57.838C96.0845 57.446 95.5151 57.25 94.7778 57.25H91.7678ZM106.118 56.9C105.642 56.9 105.194 56.984 104.774 57.152C104.364 57.32 104.004 57.5767 103.696 57.922C103.388 58.2673 103.141 58.706 102.954 59.238C102.777 59.7607 102.688 60.3813 102.688 61.1C102.688 61.8187 102.777 62.444 102.954 62.976C103.141 63.4987 103.388 63.9327 103.696 64.278C104.004 64.6233 104.364 64.88 104.774 65.048C105.194 65.216 105.642 65.3 106.118 65.3C106.594 65.3 107.038 65.216 107.448 65.048C107.868 64.88 108.232 64.6233 108.54 64.278C108.848 63.9327 109.091 63.4987 109.268 62.976C109.455 62.444 109.548 61.8187 109.548 61.1C109.548 60.3813 109.455 59.7607 109.268 59.238C109.091 58.706 108.848 58.2673 108.54 57.922C108.232 57.5767 107.868 57.32 107.448 57.152C107.038 56.984 106.594 56.9 106.118 56.9ZM106.118 55.92C106.958 55.92 107.719 56.032 108.4 56.256C109.091 56.48 109.679 56.8113 110.164 57.25C110.659 57.6887 111.042 58.23 111.312 58.874C111.583 59.518 111.718 60.26 111.718 61.1C111.718 61.94 111.583 62.682 111.312 63.326C111.042 63.97 110.659 64.5113 110.164 64.95C109.679 65.3887 109.091 65.72 108.4 65.944C107.719 66.168 106.958 66.28 106.118 66.28C105.278 66.28 104.513 66.168 103.822 65.944C103.132 65.72 102.539 65.3887 102.044 64.95C101.559 64.5113 101.181 63.97 100.91 63.326C100.649 62.682 100.518 61.94 100.518 61.1C100.518 60.26 100.649 59.518 100.91 58.874C101.181 58.23 101.559 57.6887 102.044 57.25C102.539 56.8113 103.132 56.48 103.822 56.256C104.513 56.032 105.278 55.92 106.118 55.92ZM112.567 64.95C112.847 64.95 113.103 64.8193 113.337 64.558C113.579 64.2967 113.719 63.9373 113.757 63.48L114.317 56.2H122.157V64.95H123.347V68.24H121.667L121.387 66H113.827L113.547 68.24H111.867V64.95H112.567ZM115.717 63.48C115.698 63.7227 115.637 63.9373 115.535 64.124C115.432 64.3107 115.32 64.4647 115.199 64.586C115.059 64.7353 114.905 64.8567 114.737 64.95H120.127V57.25H116.207L115.717 63.48ZM127.478 62.57H131.818L129.718 57.39H129.578L127.478 62.57ZM131.258 56.2L135.248 66H133.232L132.308 63.62H126.988L126.064 66H124.048L128.038 56.2H131.258ZM142.393 56.2H144.423V60.61H146.313L148.833 56.2H151.073L148.273 61.03L151.283 66H148.973L146.383 61.66H144.423V66H142.393V61.66H140.433L137.843 66H135.533L138.543 61.03L135.743 56.2H137.983L140.503 60.61H142.393V56.2ZM160.446 66V58.02H160.306L155.056 66H152.396V56.2H154.426V64.18H154.566L159.816 56.2H162.476V66H160.446ZM86.03 83V75.02H85.89L80.64 83H77.98V73.2H80.01V81.18H80.15L85.4 73.2H88.06V83H86.03ZM103.669 74.25H99.8895V83H97.8595V74.25H94.0795V73.2H103.669V74.25ZM109.126 73.9C108.65 73.9 108.202 73.984 107.782 74.152C107.372 74.32 107.012 74.5767 106.704 74.922C106.396 75.2673 106.149 75.706 105.962 76.238C105.785 76.7607 105.696 77.3813 105.696 78.1C105.696 78.8187 105.785 79.444 105.962 79.976C106.149 80.4987 106.396 80.9327 106.704 81.278C107.012 81.6233 107.372 81.88 107.782 82.048C108.202 82.216 108.65 82.3 109.126 82.3C109.602 82.3 110.046 82.216 110.456 82.048C110.876 81.88 111.24 81.6233 111.548 81.278C111.856 80.9327 112.099 80.4987 112.276 79.976C112.463 79.444 112.556 78.8187 112.556 78.1C112.556 77.3813 112.463 76.7607 112.276 76.238C112.099 75.706 111.856 75.2673 111.548 74.922C111.24 74.5767 110.876 74.32 110.456 74.152C110.046 73.984 109.602 73.9 109.126 73.9ZM109.126 72.92C109.966 72.92 110.727 73.032 111.408 73.256C112.099 73.48 112.687 73.8113 113.172 74.25C113.667 74.6887 114.05 75.23 114.32 75.874C114.591 76.518 114.726 77.26 114.726 78.1C114.726 78.94 114.591 79.682 114.32 80.326C114.05 80.97 113.667 81.5113 113.172 81.95C112.687 82.3887 112.099 82.72 111.408 82.944C110.727 83.168 109.966 83.28 109.126 83.28C108.286 83.28 107.521 83.168 106.83 82.944C106.14 82.72 105.547 82.3887 105.052 81.95C104.567 81.5113 104.189 80.97 103.918 80.326C103.657 79.682 103.526 78.94 103.526 78.1C103.526 77.26 103.657 76.518 103.918 75.874C104.189 75.23 104.567 74.6887 105.052 74.25C105.547 73.8113 106.14 73.48 106.83 73.256C107.521 73.032 108.286 72.92 109.126 72.92ZM121.452 73.2C122.152 73.2 122.777 73.2793 123.328 73.438C123.888 73.5873 124.359 73.8113 124.742 74.11C125.124 74.3993 125.418 74.7587 125.624 75.188C125.829 75.608 125.932 76.0887 125.932 76.63C125.932 77.1713 125.829 77.6567 125.624 78.086C125.418 78.506 125.124 78.8653 124.742 79.164C124.359 79.4533 123.888 79.6773 123.328 79.836C122.777 79.9853 122.152 80.06 121.452 80.06H118.442V83H116.412V73.2H121.452ZM118.442 74.25V79.01H121.452C122.189 79.01 122.758 78.8187 123.16 78.436C123.57 78.044 123.776 77.442 123.776 76.63C123.776 75.818 123.57 75.2207 123.16 74.838C122.758 74.446 122.189 74.25 121.452 74.25H118.442ZM129.502 74.25V83H127.472V73.2H135.592V74.25H129.502ZM141.05 73.9C140.574 73.9 140.126 73.984 139.706 74.152C139.295 74.32 138.936 74.5767 138.628 74.922C138.32 75.2673 138.073 75.706 137.886 76.238C137.709 76.7607 137.62 77.3813 137.62 78.1C137.62 78.8187 137.709 79.444 137.886 79.976C138.073 80.4987 138.32 80.9327 138.628 81.278C138.936 81.6233 139.295 81.88 139.706 82.048C140.126 82.216 140.574 82.3 141.05 82.3C141.526 82.3 141.969 82.216 142.38 82.048C142.8 81.88 143.164 81.6233 143.472 81.278C143.78 80.9327 144.023 80.4987 144.2 79.976C144.387 79.444 144.48 78.8187 144.48 78.1C144.48 77.3813 144.387 76.7607 144.2 76.238C144.023 75.706 143.78 75.2673 143.472 74.922C143.164 74.5767 142.8 74.32 142.38 74.152C141.969 73.984 141.526 73.9 141.05 73.9ZM141.05 72.92C141.89 72.92 142.651 73.032 143.332 73.256C144.023 73.48 144.611 73.8113 145.096 74.25C145.591 74.6887 145.973 75.23 146.244 75.874C146.515 76.518 146.65 77.26 146.65 78.1C146.65 78.94 146.515 79.682 146.244 80.326C145.973 80.97 145.591 81.5113 145.096 81.95C144.611 82.3887 144.023 82.72 143.332 82.944C142.651 83.168 141.89 83.28 141.05 83.28C140.21 83.28 139.445 83.168 138.754 82.944C138.063 82.72 137.471 82.3887 136.976 81.95C136.491 81.5113 136.113 80.97 135.842 80.326C135.581 79.682 135.45 78.94 135.45 78.1C135.45 77.26 135.581 76.518 135.842 75.874C136.113 75.23 136.491 74.6887 136.976 74.25C137.471 73.8113 138.063 73.48 138.754 73.256C139.445 73.032 140.21 72.92 141.05 72.92ZM148.335 73.2H153.095C153.814 73.2 154.435 73.2653 154.957 73.396C155.489 73.5173 155.928 73.6947 156.273 73.928C156.619 74.152 156.875 74.4227 157.043 74.74C157.211 75.0573 157.295 75.4073 157.295 75.79C157.295 76.2847 157.155 76.714 156.875 77.078C156.595 77.442 156.175 77.7127 155.615 77.89C156.315 78.03 156.861 78.3053 157.253 78.716C157.655 79.1173 157.855 79.6353 157.855 80.27C157.855 81.11 157.505 81.7773 156.805 82.272C156.115 82.7573 155.018 83 153.515 83H148.335V73.2ZM150.365 78.52V81.95H153.515C154.215 81.95 154.752 81.81 155.125 81.53C155.499 81.25 155.685 80.83 155.685 80.27C155.685 79.6727 155.499 79.234 155.125 78.954C154.752 78.6647 154.215 78.52 153.515 78.52H150.365ZM153.095 77.47C154.449 77.47 155.125 76.91 155.125 75.79C155.125 75.2953 154.953 74.9173 154.607 74.656C154.271 74.3853 153.767 74.25 153.095 74.25H150.365V77.47H153.095ZM158.409 82.16H158.829C159.109 82.16 159.356 82.0433 159.571 81.81C159.786 81.5767 159.912 81.18 159.949 80.62L160.439 73.2H168.769V83H166.739V74.25H162.329L161.909 80.62C161.844 81.5347 161.587 82.1973 161.139 82.608C160.7 83.0093 160.094 83.21 159.319 83.21C159.076 83.21 158.862 83.1867 158.675 83.14C158.572 83.1213 158.484 83.098 158.409 83.07V82.16ZM170.31 83L172.62 79.696C171.92 79.4253 171.383 79.0333 171.01 78.52C170.637 78.0067 170.45 77.3767 170.45 76.63C170.45 76.0887 170.553 75.608 170.758 75.188C170.963 74.7587 171.257 74.3993 171.64 74.11C172.023 73.8113 172.489 73.5873 173.04 73.438C173.6 73.2793 174.23 73.2 174.93 73.2H179.97V83H177.94V80.06H174.93H174.678L172.62 83H170.31ZM174.93 74.25C174.193 74.25 173.623 74.446 173.222 74.838C172.821 75.2207 172.62 75.818 172.62 76.63C172.62 77.442 172.821 78.044 173.222 78.436C173.623 78.8187 174.193 79.01 174.93 79.01H177.94V74.25H174.93Z" fill="#3760E7"/>
<path d="M-12 42.5004C124.004 38.9095 202.213 39.5448 226.666 49.4102C278.589 70.3572 179.709 107.606 85.9133 98.6289C10.8768 91.4471 22.1608 73.5676 53.4261 60.2014" stroke="#3760E7" stroke-width="4.27451"/>
<path d="M263.714 120.721L273.358 112.77C279.609 124.817 291.643 131.582 302.472 138.902C303.96 138.063 303.308 138.078 303.15 137.156C302.58 133.845 296.304 118.677 294.377 116.333L284.14 103.884L293.217 96.4017L300.269 104.977C301.871 106.925 304.985 114.52 306.094 117.314C309.461 125.792 310.985 134.962 313.483 143.71L315.885 145.714L321.341 147.959C317.611 127.703 316.259 105.107 302.296 88.9176L311.941 80.9671C325.76 101.77 324.937 127.795 328.602 151.698L334.906 155.779C331.413 128.439 334.878 98.1451 321.018 73.4843L330.095 66.0015C342.309 89.8394 338.147 118.772 339.919 144.876C340.159 148.424 340.647 159.793 342.456 161.98C346.298 166.631 353.65 170.149 355.253 177.141L352.149 179.649C335.563 156.782 305.388 151.984 282.729 137.78C279.854 135.979 272.15 130.983 270.311 128.746L263.714 120.723L263.714 120.721Z" fill="#3760E7"/>
<path d="M246.021 137.989L255.084 130.518C268.65 147.4 290.534 152.522 309.52 160.87C311.135 159.775 306.594 154.517 309.153 154.677C309.528 154.7 315.447 157.78 315.784 158.115C317.521 159.833 317.28 162.423 318.697 163.927C320.024 165.337 323.884 166.866 325.179 167.315C326.474 167.763 325.229 164.851 324.831 162.183C328.515 163.96 330.892 166.103 330.892 166.103L332.876 170.874C332.876 170.874 337.234 173.786 338.831 175.713L338.81 171.088C344.121 174.968 346.75 178.91 348.858 185.094L345.206 188.106C318.846 160.363 272.268 165.799 246.019 137.989L246.021 137.989Z" fill="#3760E7"/>
<path d="M227.001 154.867L236.578 146.973C256.987 166.168 287.91 167.54 313.318 177.094C313.318 177.094 314.775 177.787 314.645 176.615C314.479 175.129 313.521 172.732 313.521 172.732C315.554 173.509 319.465 174.864 320.912 175.693C321.456 176.004 321.5 179.332 323.648 181.08C325.103 182.265 328.066 182.505 329.562 183.994L328.619 180.717C334.825 181.579 338.167 187.577 341.209 192.599L337.768 195.436C305.442 171.708 259.056 178.993 227 154.866L227.001 154.867Z" fill="#3760E7"/>
</g>
<defs>
<clipPath id="clip0_998_2668">
<rect width="335" height="160" rx="17.8105" fill="white"/>
</clipPath>
</defs>
</svg>
