<svg width="335" height="160" viewBox="0 0 335 160" fill="none" xmlns="http://www.w3.org/2000/svg">
<g clip-path="url(#clip0_1060_1279)">
<rect width="335" height="160" rx="18.1667" fill="#D8E3FD"/>
<path d="M191.73 84.25H187.95V93H185.92V84.25H182.14V83.2H191.73V84.25ZM202.861 83.2L197.611 93H195.441L196.981 90.13H195.861L191.871 83.2H194.181L197.471 88.94H197.611L200.691 83.2H202.861ZM209.02 83.2C209.72 83.2 210.345 83.2793 210.896 83.438C211.456 83.5873 211.927 83.8113 212.31 84.11C212.693 84.3993 212.987 84.7587 213.192 85.188C213.397 85.608 213.5 86.0887 213.5 86.63C213.5 87.1713 213.397 87.6567 213.192 88.086C212.987 88.506 212.693 88.8653 212.31 89.164C211.927 89.4533 211.456 89.6773 210.896 89.836C210.345 89.9853 209.72 90.06 209.02 90.06H206.01V93H203.98V83.2H209.02ZM206.01 84.25V89.01H209.02C209.757 89.01 210.327 88.8187 210.728 88.436C211.139 88.044 211.344 87.442 211.344 86.63C211.344 85.818 211.139 85.2207 210.728 84.838C210.327 84.446 209.757 84.25 209.02 84.25H206.01ZM223.091 93V85.02H222.951L217.701 93H215.041V83.2H217.071V91.18H217.211L222.461 83.2H225.121V93H223.091ZM231.005 83.97C230.333 83.97 229.703 84.068 229.115 84.264C228.537 84.4507 227.981 84.7727 227.449 85.23L226.819 84.39C227.351 83.9327 227.986 83.5733 228.723 83.312C229.461 83.0507 230.268 82.92 231.145 82.92C231.864 82.92 232.494 82.9853 233.035 83.116C233.577 83.2467 234.029 83.4287 234.393 83.662C234.757 83.8953 235.028 84.1707 235.205 84.488C235.392 84.8053 235.485 85.146 235.485 85.51C235.485 86.1073 235.341 86.602 235.051 86.994C234.762 87.3767 234.3 87.6753 233.665 87.89C234.365 88.0673 234.911 88.366 235.303 88.786C235.705 89.1967 235.905 89.738 235.905 90.41C235.905 90.8113 235.807 91.1893 235.611 91.544C235.425 91.8893 235.126 92.1927 234.715 92.454C234.314 92.706 233.796 92.9067 233.161 93.056C232.527 93.2053 231.761 93.28 230.865 93.28C229.951 93.28 229.106 93.1353 228.331 92.846C227.566 92.5567 226.917 92.1647 226.385 91.67L227.085 90.83C227.617 91.3247 228.182 91.684 228.779 91.908C229.377 92.1227 230.025 92.23 230.725 92.23C231.267 92.23 231.729 92.1833 232.111 92.09C232.494 91.9873 232.802 91.8473 233.035 91.67C233.278 91.4927 233.455 91.2873 233.567 91.054C233.679 90.8113 233.735 90.55 233.735 90.27C233.735 89.71 233.558 89.2807 233.203 88.982C232.849 88.674 232.303 88.52 231.565 88.52H228.625V87.47H231.285C232.639 87.47 233.315 86.8633 233.315 85.65C233.315 85.1553 233.115 84.754 232.713 84.446C232.312 84.1287 231.743 83.97 231.005 83.97ZM244.167 91.6H244.307L247.947 83.2H250.957V93H248.927V85.16H248.787L245.427 93H243.047L239.687 85.16H239.547V93H237.517V83.2H240.527L244.167 91.6ZM265.856 93V85.02H265.716L260.466 93H257.806V83.2H259.836V91.18H259.976L265.226 83.2H267.886V93H265.856ZM185.01 101.25V110H182.98V100.2H191.1V101.25H185.01ZM196.558 100.9C196.082 100.9 195.634 100.984 195.214 101.152C194.803 101.32 194.444 101.577 194.136 101.922C193.828 102.267 193.58 102.706 193.394 103.238C193.216 103.761 193.128 104.381 193.128 105.1C193.128 105.819 193.216 106.444 193.394 106.976C193.58 107.499 193.828 107.933 194.136 108.278C194.444 108.623 194.803 108.88 195.214 109.048C195.634 109.216 196.082 109.3 196.558 109.3C197.034 109.3 197.477 109.216 197.888 109.048C198.308 108.88 198.672 108.623 198.98 108.278C199.288 107.933 199.53 107.499 199.708 106.976C199.894 106.444 199.988 105.819 199.988 105.1C199.988 104.381 199.894 103.761 199.708 103.238C199.53 102.706 199.288 102.267 198.98 101.922C198.672 101.577 198.308 101.32 197.888 101.152C197.477 100.984 197.034 100.9 196.558 100.9ZM196.558 99.92C197.398 99.92 198.158 100.032 198.84 100.256C199.53 100.48 200.118 100.811 200.604 101.25C201.098 101.689 201.481 102.23 201.752 102.874C202.022 103.518 202.158 104.26 202.158 105.1C202.158 105.94 202.022 106.682 201.752 107.326C201.481 107.97 201.098 108.511 200.604 108.95C200.118 109.389 199.53 109.72 198.84 109.944C198.158 110.168 197.398 110.28 196.558 110.28C195.718 110.28 194.952 110.168 194.262 109.944C193.571 109.72 192.978 109.389 192.484 108.95C191.998 108.511 191.62 107.97 191.35 107.326C191.088 106.682 190.958 105.94 190.958 105.1C190.958 104.26 191.088 103.518 191.35 102.874C191.62 102.23 191.998 101.689 192.484 101.25C192.978 100.811 193.571 100.48 194.262 100.256C194.952 100.032 195.718 99.92 196.558 99.92ZM209.443 109.23C210.078 109.23 210.685 109.123 211.263 108.908C211.851 108.684 212.411 108.325 212.943 107.83L213.643 108.67C213.111 109.165 212.467 109.557 211.711 109.846C210.955 110.135 210.153 110.28 209.303 110.28C208.426 110.28 207.633 110.168 206.923 109.944C206.223 109.72 205.621 109.389 205.117 108.95C204.623 108.511 204.24 107.97 203.969 107.326C203.699 106.682 203.563 105.94 203.563 105.1C203.563 104.26 203.694 103.518 203.955 102.874C204.226 102.23 204.604 101.689 205.089 101.25C205.584 100.811 206.177 100.48 206.867 100.256C207.558 100.032 208.323 99.92 209.163 99.92C210.013 99.92 210.815 100.065 211.571 100.354C212.327 100.643 212.971 101.035 213.503 101.53L212.803 102.37C212.271 101.875 211.711 101.521 211.123 101.306C210.545 101.082 209.938 100.97 209.303 100.97C208.799 100.97 208.328 101.054 207.889 101.222C207.451 101.381 207.073 101.628 206.755 101.964C206.438 102.3 206.186 102.729 205.999 103.252C205.822 103.765 205.733 104.381 205.733 105.1C205.733 105.819 205.822 106.439 205.999 106.962C206.186 107.475 206.443 107.9 206.769 108.236C207.105 108.572 207.497 108.824 207.945 108.992C208.403 109.151 208.902 109.23 209.443 109.23ZM223.654 101.25H219.874V110H217.844V101.25H214.064V100.2H223.654V101.25ZM232.825 110V102.02H232.685L227.435 110H224.775V100.2H226.805V108.18H226.945L232.195 100.2H234.855V110H232.825ZM246.62 100.2V110H244.59V105.73H238.85V110H236.82V100.2H238.85V104.68H244.59V100.2H246.62ZM256.628 110V102.02H256.488L251.238 110H248.578V100.2H250.608V108.18H250.748L255.998 100.2H258.658V110H256.628ZM264.963 106.78C264.141 106.78 263.437 106.715 262.849 106.584C262.27 106.453 261.794 106.262 261.421 106.01C261.047 105.758 260.772 105.445 260.595 105.072C260.427 104.699 260.343 104.265 260.343 103.77V100.2H262.373V103.77C262.373 104.433 262.569 104.927 262.961 105.254C263.353 105.571 264.02 105.73 264.963 105.73H267.623V100.2H269.653V110H267.623V106.78H264.963ZM281.415 100.2V110H279.385V105.73H273.645V110H271.615V100.2H273.645V104.68H279.385V100.2H281.415ZM296.043 110H294.013V100.2H296.043V110ZM288.273 103.84C289.71 103.84 290.793 104.12 291.521 104.68C292.249 105.231 292.613 105.977 292.613 106.92C292.613 107.863 292.249 108.614 291.521 109.174C290.793 109.725 289.71 110 288.273 110H283.373V100.2H285.403V103.84H288.273ZM285.403 104.89V108.95H288.273C288.945 108.95 289.472 108.782 289.855 108.446C290.247 108.101 290.443 107.592 290.443 106.92C290.443 106.248 290.247 105.744 289.855 105.408C289.472 105.063 288.945 104.89 288.273 104.89H285.403ZM306.051 110V102.02H305.911L300.661 110H298.001V100.2H300.031V108.18H300.171L305.421 100.2H308.081V110H306.051ZM302.901 99.43C301.921 99.43 301.221 99.22 300.801 98.8C300.381 98.38 300.171 97.82 300.171 97.12H301.781C301.781 97.54 301.889 97.8433 302.103 98.03C302.318 98.2167 302.584 98.31 302.901 98.31C303.219 98.31 303.485 98.2167 303.699 98.03C303.914 97.8433 304.021 97.54 304.021 97.12H305.631C305.631 97.82 305.421 98.38 305.001 98.8C304.581 99.22 303.881 99.43 302.901 99.43ZM188.16 121.12C188.879 121.12 189.509 121.19 190.05 121.33C190.591 121.47 191.044 121.671 191.408 121.932C191.772 122.193 192.043 122.506 192.22 122.87C192.407 123.225 192.5 123.621 192.5 124.06C192.5 124.499 192.407 124.9 192.22 125.264C192.043 125.619 191.772 125.927 191.408 126.188C191.044 126.449 190.591 126.65 190.05 126.79C189.509 126.93 188.879 127 188.16 127H182.98V117.2H191.38V118.25H185.01V121.12H188.16ZM185.01 122.17V125.95H188.16C188.832 125.95 189.359 125.787 189.742 125.46C190.134 125.124 190.33 124.657 190.33 124.06C190.33 123.463 190.134 123.001 189.742 122.674C189.359 122.338 188.832 122.17 188.16 122.17H185.01ZM202.022 127V119.02H201.882L196.632 127H193.972V117.2H196.002V125.18H196.142L201.392 117.2H204.052V127H202.022ZM209.937 117.97C209.265 117.97 208.635 118.068 208.047 118.264C207.468 118.451 206.913 118.773 206.381 119.23L205.751 118.39C206.283 117.933 206.918 117.573 207.655 117.312C208.392 117.051 209.2 116.92 210.077 116.92C210.796 116.92 211.426 116.985 211.967 117.116C212.508 117.247 212.961 117.429 213.325 117.662C213.689 117.895 213.96 118.171 214.137 118.488C214.324 118.805 214.417 119.146 214.417 119.51C214.417 120.107 214.272 120.602 213.983 120.994C213.694 121.377 213.232 121.675 212.597 121.89C213.297 122.067 213.843 122.366 214.235 122.786C214.636 123.197 214.837 123.738 214.837 124.41C214.837 124.811 214.739 125.189 214.543 125.544C214.356 125.889 214.058 126.193 213.647 126.454C213.246 126.706 212.728 126.907 212.093 127.056C211.458 127.205 210.693 127.28 209.797 127.28C208.882 127.28 208.038 127.135 207.263 126.846C206.498 126.557 205.849 126.165 205.317 125.67L206.017 124.83C206.549 125.325 207.114 125.684 207.711 125.908C208.308 126.123 208.957 126.23 209.657 126.23C210.198 126.23 210.66 126.183 211.043 126.09C211.426 125.987 211.734 125.847 211.967 125.67C212.21 125.493 212.387 125.287 212.499 125.054C212.611 124.811 212.667 124.55 212.667 124.27C212.667 123.71 212.49 123.281 212.135 122.982C211.78 122.674 211.234 122.52 210.497 122.52H207.557V121.47H210.217C211.57 121.47 212.247 120.863 212.247 119.65C212.247 119.155 212.046 118.754 211.645 118.446C211.244 118.129 210.674 117.97 209.937 117.97ZM226.249 117.2V127H224.219V122.73H218.479V127H216.449V117.2H218.479V121.68H224.219V117.2H226.249ZM230.237 118.25V121.47H235.347V122.52H230.237V125.95H236.747V127H228.207V117.2H236.747V118.25H230.237ZM243.322 126.23C243.957 126.23 244.564 126.123 245.142 125.908C245.73 125.684 246.29 125.325 246.822 124.83L247.522 125.67C246.99 126.165 246.346 126.557 245.59 126.846C244.834 127.135 244.032 127.28 243.182 127.28C242.305 127.28 241.512 127.168 240.802 126.944C240.102 126.72 239.5 126.389 238.996 125.95C238.502 125.511 238.119 124.97 237.848 124.326C237.578 123.682 237.442 122.94 237.442 122.1C237.442 121.26 237.573 120.518 237.834 119.874C238.105 119.23 238.483 118.689 238.968 118.25C239.463 117.811 240.056 117.48 240.746 117.256C241.437 117.032 242.202 116.92 243.042 116.92C243.892 116.92 244.694 117.065 245.45 117.354C246.206 117.643 246.85 118.035 247.382 118.53L246.682 119.37C246.15 118.875 245.59 118.521 245.002 118.306C244.424 118.082 243.817 117.97 243.182 117.97C242.678 117.97 242.207 118.054 241.768 118.222C241.33 118.381 240.952 118.628 240.634 118.964C240.317 119.3 240.065 119.729 239.878 120.252C239.701 120.765 239.612 121.381 239.612 122.1C239.612 122.819 239.701 123.439 239.878 123.962C240.065 124.475 240.322 124.9 240.648 125.236C240.984 125.572 241.376 125.824 241.824 125.992C242.282 126.151 242.781 126.23 243.322 126.23Z" fill="#3760E7"/>
<path d="M0 23.9977V9.03291C45.2547 12.4141 89.1564 6.43043 131.905 1.98161C132.923 -0.0317612 131.55 0.582169 128.78 0.0269165C118.832 -1.96388 65.3114 -7.69475 54.9641 -7.69475H0.00640984V-21.7793H37.8647C46.4659 -21.7793 73.2038 -18.8834 82.9583 -17.7842C112.57 -14.4504 140.004 -8.88652 168.436 -4.54379L178.918 -5.24123L196.662 -8.57954C135.274 -20.5333 72.8881 -36.4665 0.00640984 -35.8661V-50.8309C84.7172 -47.7905 151.407 -27.2393 222.247 -12.4505L246.659 -15.1772C167.147 -32.7377 94.955 -58.9792 0.00640984 -64.9155V-79C89.2208 -72.1676 156.317 -46.3166 228.844 -28.1038C238.702 -25.6277 269.673 -17.4343 279.35 -17.4433C299.922 -17.4591 325.126 -21.5829 347 -17.748L346.865 -12.9697C250.724 -15.0214 172.65 9.23379 86.1283 19.3864C75.1561 20.6752 45.2998 24 35.4229 24H0.00640984L0 23.9977Z" fill="#3760E7"/>
<path d="M0.00645192 57.9976V43.2074C73.8475 43.5156 134.791 26.3266 197.939 14.5371C198.557 12.0911 174.876 12.302 180.845 9.94127C181.721 9.59521 202.663 6.3006 204.275 6.24134C212.564 5.9261 218.855 8.23233 225.887 8.05693C232.474 7.89339 244.869 5.36199 248.859 4.4613C252.849 3.56061 242.484 2.44186 234.601 0.695004C247.267 -1.46664 258.063 -2.06395 258.063 -2.06395L274.919 -0.177239C274.919 -0.177239 292.032 -2.08764 300.566 -2.09949L288.351 -5.77809C310.079 -7.84019 326.155 -7.24525 347 -4.34883V1.61228C216.831 5.06096 130.105 54.7125 0 58L0.00645192 57.9976Z" fill="#3760E7"/>
<path d="M0.00645347 89V73.5528C94.78 69.1074 165.46 40.4661 245.708 23.5953C245.708 23.5953 250.692 22.7426 247.327 21.9411C243.059 20.9253 234.671 19.9514 234.671 19.9514C241.124 18.6117 253.174 15.923 258.493 15.1868C260.492 14.9095 269.344 17.498 278.602 16.8154C284.875 16.354 291.935 13.6956 299.097 13.4347L288.427 11.7502C304.158 6.46598 327.188 7.99439 347 9.04051V14.5903C214.452 26.9084 133.012 77.2574 0 89H0.00645347Z" fill="#3760E7"/>
<path d="M285 27.323C301.342 21.0678 325.406 21.5961 347 21V27.3394C326.718 28.2136 305.282 28.2323 285 27.323Z" fill="#3760E7"/>
</g>
<defs>
<clipPath id="clip0_1060_1279">
<rect width="335" height="160" rx="18.1667" fill="white"/>
</clipPath>
</defs>
</svg>
