<svg width="335" height="160" viewBox="0 0 335 160" fill="none" xmlns="http://www.w3.org/2000/svg">
<g clip-path="url(#clip0_998_2870)">
<rect width="335" height="160" rx="18.1667" fill="#D8E3FD"/>
<path d="M37.99 98.2L32.74 108H30.57L32.11 105.13H30.99L27 98.2H29.31L32.6 103.94H32.74L35.82 98.2H37.99ZM43.8749 107.23C44.5096 107.23 45.1163 107.123 45.6949 106.908C46.2829 106.684 46.8429 106.325 47.3749 105.83L48.0749 106.67C47.5429 107.165 46.8989 107.557 46.1429 107.846C45.3869 108.135 44.5843 108.28 43.7349 108.28C42.8576 108.28 42.0643 108.168 41.3549 107.944C40.6549 107.72 40.0529 107.389 39.5489 106.95C39.0543 106.511 38.6716 105.97 38.4009 105.326C38.1303 104.682 37.9949 103.94 37.9949 103.1C37.9949 102.26 38.1256 101.518 38.3869 100.874C38.6576 100.23 39.0356 99.6887 39.5209 99.25C40.0156 98.8113 40.6083 98.48 41.2989 98.256C41.9896 98.032 42.7549 97.92 43.5949 97.92C44.4443 97.92 45.2469 98.0647 46.0029 98.354C46.7589 98.6433 47.4029 99.0353 47.9349 99.53L47.2349 100.37C46.7029 99.8753 46.1429 99.5207 45.5549 99.306C44.9763 99.082 44.3696 98.97 43.7349 98.97C43.2309 98.97 42.7596 99.054 42.3209 99.222C41.8823 99.3807 41.5043 99.628 41.1869 99.964C40.8696 100.3 40.6176 100.729 40.4309 101.252C40.2536 101.765 40.1649 102.381 40.1649 103.1C40.1649 103.819 40.2536 104.439 40.4309 104.962C40.6176 105.475 40.8743 105.9 41.2009 106.236C41.5369 106.572 41.9289 106.824 42.3769 106.992C42.8343 107.151 43.3336 107.23 43.8749 107.23ZM48.6355 107.16H49.0555C49.3355 107.16 49.5828 107.043 49.7975 106.81C50.0121 106.577 50.1381 106.18 50.1755 105.62L50.6655 98.2H58.9955V108H56.9655V99.25H52.5555L52.1355 105.62C52.0701 106.535 51.8135 107.197 51.3655 107.608C50.9268 108.009 50.3201 108.21 49.5455 108.21C49.3028 108.21 49.0881 108.187 48.9015 108.14C48.7988 108.121 48.7101 108.098 48.6355 108.07V107.16ZM70.9666 98.2L65.7166 108H63.5466L65.0866 105.13H63.9666L59.9766 98.2H62.2866L65.5766 103.94H65.7166L68.7966 98.2H70.9666ZM74.1155 99.25V108H72.0855V98.2H80.2055V99.25H74.1155ZM89.3777 108V100.02H89.2377L83.9877 108H81.3277V98.2H83.3577V106.18H83.4977L88.7477 98.2H91.4077V108H89.3777ZM36.03 125V117.02H35.89L30.64 125H27.98V115.2H30.01V123.18H30.15L35.4 115.2H38.06V125H36.03ZM51.2195 120.03L54.9295 125H52.6195L49.3995 120.66H46.9495V125H44.9195V115.2H46.9495V119.61H49.2595L52.4795 115.2H54.7195L51.2195 120.03ZM60.6711 115.9C60.1951 115.9 59.7471 115.984 59.3271 116.152C58.9164 116.32 58.5571 116.577 58.2491 116.922C57.9411 117.267 57.6938 117.706 57.5071 118.238C57.3298 118.761 57.2411 119.381 57.2411 120.1C57.2411 120.819 57.3298 121.444 57.5071 121.976C57.6938 122.499 57.9411 122.933 58.2491 123.278C58.5571 123.623 58.9164 123.88 59.3271 124.048C59.7471 124.216 60.1951 124.3 60.6711 124.3C61.1471 124.3 61.5904 124.216 62.0011 124.048C62.4211 123.88 62.7851 123.623 63.0931 123.278C63.4011 122.933 63.6438 122.499 63.8211 121.976C64.0078 121.444 64.1011 120.819 64.1011 120.1C64.1011 119.381 64.0078 118.761 63.8211 118.238C63.6438 117.706 63.4011 117.267 63.0931 116.922C62.7851 116.577 62.4211 116.32 62.0011 116.152C61.5904 115.984 61.1471 115.9 60.6711 115.9ZM60.6711 114.92C61.5111 114.92 62.2718 115.032 62.9531 115.256C63.6438 115.48 64.2318 115.811 64.7171 116.25C65.2118 116.689 65.5944 117.23 65.8651 117.874C66.1358 118.518 66.2711 119.26 66.2711 120.1C66.2711 120.94 66.1358 121.682 65.8651 122.326C65.5944 122.97 65.2118 123.511 64.7171 123.95C64.2318 124.389 63.6438 124.72 62.9531 124.944C62.2718 125.168 61.5111 125.28 60.6711 125.28C59.8311 125.28 59.0658 125.168 58.3751 124.944C57.6844 124.72 57.0918 124.389 56.5971 123.95C56.1118 123.511 55.7338 122.97 55.4631 122.326C55.2018 121.682 55.0711 120.94 55.0711 120.1C55.0711 119.26 55.2018 118.518 55.4631 117.874C55.7338 117.23 56.1118 116.689 56.5971 116.25C57.0918 115.811 57.6844 115.48 58.3751 115.256C59.0658 115.032 59.8311 114.92 60.6711 114.92ZM77.7566 115.2V125H75.7266V120.73H69.9866V125H67.9566V115.2H69.9866V119.68H75.7266V115.2H77.7566ZM85.3144 124.23C85.949 124.23 86.5557 124.123 87.1344 123.908C87.7224 123.684 88.2824 123.325 88.8144 122.83L89.5144 123.67C88.9824 124.165 88.3384 124.557 87.5824 124.846C86.8264 125.135 86.0237 125.28 85.1744 125.28C84.297 125.28 83.5037 125.168 82.7944 124.944C82.0944 124.72 81.4924 124.389 80.9884 123.95C80.4937 123.511 80.111 122.97 79.8404 122.326C79.5697 121.682 79.4344 120.94 79.4344 120.1C79.4344 119.26 79.565 118.518 79.8264 117.874C80.097 117.23 80.475 116.689 80.9604 116.25C81.455 115.811 82.0477 115.48 82.7384 115.256C83.429 115.032 84.1944 114.92 85.0344 114.92C85.8837 114.92 86.6864 115.065 87.4424 115.354C88.1984 115.643 88.8424 116.035 89.3744 116.53L88.6744 117.37C88.1424 116.875 87.5824 116.521 86.9944 116.306C86.4157 116.082 85.809 115.97 85.1744 115.97C84.6704 115.97 84.199 116.054 83.7604 116.222C83.3217 116.381 82.9437 116.628 82.6264 116.964C82.309 117.3 82.057 117.729 81.8704 118.252C81.693 118.765 81.6044 119.381 81.6044 120.1C81.6044 120.819 81.693 121.439 81.8704 121.962C82.057 122.475 82.3137 122.9 82.6404 123.236C82.9764 123.572 83.3684 123.824 83.8164 123.992C84.2737 124.151 84.773 124.23 85.3144 124.23ZM93.3649 121.57H97.7049L95.6049 116.39H95.4649L93.3649 121.57ZM97.1449 115.2L101.135 125H99.1189L98.1949 122.62H92.8749L91.9509 125H89.9349L93.9249 115.2H97.1449ZM101.559 124.16H101.979C102.259 124.16 102.507 124.043 102.721 123.81C102.936 123.577 103.062 123.18 103.099 122.62L103.589 115.2H111.919V125H109.889V116.25H105.479L105.059 122.62C104.994 123.535 104.737 124.197 104.289 124.608C103.851 125.009 103.244 125.21 102.469 125.21C102.227 125.21 102.012 125.187 101.825 125.14C101.723 125.121 101.634 125.098 101.559 125.07V124.16ZM122.63 116.25H118.85V125H116.82V116.25H113.04V115.2H122.63V116.25ZM131.801 125V117.02H131.661L126.411 125H123.751V115.2H125.781V123.18H125.921L131.171 115.2H133.831V125H131.801ZM145.596 115.2V125H143.566V120.73H137.826V125H135.796V115.2H137.826V119.68H143.566V115.2H145.596ZM149.584 116.25V125H147.554V115.2H155.674V116.25H149.584Z" fill="#3760E7"/>
<path d="M-3 107.592C19.6464 92.1385 95.4992 53.7376 86.3036 20.7904C79.0396 -5.2358 36.738 -21.5022 25.6285 -10.5225C5.07099 9.79501 146.734 40.6463 209.685 93.487C258.791 134.706 319.534 199.229 318.524 215.565C314.969 273.071 221.967 73.8012 335 81.3279" stroke="#3760E7" stroke-width="4.36"/>
</g>
<defs>
<clipPath id="clip0_998_2870">
<rect width="335" height="160" rx="18.1667" fill="white"/>
</clipPath>
</defs>
</svg>
