<svg width="335" height="160" viewBox="0 0 335 160" fill="none" xmlns="http://www.w3.org/2000/svg">
<g clip-path="url(#clip0_998_2873)">
<rect width="335" height="160" rx="17.8105" transform="matrix(-1 0 0 1 335 0)" fill="#3760E7"/>
<path d="M-59.2069 9C-71.646 25.287 -60.5302 54.8651 83.4458 42.8817C227.422 30.8983 48.334 91.6238 -59.2069 123.484" stroke="#D8E3FD" stroke-width="4.27451"/>
<path d="M82.03 136V128.02H81.89L76.64 136H73.98V126.2H76.01V134.18H76.15L81.4 126.2H84.06V136H82.03ZM96.5195 135.23C97.1541 135.23 97.7608 135.123 98.3395 134.908C98.9275 134.684 99.4875 134.325 100.019 133.83L100.719 134.67C100.187 135.165 99.5435 135.557 98.7875 135.846C98.0315 136.135 97.2288 136.28 96.3795 136.28C95.5021 136.28 94.7088 136.168 93.9995 135.944C93.2995 135.72 92.6975 135.389 92.1935 134.95C91.6988 134.511 91.3161 133.97 91.0455 133.326C90.7748 132.682 90.6395 131.94 90.6395 131.1C90.6395 130.26 90.7701 129.518 91.0315 128.874C91.3021 128.23 91.6801 127.689 92.1655 127.25C92.6601 126.811 93.2528 126.48 93.9435 126.256C94.6341 126.032 95.3995 125.92 96.2395 125.92C97.0888 125.92 97.8915 126.065 98.6475 126.354C99.4035 126.643 100.047 127.035 100.579 127.53L99.8795 128.37C99.3475 127.875 98.7875 127.521 98.1995 127.306C97.6208 127.082 97.0141 126.97 96.3795 126.97C95.8755 126.97 95.4041 127.054 94.9655 127.222C94.5268 127.381 94.1488 127.628 93.8315 127.964C93.5141 128.3 93.2621 128.729 93.0755 129.252C92.8981 129.765 92.8095 130.381 92.8095 131.1C92.8095 131.819 92.8981 132.439 93.0755 132.962C93.2621 133.475 93.5188 133.9 93.8455 134.236C94.1815 134.572 94.5735 134.824 95.0215 134.992C95.4788 135.151 95.9781 135.23 96.5195 135.23ZM110.73 127.25H106.95V136H104.92V127.25H101.14V126.2H110.73V127.25ZM116.891 126.2C117.591 126.2 118.216 126.279 118.767 126.438C119.327 126.587 119.798 126.811 120.181 127.11C120.564 127.399 120.858 127.759 121.063 128.188C121.268 128.608 121.371 129.089 121.371 129.63C121.371 130.171 121.268 130.657 121.063 131.086C120.858 131.506 120.564 131.865 120.181 132.164C119.798 132.453 119.327 132.677 118.767 132.836C118.216 132.985 117.591 133.06 116.891 133.06H113.881V136H111.851V126.2H116.891ZM113.881 127.25V132.01H116.891C117.628 132.01 118.198 131.819 118.599 131.436C119.01 131.044 119.215 130.442 119.215 129.63C119.215 128.818 119.01 128.221 118.599 127.838C118.198 127.446 117.628 127.25 116.891 127.25H113.881ZM124.517 132.57H128.857L126.757 127.39H126.617L124.517 132.57ZM128.297 126.2L132.287 136H130.271L129.347 133.62H124.027L123.103 136H121.087L125.077 126.2H128.297ZM138.97 130.974L143.142 136H140.762L137.78 132.416L134.812 136H132.432L136.59 130.974L132.642 126.2H135.022L137.78 129.546L140.552 126.2H142.932L138.97 130.974ZM148.739 126.9C148.263 126.9 147.815 126.984 147.395 127.152C146.985 127.32 146.625 127.577 146.317 127.922C146.009 128.267 145.762 128.706 145.575 129.238C145.398 129.761 145.309 130.381 145.309 131.1C145.309 131.819 145.398 132.444 145.575 132.976C145.762 133.499 146.009 133.933 146.317 134.278C146.625 134.623 146.985 134.88 147.395 135.048C147.815 135.216 148.263 135.3 148.739 135.3C149.215 135.3 149.659 135.216 150.069 135.048C150.489 134.88 150.853 134.623 151.161 134.278C151.469 133.933 151.712 133.499 151.889 132.976C152.076 132.444 152.169 131.819 152.169 131.1C152.169 130.381 152.076 129.761 151.889 129.238C151.712 128.706 151.469 128.267 151.161 127.922C150.853 127.577 150.489 127.32 150.069 127.152C149.659 126.984 149.215 126.9 148.739 126.9ZM148.739 125.92C149.579 125.92 150.34 126.032 151.021 126.256C151.712 126.48 152.3 126.811 152.785 127.25C153.28 127.689 153.663 128.23 153.933 128.874C154.204 129.518 154.339 130.26 154.339 131.1C154.339 131.94 154.204 132.682 153.933 133.326C153.663 133.97 153.28 134.511 152.785 134.95C152.3 135.389 151.712 135.72 151.021 135.944C150.34 136.168 149.579 136.28 148.739 136.28C147.899 136.28 147.134 136.168 146.443 135.944C145.753 135.72 145.16 135.389 144.665 134.95C144.18 134.511 143.802 133.97 143.531 133.326C143.27 132.682 143.139 131.94 143.139 131.1C143.139 130.26 143.27 129.518 143.531 128.874C143.802 128.23 144.18 127.689 144.665 127.25C145.16 126.811 145.753 126.48 146.443 126.256C147.134 126.032 147.899 125.92 148.739 125.92ZM156.025 126.2H160.785C161.504 126.2 162.124 126.265 162.647 126.396C163.179 126.517 163.618 126.695 163.963 126.928C164.308 127.152 164.565 127.423 164.733 127.74C164.901 128.057 164.985 128.407 164.985 128.79C164.985 129.285 164.845 129.714 164.565 130.078C164.285 130.442 163.865 130.713 163.305 130.89C164.005 131.03 164.551 131.305 164.943 131.716C165.344 132.117 165.545 132.635 165.545 133.27C165.545 134.11 165.195 134.777 164.495 135.272C163.804 135.757 162.708 136 161.205 136H156.025V126.2ZM158.055 131.52V134.95H161.205C161.905 134.95 162.442 134.81 162.815 134.53C163.188 134.25 163.375 133.83 163.375 133.27C163.375 132.673 163.188 132.234 162.815 131.954C162.442 131.665 161.905 131.52 161.205 131.52H158.055ZM160.785 130.47C162.138 130.47 162.815 129.91 162.815 128.79C162.815 128.295 162.642 127.917 162.297 127.656C161.961 127.385 161.457 127.25 160.785 127.25H158.055V130.47H160.785ZM179.892 136H177.862V126.2H179.892V136ZM172.122 129.84C173.56 129.84 174.642 130.12 175.37 130.68C176.098 131.231 176.462 131.977 176.462 132.92C176.462 133.863 176.098 134.614 175.37 135.174C174.642 135.725 173.56 136 172.122 136H167.222V126.2H169.252V129.84H172.122ZM169.252 130.89V134.95H172.122C172.794 134.95 173.322 134.782 173.704 134.446C174.096 134.101 174.292 133.592 174.292 132.92C174.292 132.248 174.096 131.744 173.704 131.408C173.322 131.063 172.794 130.89 172.122 130.89H169.252ZM183.881 127.25V130.47H188.991V131.52H183.881V134.95H190.391V136H181.851V126.2H190.391V127.25H183.881ZM206.695 126.2L201.445 136H199.275L200.815 133.13H199.695L195.705 126.2H198.015L201.305 131.94H201.445L204.525 126.2H206.695ZM212.58 135.23C213.215 135.23 213.821 135.123 214.4 134.908C214.988 134.684 215.548 134.325 216.08 133.83L216.78 134.67C216.248 135.165 215.604 135.557 214.848 135.846C214.092 136.135 213.289 136.28 212.44 136.28C211.563 136.28 210.769 136.168 210.06 135.944C209.36 135.72 208.758 135.389 208.254 134.95C207.759 134.511 207.377 133.97 207.106 133.326C206.835 132.682 206.7 131.94 206.7 131.1C206.7 130.26 206.831 129.518 207.092 128.874C207.363 128.23 207.741 127.689 208.226 127.25C208.721 126.811 209.313 126.48 210.004 126.256C210.695 126.032 211.46 125.92 212.3 125.92C213.149 125.92 213.952 126.065 214.708 126.354C215.464 126.643 216.108 127.035 216.64 127.53L215.94 128.37C215.408 127.875 214.848 127.521 214.26 127.306C213.681 127.082 213.075 126.97 212.44 126.97C211.936 126.97 211.465 127.054 211.026 127.222C210.587 127.381 210.209 127.628 209.892 127.964C209.575 128.3 209.323 128.729 209.136 129.252C208.959 129.765 208.87 130.381 208.87 131.1C208.87 131.819 208.959 132.439 209.136 132.962C209.323 133.475 209.579 133.9 209.906 134.236C210.242 134.572 210.634 134.824 211.082 134.992C211.539 135.151 212.039 135.23 212.58 135.23ZM217.341 135.16H217.761C218.041 135.16 218.288 135.043 218.503 134.81C218.717 134.577 218.843 134.18 218.881 133.62L219.371 126.2H227.701V136H225.671V127.25H221.261L220.841 133.62C220.775 134.535 220.519 135.197 220.071 135.608C219.632 136.009 219.025 136.21 218.251 136.21C218.008 136.21 217.793 136.187 217.607 136.14C217.504 136.121 217.415 136.098 217.341 136.07V135.16ZM239.672 126.2L234.422 136H232.252L233.792 133.13H232.672L228.682 126.2H230.992L234.282 131.94H234.422L237.502 126.2H239.672ZM242.821 127.25V136H240.791V126.2H248.911V127.25H242.821ZM258.083 136V128.02H257.943L252.693 136H250.033V126.2H252.063V134.18H252.203L257.453 126.2H260.113V136H258.083Z" fill="#D8E3FD"/>
<path d="M144.98 108.56H142.95V107.44H142.53C141.774 107.44 141.088 107.347 140.472 107.16C139.865 106.964 139.343 106.684 138.904 106.32C138.475 105.956 138.143 105.503 137.91 104.962C137.677 104.421 137.56 103.8 137.56 103.1C137.56 102.4 137.677 101.779 137.91 101.238C138.143 100.697 138.475 100.244 138.904 99.88C139.343 99.516 139.865 99.2407 140.472 99.054C141.088 98.858 141.774 98.76 142.53 98.76H142.95V97.64H144.98V98.76H145.4C146.156 98.76 146.837 98.858 147.444 99.054C148.06 99.2407 148.583 99.516 149.012 99.88C149.451 100.244 149.787 100.697 150.02 101.238C150.253 101.779 150.37 102.4 150.37 103.1C150.37 103.8 150.253 104.421 150.02 104.962C149.787 105.503 149.451 105.956 149.012 106.32C148.583 106.684 148.06 106.964 147.444 107.16C146.837 107.347 146.156 107.44 145.4 107.44H144.98V108.56ZM144.98 106.39H145.4C145.783 106.39 146.142 106.329 146.478 106.208C146.823 106.087 147.122 105.895 147.374 105.634C147.626 105.373 147.827 105.037 147.976 104.626C148.125 104.206 148.2 103.697 148.2 103.1C148.2 102.503 148.125 101.999 147.976 101.588C147.827 101.168 147.626 100.827 147.374 100.566C147.122 100.305 146.823 100.113 146.478 99.992C146.142 99.8707 145.783 99.81 145.4 99.81H144.98V106.39ZM142.95 99.81H142.53C142.147 99.81 141.783 99.8707 141.438 99.992C141.102 100.113 140.808 100.305 140.556 100.566C140.304 100.827 140.103 101.168 139.954 101.588C139.805 101.999 139.73 102.503 139.73 103.1C139.73 103.697 139.805 104.206 139.954 104.626C140.103 105.037 140.304 105.373 140.556 105.634C140.808 105.895 141.102 106.087 141.438 106.208C141.783 106.329 142.147 106.39 142.53 106.39H142.95V99.81ZM159.962 108V100.02H159.822L154.572 108H151.912V98.2H153.942V106.18H154.082L159.332 98.2H161.992V108H159.962ZM173.757 98.2V108H171.727V103.73H165.987V108H163.957V98.2H165.987V102.68H171.727V98.2H173.757ZM178.304 104.57H182.644L180.544 99.39H180.404L178.304 104.57ZM182.084 98.2L186.074 108H184.058L183.134 105.62H177.814L176.89 108H174.874L178.864 98.2H182.084ZM196.999 98.2V108H194.969V103.73H189.229V108H187.199V98.2H189.229V102.68H194.969V98.2H196.999ZM204.557 107.23C205.191 107.23 205.798 107.123 206.377 106.908C206.965 106.684 207.525 106.325 208.057 105.83L208.757 106.67C208.225 107.165 207.581 107.557 206.825 107.846C206.069 108.135 205.266 108.28 204.417 108.28C203.539 108.28 202.746 108.168 202.037 107.944C201.337 107.72 200.735 107.389 200.231 106.95C199.736 106.511 199.353 105.97 199.083 105.326C198.812 104.682 198.677 103.94 198.677 103.1C198.677 102.26 198.807 101.518 199.069 100.874C199.339 100.23 199.717 99.6887 200.203 99.25C200.697 98.8113 201.29 98.48 201.981 98.256C202.671 98.032 203.437 97.92 204.277 97.92C205.126 97.92 205.929 98.0647 206.685 98.354C207.441 98.6433 208.085 99.0353 208.617 99.53L207.917 100.37C207.385 99.8753 206.825 99.5207 206.237 99.306C205.658 99.082 205.051 98.97 204.417 98.97C203.913 98.97 203.441 99.054 203.003 99.222C202.564 99.3807 202.186 99.628 201.869 99.964C201.551 100.3 201.299 100.729 201.113 101.252C200.935 101.765 200.847 102.381 200.847 103.1C200.847 103.819 200.935 104.439 201.113 104.962C201.299 105.475 201.556 105.9 201.883 106.236C202.219 106.572 202.611 106.824 203.059 106.992C203.516 107.151 204.015 107.23 204.557 107.23ZM214.913 98.9C214.437 98.9 213.989 98.984 213.569 99.152C213.159 99.32 212.799 99.5767 212.491 99.922C212.183 100.267 211.936 100.706 211.749 101.238C211.572 101.761 211.483 102.381 211.483 103.1C211.483 103.819 211.572 104.444 211.749 104.976C211.936 105.499 212.183 105.933 212.491 106.278C212.799 106.623 213.159 106.88 213.569 107.048C213.989 107.216 214.437 107.3 214.913 107.3C215.389 107.3 215.833 107.216 216.243 107.048C216.663 106.88 217.027 106.623 217.335 106.278C217.643 105.933 217.886 105.499 218.063 104.976C218.25 104.444 218.343 103.819 218.343 103.1C218.343 102.381 218.25 101.761 218.063 101.238C217.886 100.706 217.643 100.267 217.335 99.922C217.027 99.5767 216.663 99.32 216.243 99.152C215.833 98.984 215.389 98.9 214.913 98.9ZM214.913 97.92C215.753 97.92 216.514 98.032 217.195 98.256C217.886 98.48 218.474 98.8113 218.959 99.25C219.454 99.6887 219.837 100.23 220.107 100.874C220.378 101.518 220.513 102.26 220.513 103.1C220.513 103.94 220.378 104.682 220.107 105.326C219.837 105.97 219.454 106.511 218.959 106.95C218.474 107.389 217.886 107.72 217.195 107.944C216.514 108.168 215.753 108.28 214.913 108.28C214.073 108.28 213.308 108.168 212.617 107.944C211.927 107.72 211.334 107.389 210.839 106.95C210.354 106.511 209.976 105.97 209.705 105.326C209.444 104.682 209.313 103.94 209.313 103.1C209.313 102.26 209.444 101.518 209.705 100.874C209.976 100.23 210.354 99.6887 210.839 99.25C211.334 98.8113 211.927 98.48 212.617 98.256C213.308 98.032 214.073 97.92 214.913 97.92ZM222.199 98.2H226.959C227.677 98.2 228.298 98.2653 228.821 98.396C229.353 98.5173 229.791 98.6947 230.137 98.928C230.482 99.152 230.739 99.4227 230.907 99.74C231.075 100.057 231.159 100.407 231.159 100.79C231.159 101.285 231.019 101.714 230.739 102.078C230.459 102.442 230.039 102.713 229.479 102.89C230.179 103.03 230.725 103.305 231.117 103.716C231.518 104.117 231.719 104.635 231.719 105.27C231.719 106.11 231.369 106.777 230.669 107.272C229.978 107.757 228.881 108 227.379 108H222.199V98.2ZM224.229 103.52V106.95H227.379C228.079 106.95 228.615 106.81 228.989 106.53C229.362 106.25 229.549 105.83 229.549 105.27C229.549 104.673 229.362 104.234 228.989 103.954C228.615 103.665 228.079 103.52 227.379 103.52H224.229ZM226.959 102.47C228.312 102.47 228.989 101.91 228.989 100.79C228.989 100.295 228.816 99.9173 228.471 99.656C228.135 99.3853 227.631 99.25 226.959 99.25H224.229V102.47H226.959ZM246.066 108H244.036V98.2H246.066V108ZM238.296 101.84C239.733 101.84 240.816 102.12 241.544 102.68C242.272 103.231 242.636 103.977 242.636 104.92C242.636 105.863 242.272 106.614 241.544 107.174C240.816 107.725 239.733 108 238.296 108H233.396V98.2H235.426V101.84H238.296ZM235.426 102.89V106.95H238.296C238.968 106.95 239.495 106.782 239.878 106.446C240.27 106.101 240.466 105.592 240.466 104.92C240.466 104.248 240.27 103.744 239.878 103.408C239.495 103.063 238.968 102.89 238.296 102.89H235.426ZM250.055 99.25V102.47H255.165V103.52H250.055V106.95H256.565V108H248.025V98.2H256.565V99.25H250.055Z" fill="#D8E3FD"/>
<path d="M298.503 126.15H295.961C296.536 123.442 295.519 120.816 294.764 118.258C294.422 118.197 294.526 118.279 294.432 118.445C294.093 119.04 293.12 122.242 293.12 122.861V126.15H290.727V123.884C290.727 123.37 291.219 121.77 291.406 121.186C291.972 119.415 292.917 117.773 293.655 116.072L293.537 115.445L292.97 114.383C290.939 118.056 288.233 121.789 288.335 126.15H285.793C286.309 121.081 289.8 117.091 292.312 112.853L291.849 111.392C288.866 116.149 284.409 120.469 283.4 126.15H281.008C282.168 120.812 286.559 116.797 289.653 112.458C290.074 111.868 291.466 110.015 291.464 109.436C291.461 108.205 290.761 106.697 291.412 105.389L292.224 105.397C291.875 111.149 295.995 115.82 297.72 120.997C297.939 121.653 298.504 123.44 298.504 124.031V126.15L298.503 126.15Z" fill="#D8E3FD"/>
<path d="M303.687 126.798H301.181C301.233 122.242 298.32 118.482 296.322 114.586C295.907 114.548 295.943 116.009 295.543 115.641C295.484 115.587 294.926 114.294 294.916 114.195C294.863 113.684 295.253 113.295 295.224 112.862C295.196 112.455 294.767 111.69 294.614 111.444C294.462 111.198 294.272 111.837 293.976 112.324C293.61 111.542 293.508 110.876 293.508 110.876L293.828 109.836C293.828 109.836 293.504 108.78 293.502 108.254L292.879 109.007C292.529 107.667 292.63 106.675 293.121 105.389H294.131C294.716 113.42 303.131 118.771 303.688 126.799L303.687 126.798Z" fill="#D8E3FD"/>
<path d="M308.873 126.798H306.278C305.532 120.951 300.72 116.59 297.886 111.639C297.886 111.639 297.742 111.331 297.608 111.539C297.437 111.802 297.273 112.32 297.273 112.32C297.048 111.921 296.597 111.178 296.473 110.85C296.426 110.726 296.861 110.18 296.747 109.609C296.669 109.222 296.222 108.786 296.179 108.344L295.896 109.003C295.008 108.032 295.265 106.611 295.44 105.389H296.373C298.442 113.567 306.901 118.592 308.873 126.799V126.798Z" fill="#D8E3FD"/>
<path d="M298.967 108.633C297.23 107.778 297.376 106.519 297.211 105.389H298.971C299.214 106.45 299.219 107.572 298.967 108.633Z" fill="#D8E3FD"/>
<path d="M298.503 84.6274H295.961C296.536 87.3351 295.519 89.9617 294.764 92.5194C294.422 92.5803 294.526 92.4982 294.432 92.3324C294.093 91.7373 293.12 88.5351 293.12 87.916V84.6278H290.727V86.8929C290.727 87.4075 291.219 89.0073 291.406 89.5909C291.972 91.3626 292.917 93.0039 293.655 94.7051L293.537 95.3322L292.97 96.3939C290.939 92.721 288.233 88.9884 288.335 84.6278H285.793C286.309 89.6961 289.8 93.6862 292.312 97.9246L291.849 99.3852C288.866 94.628 284.409 90.3087 283.4 84.6278H281.008C282.168 89.9656 286.559 93.98 289.653 98.3193C290.074 98.9091 291.466 100.762 291.464 101.341C291.461 102.572 290.761 104.08 291.412 105.389L292.224 105.381C291.875 99.6284 295.995 94.9572 297.72 89.7806C297.939 89.1241 298.504 87.3378 298.504 86.7468V84.6278L298.503 84.6274Z" fill="#D8E3FD"/>
<path d="M303.687 84.6278H301.181C301.233 89.0458 298.32 92.6921 296.322 96.4702C295.907 96.5073 295.943 95.0904 295.543 95.4475C295.484 95.4999 294.926 96.7529 294.916 96.8493C294.863 97.3453 295.253 97.7217 295.224 98.1424C295.196 98.5365 294.767 99.2781 294.614 99.5168C294.462 99.7555 294.272 99.1354 293.976 98.6638C293.61 99.4216 293.508 100.068 293.508 100.068L293.828 101.076C293.828 101.076 293.504 102.1 293.502 102.61L292.879 101.88C292.529 103.18 292.63 104.141 293.121 105.389H294.131C294.716 97.6006 303.131 92.4117 303.688 84.6274L303.687 84.6278Z" fill="#D8E3FD"/>
<path d="M308.873 84.6278H306.278C305.532 90.2982 300.72 94.527 297.886 99.3283C297.886 99.3283 297.742 99.6265 297.608 99.4251C297.437 99.1698 297.273 98.6679 297.273 98.6679C297.048 99.0541 296.597 99.775 296.473 100.093C296.426 100.213 296.861 100.742 296.747 101.296C296.669 101.672 296.222 102.094 296.179 102.523L295.896 101.884C295.008 102.825 295.265 104.203 295.44 105.389H296.373C298.442 97.4583 306.901 92.5856 308.873 84.6274V84.6278Z" fill="#D8E3FD"/>
<path d="M298.967 101.496C297.23 102.522 297.376 104.033 297.211 105.389H298.971C299.214 104.115 299.219 102.77 298.967 101.496Z" fill="#D8E3FD"/>
<path d="M298.503 126.15H295.961C296.536 123.442 295.519 120.816 294.764 118.258C294.422 118.197 294.526 118.279 294.432 118.445C294.093 119.04 293.12 122.242 293.12 122.861V126.15H290.727V123.884C290.727 123.37 291.219 121.77 291.406 121.186C291.972 119.415 292.917 117.773 293.655 116.072L293.537 115.445L292.97 114.383C290.939 118.056 288.233 121.789 288.335 126.15H285.793C286.309 121.081 289.8 117.091 292.312 112.853L291.849 111.392C288.866 116.149 284.409 120.469 283.4 126.15H281.008C282.168 120.812 286.559 116.797 289.653 112.458C290.074 111.868 291.466 110.015 291.464 109.436C291.461 108.205 290.761 106.697 291.412 105.389L292.224 105.397C291.875 111.149 295.995 115.82 297.72 120.997C297.939 121.653 298.504 123.44 298.504 124.031V126.15L298.503 126.15Z" fill="#D8E3FD"/>
<path d="M303.687 126.798H301.181C301.233 122.242 298.32 118.482 296.322 114.586C295.907 114.548 295.943 116.009 295.543 115.641C295.484 115.587 294.926 114.294 294.916 114.195C294.863 113.684 295.253 113.295 295.224 112.862C295.196 112.455 294.767 111.69 294.614 111.444C294.462 111.198 294.272 111.837 293.976 112.324C293.61 111.542 293.508 110.876 293.508 110.876L293.828 109.836C293.828 109.836 293.504 108.78 293.502 108.254L292.879 109.007C292.529 107.667 292.63 106.675 293.121 105.389H294.131C294.716 113.42 303.131 118.771 303.688 126.799L303.687 126.798Z" fill="#D8E3FD"/>
<path d="M308.873 126.798H306.278C305.532 120.951 300.72 116.59 297.886 111.639C297.886 111.639 297.742 111.331 297.608 111.539C297.437 111.802 297.273 112.32 297.273 112.32C297.048 111.921 296.597 111.178 296.473 110.85C296.426 110.726 296.861 110.18 296.747 109.609C296.669 109.222 296.222 108.786 296.179 108.344L295.896 109.003C295.008 108.032 295.265 106.611 295.44 105.389H296.373C298.442 113.567 306.901 118.592 308.873 126.799V126.798Z" fill="#D8E3FD"/>
<path d="M298.967 108.633C297.23 107.778 297.376 106.519 297.211 105.389H298.971C299.214 106.45 299.219 107.572 298.967 108.633Z" fill="#D8E3FD"/>
<path d="M298.503 84.6274H295.961C296.536 87.3351 295.519 89.9617 294.764 92.5194C294.422 92.5803 294.526 92.4982 294.432 92.3324C294.093 91.7373 293.12 88.5351 293.12 87.916V84.6278H290.727V86.8929C290.727 87.4075 291.219 89.0073 291.406 89.5909C291.972 91.3626 292.917 93.0039 293.655 94.7051L293.537 95.3322L292.97 96.3939C290.939 92.721 288.233 88.9884 288.335 84.6278H285.793C286.309 89.6961 289.8 93.6862 292.312 97.9246L291.849 99.3852C288.866 94.628 284.409 90.3087 283.4 84.6278H281.008C282.168 89.9656 286.559 93.98 289.653 98.3193C290.074 98.9091 291.466 100.762 291.464 101.341C291.461 102.572 290.761 104.08 291.412 105.389L292.224 105.381C291.875 99.6284 295.995 94.9572 297.72 89.7806C297.939 89.1241 298.504 87.3378 298.504 86.7468V84.6278L298.503 84.6274Z" fill="#D8E3FD"/>
<path d="M303.687 84.6278H301.181C301.233 89.0458 298.32 92.6921 296.322 96.4702C295.907 96.5073 295.943 95.0904 295.543 95.4475C295.484 95.4999 294.926 96.7529 294.916 96.8493C294.863 97.3453 295.253 97.7217 295.224 98.1424C295.196 98.5365 294.767 99.2781 294.614 99.5168C294.462 99.7555 294.272 99.1354 293.976 98.6638C293.61 99.4216 293.508 100.068 293.508 100.068L293.828 101.076C293.828 101.076 293.504 102.1 293.502 102.61L292.879 101.88C292.529 103.18 292.63 104.141 293.121 105.389H294.131C294.716 97.6006 303.131 92.4117 303.688 84.6274L303.687 84.6278Z" fill="#D8E3FD"/>
<path d="M308.873 84.6278H306.278C305.532 90.2982 300.72 94.527 297.886 99.3283C297.886 99.3283 297.742 99.6265 297.608 99.4251C297.437 99.1698 297.273 98.6679 297.273 98.6679C297.048 99.0541 296.597 99.775 296.473 100.093C296.426 100.213 296.861 100.742 296.747 101.296C296.669 101.672 296.222 102.094 296.179 102.523L295.896 101.884C295.008 102.825 295.265 104.203 295.44 105.389H296.373C298.442 97.4583 306.901 92.5856 308.873 84.6274V84.6278Z" fill="#D8E3FD"/>
<path d="M298.967 101.496C297.23 102.522 297.376 104.033 297.211 105.389H298.971C299.214 104.115 299.219 102.77 298.967 101.496Z" fill="#D8E3FD"/>
<path d="M298.503 161.185H295.961C296.536 158.477 295.519 155.85 294.764 153.293C294.422 153.232 294.526 153.314 294.432 153.48C294.093 154.075 293.12 157.277 293.12 157.896V161.184H290.727V158.919C290.727 158.404 291.219 156.805 291.406 156.221C291.972 154.449 292.917 152.808 293.655 151.107L293.537 150.48L292.97 149.418C290.939 153.091 288.233 156.824 288.335 161.184H285.793C286.309 156.116 289.8 152.126 292.312 147.887L291.849 146.427C288.866 151.184 284.409 155.503 283.4 161.184H281.008C282.168 155.846 286.559 151.832 289.653 147.493C290.074 146.903 291.466 145.05 291.464 144.471C291.461 143.24 290.761 141.732 291.412 140.423L292.224 140.431C291.875 146.184 295.995 150.855 297.72 156.031C297.939 156.688 298.504 158.474 298.504 159.065V161.184L298.503 161.185Z" fill="#D8E3FD"/>
<path d="M303.687 161.833H301.181C301.233 157.277 298.32 153.516 296.322 149.62C295.907 149.582 295.943 151.043 295.543 150.675C295.484 150.621 294.926 149.329 294.916 149.229C294.863 148.718 295.253 148.33 295.224 147.896C295.196 147.489 294.767 146.724 294.614 146.478C294.462 146.232 294.272 146.872 293.976 147.358C293.61 146.577 293.508 145.91 293.508 145.91L293.828 144.87C293.828 144.87 293.504 143.815 293.502 143.288L292.879 144.042C292.529 142.701 292.63 141.709 293.121 140.423H294.131C294.716 148.454 303.131 153.805 303.688 161.833L303.687 161.833Z" fill="#D8E3FD"/>
<path d="M308.873 161.833H306.278C305.532 155.985 300.72 151.624 297.886 146.673C297.886 146.673 297.742 146.365 297.608 146.573C297.437 146.836 297.273 147.354 297.273 147.354C297.048 146.956 296.597 146.212 296.473 145.884C296.426 145.761 296.861 145.214 296.747 144.643C296.669 144.256 296.222 143.821 296.179 143.379L295.896 144.037C295.008 143.066 295.265 141.645 295.44 140.423H296.373C298.442 148.601 306.901 153.626 308.873 161.833V161.833Z" fill="#D8E3FD"/>
<path d="M299.03 143.667C297.872 142.812 297.97 141.553 297.859 140.423H299.033C299.195 141.484 299.198 142.606 299.03 143.667Z" fill="#D8E3FD"/>
<path d="M298.503 119.662H295.961C296.536 122.37 295.519 124.996 294.764 127.554C294.422 127.615 294.526 127.533 294.432 127.367C294.093 126.772 293.12 123.57 293.12 122.951V119.662H290.727V121.928C290.727 122.442 291.219 124.042 291.406 124.626C291.972 126.397 292.917 128.039 293.655 129.74L293.537 130.367L292.97 131.429C290.939 127.756 288.233 124.023 288.335 119.662H285.793C286.309 124.731 289.8 128.721 292.312 132.959L291.849 134.42C288.866 129.663 284.409 125.343 283.4 119.662H281.008C282.168 125 286.559 129.015 289.653 133.354C290.074 133.944 291.466 135.797 291.464 136.376C291.461 137.607 290.761 139.115 291.412 140.423L292.224 140.415C291.875 134.663 295.995 129.992 297.72 124.815C297.939 124.159 298.504 122.372 298.504 121.781V119.662L298.503 119.662Z" fill="#D8E3FD"/>
<path d="M303.687 119.662H301.181C301.233 124.08 298.32 127.727 296.322 131.505C295.907 131.542 295.943 130.125 295.543 130.482C295.484 130.535 294.926 131.788 294.916 131.884C294.863 132.38 295.253 132.756 295.224 133.177C295.196 133.571 294.767 134.313 294.614 134.552C294.462 134.79 294.272 134.17 293.976 133.698C293.61 134.456 293.508 135.102 293.508 135.102L293.828 136.111C293.828 136.111 293.504 137.135 293.502 137.645L292.879 136.914C292.529 138.214 292.63 139.176 293.121 140.423H294.131C294.716 132.635 303.131 127.446 303.688 119.662L303.687 119.662Z" fill="#D8E3FD"/>
<path d="M308.873 119.662H306.278C305.532 125.333 300.72 129.562 297.886 134.363C297.886 134.363 297.742 134.661 297.608 134.46C297.437 134.204 297.273 133.703 297.273 133.703C297.048 134.089 296.597 134.81 296.473 135.128C296.426 135.247 296.861 135.777 296.747 136.331C296.669 136.706 296.222 137.129 296.179 137.557L295.896 136.919C295.008 137.86 295.265 139.238 295.44 140.423H296.373C298.442 132.493 306.901 127.62 308.873 119.662V119.662Z" fill="#D8E3FD"/>
<path d="M299.03 136.53C297.872 137.556 297.97 139.067 297.859 140.423H299.033C299.195 139.15 299.198 137.804 299.03 136.53Z" fill="#D8E3FD"/>
<path d="M298.503 153.399H295.961C296.536 156.191 295.519 158.9 294.764 161.537C294.422 161.6 294.526 161.516 294.432 161.345C294.093 160.731 293.12 157.429 293.12 156.79V153.399H290.727V155.735C290.727 156.266 291.219 157.916 291.406 158.517C291.972 160.345 292.917 162.037 293.655 163.791L293.537 164.438L292.97 165.533C290.939 161.745 288.233 157.896 288.335 153.399H285.793C286.309 158.626 289.8 162.741 292.312 167.112L291.849 168.618C288.866 163.712 284.409 159.258 283.4 153.399H281.008C282.168 158.904 286.559 163.044 289.653 167.519C290.074 168.127 291.466 170.038 291.464 170.635C291.461 171.904 290.761 173.459 291.412 174.809L292.224 174.801C291.875 168.869 295.995 164.051 297.72 158.713C297.939 158.036 298.504 156.194 298.504 155.585V153.399L298.503 153.399Z" fill="#D8E3FD"/>
<path d="M303.687 153.399H301.181C301.233 157.955 298.32 161.716 296.322 165.612C295.907 165.65 295.943 164.189 295.543 164.557C295.484 164.611 294.926 165.903 294.916 166.003C294.863 166.514 295.253 166.902 295.224 167.336C295.196 167.743 294.767 168.507 294.614 168.754C294.462 169 294.272 168.36 293.976 167.874C293.61 168.655 293.508 169.322 293.508 169.322L293.828 170.361C293.828 170.361 293.504 171.417 293.502 171.944L292.879 171.19C292.529 172.531 292.63 173.523 293.121 174.809H294.131C294.716 166.777 303.131 161.426 303.688 153.399L303.687 153.399Z" fill="#D8E3FD"/>
<path d="M308.873 153.399H306.278C305.532 159.247 300.72 163.608 297.886 168.559C297.886 168.559 297.742 168.867 297.608 168.659C297.437 168.396 297.273 167.878 297.273 167.878C297.048 168.276 296.597 169.02 296.473 169.348C296.426 169.471 296.861 170.018 296.747 170.589C296.669 170.976 296.222 171.411 296.179 171.853L295.896 171.195C295.008 172.166 295.265 173.587 295.44 174.809H296.373C298.442 166.631 306.901 161.606 308.873 153.399V153.399Z" fill="#D8E3FD"/>
<path d="M298.503 153.399H295.961C296.536 156.191 295.519 158.9 294.764 161.537C294.422 161.6 294.526 161.516 294.432 161.345C294.093 160.731 293.12 157.429 293.12 156.79V153.399H290.727V155.735C290.727 156.266 291.219 157.916 291.406 158.517C291.972 160.345 292.917 162.037 293.655 163.791L293.537 164.438L292.97 165.533C290.939 161.745 288.233 157.896 288.335 153.399H285.793C286.309 158.626 289.8 162.741 292.312 167.112L291.849 168.618C288.866 163.712 284.409 159.258 283.4 153.399H281.008C282.168 158.904 286.559 163.044 289.653 167.519C290.074 168.127 291.466 170.038 291.464 170.635C291.461 171.904 290.761 173.459 291.412 174.809L292.224 174.801C291.875 168.869 295.995 164.051 297.72 158.713C297.939 158.036 298.504 156.194 298.504 155.585V153.399L298.503 153.399Z" fill="#D8E3FD"/>
<path d="M303.687 153.399H301.181C301.233 157.955 298.32 161.716 296.322 165.612C295.907 165.65 295.943 164.189 295.543 164.557C295.484 164.611 294.926 165.903 294.916 166.003C294.863 166.514 295.253 166.902 295.224 167.336C295.196 167.743 294.767 168.507 294.614 168.754C294.462 169 294.272 168.36 293.976 167.874C293.61 168.655 293.508 169.322 293.508 169.322L293.828 170.361C293.828 170.361 293.504 171.417 293.502 171.944L292.879 171.19C292.529 172.531 292.63 173.523 293.121 174.809H294.131C294.716 166.777 303.131 161.426 303.688 153.399L303.687 153.399Z" fill="#D8E3FD"/>
<path d="M308.873 153.399H306.278C305.532 159.247 300.72 163.608 297.886 168.559C297.886 168.559 297.742 168.867 297.608 168.659C297.437 168.396 297.273 167.878 297.273 167.878C297.048 168.276 296.597 169.02 296.473 169.348C296.426 169.471 296.861 170.018 296.747 170.589C296.669 170.976 296.222 171.411 296.179 171.853L295.896 171.195C295.008 172.166 295.265 173.587 295.44 174.809H296.373C298.442 166.631 306.901 161.606 308.873 153.399V153.399Z" fill="#D8E3FD"/>
<path d="M298.671 20.7612H296.129C296.704 18.0536 295.687 15.4269 294.932 12.8693C294.59 12.8084 294.694 12.8905 294.599 13.0562C294.261 13.6514 293.288 16.8536 293.288 17.4727V20.7608H290.895V18.4958C290.895 17.9811 291.387 16.3814 291.574 15.7978C292.14 14.0261 293.085 12.3847 293.823 10.6836L293.705 10.0564L293.138 8.99481C291.107 12.6677 288.401 16.4003 288.503 20.7608H285.961C286.477 15.6925 289.968 11.7024 292.48 7.46407L292.017 6.00348C289.034 10.7607 284.577 15.08 283.568 20.7608H281.176C282.336 15.4231 286.727 11.4087 289.821 7.06933C290.242 6.47955 291.633 4.62654 291.632 4.04755C291.629 2.81671 290.929 1.30871 291.58 -1.90735e-06L292.392 0.00809669C292.043 5.76024 296.163 10.4315 297.888 15.6081C298.107 16.2646 298.672 18.0509 298.672 18.6419V20.7608L298.671 20.7612Z" fill="#D8E3FD"/>
<path d="M303.855 21.4098H301.349C301.401 16.8537 298.488 13.0935 296.49 9.19728C296.075 9.1591 296.111 10.6202 295.711 10.252C295.652 10.1979 295.094 8.90577 295.084 8.80634C295.03 8.2949 295.421 7.90675 295.392 7.47286C295.364 7.06642 294.935 6.30165 294.782 6.05547C294.63 5.8093 294.44 6.44879 294.144 6.93518C293.778 6.1537 293.676 5.48756 293.676 5.48756L293.996 4.44758C293.996 4.44758 293.672 3.3917 293.67 2.86515L293.047 3.61878C292.697 2.27814 292.798 1.28629 293.289 0.000135422H294.299C294.884 8.03163 303.299 13.3826 303.856 21.4102L303.855 21.4098Z" fill="#D8E3FD"/>
<path d="M309.038 21.4098H306.442C305.696 15.5622 300.884 11.2012 298.05 6.24986C298.05 6.24986 297.906 5.94237 297.772 6.15002C297.601 6.41336 297.437 6.93089 297.437 6.93089C297.212 6.53269 296.761 5.78922 296.637 5.46104C296.59 5.33772 297.025 4.79156 296.911 4.22033C296.833 3.83327 296.387 3.39769 296.343 2.95574L296.06 3.61409C295.172 2.64347 295.429 1.22255 295.604 0.000135422H296.537C298.606 8.17836 307.065 13.2033 309.038 21.4102V21.4098Z" fill="#D8E3FD"/>
<path d="M298.671 55.147H296.129C296.704 52.4394 295.687 49.8127 294.932 47.255C294.59 47.1941 294.694 47.2762 294.599 47.442C294.261 48.0372 293.288 51.2394 293.288 51.8584V55.1466H290.895V52.8815C290.895 52.3669 291.387 50.7671 291.574 50.1835C292.14 48.4119 293.085 46.7705 293.823 45.0693L293.705 44.4422L293.138 43.3806C291.107 47.0534 288.401 50.786 288.503 55.1466H285.961C286.477 50.0783 289.968 46.0882 292.48 41.8498L292.017 40.3892C289.034 45.1464 284.577 49.4658 283.568 55.1466H281.176C282.336 49.8088 286.727 45.7944 289.821 41.4551C290.242 40.8653 291.633 39.0123 291.632 38.4333C291.629 37.2024 290.929 35.6944 291.58 34.3857L292.392 34.3938C292.043 40.146 296.163 44.8172 297.888 49.9939C298.107 50.6503 298.672 52.4367 298.672 53.0276V55.1466L298.671 55.147Z" fill="#D8E3FD"/>
<path d="M303.855 55.7955H301.349C301.401 51.2395 298.488 47.4793 296.49 43.583C296.075 43.5448 296.111 45.006 295.711 44.6377C295.652 44.5836 295.094 43.2915 295.084 43.1921C295.03 42.6806 295.421 42.2925 295.392 41.8586C295.364 41.4522 294.935 40.6874 294.782 40.4412C294.63 40.195 294.44 40.8345 294.144 41.3209C293.778 40.5394 293.676 39.8733 293.676 39.8733L293.996 38.8333C293.996 38.8333 293.672 37.7774 293.67 37.2509L293.047 38.0045C292.697 36.6639 292.798 35.672 293.289 34.3859H294.299C294.884 42.4174 303.299 47.7684 303.856 55.7959L303.855 55.7955Z" fill="#D8E3FD"/>
<path d="M309.038 55.7955H306.442C305.696 49.9479 300.884 45.5869 298.05 40.6356C298.05 40.6356 297.906 40.3281 297.772 40.5358C297.601 40.7991 297.437 41.3166 297.437 41.3166C297.212 40.9184 296.761 40.175 296.637 39.8468C296.59 39.7235 297.025 39.1773 296.911 38.6061C296.833 38.219 296.387 37.7834 296.343 37.3415L296.06 37.9998C295.172 37.0292 295.429 35.6083 295.604 34.3859H296.537C298.606 42.5641 307.065 47.589 309.038 55.7959V55.7955Z" fill="#D8E3FD"/>
<path d="M299.194 37.6299C298.036 36.7749 298.134 35.5158 298.023 34.3859H299.197C299.359 35.4471 299.362 36.5687 299.194 37.6299Z" fill="#D8E3FD"/>
<path d="M298.671 12.9756H296.129C296.704 15.7678 295.687 18.4766 294.932 21.1142C294.59 21.177 294.694 21.0923 294.599 20.9214C294.261 20.3076 293.288 17.0053 293.288 16.3669V12.976H290.895V15.3119C290.895 15.8426 291.387 17.4923 291.574 18.0941C292.14 19.9212 293.085 21.6139 293.823 23.3681L293.705 24.0149L293.138 25.1097C291.107 21.3221 288.401 17.4728 288.503 12.976H285.961C286.477 18.2027 289.968 22.3175 292.48 26.6883L292.017 28.1945C289.034 23.2886 284.577 18.8343 283.568 12.976H281.176C282.336 18.4805 286.727 22.6204 289.821 27.0954C290.242 27.7036 291.633 29.6145 291.632 30.2116C291.629 31.4809 290.929 33.036 291.58 34.3856L292.392 34.3773C292.043 28.4454 296.163 23.6281 297.888 18.2897C298.107 17.6127 298.672 15.7706 298.672 15.1612V12.976L298.671 12.9756Z" fill="#D8E3FD"/>
<path d="M303.855 12.976H301.349C301.401 17.532 298.488 21.2922 296.49 25.1885C296.075 25.2266 296.111 23.7655 295.711 24.1338C295.652 24.1879 295.094 25.48 295.084 25.5794C295.03 26.0908 295.421 26.479 295.392 26.9129C295.364 27.3193 294.935 28.0841 294.782 28.3303C294.63 28.5764 294.44 27.9369 294.144 27.4506C293.778 28.232 293.676 28.8982 293.676 28.8982L293.996 29.9382C293.996 29.9382 293.672 30.994 293.67 31.5206L293.047 30.767C292.697 32.1076 292.798 33.0995 293.289 34.3856H294.299C294.884 26.3541 303.299 21.0031 303.856 12.9756L303.855 12.976Z" fill="#D8E3FD"/>
<path d="M309.038 12.976L306.442 12.976C305.696 18.8235 300.884 23.1845 298.05 28.1359C298.05 28.1359 297.906 28.4434 297.772 28.2357C297.601 27.9724 297.437 27.4549 297.437 27.4549C297.212 27.853 296.761 28.5965 296.637 28.9247C296.59 29.048 297.025 29.5942 296.911 30.1654C296.833 30.5525 296.387 30.9881 296.343 31.43L296.06 30.7717C295.172 31.7423 295.429 33.1632 295.604 34.3856H296.537C298.606 26.2074 307.065 21.1825 309.038 12.9756V12.976Z" fill="#D8E3FD"/>
<path d="M299.194 30.4932C298.036 31.5192 298.134 33.0301 298.023 34.3859H299.197C299.359 33.1125 299.362 31.7666 299.194 30.4932Z" fill="#D8E3FD"/>
<path d="M298.671 55.147H296.129C296.704 52.4394 295.687 49.8127 294.932 47.255C294.59 47.1941 294.694 47.2762 294.599 47.442C294.261 48.0372 293.288 51.2394 293.288 51.8584V55.1466H290.895V52.8815C290.895 52.3669 291.387 50.7671 291.574 50.1835C292.14 48.4119 293.085 46.7705 293.823 45.0693L293.705 44.4422L293.138 43.3806C291.107 47.0534 288.401 50.786 288.503 55.1466H285.961C286.477 50.0783 289.968 46.0882 292.48 41.8498L292.017 40.3892C289.034 45.1464 284.577 49.4658 283.568 55.1466H281.176C282.336 49.8088 286.727 45.7944 289.821 41.4551C290.242 40.8653 291.633 39.0123 291.632 38.4333C291.629 37.2024 290.929 35.6944 291.58 34.3857L292.392 34.3938C292.043 40.146 296.163 44.8172 297.888 49.9939C298.107 50.6503 298.672 52.4367 298.672 53.0276V55.1466L298.671 55.147Z" fill="#D8E3FD"/>
<path d="M303.855 55.7955H301.349C301.401 51.2395 298.488 47.4793 296.49 43.583C296.075 43.5448 296.111 45.006 295.711 44.6377C295.652 44.5836 295.094 43.2915 295.084 43.1921C295.03 42.6806 295.421 42.2925 295.392 41.8586C295.364 41.4522 294.935 40.6874 294.782 40.4412C294.63 40.195 294.44 40.8345 294.144 41.3209C293.778 40.5394 293.676 39.8733 293.676 39.8733L293.996 38.8333C293.996 38.8333 293.672 37.7774 293.67 37.2509L293.047 38.0045C292.697 36.6639 292.798 35.672 293.289 34.3859H294.299C294.884 42.4174 303.299 47.7684 303.856 55.7959L303.855 55.7955Z" fill="#D8E3FD"/>
<path d="M309.038 55.7955H306.442C305.696 49.9479 300.884 45.5869 298.05 40.6356C298.05 40.6356 297.906 40.3281 297.772 40.5358C297.601 40.7991 297.437 41.3166 297.437 41.3166C297.212 40.9184 296.761 40.175 296.637 39.8468C296.59 39.7235 297.025 39.1773 296.911 38.6061C296.833 38.219 296.387 37.7834 296.343 37.3415L296.06 37.9998C295.172 37.0292 295.429 35.6083 295.604 34.3859H296.537C298.606 42.5641 307.065 47.589 309.038 55.7959V55.7955Z" fill="#D8E3FD"/>
<path d="M299.194 37.6299C298.036 36.7749 298.134 35.5158 298.023 34.3859H299.197C299.359 35.4471 299.362 36.5687 299.194 37.6299Z" fill="#D8E3FD"/>
<path d="M298.671 12.9756H296.129C296.704 15.7678 295.687 18.4766 294.932 21.1142C294.59 21.177 294.694 21.0923 294.599 20.9214C294.261 20.3076 293.288 17.0053 293.288 16.3669V12.976H290.895V15.3119C290.895 15.8426 291.387 17.4923 291.574 18.0941C292.14 19.9212 293.085 21.6139 293.823 23.3681L293.705 24.0149L293.138 25.1097C291.107 21.3221 288.401 17.4728 288.503 12.976H285.961C286.477 18.2027 289.968 22.3175 292.48 26.6883L292.017 28.1945C289.034 23.2886 284.577 18.8343 283.568 12.976H281.176C282.336 18.4805 286.727 22.6204 289.821 27.0954C290.242 27.7036 291.633 29.6145 291.632 30.2116C291.629 31.4809 290.929 33.036 291.58 34.3856L292.392 34.3773C292.043 28.4454 296.163 23.6281 297.888 18.2897C298.107 17.6127 298.672 15.7706 298.672 15.1612V12.976L298.671 12.9756Z" fill="#D8E3FD"/>
<path d="M303.855 12.976H301.349C301.401 17.532 298.488 21.2922 296.49 25.1885C296.075 25.2266 296.111 23.7655 295.711 24.1338C295.652 24.1879 295.094 25.48 295.084 25.5794C295.03 26.0908 295.421 26.479 295.392 26.9129C295.364 27.3193 294.935 28.0841 294.782 28.3303C294.63 28.5764 294.44 27.9369 294.144 27.4506C293.778 28.232 293.676 28.8982 293.676 28.8982L293.996 29.9382C293.996 29.9382 293.672 30.994 293.67 31.5206L293.047 30.767C292.697 32.1076 292.798 33.0995 293.289 34.3856H294.299C294.884 26.3541 303.299 21.0031 303.856 12.9756L303.855 12.976Z" fill="#D8E3FD"/>
<path d="M309.038 12.976L306.442 12.976C305.696 18.8235 300.884 23.1845 298.05 28.1359C298.05 28.1359 297.906 28.4434 297.772 28.2357C297.601 27.9724 297.437 27.4549 297.437 27.4549C297.212 27.853 296.761 28.5965 296.637 28.9247C296.59 29.048 297.025 29.5942 296.911 30.1654C296.833 30.5525 296.387 30.9881 296.343 31.43L296.06 30.7717C295.172 31.7423 295.429 33.1632 295.604 34.3856H296.537C298.606 26.2074 307.065 21.1825 309.038 12.9756V12.976Z" fill="#D8E3FD"/>
<path d="M299.194 30.4932C298.036 31.5192 298.134 33.0301 298.023 34.3859H299.197C299.359 33.1125 299.362 31.7666 299.194 30.4932Z" fill="#D8E3FD"/>
<path d="M298.671 90.1816H296.129C296.704 87.3894 295.687 84.6807 294.932 82.0431C294.59 81.9803 294.694 82.0649 294.599 82.2359C294.261 82.8496 293.288 86.1519 293.288 86.7903V90.1812H290.895V87.8454C290.895 87.3147 291.387 85.6649 291.574 85.0631C292.14 83.236 293.085 81.5434 293.823 79.7891L293.705 79.1423L293.138 78.0475C291.107 81.8352 288.401 85.6844 288.503 90.1812H285.961C286.477 84.9546 289.968 80.8398 292.48 76.4689L292.017 74.9627C289.034 79.8686 284.577 84.3229 283.568 90.1812H281.176C282.336 84.6767 286.727 80.5368 289.821 76.0619C290.242 75.4537 291.633 73.5427 291.632 72.9457C291.629 71.6763 290.929 70.1212 291.58 68.7716L292.392 68.78C292.043 74.7119 296.163 79.5291 297.888 84.8675C298.107 85.5445 298.672 87.3866 298.672 87.996V90.1812L298.671 90.1816Z" fill="#D8E3FD"/>
<path d="M303.855 90.1812H301.349C301.401 85.6252 298.488 81.865 296.49 77.9688C296.075 77.9306 296.111 79.3917 295.711 79.0235C295.652 78.9694 295.094 77.6773 295.084 77.5778C295.03 77.0664 295.421 76.6782 295.392 76.2443C295.364 75.8379 294.935 75.0731 294.782 74.827C294.63 74.5808 294.44 75.2203 294.144 75.7067C293.778 74.9252 293.676 74.259 293.676 74.259L293.996 73.2191C293.996 73.2191 293.672 72.1632 293.67 71.6366L293.047 72.3903C292.697 71.0496 292.798 70.0578 293.289 68.7716H294.299C294.884 76.8031 303.299 82.1541 303.856 90.1816L303.855 90.1812Z" fill="#D8E3FD"/>
<path d="M309.038 90.1812H306.442C305.696 84.3337 300.884 79.9727 298.05 75.0213C298.05 75.0213 297.906 74.7139 297.772 74.9215C297.601 75.1848 297.437 75.7024 297.437 75.7024C297.212 75.3042 296.761 74.5607 296.637 74.2325C296.59 74.1092 297.025 73.563 296.911 72.9918C296.833 72.6048 296.387 72.1692 296.343 71.7272L296.06 72.3856C295.172 71.415 295.429 69.994 295.604 68.7716H296.537C298.606 76.9498 307.065 81.9748 309.038 90.1816V90.1812Z" fill="#D8E3FD"/>
<path d="M299.194 72.6646C298.036 71.6385 298.134 70.1276 298.023 68.7718H299.197C299.359 70.0453 299.362 71.3911 299.194 72.6646Z" fill="#D8E3FD"/>
<path d="M298.671 48.0103H296.129C296.704 50.7179 295.687 53.3445 294.932 55.9022C294.59 55.9631 294.694 55.881 294.599 55.7152C294.261 55.1201 293.288 51.9179 293.288 51.2988V48.0106H290.895V50.2757C290.895 50.7903 291.387 52.3901 291.574 52.9737C292.14 54.7454 293.085 56.3868 293.823 58.0879L293.705 58.7151L293.138 59.7767C291.107 56.1038 288.401 52.3712 288.503 48.0106H285.961C286.477 53.0789 289.968 57.0691 292.48 61.3074L292.017 62.768C289.034 58.0108 284.577 53.6915 283.568 48.0106H281.176C282.336 53.3484 286.727 57.3628 289.821 61.7022C290.242 62.2919 291.633 64.1449 291.632 64.7239C291.629 65.9548 290.929 67.4628 291.58 68.7715L292.392 68.7634C292.043 63.0112 296.163 58.34 297.888 53.1634C298.107 52.5069 298.672 50.7206 298.672 50.1296V48.0106L298.671 48.0103Z" fill="#D8E3FD"/>
<path d="M303.855 48.0106H301.349C301.401 52.4286 298.488 56.0749 296.49 59.853C296.075 59.8901 296.111 58.4732 295.711 58.8303C295.652 58.8828 295.094 60.1357 295.084 60.2321C295.03 60.7281 295.421 61.1045 295.392 61.5252C295.364 61.9193 294.935 62.6609 294.782 62.8996C294.63 63.1384 294.44 62.5182 294.144 62.0466C293.778 62.8044 293.676 63.4503 293.676 63.4503L293.996 64.4588C293.996 64.4588 293.672 65.4827 293.67 65.9933L293.047 65.2625C292.697 66.5625 292.798 67.5243 293.289 68.7715H294.299C294.884 60.9834 303.299 55.7945 303.856 48.0103L303.855 48.0106Z" fill="#D8E3FD"/>
<path d="M309.038 48.0106H306.442C305.696 53.681 300.884 57.9099 298.05 62.7111C298.05 62.7111 297.906 63.0093 297.772 62.808C297.601 62.5526 297.437 62.0508 297.437 62.0508C297.212 62.4369 296.761 63.1578 296.637 63.4761C296.59 63.5956 297.025 64.1253 296.911 64.6792C296.833 65.0545 296.387 65.4769 296.343 65.9054L296.06 65.267C295.172 66.2082 295.429 67.5861 295.604 68.7715H296.537C298.606 60.8411 307.065 55.9684 309.038 48.0103V48.0106Z" fill="#D8E3FD"/>
<path d="M299.194 65.5278C298.036 66.3829 298.134 67.642 298.023 68.7718H299.197C299.359 67.7106 299.362 66.589 299.194 65.5278Z" fill="#D8E3FD"/>
</g>
<defs>
<clipPath id="clip0_998_2873">
<rect width="335" height="160" rx="17.8105" fill="white"/>
</clipPath>
</defs>
</svg>
