<svg width="150" height="150" viewBox="0 0 150 150" fill="none" xmlns="http://www.w3.org/2000/svg">
<circle cx="75" cy="75" r="74.5" stroke="#3760E7"/>
<g clip-path="url(#clip0_580_543)">
<path d="M79.8245 108.832C70.082 108.832 60.3412 108.875 50.5987 108.816C44.165 108.776 40.0826 105.587 38.2381 99.4403C37.4493 96.8141 37.1842 94.1342 37.1875 91.4158C37.2095 76.7351 37.2331 62.0562 37.2737 47.3772C37.2821 44.0349 39.6147 41.5764 42.9928 41.2612C45.9656 40.9828 48.766 43.1713 49.342 46.2352C49.4079 46.589 49.4163 46.958 49.4146 47.3202C49.3623 60.4613 49.3032 73.6041 49.2474 86.7453C49.2423 88.1154 49.1984 89.4855 49.2474 90.854C49.3893 94.7715 51.5445 96.9918 55.5037 97.0606C62.9339 97.1881 70.3657 97.2467 77.7976 97.2384C88.2715 97.2266 98.7436 97.1193 109.217 97.0723C112.168 97.0589 114.472 98.8181 115.2 101.55C116.124 105.021 113.435 108.686 109.812 108.825C107.956 108.895 106.096 108.857 104.238 108.857C96.1002 108.858 87.964 108.858 79.8262 108.858C79.8245 108.845 79.8245 108.838 79.8245 108.832ZM79.8245 107.79C79.8245 107.794 79.8245 107.795 79.8245 107.799C87.6803 107.799 95.5361 107.799 103.39 107.799C105.39 107.799 107.39 107.83 109.386 107.785C111.55 107.737 113.356 106.417 114.026 104.486C114.67 102.633 114.117 100.646 112.579 99.3263C111.499 98.3989 110.212 98.1037 108.817 98.1121C94.374 98.211 79.9326 98.3284 65.4894 98.3821C61.9171 98.3955 58.3396 98.2831 54.774 98.0635C51.1104 97.8371 48.9873 95.8833 48.3134 92.3431C48.1377 91.4158 48.0769 90.4531 48.0803 89.5073C48.0887 87.5502 48.2137 85.5948 48.2222 83.6394C48.2711 71.7276 48.2999 59.8157 48.3319 47.9038C48.3336 47.4309 48.31 46.953 48.2492 46.4834C47.9198 43.9628 45.6987 42.2472 42.9506 42.3764C40.5302 42.4904 38.4999 44.5196 38.4189 46.9479C38.3783 48.1772 38.3935 49.4081 38.3901 50.639C38.3479 64.2564 38.304 77.8738 38.2702 91.4912C38.2635 94.4411 38.5861 97.3474 39.6282 100.135C40.9981 103.802 43.285 106.554 47.3405 107.368C48.6816 107.636 50.0751 107.768 51.4432 107.773C60.9036 107.807 70.364 107.79 79.8245 107.79Z" fill="#3760E7"/>
<path d="M63.2631 93.8577C62.3831 93.7118 61.4744 93.6565 60.6282 93.3999C59.3023 92.9991 58.7939 91.9979 59.2583 90.7116C59.7836 89.261 60.6332 88.0653 62.1196 87.361C67.5786 84.775 72.9245 81.9878 77.7586 78.3285C82.5724 74.6844 86.5856 70.3878 89.0246 64.7916C90.3522 61.7478 91.1309 58.5632 91.6038 55.2913C91.6984 54.6322 91.3944 54.2532 90.7829 54.1526C90.261 54.0671 89.7205 54.0822 89.1885 54.0587C88.376 54.0218 87.5433 54.0939 86.7562 53.938C84.6702 53.5221 84.1601 51.9675 85.5469 50.3911C86.8052 48.9606 88.0365 47.4999 89.3641 46.1348C91.9248 43.5019 94.4887 40.869 97.1558 38.345C99.8937 35.7541 101.784 36.0391 103.665 39.2791C106.481 44.1274 108.653 49.2658 110.373 54.5903C110.609 55.3232 110.71 56.1214 110.734 56.8929C110.781 58.4693 109.95 59.4805 108.395 59.8092C107.822 59.93 107.226 59.9501 106.638 59.9903C105.937 60.0373 105.235 60.0373 104.534 60.0876C103.584 60.1564 103.076 60.6125 102.85 61.6036C100.97 69.7791 96.3872 76.3094 90.1664 81.7966C85.5013 85.912 80.2398 89.0967 74.4548 91.421C71.6206 92.5647 66.0771 93.7068 63.2631 93.8577ZM88.8186 53.076C88.8253 53.0357 88.8304 52.9955 88.8372 52.9552C89.2881 52.9552 89.7391 52.9368 90.1884 52.9586C92.1224 53.0559 92.9196 53.9682 92.6392 55.8196C92.195 58.751 91.5025 61.6187 90.3945 64.3808C87.9217 70.5455 83.6382 75.2613 78.3937 79.2123C73.5765 82.8414 68.2712 85.6454 62.8358 88.2196C61.7835 88.7177 61.0589 89.4539 60.5454 90.4517C59.89 91.7212 60.1687 92.3199 61.5774 92.5698C63.6752 92.9421 65.7207 92.4792 67.7678 92.1304C73.7589 91.1057 79.0727 88.4778 84.0318 85.1221C92.8909 79.1285 99.5154 71.4712 101.951 60.7936C102.154 59.9014 102.723 59.3296 103.589 59.1954C104.723 59.0193 105.878 58.9774 107.025 58.8986C109.41 58.7342 110.048 57.884 109.51 55.563C109.498 55.5093 109.472 55.4573 109.457 55.4037C107.763 49.8259 105.459 44.5064 102.502 39.4787C101.218 37.2986 100.22 37.1544 98.2722 38.8196C93.8435 42.6063 90.0347 46.9918 86.1988 51.3486C85.6516 51.9691 85.7411 52.4236 86.5265 52.6919C87.2477 52.9385 88.05 52.9569 88.8186 53.076Z" fill="#3760E7"/>
<path d="M50.7183 97.712C50.3687 97.9283 50.1322 98.1882 49.9532 98.1547C49.7556 98.1178 49.6086 97.8092 49.4414 97.6197C49.634 97.4554 49.8231 97.1686 50.0224 97.1602C50.2049 97.1552 50.4008 97.447 50.7183 97.712Z" fill="#3760E7"/>
</g>
<defs>
<clipPath id="clip0_580_543">
<rect width="88" height="81" fill="white" transform="translate(31 34)"/>
</clipPath>
</defs>
</svg>
