<svg width="150" height="150" viewBox="0 0 150 150" fill="none" xmlns="http://www.w3.org/2000/svg">
<g clip-path="url(#clip0_580_523)">
<path d="M105.766 75.3418C103.859 76.6968 102.102 77.9532 100.336 79.1985C99.5265 79.7699 98.7207 80.3544 97.8777 80.8718C96.9807 81.4228 96.1303 81.9328 96.4038 83.232C96.4429 83.42 96.0465 83.6992 95.8511 83.9356C95.6334 83.6899 95.3468 83.4758 95.2165 83.1892C95.1105 82.9565 95.1905 82.6401 95.1886 82.3609C95.1849 69.9476 95.1812 57.5344 95.1775 45.1212C95.1775 43.2356 94.7029 42.6716 92.8047 42.5562C91.1038 42.4539 89.3973 42.4297 87.6945 42.4371C86.617 42.4427 85.5414 42.5711 84.3541 42.653C84.3541 43.0532 84.3522 43.4162 84.3541 43.7773C84.4192 54.4837 84.4862 65.1901 84.5514 75.8965C84.5532 76.3004 84.6314 76.7229 84.5328 77.1007C84.4397 77.4544 84.1587 77.7578 83.9614 78.0854C83.7679 77.7541 83.4143 77.4265 83.4069 77.0914C83.3287 73.6796 83.3064 70.2659 83.271 66.8522C83.2673 66.5191 83.271 66.184 83.271 65.7354C79.5696 68.1328 75.9761 70.4614 72.269 72.8625C72.269 73.6722 72.2951 74.6661 72.2579 75.6545C72.2392 76.1552 72.5407 76.9742 71.6996 76.9816C70.7709 76.9891 71.1059 76.118 71.1041 75.6061C71.0817 69.8024 71.0892 63.9988 71.0892 58.197C71.0892 57.2961 71.0687 56.3971 71.0966 55.4981C71.1134 54.962 70.9738 54.7052 70.3746 54.7219C68.2065 54.7871 66.0329 54.7629 63.8668 54.8708C62.084 54.9602 61.3228 55.7289 61.053 57.4841C60.9916 57.8806 60.9469 58.2845 60.9451 58.6866C60.9376 64.4902 60.9395 70.2938 60.9395 76.0956C60.9395 76.3078 60.9395 76.52 60.9395 76.7862C62.3166 76.922 63.6286 77.0468 64.9424 77.1808C71.1729 77.8118 77.3122 78.9825 83.4255 80.3115C84.4807 80.5405 85.5433 80.7694 86.5724 81.0933C87.8695 81.5028 88.8595 82.3236 88.947 83.7662C89.0326 85.1882 88.3422 86.4204 87.0748 86.9416C85.5823 87.554 83.9614 87.9616 82.3592 88.1664C79.229 88.5666 76.071 88.7657 72.7138 89.0673C73.8285 89.5605 74.8074 90.0165 75.803 90.4316C81.9926 93.0226 88.2324 92.6485 94.4089 90.5098C99.4037 88.7806 104.292 86.7462 109.267 84.9574C110.908 84.3674 112.661 84.0305 114.392 83.7662C115.058 83.6638 115.855 83.984 116.504 84.2967C117.857 84.9481 118.371 86.1859 117.775 87.554C117.349 88.5312 116.752 89.4749 116.054 90.2827C113.534 93.2013 110.408 95.4181 107.155 97.406C101.397 100.926 95.585 104.36 89.7286 107.714C86.1257 109.778 82.0968 110.141 78.0306 110.089C72.6301 110.02 67.4175 108.788 62.2142 107.487C58.7566 106.622 55.2766 105.864 51.6812 105.894C51.3704 105.896 51.0615 105.91 50.7507 105.92C49.9096 105.94 49.3289 106.221 48.8228 107.02C47.0865 109.769 44.483 111.61 41.712 113.159C38.5819 114.908 35.3531 116.488 32.1467 118.098C31.8954 118.225 31.4693 118.004 31.125 117.946C31.3018 117.639 31.4041 117.188 31.6684 117.049C34.3277 115.655 37.041 114.363 39.6854 112.941C42.3671 111.498 44.9203 109.855 46.9488 107.521C49.0423 105.11 49.6974 102.422 48.4264 99.42C47.6187 97.5121 46.718 95.6434 45.8378 93.7671C44.9036 91.7774 43.9749 89.7857 42.9868 87.8239C41.4143 84.7024 39.3002 83.7494 35.9449 84.7992C34.6683 85.1994 33.5201 85.9961 32.2862 86.5545C31.9606 86.7015 31.5344 86.6326 31.1566 86.6624C31.2925 86.3125 31.3278 85.8229 31.5828 85.6368C33.9276 83.9207 36.492 82.9174 39.4789 83.3306C39.9367 83.3939 40.4596 83.2562 40.9081 83.0905C45.112 81.5326 49.2806 79.8797 53.5124 78.4055C55.2226 77.8099 57.065 77.5921 58.8459 77.2012C59.1418 77.1361 59.4358 77.0616 59.7782 76.9816C59.7782 76.5945 59.7782 76.2575 59.7782 75.9188C59.7782 70.3013 59.7764 64.6838 59.7801 59.0681C59.7801 58.4781 59.7578 57.8825 59.8359 57.3017C60.1672 54.8671 61.6746 53.6461 64.4716 53.5791C66.3009 53.5344 68.1321 53.5623 69.9614 53.5586C70.2983 53.5586 70.6332 53.5586 71.1022 53.5586C71.1022 53.123 71.0966 52.7619 71.1022 52.399C71.1934 47.4664 71.2771 42.532 71.3832 37.5995C71.4353 35.204 72.3211 34.1784 74.7162 34.035C76.7204 33.9159 78.7452 33.9289 80.7494 34.0704C83.1817 34.2417 84.2573 35.4832 84.3467 37.9494C84.3876 39.0867 84.3541 40.2277 84.3541 41.2645C86.7789 41.2645 89.094 41.2645 91.4109 41.2645C91.6584 41.2645 91.9078 41.2682 92.1553 41.2738C95.4026 41.3389 96.4708 42.5004 96.4392 45.7168C96.3927 50.5581 96.4243 55.3994 96.4262 60.2408C96.4262 60.4195 96.4522 60.6 96.4559 60.6428C98.4974 60.6428 100.468 60.6316 102.441 60.6503C103.059 60.6558 103.68 60.708 104.289 60.8029C106.018 61.0728 106.775 61.8657 106.918 63.6284C106.995 64.5535 106.944 65.4879 106.946 66.4167C106.957 71.6917 106.967 76.9686 106.978 82.2436C106.978 82.4614 106.989 82.6792 106.976 82.8951C106.948 83.3437 107.058 83.9356 106.364 83.9281C105.673 83.9207 105.774 83.3362 105.772 82.8839C105.764 80.4269 105.766 77.9774 105.766 75.3418ZM49.9207 104.87C51.7017 104.87 53.4063 104.654 55.0328 104.915C58.3862 105.451 61.7174 106.164 65.0243 106.945C69.9838 108.116 74.9674 109.045 80.0888 108.84C83.0756 108.721 86.0271 108.299 88.7143 106.888C96.0689 103.027 103.224 98.8262 109.996 94.0035C112.321 92.3488 114.584 90.5842 116.182 88.1589C117.36 86.372 116.716 85.125 114.574 84.9128C114.303 84.8867 114.009 84.8997 113.746 84.9705C112.226 85.3781 110.674 85.7076 109.2 86.2473C104.384 88.0156 99.6326 89.9681 94.7885 91.6526C87.6368 94.1413 80.5317 94.158 73.568 90.8095C71.7852 89.9533 70.1457 88.641 67.9832 88.762C67.8306 88.7713 67.5198 88.3879 67.531 88.2055C67.544 88.0082 67.8232 87.7643 68.0409 87.6657C68.2475 87.5726 68.5285 87.6415 68.776 87.6415C70.8528 87.6396 72.9408 87.768 75.0046 87.6061C78.3637 87.3437 81.7134 86.9193 85.0576 86.5005C86.0271 86.3795 86.8813 85.89 87.4247 85.0133C88.0146 84.0659 87.8118 83.0812 86.8329 82.5526C86.2449 82.2343 85.5823 81.996 84.9236 81.8751C78.8419 80.749 72.7547 79.6489 66.6675 78.5582C62.7949 77.8657 58.9203 77.9588 55.1891 79.1966C50.706 80.6838 46.2993 82.4055 41.8628 84.0323C41.7976 84.0565 41.7585 84.1478 41.846 84.0454C42.6276 85.1789 43.4855 86.1766 44.068 87.3139C45.6182 90.3441 47.0902 93.4172 48.5176 96.507C49.7142 99.0961 50.9238 101.713 49.9207 104.87ZM72.3062 65.6051C75.9742 63.178 79.4598 60.8755 82.9379 58.5637C83.0719 58.4744 83.2245 58.2882 83.2264 58.1449C83.2487 56.8066 83.2394 55.4664 83.2394 54.0407C79.5063 56.4585 75.9333 58.7722 72.3062 61.1193C72.3062 62.4483 72.3062 63.8983 72.3062 65.6051ZM83.2561 59.9895C83.1035 59.9969 83.0328 59.9783 82.9919 60.0044C79.4989 62.2436 76.0058 64.4846 72.5221 66.7368C72.3993 66.8169 72.2858 67.0197 72.2839 67.1649C72.2653 68.5125 72.2727 69.8583 72.2727 71.325C72.5482 71.1854 72.6877 71.1314 72.8087 71.0533C76.1789 68.8476 79.5472 66.64 82.91 64.4232C83.0607 64.3227 83.2375 64.1179 83.2394 63.9597C83.2673 62.6363 83.2561 61.3148 83.2561 59.9895ZM83.2133 48.2017C79.4728 50.6251 75.9221 52.9239 72.3583 55.2319C72.3583 56.5888 72.3583 58.0463 72.3583 59.7252C75.9947 57.3092 79.4709 55.003 82.9361 52.68C83.0794 52.5851 83.1985 52.3431 83.2022 52.1663C83.2226 50.9043 83.2133 49.6423 83.2133 48.2017ZM83.1482 42.4613C82.9156 42.5097 82.8821 42.5078 82.8598 42.5209C79.417 44.721 75.9761 46.9229 72.537 49.1305C72.4458 49.19 72.323 49.3017 72.323 49.3892C72.31 50.8187 72.3137 52.2463 72.3137 53.8918C75.9128 51.5018 79.3202 49.2421 82.7165 46.9657C82.9137 46.8336 83.124 46.5469 83.1315 46.3273C83.1687 45.0616 83.1482 43.7959 83.1482 42.4613ZM72.4551 47.9392C75.9723 45.6014 79.3705 43.3454 82.7649 41.0839C82.8858 41.0039 83.0514 40.8643 83.0533 40.7507C83.0738 39.4106 83.0663 38.0686 83.0663 36.6316C82.7388 36.7582 82.6439 36.7768 82.5694 36.8252C79.3239 38.9322 76.0784 41.0392 72.8422 43.163C72.6691 43.2766 72.4774 43.5223 72.4719 43.7121C72.4402 45.0393 72.4551 46.3701 72.4551 47.9392ZM105.763 63.6805C102.66 65.8304 99.6847 67.8871 96.7183 69.9569C96.5862 70.05 96.4541 70.251 96.4522 70.4055C96.4318 71.7196 96.4411 73.0337 96.4411 74.6326C99.6159 72.3506 102.579 70.2268 105.528 68.0826C105.668 67.9802 105.75 67.7159 105.753 67.5242C105.774 66.2864 105.763 65.0467 105.763 63.6805ZM96.4373 80.2166C96.6104 80.198 96.683 80.2129 96.7258 80.1831C99.6308 78.1375 102.536 76.09 105.433 74.0333C105.571 73.9365 105.74 73.7578 105.744 73.6145C105.768 72.2799 105.759 70.9434 105.759 69.5419C102.701 71.6601 99.7778 73.6759 96.8747 75.7178C96.6644 75.8667 96.4671 76.1943 96.4578 76.4455C96.415 77.6796 96.4373 78.9174 96.4373 80.2166ZM72.6524 41.9085C75.79 39.8592 78.9089 37.821 82.2159 35.66C81.678 35.4869 81.4492 35.3547 81.2147 35.3454C79.1434 35.271 77.0722 35.1891 75.0009 35.1779C74.4947 35.176 73.9457 35.3454 73.4954 35.5837C73.1493 35.7661 72.7045 36.1737 72.6896 36.4976C72.6114 38.2472 72.6524 40.0006 72.6524 41.9085ZM96.4876 62.13C96.4876 64.3264 96.4876 66.4074 96.4876 68.7024C99.4912 66.5786 102.351 64.5591 105.212 62.5377C105.186 62.4409 105.158 62.3441 105.132 62.2473C102.305 61.4748 99.4465 61.8694 96.4876 62.13Z" fill="#3760E7"/>
</g>
<circle cx="75" cy="75" r="74.5" stroke="#3760E7"/>
<defs>
<clipPath id="clip0_580_523">
<rect width="87" height="87" fill="white" transform="translate(31 31)"/>
</clipPath>
</defs>
</svg>
