<svg width="150" height="150" viewBox="0 0 150 150" fill="none" xmlns="http://www.w3.org/2000/svg">
<g clip-path="url(#clip0_580_510)">
<path d="M74.0461 60.4919C74.0461 63.7988 74.0461 66.9195 74.0461 70.1397C75.7267 70.1397 77.346 70.0677 78.9589 70.1524C84.7956 70.4613 90.6386 70.7152 96.4605 71.2039C101.124 71.5953 103.788 74.4219 104.143 79.0956C104.295 81.0865 104.168 83.0985 104.168 85.2418C106.172 85.2418 107.956 85.2016 109.738 85.2502C112.334 85.3222 114.958 85.2629 117.518 85.6226C120.202 85.9992 121.629 87.8632 121.684 90.5565C121.79 95.666 121.849 100.778 121.885 105.889C121.894 106.907 121.741 107.927 121.619 108.94C121.338 111.253 119.822 112.467 117.738 113.015C116.594 113.315 115.378 113.457 114.192 113.476C110.531 113.533 106.865 113.497 103.117 113.497C103.117 115.057 103.117 116.438 103.117 117.932C104.866 117.932 106.582 117.93 108.301 117.934C108.582 117.934 108.897 117.877 109.136 117.983C109.347 118.076 109.59 118.357 109.601 118.565C109.612 118.772 109.387 119.045 109.191 119.189C109.045 119.297 108.785 119.265 108.574 119.265C104.413 119.269 100.255 119.267 96.0948 119.267C96.025 119.267 95.932 119.292 95.8876 119.259C95.5917 119.041 95.3063 118.808 95.0188 118.579C95.3147 118.364 95.6065 117.97 95.9109 117.962C97.7691 117.904 99.6293 117.932 101.551 117.932C101.551 116.474 101.551 115.114 101.551 113.633C101.183 113.605 100.813 113.565 100.441 113.555C97.0947 113.464 93.7419 113.472 90.4061 113.246C88.8565 113.14 87.3007 112.683 85.8145 112.19C84.5271 111.762 83.7386 110.73 83.6583 109.319C83.4131 104.956 83.1065 100.594 83.0199 96.2267C82.9776 94.1659 83.2736 92.0798 83.6076 90.036C84.117 86.9259 85.248 85.8046 88.419 85.5972C92.5285 85.3285 96.655 85.3137 100.773 85.1973C101.435 85.1783 102.096 85.1952 103.043 85.1952C102.87 82.5992 102.933 80.0794 102.485 77.6548C101.896 74.4621 99.6019 72.8796 95.8961 72.4479C88.4929 71.5826 81.0623 71.5678 73.6233 71.5466C67.8817 71.5297 62.1402 71.3097 56.3965 71.2547C54.68 71.2377 52.9423 71.3393 51.249 71.6101C47.9428 72.1412 45.8394 74.1342 44.8944 77.3437C44.1503 79.872 44.0425 82.4554 44.1545 85.2481C46.5962 85.2481 48.9469 85.21 51.2955 85.2587C53.8217 85.3116 56.3754 85.2397 58.8657 85.5951C61.8189 86.0182 63.2141 87.7997 63.2881 90.7617C63.4065 95.52 63.4762 100.278 63.4974 105.037C63.5037 106.367 63.2691 107.7 63.1422 109.033C62.9731 110.798 61.9816 112.035 60.3941 112.592C59.0221 113.074 57.536 113.396 56.0879 113.459C52.6041 113.612 49.1118 113.569 45.6216 113.61C45.313 113.614 45.0043 113.648 44.6407 113.671C44.6407 115.105 44.6407 116.464 44.6407 117.932C46.4165 117.932 48.1351 117.93 49.8517 117.934C50.1328 117.934 50.4605 117.864 50.6846 117.983C50.9192 118.108 51.1623 118.404 51.1962 118.653C51.2194 118.818 50.9129 119.108 50.6952 119.204C50.4542 119.309 50.1413 119.267 49.8601 119.267C45.8774 119.269 41.8926 119.269 37.9099 119.269C37.7344 119.269 37.5209 119.326 37.3898 119.248C37.096 119.074 36.8423 118.831 36.5717 118.615C36.8613 118.389 37.1446 117.976 37.4427 117.964C39.062 117.898 40.6834 117.932 42.3069 117.932C42.5521 117.932 42.7974 117.932 43.1293 117.932C43.1293 116.506 43.1293 115.116 43.1293 113.5C41.8989 113.5 40.639 113.54 39.3833 113.491C36.3244 113.375 33.2634 113.258 30.2087 113.049C29.3525 112.99 28.49 112.672 27.6782 112.353C26.097 111.731 25.2514 110.616 25.1986 108.811C25.059 104.093 24.7229 99.3791 24.6426 94.661C24.6109 92.8521 24.9702 91.0156 25.3169 89.2236C25.7651 86.9069 27.1096 85.7876 29.9698 85.5972C33.8341 85.3391 37.7111 85.3074 41.5839 85.1804C41.9327 85.1698 42.2837 85.1783 42.7868 85.1783C42.7868 84.0549 42.6895 82.9631 42.81 81.8968C43.0003 80.1915 43.1779 78.4566 43.6408 76.8127C44.7528 72.869 47.539 70.6665 51.5196 70.1608C53.809 69.871 56.1555 69.9598 58.4746 69.9683C63.0555 69.9852 67.6365 70.0635 72.2154 70.1143C72.3126 70.1164 72.412 70.0699 72.5621 70.0339C72.5621 66.9005 72.5621 63.7777 72.5621 60.5427C72.0843 60.5152 71.6087 60.4792 71.1309 60.4644C66.3407 60.3036 61.5483 60.2042 56.7623 59.9672C52.1538 59.7409 49.4395 57.2189 48.727 52.6574C48.5474 51.5107 48.3888 50.347 48.3888 49.1918C48.393 43.4814 48.3085 37.7669 48.5389 32.0628C48.7736 26.2721 52.1728 22.7452 57.9503 22.559C66.0806 22.2966 74.2258 22.3918 82.3645 22.4024C85.6053 22.4066 88.8523 22.5167 92.0846 22.7452C93.6066 22.8531 95.1689 23.1704 96.5937 23.7057C100.297 25.1 102.17 27.9774 102.194 31.8576C102.232 38.4502 102.166 45.0471 101.959 51.6355C101.796 56.7936 99.0142 59.6626 93.6975 60.1301C89.9854 60.4581 86.2395 60.4137 82.5083 60.4792C79.7242 60.5321 76.9443 60.4919 74.0461 60.4919ZM74.1623 59.2204C74.1645 59.1844 74.1645 59.1484 74.1666 59.1125C78.608 59.1125 83.0495 59.159 87.4888 59.0934C89.7719 59.0596 92.0761 58.9877 94.3275 58.6491C98.5216 58.0165 100.386 55.7992 100.566 51.5805C100.623 50.2772 100.657 48.9718 100.665 47.6685C100.705 42.1718 100.815 36.673 100.726 31.1785C100.682 28.4217 99.234 26.2805 96.6444 25.2756C94.9384 24.6133 93.0655 24.1394 91.2453 24.0654C84.5567 23.7967 77.8597 23.6443 71.1668 23.6168C66.5584 23.5978 61.9351 23.6909 57.3415 24.04C52.9825 24.3722 50.4457 26.9533 50.006 31.2758C49.2999 38.2027 49.4881 45.1529 50.0377 52.0756C50.3717 56.2816 52.9127 58.4968 57.1576 58.6661C62.8209 58.8924 68.4927 59.0384 74.1623 59.2204ZM103.234 112.006C103.234 112.01 103.234 112.014 103.234 112.018C107.424 112.018 111.618 112.118 115.803 111.987C118.924 111.887 120.344 110.48 120.386 107.504C120.467 101.977 120.448 96.4467 120.353 90.9204C120.308 88.2906 119.313 87.1734 116.71 86.8561C114.592 86.5958 112.434 86.6276 110.292 86.6234C104.27 86.6107 98.2447 86.6064 92.222 86.6889C90.5477 86.7122 88.8671 86.9957 87.2055 87.2602C86.0175 87.4485 85.2713 88.2017 85.0979 89.4436C84.8886 90.9394 84.4679 92.4374 84.4954 93.929C84.5863 98.8883 84.8633 103.845 85.0112 108.805C85.0493 110.121 85.7131 110.882 86.8588 111.174C88.3154 111.545 89.81 111.93 91.2982 111.97C95.2746 112.078 99.2552 112.006 103.234 112.006ZM44.7782 112.325C44.7803 112.228 44.7803 112.129 44.7824 112.031C48.9025 112.031 53.0247 112.131 57.1407 111.999C60.5907 111.889 61.9394 110.559 61.9901 107.104C62.0704 101.613 61.9774 96.1188 61.8548 90.6284C61.802 88.2863 60.8147 87.1629 58.5084 86.8815C56.3902 86.6212 54.2318 86.6255 52.0925 86.6191C45.9641 86.6043 39.8336 86.6022 33.7073 86.6911C31.9992 86.7164 30.2827 87.0084 28.5915 87.3088C27.5493 87.4929 26.8496 88.2038 26.7058 89.3251C26.4331 91.4853 25.9363 93.6497 25.9511 95.8099C25.9786 99.8192 26.3232 103.828 26.505 107.838C26.6191 110.345 27.1582 111.035 29.6062 111.572C30.0861 111.678 30.5744 111.786 31.0606 111.805C35.6331 111.989 40.2056 112.154 44.7782 112.325Z" fill="#3760E7"/>
</g>
<circle cx="75" cy="75" r="74.5" stroke="#3760E7"/>
<defs>
<clipPath id="clip0_580_510">
<rect width="115" height="117" fill="white" transform="translate(17 13)"/>
</clipPath>
</defs>
</svg>
