<svg width="218" height="214" viewBox="0 0 218 214" fill="none" xmlns="http://www.w3.org/2000/svg">
<path d="M218 195.915C218 205.751 210.026 213.726 200.189 213.726H17.8105C7.9741 213.726 1.0106e-07 205.751 0 195.915V189H16.1934C22.9392 189 43.331 186.16 50.8252 185.059C106.613 176.87 157.26 157.942 218 157.325V195.915ZM29.54 161.921C36.6071 161.921 73.1611 166.818 79.9561 168.519C81.8483 168.993 82.7861 168.468 82.0908 170.188C55.4192 173.661 28.0902 178.225 0 176.787V161.921H29.54ZM0 137.892C46.3782 138.8 86.654 151.503 126.319 161.165L114.201 164.018L107.041 164.613C87.6218 160.903 68.8846 156.149 48.6602 153.301C41.9977 152.362 23.7359 149.888 17.8613 149.888H0V137.892ZM0 113.755C60.9552 119.956 108.415 141.148 160.467 155.528L143.794 157.857C97.6615 145.81 54.1054 129.286 0 125.523V113.755ZM200.189 0C210.026 0 218 7.97411 218 17.8105V152.011C206.032 151.538 193.496 153.582 182.795 153.592C176.185 153.599 155.032 146.6 148.3 144.484C100.954 129.612 56.9972 108.779 0 101.869V17.8105C0 7.97411 7.9741 0 17.8105 0H200.189ZM72.0156 81.2812C71.97 81.8398 71.7993 82.2795 71.5029 82.5986C71.2181 82.9177 70.9043 83.077 70.5625 83.0771H69.707V87.0947H71.7588L72.1006 84.3594H81.334L81.6758 87.0947H83.7275V83.0771H82.2744V72.3906H72.6992L72.0156 81.2812ZM86.8926 81.2812C86.847 81.8398 86.6762 82.2795 86.3799 82.5986C86.095 82.9177 85.7813 83.0771 85.4395 83.0771H84.585V87.0947H86.6367L86.9785 84.3594H96.2109L96.5527 87.0947H98.6045V83.0771H97.1514V72.3906H87.5771L86.8926 81.2812ZM62.6875 72.0488C61.6616 72.0488 60.7263 72.1854 59.8828 72.459C59.0395 72.7325 58.316 73.1373 57.7119 73.6729C57.1192 74.2086 56.6567 74.8697 56.3262 75.6562C56.007 76.4428 55.8477 77.3491 55.8477 78.375C55.8477 79.4009 56.007 80.3072 56.3262 81.0938C56.6567 81.8803 57.1192 82.5414 57.7119 83.0771C58.316 83.6127 59.0395 84.0175 59.8828 84.291C60.7263 84.5646 61.6616 84.7012 62.6875 84.7012C63.713 84.7011 64.6417 84.5645 65.4736 84.291C66.317 84.0175 67.0353 83.6127 67.6279 83.0771C68.232 82.5415 68.6997 81.8802 69.0303 81.0938C69.3608 80.3072 69.5264 79.4009 69.5264 78.375C69.5264 77.3491 69.3608 76.4428 69.0303 75.6562C68.6997 74.8698 68.232 74.2085 67.6279 73.6729C67.0353 73.1373 66.317 72.7325 65.4736 72.459C64.6417 72.1855 63.713 72.0489 62.6875 72.0488ZM21.1426 84.3594H24.3906L30.8027 74.6133H30.9736V84.3594H33.4531V72.3906H30.2041L23.792 82.1367H23.6211V72.3906H21.1426V84.3594ZM41.8301 84.3594H44.3096V73.6729H51.3193V84.3594H53.7988V72.3906H41.8301V84.3594ZM100.487 84.3594H110.918V83.0771H102.967V78.8877H109.208V77.6055H102.967V73.6729H110.918V72.3906H100.487V84.3594ZM112.627 84.3594H115.105V80.7686H118.782C119.637 80.7685 120.401 80.6775 121.073 80.4951C121.757 80.3014 122.333 80.028 122.8 79.6748C123.267 79.3102 123.626 78.8711 123.877 78.3584C124.128 77.8342 124.253 77.2411 124.253 76.5801C124.253 75.919 124.128 75.3313 123.877 74.8184C123.626 74.2942 123.267 73.8552 122.8 73.502C122.333 73.1373 121.757 72.864 121.073 72.6816C120.401 72.4879 119.637 72.3906 118.782 72.3906H112.627V84.3594ZM127.934 78.2891L124.258 84.3594H127.078L130.241 79.0586H132.636V84.3594H135.114V79.0586H137.509L140.672 84.3594H143.492L139.816 78.2891L143.236 72.3906H140.501L137.423 77.7764H135.114V72.3906H132.636V77.7764H130.327L127.25 72.3906H124.514L127.934 78.2891ZM144.853 84.3594H147.332V79.0586H150.324L154.257 84.3594H157.077L152.547 78.2891L156.821 72.3906H154.085L150.153 77.7764H147.332V72.3906H144.853V84.3594ZM157.418 84.3594H159.88L161.009 81.4531H167.506L168.635 84.3594H171.097L166.224 72.3906H162.291L157.418 84.3594ZM62.6875 73.2451C63.2687 73.2452 63.8101 73.3486 64.3115 73.5537C64.8244 73.7589 65.2694 74.0725 65.6455 74.4941C66.0214 74.9158 66.3177 75.4512 66.5342 76.1006C66.7622 76.7389 66.876 77.4973 66.876 78.375C66.876 79.2526 66.7621 80.0163 66.5342 80.666C66.3177 81.3041 66.0215 81.8342 65.6455 82.2559C65.2694 82.6775 64.8244 82.9911 64.3115 83.1963C63.8101 83.4014 63.2687 83.5048 62.6875 83.5049C62.1062 83.5049 61.5588 83.4014 61.0459 83.1963C60.5444 82.9911 60.1056 82.6776 59.7295 82.2559C59.3534 81.8341 59.0512 81.3043 58.8232 80.666C58.6067 80.0163 58.498 79.2527 58.498 78.375C58.498 77.4973 58.6067 76.7389 58.8232 76.1006C59.0512 75.4511 59.3534 74.9158 59.7295 74.4941C60.1056 74.0724 60.5444 73.7589 61.0459 73.5537C61.5588 73.3486 62.1062 73.2451 62.6875 73.2451ZM79.7949 83.0771H73.2119C73.417 82.9632 73.6055 82.815 73.7764 82.6328C73.9245 82.4847 74.0612 82.2962 74.1865 82.0684C74.3119 81.8404 74.3864 81.5776 74.4092 81.2812L75.0078 73.6729H79.7949V83.0771ZM94.6729 83.0771H88.0898C88.295 82.9632 88.4833 82.8152 88.6543 82.6328C88.8025 82.4846 88.9391 82.2963 89.0645 82.0684C89.1898 81.8404 89.2633 81.5776 89.2861 81.2812L89.8848 73.6729H94.6729V83.0771ZM166.907 80.1699H161.607L164.172 73.8438H164.343L166.907 80.1699ZM118.782 73.6729C119.683 73.6729 120.378 73.9129 120.868 74.3916C121.369 74.859 121.62 75.5886 121.62 76.5801C121.62 77.5714 121.37 78.3065 120.868 78.7852C120.378 79.2525 119.683 79.4863 118.782 79.4863H115.105V73.6729H118.782ZM107.486 51.0488C106.46 51.0488 105.525 51.1854 104.682 51.459C103.838 51.7325 103.115 52.1373 102.511 52.6729C101.918 53.2086 101.456 53.8697 101.125 54.6562C100.806 55.4428 100.646 56.3491 100.646 57.375C100.646 58.4009 100.806 59.3072 101.125 60.0938C101.456 60.8803 101.918 61.5414 102.511 62.0771C103.115 62.6127 103.838 63.0175 104.682 63.291C105.525 63.5646 106.46 63.7012 107.486 63.7012C108.512 63.7011 109.441 63.5645 110.272 63.291C111.116 63.0174 111.835 62.6129 112.428 62.0771C113.032 61.5415 113.499 60.8801 113.829 60.0938C114.16 59.3072 114.325 58.4009 114.325 57.375C114.325 56.3491 114.16 55.4428 113.829 54.6562C113.499 53.8699 113.032 53.2085 112.428 52.6729C111.835 52.1371 111.116 51.7326 110.272 51.459C109.441 51.1855 108.512 51.0489 107.486 51.0488ZM35.7598 60.4531C35.7141 61.1368 35.56 61.6213 35.2979 61.9062C35.0357 62.1911 34.7335 62.333 34.3916 62.333H33.8789V63.4443C33.9701 63.4785 34.0787 63.5075 34.2041 63.5303C34.432 63.5872 34.694 63.6162 34.9902 63.6162C35.9362 63.6162 36.6772 63.3709 37.2129 62.8809C37.76 62.3794 38.0735 61.57 38.1533 60.4531L38.666 52.6729H44.0518V63.3594H46.5312V51.3906H36.3584L35.7598 60.4531ZM21.1426 63.3594H23.6211V58.0586H26.6133L30.5459 63.3594H33.3672L28.8359 57.2891L33.1104 51.3906H30.375L26.4424 56.7764H23.6211V51.3906H21.1426V63.3594ZM48.9268 63.3594H52.1748L58.5869 53.6133H58.7578V63.3594H61.2373V51.3906H57.9883L51.5771 61.1367H51.4053V51.3906H48.9268V63.3594ZM63.6367 63.3594H74.0664V62.0771H66.1162V57.8877H72.3564V56.6055H66.1162V52.6729H74.0664V51.3906H63.6367V63.3594ZM75.7754 63.3594H78.2549V58.1445H85.2656V63.3594H87.7441V51.3906H85.2656V56.8623H78.2549V51.3906H75.7754V63.3594ZM89.1094 52.6729H93.7256V63.3594H96.2051V52.6729H100.821V51.3906H89.1094V52.6729ZM116.384 63.3594H122.71C124.545 63.3594 125.884 63.0632 126.728 62.4707C127.582 61.8666 128.01 61.0512 128.01 60.0254C128.01 59.2503 127.766 58.6171 127.275 58.127C126.797 57.6254 126.129 57.2891 125.274 57.1182C125.958 56.9016 126.472 56.5715 126.813 56.127C127.155 55.6824 127.326 55.1578 127.326 54.5537C127.326 54.0864 127.224 53.659 127.019 53.2715C126.813 52.884 126.5 52.5538 126.078 52.2803C125.656 51.9953 125.12 51.7781 124.471 51.6299C123.833 51.4704 123.075 51.3906 122.197 51.3906H116.384V63.3594ZM107.486 52.2451C108.068 52.2452 108.609 52.3486 109.11 52.5537C109.623 52.7589 110.068 53.0724 110.444 53.4941C110.82 53.9158 111.117 54.4512 111.333 55.1006C111.561 55.7389 111.675 56.4973 111.675 57.375C111.675 58.2526 111.561 59.0163 111.333 59.666C111.117 60.3041 110.82 60.8342 110.444 61.2559C110.068 61.6775 109.623 61.9911 109.11 62.1963C108.609 62.4014 108.068 62.5048 107.486 62.5049C106.905 62.5049 106.358 62.4015 105.845 62.1963C105.343 61.9911 104.904 61.6776 104.528 61.2559C104.152 60.8341 103.85 60.3043 103.622 59.666C103.406 59.0163 103.297 58.2527 103.297 57.375C103.297 56.4973 103.405 55.7389 103.622 55.1006C103.85 54.4511 104.152 53.9158 104.528 53.4941C104.904 53.0724 105.343 52.7589 105.845 52.5537C106.358 52.3486 106.905 52.2451 107.486 52.2451ZM122.71 57.8877C123.565 57.8877 124.22 58.0647 124.676 58.418C125.132 58.7599 125.36 59.2959 125.36 60.0254C125.36 60.7092 125.132 61.2225 124.676 61.5645C124.22 61.9062 123.565 62.0771 122.71 62.0771H118.863V57.8877H122.71ZM122.197 52.6729C123.018 52.6729 123.634 52.8384 124.044 53.1689C124.465 53.4881 124.676 53.9498 124.676 54.5537C124.676 55.9215 123.85 56.6054 122.197 56.6055H118.863V52.6729H122.197ZM27.6396 30.0488C26.6138 30.0488 25.6785 30.1854 24.835 30.459C23.9917 30.7325 23.2681 31.1373 22.6641 31.6729C22.0714 32.2085 21.6099 32.8699 21.2793 33.6562C20.9601 34.4428 20.7998 35.3491 20.7998 36.375C20.7998 37.4009 20.9601 38.3072 21.2793 39.0938C21.6099 39.8802 22.0714 40.5415 22.6641 41.0771C23.2681 41.6127 23.9917 42.0175 24.835 42.291C25.6785 42.5646 26.6138 42.7012 27.6396 42.7012C28.6654 42.7012 29.5947 42.5646 30.4268 42.291C31.2701 42.0174 31.9884 41.6128 32.5811 41.0771C33.1851 40.5415 33.6519 39.8801 33.9824 39.0938C34.313 38.3072 34.4785 37.4009 34.4785 36.375C34.4785 35.3491 34.313 34.4428 33.9824 33.6562C33.6519 32.8699 33.1851 32.2085 32.5811 31.6729C31.9884 31.1372 31.2701 30.7326 30.4268 30.459C29.5947 30.1854 28.6654 30.0488 27.6396 30.0488ZM56.459 30.0488C55.4333 30.0488 54.4987 30.1855 53.6553 30.459C52.8118 30.7325 52.0875 31.1371 51.4834 31.6729C50.8907 32.2085 50.4292 32.8698 50.0986 33.6562C49.7795 34.4428 49.6201 35.3491 49.6201 36.375C49.6201 37.4009 49.7847 38.3072 50.1152 39.0938C50.4458 39.8803 50.9134 40.5414 51.5176 41.0771C52.1331 41.6129 52.8688 42.0175 53.7236 42.291C54.5898 42.5645 55.5586 42.7012 56.6299 42.7012C57.6672 42.7012 58.648 42.5243 59.5713 42.1709C60.4944 41.8176 61.2811 41.3394 61.9307 40.7354L61.0752 39.709C60.4255 40.3131 59.7415 40.7518 59.0234 41.0254C58.3168 41.2875 57.5758 41.4189 56.8008 41.4189C56.1398 41.4189 55.5301 41.3217 54.9717 41.1279C54.4246 40.9228 53.9455 40.6154 53.5352 40.2051C53.1363 39.7948 52.8227 39.2762 52.5947 38.6494C52.3782 38.0111 52.2695 37.2527 52.2695 36.375C52.2695 35.4974 52.3782 34.7451 52.5947 34.1182C52.8227 33.4798 53.131 32.9553 53.5186 32.5449C53.9061 32.1347 54.3677 31.8324 54.9033 31.6387C55.439 31.4336 56.0145 31.3311 56.6299 31.3311C57.4049 31.3311 58.1459 31.4677 58.8525 31.7412C59.5706 32.0034 60.2546 32.4369 60.9043 33.041L61.7598 32.0146C61.11 31.4105 60.3227 30.9325 59.3994 30.5791C58.4762 30.2258 57.4962 30.0488 56.459 30.0488ZM64.4961 39.4531C64.4505 40.1368 64.2963 40.6213 64.0342 40.9062C63.772 41.1911 63.4698 41.333 63.1279 41.333H62.6152V42.4443C62.7063 42.4785 62.8143 42.5075 62.9395 42.5303C63.1674 42.5873 63.4302 42.6162 63.7266 42.6162C64.6725 42.6162 65.4135 42.3709 65.9492 41.8809C66.4963 41.3794 66.8098 40.57 66.8896 39.4531L67.4023 31.6729H72.7881V42.3594H75.2676V30.3906H65.0938L64.4961 39.4531ZM36.5371 42.3594H42.8633C43.741 42.3594 44.5108 42.2735 45.1719 42.1025C45.8328 41.9316 46.3856 41.6863 46.8301 41.3672C47.2745 41.0481 47.6057 40.6723 47.8223 40.2393C48.0502 39.7947 48.1641 39.3042 48.1641 38.7686C48.164 38.233 48.0501 37.7485 47.8223 37.3154C47.6057 36.8709 47.2746 36.4891 46.8301 36.1699C46.3856 35.8508 45.8329 35.6055 45.1719 35.4346C44.5108 35.2636 43.741 35.1777 42.8633 35.1777H39.0166V31.6729H46.7959V30.3906H36.5371V42.3594ZM81.3389 38.8545H82.7061L80.8252 42.3594H83.4756L89.8877 30.3906H87.2373L83.4756 37.4014H83.3047L79.2871 30.3906H76.4658L81.3389 38.8545ZM93.9043 36.2891L90.2285 42.3594H93.0498L96.2129 37.0586H98.6064V42.3594H101.086V37.0586H103.479L106.643 42.3594H109.464L105.787 36.2891L109.207 30.3906H106.472L103.394 35.7764H101.086V30.3906H98.6064V35.7764H96.2979L93.2207 30.3906H90.4844L93.9043 36.2891ZM110.823 42.3594H114.072L120.483 32.6133H120.654V42.3594H123.134V30.3906H119.886L113.474 40.1367H113.303V30.3906H110.823V42.3594ZM125.534 42.3594H131.86C133.695 42.3593 135.034 42.0633 135.878 41.4707C136.733 40.8666 137.16 40.0512 137.16 39.0254C137.16 38.2503 136.915 37.6171 136.425 37.127C135.946 36.6256 135.279 36.2891 134.425 36.1182C135.109 35.9016 135.622 35.5715 135.964 35.127C136.306 34.6824 136.477 34.1578 136.477 33.5537C136.477 33.0865 136.374 32.659 136.169 32.2715C135.964 31.884 135.65 31.5538 135.229 31.2803C134.807 30.9953 134.271 30.7781 133.621 30.6299C132.983 30.4703 132.224 30.3906 131.347 30.3906H125.534V42.3594ZM137.849 42.3594H140.312L141.439 39.4531H147.937L149.065 42.3594H151.527L146.654 30.3906H142.722L137.849 42.3594ZM152.9 42.3594H155.38V37.1445H162.39V42.3594H164.869V30.3906H162.39V35.8623H155.38V30.3906H152.9V42.3594ZM167.261 42.3594H170.509L176.921 32.6133H177.092V42.3594H179.571V30.3906H176.322L169.91 40.1367H169.739V30.3906H167.261V42.3594ZM181.971 42.3594H192.4V41.0771H184.45V36.8877H190.69V35.6055H184.45V31.6729H192.4V30.3906H181.971V42.3594ZM27.6396 31.2451C28.2209 31.2451 28.7622 31.3486 29.2637 31.5537C29.7766 31.7589 30.2215 32.0724 30.5977 32.4941C30.9736 32.9158 31.2698 33.4512 31.4863 34.1006C31.7143 34.7389 31.8281 35.4973 31.8281 36.375C31.8281 37.2527 31.7143 38.0163 31.4863 38.666C31.2698 39.3042 30.9737 39.8342 30.5977 40.2559C30.2215 40.6776 29.7766 40.9911 29.2637 41.1963C28.7622 41.4014 28.2209 41.5049 27.6396 41.5049C27.0583 41.5049 26.511 41.4015 25.998 41.1963C25.4965 40.9911 25.0578 40.6776 24.6816 40.2559C24.3055 39.8341 24.0033 39.3043 23.7754 38.666C23.5588 38.0163 23.4502 37.2527 23.4502 36.375C23.4502 35.4973 23.5588 34.7389 23.7754 34.1006C24.0033 33.4511 24.3056 32.9158 24.6816 32.4941C25.0578 32.0724 25.4965 31.7589 25.998 31.5537C26.511 31.3485 27.0583 31.2451 27.6396 31.2451ZM42.8633 36.4609C43.684 36.4609 44.3286 36.6658 44.7959 37.0762C45.2744 37.4751 45.5136 38.0393 45.5137 38.7686C45.5137 39.4979 45.2745 40.0682 44.7959 40.4785C44.3286 40.8775 43.684 41.0771 42.8633 41.0771H39.0166V36.4609H42.8633ZM131.86 36.8877C132.715 36.8877 133.37 37.0647 133.826 37.418C134.282 37.7599 134.51 38.2959 134.51 39.0254C134.51 39.7092 134.282 40.2225 133.826 40.5645C133.37 40.9062 132.715 41.0771 131.86 41.0771H128.013V36.8877H131.86ZM147.339 38.1699H142.038L144.603 31.8438H144.773L147.339 38.1699ZM131.347 31.6729C132.167 31.6729 132.783 31.8385 133.193 32.1689C133.615 32.4881 133.826 32.9496 133.826 33.5537C133.826 34.9216 132.999 35.6055 131.347 35.6055H128.013V31.6729H131.347Z" fill="#3760E7"/>
</svg>
