<svg width="218" height="218" viewBox="0 0 218 218" fill="none" xmlns="http://www.w3.org/2000/svg">
<g clip-path="url(#clip0_600_5067)">
<rect width="218" height="218" rx="18.1667" fill="#D8E3FD"/>
<path d="M31.0114 133.994H26.3026V144.894H23.7738V133.994H19.065V132.686H31.0114V133.994ZM44.8776 132.686L38.3376 144.894H35.6344L37.5528 141.318H36.1576L31.1872 132.686H34.0648L38.1632 139.836H38.3376L42.1744 132.686H44.8776ZM52.5498 132.686C53.4218 132.686 54.2008 132.784 54.8868 132.982C55.5844 133.168 56.1715 133.447 56.6482 133.819C57.1249 134.18 57.4912 134.627 57.7469 135.162C58.0027 135.685 58.1306 136.284 58.1306 136.958C58.1306 137.633 58.0027 138.237 57.7469 138.772C57.4912 139.295 57.1249 139.743 56.6482 140.115C56.1715 140.475 55.5844 140.754 54.8868 140.952C54.2008 141.138 53.4218 141.231 52.5498 141.231H48.8002V144.894H46.2714V132.686H52.5498ZM48.8002 133.994V139.923H52.5498C53.4683 139.923 54.1776 139.685 54.6775 139.208C55.1891 138.72 55.4449 137.97 55.4449 136.958C55.4449 135.947 55.1891 135.203 54.6775 134.726C54.1776 134.238 53.4683 133.994 52.5498 133.994H48.8002ZM70.0777 144.894V134.953H69.9033L63.3633 144.894H60.0497V132.686H62.5785V142.626H62.7529L69.2929 132.686H72.6065V144.894H70.0777ZM79.9374 133.645C79.1003 133.645 78.3155 133.767 77.583 134.011C76.8622 134.244 76.1704 134.645 75.5077 135.214L74.7229 134.168C75.3856 133.598 76.1762 133.151 77.0947 132.825C78.0132 132.5 79.0189 132.337 80.1118 132.337C81.0071 132.337 81.7919 132.418 82.4662 132.581C83.1406 132.744 83.7045 132.97 84.1579 133.261C84.6114 133.552 84.9485 133.895 85.1694 134.29C85.402 134.685 85.5182 135.11 85.5182 135.563C85.5182 136.307 85.338 136.923 84.9776 137.412C84.6172 137.888 84.0417 138.261 83.251 138.528C84.123 138.749 84.8032 139.121 85.2915 139.644C85.7915 140.156 86.0414 140.83 86.0414 141.667C86.0414 142.167 85.9194 142.638 85.6752 143.08C85.4427 143.51 85.0706 143.888 84.559 144.213C84.0591 144.527 83.4138 144.777 82.6232 144.963C81.8326 145.149 80.8792 145.242 79.763 145.242C78.6236 145.242 77.5714 145.062 76.6064 144.702C75.653 144.341 74.845 143.853 74.1822 143.237L75.0542 142.19C75.717 142.807 76.4204 143.254 77.1645 143.533C77.9086 143.801 78.7166 143.934 79.5886 143.934C80.263 143.934 80.8385 143.876 81.3152 143.76C81.7919 143.632 82.1756 143.458 82.4662 143.237C82.7685 143.016 82.9894 142.76 83.129 142.469C83.2685 142.167 83.3382 141.842 83.3382 141.493C83.3382 140.795 83.1173 140.26 82.6755 139.888C82.2337 139.505 81.5535 139.313 80.635 139.313H76.9726V138.005H80.2862C81.9721 138.005 82.815 137.249 82.815 135.738C82.815 135.121 82.5651 134.621 82.0651 134.238C81.5652 133.842 80.8559 133.645 79.9374 133.645ZM96.3331 143.15H96.5075L101.042 132.686H104.791V144.894H102.263V135.127H102.088L97.9027 144.894H94.9379L90.7523 135.127H90.5779V144.894H88.0491V132.686H91.7987L96.3331 143.15ZM123.351 144.894V134.953H123.177L116.637 144.894H113.323V132.686H115.852V142.626H116.027L122.567 132.686H125.88V144.894H123.351ZM22.6402 155.994V166.894H20.1114V154.686H30.2266V155.994H22.6402ZM37.0255 155.558C36.4325 155.558 35.8745 155.662 35.3513 155.871C34.8397 156.081 34.3921 156.4 34.0084 156.831C33.6247 157.261 33.3166 157.807 33.0841 158.47C32.8632 159.121 32.7527 159.894 32.7527 160.79C32.7527 161.685 32.8632 162.464 33.0841 163.127C33.3166 163.778 33.6247 164.318 34.0084 164.748C34.3921 165.179 34.8397 165.498 35.3513 165.708C35.8745 165.917 36.4325 166.022 37.0255 166.022C37.6185 166.022 38.1707 165.917 38.6823 165.708C39.2055 165.498 39.6589 165.179 40.0426 164.748C40.4263 164.318 40.7286 163.778 40.9495 163.127C41.182 162.464 41.2983 161.685 41.2983 160.79C41.2983 159.894 41.182 159.121 40.9495 158.47C40.7286 157.807 40.4263 157.261 40.0426 156.831C39.6589 156.4 39.2055 156.081 38.6823 155.871C38.1707 155.662 37.6185 155.558 37.0255 155.558ZM37.0255 154.337C38.0719 154.337 39.0195 154.476 39.8682 154.755C40.7286 155.034 41.4611 155.447 42.0657 155.994C42.6819 156.54 43.1586 157.214 43.4957 158.017C43.8329 158.819 44.0015 159.743 44.0015 160.79C44.0015 161.836 43.8329 162.76 43.4957 163.563C43.1586 164.365 42.6819 165.039 42.0657 165.586C41.4611 166.132 40.7286 166.545 39.8682 166.824C39.0195 167.103 38.0719 167.242 37.0255 167.242C35.9791 167.242 35.0257 167.103 34.1653 166.824C33.305 166.545 32.5667 166.132 31.9505 165.586C31.3459 165.039 30.875 164.365 30.5378 163.563C30.2123 162.76 30.0495 161.836 30.0495 160.79C30.0495 159.743 30.2123 158.819 30.5378 158.017C30.875 157.214 31.3459 156.54 31.9505 155.994C32.5667 155.447 33.305 155.034 34.1653 154.755C35.0257 154.476 35.9791 154.337 37.0255 154.337ZM53.0771 165.934C53.8677 165.934 54.6235 165.801 55.3443 165.533C56.0768 165.254 56.7744 164.807 57.4371 164.19L58.3091 165.237C57.6464 165.853 56.8442 166.341 55.9024 166.702C54.9606 167.062 53.9607 167.242 52.9027 167.242C51.8098 167.242 50.8215 167.103 49.9379 166.824C49.0659 166.545 48.316 166.132 47.6882 165.586C47.0719 165.039 46.5952 164.365 46.2581 163.563C45.9209 162.76 45.7523 161.836 45.7523 160.79C45.7523 159.743 45.9151 158.819 46.2406 158.017C46.5778 157.214 47.0487 156.54 47.6533 155.994C48.2695 155.447 49.0078 155.034 49.8682 154.755C50.7285 154.476 51.6819 154.337 52.7283 154.337C53.7863 154.337 54.7862 154.517 55.728 154.877C56.6698 155.238 57.472 155.726 58.1347 156.342L57.2627 157.389C56.6 156.773 55.9024 156.331 55.1699 156.063C54.4491 155.784 53.6933 155.645 52.9027 155.645C52.2749 155.645 51.6877 155.749 51.1413 155.959C50.5948 156.156 50.1239 156.464 49.7286 156.883C49.3333 157.302 49.0194 157.836 48.7869 158.487C48.566 159.127 48.4555 159.894 48.4555 160.79C48.4555 161.685 48.566 162.458 48.7869 163.109C49.0194 163.749 49.3391 164.278 49.7461 164.696C50.1646 165.115 50.653 165.429 51.211 165.638C51.7807 165.836 52.4028 165.934 53.0771 165.934ZM70.7794 155.994H66.0706V166.894H63.5418V155.994H58.833V154.686H70.7794V155.994ZM82.204 166.894V156.953H82.0296L75.4896 166.894H72.176V154.686H74.7048V164.626H74.8792L81.4192 154.686H84.7328V166.894H82.204ZM99.3885 154.686V166.894H96.8597V161.574H89.7093V166.894H87.1805V154.686H89.7093V160.266H96.8597V154.686H99.3885ZM111.855 166.894V156.953H111.681L105.141 166.894H101.827V154.686H104.356V164.626H104.531L111.071 154.686H114.384V166.894H111.855ZM122.238 162.882C121.215 162.882 120.337 162.801 119.605 162.638C118.884 162.475 118.291 162.237 117.826 161.923C117.361 161.609 117.018 161.22 116.797 160.755C116.588 160.29 116.483 159.749 116.483 159.133V154.686H119.012V159.133C119.012 159.958 119.256 160.574 119.744 160.981C120.233 161.377 121.064 161.574 122.238 161.574H125.552V154.686H128.081V166.894H125.552V162.882H122.238ZM142.733 154.686V166.894H140.204V161.574H133.054V166.894H130.525V154.686H133.054V160.266H140.204V154.686H142.733ZM160.955 166.894H158.426V154.686H160.955V166.894ZM151.276 159.22C153.066 159.22 154.415 159.569 155.322 160.266C156.229 160.952 156.682 161.882 156.682 163.057C156.682 164.231 156.229 165.167 155.322 165.865C154.415 166.551 153.066 166.894 151.276 166.894H145.172V154.686H147.701V159.22H151.276ZM147.701 160.528V165.586H151.276C152.113 165.586 152.77 165.376 153.247 164.958C153.735 164.528 153.979 163.894 153.979 163.057C153.979 162.22 153.735 161.592 153.247 161.173C152.77 160.743 152.113 160.528 151.276 160.528H147.701ZM173.423 166.894V156.953H173.249L166.709 166.894H163.395V154.686H165.924V164.626H166.099L172.639 154.686H175.952V166.894H173.423ZM169.499 153.726C168.279 153.726 167.407 153.465 166.883 152.942C166.36 152.418 166.099 151.721 166.099 150.849H168.104C168.104 151.372 168.238 151.75 168.505 151.982C168.773 152.215 169.104 152.331 169.499 152.331C169.895 152.331 170.226 152.215 170.493 151.982C170.761 151.75 170.895 151.372 170.895 150.849H172.9C172.9 151.721 172.639 152.418 172.115 152.942C171.592 153.465 170.72 153.726 169.499 153.726ZM26.5642 181.569C27.4595 181.569 28.2443 181.656 28.9186 181.83C29.593 182.005 30.1569 182.255 30.6103 182.58C31.0637 182.906 31.4009 183.295 31.6218 183.749C31.8544 184.191 31.9706 184.685 31.9706 185.231C31.9706 185.778 31.8544 186.278 31.6218 186.731C31.4009 187.173 31.0637 187.556 30.6103 187.882C30.1569 188.208 29.593 188.458 28.9186 188.632C28.2443 188.806 27.4595 188.894 26.5642 188.894H20.1114V176.686H30.5754V177.994H22.6402V181.569H26.5642ZM22.6402 182.877V187.586H26.5642C27.4013 187.586 28.0583 187.382 28.5349 186.975C29.0233 186.557 29.2674 185.975 29.2674 185.231C29.2674 184.487 29.0233 183.912 28.5349 183.505C28.0583 183.086 27.4013 182.877 26.5642 182.877H22.6402ZM43.8326 188.894V178.953H43.6582L37.1182 188.894H33.8046V176.686H36.3334V186.626H36.5078L43.0478 176.686H46.3614V188.894H43.8326ZM53.6923 177.645C52.8552 177.645 52.0704 177.767 51.3379 178.011C50.617 178.244 49.9252 178.645 49.2625 179.214L48.4777 178.168C49.1404 177.598 49.9311 177.151 50.8496 176.825C51.7681 176.5 52.7738 176.337 53.8667 176.337C54.7619 176.337 55.5467 176.418 56.2211 176.581C56.8954 176.744 57.4593 176.97 57.9128 177.261C58.3662 177.552 58.7034 177.895 58.9243 178.29C59.1568 178.685 59.2731 179.11 59.2731 179.563C59.2731 180.307 59.0929 180.923 58.7324 181.412C58.372 181.888 57.7965 182.261 57.0059 182.528C57.8779 182.749 58.558 183.121 59.0464 183.644C59.5463 184.156 59.7963 184.83 59.7963 185.667C59.7963 186.167 59.6742 186.638 59.43 187.08C59.1975 187.51 58.8255 187.888 58.3139 188.213C57.8139 188.527 57.1687 188.777 56.378 188.963C55.5874 189.149 54.634 189.242 53.5179 189.242C52.3785 189.242 51.3263 189.062 50.3612 188.702C49.4079 188.341 48.5998 187.853 47.9371 187.237L48.8091 186.19C49.4718 186.807 50.1752 187.254 50.9193 187.533C51.6634 187.801 52.4715 187.934 53.3435 187.934C54.0178 187.934 54.5934 187.876 55.07 187.76C55.5467 187.632 55.9304 187.458 56.2211 187.237C56.5234 187.016 56.7443 186.76 56.8838 186.469C57.0233 186.167 57.0931 185.842 57.0931 185.493C57.0931 184.795 56.8722 184.26 56.4304 183.888C55.9886 183.505 55.3084 183.313 54.3899 183.313H50.7275V182.005H54.0411C55.727 182.005 56.5699 181.249 56.5699 179.738C56.5699 179.121 56.3199 178.621 55.82 178.238C55.32 177.842 54.6108 177.645 53.6923 177.645ZM74.0119 176.686V188.894H71.4831V183.574H64.3327V188.894H61.8039V176.686H64.3327V182.266H71.4831V176.686H74.0119ZM78.9796 177.994V182.005H85.3452V183.313H78.9796V187.586H87.0892V188.894H76.4508V176.686H87.0892V177.994H78.9796ZM95.2806 187.934C96.0712 187.934 96.8269 187.801 97.5478 187.533C98.2802 187.254 98.9778 186.807 99.6406 186.19L100.513 187.237C99.8498 187.853 99.0476 188.341 98.1058 188.702C97.1641 189.062 96.1642 189.242 95.1062 189.242C94.0132 189.242 93.025 189.103 92.1414 188.824C91.2694 188.545 90.5194 188.132 89.8916 187.586C89.2754 187.039 88.7987 186.365 88.4615 185.563C88.1243 184.76 87.9558 183.836 87.9558 182.79C87.9558 181.743 88.1185 180.819 88.4441 180.017C88.7812 179.214 89.2521 178.54 89.8567 177.994C90.4729 177.447 91.2112 177.034 92.0716 176.755C92.932 176.476 93.8854 176.337 94.9318 176.337C95.9898 176.337 96.9897 176.517 97.9314 176.877C98.8732 177.238 99.6754 177.726 100.338 178.342L99.4662 179.389C98.8034 178.773 98.1058 178.331 97.3734 178.063C96.6525 177.784 95.8968 177.645 95.1062 177.645C94.4783 177.645 93.8912 177.749 93.3447 177.959C92.7983 178.156 92.3274 178.464 91.9321 178.883C91.5368 179.302 91.2228 179.836 90.9903 180.487C90.7694 181.127 90.659 181.894 90.659 182.79C90.659 183.685 90.7694 184.458 90.9903 185.109C91.2228 185.749 91.5426 186.278 91.9495 186.696C92.3681 187.115 92.8564 187.429 93.4145 187.638C93.9842 187.836 94.6062 187.934 95.2806 187.934Z" fill="#3760E7"/>
<path d="M-3 23.9977V9.03291C26.3438 12.4141 54.8103 6.43043 82.5291 1.98161C83.1891 -0.0317612 82.2993 0.582169 80.5029 0.0269165C74.0526 -1.96388 39.3489 -7.69475 32.6395 -7.69475H-2.99584V-21.7793H21.552C27.1292 -21.7793 44.4665 -18.8834 50.7914 -17.7842C69.9919 -14.4504 87.7804 -8.88652 106.216 -4.54379L113.013 -5.24123L124.519 -8.57954C84.714 -20.5333 44.2618 -36.4665 -2.99584 -35.8661V-50.8309C51.9319 -47.7905 95.1748 -27.2393 141.108 -12.4505L156.937 -15.1772C105.381 -32.7377 58.5702 -58.9792 -2.99584 -64.9155V-79C54.8521 -72.1676 98.3582 -46.3166 145.386 -28.1038C151.778 -25.6277 171.86 -17.4343 178.135 -17.4433C191.474 -17.4591 207.817 -21.5829 222 -17.748L221.912 -12.9697C159.573 -15.0214 108.949 9.23379 52.8469 19.3864C45.7323 20.6752 26.3731 24 19.9687 24H-2.99584L-3 23.9977Z" fill="#3760E7"/>
<path d="M-2.99582 57.9976V43.2074C44.8838 43.5156 84.4004 26.3266 125.346 14.5371C125.748 12.0911 110.392 12.302 114.262 9.94127C114.831 9.59521 128.41 6.3006 129.455 6.24134C134.829 5.9261 138.909 8.23233 143.468 8.05693C147.74 7.89339 155.777 5.36199 158.364 4.4613C160.951 3.56061 154.23 2.44186 149.119 0.695004C157.332 -1.46664 164.332 -2.06395 164.332 -2.06395L175.261 -0.177239C175.261 -0.177239 186.358 -2.08764 191.891 -2.09949L183.971 -5.77809C198.06 -7.84019 208.484 -7.24525 222 -4.34883V1.61228C137.596 5.06096 81.3619 54.7125 -3 58L-2.99582 57.9976Z" fill="#3760E7"/>
<path d="M-2.99582 89V73.5528C58.4567 69.1074 104.287 40.4661 156.321 23.5953C156.321 23.5953 159.552 22.7426 157.37 21.9411C154.603 20.9253 149.164 19.9514 149.164 19.9514C153.349 18.6117 161.162 15.923 164.611 15.1868C165.907 14.9095 171.646 17.498 177.65 16.8154C181.717 16.354 186.295 13.6956 190.939 13.4347L184.021 11.7502C194.221 6.46598 209.153 7.99439 222 9.04051V14.5903C136.054 26.9084 83.2468 77.2574 -3 89H-2.99582Z" fill="#3760E7"/>
<path d="M182 27.323C192.543 21.0678 208.069 21.5961 222 21V27.3394C208.915 28.2136 195.085 28.2323 182 27.323Z" fill="#3760E7"/>
</g>
<defs>
<clipPath id="clip0_600_5067">
<rect width="218" height="218" rx="18.1667" fill="white"/>
</clipPath>
</defs>
</svg>
