<svg width="375" height="94" viewBox="0 0 375 94" fill="none" xmlns="http://www.w3.org/2000/svg">
<g clip-path="url(#clip0_1618_4802)">
<rect x="-18" y="58.76" width="446" height="34.7736" rx="2.24346" transform="rotate(-7.57067 -18 58.76)" fill="#3760E7"/>
<path d="M-6.778 84.4367L-0.875216 64.3963L3.44151 63.8226L14.4009 81.6219L9.8144 82.2314L0.687415 66.4443L2.41411 66.2148L-2.2994 83.8415L-6.778 84.4367ZM-3.10809 79.8227L-2.38986 76.3437L7.32277 75.0528L8.95176 78.2198L-3.10809 79.8227Z" fill="white"/>
<path d="M16.3603 81.3614L13.8455 62.4398L17.4607 61.9593L27.2754 74.244L25.3598 74.4986L31.4901 60.0947L35.0784 59.6178L37.6472 78.5323L33.5463 79.0773L31.8415 66.4575L32.597 66.3571L27.6956 77.8193L25.7261 78.081L17.8661 68.3149L18.7834 68.193L20.4612 80.8164L16.3603 81.3614Z" fill="white"/>
<path d="M51.344 77.0419C49.8511 77.2404 48.4339 77.1811 47.0922 76.8643C45.7684 76.5451 44.5803 76.0061 43.5276 75.2474C42.493 74.4863 41.6358 73.5458 40.9561 72.4257C40.2944 71.3033 39.8702 70.0393 39.6833 68.6337C39.4965 67.2281 39.5759 65.8971 39.9214 64.6408C40.285 63.3822 40.8757 62.2492 41.6936 61.2418C42.5116 60.2345 43.5177 59.4039 44.7121 58.75C45.9065 58.0961 47.2411 57.6712 48.716 57.4752C50.2088 57.2768 51.6081 57.3383 52.9139 57.66C54.2376 57.9792 55.4168 58.5193 56.4514 59.2804C57.5041 60.0391 58.3702 60.9785 59.0499 62.0985C59.7272 63.2005 60.1604 64.4634 60.3497 65.887C60.5365 67.2926 60.4493 68.6338 60.0882 69.9105C59.7247 71.1691 59.1339 72.3021 58.316 73.3095C57.5137 74.2964 56.5153 75.1168 55.3209 75.7707C54.1445 76.4222 52.8189 76.8459 51.344 77.0419ZM50.8212 73.3153C51.6666 73.2029 52.4209 72.956 53.084 72.5744C53.7651 72.1904 54.3396 71.6923 54.8073 71.08C55.275 70.4676 55.6037 69.7729 55.7933 68.9958C56.0009 68.2163 56.0448 67.3761 55.925 66.4751C55.8053 65.574 55.5434 64.7744 55.1394 64.0762C54.7535 63.3756 54.2547 62.7909 53.6433 62.322C53.0498 61.8507 52.3742 61.5187 51.6165 61.326C50.8587 61.1332 50.0571 61.0931 49.2118 61.2054C48.3664 61.3178 47.6032 61.5659 46.922 61.9499C46.2589 62.3314 45.6934 62.8284 45.2257 63.4407C44.758 64.0531 44.4203 64.749 44.2127 65.5284C44.0231 66.3055 43.9882 67.1446 44.108 68.0456C44.2253 68.9286 44.4782 69.7295 44.8666 70.4481C45.2706 71.1463 45.7693 71.731 46.3627 72.2023C46.9742 72.6712 47.6588 73.002 48.4165 73.1947C49.1743 73.3874 49.9759 73.4276 50.8212 73.3153Z" fill="white"/>
<path d="M78.9816 73.3685C77.5259 73.562 76.138 73.5081 74.8178 73.2067C73.5131 72.885 72.3438 72.3435 71.31 71.5823C70.2761 70.8211 69.4195 69.8805 68.7403 68.7604C68.079 67.6379 67.6538 66.3648 67.4646 64.9412C67.2754 63.5176 67.3533 62.1777 67.6984 60.9214C68.0615 59.6628 68.6426 58.5311 69.4418 57.5262C70.2589 56.519 71.2564 55.6988 72.4341 55.0654C73.6094 54.4141 74.9339 53.9905 76.4075 53.7946C78.0429 53.5772 79.5548 53.6697 80.9433 54.072C82.3474 54.4539 83.5718 55.1348 84.6164 56.1146L82.1579 59.0822C81.4127 58.4293 80.6208 57.9752 79.7822 57.7199C78.9412 57.4466 78.0534 57.372 77.1189 57.4962C76.2384 57.6132 75.4488 57.8649 74.7503 58.2511C74.0519 58.6374 73.469 59.1367 73.0017 59.7489C72.5344 60.3612 72.1971 61.0571 71.9898 61.8365C71.8005 62.6136 71.7657 63.4526 71.8854 64.3536C72.0052 65.2547 72.2579 66.0555 72.6437 66.7561C73.0474 67.4544 73.5547 68.038 74.1657 68.5069C74.7767 68.9759 75.4697 69.3056 76.2449 69.496C77.02 69.6864 77.8478 69.7231 78.7284 69.606C79.6629 69.4818 80.5016 69.187 81.2444 68.7215C81.9848 68.238 82.6282 67.5748 83.1746 66.7319L86.3229 68.9543C85.5705 70.173 84.5676 71.159 83.3144 71.9124C82.0792 72.6634 80.6349 73.1488 78.9816 73.3685Z" fill="white"/>
<path d="M89.6779 71.6168L87.1631 52.6952L95.3309 51.6096C97.0201 51.3851 98.5129 51.471 99.8092 51.8672C101.103 52.2454 102.151 52.9039 102.952 53.8427C103.754 54.7815 104.249 55.9627 104.438 57.3863C104.625 58.792 104.454 60.0525 103.926 61.1681C103.395 62.2656 102.554 63.1659 101.404 63.8689C100.254 64.572 98.8344 65.0357 97.1451 65.2602L91.4034 66.0234L93.0892 63.8462L94.0448 71.0364L89.6779 71.6168ZM101.673 70.0225L96.0436 63.7837L100.707 63.1638L106.391 69.3955L101.673 70.0225ZM93.1539 64.3328L90.94 62.5364L96.4391 61.8055C97.7869 61.6264 98.7549 61.2043 99.3432 60.5393C99.9291 59.8562 100.154 59.0011 100.017 57.9739C99.8784 56.9287 99.4381 56.162 98.6966 55.6737C97.955 55.1854 96.9103 55.0308 95.5625 55.21L90.0634 55.9408L91.7276 53.6015L93.1539 64.3328Z" fill="white"/>
<path d="M109.5 68.9823L106.986 50.0607L110.598 49.5806L120.405 61.8662L118.492 62.1206L124.615 47.7176L128.2 47.2411L130.769 66.1555L126.672 66.7001L124.967 54.0802L125.722 53.9799L120.826 65.4414L118.858 65.703L111.003 55.9361L111.92 55.8143L113.598 68.4377L109.5 68.9823Z" fill="white"/>
<path d="M137.886 65.2096L143.789 45.1693L148.106 44.5955L159.065 62.3948L154.478 63.0044L145.351 47.2173L147.078 46.9878L142.365 64.6144L137.886 65.2096ZM141.556 60.5956L142.274 57.1166L151.987 55.8258L153.616 58.9928L141.556 60.5956Z" fill="white"/>
<path d="M161.024 62.1344L158.51 43.2128L162.125 42.7323L171.939 55.017L170.024 55.2716L176.154 40.8677L179.742 40.3908L182.311 59.3052L178.21 59.8502L176.506 47.2304L177.261 47.13L172.36 58.5922L170.39 58.854L162.53 49.0878L163.448 48.9659L165.125 61.5893L161.024 62.1344Z" fill="white"/>
<path d="M196.008 57.8149C194.515 58.0133 193.098 57.9541 191.756 57.6373C190.433 57.318 189.244 56.7791 188.192 56.0204C187.157 55.2593 186.3 54.3187 185.62 53.1987C184.958 52.0763 184.534 50.8123 184.347 49.4066C184.161 48.001 184.24 46.6701 184.585 45.4138C184.949 44.1551 185.54 43.0221 186.358 42.0148C187.176 41.0075 188.182 40.1769 189.376 39.523C190.571 38.8691 191.905 38.4441 193.38 38.2481C194.873 38.0497 196.272 38.1113 197.578 38.4329C198.902 38.7521 200.081 39.2923 201.115 40.0534C202.168 40.8121 203.034 41.7514 203.714 42.8715C204.391 43.9735 204.825 45.2363 205.014 46.6599C205.201 48.0655 205.113 49.4067 204.752 50.6834C204.389 51.9421 203.798 53.0751 202.98 54.0824C202.178 55.0693 201.179 55.8897 199.985 56.5436C198.809 57.1951 197.483 57.6189 196.008 57.8149ZM195.485 54.0882C196.331 53.9759 197.085 53.7289 197.748 53.3473C198.429 52.9634 199.004 52.4652 199.471 51.8529C199.939 51.2406 200.268 50.5459 200.457 49.7688C200.665 48.9893 200.709 48.149 200.589 47.248C200.469 46.347 200.207 45.5474 199.803 44.8492C199.418 44.1486 198.919 43.5638 198.307 43.0949C197.714 42.6236 197.038 42.2916 196.281 42.0989C195.523 41.9062 194.721 41.866 193.876 41.9784C193.03 42.0907 192.267 42.3389 191.586 42.7228C190.923 43.1044 190.357 43.6013 189.89 44.2137C189.422 44.826 189.084 45.5219 188.877 46.3014C188.687 47.0785 188.652 47.9176 188.772 48.8186C188.889 49.7016 189.142 50.5024 189.531 51.221C189.935 51.9192 190.433 52.504 191.027 52.9753C191.638 53.4442 192.323 53.775 193.081 53.9677C193.838 54.1604 194.64 54.2006 195.485 54.0882Z" fill="white"/>
<path d="M223.646 54.1415C222.19 54.335 220.802 54.281 219.482 53.9797C218.177 53.6579 217.008 53.1165 215.974 52.3553C214.94 51.5941 214.084 50.6534 213.404 49.5333C212.743 48.4108 212.318 47.1378 212.129 45.7142C211.939 44.2905 212.017 42.9506 212.363 41.6944C212.726 40.4357 213.307 39.304 214.106 38.2992C214.923 37.292 215.92 36.4717 217.098 35.8384C218.273 35.187 219.598 34.7634 221.072 34.5675C222.707 34.3502 224.219 34.4427 225.607 34.845C227.011 35.2269 228.236 35.9077 229.28 36.8876L226.822 39.8551C226.077 39.2023 225.285 38.7482 224.446 38.4929C223.605 38.2195 222.717 38.1449 221.783 38.2691C220.902 38.3862 220.113 38.6378 219.414 39.0241C218.716 39.4103 218.133 39.9096 217.666 40.5219C217.198 41.1342 216.861 41.83 216.654 42.6095C216.465 43.3865 216.43 44.2256 216.55 45.1266C216.669 46.0276 216.922 46.8285 217.308 47.5291C217.711 48.2273 218.219 48.8109 218.83 49.2799C219.441 49.7489 220.134 50.0785 220.909 50.2689C221.684 50.4593 222.512 50.496 223.392 50.379C224.327 50.2548 225.166 49.9599 225.908 49.4944C226.649 49.0109 227.292 48.3477 227.839 47.5049L230.987 49.7272C230.235 50.9459 229.232 51.932 227.979 52.6854C226.743 53.4364 225.299 53.9218 223.646 54.1415Z" fill="white"/>
<path d="M234.342 52.3898L231.827 33.4682L239.995 32.3826C241.684 32.1581 243.177 32.2439 244.473 32.6402C245.767 33.0184 246.815 33.6769 247.616 34.6157C248.418 35.5545 248.913 36.7357 249.102 38.1593C249.289 39.5649 249.118 40.8255 248.59 41.941C248.059 43.0386 247.219 43.9388 246.068 44.6419C244.918 45.3449 243.498 45.8087 241.809 46.0332L236.067 46.7963L237.753 44.6192L238.709 51.8094L234.342 52.3898ZM246.338 50.7955L240.708 44.5566L245.371 43.9368L251.055 50.1685L246.338 50.7955ZM237.818 45.1057L235.604 43.3093L241.103 42.5785C242.451 42.3993 243.419 41.9772 244.007 41.3122C244.593 40.6291 244.818 39.774 244.681 38.7469C244.542 37.7017 244.102 36.9349 243.361 36.4466C242.619 35.9584 241.574 35.8038 240.227 35.9829L234.727 36.7138L236.392 34.3745L237.818 45.1057Z" fill="white"/>
<path d="M254.164 49.7552L251.65 30.8336L255.262 30.3535L265.069 42.6391L263.156 42.8935L269.279 28.4905L272.864 28.014L275.433 46.9285L271.336 47.473L269.631 34.8532L270.386 34.7529L265.49 46.2144L263.522 46.4759L255.668 36.709L256.584 36.5872L258.262 49.2107L254.164 49.7552Z" fill="white"/>
<path d="M282.441 45.9975L288.344 25.9571L292.66 25.3834L303.62 43.1826L299.033 43.7922L289.906 28.0051L291.633 27.7756L286.919 45.4022L282.441 45.9975ZM286.111 41.3835L286.829 37.9045L296.542 36.6136L298.171 39.7806L286.111 41.3835Z" fill="white"/>
<path d="M305.579 42.9222L303.064 24.0006L306.679 23.5201L316.494 35.8048L314.579 36.0594L320.709 21.6555L324.297 21.1786L326.866 40.093L322.765 40.6381L321.06 28.0182L321.816 27.9178L316.914 39.3801L314.945 39.6418L307.085 29.8757L308.002 29.7538L309.68 42.3772L305.579 42.9222Z" fill="white"/>
<path d="M340.563 38.6027C339.07 38.8011 337.653 38.7419 336.311 38.4251C334.987 38.1059 333.799 37.5669 332.746 36.8082C331.712 36.0471 330.855 35.1066 330.175 33.9865C329.513 32.8641 329.089 31.6001 328.902 30.1945C328.715 28.7889 328.795 27.4579 329.14 26.2016C329.504 24.943 330.094 23.81 330.912 22.8026C331.73 21.7953 332.736 20.9647 333.931 20.3108C335.125 19.6569 336.46 19.232 337.935 19.036C339.428 18.8375 340.827 18.8991 342.133 19.2207C343.456 19.54 344.636 20.0801 345.67 20.8412C346.723 21.5999 347.589 22.5393 348.269 23.6593C348.946 24.7613 349.379 26.0242 349.568 27.4478C349.755 28.8534 349.668 30.1945 349.307 31.4712C348.943 32.7299 348.353 33.8629 347.535 34.8702C346.732 35.8572 345.734 36.6776 344.54 37.3314C343.363 37.9829 342.038 38.4067 340.563 38.6027ZM340.04 34.8761C340.885 34.7637 341.64 34.5167 342.303 34.1352C342.984 33.7512 343.558 33.2531 344.026 32.6408C344.494 32.0284 344.822 31.3337 345.012 30.5566C345.22 29.7771 345.264 28.9369 345.144 28.0358C345.024 27.1348 344.762 26.3352 344.358 25.637C343.972 24.9364 343.473 24.3517 342.862 23.8828C342.269 23.4115 341.593 23.0795 340.835 22.8867C340.077 22.694 339.276 22.6539 338.431 22.7662C337.585 22.8786 336.822 23.1267 336.141 23.5107C335.478 23.8922 334.912 24.3892 334.444 25.0015C333.977 25.6138 333.639 26.3098 333.431 27.0892C333.242 27.8663 333.207 28.7054 333.327 29.6064C333.444 30.4894 333.697 31.2902 334.085 32.0089C334.489 32.7071 334.988 33.2918 335.581 33.7631C336.193 34.232 336.878 34.5628 337.635 34.7555C338.393 34.9482 339.195 34.9884 340.04 34.8761Z" fill="white"/>
<path d="M368.2 34.9291C366.745 35.1226 365.357 35.0686 364.037 34.7673C362.732 34.4455 361.563 33.9041 360.529 33.1429C359.495 32.3817 358.638 31.441 357.959 30.3209C357.298 29.1984 356.873 27.9254 356.683 26.5018C356.494 25.0781 356.572 23.7382 356.917 22.482C357.28 21.2233 357.861 20.0916 358.661 19.0868C359.478 18.0796 360.475 17.2593 361.653 16.626C362.828 15.9746 364.153 15.551 365.626 15.3551C367.262 15.1378 368.774 15.2303 370.162 15.6326C371.566 16.0145 372.791 16.6953 373.835 17.6752L371.377 20.6427C370.631 19.9899 369.84 19.5358 369.001 19.2805C368.16 19.0071 367.272 18.9325 366.338 19.0567C365.457 19.1738 364.668 19.4254 363.969 19.8117C363.271 20.1979 362.688 20.6972 362.22 21.3095C361.753 21.9218 361.416 22.6176 361.209 23.3971C361.019 24.1741 360.984 25.0132 361.104 25.9142C361.224 26.8152 361.477 27.6161 361.862 28.3167C362.266 29.0149 362.773 29.5985 363.384 30.0675C363.995 30.5365 364.688 30.8661 365.464 31.0565C366.239 31.2469 367.067 31.2836 367.947 31.1666C368.882 31.0424 369.72 30.7475 370.463 30.282C371.204 29.7985 371.847 29.1353 372.393 28.2925L375.542 30.5148C374.789 31.7335 373.786 32.7196 372.533 33.473C371.298 34.224 369.854 34.7094 368.2 34.9291Z" fill="white"/>
<path d="M378.897 33.1774L376.382 14.2558L384.55 13.1702C386.239 12.9457 387.732 13.0315 389.028 13.4278C390.322 13.806 391.369 14.4645 392.171 15.4033C392.972 16.3421 393.468 17.5233 393.657 18.9469C393.844 20.3525 393.673 21.6131 393.144 22.7286C392.614 23.8262 391.773 24.7264 390.623 25.4295C389.473 26.1325 388.053 26.5963 386.364 26.8208L380.622 27.5839L382.308 25.4068L383.264 32.597L378.897 33.1774ZM390.892 31.5831L385.262 25.3442L389.926 24.7244L395.61 30.9561L390.892 31.5831ZM382.373 25.8933L380.159 24.0969L385.658 23.3661C387.006 23.1869 387.974 22.7648 388.562 22.0998C389.148 21.4167 389.373 20.5616 389.236 19.5345C389.097 18.4893 388.657 17.7225 387.915 17.2342C387.174 16.746 386.129 16.5914 384.781 16.7705L379.282 17.5014L380.946 15.1621L382.373 25.8933Z" fill="white"/>
<path d="M398.719 30.5428L396.204 11.6212L399.816 11.1411L409.624 23.4267L407.71 23.6811L413.834 9.27811L417.419 8.80161L419.988 27.7161L415.89 28.2606L414.186 15.6408L414.94 15.5405L410.044 27.002L408.077 27.2635L400.222 17.4966L401.139 17.3748L402.816 29.9983L398.719 30.5428Z" fill="white"/>
</g>
<rect x="-17.937" y="58.8082" width="445.888" height="34.6615" rx="2.18737" transform="rotate(-7.57067 -17.937 58.8082)" stroke="#3760E7" stroke-width="0.112173"/>
<defs>
<clipPath id="clip0_1618_4802">
<rect x="-18" y="58.76" width="446" height="34.7736" rx="2.24346" transform="rotate(-7.57067 -18 58.76)" fill="white"/>
</clipPath>
</defs>
</svg>
