<svg width="375" height="94" viewBox="0 0 375 94" fill="none" xmlns="http://www.w3.org/2000/svg">
<g clip-path="url(#clip0_1618_4744)">
<rect x="-27" y="58.76" width="446" height="34.7736" rx="2.24346" transform="rotate(-7.57067 -27 58.76)" fill="#3760E7"/>
<path d="M-15.778 84.4369L-9.87522 64.3965L-5.55849 63.8228L5.40092 81.6221L0.814403 82.2317L-8.31258 66.4445L-6.58589 66.2151L-11.2994 83.8417L-15.778 84.4369ZM-12.1081 79.8229L-11.3899 76.3439L-1.67723 75.0531L-0.0482403 78.2201L-12.1081 79.8229Z" fill="white"/>
<path d="M7.36031 81.3617L4.84548 62.4401L8.46074 61.9596L18.2754 74.2443L16.3598 74.4988L22.4901 60.095L26.0784 59.618L28.6472 78.5325L24.5463 79.0775L22.8415 66.4577L23.597 66.3573L18.6956 77.8195L16.7261 78.0813L8.86615 68.3151L9.78345 68.1932L11.4612 80.8166L7.36031 81.3617Z" fill="white"/>
<path d="M42.344 77.0422C40.8511 77.2406 39.4339 77.1814 38.0922 76.8646C36.7684 76.5453 35.5803 76.0064 34.5276 75.2477C33.493 74.4866 32.6358 73.546 31.9561 72.426C31.2944 71.3036 30.8702 70.0395 30.6833 68.6339C30.4965 67.2283 30.5759 65.8974 30.9214 64.6411C31.285 63.3824 31.8757 62.2494 32.6936 61.2421C33.5116 60.2348 34.5177 59.4042 35.7121 58.7503C36.9065 58.0964 38.2411 57.6714 39.716 57.4754C41.2088 57.277 42.6081 57.3386 43.9139 57.6602C45.2376 57.9794 46.4168 58.5196 47.4514 59.2807C48.5041 60.0394 49.3702 60.9787 50.0499 62.0988C50.7272 63.2008 51.1604 64.4636 51.3497 65.8872C51.5365 67.2928 51.4493 68.634 51.0882 69.9107C50.7247 71.1694 50.1339 72.3024 49.316 73.3097C48.5137 74.2966 47.5153 75.117 46.3209 75.7709C45.1445 76.4224 43.8189 76.8462 42.344 77.0422ZM41.8212 73.3155C42.6666 73.2032 43.4209 72.9562 44.084 72.5746C44.7651 72.1907 45.3396 71.6925 45.8073 71.0802C46.275 70.4679 46.6037 69.7732 46.7933 68.9961C47.0009 68.2166 47.0448 67.3763 46.925 66.4753C46.8053 65.5743 46.5434 64.7747 46.1394 64.0765C45.7535 63.3759 45.2547 62.7911 44.6433 62.3222C44.0498 61.8509 43.3742 61.5189 42.6165 61.3262C41.8587 61.1335 41.0571 61.0933 40.2118 61.2057C39.3664 61.318 38.6032 61.5662 37.922 61.9501C37.2589 62.3317 36.6934 62.8286 36.2257 63.441C35.758 64.0533 35.4203 64.7492 35.2127 65.5287C35.0231 66.3058 34.9882 67.1448 35.108 68.0459C35.2253 68.9289 35.4782 69.7297 35.8666 70.4483C36.2706 71.1465 36.7693 71.7313 37.3627 72.2026C37.9742 72.6715 38.6588 73.0023 39.4165 73.195C40.1743 73.3877 40.9759 73.4279 41.8212 73.3155Z" fill="white"/>
<path d="M69.9816 73.3685C68.5259 73.562 67.138 73.5081 65.8178 73.2067C64.5131 72.885 63.3438 72.3435 62.31 71.5823C61.2761 70.8211 60.4195 69.8805 59.7403 68.7604C59.079 67.6379 58.6538 66.3648 58.4646 64.9412C58.2754 63.5176 58.3533 62.1777 58.6984 60.9214C59.0615 59.6628 59.6426 58.5311 60.4418 57.5262C61.2589 56.519 62.2564 55.6988 63.4341 55.0654C64.6094 54.4141 65.9339 53.9905 67.4075 53.7946C69.0429 53.5772 70.5548 53.6697 71.9433 54.072C73.3474 54.4539 74.5718 55.1348 75.6164 56.1146L73.1579 59.0822C72.4127 58.4293 71.6208 57.9752 70.7822 57.7199C69.9412 57.4466 69.0534 57.372 68.1189 57.4962C67.2384 57.6132 66.4488 57.8649 65.7503 58.2511C65.0519 58.6374 64.469 59.1367 64.0017 59.7489C63.5344 60.3612 63.1971 61.0571 62.9898 61.8365C62.8005 62.6136 62.7657 63.4526 62.8854 64.3536C63.0052 65.2547 63.2579 66.0555 63.6437 66.7561C64.0474 67.4544 64.5547 68.038 65.1657 68.5069C65.7767 68.9759 66.4697 69.3056 67.2449 69.496C68.02 69.6864 68.8478 69.7231 69.7284 69.606C70.6629 69.4818 71.5016 69.187 72.2444 68.7215C72.9848 68.238 73.6282 67.5748 74.1746 66.7319L77.3229 68.9543C76.5705 70.173 75.5676 71.159 74.3144 71.9124C73.0792 72.6634 71.6349 73.1488 69.9816 73.3685Z" fill="white"/>
<path d="M80.6779 71.6168L78.1631 52.6952L86.3309 51.6096C88.0201 51.3851 89.5129 51.471 90.8092 51.8672C92.103 52.2454 93.1507 52.9039 93.9521 53.8427C94.7536 54.7815 95.2489 55.9627 95.4381 57.3863C95.6249 58.792 95.4541 60.0525 94.9257 61.1681C94.3949 62.2656 93.5545 63.1659 92.4043 63.8689C91.2541 64.572 89.8344 65.0357 88.1451 65.2602L82.4034 66.0234L84.0892 63.8462L85.0448 71.0364L80.6779 71.6168ZM92.6735 70.0225L87.0436 63.7837L91.7071 63.1638L97.3909 69.3955L92.6735 70.0225ZM84.1539 64.3328L81.94 62.5364L87.4391 61.8055C88.7869 61.6264 89.7549 61.2043 90.3432 60.5393C90.9291 59.8562 91.1538 59.0011 91.0173 57.9739C90.8784 56.9287 90.4381 56.162 89.6966 55.6737C88.955 55.1854 87.9103 55.0308 86.5625 55.21L81.0634 55.9408L82.7276 53.6015L84.1539 64.3328Z" fill="white"/>
<path d="M100.5 68.9823L97.9855 50.0607L101.598 49.5806L111.405 61.8662L109.492 62.1206L115.615 47.7176L119.2 47.2411L121.769 66.1555L117.672 66.7001L115.967 54.0802L116.722 53.9799L111.826 65.4414L109.858 65.703L102.003 55.9361L102.92 55.8143L104.598 68.4377L100.5 68.9823Z" fill="white"/>
<path d="M128.886 65.2099L134.789 45.1695L139.106 44.5958L150.065 62.395L145.478 63.0046L136.351 47.2175L138.078 46.988L133.365 64.6146L128.886 65.2099ZM132.556 60.5959L133.274 57.1169L142.987 55.826L144.616 58.993L132.556 60.5959Z" fill="white"/>
<path d="M152.024 62.1346L149.51 43.213L153.125 42.7325L162.939 55.0172L161.024 55.2718L167.154 40.8679L170.742 40.391L173.311 59.3054L169.21 59.8505L167.506 47.2306L168.261 47.1302L163.36 58.5925L161.39 58.8542L153.53 49.0881L154.448 48.9662L156.125 61.5896L152.024 62.1346Z" fill="white"/>
<path d="M187.008 57.8151C185.515 58.0135 184.098 57.9543 182.756 57.6375C181.433 57.3183 180.244 56.7793 179.192 56.0206C178.157 55.2595 177.3 54.319 176.62 53.1989C175.958 52.0765 175.534 50.8125 175.347 49.4069C175.161 48.0013 175.24 46.6703 175.585 45.414C175.949 44.1554 176.54 43.0224 177.358 42.015C178.176 41.0077 179.182 40.1771 180.376 39.5232C181.571 38.8693 182.905 38.4444 184.38 38.2484C185.873 38.0499 187.272 38.1115 188.578 38.4332C189.902 38.7524 191.081 39.2925 192.115 40.0536C193.168 40.8123 194.034 41.7517 194.714 42.8717C195.391 43.9737 195.825 45.2366 196.014 46.6602C196.201 48.0658 196.113 49.4069 195.752 50.6836C195.389 51.9423 194.798 53.0753 193.98 54.0827C193.178 55.0696 192.179 55.89 190.985 56.5438C189.809 57.1954 188.483 57.6191 187.008 57.8151ZM186.485 54.0885C187.331 53.9761 188.085 53.7291 188.748 53.3476C189.429 52.9636 190.004 52.4655 190.471 51.8532C190.939 51.2408 191.268 50.5461 191.457 49.769C191.665 48.9895 191.709 48.1493 191.589 47.2483C191.469 46.3472 191.207 45.5476 190.803 44.8494C190.418 44.1488 189.919 43.5641 189.307 43.0952C188.714 42.6239 188.038 42.2919 187.281 42.0992C186.523 41.9064 185.721 41.8663 184.876 41.9786C184.03 42.091 183.267 42.3391 182.586 42.7231C181.923 43.1046 181.357 43.6016 180.89 44.2139C180.422 44.8262 180.084 45.5222 179.877 46.3016C179.687 47.0787 179.652 47.9178 179.772 48.8188C179.889 49.7018 180.142 50.5026 180.531 51.2213C180.935 51.9195 181.433 52.5042 182.027 52.9755C182.638 53.4444 183.323 53.7752 184.081 53.9679C184.838 54.1606 185.64 54.2008 186.485 54.0885Z" fill="white"/>
<path d="M214.646 54.1415C213.19 54.335 211.802 54.281 210.482 53.9797C209.177 53.6579 208.008 53.1165 206.974 52.3553C205.94 51.5941 205.084 50.6534 204.404 49.5333C203.743 48.4108 203.318 47.1378 203.129 45.7142C202.939 44.2905 203.017 42.9506 203.363 41.6944C203.726 40.4357 204.307 39.304 205.106 38.2992C205.923 37.292 206.92 36.4717 208.098 35.8384C209.273 35.187 210.598 34.7634 212.072 34.5675C213.707 34.3502 215.219 34.4427 216.607 34.845C218.011 35.2269 219.236 35.9077 220.28 36.8876L217.822 39.8551C217.077 39.2023 216.285 38.7482 215.446 38.4929C214.605 38.2195 213.717 38.1449 212.783 38.2691C211.902 38.3862 211.113 38.6378 210.414 39.0241C209.716 39.4103 209.133 39.9096 208.666 40.5219C208.198 41.1342 207.861 41.83 207.654 42.6095C207.465 43.3865 207.43 44.2256 207.55 45.1266C207.669 46.0276 207.922 46.8285 208.308 47.5291C208.711 48.2273 209.219 48.8109 209.83 49.2799C210.441 49.7489 211.134 50.0785 211.909 50.2689C212.684 50.4593 213.512 50.496 214.392 50.379C215.327 50.2548 216.166 49.9599 216.908 49.4944C217.649 49.0109 218.292 48.3477 218.839 47.5049L221.987 49.7272C221.235 50.9459 220.232 51.932 218.979 52.6854C217.743 53.4364 216.299 53.9218 214.646 54.1415Z" fill="white"/>
<path d="M225.342 52.3898L222.827 33.4682L230.995 32.3826C232.684 32.1581 234.177 32.2439 235.473 32.6402C236.767 33.0184 237.815 33.6769 238.616 34.6157C239.418 35.5545 239.913 36.7357 240.102 38.1593C240.289 39.5649 240.118 40.8255 239.59 41.941C239.059 43.0386 238.219 43.9388 237.068 44.6419C235.918 45.3449 234.498 45.8087 232.809 46.0332L227.067 46.7963L228.753 44.6192L229.709 51.8094L225.342 52.3898ZM237.338 50.7955L231.708 44.5566L236.371 43.9368L242.055 50.1685L237.338 50.7955ZM228.818 45.1057L226.604 43.3093L232.103 42.5785C233.451 42.3993 234.419 41.9772 235.007 41.3122C235.593 40.6291 235.818 39.774 235.681 38.7469C235.542 37.7017 235.102 36.9349 234.361 36.4466C233.619 35.9584 232.574 35.8038 231.227 35.9829L225.727 36.7138L227.392 34.3745L228.818 45.1057Z" fill="white"/>
<path d="M245.164 49.7552L242.65 30.8336L246.262 30.3535L256.069 42.6391L254.156 42.8935L260.279 28.4905L263.864 28.014L266.433 46.9285L262.336 47.473L260.631 34.8532L261.386 34.7529L256.49 46.2144L254.522 46.4759L246.668 36.709L247.584 36.5872L249.262 49.2107L245.164 49.7552Z" fill="white"/>
<path d="M273.441 45.9975L279.344 25.9571L283.66 25.3834L294.62 43.1826L290.033 43.7922L280.906 28.0051L282.633 27.7756L277.919 45.4022L273.441 45.9975ZM277.111 41.3835L277.829 37.9045L287.542 36.6136L289.171 39.7806L277.111 41.3835Z" fill="white"/>
<path d="M296.579 42.9222L294.064 24.0006L297.679 23.5201L307.494 35.8048L305.579 36.0594L311.709 21.6555L315.297 21.1786L317.866 40.093L313.765 40.6381L312.06 28.0182L312.816 27.9178L307.914 39.3801L305.945 39.6418L298.085 29.8757L299.002 29.7538L300.68 42.3772L296.579 42.9222Z" fill="white"/>
<path d="M331.563 38.6027C330.07 38.8011 328.653 38.7419 327.311 38.4251C325.987 38.1059 324.799 37.5669 323.746 36.8082C322.712 36.0471 321.855 35.1066 321.175 33.9865C320.513 32.8641 320.089 31.6001 319.902 30.1945C319.715 28.7889 319.795 27.4579 320.14 26.2016C320.504 24.943 321.094 23.81 321.912 22.8026C322.73 21.7953 323.736 20.9647 324.931 20.3108C326.125 19.6569 327.46 19.232 328.935 19.036C330.428 18.8375 331.827 18.8991 333.133 19.2207C334.456 19.54 335.636 20.0801 336.67 20.8412C337.723 21.5999 338.589 22.5393 339.269 23.6593C339.946 24.7613 340.379 26.0242 340.568 27.4478C340.755 28.8534 340.668 30.1945 340.307 31.4712C339.943 32.7299 339.353 33.8629 338.535 34.8702C337.732 35.8572 336.734 36.6776 335.54 37.3314C334.363 37.9829 333.038 38.4067 331.563 38.6027ZM331.04 34.8761C331.885 34.7637 332.64 34.5167 333.303 34.1352C333.984 33.7512 334.558 33.2531 335.026 32.6408C335.494 32.0284 335.822 31.3337 336.012 30.5566C336.22 29.7771 336.264 28.9369 336.144 28.0358C336.024 27.1348 335.762 26.3352 335.358 25.637C334.972 24.9364 334.473 24.3517 333.862 23.8828C333.269 23.4115 332.593 23.0795 331.835 22.8867C331.077 22.694 330.276 22.6539 329.431 22.7662C328.585 22.8786 327.822 23.1267 327.141 23.5107C326.478 23.8922 325.912 24.3892 325.444 25.0015C324.977 25.6138 324.639 26.3098 324.431 27.0892C324.242 27.8663 324.207 28.7054 324.327 29.6064C324.444 30.4894 324.697 31.2902 325.085 32.0089C325.489 32.7071 325.988 33.2918 326.581 33.7631C327.193 34.232 327.878 34.5628 328.635 34.7555C329.393 34.9482 330.195 34.9884 331.04 34.8761Z" fill="white"/>
<path d="M359.2 34.9293C357.745 35.1228 356.357 35.0689 355.037 34.7675C353.732 34.4458 352.563 33.9043 351.529 33.1431C350.495 32.3819 349.638 31.4413 348.959 30.3212C348.298 29.1987 347.873 27.9256 347.683 26.502C347.494 25.0784 347.572 23.7384 347.917 22.4822C348.28 21.2236 348.861 20.0919 349.661 19.087C350.478 18.0798 351.475 17.2596 352.653 16.6262C353.828 15.9749 355.153 15.5512 356.626 15.3554C358.262 15.138 359.774 15.2305 361.162 15.6328C362.566 16.0147 363.791 16.6956 364.835 17.6754L362.377 20.643C361.631 19.9901 360.84 19.536 360.001 19.2807C359.16 19.0074 358.272 18.9328 357.338 19.057C356.457 19.174 355.668 19.4257 354.969 19.8119C354.271 20.1982 353.688 20.6975 353.22 21.3097C352.753 21.922 352.416 22.6179 352.209 23.3973C352.019 24.1744 351.984 25.0134 352.104 25.9144C352.224 26.8155 352.477 27.6163 352.862 28.3169C353.266 29.0152 353.773 29.5988 354.384 30.0677C354.995 30.5367 355.688 30.8664 356.464 31.0568C357.239 31.2472 358.067 31.2839 358.947 31.1668C359.882 31.0426 360.72 30.7478 361.463 30.2823C362.204 29.7987 362.847 29.1356 363.393 28.2927L366.542 30.5151C365.789 31.7338 364.786 32.7198 363.533 33.4732C362.298 34.2242 360.854 34.7096 359.2 34.9293Z" fill="white"/>
<path d="M369.897 33.1776L367.382 14.256L375.55 13.1704C377.239 12.9459 378.732 13.0318 380.028 13.428C381.322 13.8062 382.369 14.4647 383.171 15.4035C383.972 16.3423 384.468 17.5235 384.657 18.9471C384.844 20.3527 384.673 21.6133 384.144 22.7289C383.614 23.8264 382.773 24.7267 381.623 25.4297C380.473 26.1327 379.053 26.5965 377.364 26.821L371.622 27.5842L373.308 25.407L374.264 32.5972L369.897 33.1776ZM381.892 31.5833L376.262 25.3444L380.926 24.7246L386.61 30.9563L381.892 31.5833ZM373.373 25.8936L371.159 24.0972L376.658 23.3663C378.006 23.1872 378.974 22.7651 379.562 22.1C380.148 21.417 380.373 20.5619 380.236 19.5347C380.097 18.4895 379.657 17.7228 378.915 17.2345C378.174 16.7462 377.129 16.5916 375.781 16.7708L370.282 17.5016L371.946 15.1623L373.373 25.8936Z" fill="white"/>
<path d="M389.719 30.5431L387.204 11.6214L390.816 11.1414L400.624 23.427L398.71 23.6813L404.834 9.27835L408.419 8.80185L410.988 27.7163L406.89 28.2609L405.186 15.641L405.94 15.5407L401.044 27.0022L399.077 27.2638L391.222 17.4969L392.139 17.3751L393.816 29.9985L389.719 30.5431Z" fill="white"/>
</g>
<rect x="-26.937" y="58.8082" width="445.888" height="34.6615" rx="2.18737" transform="rotate(-7.57067 -26.937 58.8082)" stroke="#3760E7" stroke-width="0.112173"/>
<defs>
<clipPath id="clip0_1618_4744">
<rect x="-27" y="58.76" width="446" height="34.7736" rx="2.24346" transform="rotate(-7.57067 -27 58.76)" fill="white"/>
</clipPath>
</defs>
</svg>
