<svg width="575" height="310" viewBox="0 0 575 310" fill="none" xmlns="http://www.w3.org/2000/svg">
<g clip-path="url(#clip0_655_866)">
<rect width="3976" height="310" rx="20" fill="#3760E7"/>
<path d="M69 240.083L144.701 69.9171H183.522L259.466 240.083H218.219L156.105 89.8508H171.633L109.277 240.083H69ZM106.851 203.619L117.284 173.718H204.631L215.307 203.619H106.851Z" fill="white"/>
<path d="M277.087 240.083V69.9171H309.6L381.904 190.006H364.677L435.769 69.9171H468.039L468.524 240.083H431.644L431.401 126.558H438.195L381.419 222.094H363.707L305.718 126.558H313.967V240.083H277.087Z" fill="white"/>
<path d="M591.315 243C577.889 243 565.434 240.812 553.949 236.436C542.626 232.061 532.759 225.902 524.348 217.961C516.099 210.02 509.628 200.702 504.938 190.006C500.408 179.309 498.144 167.641 498.144 155C498.144 142.359 500.408 130.691 504.938 119.994C509.628 109.298 516.18 99.9797 524.591 92.0387C533.002 84.0976 542.869 77.9392 554.192 73.5635C565.515 69.1878 577.808 67 591.072 67C604.498 67 616.791 69.1878 627.952 73.5635C639.275 77.9392 649.061 84.0976 657.31 92.0387C665.722 99.9797 672.273 109.298 676.964 119.994C681.655 130.529 684 142.197 684 155C684 167.641 681.655 179.39 676.964 190.249C672.273 200.945 665.722 210.263 657.31 218.204C649.061 225.983 639.275 232.061 627.952 236.436C616.791 240.812 604.578 243 591.315 243ZM591.072 209.453C598.674 209.453 605.63 208.157 611.938 205.564C618.408 202.971 624.07 199.243 628.922 194.381C633.775 189.519 637.495 183.766 640.084 177.122C642.833 170.477 644.208 163.103 644.208 155C644.208 146.897 642.833 139.523 640.084 132.878C637.495 126.234 633.775 120.481 628.922 115.619C624.232 110.757 618.651 107.029 612.181 104.436C605.711 101.843 598.674 100.547 591.072 100.547C583.469 100.547 576.433 101.843 569.963 104.436C563.655 107.029 558.074 110.757 553.221 115.619C548.369 120.481 544.568 126.234 541.818 132.878C539.23 139.523 537.936 146.897 537.936 155C537.936 162.941 539.23 170.315 541.818 177.122C544.568 183.766 548.288 189.519 552.979 194.381C557.831 199.243 563.493 202.971 569.963 205.564C576.433 208.157 583.469 209.453 591.072 209.453Z" fill="white"/>
</g>
<rect x="0.5" y="0.5" width="3975" height="309" rx="19.5" stroke="#3760E7"/>
<defs>
<clipPath id="clip0_655_866">
<rect width="3976" height="310" rx="20" fill="white"/>
</clipPath>
</defs>
</svg>
