<svg width="999" height="310" viewBox="0 0 999 310" fill="none" xmlns="http://www.w3.org/2000/svg">
<g clip-path="url(#clip0_854_615)">
<rect width="999" height="310" rx="20" fill="#3760E7"/>
<path d="M71 240.083L146.701 69.9171H185.522L261.466 240.083H220.219L158.105 89.8508H173.633L111.277 240.083H71ZM108.851 203.619L119.284 173.718H206.631L217.307 203.619H108.851Z" fill="white"/>
<path d="M279.087 240.083V69.9171H311.6L383.904 190.006H366.677L437.769 69.9171H470.039L470.524 240.083H433.644L433.401 126.558H440.195L383.419 222.094H365.707L307.718 126.558H315.967V240.083H279.087Z" fill="white"/>
<path d="M593.315 243C579.889 243 567.434 240.812 555.949 236.436C544.626 232.061 534.759 225.902 526.348 217.961C518.099 210.02 511.628 200.702 506.938 190.006C502.408 179.309 500.144 167.641 500.144 155C500.144 142.359 502.408 130.691 506.938 119.994C511.628 109.298 518.18 99.9797 526.591 92.0387C535.002 84.0976 544.869 77.9392 556.192 73.5635C567.515 69.1878 579.808 67 593.072 67C606.498 67 618.791 69.1878 629.952 73.5635C641.275 77.9392 651.061 84.0976 659.31 92.0387C667.722 99.9797 674.273 109.298 678.964 119.994C683.655 130.529 686 142.197 686 155C686 167.641 683.655 179.39 678.964 190.249C674.273 200.945 667.722 210.263 659.31 218.204C651.061 225.983 641.275 232.061 629.952 236.436C618.791 240.812 606.578 243 593.315 243ZM593.072 209.453C600.674 209.453 607.63 208.157 613.938 205.564C620.408 202.971 626.07 199.243 630.922 194.381C635.775 189.519 639.495 183.766 642.084 177.122C644.833 170.477 646.208 163.103 646.208 155C646.208 146.897 644.833 139.523 642.084 132.878C639.495 126.234 635.775 120.481 630.922 115.619C626.232 110.757 620.651 107.029 614.181 104.436C607.711 101.843 600.674 100.547 593.072 100.547C585.469 100.547 578.433 101.843 571.963 104.436C565.655 107.029 560.074 110.757 555.221 115.619C550.369 120.481 546.568 126.234 543.818 132.878C541.23 139.523 539.936 146.897 539.936 155C539.936 162.941 541.23 170.315 543.818 177.122C546.568 183.766 550.288 189.519 554.979 194.381C559.831 199.243 565.493 202.971 571.963 205.564C578.433 208.157 585.469 209.453 593.072 209.453Z" fill="white"/>
</g>
<rect x="0.5" y="0.5" width="998" height="309" rx="19.5" stroke="#3760E7"/>
<defs>
<clipPath id="clip0_854_615">
<rect width="999" height="310" rx="20" fill="white"/>
</clipPath>
</defs>
</svg>
