<svg width="1424" height="310" viewBox="0 0 1424 310" fill="none" xmlns="http://www.w3.org/2000/svg">
<g clip-path="url(#clip0_835_511)">
<rect width="1424" height="310" rx="20" fill="#3760E7"/>
<path d="M71 240.083L146.701 69.9171H185.522L261.466 240.083H220.219L158.105 89.8508H173.633L111.277 240.083H71ZM108.851 203.619L119.284 173.718H206.631L217.307 203.619H108.851Z" fill="white"/>
<path d="M279.087 240.083V69.9171H311.6L383.904 190.006H366.677L437.769 69.9171H470.039L470.524 240.083H433.644L433.401 126.558H440.195L383.419 222.094H365.707L307.718 126.558H315.967V240.083H279.087Z" fill="white"/>
<path d="M593.315 243C579.889 243 567.434 240.812 555.949 236.436C544.626 232.061 534.759 225.902 526.348 217.961C518.099 210.02 511.628 200.702 506.938 190.006C502.408 179.309 500.144 167.641 500.144 155C500.144 142.359 502.408 130.691 506.938 119.994C511.628 109.298 518.18 99.9797 526.591 92.0387C535.002 84.0976 544.869 77.9392 556.192 73.5635C567.515 69.1878 579.808 67 593.072 67C606.498 67 618.791 69.1878 629.952 73.5635C641.275 77.9392 651.061 84.0976 659.31 92.0387C667.722 99.9797 674.273 109.298 678.964 119.994C683.655 130.529 686 142.197 686 155C686 167.641 683.655 179.39 678.964 190.249C674.273 200.945 667.722 210.263 659.31 218.204C651.061 225.983 641.275 232.061 629.952 236.436C618.791 240.812 606.578 243 593.315 243ZM593.072 209.453C600.674 209.453 607.63 208.157 613.938 205.564C620.408 202.971 626.07 199.243 630.923 194.381C635.775 189.519 639.496 183.766 642.084 177.122C644.833 170.477 646.208 163.103 646.208 155C646.208 146.897 644.833 139.523 642.084 132.878C639.496 126.234 635.775 120.481 630.923 115.619C626.232 110.757 620.651 107.029 614.181 104.436C607.711 101.843 600.674 100.547 593.072 100.547C585.469 100.547 578.433 101.843 571.963 104.436C565.655 107.029 560.074 110.757 555.221 115.619C550.369 120.481 546.567 126.234 543.818 132.878C541.23 139.523 539.936 146.897 539.936 155C539.936 162.941 541.23 170.315 543.818 177.122C546.567 183.766 550.288 189.519 554.979 194.381C559.831 199.243 565.493 202.971 571.963 205.564C578.433 208.157 585.469 209.453 593.072 209.453Z" fill="white"/>
<path d="M841.879 243C828.788 243 816.586 240.893 805.273 236.68C794.121 232.304 784.424 226.146 776.182 218.204C767.939 210.263 761.475 200.945 756.788 190.249C752.263 179.552 750 167.803 750 155C750 142.197 752.263 130.448 756.788 119.751C761.475 109.055 767.939 99.7366 776.182 91.7956C784.586 83.8545 794.364 77.7772 805.515 73.5635C816.667 69.1878 828.869 67 842.121 67C856.828 67 870.081 69.593 881.879 74.779C893.838 79.8029 903.859 87.2578 911.939 97.1437L886.727 120.481C880.909 113.836 874.444 108.893 867.333 105.652C860.222 102.249 852.465 100.547 844.061 100.547C836.141 100.547 828.869 101.843 822.242 104.436C815.616 107.029 809.879 110.757 805.03 115.619C800.182 120.481 796.384 126.234 793.636 132.878C791.051 139.523 789.758 146.897 789.758 155C789.758 163.103 791.051 170.477 793.636 177.122C796.384 183.766 800.182 189.519 805.03 194.381C809.879 199.243 815.616 202.971 822.242 205.564C828.869 208.157 836.141 209.453 844.061 209.453C852.465 209.453 860.222 207.832 867.333 204.591C874.444 201.188 880.909 196.083 886.727 189.276L911.939 212.613C903.859 222.499 893.838 230.035 881.879 235.221C870.081 240.407 856.747 243 841.879 243Z" fill="white"/>
<path d="M938.46 240.083V69.9171H1011.91C1027.11 69.9171 1040.2 72.4291 1051.19 77.453C1062.18 82.3149 1070.66 89.3646 1076.64 98.6022C1082.62 107.84 1085.61 118.86 1085.61 131.663C1085.61 144.304 1082.62 155.243 1076.64 164.481C1070.66 173.556 1062.18 180.525 1051.19 185.387C1040.2 190.249 1027.11 192.68 1011.91 192.68H960.278L977.733 175.42V240.083H938.46ZM1046.34 240.083L1003.91 178.337H1045.85L1088.76 240.083H1046.34ZM977.733 179.796L960.278 161.32H1009.73C1021.85 161.32 1030.9 158.727 1036.88 153.541C1042.86 148.193 1045.85 140.901 1045.85 131.663C1045.85 122.263 1042.86 114.971 1036.88 109.785C1030.9 104.599 1021.85 102.006 1009.73 102.006H960.278L977.733 83.2873V179.796Z" fill="white"/>
<path d="M1116.73 240.083V69.9171H1149.21L1221.45 190.006H1204.24L1275.27 69.9171H1307.52L1308 240.083H1271.15L1270.91 126.558H1277.7L1220.97 222.094H1203.27L1145.33 126.558H1153.58V240.083H1116.73Z" fill="white"/>
</g>
<rect x="0.5" y="0.5" width="1423" height="309" rx="19.5" stroke="#3760E7"/>
<defs>
<clipPath id="clip0_835_511">
<rect width="1424" height="310" rx="20" fill="white"/>
</clipPath>
</defs>
</svg>
