<svg width="61" height="51" viewBox="0 0 61 51" fill="none" xmlns="http://www.w3.org/2000/svg">
<g clip-path="url(#clip0_1393_862)">
<path fill-rule="evenodd" clip-rule="evenodd" d="M37.907 45.8713C38.7538 46.7098 40.1233 46.7098 40.9681 45.8713L58.8725 28.1037C59.2733 27.7121 59.5924 27.2407 59.8105 26.7183C60.0286 26.1958 60.141 25.6332 60.141 25.0647C60.141 24.4962 60.0286 23.9336 59.8105 23.4112C59.5924 22.8887 59.2733 22.4173 58.8725 22.0257L40.8384 4.12694C40.4292 3.72693 39.8871 3.50209 39.3225 3.4981C38.7578 3.49411 38.2129 3.71125 37.7983 4.10544C37.5929 4.3001 37.4285 4.53605 37.3154 4.79866C37.2023 5.06128 37.1428 5.34498 37.1407 5.63219C37.1385 5.9194 37.1937 6.20401 37.3029 6.46839C37.412 6.73277 37.5728 6.97129 37.7753 7.16919L54.2809 23.5457C54.4814 23.7416 54.6412 23.9773 54.7503 24.2387C54.8594 24.5 54.9157 24.7814 54.9157 25.0658C54.9157 25.3502 54.8594 25.6316 54.7503 25.8929C54.6412 26.1542 54.4814 26.39 54.2809 26.5858L37.907 42.8334C37.7065 43.029 37.5468 43.2646 37.4377 43.5258C37.3286 43.7869 37.2723 44.0681 37.2723 44.3524C37.2723 44.6366 37.3286 44.9178 37.4377 45.179C37.5468 45.4401 37.7065 45.6757 37.907 45.8713Z" fill="#3760E7"/>
</g>
<rect y="25.1173" width="35.5214" height="35.5214" rx="2" transform="rotate(-45 0 25.1173)" fill="#3760E7"/>
<defs>
<clipPath id="clip0_1393_862">
<rect width="23" height="43" fill="white" transform="translate(37.1406 3.49805)"/>
</clipPath>
</defs>
</svg>
