<svg width="114" height="28" viewBox="0 0 114 28" fill="none" xmlns="http://www.w3.org/2000/svg">
<path d="M0 12.3041C0 12.8236 0.242092 13.3219 0.673019 13.6893C1.10394 14.0567 1.68841 14.2631 2.29783 14.2631L106.155 15.6462L96.2929 24.0543C95.8744 24.4238 95.6428 24.9186 95.648 25.4323C95.6532 25.9459 95.8949 26.4373 96.3209 26.8005C96.747 27.1637 97.3233 27.3697 97.9258 27.3742C98.5282 27.3787 99.1087 27.1812 99.542 26.8243L113.329 15.0702C113.542 14.89 113.71 14.6757 113.826 14.4397C113.941 14.2037 114 13.9506 114 13.695V13.6871C114 13.4325 113.94 13.1778 113.821 12.9388C113.706 12.7013 113.538 12.4855 113.324 12.3041L99.5374 0.549921C99.1041 0.193069 98.5236 -0.00438942 97.9212 7.40563e-05C97.3187 0.00453753 96.7424 0.210566 96.3163 0.573784C95.8903 0.937003 95.6486 1.42835 95.6434 1.942C95.6382 2.45565 95.8698 2.95051 96.2883 3.31998L106.155 11.7281L2.29783 10.345C1.68841 10.345 1.10394 10.5514 0.673019 10.9188C0.242092 11.2862 0 11.7845 0 12.3041Z" fill="white"/>
</svg>
