<svg width="1200" height="516" viewBox="0 0 1200 516" fill="none" xmlns="http://www.w3.org/2000/svg">
<path d="M1040.69 0C1073.99 98.888 1150.07 189.502 1141.77 299.107L1157.63 299.498C1170.73 274.25 1157.47 244.739 1157.77 220.816C1157.91 209.563 1185.64 173.949 1194.02 162.606C1195.99 159.945 1197.98 157.289 1200 154.64V465C1200 494.823 1175.82 519 1146 519H54C24.1766 519 0 494.823 0 465V54C0 24.1766 24.1766 0 54 0H872.197C934.11 99.2075 1030.43 182.474 1058.28 297.759L1076.12 298.021C1079.83 275.048 1085.13 248.358 1068.41 229.827L1062.81 242.146C1062.09 233.811 1053.67 225.481 1052.29 218.17C1050.25 207.379 1058.73 197.215 1057.87 194.879C1055.59 188.663 1047.15 174.533 1042.96 166.97C1042.96 166.97 1039.68 176.671 1036.34 181.583C1033.71 185.456 1031.05 179.624 1031.05 179.624C996.802 118.707 946.606 62.2213 912.044 0H957.947C1005.71 99.2935 1093.87 185.382 1100.34 298.378L1119.18 298.655C1128.7 274.56 1130.85 255.902 1124.71 230.551L1112.87 244.578C1112.98 234.682 1107.26 214.775 1107.23 214.678L1113.48 195.173C1113.47 195.107 1111.76 182.557 1105.16 167.773C1099.51 176.855 1095.79 188.85 1093.01 184.171C1090.24 179.491 1082.45 164.966 1082.04 157.302C1081.61 149.12 1089 141.915 1088.15 132.266C1087.99 130.39 1077.93 105.896 1076.86 104.859C1069.5 97.812 1069.76 125.348 1062.04 124.515C1041.84 83.2454 1016.32 42.6957 998.094 0H1040.69ZM1016.74 226.651C1013.49 249.669 1013.19 274.042 1015.65 297.144L1035.97 297.442C1034.42 272.863 1036.52 245.527 1016.74 226.651ZM1200 114.348C1182.8 136.95 1165.89 159.535 1150.81 182.691L1142.18 154.17C1160.19 124.937 1180.63 96.3575 1200 67.1982V114.348ZM1366.88 -101.014C1343.44 -0.90274 1261.2 74.2323 1200 154.64V114.348C1250.84 47.5389 1304.19 -19.4174 1320.12 -101.701L1366.88 -101.014ZM1159 1.57422C1171.3 4.61426 1181.94 11.8732 1189.3 21.7285C1171.3 56.9643 1149.05 90.7068 1129.77 124.23L1118.99 103.434L1116.85 91.21C1130.42 61.2914 1147.34 32.385 1159 1.57422ZM1273.37 -102.389C1265.96 -39.2445 1234.73 14.9101 1200 67.1982V54C1200 41.901 1196.02 30.7316 1189.3 21.7285C1209.32 -17.453 1224.09 -58.4817 1223.7 -103.119L1273.37 -102.389ZM1119.02 0C1113 19.1941 1105.89 38.8933 1102.36 44.873C1100.47 48.0676 1102.48 49.6932 1095.82 48.4111C1091.32 32.4162 1086.3 16.2757 1081.96 0H1119.02ZM1176.94 -103.807L1176.29 -59.7832C1176.15 -49.7809 1166.08 -18.8303 1162.26 -7.54102C1161.23 -4.48232 1160.14 -1.44514 1159 1.57422C1154.83 0.545876 1150.48 0 1146 0H1119.02C1124.55 -17.6265 1129.17 -34.8269 1129.25 -40.5869L1130.19 -104.494L1176.94 -103.807ZM874.604 -108.262C879.069 -69.3866 893.244 -33.845 912.044 0H872.197C851.078 -33.8414 833.959 -69.536 824.932 -108.991L874.604 -108.262ZM928.044 -107.572L974.794 -106.885C973.806 -68.9619 983.663 -33.8082 998.094 0H957.947C941.689 -33.8025 930.111 -69.1338 928.036 -107.58L928.044 -107.572ZM1074.67 -105.318C1066.51 -69.6652 1072.73 -34.5279 1081.96 0H1040.69C1040.05 -1.88699 1039.43 -3.77671 1038.83 -5.66992C1034.74 -18.4921 1024.21 -53.372 1024.38 -64.8574L1024.99 -106.042L1025 -106.049L1074.67 -105.318Z" fill="#3760E7"/>
</svg>
