<svg width="20" height="20" viewBox="0 0 20 20" fill="none" xmlns="http://www.w3.org/2000/svg">
<g clip-path="url(#clip0_1087_731)">
<path d="M11.7628 10.0027L19.6189 2.1464C19.7381 2.03124 19.8332 1.89348 19.8986 1.74117C19.9641 1.58885 19.9985 1.42504 20 1.25927C20.0014 1.09351 19.9698 0.929115 19.907 0.775688C19.8443 0.622262 19.7516 0.482872 19.6343 0.365655C19.5171 0.248437 19.3777 0.155737 19.2243 0.0929655C19.0709 0.0301937 18.9065 -0.00139331 18.7407 4.71368e-05C18.575 0.00148759 18.4111 0.035927 18.2588 0.101356C18.1065 0.166784 17.9687 0.261892 17.8536 0.381129L9.99719 8.23715L2.14111 0.381129C1.90613 0.15131 1.58999 0.0234293 1.26131 0.0252394C0.932634 0.0270495 0.617928 0.158404 0.385492 0.390797C0.153056 0.623191 0.0216448 0.937871 0.0197766 1.26655C0.0179084 1.59523 0.145734 1.91138 0.375513 2.1464L8.2319 10.0027L0.375513 17.8591C0.257465 17.9745 0.163493 18.1122 0.099039 18.2643C0.0345847 18.4163 0.000928278 18.5796 1.8933e-05 18.7447C-0.000890412 18.9098 0.0309654 19.0735 0.0937414 19.2262C0.156517 19.3789 0.248966 19.5177 0.365736 19.6344C0.482505 19.7512 0.621275 19.8436 0.77401 19.9063C0.926745 19.9691 1.09041 20.0009 1.25553 20C1.42065 19.999 1.58394 19.9654 1.73595 19.9009C1.88797 19.8364 2.02568 19.7424 2.14111 19.6243L9.99719 11.7683L17.8536 19.6243C18.0973 19.8681 18.4169 19.9901 18.7362 19.9901C19.0555 19.9901 19.3754 19.8681 19.6189 19.6243C19.8529 19.3902 19.9844 19.0727 19.9844 18.7417C19.9844 18.4107 19.8529 18.0932 19.6189 17.8591L11.7628 10.0027Z" fill="black"/>
</g>
<defs>
<clipPath id="clip0_1087_731">
<rect width="20" height="20" fill="white"/>
</clipPath>
</defs>
</svg>
