<svg width="998" height="310" viewBox="0 0 998 310" fill="none" xmlns="http://www.w3.org/2000/svg">
<g clip-path="url(#clip0_856_511)">
<rect width="998" height="310" rx="20" fill="#3760E7"/>
<path d="M470.879 243C457.788 243 445.586 240.893 434.273 236.68C423.121 232.304 413.424 226.146 405.182 218.204C396.939 210.263 390.475 200.945 385.788 190.249C381.263 179.552 379 167.803 379 155C379 142.197 381.263 130.448 385.788 119.751C390.475 109.055 396.939 99.7366 405.182 91.7956C413.586 83.8545 423.364 77.7772 434.515 73.5635C445.667 69.1878 457.869 67 471.121 67C485.828 67 499.081 69.593 510.879 74.779C522.838 79.8029 532.859 87.2578 540.939 97.1437L515.727 120.481C509.909 113.836 503.444 108.893 496.333 105.652C489.222 102.249 481.465 100.547 473.061 100.547C465.141 100.547 457.869 101.843 451.242 104.436C444.616 107.029 438.879 110.757 434.03 115.619C429.182 120.481 425.384 126.234 422.636 132.878C420.051 139.523 418.758 146.897 418.758 155C418.758 163.103 420.051 170.477 422.636 177.122C425.384 183.766 429.182 189.519 434.03 194.381C438.879 199.243 444.616 202.971 451.242 205.564C457.869 208.157 465.141 209.453 473.061 209.453C481.465 209.453 489.222 207.832 496.333 204.591C503.444 201.188 509.909 196.083 515.727 189.276L540.939 212.613C532.859 222.499 522.838 230.035 510.879 235.221C499.081 240.407 485.747 243 470.879 243Z" fill="white"/>
<path d="M567.46 240.083V69.9171H640.915C656.107 69.9171 669.198 72.4291 680.187 77.453C691.177 82.3149 699.662 89.3646 705.642 98.6022C711.622 107.84 714.612 118.86 714.612 131.663C714.612 144.304 711.622 155.243 705.642 164.481C699.662 173.556 691.177 180.525 680.187 185.387C669.198 190.249 656.107 192.68 640.915 192.68H589.278L606.733 175.42V240.083H567.46ZM675.339 240.083L632.915 178.337H674.854L717.763 240.083H675.339ZM606.733 179.796L589.278 161.32H638.733C650.854 161.32 659.905 158.727 665.884 153.541C671.864 148.193 674.854 140.901 674.854 131.663C674.854 122.263 671.864 114.971 665.884 109.785C659.905 104.599 650.854 102.006 638.733 102.006H589.278L606.733 83.2873V179.796Z" fill="white"/>
<path d="M745.727 240.083V69.9171H778.212L850.455 190.006H833.242L904.273 69.9171H936.515L937 240.083H900.152L899.909 126.558H906.697L849.97 222.094H832.273L774.333 126.558H782.576V240.083H745.727Z" fill="white"/>
</g>
<rect x="0.5" y="0.5" width="997" height="309" rx="19.5" stroke="#3760E7"/>
<defs>
<clipPath id="clip0_856_511">
<rect width="998" height="310" rx="20" fill="white"/>
</clipPath>
</defs>
</svg>
