<svg width="135" height="201" viewBox="0 0 135 201" fill="none" xmlns="http://www.w3.org/2000/svg">
<path d="M122.924 1.80762C117.019 27.6205 126.425 52.8843 133.334 77.4512C136.615 78.082 135.624 77.2818 136.555 75.71C139.891 70.0651 149.705 39.5799 149.792 33.6592L150.254 2.21289L173.267 2.55078L172.947 24.2129C172.875 29.1343 167.919 44.3635 166.041 49.9189C160.345 66.7822 151.023 82.3464 143.688 98.5107L144.739 104.525L150.045 114.758C170.092 79.9198 196.65 44.6059 196.282 2.88965L220.732 3.24902C215.052 51.6464 180.913 89.3121 156.154 129.49L160.403 143.524C189.764 98.4507 233.246 57.7727 243.744 3.58691L266.756 3.92578C254.842 54.8089 212.04 92.5798 181.673 133.642C177.544 139.223 163.898 156.747 163.831 162.284C163.684 174.056 170.208 188.576 163.759 201L155.953 200.808C160.115 145.847 121.143 100.591 105.283 50.8408C103.27 44.5318 98.0889 27.3685 98.1719 21.7168L98.4697 1.45215L98.4736 1.44824L122.924 1.80762ZM50.752 0.698242L73.7637 1.03613C72.663 43.2619 98.8942 78.5119 116.706 114.898C120.507 115.308 120.378 101.759 124.001 105.227C124.533 105.738 129.482 117.789 129.561 118.712C129.981 123.46 126.34 127.005 126.554 131.031C126.753 134.803 130.587 141.949 131.955 144.252C133.323 146.554 135.15 140.652 137.935 136.184C141.191 143.477 142.029 149.666 142.029 149.666L138.952 159.263C138.952 159.263 141.781 169.094 141.728 173.976L147.554 167.073C150.579 179.548 149.519 188.729 144.837 200.585L135.562 200.448C131.291 125.92 54.7684 75.182 50.748 0.694336L50.752 0.698242ZM24.4502 0.358398C30.6894 54.6538 75.4296 95.7359 101.458 142.015C101.467 142.035 102.77 144.878 104.062 142.979C105.706 140.562 107.318 135.788 107.318 135.788C109.385 139.509 113.538 146.462 114.659 149.521C115.081 150.67 110.909 155.672 111.912 160.981C112.59 164.579 116.738 168.678 117.091 172.779L119.847 166.718C128.078 175.836 125.466 188.968 123.644 200.272L114.859 200.144C96.4772 124.067 17.4696 76.3276 0 0L24.4502 0.358398Z" fill="white"/>
</svg>
