<svg width="123" height="178" viewBox="0 0 123 178" fill="none" xmlns="http://www.w3.org/2000/svg">
<rect width="123" height="178" rx="15" fill="white"/>
<g clip-path="url(#clip0_1033_916)">
<path d="M102 5C110.284 5 117 11.7157 117 20V127.909C117 136.193 110.284 142.909 102 142.909H21C12.7158 142.909 6.00005 136.193 6 127.909V20C6 11.7157 12.7157 5 21 5H33.7803C33.9236 9.81708 37.8708 13.6777 42.7227 13.6777H80.1465C84.9983 13.6777 88.9455 9.81708 89.0889 5H102Z" fill="#3760E7"/>
</g>
<path d="M12.088 54L15.52 46.3H17.28L20.723 54H18.853L16.037 47.202H16.741L13.914 54H12.088ZM13.804 52.35L14.277 50.997H18.237L18.721 52.35H13.804ZM22.1036 56.222C21.7956 56.222 21.4913 56.1743 21.1906 56.079C20.8899 55.9837 20.6443 55.8517 20.4536 55.683L21.0806 54.462C21.2126 54.5793 21.3629 54.671 21.5316 54.737C21.7076 54.803 21.8799 54.836 22.0486 54.836C22.2906 54.836 22.4813 54.7773 22.6206 54.66C22.7673 54.55 22.8993 54.363 23.0166 54.099L23.3246 53.373L23.4566 53.186L25.5796 48.082H27.2296L24.5566 54.363C24.3659 54.8397 24.1459 55.2137 23.8966 55.485C23.6546 55.7563 23.3833 55.947 23.0826 56.057C22.7893 56.167 22.4629 56.222 22.1036 56.222ZM23.1156 54.231L20.4756 48.082H22.2466L24.2926 53.032L23.1156 54.231ZM31.7085 53.23V49.49H29.7725L29.7395 50.249C29.7248 50.5643 29.7065 50.865 29.6845 51.151C29.6625 51.437 29.6185 51.6973 29.5525 51.932C29.4938 52.1593 29.4058 52.3537 29.2885 52.515C29.1711 52.669 29.0135 52.7753 28.8155 52.834L27.1215 52.592C27.3341 52.592 27.5065 52.5297 27.6385 52.405C27.7705 52.273 27.8731 52.0933 27.9465 51.866C28.0198 51.6313 28.0748 51.3673 28.1115 51.074C28.1481 50.7733 28.1738 50.458 28.1885 50.128L28.2655 48.082H33.4245V53.23H31.7085ZM26.9235 55.276V52.592H34.2715V55.276H32.6765V54H28.5185V55.276H26.9235ZM35.3514 54V48.082H37.0564V51.602L39.9384 48.082H41.5114V54H39.8064V50.48L36.9354 54H35.3514ZM44.4259 54V49.094L44.8109 49.49H42.4239V48.082H48.1329V49.49H45.7459L46.1309 49.094V54H44.4259ZM52.1629 54V48.082H53.8679V51.602L56.7499 48.082H58.3229V54H56.6179V50.48L53.7469 54H52.1629ZM12.825 67V61.082H18.71V67H16.994V62.105L17.379 62.49H14.145L14.53 62.105V67H12.825ZM23.8423 67.088C23.3436 67.088 22.9073 66.978 22.5333 66.758C22.1593 66.538 21.8659 66.2043 21.6533 65.757C21.4479 65.3023 21.3453 64.7303 21.3453 64.041C21.3453 63.3443 21.4443 62.7723 21.6423 62.325C21.8403 61.8777 22.1263 61.544 22.5003 61.324C22.8743 61.104 23.3216 60.994 23.8423 60.994C24.3996 60.994 24.8983 61.1223 25.3383 61.379C25.7856 61.6283 26.1376 61.9803 26.3943 62.435C26.6583 62.8897 26.7903 63.425 26.7903 64.041C26.7903 64.6643 26.6583 65.2033 26.3943 65.658C26.1376 66.1127 25.7856 66.4647 25.3383 66.714C24.8983 66.9633 24.3996 67.088 23.8423 67.088ZM20.3443 69.134V61.082H21.9833V62.292L21.9503 64.052L22.0603 65.801V69.134H20.3443ZM23.5453 65.68C23.8313 65.68 24.0843 65.614 24.3043 65.482C24.5316 65.35 24.7113 65.163 24.8433 64.921C24.9826 64.6717 25.0523 64.3783 25.0523 64.041C25.0523 63.6963 24.9826 63.403 24.8433 63.161C24.7113 62.919 24.5316 62.732 24.3043 62.6C24.0843 62.468 23.8313 62.402 23.5453 62.402C23.2593 62.402 23.0026 62.468 22.7753 62.6C22.5479 62.732 22.3683 62.919 22.2363 63.161C22.1043 63.403 22.0383 63.6963 22.0383 64.041C22.0383 64.3783 22.1043 64.6717 22.2363 64.921C22.3683 65.163 22.5479 65.35 22.7753 65.482C23.0026 65.614 23.2593 65.68 23.5453 65.68ZM30.886 67.088C30.2113 67.088 29.6173 66.956 29.104 66.692C28.598 66.428 28.2056 66.0687 27.927 65.614C27.6483 65.152 27.509 64.6277 27.509 64.041C27.509 63.447 27.6446 62.9227 27.916 62.468C28.1946 62.006 28.5723 61.6467 29.049 61.39C29.5256 61.126 30.0646 60.994 30.666 60.994C31.2453 60.994 31.766 61.1187 32.228 61.368C32.6973 61.61 33.0676 61.962 33.339 62.424C33.6103 62.8787 33.746 63.425 33.746 64.063C33.746 64.129 33.7423 64.206 33.735 64.294C33.7276 64.3747 33.7203 64.4517 33.713 64.525H28.906V63.524H32.811L32.151 63.821C32.151 63.513 32.0886 63.2453 31.964 63.018C31.8393 62.7907 31.667 62.6147 31.447 62.49C31.227 62.358 30.9703 62.292 30.677 62.292C30.3836 62.292 30.1233 62.358 29.896 62.49C29.676 62.6147 29.5036 62.7943 29.379 63.029C29.2543 63.2563 29.192 63.5277 29.192 63.843V64.107C29.192 64.4297 29.2616 64.7157 29.401 64.965C29.5476 65.207 29.7493 65.394 30.006 65.526C30.27 65.6507 30.578 65.713 30.93 65.713C31.2453 65.713 31.5203 65.6653 31.755 65.57C31.997 65.4747 32.217 65.3317 32.415 65.141L33.328 66.131C33.0566 66.439 32.7156 66.6773 32.305 66.846C31.8943 67.0073 31.4213 67.088 30.886 67.088ZM39.0776 66.23V62.49H37.1416L37.1086 63.249C37.094 63.5643 37.0756 63.865 37.0536 64.151C37.0316 64.437 36.9876 64.6973 36.9216 64.932C36.863 65.1593 36.775 65.3537 36.6576 65.515C36.5403 65.669 36.3826 65.7753 36.1846 65.834L34.4906 65.592C34.7033 65.592 34.8756 65.5297 35.0076 65.405C35.1396 65.273 35.2423 65.0933 35.3156 64.866C35.389 64.6313 35.444 64.3673 35.4806 64.074C35.5173 63.7733 35.543 63.458 35.5576 63.128L35.6346 61.082H40.7936V66.23H39.0776ZM34.2926 68.276V65.592H41.6406V68.276H40.0456V67H35.8876V68.276H34.2926ZM42.7205 67V61.082H48.6055V67H46.8895V62.105L47.2745 62.49H44.0405L44.4255 62.105V67H42.7205ZM53.7378 67.088C53.2391 67.088 52.8028 66.978 52.4288 66.758C52.0548 66.538 51.7614 66.2043 51.5488 65.757C51.3434 65.3023 51.2408 64.7303 51.2408 64.041C51.2408 63.3443 51.3398 62.7723 51.5378 62.325C51.7358 61.8777 52.0218 61.544 52.3958 61.324C52.7698 61.104 53.2171 60.994 53.7378 60.994C54.2951 60.994 54.7938 61.1223 55.2338 61.379C55.6811 61.6283 56.0331 61.9803 56.2898 62.435C56.5538 62.8897 56.6858 63.425 56.6858 64.041C56.6858 64.6643 56.5538 65.2033 56.2898 65.658C56.0331 66.1127 55.6811 66.4647 55.2338 66.714C54.7938 66.9633 54.2951 67.088 53.7378 67.088ZM50.2398 69.134V61.082H51.8788V62.292L51.8458 64.052L51.9558 65.801V69.134H50.2398ZM53.4408 65.68C53.7268 65.68 53.9798 65.614 54.1998 65.482C54.4271 65.35 54.6068 65.163 54.7388 64.921C54.8781 64.6717 54.9478 64.3783 54.9478 64.041C54.9478 63.6963 54.8781 63.403 54.7388 63.161C54.6068 62.919 54.4271 62.732 54.1998 62.6C53.9798 62.468 53.7268 62.402 53.4408 62.402C53.1548 62.402 52.8981 62.468 52.6708 62.6C52.4434 62.732 52.2638 62.919 52.1318 63.161C51.9998 63.403 51.9338 63.6963 51.9338 64.041C51.9338 64.3783 51.9998 64.6717 52.1318 64.921C52.2638 65.163 52.4434 65.35 52.6708 65.482C52.8981 65.614 53.1548 65.68 53.4408 65.68ZM60.6605 67.088C60.0298 67.088 59.4688 66.956 58.9775 66.692C58.4935 66.428 58.1085 66.0687 57.8225 65.614C57.5438 65.152 57.4045 64.6277 57.4045 64.041C57.4045 63.447 57.5438 62.9227 57.8225 62.468C58.1085 62.006 58.4935 61.6467 58.9775 61.39C59.4688 61.126 60.0298 60.994 60.6605 60.994C61.2838 60.994 61.8411 61.126 62.3325 61.39C62.8238 61.6467 63.2088 62.0023 63.4875 62.457C63.7661 62.9117 63.9055 63.4397 63.9055 64.041C63.9055 64.6277 63.7661 65.152 63.4875 65.614C63.2088 66.0687 62.8238 66.428 62.3325 66.692C61.8411 66.956 61.2838 67.088 60.6605 67.088ZM60.6605 65.68C60.9465 65.68 61.2031 65.614 61.4305 65.482C61.6578 65.35 61.8375 65.163 61.9695 64.921C62.1015 64.6717 62.1675 64.3783 62.1675 64.041C62.1675 63.6963 62.1015 63.403 61.9695 63.161C61.8375 62.919 61.6578 62.732 61.4305 62.6C61.2031 62.468 60.9465 62.402 60.6605 62.402C60.3745 62.402 60.1178 62.468 59.8905 62.6C59.6631 62.732 59.4798 62.919 59.3405 63.161C59.2085 63.403 59.1425 63.6963 59.1425 64.041C59.1425 64.3783 59.2085 64.6717 59.3405 64.921C59.4798 65.163 59.6631 65.35 59.8905 65.482C60.1178 65.614 60.3745 65.68 60.6605 65.68ZM67.9787 67.088C67.3041 67.088 66.7101 66.956 66.1967 66.692C65.6907 66.428 65.2984 66.0687 65.0197 65.614C64.7411 65.152 64.6017 64.6277 64.6017 64.041C64.6017 63.447 64.7374 62.9227 65.0087 62.468C65.2874 62.006 65.6651 61.6467 66.1417 61.39C66.6184 61.126 67.1574 60.994 67.7587 60.994C68.3381 60.994 68.8587 61.1187 69.3207 61.368C69.7901 61.61 70.1604 61.962 70.4317 62.424C70.7031 62.8787 70.8387 63.425 70.8387 64.063C70.8387 64.129 70.8351 64.206 70.8277 64.294C70.8204 64.3747 70.8131 64.4517 70.8057 64.525H65.9987V63.524H69.9037L69.2437 63.821C69.2437 63.513 69.1814 63.2453 69.0567 63.018C68.9321 62.7907 68.7597 62.6147 68.5397 62.49C68.3197 62.358 68.0631 62.292 67.7697 62.292C67.4764 62.292 67.2161 62.358 66.9887 62.49C66.7687 62.6147 66.5964 62.7943 66.4717 63.029C66.3471 63.2563 66.2847 63.5277 66.2847 63.843V64.107C66.2847 64.4297 66.3544 64.7157 66.4937 64.965C66.6404 65.207 66.8421 65.394 67.0987 65.526C67.3627 65.6507 67.6707 65.713 68.0227 65.713C68.3381 65.713 68.6131 65.6653 68.8477 65.57C69.0897 65.4747 69.3097 65.3317 69.5077 65.141L70.4207 66.131C70.1494 66.439 69.8084 66.6773 69.3977 66.846C68.9871 67.0073 68.5141 67.088 67.9787 67.088ZM76.3451 67L74.3651 64.195L75.7621 63.37L78.3691 67H76.3451ZM72.1541 67V61.082H73.8701V67H72.1541ZM73.3641 64.756V63.381H75.4321V64.756H73.3641ZM75.9271 64.239L74.3211 64.063L76.4001 61.082H78.2261L75.9271 64.239ZM80.423 67V62.094L80.808 62.49H78.421V61.082H84.13V62.49H81.743L82.128 62.094V67H80.423ZM85.0447 67V61.082H86.7497V63.392H89.3237V61.082H91.0397V67H89.3237V64.789H86.7497V67H85.0447ZM96.2244 67V65.845L96.1144 65.592V63.524C96.1144 63.1573 96.0008 62.8713 95.7734 62.666C95.5534 62.4607 95.2124 62.358 94.7504 62.358C94.4351 62.358 94.1234 62.4093 93.8154 62.512C93.5148 62.6073 93.2581 62.7393 93.0454 62.908L92.4294 61.709C92.7521 61.4817 93.1408 61.3057 93.5954 61.181C94.0501 61.0563 94.5121 60.994 94.9814 60.994C95.8834 60.994 96.5838 61.2067 97.0824 61.632C97.5811 62.0573 97.8304 62.721 97.8304 63.623V67H96.2244ZM94.4204 67.088C93.9584 67.088 93.5624 67.011 93.2324 66.857C92.9024 66.6957 92.6494 66.4793 92.4734 66.208C92.2974 65.9367 92.2094 65.6323 92.2094 65.295C92.2094 64.943 92.2938 64.635 92.4624 64.371C92.6384 64.107 92.9134 63.9017 93.2874 63.755C93.6614 63.601 94.1491 63.524 94.7504 63.524H96.3234V64.525H94.9374C94.5341 64.525 94.2554 64.591 94.1014 64.723C93.9548 64.855 93.8814 65.02 93.8814 65.218C93.8814 65.438 93.9658 65.614 94.1344 65.746C94.3104 65.8707 94.5488 65.933 94.8494 65.933C95.1354 65.933 95.3921 65.867 95.6194 65.735C95.8468 65.5957 96.0118 65.394 96.1144 65.13L96.3784 65.922C96.2538 66.3033 96.0264 66.593 95.6964 66.791C95.3664 66.989 94.9411 67.088 94.4204 67.088ZM103.05 67V65.031L103.292 65.306H101.653C100.802 65.306 100.135 65.13 99.6511 64.778C99.1671 64.426 98.9251 63.92 98.9251 63.26C98.9251 62.556 99.1781 62.017 99.6841 61.643C100.197 61.269 100.887 61.082 101.752 61.082H104.579V67H103.05ZM98.8371 67L100.41 64.745H102.159L100.663 67H98.8371ZM103.05 64.503V62.039L103.292 62.479H101.785C101.433 62.479 101.158 62.545 100.96 62.677C100.769 62.809 100.674 63.0217 100.674 63.315C100.674 63.8797 101.037 64.162 101.763 64.162H103.292L103.05 64.503ZM12.825 80V74.082H18.71V80H16.994V75.105L17.379 75.49H14.145L14.53 75.105V80H12.825ZM23.1273 80.088C22.4966 80.088 21.9356 79.956 21.4443 79.692C20.9603 79.428 20.5753 79.0687 20.2893 78.614C20.0106 78.152 19.8713 77.6277 19.8713 77.041C19.8713 76.447 20.0106 75.9227 20.2893 75.468C20.5753 75.006 20.9603 74.6467 21.4443 74.39C21.9356 74.126 22.4966 73.994 23.1273 73.994C23.7506 73.994 24.3079 74.126 24.7993 74.39C25.2906 74.6467 25.6756 75.0023 25.9543 75.457C26.2329 75.9117 26.3723 76.4397 26.3723 77.041C26.3723 77.6277 26.2329 78.152 25.9543 78.614C25.6756 79.0687 25.2906 79.428 24.7993 79.692C24.3079 79.956 23.7506 80.088 23.1273 80.088ZM23.1273 78.68C23.4133 78.68 23.6699 78.614 23.8973 78.482C24.1246 78.35 24.3043 78.163 24.4363 77.921C24.5683 77.6717 24.6343 77.3783 24.6343 77.041C24.6343 76.6963 24.5683 76.403 24.4363 76.161C24.3043 75.919 24.1246 75.732 23.8973 75.6C23.6699 75.468 23.4133 75.402 23.1273 75.402C22.8413 75.402 22.5846 75.468 22.3573 75.6C22.1299 75.732 21.9466 75.919 21.8073 76.161C21.6753 76.403 21.6093 76.6963 21.6093 77.041C21.6093 77.3783 21.6753 77.6717 21.8073 77.921C21.9466 78.163 22.1299 78.35 22.3573 78.482C22.5846 78.614 22.8413 78.68 23.1273 78.68ZM31.5366 79.23V75.49H29.6006L29.5676 76.249C29.5529 76.5643 29.5346 76.865 29.5126 77.151C29.4906 77.437 29.4466 77.6973 29.3806 77.932C29.3219 78.1593 29.2339 78.3537 29.1166 78.515C28.9993 78.669 28.8416 78.7753 28.6436 78.834L26.9496 78.592C27.1623 78.592 27.3346 78.5297 27.4666 78.405C27.5986 78.273 27.7013 78.0933 27.7746 77.866C27.8479 77.6313 27.9029 77.3673 27.9396 77.074C27.9763 76.7733 28.0019 76.458 28.0166 76.128L28.0936 74.082H33.2526V79.23H31.5366ZM26.7516 81.276V78.592H34.0996V81.276H32.5046V80H28.3466V81.276H26.7516ZM35.1795 80V74.082H39.9205V75.49H36.4995L36.8845 75.116V80H35.1795ZM43.3548 80.088C42.7241 80.088 42.1631 79.956 41.6718 79.692C41.1878 79.428 40.8028 79.0687 40.5168 78.614C40.2381 78.152 40.0988 77.6277 40.0988 77.041C40.0988 76.447 40.2381 75.9227 40.5168 75.468C40.8028 75.006 41.1878 74.6467 41.6718 74.39C42.1631 74.126 42.7241 73.994 43.3548 73.994C43.9781 73.994 44.5355 74.126 45.0268 74.39C45.5181 74.6467 45.9031 75.0023 46.1818 75.457C46.4605 75.9117 46.5998 76.4397 46.5998 77.041C46.5998 77.6277 46.4605 78.152 46.1818 78.614C45.9031 79.0687 45.5181 79.428 45.0268 79.692C44.5355 79.956 43.9781 80.088 43.3548 80.088ZM43.3548 78.68C43.6408 78.68 43.8975 78.614 44.1248 78.482C44.3521 78.35 44.5318 78.163 44.6638 77.921C44.7958 77.6717 44.8618 77.3783 44.8618 77.041C44.8618 76.6963 44.7958 76.403 44.6638 76.161C44.5318 75.919 44.3521 75.732 44.1248 75.6C43.8975 75.468 43.6408 75.402 43.3548 75.402C43.0688 75.402 42.8121 75.468 42.5848 75.6C42.3575 75.732 42.1741 75.919 42.0348 76.161C41.9028 76.403 41.8368 76.6963 41.8368 77.041C41.8368 77.3783 41.9028 77.6717 42.0348 77.921C42.1741 78.163 42.3575 78.35 42.5848 78.482C42.8121 78.614 43.0688 78.68 43.3548 78.68ZM48.8302 80V75.094L49.2152 75.49H46.8282V74.082H52.5372V75.49H50.1502L50.5352 75.094V80H48.8302ZM55.9769 80.088C55.3462 80.088 54.7852 79.956 54.2939 79.692C53.8099 79.428 53.4249 79.0687 53.1389 78.614C52.8602 78.152 52.7209 77.6277 52.7209 77.041C52.7209 76.447 52.8602 75.9227 53.1389 75.468C53.4249 75.006 53.8099 74.6467 54.2939 74.39C54.7852 74.126 55.3462 73.994 55.9769 73.994C56.6002 73.994 57.1575 74.126 57.6489 74.39C58.1402 74.6467 58.5252 75.0023 58.8039 75.457C59.0825 75.9117 59.2219 76.4397 59.2219 77.041C59.2219 77.6277 59.0825 78.152 58.8039 78.614C58.5252 79.0687 58.1402 79.428 57.6489 79.692C57.1575 79.956 56.6002 80.088 55.9769 80.088ZM55.9769 78.68C56.2629 78.68 56.5195 78.614 56.7469 78.482C56.9742 78.35 57.1539 78.163 57.2859 77.921C57.4179 77.6717 57.4839 77.3783 57.4839 77.041C57.4839 76.6963 57.4179 76.403 57.2859 76.161C57.1539 75.919 56.9742 75.732 56.7469 75.6C56.5195 75.468 56.2629 75.402 55.9769 75.402C55.6909 75.402 55.4342 75.468 55.2069 75.6C54.9795 75.732 54.7962 75.919 54.6569 76.161C54.5249 76.403 54.4589 76.6963 54.4589 77.041C54.4589 77.3783 54.5249 77.6717 54.6569 77.921C54.7962 78.163 54.9795 78.35 55.2069 78.482C55.4342 78.614 55.6909 78.68 55.9769 78.68ZM60.4021 80V74.082H63.4271C64.1678 74.082 64.7471 74.2177 65.1651 74.489C65.5831 74.753 65.7921 75.127 65.7921 75.611C65.7921 76.095 65.5941 76.4763 65.1981 76.755C64.8095 77.0263 64.2925 77.162 63.6471 77.162L63.8231 76.766C64.5418 76.766 65.0771 76.898 65.4291 77.162C65.7885 77.426 65.9681 77.811 65.9681 78.317C65.9681 78.8377 65.7701 79.2483 65.3741 79.549C64.9781 79.8497 64.3731 80 63.5591 80H60.4021ZM61.9751 78.834H63.4161C63.7315 78.834 63.9661 78.7827 64.1201 78.68C64.2815 78.57 64.3621 78.405 64.3621 78.185C64.3621 77.9577 64.2888 77.7927 64.1421 77.69C63.9955 77.58 63.7645 77.525 63.4491 77.525H61.9751V78.834ZM61.9751 76.513H63.2731C63.5738 76.513 63.7975 76.458 63.9441 76.348C64.0981 76.238 64.1751 76.0803 64.1751 75.875C64.1751 75.6623 64.0981 75.5047 63.9441 75.402C63.7975 75.2993 63.5738 75.248 63.2731 75.248H61.9751V76.513ZM71.4359 80L69.4559 77.195L70.8529 76.37L73.4599 80H71.4359ZM67.2449 80V74.082H68.9609V80H67.2449ZM68.4549 77.756V76.381H70.5229V77.756H68.4549ZM71.0179 77.239L69.4119 77.063L71.4909 74.082H73.3169L71.0179 77.239ZM77.7371 80V78.845L77.6271 78.592V76.524C77.6271 76.1573 77.5135 75.8713 77.2861 75.666C77.0661 75.4607 76.7251 75.358 76.2631 75.358C75.9478 75.358 75.6361 75.4093 75.3281 75.512C75.0275 75.6073 74.7708 75.7393 74.5581 75.908L73.9421 74.709C74.2648 74.4817 74.6535 74.3057 75.1081 74.181C75.5628 74.0563 76.0248 73.994 76.4941 73.994C77.3961 73.994 78.0965 74.2067 78.5951 74.632C79.0938 75.0573 79.3431 75.721 79.3431 76.623V80H77.7371ZM75.9331 80.088C75.4711 80.088 75.0751 80.011 74.7451 79.857C74.4151 79.6957 74.1621 79.4793 73.9861 79.208C73.8101 78.9367 73.7221 78.6323 73.7221 78.295C73.7221 77.943 73.8065 77.635 73.9751 77.371C74.1511 77.107 74.4261 76.9017 74.8001 76.755C75.1741 76.601 75.6618 76.524 76.2631 76.524H77.8361V77.525H76.4501C76.0468 77.525 75.7681 77.591 75.6141 77.723C75.4675 77.855 75.3941 78.02 75.3941 78.218C75.3941 78.438 75.4785 78.614 75.6471 78.746C75.8231 78.8707 76.0615 78.933 76.3621 78.933C76.6481 78.933 76.9048 78.867 77.1321 78.735C77.3595 78.5957 77.5245 78.394 77.6271 78.13L77.8911 78.922C77.7665 79.3033 77.5391 79.593 77.2091 79.791C76.8791 79.989 76.4538 80.088 75.9331 80.088Z" fill="#3760E7"/>
<g clip-path="url(#clip1_1033_916)">
<path d="M33.4102 117.908C33.409 114.789 33.8033 111.762 35.3231 108.978C38.2979 103.528 42.9136 100.242 48.9688 98.9734C56.7667 97.3388 65.0392 100.787 69.3888 107.416C71.6062 110.793 72.5207 114.537 72.4679 118.541C72.4296 121.415 71.8507 124.169 70.6221 126.775C70.4555 127.127 70.5718 127.3 70.8031 127.534C74.6817 131.455 78.5854 135.353 82.4124 139.323C84.2762 141.256 86.0141 143.312 87.7701 145.345C88.5899 146.295 89.1376 147.389 89.0969 148.7C89.0022 151.772 85.5383 154.031 82.7145 152.818C82.1979 152.596 81.7317 152.204 81.3182 151.812C76.6473 147.389 71.9861 142.954 67.3344 138.511C66.1107 137.343 64.9145 136.143 63.7292 134.934C63.4187 134.617 63.203 134.555 62.7739 134.772C59.7056 136.316 56.4802 137.402 53.0307 137.606C48.9664 137.847 45.2472 136.705 41.9236 134.397C37.3558 131.226 34.5057 126.926 33.6559 121.408C33.4773 120.257 33.4869 119.076 33.4102 117.908ZM52.8378 99.413C52.3583 99.413 51.8789 99.4011 51.4007 99.4178C51.1022 99.4285 50.8062 99.4797 50.5089 99.5178C45.3923 100.183 41.1649 102.467 37.906 106.452C35.6071 109.264 34.3702 112.48 34.2803 116.132C34.2276 118.259 34.1713 120.381 34.6279 122.474C35.528 126.6 37.6783 129.988 40.9192 132.677C44.0978 135.315 47.7498 136.772 51.9304 136.852C54.5529 136.902 57.0268 136.233 59.4563 135.376C62.8842 134.165 65.9741 132.38 68.1255 129.392C72.1072 123.861 72.722 117.764 70.5119 111.453C67.9541 104.152 60.8154 99.3987 52.8378 99.413ZM63.9928 134.106C65.1746 135.283 66.2953 136.436 67.4567 137.546C72.2761 142.156 77.1148 146.746 81.9294 151.361C82.76 152.157 83.7153 152.414 84.8264 152.328C86.8747 152.17 88.5971 150.03 88.2675 148.016C88.0793 146.866 87.3697 145.991 86.6218 145.168C83.5031 141.737 80.4024 138.287 77.2131 134.923C74.9286 132.514 72.5123 130.228 70.0984 127.829C68.6085 130.518 66.5398 132.515 63.9928 134.106Z" fill="#3760E7"/>
<path d="M49.6068 110.949C49.0879 113.239 48.6168 115.399 48.1038 117.548C47.7311 119.107 47.9936 118.916 46.3767 118.921C43.8405 118.928 41.3032 118.923 38.767 118.922C38.5884 118.922 38.3894 118.948 38.236 118.882C38.0982 118.822 37.904 118.629 37.9232 118.534C37.9556 118.384 38.1234 118.224 38.2744 118.148C38.4026 118.082 38.5872 118.126 38.7466 118.126C41.3835 118.126 44.0191 118.119 46.656 118.133C47.0371 118.136 47.2049 118.042 47.2948 117.639C47.9013 114.913 48.5401 112.194 49.1694 109.474C49.1921 109.378 49.1849 109.257 49.2413 109.189C49.3803 109.021 49.5493 108.877 49.7063 108.724C49.831 108.886 50.0239 109.031 50.0683 109.213C50.3464 110.348 50.5717 111.496 50.8534 112.63C51.2453 114.206 51.678 115.772 52.0771 117.346C52.2365 117.973 52.5805 118.26 53.2589 118.269C54.0739 118.28 54.8889 118.393 55.7028 118.482C56.5549 118.575 56.7839 118.793 56.8678 119.626C57.0356 121.285 57.1806 122.944 57.3376 124.603C57.3604 124.836 57.3975 125.07 57.4467 125.455C57.7283 124.937 57.9201 124.536 58.1562 124.162C59.0024 122.819 59.8654 121.487 60.72 120.149C61.0999 119.556 61.6728 119.313 62.3464 119.314C64.541 119.32 66.7356 119.344 68.9302 119.365C69.2298 119.368 69.5295 119.384 69.8279 119.409C70.1419 119.436 70.6154 119.297 70.5986 119.808C70.5842 120.265 70.1443 120.159 69.8423 120.152C68.0852 120.112 66.3293 120.043 64.5722 120.022C63.7559 120.011 62.9361 120.053 62.1247 120.136C61.861 120.164 61.535 120.339 61.3804 120.55C59.8378 122.651 58.4475 124.842 57.5653 127.316C57.5138 127.461 57.2993 127.654 57.1806 127.642C57.0488 127.628 56.8522 127.413 56.8342 127.268C56.6988 126.125 56.5969 124.979 56.4902 123.834C56.3632 122.471 56.2325 121.108 56.1271 119.744C56.0959 119.344 55.8538 119.251 55.5362 119.223C54.8398 119.164 54.1446 119.106 53.4471 119.066C52.0315 118.989 51.6648 118.731 51.3004 117.38C50.7742 115.43 50.2852 113.47 49.7782 111.515C49.7411 111.367 49.6907 111.222 49.6068 110.949Z" fill="#3760E7"/>
</g>
<defs>
<clipPath id="clip0_1033_916">
<rect width="111" height="26" fill="white" transform="translate(6 5)"/>
</clipPath>
<clipPath id="clip1_1033_916">
<rect width="67" height="61" fill="white" transform="translate(27 95)"/>
</clipPath>
</defs>
</svg>
