<svg width="230" height="231" viewBox="0 0 230 231" fill="none" xmlns="http://www.w3.org/2000/svg">
<g filter="url(#filter0_f_594_822)">
<circle cx="115" cy="115.5" r="80" fill="#3760E7"/>
</g>
<circle cx="114.5" cy="115" r="89.5" stroke="white"/>
<g clip-path="url(#clip0_594_822)">
<path d="M95.1089 133.364C94.6035 132.762 94.0653 132.185 93.6005 131.554C92.7321 130.375 92.7529 129.275 93.7712 128.219C94.5515 127.409 95.435 126.687 96.3427 126.019C97.0272 125.514 97.2058 124.919 97.0644 124.149C96.7716 122.54 95.7055 121.58 94.0982 121.434C93.2482 121.357 92.3921 121.266 91.5638 121.077C90.6111 120.858 90.1212 120.165 90.1506 119.197C90.1908 117.864 90.2374 116.525 90.4008 115.201C90.681 112.929 92.0363 111.99 94.2874 112.414C94.9263 112.534 95.5549 112.703 96.1907 112.843C96.9165 113.003 97.3782 112.736 97.5711 111.998C97.7706 111.236 98.0735 110.491 98.176 109.719C98.2215 109.373 97.9585 108.918 97.7094 108.618C97.1438 107.938 96.4537 107.362 95.8961 106.675C94.9872 105.557 94.9795 104.548 95.8406 103.404C97.0513 101.796 98.4667 100.413 100.368 99.6376C101.644 99.1165 102.559 99.3234 103.482 100.366C104.07 101.03 104.612 101.741 105.112 102.474C105.589 103.174 106.158 103.442 107.023 103.316C109.945 102.893 110.281 102.552 110.375 99.6385C110.378 99.5367 110.38 99.4332 110.38 99.3311C110.403 96.464 111.596 95.4061 114.428 95.9187C115.695 96.147 116.932 96.5989 118.15 97.0374C119.159 97.4012 119.633 98.1774 119.54 99.2872C119.448 100.38 119.361 101.474 119.345 102.567C119.337 103.115 118.963 103.801 119.831 104.142C120.85 104.544 121.846 105.173 122.886 104.258C123.45 103.761 123.936 103.177 124.47 102.647C126.224 100.921 127.641 100.949 129.233 102.847C130.306 104.128 131.28 105.494 132.261 106.852C133.154 108.094 133.031 108.835 131.881 109.867C130.889 110.755 129.873 111.624 128.941 112.575C128.338 113.191 128.409 115.763 129.04 116.316C129.323 116.564 129.839 116.612 130.256 116.625C131.314 116.658 132.379 116.553 133.432 116.625C135.349 116.756 136.214 117.601 136.434 119.479C136.643 121.249 136.343 122.953 135.679 124.606C135.187 125.834 134.289 126.456 132.991 126.441C132.138 126.431 131.285 126.324 130.435 126.247C129.131 126.129 127.275 127.365 126.99 128.628C126.932 128.883 127.155 129.261 127.348 129.503C128.176 130.548 129.078 131.536 129.884 132.596C130.666 133.624 130.702 134.237 129.795 135.14C128.389 136.541 126.881 137.846 125.348 139.108C124.612 139.715 123.769 139.54 123.142 138.834C122.212 137.787 121.311 136.713 120.442 135.617C119.846 134.861 119.286 134.8 118.349 135.161C116.452 135.89 115.355 136.912 115.75 139.12C115.862 139.744 115.607 140.481 115.375 141.112C115.024 142.069 114.255 142.687 113.233 142.53C111.279 142.229 109.305 141.916 107.42 141.348C105.631 140.808 105.349 139.992 105.825 138.201C106.054 137.342 106.358 136.484 106.431 135.609C106.466 135.167 106.184 134.524 105.829 134.264C105.068 133.706 104.186 133.299 103.312 132.92C103.097 132.828 102.658 133.01 102.444 133.201C101.681 133.887 100.994 134.661 100.231 135.35C99.0054 136.451 97.7535 136.378 96.6357 135.165C96.1032 134.588 95.6203 133.964 95.1149 133.362C95.112 133.362 95.1105 133.363 95.1089 133.364ZM131.705 108.187C130.329 106.469 129.051 104.838 127.731 103.245C127.127 102.516 126.412 102.615 125.763 103.227C125.117 103.838 124.51 104.492 123.873 105.115C122.859 106.108 121.685 106.33 120.375 105.808C119.899 105.618 119.443 105.382 118.962 105.209C118.203 104.937 117.915 104.404 117.964 103.626C118.051 102.224 118.14 100.824 118.181 99.4203C118.19 99.0825 118.113 98.5228 117.909 98.4294C116.291 97.691 114.639 97.0007 112.788 97.2274C112.078 97.3139 111.714 97.7322 111.703 98.4813C111.689 99.4739 111.741 100.488 111.541 101.449C111.393 102.176 111.069 103.046 110.526 103.482C109.16 104.578 107.45 104.802 105.752 104.592C104.224 104.403 103.562 103.166 102.982 101.913C102.615 101.123 101.294 100.543 100.573 101.036C99.4245 101.817 98.3043 102.69 97.3436 103.689C96.2378 104.842 96.3328 105.43 97.481 106.548C100.198 109.196 99.9603 108.128 98.9278 112.057C98.4355 113.925 97.4662 114.481 95.5572 114.084C94.888 113.944 94.2264 113.751 93.5487 113.674C92.504 113.554 91.9818 113.925 91.7994 114.954C91.6679 115.692 91.6554 116.452 91.6248 117.204C91.5181 119.904 91.5239 119.904 94.2374 120.119C96.6841 120.314 98.296 121.979 98.4341 124.438C98.49 125.431 98.198 126.233 97.3636 126.848C96.565 127.437 95.7944 128.073 95.0562 128.738C94.4243 129.309 94.0381 130.021 94.6654 130.811C95.6012 131.987 96.5712 133.139 97.5765 134.257C98.186 134.936 98.8436 134.928 99.4992 134.206C100.189 133.445 100.934 132.731 101.675 132.018C102.236 131.478 102.901 131.226 103.647 131.586C104.628 132.063 105.597 132.565 106.548 133.099C107.591 133.684 108.007 134.613 107.789 135.782C107.623 136.655 107.394 137.517 107.164 138.377C106.835 139.61 106.903 139.902 108.154 140.239C109.635 140.639 111.159 140.894 112.674 141.149C113.865 141.351 114.225 141.084 114.361 139.846C114.477 138.795 114.472 137.728 114.479 136.666C114.482 135.978 114.713 135.503 115.381 135.216C116.164 134.877 116.917 134.467 117.682 134.083C119.679 133.077 119.973 133.12 121.43 134.802C122.214 135.706 122.947 136.653 123.713 137.573C124.048 137.975 124.392 138.209 124.909 137.748C126.06 136.72 127.25 135.735 128.425 134.731C128.919 134.308 129.017 133.902 128.522 133.358C127.627 132.37 126.763 131.35 125.957 130.29C125.668 129.911 125.383 129.35 125.439 128.917C125.73 126.735 128.47 124.709 130.677 124.936C131.425 125.014 132.176 125.085 132.927 125.118C133.657 125.148 134.15 124.79 134.436 124.109C135.062 122.621 135.283 121.088 135.096 119.487C134.983 118.518 134.443 117.99 133.486 117.968C132.36 117.94 131.222 118.07 130.107 117.963C129.408 117.896 128.567 117.698 128.09 117.244C126.888 116.101 126.9 112.776 128.023 111.553C128.761 110.748 129.599 110.035 130.405 109.294C130.772 108.946 131.169 108.637 131.705 108.187Z" fill="#FCFBFB"/>
<path d="M77.6344 103.795C79.1715 105.627 80.7762 107.404 82.2302 109.301C84.6428 112.445 84.5392 115.437 81.6349 118.192C78.3097 121.347 74.8412 124.373 71.2483 127.221C68.1268 129.696 64.3085 129.183 61.7052 126.18C58.865 122.904 56.096 119.566 53.3568 116.205C52.678 115.371 52.1549 114.379 51.7043 113.393C50.596 110.976 50.9956 109.068 52.9307 107.276C55.9482 104.478 58.943 101.657 62.0333 98.9436C63.0978 98.0074 64.3506 97.2188 65.6364 96.6168C68.3099 95.3676 70.7053 95.9086 72.7316 98.0159C73.5371 98.8539 74.3488 99.6867 75.1148 100.558C76.0188 101.584 76.8785 102.647 77.7573 103.694C77.7152 103.724 77.6755 103.76 77.6344 103.795ZM76.6889 104.886C76.6937 104.882 76.6984 104.878 76.7018 104.872C75.0565 102.911 73.4959 100.869 71.7422 99.0095C69.7847 96.9329 67.6894 96.66 65.3065 98.2682C63.4766 99.5036 61.8532 101.059 60.1853 102.523C58.0978 104.355 56.0018 106.183 54.009 108.115C52.0529 110.011 51.8746 111.241 53.2845 113.581C56.1057 118.264 59.8549 122.216 63.6195 126.125C64.8473 127.399 66.5899 127.797 68.2891 127.159C69.5443 126.687 70.8065 126.022 71.8196 125.156C74.9439 122.486 78.0337 119.762 80.9757 116.894C82.952 114.968 83.1351 112.965 81.5864 110.789C80.1089 108.715 78.3342 106.846 76.6889 104.886Z" fill="#FCFBFB"/>
<path d="M80.5231 140.45C79.8717 140.879 79.3061 141.262 78.7318 141.629C76.8589 142.823 75.096 142.407 74.2568 140.379C72.9648 137.256 72.9205 133.976 73.6085 130.7C73.875 129.432 74.8395 128.652 76.0831 128.326C79.6119 127.404 83.0885 127.689 86.4759 128.941C87.8934 129.464 88.444 130.736 87.9922 132.2C87.8132 132.781 87.5297 133.341 87.2254 133.872C86.9417 134.367 86.5709 134.81 86.2004 135.33C88.2732 137.047 90.3438 138.659 92.2943 140.407C94.7314 142.59 97.1587 144.8 99.4223 147.161C101.206 149.025 101.143 150.619 99.3064 152.465C97.9642 153.814 96.4696 155.07 94.8661 156.092C92.4499 157.631 90.125 157.037 88.5998 154.581C86.8374 151.741 85.1926 148.826 83.5305 145.925C82.5012 144.128 81.5361 142.298 80.5231 140.45ZM81.5964 139.547C82.8988 141.98 84.0907 144.359 85.4258 146.655C86.9505 149.28 88.5239 151.882 90.2286 154.388C91.1745 155.778 92.5091 156.003 93.9236 155.071C95.4887 154.039 96.9929 152.871 98.345 151.575C99.665 150.312 99.5933 149.448 98.4726 147.988C98.2018 147.636 97.9129 147.292 97.5845 146.997C94.8394 144.536 92.1005 142.07 89.3231 139.644C88.0231 138.508 86.6464 137.464 85.3378 136.407C84.0549 137.484 82.8746 138.474 81.5964 139.547ZM81.8309 137.737C81.8193 137.72 81.8048 137.703 81.7932 137.685C82.2666 137.288 82.8107 136.95 83.1997 136.484C84.358 135.102 85.5617 133.736 86.5413 132.23C87.1926 131.231 86.8429 130.471 85.8067 130.108C82.7687 129.048 79.6648 128.791 76.5097 129.581C75.6004 129.808 74.9519 130.385 74.8094 131.311C74.3797 134.08 74.356 136.847 75.3293 139.516C75.9122 141.114 76.8667 141.361 78.2725 140.364C79.4741 139.511 80.6459 138.616 81.8309 137.737Z" fill="#FCFBFB"/>
<path d="M101.667 174.456C99.7138 171.709 97.6031 169.059 95.8523 166.187C94.2427 163.548 94.6917 161.625 96.9502 159.497C99.7938 156.816 102.631 154.124 105.578 151.56C106.825 150.477 108.265 149.526 109.762 148.833C112.314 147.65 114.723 148.214 116.562 150.297C119.749 153.906 122.905 157.549 125.891 161.325C128.685 164.856 128.44 167.808 125.138 170.917C122.096 173.78 118.935 176.529 115.69 179.161C112.129 182.05 108.367 181.637 105.344 178.223C104.189 176.92 103.098 175.56 101.978 174.225C101.873 174.302 101.77 174.378 101.667 174.456ZM102.223 172.905C102.287 172.856 102.353 172.809 102.417 172.761C103.164 173.651 103.896 174.555 104.663 175.428C105.452 176.323 106.229 177.239 107.094 178.059C109.186 180.039 111.642 180.293 114.018 178.706C118.03 176.024 121.524 172.717 124.85 169.256C126.882 167.14 127.121 165.204 125.33 162.883C122.183 158.806 118.743 154.954 115.38 151.048C114.109 149.571 112.378 149.143 110.63 149.945C109.131 150.632 107.682 151.555 106.43 152.627C103.593 155.056 100.902 157.66 98.1273 160.162C96.0745 162.013 95.6835 163.499 97.1632 165.843C98.71 168.285 100.526 170.558 102.223 172.905Z" fill="#FCFBFB"/>
<path d="M141.916 100.743C138.976 98.358 136.124 96.0894 133.326 93.7584C131.86 92.5368 130.406 91.2783 129.096 89.8964C127.201 87.8982 127.117 85.8873 129.013 83.8914C130.482 82.345 132.174 80.9519 133.958 79.7825C135.634 78.6843 137.03 78.9485 138.204 80.5492C140.297 83.405 142.245 86.3738 144.142 89.3661C145.488 91.4924 146.653 93.736 147.89 95.9157C148.853 95.5531 149.748 95.1206 150.692 94.8804C152.752 94.355 154.06 95.2187 154.359 97.299C154.834 100.579 154.52 103.782 153.209 106.863C152.529 108.459 151.328 109.306 149.608 109.244C146.954 109.148 144.373 108.661 141.957 107.499C141.62 107.338 141.294 107.148 140.985 106.937C139.06 105.617 138.884 103.779 140.523 102.095C140.953 101.656 141.405 101.24 141.916 100.743ZM142.893 99.9078C144.146 98.8565 145.268 97.9529 146.329 96.9845C146.496 96.8309 146.515 96.3087 146.389 96.0745C145.201 93.8874 144.039 91.682 142.732 89.5663C141.082 86.9017 139.368 84.2696 137.553 81.7149C136.533 80.282 135.635 80.1276 134.221 81.1374C132.672 82.2437 131.197 83.4978 129.88 84.8676C128.636 86.1634 128.767 87.5114 129.947 88.9142C130.209 89.2271 130.495 89.526 130.807 89.7892C134.796 93.1386 138.792 96.4786 142.893 99.9078ZM143.874 100.339C143.925 100.419 143.976 100.5 144.026 100.581C143.21 101.365 142.348 102.104 141.589 102.939C140.318 104.338 140.457 105.16 142.115 106.075C144.471 107.378 147.067 107.799 149.717 107.912C150.726 107.955 151.486 107.424 151.905 106.488C153.237 103.522 153.5 100.426 152.999 97.251C152.849 96.2969 152.224 95.9209 151.292 96.1023C150.86 96.1863 150.395 96.2764 150.029 96.5004C147.964 97.7564 145.923 99.054 143.874 100.339Z" fill="#FCFBFB"/>
<path d="M128.773 60.9143C130.266 62.6943 131.81 64.4319 133.24 66.2603C135.735 69.4556 135.72 72.4241 132.79 75.239C129.411 78.4839 125.842 81.5564 122.167 84.4636C119.267 86.7573 115.439 86.2614 113.014 83.4895C110.025 80.0724 107.128 76.5713 104.275 73.0404C103.539 72.128 103.019 71.0079 102.563 69.9137C101.651 67.7268 102.436 65.8911 104.063 64.3683C107.043 61.581 110.024 58.7953 113.084 56.0994C114.123 55.1845 115.332 54.395 116.583 53.7959C119.367 52.4614 121.712 52.9512 123.861 55.1405C124.698 55.9945 125.522 56.8633 126.311 57.7599C127.193 58.7592 128.03 59.7956 128.888 60.8177C128.85 60.8494 128.811 60.8825 128.773 60.9143ZM109.402 77.6666C109.471 77.617 109.537 77.5672 109.605 77.5176C110.243 78.2771 110.877 79.0392 111.517 79.7961C112.18 80.5796 112.822 81.3804 113.519 82.1303C115.779 84.5612 118.024 85.1403 120.568 83.8844C121.418 83.4655 122.235 82.9138 122.947 82.2846C126.028 79.5628 129.148 76.8751 132.089 74.0056C134.089 72.0537 134.319 69.9822 132.641 67.8215C129.565 63.8615 126.326 60.0173 122.989 56.2741C120.91 53.9405 118.881 53.7404 116.249 55.4907C114.497 56.6554 112.964 58.1614 111.376 59.5635C109.242 61.4455 107.094 63.3176 105.055 65.3013C103.177 67.1294 102.964 68.3662 104.364 70.589C105.903 73.0355 107.711 75.3152 109.402 77.6666Z" fill="#FCFBFB"/>
<path d="M172.647 113.221C174.208 115.081 175.819 116.899 177.315 118.81C179.44 121.521 179.595 124.177 177.321 126.755C173.849 130.695 170 134.3 165.521 137.099C162.525 138.97 159.191 138.413 156.884 135.769C153.963 132.422 151.127 129.001 148.325 125.553C147.604 124.665 147.066 123.6 146.595 122.549C145.633 120.406 146.005 118.564 147.727 116.944C150.227 114.594 152.745 112.259 155.333 110.005C156.899 108.64 158.488 107.229 160.279 106.214C163.036 104.651 165.661 105.184 167.801 107.52C169.485 109.357 171.026 111.328 172.631 113.24C172.633 113.232 172.639 113.227 172.647 113.221ZM171.751 114.297C171.82 114.235 171.889 114.176 171.96 114.116C170.165 112.147 168.376 110.175 166.575 108.211C165.23 106.746 163.531 106.237 161.741 107.056C160.242 107.74 158.795 108.67 157.542 109.743C154.73 112.151 152.07 114.733 149.315 117.209C147.182 119.124 146.846 120.489 148.272 122.971C150.849 127.455 154.463 131.134 157.942 134.879C160.334 137.451 162.745 137.655 165.544 135.488C169.193 132.662 172.644 129.555 175.963 126.341C178.063 124.306 178.129 122.372 176.455 119.974C175.053 117.962 173.331 116.18 171.751 114.297Z" fill="#FCFBFB"/>
<path d="M137.294 149.513C137.616 150.017 137.905 150.474 138.195 150.929C139.502 152.971 139.128 154.675 136.95 155.643C133.923 156.987 130.707 157.154 127.476 156.652C126.234 156.46 125.418 155.584 125.126 154.342C124.289 150.784 124.756 147.327 126.153 143.993C126.735 142.601 127.997 142.115 129.485 142.542C130.004 142.69 130.504 142.933 130.98 143.193C131.425 143.435 131.826 143.758 132.357 144.122C132.639 143.818 132.935 143.51 133.221 143.19C136.674 139.342 140.116 135.487 143.582 131.651C143.992 131.197 144.509 130.836 144.998 130.457C146.681 129.152 148.121 129.016 149.601 130.472C151.068 131.916 152.384 133.571 153.476 135.315C154.57 137.061 154.212 138.942 152.567 140.186C150.388 141.832 148.063 143.301 145.722 144.716C142.975 146.377 140.142 147.9 137.294 149.513ZM133.485 144.912C134.349 145.942 135.138 146.799 135.824 147.729C136.258 148.316 136.592 148.39 137.241 148.011C139.992 146.408 142.8 144.909 145.543 143.294C147.518 142.129 149.482 140.926 151.334 139.578C152.908 138.432 153.116 137.126 152.111 135.547C151.364 134.371 150.494 133.26 149.572 132.214C147.997 130.422 146.969 130.312 145.245 131.93C143.35 133.71 141.555 135.605 139.817 137.54C137.642 139.958 135.574 142.467 133.485 144.912ZM134.61 148.255C134.592 148.267 134.575 148.281 134.558 148.293C134.206 147.873 133.907 147.389 133.493 147.046C132.211 145.989 130.947 144.884 129.549 143.997C128.567 143.374 127.708 143.69 127.321 144.645C126.109 147.633 125.678 150.718 126.388 153.9C126.577 154.751 127.127 155.319 127.998 155.408C130.817 155.698 133.613 155.624 136.276 154.488C137.745 153.861 137.998 152.944 137.092 151.646C136.288 150.499 135.439 149.384 134.61 148.255Z" fill="#FCFBFB"/>
<path d="M94.3554 83.3716C94.0075 82.4282 93.5739 81.5301 93.3477 80.5811C92.9342 78.8353 93.7342 77.6737 95.5018 77.4311C98.6277 77 101.647 77.4061 104.519 78.7366C105.924 79.3882 106.704 80.5043 106.691 82.0457C106.669 84.4911 106.31 86.896 105.267 89.143C105 89.7213 104.629 90.2922 104.183 90.7443C103.089 91.8501 101.594 91.6972 100.275 90.4167C99.8641 90.0167 99.4707 89.5992 98.9956 89.1163C98.6994 89.4747 98.4654 89.7567 98.2344 90.039C95.5541 93.3277 92.9185 96.6539 90.1825 99.8955C88.0146 102.465 85.9161 102.653 83.5055 100.386C82.1548 99.1156 80.9779 97.5977 79.9793 96.0295C78.8832 94.3098 79.1286 93.1152 80.7247 91.7839C82.1142 90.6261 83.6228 89.5879 85.1733 88.654C88.2153 86.825 91.3233 85.1066 94.3554 83.3716ZM95.0771 84.5425C92.7756 85.828 90.4513 87.0575 88.201 88.4071C86.0912 89.671 84.011 90.9959 82.0091 92.4237C80.4313 93.5494 80.2869 94.2521 81.3581 95.7594C82.3775 97.1923 83.5502 98.5449 84.8129 99.771C86.0247 100.946 87.1916 100.875 88.448 99.7191C89.3003 98.937 90.0779 98.0595 90.812 97.1621C93.2487 94.1823 95.6501 91.1732 98.093 88.14C97.0628 86.909 96.1234 85.7895 95.0771 84.5425ZM98.1502 86.5513C98.2196 86.5091 98.2875 86.4682 98.357 86.426C99.1675 87.3054 99.9538 88.2104 100.792 89.0615C102.349 90.6382 103.357 90.5262 104.071 88.4348C104.715 86.5462 105.016 84.5304 105.346 82.5521C105.562 81.2587 104.943 80.3373 103.702 79.8107C101.353 78.8126 98.9059 78.4627 96.3734 78.6558C94.5657 78.7927 94.0871 79.4113 94.8814 81.0278C95.8261 82.9387 97.0484 84.7159 98.1502 86.5513Z" fill="#FCFBFB"/>
<path d="M105.424 124.788C101.515 120.088 102.023 113.448 106.585 109.655C111.254 105.769 117.827 106.475 121.824 111.289C125.67 115.924 125.071 122.581 120.458 126.422C115.986 130.143 109.272 129.415 105.424 124.788ZM119.651 125.329C123.682 121.906 124.16 116.089 120.744 112.018C117.278 107.891 111.427 107.315 107.356 110.702C103.434 113.966 103.046 120.015 106.501 124.056C109.91 128.041 115.784 128.611 119.651 125.329Z" fill="#FCFBFB"/>
<path d="M62.6365 116.67C61.3171 115.097 59.9974 113.528 58.6812 111.953C58.3315 111.536 57.8116 111.048 58.3686 110.548C58.9319 110.044 59.3508 110.6 59.707 111.025C62.4105 114.247 65.1139 117.469 67.8174 120.691C67.9058 120.796 68.0574 120.896 68.0663 121.01C68.0964 121.376 68.0749 121.747 68.0739 122.118C67.7124 122.03 67.2205 122.062 67.0116 121.836C65.9517 120.675 64.9666 119.447 63.9543 118.243C63.5152 117.717 63.0759 117.193 62.6365 116.67Z" fill="#FCFBFB"/>
<path d="M68.1822 112.153C69.433 113.644 70.7104 115.115 71.9125 116.643C72.1472 116.942 72.299 117.662 72.121 117.857C71.6481 118.379 71.2136 117.916 70.8732 117.51C68.37 114.53 65.8544 111.558 63.3876 108.548C63.1493 108.257 63.003 107.525 63.1794 107.332C63.6483 106.82 64.0813 107.269 64.427 107.681C65.6793 109.17 66.9301 110.661 68.1822 112.153Z" fill="#FCFBFB"/>
<path d="M70.7354 110.035C69.8369 108.964 68.9071 107.917 68.0633 106.806C67.8609 106.539 67.9449 106.056 67.8958 105.673C68.2702 105.764 68.7871 105.729 68.9937 105.966C70.8288 108.073 72.6272 110.216 74.385 112.388C74.5914 112.643 74.6786 113.302 74.5064 113.497C74.0501 114.014 73.6774 113.544 73.3634 113.17C72.4889 112.125 71.6128 111.081 70.7354 110.035Z" fill="#FCFBFB"/>
<path d="M106.541 168.991C105.202 167.395 103.835 165.82 102.546 164.185C102.294 163.866 102.112 163.091 102.291 162.906C102.83 162.35 103.244 162.911 103.596 163.331C106.319 166.573 109.057 169.807 111.741 173.082C111.987 173.382 111.901 173.956 111.966 174.402C111.541 174.247 110.977 174.214 110.713 173.915C109.281 172.311 107.924 170.639 106.541 168.991Z" fill="#FCFBFB"/>
<path d="M112.106 164.497C113.334 165.961 114.593 167.4 115.766 168.907C116.012 169.223 115.948 169.784 116.026 170.23C115.597 170.083 115.02 170.066 114.764 169.77C112.246 166.85 109.77 163.895 107.33 160.911C107.081 160.608 106.937 159.837 107.124 159.634C107.61 159.111 108.022 159.633 108.353 160.028C109.607 161.516 110.857 163.008 112.106 164.497Z" fill="#FCFBFB"/>
<path d="M115.662 161.532C116.539 162.578 117.449 163.599 118.272 164.688C118.48 164.965 118.415 165.451 118.477 165.842C118.077 165.727 117.529 165.742 117.299 165.48C115.48 163.399 113.705 161.277 111.965 159.13C111.752 158.867 111.636 158.212 111.802 158.016C112.242 157.502 112.645 157.943 112.962 158.318C113.865 159.385 114.762 160.46 115.662 161.532Z" fill="#FCFBFB"/>
<path d="M113.81 73.8595C112.448 72.2352 111.058 70.6334 109.747 68.9683C109.495 68.649 109.55 68.086 109.464 67.6351C109.892 67.7797 110.473 67.796 110.727 68.0892C113.512 71.3312 116.245 74.6168 118.99 77.8919C119.327 78.2929 119.741 78.8055 119.148 79.1794C118.918 79.3246 118.192 79.0143 117.919 78.7078C116.51 77.1277 115.172 75.4822 113.81 73.8595Z" fill="#FCFBFB"/>
<path d="M118.224 70.1297C117.017 68.6909 115.808 67.2535 114.604 65.8121C114.256 65.397 113.737 64.9133 114.294 64.4108C114.864 63.8978 115.276 64.4658 115.628 64.8856C118.09 67.8124 120.56 70.7312 122.982 73.691C123.236 74.0032 123.402 74.804 123.222 74.9768C122.673 75.5076 122.265 74.9415 121.912 74.5217C120.681 73.0604 119.453 71.5936 118.224 70.1297Z" fill="#FCFBFB"/>
<path d="M121.864 67.1449C120.988 66.1008 120.107 65.0578 119.236 64.0097C118.938 63.6515 118.49 63.2745 119.014 62.7941C119.542 62.3111 119.882 62.7678 120.187 63.131C121.968 65.2406 123.756 67.3465 125.493 69.4931C125.701 69.7503 125.8 70.4038 125.631 70.5994C125.175 71.1266 124.804 70.6527 124.492 70.28C123.617 69.2346 122.741 68.1905 121.864 67.1449Z" fill="#FCFBFB"/>
<path d="M157.717 126.185C156.378 124.589 155.036 122.996 153.703 121.395C153.511 121.162 153.283 120.911 153.218 120.634C153.169 120.422 153.291 120.093 153.453 119.937C153.576 119.821 153.927 119.816 154.097 119.906C154.356 120.045 154.565 120.294 154.76 120.526C157.421 123.688 160.075 126.854 162.731 130.019C162.884 130.202 163.119 130.377 163.155 130.586C163.206 130.88 163.216 131.335 163.044 131.472C162.866 131.613 162.359 131.57 162.158 131.406C161.74 131.068 161.425 130.604 161.074 130.185C159.956 128.854 158.836 127.519 157.717 126.185Z" fill="#FCFBFB"/>
<path d="M162.185 122.519C160.913 121.003 159.614 119.507 158.391 117.953C158.166 117.665 158.244 117.136 158.183 116.718C158.587 116.827 159.146 116.802 159.373 117.065C161.954 120.065 164.497 123.098 167.006 126.159C167.216 126.416 167.112 126.932 167.152 127.33C166.746 127.215 166.196 127.232 165.958 126.968C164.66 125.523 163.436 124.009 162.185 122.519Z" fill="#FCFBFB"/>
<path d="M165.7 119.385C164.822 118.34 163.914 117.317 163.09 116.233C162.882 115.959 162.948 115.478 162.891 115.092C163.267 115.181 163.788 115.143 163.995 115.379C165.854 117.514 167.673 119.689 169.457 121.886C169.651 122.123 169.555 122.595 169.592 122.957C169.217 122.865 168.709 122.894 168.489 122.658C167.512 121.608 166.621 120.483 165.7 119.385Z" fill="#FCFBFB"/>
</g>
<defs>
<filter id="filter0_f_594_822" x="0" y="0.5" width="230" height="230" filterUnits="userSpaceOnUse" color-interpolation-filters="sRGB">
<feFlood flood-opacity="0" result="BackgroundImageFix"/>
<feBlend mode="normal" in="SourceGraphic" in2="BackgroundImageFix" result="shape"/>
<feGaussianBlur stdDeviation="17.5" result="effect1_foregroundBlur_594_822"/>
</filter>
<clipPath id="clip0_594_822">
<rect width="117" height="110" fill="white" transform="translate(119.531 35.8303) rotate(50)"/>
</clipPath>
</defs>
</svg>
