<svg width="230" height="231" viewBox="0 0 230 231" fill="none" xmlns="http://www.w3.org/2000/svg">
<g filter="url(#filter0_f_594_801)">
<circle cx="115" cy="115.5" r="80" fill="#3760E7"/>
</g>
<circle cx="114.5" cy="115" r="89.5" stroke="white"/>
<g clip-path="url(#clip0_594_801)">
<path d="M127.055 149.627C128.557 151.174 130.302 152.944 132.007 154.747C132.626 155.4 133.182 156.113 133.713 156.831C135.294 158.975 135.26 159.308 133.315 161.167C131.479 162.92 129.65 164.682 127.784 166.409C125.966 168.095 124.195 168.402 122.095 167.018C120.474 165.951 119.054 164.569 117.744 163.167C116.101 161.408 115.847 161.23 113.625 162.338C111.476 163.413 109.364 164.556 107.286 165.744C106.956 165.932 106.711 166.496 106.702 166.892C106.648 169.293 106.694 171.697 106.668 174.098C106.643 176.405 105.731 177.257 103.227 177.225C100.177 177.188 97.1056 177.262 94.0847 176.942C90.7729 176.591 89.7198 174.997 90.1179 171.935C90.3494 170.163 90.4962 168.375 90.5753 166.593C90.6543 164.847 89.8045 163.442 88.0287 162.889C85.7756 162.186 83.4295 161.72 81.1002 161.248C79.745 160.973 78.6298 161.602 77.6727 162.443C76.7185 163.285 75.7868 164.152 74.8551 165.015C73.3898 166.368 71.6647 166.645 69.7985 165.94C66.978 164.873 64.7278 163.096 63.0536 160.76C61.577 158.7 61.6815 156.425 63.0847 154.453C64.3608 152.658 66.0294 151.085 67.6584 149.536C68.2909 148.933 68.6042 148.542 68.2626 147.682C67.1926 144.985 66.1818 142.267 65.2473 139.527C64.9481 138.652 64.5104 138.411 63.5505 138.434C60.9248 138.502 58.2822 138.61 55.6706 138.416C51.5204 138.104 49.4763 135.852 49.5695 131.983C49.6062 130.46 49.6118 128.916 49.8857 127.422C50.2979 125.165 51.574 124.072 54.019 123.776C55.4532 123.6 56.9185 123.626 58.3726 123.613C59.2647 123.605 60.1569 123.723 61.0491 123.728C64.1773 123.744 65.0892 123.055 65.9447 120.279C66.4077 118.774 67.0486 117.317 67.5427 115.82C68.2485 113.681 67.825 112.493 65.9334 111.122C64.8972 110.37 63.8413 109.639 62.7797 108.918C60.7272 107.526 60.2303 105.623 60.8345 103.46C61.9271 99.5386 64.3834 96.448 67.9521 94.1779C70.5834 92.5055 72.1729 92.7309 74.4485 94.8044C75.7557 95.9971 77.046 97.2082 78.3588 98.3983C79.5531 99.4809 80.928 99.8793 82.6135 99.5202C84.1664 99.1899 85.7559 98.9776 87.3398 98.8229C88.6837 98.6919 89.1354 98.0234 89.1693 96.8648C89.2229 95.1189 89.2907 93.3705 89.477 91.6325C89.6154 90.3402 89.8553 89.0426 90.2167 87.787C90.6967 86.1146 91.9305 85.0293 93.695 84.45C94.0677 84.3268 94.5082 84.1381 94.7114 83.855C95.9057 82.1904 97.0294 80.4813 98.2011 78.801C99.4405 77.0185 99.4574 76.4339 98.1051 74.6671C97.2073 73.4927 96.1796 72.3996 95.3382 71.1964C94.6013 70.1453 93.952 69.0233 93.4297 67.8673C92.7916 66.4518 93.136 65.1227 94.2766 64.0008C98.0063 60.3335 102.577 58.0189 107.871 57.0594C110.268 56.6243 112.216 57.7856 113.501 59.6153C114.675 61.2851 115.669 63.0807 116.581 64.8894C117.304 66.3233 118.376 67.0992 120.054 67.0809C123.295 67.0468 126.536 66.9891 129.777 66.9026C131.477 66.8581 132.617 65.9878 133.134 64.5329C133.707 62.9234 134.142 61.2693 134.63 59.6336C135.424 56.9729 136.401 56.1367 139.407 56.1367C141.259 56.1367 143.165 56.3517 144.947 56.8104C147.059 57.353 149.097 58.1919 151.107 59.0307C154.252 60.344 155.187 62.2025 154.207 65.2879C153.761 66.6982 153.061 68.0482 152.38 69.3824C151.711 70.6905 151.7 71.9409 152.657 73.0733C154.015 74.6776 155.376 76.3002 156.94 77.721C157.477 78.2059 158.736 78.4235 159.478 78.2086C161.116 77.7315 162.669 76.9634 164.196 76.2058C168.761 73.9384 171.192 74.3604 174.131 78.3291C176.76 81.8785 178.016 85.8656 177.548 90.2091C177.288 92.6051 175.91 94.2591 173.355 94.9302C171.867 95.3208 170.348 95.6144 168.86 96.005C166.489 96.6289 165.546 97.7587 165.393 100.05C165.249 102.184 165.097 104.317 164.964 106.454C164.871 107.935 165.45 109.156 166.892 109.827C168.397 110.53 169.989 111.065 171.534 111.694C172.864 112.236 174.25 112.698 175.486 113.385C178.107 114.842 179.078 116.908 178.29 119.637C177.203 123.398 174.942 126.544 171.748 129.058C169.998 130.434 168.682 130.452 166.726 129.338C164.363 127.993 161.997 126.649 159.71 125.196C158.383 124.352 157.4 124.531 156.455 125.632C154.549 127.847 152.601 130.033 150.754 132.29C150.534 132.56 150.701 133.26 150.915 133.653C152.347 136.277 153.657 138.917 153.566 141.957C153.504 144.062 152.632 145.819 150.734 146.962C148.106 148.547 145.218 149.586 142.05 149.761C139.094 149.924 137.815 149.111 136.892 146.513C136.228 144.655 135.556 142.788 135.057 140.891C134.656 139.375 133.425 139.949 132.468 139.774C131.547 139.603 131.316 140.12 131.028 140.794C129.766 143.68 128.442 146.55 127.055 149.627ZM104.33 85.4776C108.955 78.8927 115.708 75.5662 124.167 75.485C135.678 75.3749 145.099 79.2833 151.175 88.749C155.029 94.752 156.918 101.3 155.887 108.299C154.783 115.791 150.893 121.972 144.543 126.698C137.423 131.999 129.215 134.437 120.175 133.074C108.348 131.288 99.5083 122.874 97.1677 111.869C97.0068 111.114 96.9108 110.349 96.7781 109.544C96.1711 109.581 95.6996 109.56 95.2507 109.647C94.1016 109.867 92.9723 110.166 91.8232 110.375C90.8096 110.559 90.7164 111.067 90.9762 111.885C91.3348 113.012 91.6538 114.155 91.8684 115.314C92.1563 116.874 91.3658 118.003 89.7481 118.557C88.5171 118.979 87.2579 119.348 86.0664 119.849C83.3278 121 82.4639 122.625 83.5198 125.238C84.4882 127.637 85.7926 129.915 86.9671 132.24C87.3398 132.979 88.0117 133.095 88.7458 132.78C90.149 132.18 91.5352 131.545 92.9186 130.906C94.3444 130.248 95.7222 129.488 97.1875 128.924C98.554 128.397 99.9092 128.625 100.917 129.703C102.179 131.053 103.45 132.41 104.562 133.868C106.304 136.148 106.231 137.58 104.474 139.837C103.732 140.791 102.939 141.711 102.193 142.665C101.572 143.462 101.648 144.233 102.473 144.864C105.934 147.52 109.884 149.095 114.376 149.428C115.745 149.531 116.558 148.946 116.877 147.656C117.36 145.706 117.871 143.756 118.52 141.85C119.184 139.902 120.683 138.573 122.894 138.44C126.539 138.219 130.201 138.261 133.854 138.146C135.435 138.096 136.276 138.783 136.691 140.149C137.279 142.075 137.922 143.989 138.586 145.895C139.277 147.879 140.331 148.542 142.521 148.031C144.645 147.536 146.754 146.883 148.747 146.052C151.144 145.051 152.231 143.184 151.613 140.799C151.028 138.542 149.998 136.377 149.074 134.203C148.705 133.331 148.165 132.497 148.899 131.634C150.997 129.17 153.041 126.659 155.3 124.326C157.115 122.449 158.182 122.405 160.5 123.702C162.954 125.076 165.371 126.507 167.768 127.967C168.759 128.57 169.634 128.486 170.461 127.818C173.437 125.411 175.616 122.51 176.559 118.916C176.977 117.33 176.449 115.919 174.891 115.07C173.603 114.37 172.209 113.838 170.848 113.261C169.103 112.522 167.271 111.93 165.613 111.052C163.911 110.152 163.053 108.627 163.143 106.774C163.262 104.291 163.431 101.811 163.64 99.3341C163.86 96.7023 165.515 95.1373 168.157 94.4164C169.597 94.0232 171.074 93.7506 172.514 93.3679C174.687 92.7886 175.755 91.5932 175.82 89.4988C175.938 85.6323 174.846 82.062 172.344 78.9504C170.054 76.101 168.778 75.9123 165.385 77.5349C163.719 78.3318 162.048 79.1365 160.308 79.7709C158.569 80.4053 156.836 80.2165 155.495 78.8875C154.117 77.5244 152.798 76.1036 151.548 74.6383C149.789 72.5779 149.69 70.3655 150.983 68.0298C151.579 66.9524 152.107 65.8174 152.462 64.6535C153.12 62.5066 152.604 61.4974 150.384 60.5878C148.369 59.7621 146.33 58.9468 144.227 58.3649C142.722 57.9481 141.093 57.7751 139.515 57.7672C137.397 57.7567 136.937 58.2128 136.372 60.0923C135.906 61.6442 135.554 63.2301 134.975 64.7426C133.905 67.5449 132.247 68.6301 129.049 68.6957C126.132 68.7559 123.216 68.6983 120.299 68.7481C117.705 68.7926 115.948 67.7782 114.884 65.5395C114.091 63.8724 113.162 62.2392 112.109 60.7031C110.872 58.9049 109.218 58.3203 107.134 58.8734C103.108 59.9403 99.449 61.6809 96.38 64.373C94.7227 65.8253 94.59 66.6693 95.6742 68.5305C96.1626 69.3693 96.7725 70.1531 97.371 70.9343C98.2462 72.0693 99.192 73.1572 100.048 74.3054C101.202 75.8546 101.312 77.4641 100.155 79.0684C99.4772 80.0121 98.7516 80.9243 98.0684 81.8654C97.5856 82.5286 97.1423 83.218 96.7188 83.8392C99.3304 84.4002 101.733 84.9166 104.33 85.4776ZM129.421 139.824C127.671 139.824 126.076 139.776 124.489 139.834C121.643 139.934 120.229 141.501 119.664 143.963C119.283 145.622 118.823 147.266 118.337 148.901C117.939 150.233 116.877 151.035 115.449 150.996C113.76 150.951 112.479 151.635 111.202 152.456C105.801 155.932 99.8612 156.679 93.568 155.35C77.7348 152.002 70.1684 136.426 74.6885 123.369C78.644 111.948 92.6984 105.279 105.367 108.485C114.353 110.758 122.801 118.148 121.911 129.301C121.852 130.028 121.745 130.751 121.654 131.54C127.826 132.08 133.507 130.911 138.84 128.211C139.105 128.077 139.419 127.676 139.385 127.438C139.184 126.027 138.891 124.63 138.611 123.139C137.956 123.233 137.448 123.278 136.954 123.382C135.717 123.645 134.498 123.972 133.255 124.2C130.839 124.643 130.573 124.47 129.797 122.329C128.662 119.194 127.532 116.056 126.358 112.934C125.98 111.927 126.067 110.999 126.813 110.239C127.657 109.374 128.648 108.629 129.56 107.817C130.466 107.007 131.44 106.239 132.222 105.332C132.967 104.467 133.207 103.324 132.476 102.391C130.85 100.325 129.21 98.241 127.315 96.3955C126.036 95.1504 124.687 95.3313 123.329 96.5161C122.129 97.5594 121.07 98.7417 119.873 99.7902C118.631 100.881 117.222 102.031 115.426 101.704C112.829 101.229 110.22 100.595 107.772 99.6749C105.751 98.9147 104.808 97.1636 104.932 95.0901C105.017 93.7008 105.225 92.3141 105.415 90.93C105.688 88.9483 105.107 87.8132 103.085 87.1212C101.468 86.5681 99.7708 86.1434 98.0712 85.8708C93.8052 85.1866 91.7413 86.7306 91.4082 90.7282C91.2134 93.0769 91.0157 95.4283 90.8661 97.7796C90.7786 99.1873 90.1377 100.052 88.5594 100.265C86.4702 100.548 84.3838 100.857 82.3086 101.216C80.1544 101.588 78.4379 100.849 76.9443 99.5097C75.5552 98.2672 74.1746 97.0142 72.8477 95.7166C71.7889 94.6786 70.6483 94.6235 69.4315 95.347C65.8769 97.4598 63.4997 100.383 62.52 104.226C62.184 105.547 62.6132 106.642 63.7707 107.468C64.8888 108.268 66.0294 109.038 67.1474 109.835C69.4061 111.445 70.2389 113.518 69.375 116.077C68.8696 117.571 68.1949 119.021 67.7375 120.528C66.5545 124.415 65.1767 125.419 60.8345 125.383C58.9062 125.367 56.975 125.288 55.0495 125.348C52.7372 125.422 51.8112 126.229 51.5655 128.334C51.4131 129.634 51.3651 130.948 51.3566 132.256C51.3397 134.859 52.3928 136.266 55.1907 136.581C57.9716 136.896 60.8119 136.791 63.6267 136.791C65.8459 136.791 66.2072 136.966 66.9187 138.885C67.9266 141.604 68.9233 144.324 69.9397 147.04C70.7246 149.137 70.5382 149.323 68.8188 150.87C67.2519 152.28 65.7922 153.845 64.5754 155.523C63.5787 156.894 63.6126 158.558 64.6827 159.977C66.1395 161.903 68.0593 163.361 70.3858 164.333C71.6026 164.842 72.6557 164.671 73.5987 163.785C74.5586 162.884 75.5298 161.995 76.5208 161.125C77.7659 160.037 79.251 159.219 80.9619 159.505C83.5368 159.935 86.1088 160.496 88.5848 161.266C90.8491 161.971 92.2721 163.618 92.3286 165.89C92.3822 168.016 92.0914 170.147 91.9728 172.276C91.8458 174.572 92.3144 175.201 94.8046 175.361C97.659 175.545 100.533 175.479 103.396 175.558C104.441 175.587 104.816 175.125 104.825 174.221C104.841 172.344 105.149 170.431 104.864 168.596C104.449 165.922 105.313 164.304 108.077 163.293C110.067 162.564 111.826 161.308 113.76 160.42C115.765 159.5 117.05 159.817 118.512 161.379C119.034 161.94 119.43 162.611 120 163.122C121.008 164.027 122.044 164.923 123.182 165.675C124.13 166.302 125.215 166.331 126.158 165.518C128.532 163.466 130.901 161.41 133.272 159.355C132.696 158.514 132.454 158.037 132.092 157.651C129.876 155.279 127.696 152.873 125.367 150.595C124.495 149.743 124.424 149.205 125.189 148.296C127.27 145.813 128.439 142.922 129.421 139.824ZM141.197 126.866C141.694 126.554 142.084 126.329 142.454 126.075C150.938 120.234 157.078 109.219 153.004 96.6629C147.265 78.9714 129.921 75.173 118.453 77.894C112.981 79.1916 108.721 82.0541 105.804 86.6126C106.993 87.7398 107.399 89.0479 107.247 90.5106C107.128 91.6378 106.987 92.7623 106.798 93.8817C106.375 96.3615 107.176 97.819 109.706 98.7364C111.008 99.2083 112.422 99.4127 113.752 99.8269C115.7 100.435 117.253 99.8426 118.608 98.5818C119.67 97.5935 120.652 96.5292 121.728 95.5541C124.13 93.3757 126.44 93.2604 128.919 95.3811C130.288 96.5528 131.46 97.95 132.583 99.342C135.757 103.271 135.24 106.116 130.96 108.989C130.164 109.523 129.447 110.155 128.696 110.747C127.945 111.34 127.922 111.995 128.264 112.85C129.224 115.256 130.073 117.699 130.963 120.129C131.273 120.976 131.581 121.823 131.911 122.732C133.919 122.295 135.737 121.873 137.569 121.506C139.565 121.104 140.235 121.563 140.551 123.419C140.743 124.523 140.963 125.624 141.197 126.866ZM89.014 111.348C86.2076 112.506 83.8812 113.948 81.8738 115.807C75.6004 121.618 74.1972 128.696 75.9251 136.466C78.5593 148.306 90.5047 155.903 103.193 153.887C105.945 153.449 108.331 152.23 110.279 150.912C107.532 149.531 104.658 148.327 102.075 146.723C99.353 145.032 99.2626 143.425 101.211 140.982C101.883 140.141 102.588 139.323 103.258 138.481C104.105 137.415 104.184 136.308 103.328 135.215C102.639 134.334 101.936 133.459 101.194 132.615C98.6923 129.773 98.6726 129.807 95.1942 131.624C93.3195 132.604 91.4138 133.566 89.429 134.327C87.6644 135 86.298 134.649 85.5978 133.367C84.1748 130.772 82.7011 128.166 81.6705 125.427C80.4678 122.24 81.7072 119.933 84.9936 118.439C86.2528 117.867 87.5854 117.421 88.9265 117.031C89.8299 116.769 90.1828 116.284 90.0134 115.487C89.7368 114.174 89.3867 112.866 89.014 111.348ZM98.8645 109.492C97.9611 118.1 110.621 131.223 119.72 131.105C122.58 118.779 110.742 109.017 98.8645 109.492Z" fill="white"/>
</g>
<defs>
<filter id="filter0_f_594_801" x="0" y="0.5" width="230" height="230" filterUnits="userSpaceOnUse" color-interpolation-filters="sRGB">
<feFlood flood-opacity="0" result="BackgroundImageFix"/>
<feBlend mode="normal" in="SourceGraphic" in2="BackgroundImageFix" result="shape"/>
<feGaussianBlur stdDeviation="17.5" result="effect1_foregroundBlur_594_801"/>
</filter>
<clipPath id="clip0_594_801">
<rect width="155" height="135" fill="white" transform="translate(37.5 48)"/>
</clipPath>
</defs>
</svg>
