<svg width="141" height="140" viewBox="0 0 141 140" fill="none" xmlns="http://www.w3.org/2000/svg">
<g clip-path="url(#clip0_630_629)">
<path d="M60.861 105.933C58.7902 104.175 58.2374 101.569 59.3116 98.5836C59.5021 98.0528 59.4244 97.4183 59.43 96.832C59.4337 96.4657 59.3135 96.0939 59.3375 95.7314C59.5261 92.8181 58.2337 90.4708 56.444 88.3603C55.2699 86.9767 54.0145 85.6486 52.6925 84.4056C49.1778 81.1002 47.0922 77.053 46.1696 72.3529C45.0806 66.8056 44.8495 61.2528 46.5801 55.8128C49.5993 46.3163 56.1907 40.5194 65.829 38.505C75.5413 36.474 83.4768 40.1272 89.9739 47.2449C93.387 50.9832 95.5262 55.4058 96.397 60.4278C97.2845 65.5422 96.3619 70.3589 94.0507 74.9332C91.8283 79.3318 89.0032 83.3032 85.5106 86.8121C84.2867 88.0421 83.1625 89.4442 82.3065 90.948C81.7315 91.958 81.6926 93.2805 81.4467 94.4699C81.3857 94.764 81.4819 95.0877 81.4486 95.391C81.3192 96.5453 81.4541 97.5626 82.0236 98.678C83.1348 100.853 82.1345 103.837 80.0286 105.407C79.6792 105.668 79.4887 105.84 79.6459 106.362C80.611 109.571 79.2059 111.916 75.8723 112.375C72.1671 112.887 68.4304 112.887 64.7326 112.24C62.2662 111.809 60.8813 110.401 60.6225 108.15C60.543 107.455 60.7667 106.728 60.861 105.933ZM70.9154 97.9251C70.9172 97.8253 70.9209 97.7254 70.9228 97.6236C73.171 97.6236 75.4193 97.6347 77.6676 97.6199C79.975 97.607 80.3448 97.2814 80.2523 94.9989C80.1784 93.1917 80.3984 91.4567 81.4153 89.964C82.3638 88.573 83.4029 87.2098 84.5917 86.0241C87.317 83.305 89.5708 80.2474 91.5861 76.9883C96.3822 69.2324 96.911 61.2713 92.6419 53.1455C88.0048 44.3187 77.7082 37.2916 66.3523 39.5815C57.52 41.3628 51.2892 46.4736 48.1091 54.9748C46.0679 60.4333 46.2436 66.0805 47.2715 71.7388C48.1183 76.3982 50.1429 80.3954 53.6299 83.6509C54.9778 84.9106 56.2535 86.2627 57.4368 87.6777C59.356 89.9677 60.7371 92.5073 60.5005 95.6518C60.4801 95.9219 60.5726 96.1975 60.5948 96.4731C60.6484 97.1538 61.0496 97.4331 61.6912 97.4646C64.7677 97.6144 67.8425 97.7716 70.9154 97.9251ZM80.5741 98.517C79.3501 98.6114 78.2333 98.7205 77.111 98.7779C75.7595 98.8463 74.4043 98.9314 73.0527 98.9036C69.0905 98.826 65.1283 98.6872 61.1661 98.6021C60.9368 98.5966 60.567 98.7908 60.4912 98.9813C59.8848 100.52 59.7738 102.087 60.4579 103.641C60.8148 104.451 61.4009 104.961 62.3235 105.089C64.0245 105.328 65.7107 105.707 67.4172 105.859C71.1187 106.191 74.8018 105.982 78.3702 104.871C80.979 104.062 82.116 100.391 80.5741 98.517ZM78.2518 106.208C75.081 106.985 71.8509 107.351 68.5783 107.12C66.9254 107.004 65.278 106.789 63.6381 106.554C62.0776 106.33 61.4785 106.942 61.852 108.47C62.2126 109.943 63.2775 110.679 64.6457 110.958C68.3287 111.711 72.045 111.683 75.7521 111.164C78.4922 110.779 79.4998 108.75 78.2518 106.208Z" fill="white"/>
<path d="M104.955 66.1216C103.791 66.1216 102.622 66.1604 101.461 66.0938C101.161 66.0772 100.882 65.7257 100.594 65.526C100.877 65.3188 101.15 64.9489 101.444 64.9322C103.742 64.812 106.044 64.7602 108.344 64.688C108.437 64.6843 108.555 64.6492 108.616 64.6917C108.858 64.8638 109.082 65.0617 109.311 65.2485C109.086 65.4446 108.875 65.7905 108.635 65.8127C107.414 65.9255 106.185 65.9532 104.959 66.0124C104.955 66.0494 104.955 66.0846 104.955 66.1216Z" fill="white"/>
<path d="M85.0136 39.446C84.9563 39.1186 84.7308 38.6562 84.8676 38.4823C86.4244 36.5087 88.0274 34.5702 89.6562 32.652C89.7801 32.5077 90.1869 32.6039 90.4624 32.5891C90.4198 32.9387 90.5012 33.3864 90.3145 33.6194C89.2421 34.9623 88.0995 36.2479 86.9975 37.5648C86.624 38.0106 86.3116 38.5082 85.9436 38.9595C85.7828 39.1575 85.5554 39.3017 85.3575 39.4701C85.2429 39.4627 85.1283 39.4553 85.0136 39.446Z" fill="white"/>
<path d="M103.61 85.0325C103.294 85.4746 103.199 85.7446 103.052 85.7779C102.811 85.8316 102.488 85.8094 102.284 85.6817C101.454 85.1564 100.655 84.5793 99.8456 84.0225C98.8065 83.3086 97.7452 82.6223 96.745 81.8602C96.5083 81.679 96.4713 81.235 96.3438 80.9132C96.6913 80.9021 97.1314 80.7467 97.3699 80.9039C99.2207 82.1155 101.031 83.3918 102.861 84.6385C103.089 84.792 103.353 84.8993 103.61 85.0325Z" fill="white"/>
<path d="M43.0999 78.6641C43.3181 78.8435 43.6139 78.9859 43.601 79.095C43.5677 79.3966 43.49 79.7776 43.2811 79.9644C41.7964 81.2925 40.2933 82.6021 38.7531 83.8636C38.3445 84.1984 37.8083 85.0123 37.25 84.2465C36.7544 83.5658 37.6253 83.2957 38.0283 82.9443C39.4612 81.6957 40.9071 80.4638 42.3529 79.2301C42.5767 79.0396 42.8207 78.8749 43.0999 78.6641Z" fill="white"/>
<path d="M102.29 46.9915C102.451 47.132 102.743 47.2652 102.767 47.4372C102.797 47.6574 102.678 47.9995 102.505 48.1253C102.087 48.4287 101.602 48.6414 101.14 48.8819C99.783 49.594 98.4389 50.332 97.054 50.9868C96.7564 51.1274 96.3108 50.9591 95.9336 50.9332C96.1166 50.6095 96.2183 50.1378 96.4957 49.9843C98.1819 49.0446 99.9069 48.1753 101.619 47.2856C101.809 47.1857 102.011 47.1135 102.29 46.9915Z" fill="white"/>
<path d="M69.3658 31.3115C69.3658 30.3293 69.3196 29.3415 69.3936 28.3649C69.4157 28.0689 69.7633 27.7989 69.963 27.5159C70.1572 27.7748 70.514 28.0282 70.5195 28.2909C70.5658 30.3182 70.5658 32.3455 70.5177 34.3727C70.5121 34.6299 70.1442 34.8777 69.9427 35.1293C69.7504 34.8703 69.4102 34.6206 69.3917 34.3506C69.3252 33.3406 69.3658 32.3251 69.3658 31.3115Z" fill="white"/>
<path d="M56.019 37.7872C55.8914 37.9518 55.7731 38.2386 55.6418 38.2441C55.3719 38.257 55.0114 38.2034 54.832 38.0277C54.0832 37.297 53.401 36.4998 52.6707 35.7507C52.1123 35.1773 51.48 34.6723 50.9623 34.0675C50.7829 33.8584 50.855 33.4367 50.8125 33.1112C51.1139 33.1333 51.5299 33.0353 51.6963 33.1962C53.0663 34.5243 54.392 35.8968 55.7213 37.2638C55.8434 37.3895 55.9025 37.5764 56.019 37.7872Z" fill="white"/>
<path d="M37.1985 64.1859C36.3406 64.1859 35.4772 64.2321 34.6248 64.1582C34.3567 64.136 34.1145 63.7919 33.8594 63.5958C34.1182 63.4072 34.3734 63.0613 34.6378 63.0539C36.385 63.0058 38.134 63.0058 39.8813 63.052C40.1549 63.0594 40.4211 63.385 40.6911 63.5644C40.4156 63.7716 40.1549 64.1304 39.8646 64.1563C38.9808 64.2358 38.0878 64.1859 37.1985 64.1859Z" fill="white"/>
<path d="M37.0506 45.595C37.3187 45.7078 37.4888 45.7744 37.6515 45.8502C38.9846 46.4736 40.3287 47.0747 41.6378 47.7443C41.9262 47.8923 42.3108 48.3307 42.2645 48.5582C42.1518 49.1094 41.6692 49.0576 41.2292 48.8505C39.8425 48.1975 38.4429 47.5686 37.0784 46.8731C36.8472 46.7547 36.6938 46.3681 36.6346 46.0777C36.6069 45.9501 36.9046 45.7559 37.0506 45.595Z" fill="white"/>
<path d="M68.9369 82.5672C64.7196 83.6881 60.8332 81.844 59.7349 77.8153C59.3467 76.3947 58.6755 75.5198 57.5754 74.6116C53.0419 70.8715 52.3559 64.3624 55.8818 59.8787C57.3369 58.0271 58.951 57.1873 61.9056 56.7397C61.8575 55.678 61.7225 54.6125 61.7743 53.5563C61.9666 49.598 65.5294 47.1286 69.3123 48.2717C69.5212 48.3346 69.8022 48.3623 69.9853 48.2736C71.5457 47.5189 73.1469 48.0442 74.7148 48.157C75.569 48.2199 76.1791 49.3113 76.1828 50.4729C76.1847 51.2701 76.0922 52.071 75.9905 52.8627C75.8833 53.6988 76.5637 53.9133 77.0666 54.163C77.3754 54.3166 77.9263 54.274 78.2277 54.0891C78.8767 53.6877 79.411 53.1087 80.0322 52.6555C81.0861 51.886 81.9144 51.9323 82.8296 52.8516C83.4139 53.438 83.9667 54.0724 84.4308 54.755C85.0243 55.628 84.8986 56.5196 84.1405 57.2576C83.6339 57.7496 83.0681 58.1806 82.5301 58.6412C81.8848 59.1961 81.7628 59.8546 82.1012 60.6333C82.4635 61.4713 82.9128 62.176 83.976 62.1002C84.5288 62.0613 85.0797 61.9762 85.6326 61.967C87.1043 61.9466 87.8217 62.533 87.9899 63.9869C88.0879 64.8396 88.0916 65.7108 88.0528 66.5709C87.9973 67.7584 87.4186 68.3707 86.2538 68.5482C85.8304 68.613 85.3941 68.6019 84.9633 68.6019C83.7578 68.6 82.9369 69.3029 82.8777 70.5219C82.8648 70.7919 83.1495 71.2507 83.3954 71.3321C85.4514 72.0294 85.5882 73.6368 84.3235 75.3829C83.9445 75.9064 83.5544 76.4225 83.1643 76.9385C82.3249 78.0428 81.1878 78.2407 80.0137 77.486C79.8584 77.3862 79.7142 77.2696 79.5682 77.1587C78.0502 75.997 76.8835 76.1302 75.7834 77.6692C75.6133 77.9078 75.6892 78.3536 75.7224 78.6976C75.8001 79.4874 76.0053 80.2754 76.0053 81.0634C76.0053 82.003 75.5154 82.8077 74.578 82.9926C73.0803 83.2867 71.5494 83.4495 70.0259 83.542C69.7246 83.555 69.3936 82.9945 68.9369 82.5672ZM59.6277 74.5802C59.8681 74.2047 60.0289 73.807 60.3173 73.5554C60.517 73.3815 60.8924 73.4111 61.1882 73.3482C61.2085 73.6479 61.362 74.04 61.2289 74.2306C60.6354 75.0796 60.5411 76.0044 60.6908 76.9681C61.2178 80.3661 65.2761 82.6578 68.484 81.413C69.0793 81.1818 69.3326 80.8821 69.3215 80.2033C69.266 77.1864 69.2605 74.1677 69.2623 71.1489C69.2679 64.1885 69.2845 57.228 69.316 50.2676C69.3178 49.6997 69.107 49.4574 68.5783 49.3002C66.5186 48.6934 64.0725 49.955 63.2848 52.0803C62.6507 53.7876 62.8744 55.4634 63.4568 57.1337C63.7378 57.9402 63.4494 58.336 62.6932 58.1658C61.0329 57.7922 59.5926 58.2657 58.2706 59.235C53.2379 62.927 53.9811 71.6521 59.6277 74.5802ZM70.5326 82.2842C71.2277 82.2842 71.8712 82.3286 72.5072 82.2768C74.7776 82.0881 75.2214 81.4241 74.6168 79.2044C74.5447 78.9381 74.3727 78.6532 74.4171 78.4072C74.5151 77.8652 74.5946 77.2419 74.9163 76.8368C75.3453 76.2985 75.9665 75.8897 76.56 75.5087C77.5325 74.8835 78.5328 74.8872 79.4887 75.5864C79.9102 75.8953 80.3077 76.2412 80.7459 76.5224C81.2839 76.8664 81.7794 76.8387 82.1807 76.2541C82.5985 75.6456 83.0811 75.0796 83.4823 74.4618C84.2219 73.3242 84.1313 73.0597 82.898 72.4585C81.6408 71.8444 81.2433 71.0158 81.8238 69.7506C82.948 67.3071 82.8 67.1462 85.2757 67.37C86.7049 67.4995 87.0045 67.1647 86.9083 65.7478C86.7031 62.7328 86.9379 63.2303 84.2903 63.2229C83.5378 63.2211 82.5726 63.0971 82.0734 62.6329C80.5573 61.2215 79.9546 59.1647 81.9976 57.4796C84.0148 55.8148 83.9797 55.5485 82.0494 53.7395C81.5816 53.3011 81.1564 53.2585 80.6701 53.6618C80.1025 54.1334 79.546 54.6218 78.9599 55.0694C78.1463 55.6909 77.2903 55.7871 76.3936 55.2174C75.4007 54.5866 74.4948 53.9522 74.7721 52.5223C74.9182 51.7751 74.9866 50.9797 74.8904 50.2324C74.8442 49.8699 74.3764 49.3408 74.0307 49.2798C73.1303 49.1226 72.191 49.1799 71.2684 49.154C70.6897 49.1392 70.4604 49.4 70.4678 49.9993C70.4937 52.2486 70.49 54.4978 70.4678 56.7471C70.4623 57.2428 70.6564 57.3612 71.1131 57.5314C72.4517 58.0345 73.8883 58.4673 75.0198 59.2941C79.1411 62.3073 78.9617 67.7325 74.6612 70.4849C73.4557 71.2562 71.9821 71.6077 70.5326 72.1922C70.5326 75.3977 70.5326 78.8345 70.5326 82.2842ZM70.5141 70.6051C73.7459 70.6588 76.7726 67.8232 76.7837 64.8229C76.7948 61.8319 73.6073 58.73 70.5141 58.7337C70.5141 62.6699 70.5141 66.606 70.5141 70.6051Z" fill="white"/>
</g>
<circle cx="70.5" cy="70" r="69.5" stroke="white"/>
<defs>
<clipPath id="clip0_630_629">
<rect width="93" height="96" fill="white" transform="translate(23.5 22)"/>
</clipPath>
</defs>
</svg>
