<svg width="335" height="160" viewBox="0 0 335 160" fill="none" xmlns="http://www.w3.org/2000/svg">
<g clip-path="url(#clip0_998_2956)">
<rect width="335" height="160" rx="17.8105" transform="matrix(1 0 0 -1 0 160)" fill="#3760E7"/>
<path d="M-6.57392 70.5009L-8.83395 67.9612C-5.62142 66.1307 -3.90397 62.7827 -2.02358 59.7565C-2.26687 59.3607 -2.25608 59.5378 -2.50534 59.5907C-3.39992 59.7814 -7.46084 61.6524 -8.07861 62.2021L-11.3598 65.122L-13.4869 62.7317L-11.2266 60.7203C-10.7131 60.2633 -8.67936 59.3342 -7.93097 59.0025C-5.65956 57.995 -3.18139 57.4817 -0.828003 56.7081L-0.307483 56.0329L0.247731 54.5236C-5.22266 55.7564 -11.3537 56.3669 -15.6143 60.341L-17.8744 57.8013C-12.3576 53.8166 -5.27221 53.7612 1.19063 52.5073L2.23635 50.7476C-5.16285 51.9918 -13.4361 51.3738 -20.0014 55.411L-22.1285 53.0207C-15.7702 49.4403 -7.8602 50.2627 -0.779462 49.5003C0.183022 49.3968 3.2695 49.1418 3.84591 48.6261C5.07176 47.5305 5.95379 45.4915 7.83888 44.9802L8.55245 45.7983C2.50259 50.558 1.50429 58.8225 -2.12812 65.1423C-2.58856 65.944 -3.86899 68.0945 -4.45868 68.6193L-6.5732 70.5009L-6.57392 70.5009Z" fill="#D8E3FD"/>
<path d="M-2.61212 76.2558L-4.84068 73.7515C-0.247861 69.7579 0.914422 63.5083 3.026 58.0522C2.69553 57.6042 1.26926 58.9374 1.28104 58.2106C1.28287 58.104 2.07583 56.3987 2.16612 56.3004C2.62897 55.7929 3.3638 55.8387 3.77035 55.4237C4.15129 55.0351 4.53302 53.9273 4.64296 53.5562C4.7529 53.1851 3.94618 53.5636 3.19761 53.6997C3.65172 52.6397 4.22646 51.947 4.22646 51.947L5.54852 51.343C5.54852 51.343 6.31432 50.0819 6.83797 49.6123L5.53165 49.6587C6.55874 48.119 7.63814 47.339 9.358 46.6873L10.2562 47.6967C2.76134 55.4126 4.90304 68.5715 -2.61216 76.2566L-2.61212 76.2558Z" fill="#D8E3FD"/>
<path d="M1.99742 81.4357L-0.309847 78.843C4.86136 72.9042 4.93513 64.2242 7.3561 56.9957C7.3561 56.9957 7.53557 56.5795 7.20865 56.6294C6.79413 56.6927 6.13223 56.9888 6.13223 56.9888C6.32948 56.4103 6.66979 55.2988 6.8873 54.8838C6.96895 54.7278 7.90059 54.6773 8.36865 54.0554C8.68598 53.6343 8.72357 52.8013 9.12561 52.365L8.21705 52.6669C8.39634 50.9181 10.0425 49.9128 11.4186 49.0029L12.2476 49.9344C5.92653 59.2643 8.43261 72.1774 1.99702 81.4361L1.99742 81.4357Z" fill="#D8E3FD"/>
<path d="M11.3151 55.4058C10.6239 52.9109 12.0107 51.9394 12.991 50.7708L14.5562 52.5297C13.7131 53.7146 12.5986 54.7157 11.3151 55.4058Z" fill="#D8E3FD"/>
<path d="M34.8636 33.6288L32.6036 31.0891C30.4123 34.0673 26.8875 35.3843 23.6634 36.9005C23.2985 36.6129 23.4732 36.6441 23.5547 36.4027C23.848 35.5363 26.1779 31.7202 26.7957 31.1705L30.0769 28.2506L27.9498 25.8603L25.6895 27.8717C25.176 28.3286 24.017 30.2407 23.6006 30.9455C22.3362 33.0845 21.5385 35.4863 20.4968 37.7339L19.7657 38.1725L18.2021 38.5486C20.0619 33.2585 21.3804 27.2399 25.8224 23.4696L23.5624 20.9299C18.964 25.9465 18.086 32.9775 16.09 39.251L14.2207 40.0853C16.3158 32.8806 16.663 24.5916 21.4353 18.5396L19.3082 16.1493C15.0136 22.0487 14.9117 30.0007 13.3321 36.945C13.1175 37.8889 12.5058 40.9249 11.9267 41.4375C10.6961 42.5278 8.56845 43.1671 7.84166 44.98L8.57138 45.7838C14.0015 40.3277 22.326 40.296 29.0249 37.4222C29.8747 37.058 32.1593 36.036 32.749 35.5112L34.8635 33.6295L34.8636 33.6288Z" fill="#D8E3FD"/>
<path d="M39.4691 38.8088L37.2406 36.3044C32.8784 40.2797 26.6498 40.6071 21.1032 41.9659C20.6977 41.5846 22.1433 40.3621 21.4313 40.2795C21.3268 40.2675 19.58 40.8223 19.4749 40.8978C18.9325 41.2848 18.9044 42.0096 18.4581 42.3535C18.0402 42.6758 16.9187 42.9057 16.5448 42.9652C16.1709 43.0246 16.6211 42.2845 16.8286 41.5699C15.7467 41.8768 15.0121 42.3493 15.0121 42.3493L14.29 43.5643C14.29 43.5643 12.9804 44.15 12.4691 44.6014L12.6441 43.3296C11.0361 44.1348 10.166 45.0897 9.35789 46.6876L10.2561 47.6969C18.5474 41.3651 31.2067 45.1646 39.4699 38.8088L39.4691 38.8088Z" fill="#D8E3FD"/>
<path d="M44.0787 43.9882L41.7714 41.3954C35.449 45.6845 26.9511 44.6323 19.64 46.0641C19.64 46.0641 19.2151 46.1858 19.2963 45.8724C19.3994 45.4752 19.7548 44.8661 19.7548 44.8661C19.1693 44.9841 18.0483 45.173 17.6208 45.332C17.4601 45.3916 17.3182 46.2964 16.6635 46.6737C16.22 46.9296 15.4015 46.8584 14.9348 47.1952L15.3203 46.3456C13.5918 46.2944 12.4451 47.7745 11.4185 49.0027L12.2475 49.9342C22.001 44.9596 34.3838 49.0837 44.0791 43.9879L44.0787 43.9882Z" fill="#D8E3FD"/>
<path d="M18.4362 49.0684C15.8679 48.2439 14.4906 49.7322 12.9905 50.7707L14.5557 52.5296C16.0424 51.6414 17.39 50.4515 18.4362 49.0684Z" fill="#D8E3FD"/>
<path d="M-6.57392 70.5009L-8.83395 67.9612C-5.62142 66.1307 -3.90397 62.7827 -2.02358 59.7565C-2.26687 59.3607 -2.25608 59.5378 -2.50534 59.5907C-3.39992 59.7814 -7.46084 61.6524 -8.07861 62.2021L-11.3598 65.122L-13.4869 62.7317L-11.2266 60.7203C-10.7131 60.2633 -8.67936 59.3342 -7.93097 59.0025C-5.65956 57.995 -3.18139 57.4817 -0.828003 56.7081L-0.307483 56.0329L0.247731 54.5236C-5.22266 55.7564 -11.3537 56.3669 -15.6143 60.341L-17.8744 57.8013C-12.3576 53.8166 -5.27221 53.7612 1.19063 52.5073L2.23635 50.7476C-5.16285 51.9918 -13.4361 51.3738 -20.0014 55.411L-22.1285 53.0207C-15.7702 49.4403 -7.8602 50.2627 -0.779462 49.5003C0.183022 49.3968 3.2695 49.1418 3.84591 48.6261C5.07176 47.5305 5.95379 45.4915 7.83888 44.9802L8.55245 45.7983C2.50259 50.558 1.50429 58.8225 -2.12812 65.1423C-2.58856 65.944 -3.86899 68.0945 -4.45868 68.6193L-6.5732 70.5009L-6.57392 70.5009Z" fill="#D8E3FD"/>
<path d="M-2.61212 76.2558L-4.84068 73.7515C-0.247861 69.7579 0.914422 63.5083 3.026 58.0522C2.69553 57.6042 1.26926 58.9374 1.28104 58.2106C1.28287 58.104 2.07583 56.3987 2.16612 56.3004C2.62897 55.7929 3.3638 55.8387 3.77035 55.4237C4.15129 55.0351 4.53302 53.9273 4.64296 53.5562C4.7529 53.1851 3.94618 53.5636 3.19761 53.6997C3.65172 52.6397 4.22646 51.947 4.22646 51.947L5.54852 51.343C5.54852 51.343 6.31432 50.0819 6.83797 49.6123L5.53165 49.6587C6.55874 48.119 7.63814 47.339 9.358 46.6873L10.2562 47.6967C2.76134 55.4126 4.90304 68.5715 -2.61216 76.2566L-2.61212 76.2558Z" fill="#D8E3FD"/>
<path d="M1.99742 81.4357L-0.309847 78.843C4.86136 72.9042 4.93513 64.2242 7.3561 56.9957C7.3561 56.9957 7.53557 56.5795 7.20865 56.6294C6.79413 56.6927 6.13223 56.9888 6.13223 56.9888C6.32948 56.4103 6.66979 55.2988 6.8873 54.8838C6.96895 54.7278 7.90059 54.6773 8.36865 54.0554C8.68598 53.6343 8.72357 52.8013 9.12561 52.365L8.21705 52.6669C8.39634 50.9181 10.0425 49.9128 11.4186 49.0029L12.2476 49.9344C5.92653 59.2643 8.43261 72.1774 1.99702 81.4361L1.99742 81.4357Z" fill="#D8E3FD"/>
<path d="M11.3151 55.4058C10.6239 52.9109 12.0107 51.9394 12.991 50.7708L14.5562 52.5297C13.7131 53.7146 12.5986 54.7157 11.3151 55.4058Z" fill="#D8E3FD"/>
<path d="M34.8636 33.6288L32.6036 31.0891C30.4123 34.0673 26.8875 35.3843 23.6634 36.9005C23.2985 36.6129 23.4732 36.6441 23.5547 36.4027C23.848 35.5363 26.1779 31.7202 26.7957 31.1705L30.0769 28.2506L27.9498 25.8603L25.6895 27.8717C25.176 28.3286 24.017 30.2407 23.6006 30.9455C22.3362 33.0845 21.5385 35.4863 20.4968 37.7339L19.7657 38.1725L18.2021 38.5486C20.0619 33.2585 21.3804 27.2399 25.8224 23.4696L23.5624 20.9299C18.964 25.9465 18.086 32.9775 16.09 39.251L14.2207 40.0853C16.3158 32.8806 16.663 24.5916 21.4353 18.5396L19.3082 16.1493C15.0136 22.0487 14.9117 30.0007 13.3321 36.945C13.1175 37.8889 12.5058 40.9249 11.9267 41.4375C10.6961 42.5278 8.56845 43.1671 7.84166 44.98L8.57138 45.7838C14.0015 40.3277 22.326 40.296 29.0249 37.4222C29.8747 37.058 32.1593 36.036 32.749 35.5112L34.8635 33.6295L34.8636 33.6288Z" fill="#D8E3FD"/>
<path d="M39.4691 38.8088L37.2406 36.3044C32.8784 40.2797 26.6498 40.6071 21.1032 41.9659C20.6977 41.5846 22.1433 40.3621 21.4313 40.2795C21.3268 40.2675 19.58 40.8223 19.4749 40.8978C18.9325 41.2848 18.9044 42.0096 18.4581 42.3535C18.0402 42.6758 16.9187 42.9057 16.5448 42.9652C16.1709 43.0246 16.6211 42.2845 16.8286 41.5699C15.7467 41.8768 15.0121 42.3493 15.0121 42.3493L14.29 43.5643C14.29 43.5643 12.9804 44.15 12.4691 44.6014L12.6441 43.3296C11.0361 44.1348 10.166 45.0897 9.35789 46.6876L10.2561 47.6969C18.5474 41.3651 31.2067 45.1646 39.4699 38.8088L39.4691 38.8088Z" fill="#D8E3FD"/>
<path d="M44.0787 43.9882L41.7714 41.3954C35.449 45.6845 26.9511 44.6323 19.64 46.0641C19.64 46.0641 19.2151 46.1858 19.2963 45.8724C19.3994 45.4752 19.7548 44.8661 19.7548 44.8661C19.1693 44.9841 18.0483 45.173 17.6208 45.332C17.4601 45.3916 17.3182 46.2964 16.6635 46.6737C16.22 46.9296 15.4015 46.8584 14.9348 47.1952L15.3203 46.3456C13.5918 46.2944 12.4451 47.7745 11.4185 49.0027L12.2475 49.9342C22.001 44.9596 34.3838 49.0837 44.0791 43.9879L44.0787 43.9882Z" fill="#D8E3FD"/>
<path d="M18.4362 49.0684C15.8679 48.2439 14.4906 49.7322 12.9905 50.7707L14.5557 52.5296C16.0424 51.6414 17.39 50.4515 18.4362 49.0684Z" fill="#D8E3FD"/>
<path d="M4.5082 69.9191L2.27963 67.4148C-2.08256 71.3901 -8.31113 71.7175 -13.8577 73.0762C-14.2633 72.6949 -12.8176 71.4725 -13.5297 71.3899C-13.6341 71.3778 -15.3809 71.9326 -15.486 72.0082C-16.0284 72.3952 -16.0565 73.1199 -16.5028 73.4639C-16.9207 73.7861 -18.0422 74.0161 -18.4161 74.0755C-18.79 74.135 -18.3398 73.3949 -18.1324 72.6803C-19.2143 72.9872 -19.9489 73.4597 -19.9489 73.4597L-20.6709 74.6746C-20.6709 74.6746 -21.9805 75.2604 -22.4918 75.7118L-22.3168 74.44C-23.9248 75.2452 -24.7949 76.2 -25.603 77.7979L-24.7048 78.8073C-16.4135 72.4754 -3.75423 76.2749 4.50894 69.9192L4.5082 69.9191Z" fill="#D8E3FD"/>
<path d="M9.11773 75.099L6.81046 72.5063C0.488093 76.7954 -8.00985 75.7432 -15.3209 77.175C-15.3209 77.175 -15.7458 77.2966 -15.6646 76.9833C-15.5615 76.586 -15.2062 75.9769 -15.2062 75.9769C-15.7916 76.0949 -16.9126 76.2838 -17.3401 76.4428C-17.5009 76.5025 -17.6427 77.4073 -18.2975 77.7846C-18.7409 78.0404 -19.5595 77.9693 -20.0261 78.306L-19.6407 77.4564C-21.3691 77.4052 -22.5158 78.8853 -23.5424 80.1135L-22.7135 81.045C-12.9599 76.0704 -0.577185 80.1946 9.11812 75.0987L9.11773 75.099Z" fill="#D8E3FD"/>
<path d="M64.4261 7.61466L62.1661 5.07495C65.3786 3.24442 67.096 -0.103553 68.9764 -3.12977C68.7331 -3.52555 68.7439 -3.34844 68.4947 -3.29549C67.6001 -3.10483 63.5392 -1.23388 62.9214 -0.684135L59.6402 2.23574L57.5131 -0.154568L59.7734 -2.16596C60.2869 -2.62294 62.3206 -3.55204 63.069 -3.88374C65.3404 -4.8912 67.8186 -5.4045 70.172 -6.17808L70.6925 -6.85338L71.2477 -8.36264C65.7773 -7.12984 59.6463 -6.51932 55.3857 -2.54526L53.1256 -5.08496C58.6424 -9.06962 65.7278 -9.12505 72.1906 -10.3789L73.2364 -12.1386C65.8371 -10.8945 57.5639 -11.5124 50.9986 -7.47527L48.8715 -9.86557C55.2298 -13.446 63.1398 -12.6235 70.2205 -13.3859C71.183 -13.4895 74.2695 -13.7444 74.8459 -14.2601C76.0718 -15.3558 76.9538 -17.3947 78.8389 -17.906L79.5524 -17.0879C73.5026 -12.3282 72.5043 -4.06374 68.8719 2.25611C68.4114 3.05778 67.131 5.20828 66.5413 5.73304L64.4268 7.6147L64.4261 7.61466Z" fill="#D8E3FD"/>
<path d="M68.3879 13.3701L66.1593 10.8657C70.7521 6.87218 71.9144 0.622601 74.026 -4.83351C73.6955 -5.28159 72.2693 -3.94838 72.281 -4.67513C72.2829 -4.78176 73.0758 -6.48701 73.1661 -6.58534C73.629 -7.09287 74.3638 -7.04705 74.7703 -7.46204C75.1513 -7.85066 75.533 -8.9584 75.643 -9.32951C75.7529 -9.70062 74.9462 -9.32218 74.1976 -9.18606C74.6517 -10.246 75.2265 -10.9387 75.2265 -10.9387L76.5485 -11.5427C76.5485 -11.5427 77.3143 -12.8038 77.838 -13.2734L76.5316 -13.2271C77.5587 -14.7667 78.6381 -15.5467 80.358 -16.1984L81.2562 -15.189C73.7613 -7.47315 75.903 5.68577 68.3878 13.3708L68.3879 13.3701Z" fill="#D8E3FD"/>
<path d="M72.9974 18.5495L70.6902 15.9567C75.8614 10.0179 75.9351 1.33795 78.3561 -5.89056C78.3561 -5.89056 78.5356 -6.30674 78.2086 -6.25688C77.7941 -6.19354 77.1322 -5.89744 77.1322 -5.89744C77.3295 -6.4759 77.6698 -7.5874 77.8873 -8.0024C77.9689 -8.15844 78.9006 -8.20896 79.3687 -8.83079C79.686 -9.25193 79.7236 -10.0849 80.1256 -10.5212L79.217 -10.2193C79.3963 -11.9682 81.0425 -12.9734 82.4186 -13.8833L83.2476 -12.9518C76.9265 -3.62195 79.4326 9.29119 72.997 18.5499L72.9974 18.5495Z" fill="#D8E3FD"/>
<path d="M64.4261 7.61466L62.1661 5.07495C65.3786 3.24442 67.096 -0.103553 68.9764 -3.12977C68.7331 -3.52555 68.7439 -3.34844 68.4947 -3.29549C67.6001 -3.10483 63.5392 -1.23388 62.9214 -0.684135L59.6402 2.23574L57.5131 -0.154568L59.7734 -2.16596C60.2869 -2.62294 62.3206 -3.55204 63.069 -3.88374C65.3404 -4.8912 67.8186 -5.4045 70.172 -6.17808L70.6925 -6.85338L71.2477 -8.36264C65.7773 -7.12984 59.6463 -6.51932 55.3857 -2.54526L53.1256 -5.08496C58.6424 -9.06962 65.7278 -9.12505 72.1906 -10.3789L73.2364 -12.1386C65.8371 -10.8945 57.5639 -11.5124 50.9986 -7.47527L48.8715 -9.86557C55.2298 -13.446 63.1398 -12.6235 70.2205 -13.3859C71.183 -13.4895 74.2695 -13.7444 74.8459 -14.2601C76.0718 -15.3558 76.9538 -17.3947 78.8389 -17.906L79.5524 -17.0879C73.5026 -12.3282 72.5043 -4.06374 68.8719 2.25611C68.4114 3.05778 67.131 5.20828 66.5413 5.73304L64.4268 7.6147L64.4261 7.61466Z" fill="#D8E3FD"/>
<path d="M68.3879 13.3701L66.1593 10.8657C70.7521 6.87218 71.9144 0.622601 74.026 -4.83351C73.6955 -5.28159 72.2693 -3.94838 72.281 -4.67513C72.2829 -4.78176 73.0758 -6.48701 73.1661 -6.58534C73.629 -7.09287 74.3638 -7.04705 74.7703 -7.46204C75.1513 -7.85066 75.533 -8.9584 75.643 -9.32951C75.7529 -9.70062 74.9462 -9.32218 74.1976 -9.18606C74.6517 -10.246 75.2265 -10.9387 75.2265 -10.9387L76.5485 -11.5427C76.5485 -11.5427 77.3143 -12.8038 77.838 -13.2734L76.5316 -13.2271C77.5587 -14.7667 78.6381 -15.5467 80.358 -16.1984L81.2562 -15.189C73.7613 -7.47315 75.903 5.68577 68.3878 13.3708L68.3879 13.3701Z" fill="#D8E3FD"/>
<path d="M72.9974 18.5495L70.6902 15.9567C75.8614 10.0179 75.9351 1.33795 78.3561 -5.89056C78.3561 -5.89056 78.5356 -6.30674 78.2086 -6.25688C77.7941 -6.19354 77.1322 -5.89744 77.1322 -5.89744C77.3295 -6.4759 77.6698 -7.5874 77.8873 -8.0024C77.9689 -8.15844 78.9006 -8.20896 79.3687 -8.83079C79.686 -9.25193 79.7236 -10.0849 80.1256 -10.5212L79.217 -10.2193C79.3963 -11.9682 81.0425 -12.9734 82.4186 -13.8833L83.2476 -12.9518C76.9265 -3.62195 79.4326 9.29119 72.997 18.5499L72.9974 18.5495Z" fill="#D8E3FD"/>
<path d="M29.4651 38.7255L27.2051 36.1858C30.5021 34.2801 32.3014 30.8593 34.2616 27.7621C34.0202 27.3646 34.0284 27.544 33.774 27.6015C32.8609 27.8087 28.7001 29.7685 28.063 30.3354L24.6793 33.3466L22.5522 30.9563L24.8831 28.882C25.4127 28.4108 27.4963 27.4373 28.2629 27.0894C30.5895 26.0327 33.1189 25.4739 35.5253 24.6531L36.0654 23.9604L36.6537 22.4217C31.0688 23.7564 24.8214 24.4705 20.4247 28.5656L18.1647 26.0259C23.8395 21.9006 31.0493 21.7344 37.6444 20.363L38.7356 18.5627C31.1881 19.9389 22.7801 19.4408 16.0376 23.6356L13.9106 21.2453C20.4353 17.5167 28.4705 18.2278 35.6866 17.3449C36.6674 17.2251 39.8117 16.9187 40.4062 16.3869C41.6704 15.2571 42.5995 13.1763 44.5254 12.6287L45.2387 13.4471C39.0094 18.3664 37.8655 26.7604 34.0716 33.2239C33.5907 34.0438 32.2546 36.2439 31.6465 36.7851L29.4659 38.7255L29.4651 38.7255Z" fill="#D8E3FD"/>
<path d="M34.0754 43.9048L31.8468 41.4004C36.4396 37.4069 37.6019 31.1573 39.7135 25.7012C39.383 25.2531 37.9568 26.5863 37.9685 25.8595C37.9704 25.7529 38.7633 24.0477 38.8536 23.9493C39.3165 23.4418 40.0513 23.4876 40.4578 23.0726C40.8388 22.684 41.2205 21.5763 41.3305 21.2052C41.4404 20.834 40.6337 21.2125 39.8851 21.3486C40.3392 20.2886 40.914 19.596 40.914 19.596L42.236 18.9919C42.236 18.9919 43.0018 17.7308 43.5255 17.2613L42.2191 17.3076C43.2462 15.768 44.3256 14.9879 46.0455 14.3363L46.9437 15.3456C39.4488 23.0615 41.5905 36.2204 34.0753 43.9055L34.0754 43.9048Z" fill="#D8E3FD"/>
<path d="M38.6849 49.0842L36.3777 46.4914C41.5489 40.5526 41.6226 31.8726 44.0436 24.6441C44.0436 24.6441 44.2231 24.2279 43.8961 24.2778C43.4816 24.3411 42.8197 24.6372 42.8197 24.6372C43.017 24.0588 43.3573 22.9473 43.5748 22.5323C43.6564 22.3762 44.5881 22.3257 45.0562 21.7039C45.3735 21.2827 45.4111 20.4497 45.8131 20.0135L44.9045 20.3154C45.0838 18.5665 46.73 17.5613 48.1061 16.6514L48.9351 17.5829C42.614 26.9127 45.1201 39.8259 38.6845 49.0845L38.6849 49.0842Z" fill="#D8E3FD"/>
<path d="M47.4119 23.6926C47.4061 21.6244 49.0008 20.3804 50.2556 19.0662L51.2991 20.2388C50.1723 21.5314 48.8323 22.7299 47.4119 23.6926Z" fill="#D8E3FD"/>
<path d="M71.5472 1.27774L69.2871 -1.26196C67.0959 1.71623 63.5711 3.03321 60.347 4.54939C59.9821 4.26179 60.1568 4.29307 60.2383 4.05164C60.5316 3.18526 62.8615 -0.630872 63.4793 -1.18062L66.7605 -4.10049L64.6334 -6.4908L62.3731 -4.47941C61.8596 -4.02243 60.7006 -2.11039 60.2842 -1.40558C59.0198 0.733439 58.2221 3.13523 57.1804 5.38284L56.4492 5.8214L54.8857 6.19757C56.7455 0.907377 58.064 -5.11121 62.506 -8.88149L60.246 -11.4212C55.6475 -6.40456 54.7696 0.626433 52.7736 6.89991L50.9043 7.73418C52.9994 0.52955 53.3466 -7.75948 58.1189 -13.8115L55.9918 -16.2018C51.6972 -10.3024 51.5953 -2.35037 50.0157 4.5939C49.8011 5.53785 49.1894 8.57383 48.6103 9.08645C47.3796 10.1767 45.252 10.816 44.5253 12.6289L45.255 13.4327C50.6851 7.9766 59.0096 7.94492 65.7085 5.0711C66.5583 4.70688 68.8429 3.68488 69.4326 3.16013L71.5471 1.27847L71.5472 1.27774Z" fill="#D8E3FD"/>
<path d="M76.1566 6.45721L73.9281 3.95287C69.5659 7.92818 63.3373 8.25556 57.7907 9.61432C57.3852 9.23301 58.8308 8.01056 58.1188 7.92794C58.0143 7.91592 56.2675 8.47069 56.1624 8.54627C55.62 8.93328 55.5919 9.65802 55.1456 10.0019C54.7277 10.3242 53.6062 10.5541 53.2323 10.6136C52.8584 10.6731 53.3086 9.93298 53.5161 9.21838C52.4342 9.52528 51.6996 9.99775 51.6996 9.99775L50.9775 11.2127C50.9775 11.2127 49.6679 11.7985 49.1566 12.2499L49.3316 10.978C47.7236 11.7833 46.8535 12.7381 46.0454 14.336L46.9436 15.3454C55.2349 9.0135 67.8942 12.813 76.1574 6.45727L76.1566 6.45721Z" fill="#D8E3FD"/>
<path d="M80.7662 11.6371L78.4589 9.04434C72.1365 13.3334 63.6386 12.2812 56.3275 13.713C56.3275 13.713 55.9026 13.8347 55.9838 13.5214C56.0869 13.1241 56.4423 12.515 56.4423 12.515C55.8568 12.633 54.7358 12.8219 54.3083 12.9809C54.1476 13.0406 54.0057 13.9453 53.351 14.3226C52.9075 14.5785 52.089 14.5074 51.6223 14.8441L52.0078 13.9945C50.2793 13.9433 49.1326 15.4234 48.106 16.6516L48.935 17.5831C58.6885 12.6085 71.0713 16.7326 80.7666 11.6368L80.7662 11.6371Z" fill="#D8E3FD"/>
<path d="M54.533 17.3556C52.6501 16.9578 51.4806 18.1736 50.2551 19.0667L51.2986 20.2393C52.5015 19.4586 53.6237 18.4662 54.533 17.3556Z" fill="#D8E3FD"/>
<path d="M61.63 64.6H61.77L65.41 56.2H68.42V66H66.39V58.16H66.25L62.89 66H60.51L57.15 58.16H57.01V66H54.98V56.2H57.99L61.63 64.6ZM72.4045 57.25V60.47H77.5145V61.52H72.4045V64.95H78.9145V66H70.3745V56.2H78.9145V57.25H72.4045ZM80.174 64.95C80.454 64.95 80.7107 64.8193 80.944 64.558C81.1867 64.2967 81.3267 63.9373 81.364 63.48L81.924 56.2H89.764V64.95H90.954V68.24H89.274L88.994 66H81.434L81.154 68.24H79.474V64.95H80.174ZM83.324 63.48C83.3053 63.7227 83.2447 63.9373 83.142 64.124C83.0393 64.3107 82.9273 64.4647 82.806 64.586C82.666 64.7353 82.512 64.8567 82.344 64.95H87.734V57.25H83.814L83.324 63.48ZM100.546 66V58.02H100.406L95.1556 66H92.4956V56.2H94.5256V64.18H94.6656L99.9156 56.2H102.576V66H100.546ZM115.251 64.95V68.24H113.571L113.291 66H104.541V56.2H106.571V64.95H112.031V56.2H114.061V64.95H115.251ZM124.841 66V58.02H124.701L119.451 66H116.791V56.2H118.821V64.18H118.961L124.211 56.2H126.871V66H124.841ZM138.635 56.2V66H136.605V61.73H130.865V66H128.835V56.2H130.865V60.68H136.605V56.2H138.635ZM146.193 65.23C146.828 65.23 147.435 65.1227 148.013 64.908C148.601 64.684 149.161 64.3247 149.693 63.83L150.393 64.67C149.861 65.1647 149.217 65.5567 148.461 65.846C147.705 66.1353 146.903 66.28 146.053 66.28C145.176 66.28 144.383 66.168 143.673 65.944C142.973 65.72 142.371 65.3887 141.867 64.95C141.373 64.5113 140.99 63.97 140.719 63.326C140.449 62.682 140.313 61.94 140.313 61.1C140.313 60.26 140.444 59.518 140.705 58.874C140.976 58.23 141.354 57.6887 141.839 57.25C142.334 56.8113 142.927 56.48 143.617 56.256C144.308 56.032 145.073 55.92 145.913 55.92C146.763 55.92 147.565 56.0647 148.321 56.354C149.077 56.6433 149.721 57.0353 150.253 57.53L149.553 58.37C149.021 57.8753 148.461 57.5207 147.873 57.306C147.295 57.082 146.688 56.97 146.053 56.97C145.549 56.97 145.078 57.054 144.639 57.222C144.201 57.3807 143.823 57.628 143.505 57.964C143.188 58.3 142.936 58.7293 142.749 59.252C142.572 59.7653 142.483 60.3813 142.483 61.1C142.483 61.8187 142.572 62.4393 142.749 62.962C142.936 63.4753 143.193 63.9 143.519 64.236C143.855 64.572 144.247 64.824 144.695 64.992C145.153 65.1507 145.652 65.23 146.193 65.23ZM157.954 61.03L161.664 66H159.354L156.134 61.66H153.684V66H151.654V56.2H153.684V60.61H155.994L159.214 56.2H161.454L157.954 61.03ZM170.833 66V58.02H170.693L165.443 66H162.783V56.2H164.813V64.18H164.953L170.203 56.2H172.863V66H170.833ZM176.858 57.25V60.47H181.968V61.52H176.858V64.95H183.368V66H174.828V56.2H183.368V57.25H176.858Z" fill="#D8E3FD"/>
<path d="M58.58 101.23C59.2147 101.23 59.8213 101.123 60.4 100.908C60.988 100.684 61.548 100.325 62.08 99.83L62.78 100.67C62.248 101.165 61.604 101.557 60.848 101.846C60.092 102.135 59.2893 102.28 58.44 102.28C57.5627 102.28 56.7693 102.168 56.06 101.944C55.36 101.72 54.758 101.389 54.254 100.95C53.7593 100.511 53.3767 99.97 53.106 99.326C52.8353 98.682 52.7 97.94 52.7 97.1C52.7 96.26 52.8307 95.518 53.092 94.874C53.3627 94.23 53.7407 93.6887 54.226 93.25C54.7207 92.8113 55.3133 92.48 56.004 92.256C56.6947 92.032 57.46 91.92 58.3 91.92C59.1493 91.92 59.952 92.0647 60.708 92.354C61.464 92.6433 62.108 93.0353 62.64 93.53L61.94 94.37C61.408 93.8753 60.848 93.5207 60.26 93.306C59.6813 93.082 59.0747 92.97 58.44 92.97C57.936 92.97 57.4647 93.054 57.026 93.222C56.5873 93.3807 56.2093 93.628 55.892 93.964C55.5747 94.3 55.3227 94.7293 55.136 95.252C54.9587 95.7653 54.87 96.3813 54.87 97.1C54.87 97.8187 54.9587 98.4393 55.136 98.962C55.3227 99.4753 55.5793 99.9 55.906 100.236C56.242 100.572 56.634 100.824 57.082 100.992C57.5393 101.151 58.0387 101.23 58.58 101.23ZM72.7905 93.25H69.0105V102H66.9805V93.25H63.2005V92.2H72.7905V93.25ZM78.2473 92.9C77.7713 92.9 77.3233 92.984 76.9033 93.152C76.4926 93.32 76.1333 93.5767 75.8253 93.922C75.5173 94.2673 75.2699 94.706 75.0833 95.238C74.9059 95.7607 74.8173 96.3813 74.8173 97.1C74.8173 97.8187 74.9059 98.444 75.0833 98.976C75.2699 99.4987 75.5173 99.9327 75.8253 100.278C76.1333 100.623 76.4926 100.88 76.9033 101.048C77.3233 101.216 77.7713 101.3 78.2473 101.3C78.7233 101.3 79.1666 101.216 79.5773 101.048C79.9973 100.88 80.3613 100.623 80.6693 100.278C80.9773 99.9327 81.2199 99.4987 81.3973 98.976C81.5839 98.444 81.6773 97.8187 81.6773 97.1C81.6773 96.3813 81.5839 95.7607 81.3973 95.238C81.2199 94.706 80.9773 94.2673 80.6693 93.922C80.3613 93.5767 79.9973 93.32 79.5773 93.152C79.1666 92.984 78.7233 92.9 78.2473 92.9ZM78.2473 91.92C79.0873 91.92 79.8479 92.032 80.5293 92.256C81.2199 92.48 81.8079 92.8113 82.2933 93.25C82.7879 93.6887 83.1706 94.23 83.4413 94.874C83.7119 95.518 83.8473 96.26 83.8473 97.1C83.8473 97.94 83.7119 98.682 83.4413 99.326C83.1706 99.97 82.7879 100.511 82.2933 100.95C81.8079 101.389 81.2199 101.72 80.5293 101.944C79.8479 102.168 79.0873 102.28 78.2473 102.28C77.4073 102.28 76.6419 102.168 75.9513 101.944C75.2606 101.72 74.6679 101.389 74.1733 100.95C73.6879 100.511 73.3099 99.97 73.0393 99.326C72.7779 98.682 72.6473 97.94 72.6473 97.1C72.6473 96.26 72.7779 95.518 73.0393 94.874C73.3099 94.23 73.6879 93.6887 74.1733 93.25C74.6679 92.8113 75.2606 92.48 75.9513 92.256C76.6419 92.032 77.4073 91.92 78.2473 91.92ZM92.1827 100.6H92.3227L95.9627 92.2H98.9727V102H96.9427V94.16H96.8027L93.4427 102H91.0627L87.7027 94.16H87.5627V102H85.5327V92.2H88.5427L92.1827 100.6ZM103.517 98.57H107.857L105.757 93.39H105.617L103.517 98.57ZM107.297 92.2L111.287 102H109.271L108.347 99.62H103.027L102.103 102H100.087L104.077 92.2H107.297ZM120.041 93.25H116.261V102H114.231V93.25H110.451V92.2H120.041V93.25ZM125.497 92.9C125.021 92.9 124.573 92.984 124.153 93.152C123.743 93.32 123.383 93.5767 123.075 93.922C122.767 94.2673 122.52 94.706 122.333 95.238C122.156 95.7607 122.067 96.3813 122.067 97.1C122.067 97.8187 122.156 98.444 122.333 98.976C122.52 99.4987 122.767 99.9327 123.075 100.278C123.383 100.623 123.743 100.88 124.153 101.048C124.573 101.216 125.021 101.3 125.497 101.3C125.973 101.3 126.417 101.216 126.827 101.048C127.247 100.88 127.611 100.623 127.919 100.278C128.227 99.9327 128.47 99.4987 128.647 98.976C128.834 98.444 128.927 97.8187 128.927 97.1C128.927 96.3813 128.834 95.7607 128.647 95.238C128.47 94.706 128.227 94.2673 127.919 93.922C127.611 93.5767 127.247 93.32 126.827 93.152C126.417 92.984 125.973 92.9 125.497 92.9ZM125.497 91.92C126.337 91.92 127.098 92.032 127.779 92.256C128.47 92.48 129.058 92.8113 129.543 93.25C130.038 93.6887 130.421 94.23 130.691 94.874C130.962 95.518 131.097 96.26 131.097 97.1C131.097 97.94 130.962 98.682 130.691 99.326C130.421 99.97 130.038 100.511 129.543 100.95C129.058 101.389 128.47 101.72 127.779 101.944C127.098 102.168 126.337 102.28 125.497 102.28C124.657 102.28 123.892 102.168 123.201 101.944C122.511 101.72 121.918 101.389 121.423 100.95C120.938 100.511 120.56 99.97 120.289 99.326C120.028 98.682 119.897 97.94 119.897 97.1C119.897 96.26 120.028 95.518 120.289 94.874C120.56 94.23 120.938 93.6887 121.423 93.25C121.918 92.8113 122.511 92.48 123.201 92.256C123.892 92.032 124.657 91.92 125.497 91.92ZM132.083 101.16H132.503C132.783 101.16 133.03 101.043 133.245 100.81C133.459 100.577 133.585 100.18 133.623 99.62L134.113 92.2H142.443V102H140.413V93.25H136.003L135.583 99.62C135.517 100.535 135.261 101.197 134.813 101.608C134.374 102.009 133.767 102.21 132.993 102.21C132.75 102.21 132.535 102.187 132.349 102.14C132.246 102.121 132.157 102.098 132.083 102.07V101.16ZM149.724 92.9C149.248 92.9 148.8 92.984 148.38 93.152C147.969 93.32 147.61 93.5767 147.302 93.922C146.994 94.2673 146.746 94.706 146.56 95.238C146.382 95.7607 146.294 96.3813 146.294 97.1C146.294 97.8187 146.382 98.444 146.56 98.976C146.746 99.4987 146.994 99.9327 147.302 100.278C147.61 100.623 147.969 100.88 148.38 101.048C148.8 101.216 149.248 101.3 149.724 101.3C150.2 101.3 150.643 101.216 151.054 101.048C151.474 100.88 151.838 100.623 152.146 100.278C152.454 99.9327 152.696 99.4987 152.874 98.976C153.06 98.444 153.154 97.8187 153.154 97.1C153.154 96.3813 153.06 95.7607 152.874 95.238C152.696 94.706 152.454 94.2673 152.146 93.922C151.838 93.5767 151.474 93.32 151.054 93.152C150.643 92.984 150.2 92.9 149.724 92.9ZM149.724 91.92C150.564 91.92 151.324 92.032 152.006 92.256C152.696 92.48 153.284 92.8113 153.77 93.25C154.264 93.6887 154.647 94.23 154.918 94.874C155.188 95.518 155.324 96.26 155.324 97.1C155.324 97.94 155.188 98.682 154.918 99.326C154.647 99.97 154.264 100.511 153.77 100.95C153.284 101.389 152.696 101.72 152.006 101.944C151.324 102.168 150.564 102.28 149.724 102.28C148.884 102.28 148.118 102.168 147.428 101.944C146.737 101.72 146.144 101.389 145.65 100.95C145.164 100.511 144.786 99.97 144.516 99.326C144.254 98.682 144.124 97.94 144.124 97.1C144.124 96.26 144.254 95.518 144.516 94.874C144.786 94.23 145.164 93.6887 145.65 93.25C146.144 92.8113 146.737 92.48 147.428 92.256C148.118 92.032 148.884 91.92 149.724 91.92ZM159.039 93.25V102H157.009V92.2H165.129V93.25H159.039ZM174.301 102V94.02H174.161L168.911 102H166.251V92.2H168.281V100.18H168.421L173.671 92.2H176.331V102H174.301ZM182.636 98.78C181.815 98.78 181.11 98.7147 180.522 98.584C179.944 98.4533 179.468 98.262 179.094 98.01C178.721 97.758 178.446 97.4453 178.268 97.072C178.1 96.6987 178.016 96.2647 178.016 95.77V92.2H180.046V95.77C180.046 96.4327 180.242 96.9273 180.634 97.254C181.026 97.5713 181.694 97.73 182.636 97.73H185.296V92.2H187.326V102H185.296V98.78H182.636ZM191.319 93.25V96.47H196.429V97.52H191.319V100.95H197.829V102H189.289V92.2H197.829V93.25H191.319ZM204.404 101.23C205.039 101.23 205.646 101.123 206.224 100.908C206.812 100.684 207.372 100.325 207.904 99.83L208.604 100.67C208.072 101.165 207.428 101.557 206.672 101.846C205.916 102.135 205.114 102.28 204.264 102.28C203.387 102.28 202.594 102.168 201.884 101.944C201.184 101.72 200.582 101.389 200.078 100.95C199.584 100.511 199.201 99.97 198.93 99.326C198.66 98.682 198.524 97.94 198.524 97.1C198.524 96.26 198.655 95.518 198.916 94.874C199.187 94.23 199.565 93.6887 200.05 93.25C200.545 92.8113 201.138 92.48 201.828 92.256C202.519 92.032 203.284 91.92 204.124 91.92C204.974 91.92 205.776 92.0647 206.532 92.354C207.288 92.6433 207.932 93.0353 208.464 93.53L207.764 94.37C207.232 93.8753 206.672 93.5207 206.084 93.306C205.506 93.082 204.899 92.97 204.264 92.97C203.76 92.97 203.289 93.054 202.85 93.222C202.412 93.3807 202.034 93.628 201.716 93.964C201.399 94.3 201.147 94.7293 200.96 95.252C200.783 95.7653 200.694 96.3813 200.694 97.1C200.694 97.8187 200.783 98.4393 200.96 98.962C201.147 99.4753 201.404 99.9 201.73 100.236C202.066 100.572 202.458 100.824 202.906 100.992C203.364 101.151 203.863 101.23 204.404 101.23ZM216.165 97.03L219.875 102H217.565L214.345 97.66H211.895V102H209.865V92.2H211.895V96.61H214.205L217.425 92.2H219.665L216.165 97.03ZM229.044 102V94.02H228.904L223.654 102H220.994V92.2H223.024V100.18H223.164L228.414 92.2H231.074V102H229.044ZM235.069 93.25V96.47H240.179V97.52H235.069V100.95H241.579V102H233.039V92.2H241.579V93.25H235.069ZM62.99 109.2L57.74 119H55.57L57.11 116.13H55.99L52 109.2H54.31L57.6 114.94H57.74L60.82 109.2H62.99ZM68.8749 118.23C69.5096 118.23 70.1163 118.123 70.6949 117.908C71.2829 117.684 71.8429 117.325 72.3749 116.83L73.0749 117.67C72.5429 118.165 71.8989 118.557 71.1429 118.846C70.3869 119.135 69.5843 119.28 68.7349 119.28C67.8576 119.28 67.0643 119.168 66.3549 118.944C65.6549 118.72 65.0529 118.389 64.5489 117.95C64.0543 117.511 63.6716 116.97 63.4009 116.326C63.1303 115.682 62.9949 114.94 62.9949 114.1C62.9949 113.26 63.1256 112.518 63.3869 111.874C63.6576 111.23 64.0356 110.689 64.5209 110.25C65.0156 109.811 65.6083 109.48 66.2989 109.256C66.9896 109.032 67.7549 108.92 68.5949 108.92C69.4443 108.92 70.2469 109.065 71.0029 109.354C71.7589 109.643 72.4029 110.035 72.9349 110.53L72.2349 111.37C71.7029 110.875 71.1429 110.521 70.5549 110.306C69.9763 110.082 69.3696 109.97 68.7349 109.97C68.2309 109.97 67.7596 110.054 67.3209 110.222C66.8823 110.381 66.5043 110.628 66.1869 110.964C65.8696 111.3 65.6176 111.729 65.4309 112.252C65.2536 112.765 65.1649 113.381 65.1649 114.1C65.1649 114.819 65.2536 115.439 65.4309 115.962C65.6176 116.475 65.8743 116.9 66.2009 117.236C66.5369 117.572 66.9289 117.824 67.3769 117.992C67.8343 118.151 68.3336 118.23 68.8749 118.23ZM73.6355 118.16H74.0555C74.3355 118.16 74.5828 118.043 74.7975 117.81C75.0121 117.577 75.1381 117.18 75.1755 116.62L75.6655 109.2H83.9955V119H81.9655V110.25H77.5555L77.1355 116.62C77.0701 117.535 76.8135 118.197 76.3655 118.608C75.9268 119.009 75.3201 119.21 74.5455 119.21C74.3028 119.21 74.0881 119.187 73.9015 119.14C73.7988 119.121 73.7101 119.098 73.6355 119.07V118.16ZM95.9666 109.2L90.7166 119H88.5466L90.0866 116.13H88.9666L84.9766 109.2H87.2866L90.5766 114.94H90.7166L93.7966 109.2H95.9666ZM99.1155 110.25V119H97.0855V109.2H105.205V110.25H99.1155ZM114.378 119V111.02H114.238L108.988 119H106.328V109.2H108.358V117.18H108.498L113.748 109.2H116.408V119H114.378Z" fill="#D8E3FD"/>
<path d="M63.03 83V75.02H62.89L57.64 83H54.98V73.2H57.01V81.18H57.15L62.4 73.2H65.06V83H63.03Z" fill="#D8E3FD"/>
<path d="M266.426 168.501L264.166 165.961C267.379 164.131 269.096 160.783 270.976 157.756C270.733 157.361 270.744 157.538 270.495 157.591C269.6 157.781 265.539 159.652 264.921 160.202L261.64 163.122L259.513 160.732L261.773 158.72C262.287 158.263 264.321 157.334 265.069 157.002C267.34 155.995 269.819 155.482 272.172 154.708L272.693 154.033L273.248 152.524C267.777 153.756 261.646 154.367 257.386 158.341L255.126 155.801C260.642 151.817 267.728 151.761 274.191 150.507L275.236 148.748C267.837 149.992 259.564 149.374 252.999 153.411L250.871 151.021C257.23 147.44 265.14 148.263 272.221 147.5C273.183 147.397 276.27 147.142 276.846 146.626C278.072 145.53 278.954 143.492 280.839 142.98L281.552 143.798C275.503 148.558 274.504 156.822 270.872 163.142C270.411 163.944 269.131 166.095 268.541 166.619L266.427 168.501L266.426 168.501Z" fill="#D8E3FD"/>
<path d="M270.388 174.256L268.159 171.751C272.752 167.758 273.914 161.508 276.026 156.052C275.696 155.604 274.269 156.937 274.281 156.211C274.283 156.104 275.076 154.399 275.166 154.3C275.629 153.793 276.364 153.839 276.77 153.424C277.151 153.035 277.533 151.927 277.643 151.556C277.753 151.185 276.946 151.564 276.198 151.7C276.652 150.64 277.226 149.947 277.226 149.947L278.549 149.343C278.549 149.343 279.314 148.082 279.838 147.612L278.532 147.659C279.559 146.119 280.638 145.339 282.358 144.687L283.256 145.697C275.761 153.413 277.903 166.572 270.388 174.257L270.388 174.256Z" fill="#D8E3FD"/>
<path d="M274.997 179.436L272.69 176.843C277.861 170.904 277.935 162.224 280.356 154.996C280.356 154.996 280.536 154.579 280.209 154.629C279.794 154.693 279.132 154.989 279.132 154.989C279.329 154.41 279.67 153.299 279.887 152.884C279.969 152.728 280.901 152.677 281.369 152.055C281.686 151.634 281.724 150.801 282.126 150.365L281.217 150.667C281.396 148.918 283.043 147.913 284.419 147.003L285.248 147.934C278.927 157.264 281.433 170.177 274.997 179.436L274.997 179.436Z" fill="#D8E3FD"/>
<path d="M284.315 153.406C283.624 150.911 285.011 149.939 285.991 148.771L287.556 150.53C286.713 151.715 285.599 152.716 284.315 153.406Z" fill="#D8E3FD"/>
<path d="M307.864 131.629L305.604 129.089C303.412 132.067 299.888 133.384 296.663 134.9C296.299 134.613 296.473 134.644 296.555 134.403C296.848 133.536 299.178 129.72 299.796 129.17L303.077 126.251L300.95 123.86L298.69 125.872C298.176 126.329 297.017 128.241 296.601 128.945C295.336 131.085 294.539 133.486 293.497 135.734L292.766 136.172L291.202 136.549C293.062 131.258 294.38 125.24 298.822 121.47L296.562 118.93C291.964 123.947 291.086 130.978 289.09 137.251L287.221 138.085C289.316 130.881 289.663 122.592 294.435 116.54L292.308 114.149C288.014 120.049 287.912 128.001 286.332 134.945C286.118 135.889 285.506 138.925 284.927 139.438C283.696 140.528 281.568 141.167 280.842 142.98L281.571 143.784C287.002 138.328 295.326 138.296 302.025 135.422C302.875 135.058 305.159 134.036 305.749 133.511L307.864 131.63L307.864 131.629Z" fill="#D8E3FD"/>
<path d="M312.469 136.809L310.241 134.304C305.878 138.28 299.65 138.607 294.103 139.966C293.698 139.585 295.143 138.362 294.431 138.28C294.327 138.267 292.58 138.822 292.475 138.898C291.933 139.285 291.904 140.01 291.458 140.353C291.04 140.676 289.919 140.906 289.545 140.965C289.171 141.025 289.621 140.285 289.829 139.57C288.747 139.877 288.012 140.349 288.012 140.349L287.29 141.564C287.29 141.564 285.98 142.15 285.469 142.601L285.644 141.33C284.036 142.135 283.166 143.09 282.358 144.688L283.256 145.697C291.547 139.365 304.207 143.165 312.47 136.809L312.469 136.809Z" fill="#D8E3FD"/>
<path d="M317.079 141.988L314.771 139.395C308.449 143.685 299.951 142.632 292.64 144.064C292.64 144.064 292.215 144.186 292.296 143.872C292.399 143.475 292.755 142.866 292.755 142.866C292.169 142.984 291.048 143.173 290.621 143.332C290.46 143.392 290.318 144.296 289.663 144.674C289.22 144.93 288.401 144.858 287.935 145.195L288.32 144.346C286.592 144.294 285.445 145.774 284.419 147.003L285.247 147.934C295.001 142.96 307.384 147.084 317.079 141.988L317.079 141.988Z" fill="#D8E3FD"/>
<path d="M291.436 147.068C288.868 146.244 287.491 147.732 285.99 148.771L287.556 150.53C289.042 149.641 290.39 148.451 291.436 147.068Z" fill="#D8E3FD"/>
<path d="M266.426 168.501L264.166 165.961C267.379 164.131 269.096 160.783 270.976 157.756C270.733 157.361 270.744 157.538 270.495 157.591C269.6 157.781 265.539 159.652 264.921 160.202L261.64 163.122L259.513 160.732L261.773 158.72C262.287 158.263 264.321 157.334 265.069 157.002C267.34 155.995 269.819 155.482 272.172 154.708L272.693 154.033L273.248 152.524C267.777 153.756 261.646 154.367 257.386 158.341L255.126 155.801C260.642 151.817 267.728 151.761 274.191 150.507L275.236 148.748C267.837 149.992 259.564 149.374 252.999 153.411L250.871 151.021C257.23 147.44 265.14 148.263 272.221 147.5C273.183 147.397 276.27 147.142 276.846 146.626C278.072 145.53 278.954 143.492 280.839 142.98L281.552 143.798C275.503 148.558 274.504 156.822 270.872 163.142C270.411 163.944 269.131 166.095 268.541 166.619L266.427 168.501L266.426 168.501Z" fill="#D8E3FD"/>
<path d="M270.388 174.256L268.159 171.751C272.752 167.758 273.914 161.508 276.026 156.052C275.696 155.604 274.269 156.937 274.281 156.211C274.283 156.104 275.076 154.399 275.166 154.3C275.629 153.793 276.364 153.839 276.77 153.424C277.151 153.035 277.533 151.927 277.643 151.556C277.753 151.185 276.946 151.564 276.198 151.7C276.652 150.64 277.226 149.947 277.226 149.947L278.549 149.343C278.549 149.343 279.314 148.082 279.838 147.612L278.532 147.659C279.559 146.119 280.638 145.339 282.358 144.687L283.256 145.697C275.761 153.413 277.903 166.572 270.388 174.257L270.388 174.256Z" fill="#D8E3FD"/>
<path d="M274.997 179.436L272.69 176.843C277.861 170.904 277.935 162.224 280.356 154.996C280.356 154.996 280.536 154.579 280.209 154.629C279.794 154.693 279.132 154.989 279.132 154.989C279.329 154.41 279.67 153.299 279.887 152.884C279.969 152.728 280.901 152.677 281.369 152.055C281.686 151.634 281.724 150.801 282.126 150.365L281.217 150.667C281.396 148.918 283.043 147.913 284.419 147.003L285.248 147.934C278.927 157.264 281.433 170.177 274.997 179.436L274.997 179.436Z" fill="#D8E3FD"/>
<path d="M284.315 153.406C283.624 150.911 285.011 149.939 285.991 148.771L287.556 150.53C286.713 151.715 285.599 152.716 284.315 153.406Z" fill="#D8E3FD"/>
<path d="M307.864 131.629L305.604 129.089C303.412 132.067 299.888 133.384 296.663 134.9C296.299 134.613 296.473 134.644 296.555 134.403C296.848 133.536 299.178 129.72 299.796 129.17L303.077 126.251L300.95 123.86L298.69 125.872C298.176 126.329 297.017 128.241 296.601 128.945C295.336 131.085 294.539 133.486 293.497 135.734L292.766 136.172L291.202 136.549C293.062 131.258 294.38 125.24 298.822 121.47L296.562 118.93C291.964 123.947 291.086 130.978 289.09 137.251L287.221 138.085C289.316 130.881 289.663 122.592 294.435 116.54L292.308 114.149C288.014 120.049 287.912 128.001 286.332 134.945C286.118 135.889 285.506 138.925 284.927 139.438C283.696 140.528 281.568 141.167 280.842 142.98L281.571 143.784C287.002 138.328 295.326 138.296 302.025 135.422C302.875 135.058 305.159 134.036 305.749 133.511L307.864 131.63L307.864 131.629Z" fill="#D8E3FD"/>
<path d="M312.469 136.809L310.241 134.304C305.878 138.28 299.65 138.607 294.103 139.966C293.698 139.585 295.143 138.362 294.431 138.28C294.327 138.267 292.58 138.822 292.475 138.898C291.933 139.285 291.904 140.01 291.458 140.353C291.04 140.676 289.919 140.906 289.545 140.965C289.171 141.025 289.621 140.285 289.829 139.57C288.747 139.877 288.012 140.349 288.012 140.349L287.29 141.564C287.29 141.564 285.98 142.15 285.469 142.601L285.644 141.33C284.036 142.135 283.166 143.09 282.358 144.688L283.256 145.697C291.547 139.365 304.207 143.165 312.47 136.809L312.469 136.809Z" fill="#D8E3FD"/>
<path d="M317.079 141.988L314.771 139.395C308.449 143.685 299.951 142.632 292.64 144.064C292.64 144.064 292.215 144.186 292.296 143.872C292.399 143.475 292.755 142.866 292.755 142.866C292.169 142.984 291.048 143.173 290.621 143.332C290.46 143.392 290.318 144.296 289.663 144.674C289.22 144.93 288.401 144.858 287.935 145.195L288.32 144.346C286.592 144.294 285.445 145.774 284.419 147.003L285.247 147.934C295.001 142.96 307.384 147.084 317.079 141.988L317.079 141.988Z" fill="#D8E3FD"/>
<path d="M291.436 147.068C288.868 146.244 287.491 147.732 285.99 148.771L287.556 150.53C289.042 149.641 290.39 148.451 291.436 147.068Z" fill="#D8E3FD"/>
<path d="M272.903 162.74L270.643 160.2C268.451 163.178 264.927 164.495 261.702 166.011C261.338 165.724 261.512 165.755 261.594 165.514C261.887 164.647 264.217 160.831 264.835 160.281L268.116 157.361L265.989 154.971L263.729 156.983C263.215 157.439 262.056 159.352 261.64 160.056C260.375 162.195 259.578 164.597 258.536 166.845L257.805 167.283L256.241 167.659C258.101 162.369 259.419 156.351 263.861 152.58L261.601 150.041C257.003 155.057 256.125 162.088 254.129 168.362L252.26 169.196C254.355 161.991 254.702 153.702 259.474 147.65L257.347 145.26C253.053 151.16 252.951 159.112 251.371 166.056C251.157 167 250.545 170.036 249.966 170.548C248.735 171.639 246.608 172.278 245.881 174.091L246.61 174.895C252.041 169.439 260.365 169.407 267.064 166.533C267.914 166.169 270.198 165.147 270.788 164.622L272.903 162.74L272.903 162.74Z" fill="#D8E3FD"/>
<path d="M277.508 167.919L275.28 165.415C270.917 169.39 264.689 169.717 259.142 171.076C258.737 170.695 260.182 169.472 259.47 169.39C259.366 169.378 257.619 169.933 257.514 170.008C256.972 170.395 256.943 171.12 256.497 171.464C256.079 171.786 254.958 172.016 254.584 172.076C254.21 172.135 254.66 171.395 254.868 170.68C253.786 170.987 253.051 171.46 253.051 171.46L252.329 172.675C252.329 172.675 251.02 173.26 250.508 173.712L250.683 172.44C249.075 173.245 248.205 174.2 247.397 175.798L248.295 176.807C256.586 170.475 269.246 174.275 277.509 167.919L277.508 167.919Z" fill="#D8E3FD"/>
<path d="M282.118 173.099L279.81 170.506C273.488 174.795 264.99 173.743 257.679 175.175C257.679 175.175 257.254 175.297 257.335 174.983C257.438 174.586 257.794 173.977 257.794 173.977C257.208 174.095 256.087 174.284 255.66 174.443C255.499 174.502 255.357 175.407 254.703 175.785C254.259 176.04 253.441 175.969 252.974 176.306L253.359 175.456C251.631 175.405 250.484 176.885 249.458 178.114L250.287 179.045C260.04 174.07 272.423 178.195 282.118 173.099L282.118 173.099Z" fill="#D8E3FD"/>
<path d="M337.426 105.615L335.166 103.075C338.379 101.244 340.096 97.8964 341.976 94.8702C341.733 94.4745 341.744 94.6516 341.495 94.7045C340.6 94.8952 336.539 96.7661 335.921 97.3159L332.64 100.236L330.513 97.8454L332.773 95.834C333.287 95.3771 335.321 94.448 336.069 94.1163C338.34 93.1088 340.819 92.5955 343.172 91.8219L343.693 91.1466L344.248 89.6374C338.777 90.8702 332.646 91.4807 328.386 95.4547L326.126 92.915C331.642 88.9304 338.728 88.8749 345.191 87.6211L346.236 85.8614C338.837 87.1055 330.564 86.4876 323.999 90.5247L321.871 88.1344C328.23 84.554 336.14 85.3765 343.221 84.6141C344.183 84.5105 347.27 84.2556 347.846 83.7399C349.072 82.6442 349.954 80.6053 351.839 80.094L352.552 80.9121C346.503 85.6718 345.504 93.9363 341.872 100.256C341.411 101.058 340.131 103.208 339.541 103.733L337.427 105.615L337.426 105.615Z" fill="#D8E3FD"/>
<path d="M341.388 111.37L339.159 108.866C343.752 104.872 344.914 98.6226 347.026 93.1665C346.696 92.7184 345.269 94.0516 345.281 93.3249C345.283 93.2182 346.076 91.513 346.166 91.4147C346.629 90.9071 347.364 90.953 347.77 90.538C348.151 90.1493 348.533 89.0416 348.643 88.6705C348.753 88.2994 347.946 88.6778 347.198 88.8139C347.652 87.754 348.226 87.0613 348.226 87.0613L349.549 86.4573C349.549 86.4573 350.314 85.1962 350.838 84.7266L349.532 84.7729C350.559 83.2333 351.638 82.4533 353.358 81.8016L354.256 82.811C346.761 90.5269 348.903 103.686 341.388 111.371L341.388 111.37Z" fill="#D8E3FD"/>
<path d="M345.997 116.55L343.69 113.957C348.861 108.018 348.935 99.338 351.356 92.1094C351.356 92.1094 351.536 91.6933 351.209 91.7431C350.794 91.8065 350.132 92.1026 350.132 92.1026C350.329 91.5241 350.67 90.4126 350.887 89.9976C350.969 89.8416 351.901 89.791 352.369 89.1692C352.686 88.7481 352.724 87.9151 353.126 87.4788L352.217 87.7807C352.396 86.0318 354.043 85.0266 355.419 84.1167L356.248 85.0482C349.927 94.378 352.433 107.291 345.997 116.55L345.997 116.55Z" fill="#D8E3FD"/>
<path d="M337.426 105.615L335.166 103.075C338.379 101.244 340.096 97.8964 341.976 94.8702C341.733 94.4745 341.744 94.6516 341.495 94.7045C340.6 94.8952 336.539 96.7661 335.921 97.3159L332.64 100.236L330.513 97.8454L332.773 95.834C333.287 95.3771 335.321 94.448 336.069 94.1163C338.34 93.1088 340.819 92.5955 343.172 91.8219L343.693 91.1466L344.248 89.6374C338.777 90.8702 332.646 91.4807 328.386 95.4547L326.126 92.915C331.642 88.9304 338.728 88.8749 345.191 87.6211L346.236 85.8614C338.837 87.1055 330.564 86.4876 323.999 90.5247L321.871 88.1344C328.23 84.554 336.14 85.3765 343.221 84.6141C344.183 84.5105 347.27 84.2556 347.846 83.7399C349.072 82.6442 349.954 80.6053 351.839 80.094L352.552 80.9121C346.503 85.6718 345.504 93.9363 341.872 100.256C341.411 101.058 340.131 103.208 339.541 103.733L337.427 105.615L337.426 105.615Z" fill="#D8E3FD"/>
<path d="M341.388 111.37L339.159 108.866C343.752 104.872 344.914 98.6226 347.026 93.1665C346.696 92.7184 345.269 94.0516 345.281 93.3249C345.283 93.2182 346.076 91.513 346.166 91.4147C346.629 90.9071 347.364 90.953 347.77 90.538C348.151 90.1493 348.533 89.0416 348.643 88.6705C348.753 88.2994 347.946 88.6778 347.198 88.8139C347.652 87.754 348.226 87.0613 348.226 87.0613L349.549 86.4573C349.549 86.4573 350.314 85.1962 350.838 84.7266L349.532 84.7729C350.559 83.2333 351.638 82.4533 353.358 81.8016L354.256 82.811C346.761 90.5269 348.903 103.686 341.388 111.371L341.388 111.37Z" fill="#D8E3FD"/>
<path d="M345.997 116.55L343.69 113.957C348.861 108.018 348.935 99.338 351.356 92.1094C351.356 92.1094 351.536 91.6933 351.209 91.7431C350.794 91.8065 350.132 92.1026 350.132 92.1026C350.329 91.5241 350.67 90.4126 350.887 89.9976C350.969 89.8416 351.901 89.791 352.369 89.1692C352.686 88.7481 352.724 87.9151 353.126 87.4788L352.217 87.7807C352.396 86.0318 354.043 85.0266 355.419 84.1167L356.248 85.0482C349.927 94.378 352.433 107.291 345.997 116.55L345.997 116.55Z" fill="#D8E3FD"/>
<path d="M302.465 136.725L300.205 134.186C303.502 132.28 305.301 128.859 307.262 125.762C307.02 125.365 307.028 125.544 306.774 125.602C305.861 125.809 301.7 127.769 301.063 128.335L297.679 131.347L295.552 128.956L297.883 126.882C298.413 126.411 300.496 125.437 301.263 125.089C303.59 124.033 306.119 123.474 308.525 122.653L309.065 121.96L309.654 120.422C304.069 121.756 297.821 122.471 293.425 126.566L291.165 124.026C296.84 119.901 304.049 119.734 310.644 118.363L311.736 116.563C304.188 117.939 295.78 117.441 289.038 121.636L286.911 119.245C293.435 115.517 301.471 116.228 308.687 115.345C309.667 115.225 312.812 114.919 313.406 114.387C314.67 113.257 315.599 111.176 317.525 110.629L318.239 111.447C312.009 116.366 310.865 124.76 307.072 131.224C306.591 132.044 305.255 134.244 304.646 134.785L302.466 136.726L302.465 136.725Z" fill="#D8E3FD"/>
<path d="M307.075 141.905L304.847 139.4C309.44 135.407 310.602 129.157 312.714 123.701C312.383 123.253 310.957 124.586 310.969 123.86C310.97 123.753 311.763 122.048 311.854 121.949C312.316 121.442 313.051 121.488 313.458 121.073C313.839 120.684 314.221 119.576 314.33 119.205C314.44 118.834 313.634 119.212 312.885 119.349C313.339 118.289 313.914 117.596 313.914 117.596L315.236 116.992C315.236 116.992 316.002 115.731 316.525 115.261L315.219 115.308C316.246 113.768 317.326 112.988 319.046 112.336L319.944 113.346C312.449 121.062 314.591 134.22 307.075 141.906L307.075 141.905Z" fill="#D8E3FD"/>
<path d="M311.685 147.084L309.378 144.491C314.549 138.553 314.623 129.873 317.044 122.644C317.044 122.644 317.223 122.228 316.896 122.278C316.482 122.341 315.82 122.637 315.82 122.637C316.017 122.059 316.357 120.947 316.575 120.532C316.656 120.376 317.588 120.326 318.056 119.704C318.373 119.283 318.411 118.45 318.813 118.013L317.905 118.315C318.084 116.567 319.73 115.561 321.106 114.651L321.935 115.583C315.614 124.913 318.12 137.826 311.685 147.085L311.685 147.084Z" fill="#D8E3FD"/>
<path d="M320.412 121.693C320.406 119.624 322.001 118.38 323.256 117.066L324.299 118.239C323.172 119.531 321.832 120.73 320.412 121.693Z" fill="#D8E3FD"/>
<path d="M344.547 99.2777L342.287 96.738C340.096 99.7162 336.571 101.033 333.347 102.549C332.982 102.262 333.157 102.293 333.238 102.052C333.532 101.185 335.862 97.3691 336.479 96.8194L339.761 93.8995L337.633 91.5092L335.373 93.5206C334.86 93.9776 333.701 95.8896 333.284 96.5944C332.02 98.7334 331.222 101.135 330.18 103.383L329.449 103.821L327.886 104.198C329.746 98.9074 331.064 92.8888 335.506 89.1185L333.246 86.5788C328.648 91.5954 327.77 98.6264 325.774 104.9L323.904 105.734C325.999 98.5295 326.347 90.2405 331.119 84.1885L328.992 81.7982C324.697 87.6976 324.595 95.6496 323.016 102.594C322.801 103.538 322.189 106.574 321.61 107.086C320.38 108.177 318.252 108.816 317.525 110.629L318.255 111.433C323.685 105.977 332.01 105.945 338.709 103.071C339.558 102.707 341.843 101.685 342.433 101.16L344.547 99.2785L344.547 99.2777Z" fill="#D8E3FD"/>
<path d="M349.157 104.457L346.928 101.953C342.566 105.928 336.337 106.256 330.791 107.614C330.385 107.233 331.831 106.011 331.119 105.928C331.014 105.916 329.268 106.471 329.162 106.546C328.62 106.933 328.592 107.658 328.146 108.002C327.728 108.324 326.606 108.554 326.232 108.614C325.858 108.673 326.309 107.933 326.516 107.218C325.434 107.525 324.7 107.998 324.7 107.998L323.978 109.213C323.978 109.213 322.668 109.798 322.157 110.25L322.332 108.978C320.724 109.783 319.854 110.738 319.045 112.336L319.944 113.345C328.235 107.013 340.894 110.813 349.157 104.457L349.157 104.457Z" fill="#D8E3FD"/>
<path d="M353.766 109.637L351.459 107.044C345.137 111.333 336.639 110.281 329.328 111.713C329.328 111.713 328.903 111.835 328.984 111.521C329.087 111.124 329.442 110.515 329.442 110.515C328.857 110.633 327.736 110.822 327.308 110.981C327.148 111.041 327.006 111.945 326.351 112.323C325.908 112.578 325.089 112.507 324.622 112.844L325.008 111.994C323.279 111.943 322.133 113.423 321.106 114.652L321.935 115.583C331.689 110.609 344.071 114.733 353.767 109.637L353.766 109.637Z" fill="#D8E3FD"/>
<path d="M327.533 115.356C325.65 114.958 324.481 116.174 323.255 117.067L324.299 118.239C325.501 117.459 326.624 116.466 327.533 115.356Z" fill="#D8E3FD"/>
</g>
<defs>
<clipPath id="clip0_998_2956">
<rect x="335" y="160" width="335" height="160" rx="17.8105" transform="rotate(-180 335 160)" fill="white"/>
</clipPath>
</defs>
</svg>
