<svg width="335" height="160" viewBox="0 0 335 160" fill="none" xmlns="http://www.w3.org/2000/svg">
<path d="M54.0137 154.921C61.9188 154.921 95.4661 157.883 114.602 160H17.8105C12.9631 160 8.56882 158.063 5.35742 154.921H54.0137ZM211.473 160C250.067 154.444 289.726 150.073 333.039 150.319C330.085 156.067 324.097 160 317.189 160H211.473ZM317.189 0C327.026 0 335 7.9741 335 17.8105V142.189C335 143.343 334.888 144.47 334.679 145.562C314.756 143.704 292.781 146.58 274.52 146.592C265.01 146.599 234.575 139.6 224.888 137.484C153.614 121.924 87.6776 99.8374 0.00585938 94V106.033C93.3126 111.105 164.257 133.525 242.394 148.528L218.404 150.857C148.79 138.222 83.2519 120.664 0.00585938 118.066V130.853C71.6274 130.34 132.936 143.952 193.262 154.165L175.825 157.018L165.523 157.613C137.583 153.903 110.623 149.149 81.5234 146.301C71.9372 145.362 45.6623 142.888 37.21 142.888H0.0146484C0.00571959 142.656 0 142.423 0 142.189V17.8105C0 7.9741 7.9741 0 17.8105 0H317.189ZM62.5811 70.8398C62.5437 71.2967 62.4035 71.6558 62.1611 71.917C61.9278 72.1783 61.6706 72.3096 61.3906 72.3096H60.6904V75.5996H62.3711L62.6504 73.3594H70.2109L70.4912 75.5996H72.1709V72.3096H70.9805V63.5596H63.1406L62.5811 70.8398ZM74.7627 70.8398C74.7253 71.2967 74.5851 71.6558 74.3428 71.917C74.1094 72.1783 73.8523 72.3096 73.5723 72.3096H72.8721V75.5996H74.5527L74.832 73.3594H82.3926L82.6729 75.5996H84.3525V72.3096H83.1621V63.5596H75.3223L74.7627 70.8398ZM54.9424 63.2793C54.1025 63.2793 53.3371 63.3913 52.6465 63.6152C51.9558 63.8392 51.3628 64.1707 50.8682 64.6094C50.3829 65.048 50.005 65.5895 49.7344 66.2334C49.4731 66.8773 49.3428 67.6192 49.3428 68.459C49.3428 69.299 49.473 70.0415 49.7344 70.6855C50.005 71.3295 50.3829 71.8709 50.8682 72.3096C51.3628 72.7482 51.9558 73.0797 52.6465 73.3037C53.3371 73.5277 54.1025 73.6396 54.9424 73.6396C55.7824 73.6396 56.5433 73.5277 57.2246 73.3037C57.9152 73.0798 58.503 72.7481 58.9883 72.3096C59.4829 71.8709 59.8661 71.3295 60.1367 70.6855C60.4074 70.0415 60.543 69.299 60.543 68.459C60.5429 67.6192 60.4073 66.8773 60.1367 66.2334C59.8661 65.5894 59.4829 65.048 58.9883 64.6094C58.503 64.1708 57.9152 63.8392 57.2246 63.6152C56.5433 63.3912 55.7824 63.2793 54.9424 63.2793ZM20.9258 73.3594H23.585L28.835 65.3789H28.9756V73.3594H31.0049V63.5596H28.3457L23.0957 71.5391H22.9551V63.5596H20.9258V73.3594ZM37.8652 73.3594H39.8945V64.6094H45.6348V73.3594H47.665V63.5596H37.8652V73.3594ZM85.8945 73.3594H94.4336V72.3096H87.9238V68.8789H93.0342V67.8291H87.9238V64.6094H94.4336V63.5596H85.8945V73.3594ZM95.834 73.3594H97.8633V70.4189H100.873C101.573 70.4189 102.199 70.3446 102.75 70.1953C103.31 70.0367 103.781 69.8126 104.163 69.5234C104.546 69.2248 104.841 68.8653 105.046 68.4453C105.251 68.016 105.354 67.5305 105.354 66.9893C105.354 66.4482 105.251 65.9677 105.046 65.5479C104.841 65.1185 104.546 64.7591 104.163 64.4697C103.781 64.1712 103.31 63.9472 102.75 63.7979C102.199 63.6392 101.573 63.5596 100.873 63.5596H95.834V73.3594ZM108.367 68.3896L105.356 73.3594H107.667L110.257 69.0195H112.217V73.3594H114.247V69.0195H116.207L118.797 73.3594H121.106L118.097 68.3896L120.896 63.5596H118.657L116.137 67.9697H114.247V63.5596H112.217V67.9697H110.327L107.807 63.5596H105.566L108.367 68.3896ZM122.221 73.3594H124.25V69.0195H126.7L129.92 73.3594H132.23L128.521 68.3896L132.021 63.5596H129.78L126.561 67.9697H124.25V63.5596H122.221V73.3594ZM132.509 73.3594H134.525L135.449 70.9795H140.77L141.693 73.3594H143.709L139.719 63.5596H136.499L132.509 73.3594ZM54.9424 64.2598C55.4184 64.2598 55.8618 64.3437 56.2725 64.5117C56.6924 64.6797 57.0563 64.936 57.3643 65.2812C57.6723 65.6266 57.9154 66.0657 58.0928 66.5977C58.2793 67.1202 58.373 67.7406 58.373 68.459C58.373 69.1775 58.2793 69.8031 58.0928 70.335C57.9154 70.8576 57.6723 71.2924 57.3643 71.6377C57.0563 71.9829 56.6923 72.2393 56.2725 72.4072C55.8618 72.5752 55.4184 72.6592 54.9424 72.6592C54.4665 72.6592 54.0186 72.5752 53.5986 72.4072C53.188 72.2393 52.8285 71.983 52.5205 71.6377C52.2125 71.2924 51.965 70.8576 51.7783 70.335C51.6011 69.8031 51.5127 69.1775 51.5127 68.459C51.5127 67.7406 51.6011 67.1202 51.7783 66.5977C51.965 66.0657 52.2125 65.6266 52.5205 65.2812C52.8285 64.936 53.188 64.6797 53.5986 64.5117C54.0186 64.3437 54.4665 64.2598 54.9424 64.2598ZM68.9512 72.3096H63.5605C63.7285 72.2163 63.8825 72.0946 64.0225 71.9453C64.1438 71.824 64.2558 71.67 64.3584 71.4834C64.461 71.2968 64.5223 71.0823 64.541 70.8398L65.0312 64.6094H68.9512V72.3096ZM81.1328 72.3096H75.7422C75.9101 72.2163 76.0641 72.0946 76.2041 71.9453C76.3254 71.824 76.4374 71.67 76.54 71.4834C76.6426 71.2968 76.7039 71.0823 76.7227 70.8398L77.2129 64.6094H81.1328V72.3096ZM140.279 69.9297H135.939L138.039 64.749H138.179L140.279 69.9297ZM100.873 64.6094C101.61 64.6094 102.18 64.8055 102.581 65.1973C102.992 65.5799 103.197 66.1773 103.197 66.9893C103.197 67.8013 102.992 68.4029 102.581 68.7949C102.18 69.1776 101.61 69.3691 100.873 69.3691H97.8633V64.6094H100.873ZM91.624 46.2793C90.7841 46.2793 90.0187 46.3913 89.3281 46.6152C88.6375 46.8392 88.0445 47.1707 87.5498 47.6094C87.0646 48.048 86.6866 48.5895 86.416 49.2334C86.1547 49.8773 86.0245 50.6192 86.0244 51.459C86.0244 52.299 86.1547 53.0415 86.416 53.6855C86.6867 54.3295 87.0646 54.8709 87.5498 55.3096C88.0445 55.7482 88.6375 56.0797 89.3281 56.3037C90.0187 56.5277 90.7841 56.6396 91.624 56.6396C92.464 56.6396 93.2249 56.5277 93.9062 56.3037C94.5968 56.0798 95.1846 55.7481 95.6699 55.3096C96.1646 54.8709 96.5477 54.3295 96.8184 53.6855C97.089 53.0415 97.2246 52.299 97.2246 51.459C97.2246 50.6192 97.089 49.8773 96.8184 49.2334C96.5477 48.5894 96.1646 48.048 95.6699 47.6094C95.1846 47.1708 94.5968 46.8392 93.9062 46.6152C93.2249 46.3912 92.464 46.2793 91.624 46.2793ZM32.8945 53.9795C32.8572 54.5391 32.731 54.9356 32.5166 55.1689C32.302 55.4022 32.0543 55.5195 31.7744 55.5195H31.3545V56.4297C31.429 56.4576 31.5177 56.4804 31.6201 56.499C31.8068 56.5457 32.022 56.5693 32.2646 56.5693C33.0389 56.5693 33.6454 56.3688 34.084 55.9678C34.532 55.5571 34.7891 54.8941 34.8545 53.9795L35.2744 47.6094H39.6846V56.3594H41.7139V46.5596H33.3838L32.8945 53.9795ZM20.9258 56.3594H22.9551V52.0195H25.4053L28.625 56.3594H30.9355L27.2256 51.3896L30.7256 46.5596H28.4854L25.2656 50.9697H22.9551V46.5596H20.9258V56.3594ZM43.6758 56.3594H46.335L51.585 48.3789H51.7256V56.3594H53.7549V46.5596H51.0957L45.8457 54.5391H45.7051V46.5596H43.6758V56.3594ZM55.7207 56.3594H64.2598V55.3096H57.75V51.8789H62.8604V50.8291H57.75V47.6094H64.2598V46.5596H55.7207V56.3594ZM65.6602 56.3594H67.6895V52.0898H73.4297V56.3594H75.46V46.5596H73.4297V51.0391H67.6895V46.5596H65.6602V56.3594ZM76.5771 47.6094H80.3574V56.3594H82.3877V47.6094H86.168V46.5596H76.5771V47.6094ZM98.9102 56.3594H104.09C105.592 56.3594 106.689 56.1171 107.38 55.6318C108.08 55.1372 108.43 54.4689 108.43 53.6289C108.43 52.9945 108.229 52.4764 107.828 52.0752C107.436 51.6645 106.889 51.389 106.189 51.249C106.749 51.0717 107.169 50.8013 107.449 50.4375C107.729 50.0735 107.87 49.6441 107.87 49.1494C107.87 48.7669 107.786 48.4168 107.618 48.0996C107.45 47.7823 107.193 47.5111 106.848 47.2871C106.502 47.0538 106.063 46.8772 105.531 46.7559C105.009 46.6253 104.388 46.5596 103.67 46.5596H98.9102V56.3594ZM91.624 47.2598C92.1 47.2598 92.5434 47.3437 92.9541 47.5117C93.374 47.6797 93.7379 47.936 94.0459 48.2812C94.3539 48.6266 94.5971 49.0657 94.7744 49.5977C94.961 50.1202 95.0547 50.7406 95.0547 51.459C95.0547 52.1775 94.961 52.8031 94.7744 53.335C94.5971 53.8576 94.3539 54.2924 94.0459 54.6377C93.738 54.9829 93.374 55.2393 92.9541 55.4072C92.5434 55.5752 92.1 55.6592 91.624 55.6592C91.1481 55.6592 90.7002 55.5752 90.2803 55.4072C89.8697 55.2393 89.5101 54.983 89.2021 54.6377C88.8941 54.2924 88.6466 53.8576 88.46 53.335C88.2827 52.8031 88.1943 52.1774 88.1943 51.459C88.1944 50.7406 88.2827 50.1202 88.46 49.5977C88.6466 49.0657 88.8941 48.6266 89.2021 48.2812C89.5101 47.936 89.8697 47.6797 90.2803 47.5117C90.7002 47.3437 91.1481 47.2598 91.624 47.2598ZM104.09 51.8789C104.79 51.8789 105.326 52.0243 105.699 52.3135C106.072 52.5934 106.26 53.0318 106.26 53.6289C106.26 54.1889 106.073 54.6096 105.699 54.8896C105.326 55.1694 104.789 55.3096 104.09 55.3096H100.939V51.8789H104.09ZM103.67 47.6094C104.342 47.6094 104.846 47.745 105.182 48.0156C105.527 48.277 105.699 48.6548 105.699 49.1494C105.699 50.2693 105.023 50.829 103.67 50.8291H100.939V47.6094H103.67ZM26.2451 29.2793C25.4052 29.2793 24.6398 29.3913 23.9492 29.6152C23.2586 29.8392 22.6656 30.1707 22.1709 30.6094C21.6857 31.048 21.3077 31.5895 21.0371 32.2334C20.7758 32.8773 20.6455 33.6192 20.6455 34.459C20.6455 35.299 20.7758 36.0415 21.0371 36.6855C21.3077 37.3295 21.6856 37.8709 22.1709 38.3096C22.6656 38.7482 23.2586 39.0797 23.9492 39.3037C24.6398 39.5277 25.4052 39.6396 26.2451 39.6396C27.0851 39.6396 27.846 39.5277 28.5273 39.3037C29.2179 39.0798 29.8057 38.7481 30.291 38.3096C30.7857 37.8709 31.1688 37.3295 31.4395 36.6855C31.7101 36.0415 31.8457 35.299 31.8457 34.459C31.8457 33.6192 31.7101 32.8773 31.4395 32.2334C31.1688 31.5894 30.7857 31.048 30.291 30.6094C29.8057 30.1708 29.2179 29.8392 28.5273 29.6152C27.846 29.3912 27.0851 29.2793 26.2451 29.2793ZM49.8428 29.2793C49.0028 29.2793 48.2375 29.3913 47.5469 29.6152C46.8562 29.8392 46.2632 30.1707 45.7686 30.6094C45.2833 31.048 44.9054 31.5895 44.6348 32.2334C44.3735 32.8773 44.2432 33.6192 44.2432 34.459C44.2432 35.299 44.3787 36.0415 44.6494 36.6855C44.9201 37.3294 45.3023 37.871 45.7969 38.3096C46.3008 38.7482 46.9027 39.0797 47.6025 39.3037C48.3119 39.5277 49.1061 39.6396 49.9834 39.6396C50.8325 39.6396 51.6348 39.4943 52.3906 39.2051C53.1466 38.9157 53.7912 38.524 54.3232 38.0293L53.623 37.1895C53.0911 37.684 52.5313 38.0436 51.9434 38.2676C51.3647 38.4822 50.7577 38.5898 50.123 38.5898C49.5817 38.5898 49.0823 38.5102 48.625 38.3516C48.1771 38.1836 47.7852 37.9316 47.4492 37.5957C47.1226 37.2597 46.8654 36.8346 46.6787 36.3213C46.5014 35.7987 46.4131 35.1776 46.4131 34.459C46.4131 33.7405 46.5014 33.1246 46.6787 32.6113C46.8654 32.0887 47.1173 31.6592 47.4346 31.3232C47.7519 30.9872 48.1307 30.7397 48.5693 30.5811C49.0079 30.4132 49.4796 30.3291 49.9834 30.3291C50.6178 30.3292 51.2243 30.4412 51.8027 30.665C52.3907 30.8797 52.9514 31.2348 53.4834 31.7295L54.1826 30.8896C53.6506 30.395 53.007 30.0022 52.251 29.7129C51.495 29.4236 50.692 29.2793 49.8428 29.2793ZM56.4238 36.9795C56.3865 37.5391 56.2603 37.9356 56.0459 38.1689C55.8313 38.4022 55.5836 38.5195 55.3037 38.5195H54.8838V39.4297C54.9583 39.4576 55.047 39.4804 55.1494 39.499C55.3361 39.5457 55.5513 39.5693 55.7939 39.5693C56.5682 39.5693 57.1747 39.3688 57.6133 38.9678C58.0613 38.5571 58.3184 37.8941 58.3838 36.9795L58.8037 30.6094H63.2139V39.3594H65.2432V29.5596H56.9131L56.4238 36.9795ZM33.5312 39.3594H38.7109C39.4295 39.3594 40.0593 39.2894 40.6006 39.1494C41.1419 39.0094 41.595 38.8092 41.959 38.5479C42.323 38.2865 42.5932 37.9777 42.7705 37.623C42.9571 37.2591 43.0508 36.8576 43.0508 36.4189C43.0507 35.9804 42.9571 35.584 42.7705 35.2295C42.5932 34.8655 42.323 34.5523 41.959 34.291C41.595 34.0297 41.1419 33.8294 40.6006 33.6895C40.0593 33.5495 39.4295 33.4795 38.7109 33.4795H35.5605V30.6094H41.9307V29.5596H33.5312V39.3594ZM70.2148 36.4893H71.335L69.7949 39.3594H71.9648L77.2148 29.5596H75.0449L71.9648 35.2998H71.8242L68.5342 29.5596H66.2246L70.2148 36.4893ZM80.5039 34.3896L77.4932 39.3594H79.8037L82.3936 35.0195H84.3535V39.3594H86.3838V35.0195H88.3438L90.9336 39.3594H93.2432L90.2334 34.3896L93.0332 29.5596H90.7939L88.2734 33.9697H86.3838V29.5596H84.3535V33.9697H82.4639L79.9434 29.5596H77.7031L80.5039 34.3896ZM94.3574 39.3594H97.0166L102.267 31.3789H102.407V39.3594H104.437V29.5596H101.777L96.5273 37.5391H96.3867V29.5596H94.3574V39.3594ZM106.402 39.3594H111.582C113.085 39.3594 114.181 39.1171 114.872 38.6318C115.572 38.1372 115.922 37.4689 115.922 36.6289C115.922 35.9945 115.721 35.4764 115.32 35.0752C114.928 34.6645 114.382 34.389 113.682 34.249C114.241 34.0717 114.661 33.8013 114.941 33.4375C115.221 33.0735 115.362 32.6441 115.362 32.1494C115.362 31.7669 115.278 31.4168 115.11 31.0996C114.942 30.7823 114.685 30.5111 114.34 30.2871C113.995 30.0538 113.555 29.8772 113.023 29.7559C112.501 29.6253 111.881 29.5596 111.162 29.5596H106.402V39.3594ZM116.485 39.3594H118.502L119.426 36.9795H124.746L125.67 39.3594H127.686L123.695 29.5596H120.476L116.485 39.3594ZM128.811 39.3594H130.84V35.0898H136.58V39.3594H138.61V29.5596H136.58V34.0391H130.84V29.5596H128.811V39.3594ZM140.568 39.3594H143.228L148.478 31.3789H148.618V39.3594H150.647V29.5596H147.988L142.738 37.5391H142.598V29.5596H140.568V39.3594ZM152.613 39.3594H161.152V38.3096H154.643V34.8789H159.753V33.8291H154.643V30.6094H161.152V29.5596H152.613V39.3594ZM26.2451 30.2598C26.7211 30.2598 27.1645 30.3437 27.5752 30.5117C27.9951 30.6797 28.359 30.936 28.667 31.2812C28.975 31.6266 29.2182 32.0657 29.3955 32.5977C29.5821 33.1202 29.6757 33.7406 29.6758 34.459C29.6758 35.1775 29.5821 35.8031 29.3955 36.335C29.2182 36.8576 28.975 37.2924 28.667 37.6377C28.3591 37.9829 27.9951 38.2393 27.5752 38.4072C27.1645 38.5752 26.7211 38.6592 26.2451 38.6592C25.7692 38.6592 25.3213 38.5752 24.9014 38.4072C24.4908 38.2393 24.1312 37.983 23.8232 37.6377C23.5152 37.2924 23.2677 36.8576 23.0811 36.335C22.9038 35.8031 22.8154 35.1774 22.8154 34.459C22.8155 33.7406 22.9038 33.1202 23.0811 32.5977C23.2677 32.0657 23.5152 31.6266 23.8232 31.2812C24.1312 30.936 24.4907 30.6797 24.9014 30.5117C25.3213 30.3437 25.7692 30.2598 26.2451 30.2598ZM38.7109 34.5293C39.3829 34.5293 39.9103 34.6972 40.293 35.0332C40.6849 35.3598 40.8808 35.8218 40.8809 36.4189C40.8809 37.0162 40.6849 37.4833 40.293 37.8193C39.9103 38.146 39.3829 38.3095 38.7109 38.3096H35.5605V34.5293H38.7109ZM111.582 34.8789C112.282 34.8789 112.818 35.0243 113.191 35.3135C113.565 35.5934 113.752 36.0318 113.752 36.6289C113.752 37.1889 113.565 37.6096 113.191 37.8896C112.818 38.1694 112.282 38.3096 111.582 38.3096H108.432V34.8789H111.582ZM124.256 35.9297H119.916L122.016 30.749H122.155L124.256 35.9297ZM111.162 30.6094C111.834 30.6094 112.338 30.745 112.674 31.0156C113.019 31.277 113.191 31.6548 113.191 32.1494C113.191 33.2693 112.515 33.829 111.162 33.8291H108.432V30.6094H111.162Z" fill="#3760E7"/>
</svg>
