<svg width="335" height="160" viewBox="0 0 335 160" fill="none" xmlns="http://www.w3.org/2000/svg">
<g clip-path="url(#clip0_998_2754)">
<rect x="-0.356209" y="0.356209" width="334.288" height="159.288" rx="17.4542" transform="matrix(-1 0 0 1 334.288 0)" fill="white" stroke="#3760E7" stroke-width="0.712418"/>
<path d="M32.78 79.2V89H30.75V80.25H25.01V89H22.98V79.2H32.78ZM39.7778 79.2C40.4778 79.2 41.1031 79.2793 41.6538 79.438C42.2138 79.5873 42.6851 79.8113 43.0678 80.11C43.4505 80.3993 43.7445 80.7587 43.9498 81.188C44.1551 81.608 44.2578 82.0887 44.2578 82.63C44.2578 83.1713 44.1551 83.6567 43.9498 84.086C43.7445 84.506 43.4505 84.8653 43.0678 85.164C42.6851 85.4533 42.2138 85.6773 41.6538 85.836C41.1031 85.9853 40.4778 86.06 39.7778 86.06H36.7678V89H34.7378V79.2H39.7778ZM36.7678 80.25V85.01H39.7778C40.5151 85.01 41.0845 84.8187 41.4858 84.436C41.8965 84.044 42.1018 83.442 42.1018 82.63C42.1018 81.818 41.8965 81.2207 41.4858 80.838C41.0845 80.446 40.5151 80.25 39.7778 80.25H36.7678ZM51.1184 79.9C50.6424 79.9 50.1944 79.984 49.7744 80.152C49.3637 80.32 49.0044 80.5767 48.6964 80.922C48.3884 81.2673 48.141 81.706 47.9544 82.238C47.777 82.7607 47.6884 83.3813 47.6884 84.1C47.6884 84.8187 47.777 85.444 47.9544 85.976C48.141 86.4987 48.3884 86.9327 48.6964 87.278C49.0044 87.6233 49.3637 87.88 49.7744 88.048C50.1944 88.216 50.6424 88.3 51.1184 88.3C51.5944 88.3 52.0377 88.216 52.4484 88.048C52.8684 87.88 53.2324 87.6233 53.5404 87.278C53.8484 86.9327 54.091 86.4987 54.2684 85.976C54.455 85.444 54.5484 84.8187 54.5484 84.1C54.5484 83.3813 54.455 82.7607 54.2684 82.238C54.091 81.706 53.8484 81.2673 53.5404 80.922C53.2324 80.5767 52.8684 80.32 52.4484 80.152C52.0377 79.984 51.5944 79.9 51.1184 79.9ZM51.1184 78.92C51.9584 78.92 52.719 79.032 53.4004 79.256C54.091 79.48 54.679 79.8113 55.1644 80.25C55.659 80.6887 56.0417 81.23 56.3124 81.874C56.583 82.518 56.7184 83.26 56.7184 84.1C56.7184 84.94 56.583 85.682 56.3124 86.326C56.0417 86.97 55.659 87.5113 55.1644 87.95C54.679 88.3887 54.091 88.72 53.4004 88.944C52.719 89.168 51.9584 89.28 51.1184 89.28C50.2784 89.28 49.513 89.168 48.8224 88.944C48.1317 88.72 47.539 88.3887 47.0444 87.95C46.559 87.5113 46.181 86.97 45.9104 86.326C45.649 85.682 45.5184 84.94 45.5184 84.1C45.5184 83.26 45.649 82.518 45.9104 81.874C46.181 81.23 46.559 80.6887 47.0444 80.25C47.539 79.8113 48.1317 79.48 48.8224 79.256C49.513 79.032 50.2784 78.92 51.1184 78.92ZM66.4538 89V81.02H66.3138L61.0638 89H58.4038V79.2H60.4338V87.18H60.5738L65.8238 79.2H68.4838V89H66.4538ZM74.3688 79.97C73.6968 79.97 73.0668 80.068 72.4788 80.264C71.9001 80.4507 71.3448 80.7727 70.8128 81.23L70.1828 80.39C70.7148 79.9327 71.3494 79.5733 72.0868 79.312C72.8241 79.0507 73.6314 78.92 74.5088 78.92C75.2274 78.92 75.8574 78.9853 76.3988 79.116C76.9401 79.2467 77.3928 79.4287 77.7568 79.662C78.1208 79.8953 78.3914 80.1707 78.5688 80.488C78.7554 80.8053 78.8488 81.146 78.8488 81.51C78.8488 82.1073 78.7041 82.602 78.4148 82.994C78.1254 83.3767 77.6634 83.6753 77.0288 83.89C77.7288 84.0673 78.2748 84.366 78.6668 84.786C79.0681 85.1967 79.2688 85.738 79.2688 86.41C79.2688 86.8113 79.1708 87.1893 78.9748 87.544C78.7881 87.8893 78.4894 88.1927 78.0788 88.454C77.6774 88.706 77.1594 88.9067 76.5248 89.056C75.8901 89.2053 75.1248 89.28 74.2288 89.28C73.3141 89.28 72.4694 89.1353 71.6948 88.846C70.9294 88.5567 70.2808 88.1647 69.7488 87.67L70.4488 86.83C70.9808 87.3247 71.5454 87.684 72.1428 87.908C72.7401 88.1227 73.3888 88.23 74.0888 88.23C74.6301 88.23 75.0921 88.1833 75.4748 88.09C75.8574 87.9873 76.1654 87.8473 76.3988 87.67C76.6414 87.4927 76.8188 87.2873 76.9308 87.054C77.0428 86.8113 77.0988 86.55 77.0988 86.27C77.0988 85.71 76.9214 85.2807 76.5668 84.982C76.2121 84.674 75.6661 84.52 74.9288 84.52H71.9888V83.47H74.6488C76.0021 83.47 76.6788 82.8633 76.6788 81.65C76.6788 81.1553 76.4781 80.754 76.0768 80.446C75.6754 80.1287 75.1061 79.97 74.3688 79.97ZM80.8804 79.2H85.6404C86.3591 79.2 86.9797 79.2653 87.5024 79.396C88.0344 79.5173 88.4731 79.6947 88.8184 79.928C89.1637 80.152 89.4204 80.4227 89.5884 80.74C89.7564 81.0573 89.8404 81.4073 89.8404 81.79C89.8404 82.2847 89.7004 82.714 89.4204 83.078C89.1404 83.442 88.7204 83.7127 88.1604 83.89C88.8604 84.03 89.4064 84.3053 89.7984 84.716C90.1997 85.1173 90.4004 85.6353 90.4004 86.27C90.4004 87.11 90.0504 87.7773 89.3504 88.272C88.6597 88.7573 87.5631 89 86.0604 89H80.8804V79.2ZM82.9104 84.52V87.95H86.0604C86.7604 87.95 87.2971 87.81 87.6704 87.53C88.0437 87.25 88.2304 86.83 88.2304 86.27C88.2304 85.6727 88.0437 85.234 87.6704 84.954C87.2971 84.6647 86.7604 84.52 86.0604 84.52H82.9104ZM85.6404 83.47C86.9937 83.47 87.6704 82.91 87.6704 81.79C87.6704 81.2953 87.4977 80.9173 87.1524 80.656C86.8164 80.3853 86.3124 80.25 85.6404 80.25H82.9104V83.47H85.6404ZM97.3977 79.9C96.9217 79.9 96.4737 79.984 96.0537 80.152C95.643 80.32 95.2837 80.5767 94.9757 80.922C94.6677 81.2673 94.4203 81.706 94.2337 82.238C94.0563 82.7607 93.9677 83.3813 93.9677 84.1C93.9677 84.8187 94.0563 85.444 94.2337 85.976C94.4203 86.4987 94.6677 86.9327 94.9757 87.278C95.2837 87.6233 95.643 87.88 96.0537 88.048C96.4737 88.216 96.9217 88.3 97.3977 88.3C97.8737 88.3 98.317 88.216 98.7277 88.048C99.1477 87.88 99.5117 87.6233 99.8197 87.278C100.128 86.9327 100.37 86.4987 100.548 85.976C100.734 85.444 100.828 84.8187 100.828 84.1C100.828 83.3813 100.734 82.7607 100.548 82.238C100.37 81.706 100.128 81.2673 99.8197 80.922C99.5117 80.5767 99.1477 80.32 98.7277 80.152C98.317 79.984 97.8737 79.9 97.3977 79.9ZM97.3977 78.92C98.2377 78.92 98.9983 79.032 99.6797 79.256C100.37 79.48 100.958 79.8113 101.444 80.25C101.938 80.6887 102.321 81.23 102.592 81.874C102.862 82.518 102.998 83.26 102.998 84.1C102.998 84.94 102.862 85.682 102.592 86.326C102.321 86.97 101.938 87.5113 101.444 87.95C100.958 88.3887 100.37 88.72 99.6797 88.944C98.9983 89.168 98.2377 89.28 97.3977 89.28C96.5577 89.28 95.7923 89.168 95.1017 88.944C94.411 88.72 93.8183 88.3887 93.3237 87.95C92.8383 87.5113 92.4603 86.97 92.1897 86.326C91.9283 85.682 91.7977 84.94 91.7977 84.1C91.7977 83.26 91.9283 82.518 92.1897 81.874C92.4603 81.23 92.8383 80.6887 93.3237 80.25C93.8183 79.8113 94.411 79.48 95.1017 79.256C95.7923 79.032 96.5577 78.92 97.3977 78.92ZM103.846 87.95C104.126 87.95 104.383 87.8193 104.616 87.558C104.859 87.2967 104.999 86.9373 105.036 86.48L105.596 79.2H113.436V87.95H114.626V91.24H112.946L112.666 89H105.106L104.826 91.24H103.146V87.95H103.846ZM106.996 86.48C106.977 86.7227 106.917 86.9373 106.814 87.124C106.711 87.3107 106.599 87.4647 106.478 87.586C106.338 87.7353 106.184 87.8567 106.016 87.95H111.406V80.25H107.486L106.996 86.48ZM121.494 88.23C122.129 88.23 122.735 88.1227 123.314 87.908C123.902 87.684 124.462 87.3247 124.994 86.83L125.694 87.67C125.162 88.1647 124.518 88.5567 123.762 88.846C123.006 89.1353 122.203 89.28 121.354 89.28C120.477 89.28 119.683 89.168 118.974 88.944C118.274 88.72 117.672 88.3887 117.168 87.95C116.673 87.5113 116.291 86.97 116.02 86.326C115.749 85.682 115.614 84.94 115.614 84.1C115.614 83.26 115.745 82.518 116.006 81.874C116.277 81.23 116.655 80.6887 117.14 80.25C117.635 79.8113 118.227 79.48 118.918 79.256C119.609 79.032 120.374 78.92 121.214 78.92C122.063 78.92 122.866 79.0647 123.622 79.354C124.378 79.6433 125.022 80.0353 125.554 80.53L124.854 81.37C124.322 80.8753 123.762 80.5207 123.174 80.306C122.595 80.082 121.989 79.97 121.354 79.97C120.85 79.97 120.379 80.054 119.94 80.222C119.501 80.3807 119.123 80.628 118.806 80.964C118.489 81.3 118.237 81.7293 118.05 82.252C117.873 82.7653 117.784 83.3813 117.784 84.1C117.784 84.8187 117.873 85.4393 118.05 85.962C118.237 86.4753 118.493 86.9 118.82 87.236C119.156 87.572 119.548 87.824 119.996 87.992C120.453 88.1507 120.953 88.23 121.494 88.23ZM135.705 80.25H131.925V89H129.895V80.25H126.115V79.2H135.705V80.25ZM136.826 79.2H141.586C142.304 79.2 142.925 79.2653 143.448 79.396C143.98 79.5173 144.418 79.6947 144.764 79.928C145.109 80.152 145.366 80.4227 145.534 80.74C145.702 81.0573 145.786 81.4073 145.786 81.79C145.786 82.2847 145.646 82.714 145.366 83.078C145.086 83.442 144.666 83.7127 144.106 83.89C144.806 84.03 145.352 84.3053 145.744 84.716C146.145 85.1173 146.346 85.6353 146.346 86.27C146.346 87.11 145.996 87.7773 145.296 88.272C144.605 88.7573 143.508 89 142.006 89H136.826V79.2ZM138.856 84.52V87.95H142.006C142.706 87.95 143.242 87.81 143.616 87.53C143.989 87.25 144.176 86.83 144.176 86.27C144.176 85.6727 143.989 85.234 143.616 84.954C143.242 84.6647 142.706 84.52 142.006 84.52H138.856ZM141.586 83.47C142.939 83.47 143.616 82.91 143.616 81.79C143.616 81.2953 143.443 80.9173 143.098 80.656C142.762 80.3853 142.258 80.25 141.586 80.25H138.856V83.47H141.586ZM150.053 80.25V83.47H155.163V84.52H150.053V87.95H156.563V89H148.023V79.2H156.563V80.25H150.053ZM167.762 79.2V89H165.732V84.73H159.992V89H157.962V79.2H159.992V83.68H165.732V79.2H167.762ZM179.52 79.2V89H177.49V84.73H171.75V89H169.72V79.2H171.75V83.68H177.49V79.2H179.52ZM194.148 89H192.118V79.2H194.148V89ZM186.378 82.84C187.815 82.84 188.898 83.12 189.626 83.68C190.354 84.2307 190.718 84.9773 190.718 85.92C190.718 86.8627 190.354 87.614 189.626 88.174C188.898 88.7247 187.815 89 186.378 89H181.478V79.2H183.508V82.84H186.378ZM183.508 83.89V87.95H186.378C187.05 87.95 187.577 87.782 187.96 87.446C188.352 87.1007 188.548 86.592 188.548 85.92C188.548 85.248 188.352 84.744 187.96 84.408C187.577 84.0627 187.05 83.89 186.378 83.89H183.508ZM198.137 80.25V83.47H203.247V84.52H198.137V87.95H204.647V89H196.107V79.2H204.647V80.25H198.137ZM29.28 101.03L32.99 106H30.68L27.46 101.66H25.01V106H22.98V96.2H25.01V100.61H27.32L30.54 96.2H32.78L29.28 101.03ZM38.7316 96.9C38.2556 96.9 37.8076 96.984 37.3876 97.152C36.977 97.32 36.6176 97.5767 36.3096 97.922C36.0016 98.2673 35.7543 98.706 35.5676 99.238C35.3903 99.7607 35.3016 100.381 35.3016 101.1C35.3016 101.819 35.3903 102.444 35.5676 102.976C35.7543 103.499 36.0016 103.933 36.3096 104.278C36.6176 104.623 36.977 104.88 37.3876 105.048C37.8076 105.216 38.2556 105.3 38.7316 105.3C39.2076 105.3 39.651 105.216 40.0616 105.048C40.4816 104.88 40.8456 104.623 41.1536 104.278C41.4616 103.933 41.7043 103.499 41.8816 102.976C42.0683 102.444 42.1616 101.819 42.1616 101.1C42.1616 100.381 42.0683 99.7607 41.8816 99.238C41.7043 98.706 41.4616 98.2673 41.1536 97.922C40.8456 97.5767 40.4816 97.32 40.0616 97.152C39.651 96.984 39.2076 96.9 38.7316 96.9ZM38.7316 95.92C39.5716 95.92 40.3323 96.032 41.0136 96.256C41.7043 96.48 42.2923 96.8113 42.7776 97.25C43.2723 97.6887 43.655 98.23 43.9256 98.874C44.1963 99.518 44.3316 100.26 44.3316 101.1C44.3316 101.94 44.1963 102.682 43.9256 103.326C43.655 103.97 43.2723 104.511 42.7776 104.95C42.2923 105.389 41.7043 105.72 41.0136 105.944C40.3323 106.168 39.5716 106.28 38.7316 106.28C37.8916 106.28 37.1263 106.168 36.4356 105.944C35.745 105.72 35.1523 105.389 34.6576 104.95C34.1723 104.511 33.7943 103.97 33.5236 103.326C33.2623 102.682 33.1316 101.94 33.1316 101.1C33.1316 100.26 33.2623 99.518 33.5236 98.874C33.7943 98.23 34.1723 97.6887 34.6576 97.25C35.1523 96.8113 35.745 96.48 36.4356 96.256C37.1263 96.032 37.8916 95.92 38.7316 95.92ZM52.6671 104.6H52.8071L56.4471 96.2H59.4571V106H57.4271V98.16H57.2871L53.9271 106H51.5471L48.1871 98.16H48.0471V106H46.0171V96.2H49.0271L52.6671 104.6ZM71.2116 96.2V106H69.1816V97.25H63.4416V106H61.4116V96.2H71.2116ZM75.7595 102.57H80.0995L77.9995 97.39H77.8595L75.7595 102.57ZM79.5395 96.2L83.5295 106H81.5135L80.5895 103.62H75.2695L74.3455 106H72.3295L76.3195 96.2H79.5395ZM94.4538 96.2V106H92.4238V101.73H86.6838V106H84.6538V96.2H86.6838V100.68H92.4238V96.2H94.4538ZM104.462 106V98.02H104.322L99.0716 106H96.4116V96.2H98.4416V104.18H98.5816L103.832 96.2H106.492V106H104.462ZM116.507 106V98.02H116.367L111.117 106H108.457V96.2H110.487V104.18H110.627L115.877 96.2H118.537V106H116.507Z" fill="#3760E7"/>
<path d="M406.752 119.691L422.93 130.71C387.953 134.672 364.037 145.336 339.26 154.706C340.732 156.334 341.018 155.686 343.536 155.7C352.573 155.748 395.811 152.338 402.973 150.863L441.01 143.028L456.237 153.4L430.034 158.796C424.081 160.023 402.445 161.702 394.505 162.283C370.406 164.049 345.404 163.863 321.03 164.719L314.529 166.727L305.857 171.714C361.268 171.765 421.672 174.604 471.466 163.772L487.644 174.792C425.727 184.629 357.352 179.003 292.335 178.212L278.386 183.7C352.402 185.296 430.737 194.327 502.871 185.163L518.097 195.534C448.964 203.221 374.578 193.751 304.691 190.679C295.191 190.261 264.898 188.642 258.21 190.029C243.989 192.973 231.003 199.603 211.718 199.897L206.645 196.359C275.404 184.165 303.219 155.174 352.126 135.364C358.327 132.851 375.397 126.147 382.233 124.739L406.745 119.69L406.752 119.691Z" fill="#3760E7"/>
<path d="M375.302 97.8313L390.622 108.266C339.196 118.575 314.821 139.39 283.327 156.71C285.432 158.524 301.604 154.999 299.918 157.516C299.67 157.885 288.589 163.195 287.535 163.466C282.124 164.87 275.381 164.14 270.696 165.266C266.306 166.321 260.349 169.874 258.521 171.078C256.692 172.282 265.025 171.594 272.29 171.703C265.763 175.033 258.909 176.994 258.909 176.994L245.289 178.065C245.289 178.065 235.424 181.853 229.529 183.078L241.794 183.932C228.891 188.484 217.149 190.356 199.721 191.284L193.547 187.079C280.067 166.089 288.661 118.695 375.304 97.8287L375.302 97.8313Z" fill="#3760E7"/>
<path d="M341.161 75.0009L357.458 86.1011C296.553 102.806 277.851 133.463 240.108 157.026C240.108 157.026 237.559 158.35 240.734 158.446C244.759 158.567 251.592 158.071 251.592 158.071C248.539 159.954 243.035 163.604 240.131 164.891C239.04 165.375 230.183 164.777 224.495 166.588C220.64 167.813 218.559 170.73 213.876 171.939L223.039 171.628C217.726 177.668 200.174 179.852 185.358 181.925L179.503 177.937C258.246 150.19 261.494 102.4 341.165 75L341.161 75.0009Z" fill="#3760E7"/>
<path d="M206.647 159.798C202.832 166.742 186.404 169.605 172.852 172.984L165.816 168.192C178.197 164.781 192.286 161.86 206.647 159.798Z" fill="#3760E7"/>
<path d="M-25.7911 56.8003C138.386 52.5077 188.132 52.4047 217.651 64.1979C280.33 89.2383 160.966 133.766 47.7406 123.035C-42.84 114.449 -48.5723 93.2763 -10.8304 77.2981" stroke="#3760E7" stroke-width="4.27451"/>
</g>
<defs>
<clipPath id="clip0_998_2754">
<rect width="335" height="160" rx="17.8105" fill="white"/>
</clipPath>
</defs>
</svg>
