<svg width="20" height="14" viewBox="0 0 20 14" fill="none" xmlns="http://www.w3.org/2000/svg">
<path d="M18.4766 0.318359H1.52344C0.8556 0.318359 0.3125 0.861459 0.3125 1.5293C0.3125 2.19713 0.8556 2.74023 1.52344 2.74023H18.4766C19.1441 2.74023 19.6875 2.19713 19.6875 1.5293C19.6875 0.861459 19.1441 0.318359 18.4766 0.318359ZM18.4766 5.78917H1.52344C0.8556 5.78917 0.3125 6.33227 0.3125 7.00011C0.3125 7.66795 0.8556 8.21105 1.52344 8.21105H18.4766C19.1441 8.21105 19.6875 7.66795 19.6875 7.00011C19.6875 6.33227 19.1441 5.78917 18.4766 5.78917ZM18.4766 11.26H1.52344C0.8556 11.26 0.3125 11.803 0.3125 12.4709C0.3125 13.1388 0.8556 13.6819 1.52344 13.6819H18.4766C19.1441 13.6819 19.6875 13.1388 19.6875 12.4709C19.6875 11.803 19.1441 11.26 18.4766 11.26Z" fill="black"/>
</svg>
