<svg width="192" height="179" viewBox="0 0 192 179" fill="none" xmlns="http://www.w3.org/2000/svg">
<g clip-path="url(#clip0_721_264)">
<rect width="192" height="213" rx="25" fill="white"/>
<rect x="26" y="65" width="133" height="100" rx="15" fill="#3760E7"/>
<circle cx="94" cy="117" r="34" fill="#F2F2F2"/>
<path d="M58.27 48.18C57.46 48.18 56.705 48.05 56.005 47.79C55.315 47.52 54.715 47.14 54.205 46.65C53.695 46.16 53.295 45.585 53.005 44.925C52.725 44.265 52.585 43.54 52.585 42.75C52.585 41.96 52.725 41.235 53.005 40.575C53.295 39.915 53.695 39.34 54.205 38.85C54.725 38.36 55.33 37.985 56.02 37.725C56.71 37.455 57.465 37.32 58.285 37.32C59.195 37.32 60.015 37.48 60.745 37.8C61.485 38.11 62.105 38.57 62.605 39.18L61.045 40.62C60.685 40.21 60.285 39.905 59.845 39.705C59.405 39.495 58.925 39.39 58.405 39.39C57.915 39.39 57.465 39.47 57.055 39.63C56.645 39.79 56.29 40.02 55.99 40.32C55.69 40.62 55.455 40.975 55.285 41.385C55.125 41.795 55.045 42.25 55.045 42.75C55.045 43.25 55.125 43.705 55.285 44.115C55.455 44.525 55.69 44.88 55.99 45.18C56.29 45.48 56.645 45.71 57.055 45.87C57.465 46.03 57.915 46.11 58.405 46.11C58.925 46.11 59.405 46.01 59.845 45.81C60.285 45.6 60.685 45.285 61.045 44.865L62.605 46.305C62.105 46.915 61.485 47.38 60.745 47.7C60.015 48.02 59.19 48.18 58.27 48.18ZM64.0088 48V39.93H66.3338V44.73L70.2638 39.93H72.4088V48H70.0838V43.2L66.1688 48H64.0088ZM78.4982 48.12C77.6282 48.12 76.8532 47.945 76.1732 47.595C75.4932 47.235 74.9582 46.74 74.5682 46.11C74.1882 45.48 73.9982 44.765 73.9982 43.965C73.9982 43.155 74.1882 42.44 74.5682 41.82C74.9582 41.19 75.4932 40.7 76.1732 40.35C76.8532 39.99 77.6282 39.81 78.4982 39.81C79.3482 39.81 80.0882 39.99 80.7182 40.35C81.3482 40.7 81.8132 41.205 82.1132 41.865L80.2982 42.84C80.0882 42.46 79.8232 42.18 79.5032 42C79.1932 41.82 78.8532 41.73 78.4832 41.73C78.0832 41.73 77.7232 41.82 77.4032 42C77.0832 42.18 76.8282 42.435 76.6382 42.765C76.4582 43.095 76.3682 43.495 76.3682 43.965C76.3682 44.435 76.4582 44.835 76.6382 45.165C76.8282 45.495 77.0832 45.75 77.4032 45.93C77.7232 46.11 78.0832 46.2 78.4832 46.2C78.8532 46.2 79.1932 46.115 79.5032 45.945C79.8232 45.765 80.0882 45.48 80.2982 45.09L82.1132 46.08C81.8132 46.73 81.3482 47.235 80.7182 47.595C80.0882 47.945 79.3482 48.12 78.4982 48.12ZM85.2455 48V41.31L85.7705 41.85H82.5155V39.93H90.3005V41.85H87.0455L87.5705 41.31V48H85.2455ZM95.1559 48.12C94.2359 48.12 93.4259 47.94 92.7259 47.58C92.0359 47.22 91.5009 46.73 91.1209 46.11C90.7409 45.48 90.5509 44.765 90.5509 43.965C90.5509 43.155 90.7359 42.44 91.1059 41.82C91.4859 41.19 92.0009 40.7 92.6509 40.35C93.3009 39.99 94.0359 39.81 94.8559 39.81C95.6459 39.81 96.3559 39.98 96.9859 40.32C97.6259 40.65 98.1309 41.13 98.5009 41.76C98.8709 42.38 99.0559 43.125 99.0559 43.995C99.0559 44.085 99.0509 44.19 99.0409 44.31C99.0309 44.42 99.0209 44.525 99.0109 44.625H92.4559V43.26H97.7809L96.8809 43.665C96.8809 43.245 96.7959 42.88 96.6259 42.57C96.4559 42.26 96.2209 42.02 95.9209 41.85C95.6209 41.67 95.2709 41.58 94.8709 41.58C94.4709 41.58 94.1159 41.67 93.8059 41.85C93.5059 42.02 93.2709 42.265 93.1009 42.585C92.9309 42.895 92.8459 43.265 92.8459 43.695V44.055C92.8459 44.495 92.9409 44.885 93.1309 45.225C93.3309 45.555 93.6059 45.81 93.9559 45.99C94.3159 46.16 94.7359 46.245 95.2159 46.245C95.6459 46.245 96.0209 46.18 96.3409 46.05C96.6709 45.92 96.9709 45.725 97.2409 45.465L98.4859 46.815C98.1159 47.235 97.6509 47.56 97.0909 47.79C96.5309 48.01 95.8859 48.12 95.1559 48.12ZM100.85 48V39.93H103.295L106.34 45.45H105.365L108.62 39.93H110.81L110.84 48H108.725V42.33L109.085 42.57L106.31 47.22H105.32L102.53 42.405L102.965 42.3V48H100.85ZM113.081 48V39.93H115.406V43.08H118.916V39.93H121.256V48H118.916V44.985H115.406V48H113.081ZM127.276 48.12C126.416 48.12 125.651 47.94 124.981 47.58C124.321 47.22 123.796 46.73 123.406 46.11C123.026 45.48 122.836 44.765 122.836 43.965C122.836 43.155 123.026 42.44 123.406 41.82C123.796 41.19 124.321 40.7 124.981 40.35C125.651 39.99 126.416 39.81 127.276 39.81C128.126 39.81 128.886 39.99 129.556 40.35C130.226 40.7 130.751 41.185 131.131 41.805C131.511 42.425 131.701 43.145 131.701 43.965C131.701 44.765 131.511 45.48 131.131 46.11C130.751 46.73 130.226 47.22 129.556 47.58C128.886 47.94 128.126 48.12 127.276 48.12ZM127.276 46.2C127.666 46.2 128.016 46.11 128.326 45.93C128.636 45.75 128.881 45.495 129.061 45.165C129.241 44.825 129.331 44.425 129.331 43.965C129.331 43.495 129.241 43.095 129.061 42.765C128.881 42.435 128.636 42.18 128.326 42C128.016 41.82 127.666 41.73 127.276 41.73C126.886 41.73 126.536 41.82 126.226 42C125.916 42.18 125.666 42.435 125.476 42.765C125.296 43.095 125.206 43.495 125.206 43.965C125.206 44.425 125.296 44.825 125.476 45.165C125.666 45.495 125.916 45.75 126.226 45.93C126.536 46.11 126.886 46.2 127.276 46.2Z" fill="#3760E7"/>
<path d="M56 96.0013V104.864C66.0421 102.862 75.784 106.405 85.2699 109.04C85.4958 110.232 85.1913 109.869 84.5766 110.198C82.3691 111.377 70.4927 114.771 68.1966 114.771H56.0014V123.112H64.4023C66.3109 123.112 72.2441 121.397 74.4086 120.746C80.9795 118.772 87.0671 115.476 93.3763 112.905L95.7024 113.318L99.6397 115.295C86.0177 122.374 72.174 131.81 56.0014 131.455V140.317C74.7989 138.517 89.5976 126.346 105.317 117.587L110.734 119.202C93.0903 129.602 77.0707 145.143 56.0014 148.659V157C75.7983 152.954 90.687 137.644 106.781 126.858C108.968 125.391 115.841 120.539 117.988 120.544C122.553 120.553 128.146 122.996 133 120.725L132.97 117.895C111.636 119.11 94.3113 104.745 75.112 98.7323C72.6773 97.969 66.0521 96 63.8604 96H56.0014L56 96.0013Z" fill="#3760E7"/>
</g>
<defs>
<clipPath id="clip0_721_264">
<rect width="192" height="213" rx="25" fill="white"/>
</clipPath>
</defs>
</svg>
