<svg width="205" height="296" viewBox="0 0 205 296" fill="none" xmlns="http://www.w3.org/2000/svg">
<rect width="205" height="296" rx="25" fill="white"/>
<g clip-path="url(#clip0_721_319)">
<path d="M175 8C188.807 8 200 19.1929 200 33V229C200 242.807 188.807 254 175 254H33C19.1929 254 8 242.807 8 229V33C8 19.1929 19.1929 8 33 8H53.0088C53.2731 16.8814 60.5546 24 69.5 24H138.5C147.445 24 154.727 16.8814 154.991 8H175Z" fill="#3760E7"/>
</g>
<path d="M17.112 106L21.48 96.2H23.72L28.102 106H25.722L22.138 97.348H23.034L19.436 106H17.112ZM19.296 103.9L19.898 102.178H24.938L25.554 103.9H19.296ZM29.8591 108.828C29.4671 108.828 29.0798 108.767 28.6971 108.646C28.3144 108.525 28.0018 108.357 27.7591 108.142L28.5571 106.588C28.7251 106.737 28.9164 106.854 29.1311 106.938C29.3551 107.022 29.5744 107.064 29.7891 107.064C30.0971 107.064 30.3398 106.989 30.5171 106.84C30.7038 106.7 30.8718 106.462 31.0211 106.126L31.4131 105.202L31.5811 104.964L34.2831 98.468H36.3831L32.9811 106.462C32.7384 107.069 32.4584 107.545 32.1411 107.89C31.8331 108.235 31.4878 108.478 31.1051 108.618C30.7318 108.758 30.3164 108.828 29.8591 108.828ZM31.1471 106.294L27.7871 98.468H30.0411L32.6451 104.768L31.1471 106.294ZM42.0835 105.02V100.26H39.6195L39.5775 101.226C39.5588 101.627 39.5355 102.01 39.5075 102.374C39.4795 102.738 39.4235 103.069 39.3395 103.368C39.2648 103.657 39.1528 103.905 39.0035 104.11C38.8542 104.306 38.6535 104.441 38.4015 104.516L36.2455 104.208C36.5162 104.208 36.7355 104.129 36.9035 103.97C37.0715 103.802 37.2022 103.573 37.2955 103.284C37.3888 102.985 37.4588 102.649 37.5055 102.276C37.5522 101.893 37.5848 101.492 37.6035 101.072L37.7015 98.468H44.2675V105.02H42.0835ZM35.9935 107.624V104.208H45.3455V107.624H43.3155V106H38.0235V107.624H35.9935ZM46.7199 106V98.468H48.8899V102.948L52.5579 98.468H54.5599V106H52.3899V101.52L48.7359 106H46.7199ZM58.2694 106V99.756L58.7594 100.26H55.7214V98.468H62.9874V100.26H59.9494L60.4394 99.756V106H58.2694ZM68.1164 106V98.468H70.2864V102.948L73.9544 98.468H75.9564V106H73.7864V101.52L70.1324 106H68.1164ZM82.0207 106V98.468H89.5107V106H87.3267V99.77L87.8167 100.26H83.7007L84.1907 99.77V106H82.0207ZM96.0427 106.112C95.408 106.112 94.8527 105.972 94.3767 105.692C93.9007 105.412 93.5274 104.987 93.2567 104.418C92.9954 103.839 92.8647 103.111 92.8647 102.234C92.8647 101.347 92.9907 100.619 93.2427 100.05C93.4947 99.4807 93.8587 99.056 94.3347 98.776C94.8107 98.496 95.38 98.356 96.0427 98.356C96.752 98.356 97.3867 98.5193 97.9467 98.846C98.516 99.1633 98.964 99.6113 99.2907 100.19C99.6267 100.769 99.7947 101.45 99.7947 102.234C99.7947 103.027 99.6267 103.713 99.2907 104.292C98.964 104.871 98.516 105.319 97.9467 105.636C97.3867 105.953 96.752 106.112 96.0427 106.112ZM91.5907 108.716V98.468H93.6767V100.008L93.6347 102.248L93.7747 104.474V108.716H91.5907ZM95.6647 104.32C96.0287 104.32 96.3507 104.236 96.6307 104.068C96.92 103.9 97.1487 103.662 97.3167 103.354C97.494 103.037 97.5827 102.663 97.5827 102.234C97.5827 101.795 97.494 101.422 97.3167 101.114C97.1487 100.806 96.92 100.568 96.6307 100.4C96.3507 100.232 96.0287 100.148 95.6647 100.148C95.3007 100.148 94.974 100.232 94.6847 100.4C94.3954 100.568 94.1667 100.806 93.9987 101.114C93.8307 101.422 93.7467 101.795 93.7467 102.234C93.7467 102.663 93.8307 103.037 93.9987 103.354C94.1667 103.662 94.3954 103.9 94.6847 104.068C94.974 104.236 95.3007 104.32 95.6647 104.32ZM105.007 106.112C104.149 106.112 103.393 105.944 102.739 105.608C102.095 105.272 101.596 104.815 101.241 104.236C100.887 103.648 100.709 102.981 100.709 102.234C100.709 101.478 100.882 100.811 101.227 100.232C101.582 99.644 102.063 99.1867 102.669 98.86C103.276 98.524 103.962 98.356 104.727 98.356C105.465 98.356 106.127 98.5147 106.715 98.832C107.313 99.14 107.784 99.588 108.129 100.176C108.475 100.755 108.647 101.45 108.647 102.262C108.647 102.346 108.643 102.444 108.633 102.556C108.624 102.659 108.615 102.757 108.605 102.85H102.487V101.576H107.457L106.617 101.954C106.617 101.562 106.538 101.221 106.379 100.932C106.221 100.643 106.001 100.419 105.721 100.26C105.441 100.092 105.115 100.008 104.741 100.008C104.368 100.008 104.037 100.092 103.747 100.26C103.467 100.419 103.248 100.647 103.089 100.946C102.931 101.235 102.851 101.581 102.851 101.982V102.318C102.851 102.729 102.94 103.093 103.117 103.41C103.304 103.718 103.561 103.956 103.887 104.124C104.223 104.283 104.615 104.362 105.063 104.362C105.465 104.362 105.815 104.301 106.113 104.18C106.421 104.059 106.701 103.877 106.953 103.634L108.115 104.894C107.77 105.286 107.336 105.589 106.813 105.804C106.291 106.009 105.689 106.112 105.007 106.112ZM115.433 105.02V100.26H112.969L112.927 101.226C112.908 101.627 112.885 102.01 112.857 102.374C112.829 102.738 112.773 103.069 112.689 103.368C112.614 103.657 112.502 103.905 112.353 104.11C112.204 104.306 112.003 104.441 111.751 104.516L109.595 104.208C109.866 104.208 110.085 104.129 110.253 103.97C110.421 103.802 110.552 103.573 110.645 103.284C110.738 102.985 110.808 102.649 110.855 102.276C110.902 101.893 110.934 101.492 110.953 101.072L111.051 98.468H117.617V105.02H115.433ZM109.343 107.624V104.208H118.695V107.624H116.665V106H111.373V107.624H109.343ZM120.07 106V98.468H127.56V106H125.376V99.77L125.866 100.26H121.75L122.24 99.77V106H120.07ZM134.092 106.112C133.457 106.112 132.902 105.972 132.426 105.692C131.95 105.412 131.576 104.987 131.306 104.418C131.044 103.839 130.914 103.111 130.914 102.234C130.914 101.347 131.04 100.619 131.292 100.05C131.544 99.4807 131.908 99.056 132.384 98.776C132.86 98.496 133.429 98.356 134.092 98.356C134.801 98.356 135.436 98.5193 135.996 98.846C136.565 99.1633 137.013 99.6113 137.34 100.19C137.676 100.769 137.844 101.45 137.844 102.234C137.844 103.027 137.676 103.713 137.34 104.292C137.013 104.871 136.565 105.319 135.996 105.636C135.436 105.953 134.801 106.112 134.092 106.112ZM129.64 108.716V98.468H131.726V100.008L131.684 102.248L131.824 104.474V108.716H129.64ZM133.714 104.32C134.078 104.32 134.4 104.236 134.68 104.068C134.969 103.9 135.198 103.662 135.366 103.354C135.543 103.037 135.632 102.663 135.632 102.234C135.632 101.795 135.543 101.422 135.366 101.114C135.198 100.806 134.969 100.568 134.68 100.4C134.4 100.232 134.078 100.148 133.714 100.148C133.35 100.148 133.023 100.232 132.734 100.4C132.444 100.568 132.216 100.806 132.048 101.114C131.88 101.422 131.796 101.795 131.796 102.234C131.796 102.663 131.88 103.037 132.048 103.354C132.216 103.662 132.444 103.9 132.734 104.068C133.023 104.236 133.35 104.32 133.714 104.32ZM142.902 106.112C142.1 106.112 141.386 105.944 140.76 105.608C140.144 105.272 139.654 104.815 139.29 104.236C138.936 103.648 138.758 102.981 138.758 102.234C138.758 101.478 138.936 100.811 139.29 100.232C139.654 99.644 140.144 99.1867 140.76 98.86C141.386 98.524 142.1 98.356 142.902 98.356C143.696 98.356 144.405 98.524 145.03 98.86C145.656 99.1867 146.146 99.6393 146.5 100.218C146.855 100.797 147.032 101.469 147.032 102.234C147.032 102.981 146.855 103.648 146.5 104.236C146.146 104.815 145.656 105.272 145.03 105.608C144.405 105.944 143.696 106.112 142.902 106.112ZM142.902 104.32C143.266 104.32 143.593 104.236 143.882 104.068C144.172 103.9 144.4 103.662 144.568 103.354C144.736 103.037 144.82 102.663 144.82 102.234C144.82 101.795 144.736 101.422 144.568 101.114C144.4 100.806 144.172 100.568 143.882 100.4C143.593 100.232 143.266 100.148 142.902 100.148C142.538 100.148 142.212 100.232 141.922 100.4C141.633 100.568 141.4 100.806 141.222 101.114C141.054 101.422 140.97 101.795 140.97 102.234C140.97 102.663 141.054 103.037 141.222 103.354C141.4 103.662 141.633 103.9 141.922 104.068C142.212 104.236 142.538 104.32 142.902 104.32ZM152.216 106.112C151.358 106.112 150.602 105.944 149.948 105.608C149.304 105.272 148.805 104.815 148.45 104.236C148.096 103.648 147.918 102.981 147.918 102.234C147.918 101.478 148.091 100.811 148.436 100.232C148.791 99.644 149.272 99.1867 149.878 98.86C150.485 98.524 151.171 98.356 151.936 98.356C152.674 98.356 153.336 98.5147 153.924 98.832C154.522 99.14 154.993 99.588 155.338 100.176C155.684 100.755 155.856 101.45 155.856 102.262C155.856 102.346 155.852 102.444 155.842 102.556C155.833 102.659 155.824 102.757 155.814 102.85H149.696V101.576H154.666L153.826 101.954C153.826 101.562 153.747 101.221 153.588 100.932C153.43 100.643 153.21 100.419 152.93 100.26C152.65 100.092 152.324 100.008 151.95 100.008C151.577 100.008 151.246 100.092 150.956 100.26C150.676 100.419 150.457 100.647 150.298 100.946C150.14 101.235 150.06 101.581 150.06 101.982V102.318C150.06 102.729 150.149 103.093 150.326 103.41C150.513 103.718 150.77 103.956 151.096 104.124C151.432 104.283 151.824 104.362 152.272 104.362C152.674 104.362 153.024 104.301 153.322 104.18C153.63 104.059 153.91 103.877 154.162 103.634L155.324 104.894C154.979 105.286 154.545 105.589 154.022 105.804C153.5 106.009 152.898 106.112 152.216 106.112ZM162.864 106L160.344 102.43L162.122 101.38L165.44 106H162.864ZM157.53 106V98.468H159.714V106H157.53ZM159.07 103.144V101.394H161.702V103.144H159.07ZM162.332 102.486L160.288 102.262L162.934 98.468H165.258L162.332 102.486ZM168.055 106V99.756L168.545 100.26H165.507V98.468H172.773V100.26H169.735L170.225 99.756V106H168.055ZM173.937 106V98.468H176.107V101.408H179.383V98.468H181.567V106H179.383V103.186H176.107V106H173.937ZM188.165 106V104.53L188.025 104.208V101.576C188.025 101.109 187.881 100.745 187.591 100.484C187.311 100.223 186.877 100.092 186.289 100.092C185.888 100.092 185.491 100.157 185.099 100.288C184.717 100.409 184.39 100.577 184.119 100.792L183.335 99.266C183.746 98.9767 184.241 98.7527 184.819 98.594C185.398 98.4353 185.986 98.356 186.583 98.356C187.731 98.356 188.623 98.6267 189.257 99.168C189.892 99.7093 190.209 100.554 190.209 101.702V106H188.165ZM185.869 106.112C185.281 106.112 184.777 106.014 184.357 105.818C183.937 105.613 183.615 105.337 183.391 104.992C183.167 104.647 183.055 104.259 183.055 103.83C183.055 103.382 183.163 102.99 183.377 102.654C183.601 102.318 183.951 102.057 184.427 101.87C184.903 101.674 185.524 101.576 186.289 101.576H188.291V102.85H186.527C186.014 102.85 185.659 102.934 185.463 103.102C185.277 103.27 185.183 103.48 185.183 103.732C185.183 104.012 185.291 104.236 185.505 104.404C185.729 104.563 186.033 104.642 186.415 104.642C186.779 104.642 187.106 104.558 187.395 104.39C187.685 104.213 187.895 103.956 188.025 103.62L188.361 104.628C188.203 105.113 187.913 105.482 187.493 105.734C187.073 105.986 186.532 106.112 185.869 106.112ZM196.853 106V103.494L197.161 103.844H195.075C193.992 103.844 193.143 103.62 192.527 103.172C191.911 102.724 191.603 102.08 191.603 101.24C191.603 100.344 191.925 99.658 192.569 99.182C193.222 98.706 194.099 98.468 195.201 98.468H198.799V106H196.853ZM191.491 106L193.493 103.13H195.719L193.815 106H191.491ZM196.853 102.822V99.686L197.161 100.246H195.243C194.795 100.246 194.445 100.33 194.193 100.498C193.95 100.666 193.829 100.937 193.829 101.31C193.829 102.029 194.291 102.388 195.215 102.388H197.161L196.853 102.822ZM18.05 123V115.468H25.54V123H23.356V116.77L23.846 117.26H19.73L20.22 116.77V123H18.05ZM31.162 123.112C30.3593 123.112 29.6453 122.944 29.02 122.608C28.404 122.272 27.914 121.815 27.55 121.236C27.1953 120.648 27.018 119.981 27.018 119.234C27.018 118.478 27.1953 117.811 27.55 117.232C27.914 116.644 28.404 116.187 29.02 115.86C29.6453 115.524 30.3593 115.356 31.162 115.356C31.9553 115.356 32.6647 115.524 33.29 115.86C33.9153 116.187 34.4053 116.639 34.76 117.218C35.1147 117.797 35.292 118.469 35.292 119.234C35.292 119.981 35.1147 120.648 34.76 121.236C34.4053 121.815 33.9153 122.272 33.29 122.608C32.6647 122.944 31.9553 123.112 31.162 123.112ZM31.162 121.32C31.526 121.32 31.8527 121.236 32.142 121.068C32.4313 120.9 32.66 120.662 32.828 120.354C32.996 120.037 33.08 119.663 33.08 119.234C33.08 118.795 32.996 118.422 32.828 118.114C32.66 117.806 32.4313 117.568 32.142 117.4C31.8527 117.232 31.526 117.148 31.162 117.148C30.798 117.148 30.4713 117.232 30.182 117.4C29.8927 117.568 29.6593 117.806 29.482 118.114C29.314 118.422 29.23 118.795 29.23 119.234C29.23 119.663 29.314 120.037 29.482 120.354C29.6593 120.662 29.8927 120.9 30.182 121.068C30.4713 121.236 30.798 121.32 31.162 121.32ZM41.8648 122.02V117.26H39.4008L39.3588 118.226C39.3401 118.627 39.3168 119.01 39.2888 119.374C39.2608 119.738 39.2048 120.069 39.1208 120.368C39.0461 120.657 38.9341 120.905 38.7848 121.11C38.6354 121.306 38.4348 121.441 38.1828 121.516L36.0268 121.208C36.2974 121.208 36.5168 121.129 36.6848 120.97C36.8528 120.802 36.9834 120.573 37.0768 120.284C37.1701 119.985 37.2401 119.649 37.2868 119.276C37.3334 118.893 37.3661 118.492 37.3848 118.072L37.4828 115.468H44.0488V122.02H41.8648ZM35.7748 124.624V121.208H45.1268V124.624H43.0968V123H37.8048V124.624H35.7748ZM46.5012 123V115.468H52.5352V117.26H48.1812L48.6712 116.784V123H46.5012ZM56.9061 123.112C56.1035 123.112 55.3895 122.944 54.7641 122.608C54.1481 122.272 53.6581 121.815 53.2941 121.236C52.9395 120.648 52.7621 119.981 52.7621 119.234C52.7621 118.478 52.9395 117.811 53.2941 117.232C53.6581 116.644 54.1481 116.187 54.7641 115.86C55.3895 115.524 56.1035 115.356 56.9061 115.356C57.6995 115.356 58.4088 115.524 59.0341 115.86C59.6595 116.187 60.1495 116.639 60.5041 117.218C60.8588 117.797 61.0361 118.469 61.0361 119.234C61.0361 119.981 60.8588 120.648 60.5041 121.236C60.1495 121.815 59.6595 122.272 59.0341 122.608C58.4088 122.944 57.6995 123.112 56.9061 123.112ZM56.9061 121.32C57.2701 121.32 57.5968 121.236 57.8861 121.068C58.1755 120.9 58.4041 120.662 58.5721 120.354C58.7401 120.037 58.8241 119.663 58.8241 119.234C58.8241 118.795 58.7401 118.422 58.5721 118.114C58.4041 117.806 58.1755 117.568 57.8861 117.4C57.5968 117.232 57.2701 117.148 56.9061 117.148C56.5421 117.148 56.2155 117.232 55.9261 117.4C55.6368 117.568 55.4035 117.806 55.2261 118.114C55.0581 118.422 54.9741 118.795 54.9741 119.234C54.9741 119.663 55.0581 120.037 55.2261 120.354C55.4035 120.662 55.6368 120.9 55.9261 121.068C56.2155 121.236 56.5421 121.32 56.9061 121.32ZM63.8748 123V116.756L64.3648 117.26H61.3268V115.468H68.5928V117.26H65.5548L66.0448 116.756V123H63.8748ZM72.9706 123.112C72.1679 123.112 71.4539 122.944 70.8286 122.608C70.2126 122.272 69.7226 121.815 69.3586 121.236C69.0039 120.648 68.8266 119.981 68.8266 119.234C68.8266 118.478 69.0039 117.811 69.3586 117.232C69.7226 116.644 70.2126 116.187 70.8286 115.86C71.4539 115.524 72.1679 115.356 72.9706 115.356C73.7639 115.356 74.4732 115.524 75.0986 115.86C75.7239 116.187 76.2139 116.639 76.5686 117.218C76.9232 117.797 77.1006 118.469 77.1006 119.234C77.1006 119.981 76.9232 120.648 76.5686 121.236C76.2139 121.815 75.7239 122.272 75.0986 122.608C74.4732 122.944 73.7639 123.112 72.9706 123.112ZM72.9706 121.32C73.3346 121.32 73.6612 121.236 73.9506 121.068C74.2399 120.9 74.4686 120.662 74.6366 120.354C74.8046 120.037 74.8886 119.663 74.8886 119.234C74.8886 118.795 74.8046 118.422 74.6366 118.114C74.4686 117.806 74.2399 117.568 73.9506 117.4C73.6612 117.232 73.3346 117.148 72.9706 117.148C72.6066 117.148 72.2799 117.232 71.9906 117.4C71.7012 117.568 71.4679 117.806 71.2906 118.114C71.1226 118.422 71.0386 118.795 71.0386 119.234C71.0386 119.663 71.1226 120.037 71.2906 120.354C71.4679 120.662 71.7012 120.9 71.9906 121.068C72.2799 121.236 72.6066 121.32 72.9706 121.32ZM78.6027 123V115.468H82.4527C83.3954 115.468 84.1327 115.641 84.6647 115.986C85.1967 116.322 85.4627 116.798 85.4627 117.414C85.4627 118.03 85.2107 118.515 84.7067 118.87C84.2121 119.215 83.5541 119.388 82.7327 119.388L82.9567 118.884C83.8714 118.884 84.5527 119.052 85.0007 119.388C85.4581 119.724 85.6867 120.214 85.6867 120.858C85.6867 121.521 85.4347 122.043 84.9307 122.426C84.4267 122.809 83.6567 123 82.6207 123H78.6027ZM80.6047 121.516H82.4387C82.8401 121.516 83.1387 121.451 83.3347 121.32C83.5401 121.18 83.6427 120.97 83.6427 120.69C83.6427 120.401 83.5494 120.191 83.3627 120.06C83.1761 119.92 82.8821 119.85 82.4807 119.85H80.6047V121.516ZM80.6047 118.562H82.2567C82.6394 118.562 82.9241 118.492 83.1107 118.352C83.3067 118.212 83.4047 118.011 83.4047 117.75C83.4047 117.479 83.3067 117.279 83.1107 117.148C82.9241 117.017 82.6394 116.952 82.2567 116.952H80.6047V118.562ZM92.6457 123L90.1257 119.43L91.9037 118.38L95.2217 123H92.6457ZM87.3117 123V115.468H89.4957V123H87.3117ZM88.8517 120.144V118.394H91.4837V120.144H88.8517ZM92.1137 119.486L90.0697 119.262L92.7157 115.468H95.0397L92.1137 119.486ZM100.665 123V121.53L100.525 121.208V118.576C100.525 118.109 100.381 117.745 100.091 117.484C99.8114 117.223 99.3774 117.092 98.7894 117.092C98.3881 117.092 97.9914 117.157 97.5994 117.288C97.2168 117.409 96.8901 117.577 96.6194 117.792L95.8354 116.266C96.2461 115.977 96.7408 115.753 97.3194 115.594C97.8981 115.435 98.4861 115.356 99.0834 115.356C100.231 115.356 101.123 115.627 101.757 116.168C102.392 116.709 102.709 117.554 102.709 118.702V123H100.665ZM98.3694 123.112C97.7814 123.112 97.2774 123.014 96.8574 122.818C96.4374 122.613 96.1154 122.337 95.8914 121.992C95.6674 121.647 95.5554 121.259 95.5554 120.83C95.5554 120.382 95.6628 119.99 95.8774 119.654C96.1014 119.318 96.4514 119.057 96.9274 118.87C97.4034 118.674 98.0241 118.576 98.7894 118.576H100.791V119.85H99.0274C98.5141 119.85 98.1594 119.934 97.9634 120.102C97.7768 120.27 97.6834 120.48 97.6834 120.732C97.6834 121.012 97.7908 121.236 98.0054 121.404C98.2294 121.563 98.5328 121.642 98.9154 121.642C99.2794 121.642 99.6061 121.558 99.8954 121.39C100.185 121.213 100.395 120.956 100.525 120.62L100.861 121.628C100.703 122.113 100.413 122.482 99.9934 122.734C99.5734 122.986 99.0321 123.112 98.3694 123.112Z" fill="#3760E7"/>
<g clip-path="url(#clip1_721_319)">
<path d="M57.9609 193.812C57.9587 187.983 58.6944 182.325 61.5298 177.122C67.0799 166.938 75.6913 160.797 86.9882 158.426C101.537 155.371 116.97 161.814 125.085 174.203C129.222 180.515 130.928 187.511 130.83 194.995C130.758 200.365 129.678 205.513 127.386 210.382C127.075 211.041 127.292 211.364 127.724 211.801C134.96 219.128 142.243 226.414 149.383 233.833C152.86 237.446 156.103 241.287 159.379 245.088C160.908 246.862 161.93 248.906 161.854 251.358C161.677 257.098 155.215 261.319 149.947 259.053C148.983 258.639 148.113 257.906 147.342 257.174C138.627 248.906 129.931 240.619 121.253 232.316C118.969 230.132 116.738 227.89 114.526 225.63C113.947 225.038 113.545 224.922 112.744 225.327C107.02 228.213 101.002 230.243 94.5665 230.624C86.9838 231.074 80.045 228.941 73.8442 224.628C65.3223 218.701 60.0048 210.665 58.4194 200.352C58.0862 198.201 58.1041 195.994 57.9609 193.812ZM94.2065 159.247C93.312 159.247 92.4176 159.225 91.5253 159.256C90.9685 159.276 90.4162 159.372 89.8617 159.443C80.3156 160.686 72.4287 164.954 66.3487 172.402C62.0598 177.656 59.7521 183.668 59.5844 190.493C59.486 194.467 59.3809 198.432 60.2329 202.345C61.9122 210.055 65.9238 216.387 71.9703 221.413C77.9006 226.342 84.7141 229.065 92.5137 229.215C97.4064 229.308 102.022 228.059 106.554 226.456C112.95 224.194 118.715 220.858 122.728 215.274C130.157 204.936 131.304 193.543 127.181 181.749C122.409 168.104 109.09 159.22 94.2065 159.247ZM115.018 224.082C117.223 226.282 119.314 228.438 121.481 230.513C130.472 239.127 139.499 247.706 148.482 256.33C150.032 257.817 151.814 258.298 153.887 258.138C157.708 257.842 160.922 253.843 160.307 250.08C159.956 247.929 158.632 246.295 157.236 244.756C151.418 238.344 145.633 231.898 139.683 225.61C135.421 221.108 130.913 216.835 126.409 212.353C123.63 217.378 119.77 221.11 115.018 224.082Z" fill="#3760E7"/>
<path d="M88.1753 180.807C87.2071 185.086 86.3283 189.123 85.3712 193.14C84.6758 196.052 85.1655 195.696 82.1489 195.705C77.4173 195.718 72.6834 195.709 67.9517 195.707C67.6185 195.707 67.2473 195.756 66.9611 195.631C66.7039 195.52 66.3417 195.159 66.3775 194.981C66.4378 194.701 66.7509 194.402 67.0326 194.26C67.2719 194.137 67.6163 194.22 67.9137 194.22C72.8332 194.22 77.7504 194.206 82.6699 194.233C83.381 194.238 83.6941 194.062 83.8618 193.309C84.9933 188.215 86.1852 183.134 87.3591 178.05C87.4016 177.87 87.3882 177.645 87.4933 177.518C87.7527 177.204 88.068 176.935 88.3609 176.648C88.5935 176.951 88.9535 177.222 89.0362 177.563C89.555 179.683 89.9754 181.829 90.5009 183.949C91.2321 186.894 92.0394 189.82 92.784 192.761C93.0814 193.933 93.7232 194.469 94.9888 194.487C96.5094 194.507 98.03 194.719 99.5483 194.886C101.138 195.059 101.565 195.467 101.722 197.023C102.035 200.122 102.305 203.224 102.598 206.323C102.641 206.76 102.71 207.196 102.802 207.915C103.327 206.949 103.685 206.199 104.126 205.5C105.704 202.99 107.314 200.501 108.909 198C109.618 196.892 110.686 196.437 111.943 196.44C116.038 196.451 120.132 196.495 124.226 196.535C124.785 196.54 125.344 196.571 125.901 196.618C126.487 196.667 127.37 196.409 127.339 197.364C127.312 198.216 126.491 198.018 125.928 198.005C122.65 197.931 119.374 197.802 116.096 197.762C114.573 197.742 113.043 197.82 111.53 197.976C111.038 198.027 110.429 198.355 110.141 198.749C107.263 202.676 104.669 206.771 103.023 211.393C102.927 211.665 102.527 212.026 102.305 212.003C102.059 211.977 101.693 211.576 101.659 211.304C101.407 209.169 101.216 207.027 101.017 204.887C100.78 202.34 100.537 199.793 100.34 197.243C100.282 196.495 99.8301 196.322 99.2375 196.27C97.9383 196.159 96.6413 196.05 95.3399 195.977C92.699 195.832 92.0148 195.351 91.335 192.826C90.3533 189.181 89.441 185.518 88.4951 181.865C88.4258 181.589 88.3318 181.317 88.1753 180.807Z" fill="#3760E7"/>
</g>
<defs>
<clipPath id="clip0_721_319">
<rect width="192" height="64" fill="white" transform="translate(8 8)"/>
</clipPath>
<clipPath id="clip1_721_319">
<rect width="125" height="114" fill="white" transform="translate(46 151)"/>
</clipPath>
</defs>
</svg>
