<svg width="123" height="178" viewBox="0 0 123 178" fill="none" xmlns="http://www.w3.org/2000/svg">
<rect width="123" height="178" rx="15" fill="white"/>
<g clip-path="url(#clip0_1033_918)">
<path d="M102 5C110.284 5 117 11.7157 117 20V127.909C117 136.193 110.284 142.909 102 142.909H21C12.7158 142.909 6.00005 136.193 6 127.909V20C6 11.7157 12.7157 5 21 5H33.7803C33.9236 9.81708 37.8708 13.6777 42.7227 13.6777H80.1465C84.9983 13.6777 88.9455 9.81708 89.0889 5H102Z" fill="#3760E7"/>
</g>
<rect x="6" y="49" width="111" height="82" rx="10" fill="#3760E7"/>
<circle cx="60.5" cy="86.5" r="25.5" fill="white"/>
<path d="M24.7975 65.2668C24.7971 65.2672 24.7969 65.2677 24.7969 65.2682V67.178C24.7969 70.0839 27.4968 72.2538 30.4019 72.3243C36.0711 72.4618 41.6225 74.3376 47.0688 75.9818C47.8748 76.2252 48.5596 76.9461 47.8266 77.3605C46.0477 78.3648 36.4765 81.256 34.6261 81.256H28.3508C26.3887 81.256 24.798 82.8467 24.798 84.8088C24.798 86.7709 26.3887 88.3616 28.3508 88.3616H31.5682C33.1064 88.3616 37.8879 86.9006 39.6323 86.3461C44.5226 84.7929 49.0808 82.2802 53.7542 80.1793C54.5105 79.8393 55.3536 79.7481 56.1686 79.9011L56.5245 79.9679C56.7024 80.0013 56.8742 80.0614 57.0341 80.1463C58.2933 80.8146 58.3102 82.6206 57.0727 83.3282C48.0521 88.4866 38.8122 94.3818 28.422 95.3415C26.4405 95.5245 24.798 97.1063 24.798 99.0962C24.798 101.195 26.6175 102.845 28.674 102.426C41.7662 99.7579 52.5499 90.8221 63.8728 84.052C64.2978 83.7979 64.811 83.7403 65.2833 83.8891C66.7075 84.3378 66.9594 86.2647 65.7198 87.0971C53.5082 95.296 41.9797 105.972 27.6049 109.529C25.9942 109.927 24.798 111.333 24.798 112.992C24.798 115.171 26.8143 116.796 28.8849 116.117C42.8524 111.537 53.8821 99.9392 65.7211 91.5522C67.484 90.3031 73.0225 86.1696 74.7531 86.1741C78.1741 86.1815 82.3115 87.981 86.0201 86.6776C86.5401 86.4948 86.8474 85.9775 86.8419 85.4264C86.8336 84.6054 86.1389 83.9615 85.318 83.9746C68.8113 84.2386 55.2167 72.5651 40.1992 67.5938C38.237 66.9436 32.8978 65.2663 31.1316 65.2663H24.7988C24.7983 65.2663 24.7978 65.2665 24.7975 65.2668Z" fill="#3760E7"/>
<defs>
<clipPath id="clip0_1033_918">
<rect width="111" height="26" fill="white" transform="translate(6 5)"/>
</clipPath>
</defs>
</svg>
