<svg width="92" height="93" viewBox="0 0 92 93" fill="none" xmlns="http://www.w3.org/2000/svg">
<path d="M46.8817 73.1216C46.2047 73.1216 45.8672 73.1195 45.5277 73.1216C37.1416 73.2146 28.7575 73.3011 20.3714 73.4028C17.6731 73.4352 14.9748 73.552 12.2766 73.5261C11.0653 73.5153 9.84058 73.3379 8.6467 73.0805C4.82784 72.2608 3.02448 69.9099 2.49215 65.4178C1.97719 61.0598 2.40536 56.7169 2.48058 52.3632C2.62138 44.3306 2.60402 36.2936 2.70817 28.2589C2.76025 24.2988 2.82775 20.3301 3.0862 16.383C3.35622 12.2391 6.06607 9.40583 9.75957 9.08357C11.1637 8.96029 12.5678 8.84566 13.8697 8.73536C14.1436 7.36415 14.3152 6.04918 14.6759 4.80341C15.0713 3.43652 15.837 2.43515 17.2739 2.30322C18.8226 2.15832 20.248 2.47625 21.0522 4.03994C21.6116 5.12783 21.9086 6.42118 22.142 7.66694C22.2731 8.35904 22.4544 8.54936 23.0446 8.5472C30.2098 8.52341 37.3769 8.50178 44.5421 8.51908C48.7197 8.5299 52.8954 8.60992 57.073 8.6575C57.4163 8.66183 57.7616 8.6575 58.0432 8.6575C58.2515 7.40957 58.3498 6.2568 58.6469 5.17541C59.212 3.11427 60.0703 2.38541 61.7887 2.25997C63.4706 2.13885 64.9384 3.02559 65.5729 4.79692C66.0184 6.04269 66.221 7.39876 66.5508 8.78078C68.0899 8.87378 69.7582 8.89541 71.4092 9.10087C72.6436 9.25443 73.8915 9.51613 75.0661 9.95734C78.125 11.1101 79.6256 13.487 79.6391 17.1183C79.6661 24.5778 79.6506 32.0351 79.6526 39.4946C79.6526 39.9206 79.6526 40.3489 79.6526 40.669C82.9005 41.7525 84.9431 44.1251 86.2044 47.419C86.6403 48.5545 86.162 49.5537 85.5159 50.3907C84.9296 51.1498 84.2757 51.8592 83.5814 52.4929C82.5206 53.4619 82.1734 54.5735 82.4724 56.1091C82.997 58.7996 82.754 58.5898 85.1591 58.4795C86.5034 58.419 87.8554 58.5401 89.2036 58.5812C90.0908 58.6071 90.6578 59.1132 90.8546 60.0735C90.9761 60.6661 91.061 61.2782 91.0745 61.8838C91.1188 63.72 91.1555 65.5584 91.1285 67.3946C91.1092 68.7441 90.681 69.3238 89.4717 69.4535C88.2007 69.5898 86.9084 69.5984 85.6316 69.5249C82.7906 69.3627 82.9218 69.3757 82.0461 72.3538C81.4926 74.2333 81.7896 75.3709 83.2593 76.4264C84.0944 77.0276 84.7791 77.9749 85.3674 78.8984C86.0347 79.9409 85.9633 81.1737 85.1417 81.9501C83.429 83.5701 81.7259 85.2614 79.8165 86.5439C77.5522 88.0622 76.7402 87.1776 75.7604 85.5296C75.2262 84.6342 74.6205 83.7885 74.0111 82.9537C73.5192 82.2811 72.8866 82.0237 72.119 82.3589C71.0447 82.8282 69.9492 83.2413 68.9057 83.782C68.6646 83.9075 68.4621 84.4568 68.4718 84.8029C68.5084 86.0962 68.6531 87.3852 68.7341 88.6786C68.8537 90.5927 67.9722 91.8168 66.2557 91.9184C64.462 92.0223 62.6586 92.059 60.8649 91.9617C58.859 91.8536 57.9429 90.7159 57.8734 88.4385C57.8349 87.2165 57.9004 85.9881 57.8908 84.7639C57.8869 84.3811 57.885 83.9356 57.7192 83.6285C56.9901 82.2638 53.6225 81.2667 52.3534 82.8326C51.6649 83.6825 50.8953 84.4633 50.093 85.1792C48.8451 86.293 47.8345 86.1654 46.6753 84.9456C45.8556 84.0848 44.9819 83.2889 44.1448 82.4476C41.7725 80.0642 41.8824 77.9057 44.4708 75.8294C44.9664 75.4315 45.4988 75.0746 45.9424 74.614C46.2606 74.2809 46.4612 73.8072 46.8817 73.1216ZM78.4799 24.448C53.6148 24.448 28.8578 24.448 4.00041 24.448C4.00041 24.9931 4.00427 25.4559 4.00041 25.9166C3.95412 32.1519 3.93677 38.3872 3.84997 44.6204C3.79211 48.7254 3.62624 52.8282 3.51823 56.9331C3.42951 60.3179 3.35236 63.7005 4.06792 67.0355C4.51924 69.1443 5.63211 70.509 7.44704 71.2335C9.57442 72.0813 11.7809 72.2219 14.0008 72.2046C16.8611 72.183 19.7195 72.0662 22.5779 72.0294C30.0015 71.9343 37.4251 71.8629 44.8488 71.7764C45.0841 71.7742 45.3175 71.7158 45.6454 71.6726C45.3676 71.2076 45.1188 70.8745 44.951 70.496C44.5498 69.592 44.0156 69.3692 43.084 69.5444C41.8979 69.7671 40.6577 69.7261 39.4484 69.646C38.2622 69.5682 37.4136 68.7441 37.2593 67.4443C37.024 65.4589 36.7964 63.4323 36.914 61.4491C37.0645 58.9143 38.2063 57.9518 40.486 57.9172C41.0646 57.9086 41.6433 57.9497 42.2199 57.9691C45.032 58.0664 45.3098 57.874 46.5075 54.9823C46.521 54.9499 46.5345 54.9174 46.548 54.885C47.0996 53.49 46.9781 52.746 45.9597 51.7165C45.1015 50.8471 44.2007 50.0338 43.3386 49.1687C42.517 48.3447 42.3415 47.272 42.8101 46.223C43.1882 45.3774 43.7012 44.5101 44.355 43.9369C45.5103 42.9248 46.7833 42.0618 48.0717 41.2681C49.4353 40.4289 50.1354 40.6084 51.2869 41.772C52.4094 42.9053 53.528 44.0429 54.6756 45.1416C54.8801 45.3384 55.2832 45.5158 55.4973 45.4228C57.8137 44.3976 58.8475 43.8245 58.2823 40.8355C58.2033 40.4138 58.1898 39.979 58.1319 39.5508C57.7847 36.9403 58.9034 35.2923 61.268 35.2815C63.5747 35.2706 65.8834 35.5085 68.1902 35.6621C69.0812 35.7205 69.4689 36.4321 69.6039 37.3037C69.6907 37.8638 69.6309 38.4521 69.656 39.0274C69.7158 40.39 69.7409 41.759 69.8817 43.1129C69.9318 43.5974 70.1883 44.1619 70.5143 44.4776C71.089 45.0378 71.768 45.4812 72.4411 45.8943C73.6022 46.608 74.0516 46.4198 74.9021 45.2757C75.8241 44.0364 76.8559 42.9031 77.7933 41.679C78.0729 41.3135 78.3642 40.8009 78.37 40.351C78.4375 35.4134 78.451 30.4757 78.478 25.5381C78.4818 25.1855 78.4799 24.8352 78.4799 24.448ZM86.1543 59.92C86.1543 59.9135 86.1543 59.9091 86.1543 59.9027C85.8013 59.9027 85.4464 59.8983 85.0935 59.9027C82.0133 59.9438 81.7954 59.708 81.2129 56.3168C80.8677 54.3097 81.3344 52.7157 82.7636 51.4332C83.3885 50.873 83.9498 50.222 84.5072 49.5753C85.1359 48.8443 85.2227 48.0311 84.7617 47.1141C83.8938 45.3839 82.7327 43.9629 81.2495 42.8923C79.9689 41.9688 79.1588 42.0402 78.0826 43.2795C77.2127 44.2808 76.4393 45.3903 75.6505 46.4782C74.8828 47.5358 73.9551 47.9532 72.7574 47.5769C70.0919 46.7442 68.6415 44.8388 68.4544 41.7655C68.3811 40.55 68.466 39.3215 68.4506 38.0996C68.4448 37.5459 68.3908 37.0268 67.6945 36.9792C66.0609 36.8711 64.4311 36.6354 62.7975 36.5856C59.4704 36.4861 59.0828 37.0138 59.5591 40.6863C59.9603 43.7682 59.3528 45.0313 56.8358 46.3355C56.6622 46.4263 56.4732 46.4912 56.3112 46.6037C55.368 47.259 54.5773 47.0124 53.8038 46.1906C52.6852 45.0032 51.5357 43.8483 50.3534 42.7388C50.0467 42.4511 49.47 42.1245 49.1942 42.2629C47.3446 43.1843 45.5219 44.2095 44.2586 46.0803C43.5739 47.0925 43.6703 47.6656 44.5228 48.4961C45.3233 49.2747 46.1661 50.0036 46.9337 50.8189C48.2318 52.201 48.4651 53.583 47.6956 55.4105C47.3272 56.2843 46.8585 57.1083 46.3841 57.9194C45.736 59.0289 44.8083 59.5674 43.6028 59.4766C42.5131 59.3944 41.4234 59.2798 40.3337 59.2949C38.8948 59.3165 38.2738 59.8616 38.2005 61.4599C38.1214 63.2009 38.2622 64.9593 38.3741 66.7046C38.4512 67.8898 39.1591 68.3959 40.1601 68.3505C41.3135 68.2986 42.4649 68.2099 43.6125 68.0758C44.4303 67.9807 45.0513 68.2467 45.5277 69.0015C46.1198 69.9423 46.7524 70.8507 47.3349 71.8002C48.1488 73.1216 48.0408 74.3804 46.9646 75.4639C46.3223 76.1085 45.574 76.6189 44.8874 77.2115C43.41 78.4875 43.3213 79.5992 44.6579 81.0504C45.6724 82.1513 46.7254 83.2154 47.8383 84.1843C48.1141 84.4244 48.7872 84.4265 49.0997 84.2124C49.7477 83.7712 50.3013 83.1375 50.8491 82.5319C52.7778 80.4038 55.152 80.0447 57.4877 81.5587C58.7086 82.3503 59.3258 83.4446 59.1927 85.1121C59.0866 86.4271 59.1425 87.7681 59.2274 89.0917C59.2853 89.9849 59.8388 90.5559 60.6373 90.5775C62.4349 90.6273 64.2363 90.6532 66.0319 90.5667C67.1737 90.5126 67.5614 89.9373 67.4843 88.6656C67.411 87.4458 67.2682 86.2303 67.1544 85.0127C67.058 83.9659 67.2374 83.0402 68.1882 82.5817C69.305 82.0431 70.4352 81.5327 71.5809 81.0742C72.9773 80.5141 74.1769 80.9012 75.1027 82.2075C75.7025 83.0532 76.2677 83.9269 76.8366 84.7985C77.6525 86.0486 77.9669 86.2281 79.1202 85.3955C80.5976 84.327 81.9921 83.1029 83.375 81.8788C84.8408 80.5811 84.8582 79.8912 83.4753 78.4399C82.6324 77.5554 81.7086 76.7681 80.8137 75.9462C80.3488 75.518 80.1521 75.0508 80.345 74.3436C80.6613 73.1757 80.8927 71.9797 81.1589 70.7945C81.6758 68.4933 82.0249 68.1645 84.1176 68.1321C85.2092 68.1148 86.3009 68.1732 87.3945 68.1775C88.0039 68.1797 88.6211 68.1948 89.219 68.091C89.4582 68.0499 89.8439 67.7038 89.8439 67.4962C89.8401 65.2664 89.7784 63.0365 89.7224 60.8067C89.7051 60.1124 89.3232 59.9005 88.7542 59.9135C87.8901 59.9329 87.0222 59.92 86.1543 59.92ZM78.3198 22.906C78.3198 20.6134 78.3719 18.4247 78.3044 16.2402C78.2427 14.2051 77.3362 12.6652 75.7141 11.7568C72.7651 10.1066 69.5654 10.3964 66.4428 10.2234C66.3463 11.7265 66.3502 13.102 66.1496 14.4408C65.8179 16.6555 64.136 18.0505 61.9585 18.0829C60.24 18.1089 59.0191 16.8891 58.6391 14.5792C58.4019 13.141 58.3363 11.6681 58.1763 10.0547C46.2163 10.0547 34.2813 10.0547 22.1786 10.0547C22.1786 11.2637 22.2365 12.4835 22.167 13.6925C22.0089 16.4068 19.9914 18.2971 17.5728 18.0656C15.9103 17.9078 14.7839 16.6187 14.4792 14.3802C14.2921 13.0069 14.2323 11.6097 14.1031 10.0914C12.4906 10.2536 10.9535 10.3423 9.43362 10.5737C6.40167 11.0344 4.46716 13.3745 4.25886 16.7896C4.15278 18.5133 4.11614 20.2436 4.05828 21.9716C4.04863 22.2788 4.09106 22.5859 4.10842 22.9038C28.9098 22.906 53.6148 22.906 78.3198 22.906ZM65.1563 10.9111C65.2238 10.8938 65.2913 10.8765 65.3588 10.8592C65.0637 9.03815 64.8959 7.17599 64.433 5.41332C64.0627 4.00318 62.9306 3.59008 61.6422 3.66794C60.456 3.73931 60.0452 4.68229 59.8137 5.6988C59.0866 8.88027 59.4454 12.0552 60.1339 15.174C60.2593 15.7406 60.9093 16.3938 61.4339 16.5733C63.081 17.1378 64.7841 15.7623 64.9904 13.8201C65.0926 12.8555 65.1042 11.8801 65.1563 10.9111ZM21.1275 10.152C20.9751 9.05113 20.8748 7.39011 20.4929 5.81559C20.1014 4.19783 19.1486 3.62036 17.65 3.67659C16.5525 3.71769 15.999 4.25839 15.6287 5.98862C15.0327 8.77429 15.4011 11.5773 15.783 14.3413C16.0202 16.0478 16.728 16.6685 17.8814 16.6533C19.4495 16.6317 20.5855 15.7168 20.8189 14.1423C20.9847 13.0134 21.0021 11.8563 21.1275 10.152Z" fill="#D8E3FD"/>
<path d="M63.307 49.0566C67.7411 49.2556 71.3169 50.9988 73.8532 54.9135C77.4329 60.4351 76.4396 67.6783 71.5889 72.0666C66.1808 76.9588 57.9181 76.031 53.4898 70.0335C48.4327 63.184 51.2332 52.9172 58.9693 49.9801C59.6655 49.7163 60.3792 49.487 61.1005 49.34C61.8874 49.1756 62.6917 49.1302 63.307 49.0566ZM63.4613 50.5014C62.8229 50.5533 62.1729 50.5511 61.5441 50.6744C60.8208 50.8172 60.1014 51.0248 59.4052 51.2908C52.4521 53.9381 49.9409 63.1386 54.5081 69.2117C58.5199 74.5473 65.9725 75.3475 70.8174 70.9635C74.9063 67.263 75.9536 61.1077 73.2206 56.3604C70.9486 52.4155 67.5849 50.6398 63.4613 50.5014Z" fill="#D8E3FD"/>
</svg>
