<svg width="93" height="92" viewBox="0 0 93 92" fill="none" xmlns="http://www.w3.org/2000/svg">
<path d="M82.0403 25.0473C88.4516 24.7258 92.0059 29.5263 92 33.7769C91.994 37.9035 88.6814 42.6537 82.2008 42.5201C82.2008 42.8648 82.2048 43.2076 82.2008 43.5503C82.1374 48.132 82.0364 52.7118 82.0185 57.2935C81.9987 62.0301 79.1378 64.1215 75.2487 64.5263C71.9816 64.8671 68.663 64.7761 65.3682 64.8032C58.4022 64.8593 51.4362 64.8651 44.4702 64.8942C44.177 64.8961 43.8837 64.9271 43.438 64.9523C43.438 66.455 43.438 67.9267 43.438 69.3984C43.438 71.4608 43.434 71.4685 45.3974 72.1037C47.2518 72.704 48.6981 73.7865 49.7779 75.3938C49.984 75.7017 50.5605 75.9263 50.9667 75.9282C58.3289 75.9592 65.6912 75.9515 73.0554 75.9534C73.3843 75.9534 73.7409 75.9011 74.0361 76.0057C74.262 76.087 74.5532 76.3814 74.5473 76.5731C74.5414 76.7745 74.2501 77.0514 74.0203 77.1424C73.7627 77.2431 73.4358 77.1753 73.1386 77.1753C65.9071 77.1753 58.6776 77.1753 51.4461 77.1753C51.0855 77.1753 50.7249 77.1753 50.3307 77.1753C49.8195 80.0258 47.971 81.5014 45.1993 81.7667C42.8436 81.9933 40.4562 82.0417 38.0886 81.9681C36.8345 81.9294 35.5527 81.5711 34.356 81.1548C32.7472 80.5932 31.6318 79.441 31.291 77.7582C31.1365 76.9952 30.6253 77.1831 30.1736 77.1811C22.843 77.1734 15.5145 77.1753 8.18389 77.1753C7.95208 77.1753 7.72226 77.1734 7.49045 77.1753C6.99316 77.1773 6.37304 77.2412 6.37502 76.5576C6.37898 75.8663 7.01892 75.9553 7.50234 75.9534C15.031 75.9495 22.5577 75.9437 30.0864 75.9612C30.8036 75.9631 31.2217 75.8624 31.5585 75.0878C31.8874 74.3364 32.5788 73.6645 33.2663 73.1591C33.932 72.6672 34.774 72.3767 35.5744 72.094C37.3972 71.4472 37.4071 71.4705 37.4051 69.4953C37.4031 68.0758 37.3992 66.6564 37.3912 65.235C37.3912 65.175 37.3595 65.113 37.2842 64.8458C36.3749 64.8458 35.4041 64.8496 34.4333 64.8458C27.4336 64.8206 20.4339 64.7974 13.4361 64.7644C10.9576 64.7528 8.48701 64.656 6.11152 63.8582C2.4185 62.6188 0.229231 59.9562 0.183663 56.1432C0.0687513 46.2401 0.0885637 36.335 0.0529015 26.4318C0.0410141 23.0759 0.0469578 19.7219 0.00733309 16.366C-0.0263479 13.5233 0.0291266 10.6921 0.758221 7.91524C1.86969 3.66854 4.60974 1.34089 9.06355 1.2615C18.4685 1.09496 27.8773 1.01556 37.2862 1.00201C49.6016 0.986516 61.915 1.06398 74.2303 1.12013C75.1159 1.12401 76.0233 1.17435 76.8812 1.368C79.5618 1.97218 80.8952 3.85444 81.3647 6.33701C81.6461 7.81841 81.7352 9.34629 81.7709 10.8567C81.8838 15.4055 81.9274 19.9543 81.9987 24.505C82.0027 24.66 82.0225 24.8168 82.0403 25.0473ZM50.7983 40.7966C50.7448 40.8528 50.6932 40.8935 50.6615 40.9477C50.5288 41.1704 50.404 41.397 50.2752 41.6216C47.662 46.122 44.0244 49.5437 39.2576 51.852C36.8682 53.01 34.5838 53.0255 32.2717 51.792C31.5208 51.3911 30.7719 50.9767 30.0706 50.5003C27.178 48.5406 24.6044 46.2323 22.3814 43.5658C18.9519 39.4489 16.6378 34.8981 16.4456 29.445C16.3268 26.0775 17.254 23.4652 20.7885 22.2878C20.9113 22.2471 21.0223 22.1697 21.1412 22.1154C22.5142 21.488 23.4889 20.5004 24.1031 19.1352C24.4736 18.3122 24.8936 17.5027 25.379 16.7398C26.1141 15.5876 27.2434 15.0182 28.6203 15.0086C32.6799 14.9776 36.7394 15.0027 40.799 14.9524C42.8337 14.9272 44.28 15.7115 45.1438 17.5299C45.8333 18.9822 46.9507 20.086 48.3732 20.8335C49.3777 21.3621 50.4694 21.7436 51.5472 22.1309C52.7537 22.5628 53.7027 23.2754 53.8018 24.5631C53.9464 26.4531 53.9147 28.3567 53.9464 30.2545C53.9524 30.6224 53.9028 30.9923 53.8811 31.3466C60.7381 31.3466 67.4822 31.3466 74.2699 31.3466C74.2699 30.3881 74.2878 29.5186 74.2679 28.6491C74.1511 23.8137 74.1253 18.9725 73.8677 14.143C73.7073 11.1569 72.2273 10.0066 69.1603 9.99695C66.0894 9.98921 63.0205 10.0028 59.9496 9.99308C48.3296 9.95628 36.7097 9.87495 25.0898 9.89819C21.6642 9.90594 18.2169 9.98921 14.8309 10.4152C11.0487 10.8897 8.98232 12.8726 8.38795 16.0213C8.20964 16.9625 8.24134 17.9481 8.24332 18.9144C8.26908 27.5937 8.30078 36.273 8.34833 44.9523C8.36022 47.1425 8.33644 49.3423 8.51871 51.5209C8.76835 54.5302 10.1453 56.1878 12.6615 56.7474C13.4282 56.9178 14.2286 57.003 15.0132 57.0147C19.6017 57.0786 24.1903 57.1328 28.7768 57.1425C41.1556 57.1676 53.5343 57.1889 65.9131 57.1521C67.613 57.1463 69.3466 56.9682 71.0009 56.5925C73.1565 56.1026 74.2125 54.7238 74.2462 52.6343C74.3254 47.6034 74.3452 42.5705 74.3829 37.5376C74.3848 37.2858 74.3373 37.0341 74.2977 36.6506C67.7477 36.6506 61.2295 36.6506 54.6934 36.6506C54.622 37.5395 54.5765 38.469 54.4635 39.3888C54.3466 40.3551 54.2179 41.4105 53.1619 41.8307C52.1138 42.249 51.4739 41.395 50.7983 40.7966ZM75.5874 29.0248C76.9307 27.251 78.4483 26.122 80.3325 25.4501C80.5425 25.3745 80.7248 24.9078 80.7208 24.627C80.6356 19.3037 80.5286 13.9803 80.3959 8.65884C80.3781 7.92492 80.2414 7.18131 80.071 6.46288C79.4053 3.63175 77.854 2.41951 74.9079 2.40596C60.5142 2.34205 46.1206 2.25297 31.7249 2.23555C24.4617 2.2278 17.2005 2.33624 9.93728 2.42532C5.3527 2.48148 2.93758 4.36954 1.88752 8.74599C1.58043 10.0221 1.39222 11.3564 1.37438 12.6654C1.2773 20.3436 1.20796 28.0236 1.204 35.7037C1.20202 42.2529 1.26938 48.804 1.37042 55.3531C1.43382 59.4817 3.47449 62.0011 7.45677 62.95C8.60193 63.223 9.80057 63.4012 10.9754 63.407C31.4436 63.4922 51.9137 63.5658 72.3818 63.5619C74.056 63.5619 75.7915 63.163 77.3904 62.6382C79.3974 61.9798 80.5623 60.4364 80.6218 58.316C80.7664 53.1572 80.8516 47.9965 80.911 42.8358C80.915 42.5608 80.5148 42.1367 80.2097 42.0263C78.6564 41.4589 77.3408 40.5856 76.273 39.354C76.1145 39.17 76.0213 38.9338 75.8965 38.7207C75.6726 39.3985 75.6786 39.8807 75.6707 40.3648C75.6073 44.5902 75.5617 48.8156 75.4686 53.0391C75.421 55.206 74.2759 56.7803 72.2392 57.462C70.678 57.9848 68.9701 58.3353 67.3257 58.3431C54.6478 58.4147 41.9699 58.4031 29.292 58.3779C24.1764 58.3683 19.0589 58.3256 13.9453 58.1688C11.0626 58.0797 8.7525 56.883 7.80547 54.0054C7.43498 52.8841 7.14374 51.6835 7.12591 50.5139C7.05062 45.8683 7.12393 41.2227 7.09421 36.5751C7.05656 30.3145 6.93967 24.0558 6.92382 17.7952C6.91788 13.3335 9.14478 10.4385 13.5966 9.41794C15.8532 8.9009 18.2228 8.6511 20.5428 8.64335C31.8339 8.60656 43.1249 8.6937 54.416 8.7363C59.5989 8.75567 64.7818 8.75373 69.9647 8.80795C72.5522 8.83506 74.2739 10.1635 74.8861 12.6151C75.1476 13.6685 75.2467 14.7781 75.2764 15.8645C75.3873 19.8323 75.4369 23.8002 75.5141 27.768C75.5201 28.105 75.5518 28.4419 75.5874 29.0248ZM52.4942 31.639C52.8191 29.0887 52.938 26.8404 52.4565 24.6116C52.3654 24.1894 51.8919 23.7711 51.4897 23.5058C51.0657 23.227 50.5189 23.1243 50.0196 22.9636C47.3727 22.1077 45.2548 20.5992 44.0185 18.1147C43.3151 16.701 42.2155 16.1433 40.692 16.1782C40.0659 16.1917 39.4379 16.2053 38.8118 16.2072C35.7448 16.215 32.6759 16.277 29.6109 16.2014C27.7129 16.155 26.3993 16.854 25.7733 18.591C24.8441 21.1685 23.0392 22.8571 20.4774 23.8466C18.5814 24.5786 17.8781 26.0078 17.781 27.9423C17.5492 32.5821 18.9618 36.7087 21.6325 40.4752C24.5667 44.6134 28.1825 48.0468 32.66 50.5759C34.7047 51.73 36.7771 51.8094 38.8554 50.6301C39.7093 50.144 40.5989 49.7122 41.429 49.1913C43.5747 47.8396 45.439 46.1897 47.0081 44.108C44.8189 44.3966 43.5073 43.4612 43.0952 41.3931C43.0199 41.0155 42.9803 40.6243 42.9882 40.2409C43.0358 37.8242 43.0932 35.4074 43.1626 32.9907C43.1883 32.1193 43.5945 31.6255 44.5712 31.6352C47.1726 31.6545 49.7759 31.639 52.4942 31.639ZM40.159 80.9495C42.2254 80.7617 43.9095 80.6765 45.5698 80.4383C47.0993 80.2195 48.2979 79.4023 48.8051 77.9267C49.3064 76.4685 48.4128 75.4499 47.3667 74.5979C46.8199 74.1525 46.1899 73.6935 45.5222 73.5231C43.9729 73.1242 42.3879 72.7292 40.799 72.6362C38.4413 72.4987 36.1213 72.8957 34.0529 74.1254C31.9726 75.3628 31.8874 78.0797 33.8884 79.4468C34.4174 79.807 35.0375 80.1323 35.6616 80.2543C37.2684 80.57 38.899 80.7617 40.159 80.9495ZM52.4209 40.7076C52.6309 40.6688 52.8389 40.6301 53.0489 40.5914C53.1242 39.263 53.2391 37.9365 53.2669 36.6061C53.2926 35.3455 53.3105 35.2757 54.5784 35.2854C60.7817 35.33 66.9849 35.3803 73.1882 35.4287C73.5349 35.4307 73.8816 35.4287 74.2045 35.4287C74.2045 34.4314 74.2045 33.5736 74.2045 32.6247C72.5661 32.6247 70.989 32.6131 69.4139 32.6266C61.4296 32.6905 53.4452 32.7583 45.4608 32.8319C44.9615 32.8358 44.379 32.6867 44.383 33.5407C44.3949 35.9574 44.2939 38.376 44.3731 40.7889C44.3949 41.426 44.811 42.1154 45.2191 42.6576C45.6768 43.2637 46.2731 43.0565 46.4851 42.4039C46.6793 41.8075 46.6991 41.1433 46.709 40.5062C46.7308 39.2223 46.598 37.9268 46.7129 36.6526C46.8358 35.2854 47.7194 34.6948 49.1895 34.7568C50.7051 34.8226 51.6106 35.6127 51.6759 36.974C51.7116 37.7138 51.5927 38.4729 51.7175 39.1932C51.8027 39.7238 52.1752 40.206 52.4209 40.7076ZM83.1459 41.1936C87.352 41.1859 90.73 37.8474 90.7102 33.7207C90.6904 29.6367 87.2034 26.2711 83.0389 26.3195C78.8307 26.3699 75.4369 29.7277 75.4626 33.8195C75.4884 37.9074 78.9199 41.2014 83.1459 41.1936ZM38.7246 64.9387C38.7246 67.1056 38.7246 69.2087 38.7246 71.3059C39.8995 71.3059 41.001 71.3059 42.1204 71.3059C42.1204 69.1661 42.1204 67.0863 42.1204 64.9387C40.9713 64.9387 39.8737 64.9387 38.7246 64.9387ZM47.9294 42.9771C48.4624 42.0883 49.0964 41.2227 49.5204 40.268C49.9285 39.3501 50.2395 38.3567 50.3703 37.3691C50.4991 36.3989 50.0216 36.0426 49.0369 36.0252C48.1018 36.0077 47.87 36.5422 47.8977 37.3303C47.9255 38.132 47.9255 38.9357 47.9274 39.7393C47.9334 40.787 47.9294 41.8365 47.9294 42.9771Z" fill="#D8E3FD"/>
<path d="M39.0566 36.9152C39.4397 40.9407 37.7231 41.1954 34.6136 40.9225C32.9421 40.7749 32.1125 39.8529 32.1022 38.1788C32.094 36.7332 32.1842 35.2856 32.2804 33.8399C32.3358 33.013 32.1493 32.3155 31.5143 31.7473C30.0006 30.3967 29.8367 28.6377 30.1071 26.8161C30.4205 24.6931 32.0305 23.391 34.5624 23.0514C37.5981 22.645 40.5786 24.6931 40.9657 27.6612C41.0907 28.6135 40.8735 29.8428 40.3225 30.5989C39.1385 32.2225 38.6817 33.8743 39.0484 35.8072C39.116 36.1631 39.0566 36.5452 39.0566 36.9152ZM33.5607 35.0551C33.4993 35.8032 33.4583 36.3066 33.4194 36.808C33.2166 39.4647 33.6734 39.7215 36.3281 39.6993C37.4281 39.6892 37.7948 39.2828 37.8194 38.2071C37.8337 37.5035 37.7948 36.7939 37.7128 36.0943C37.4568 33.935 37.5367 31.8808 39.1078 30.1157C39.4581 29.7235 39.6465 29.0906 39.6875 28.5508C39.8248 26.808 38.9214 25.609 37.4035 24.8387C35.7914 24.0219 33.5443 24.1937 32.3972 25.2592C31.1251 26.442 31.1272 27.9584 31.5512 29.4707C31.6946 29.9863 32.1268 30.4574 32.5181 30.8618C33.2985 31.6644 33.6795 32.5662 33.5689 33.6863C33.5156 34.2201 33.5607 34.7619 33.5607 35.0551Z" fill="#D8E3FD"/>
<path d="M78 33.9892C77.9961 31.2307 80.2069 29.0019 82.9467 29C85.7717 28.9981 88.0039 31.2057 88 33.995C87.9961 36.7362 85.7834 38.9688 83.0417 38.9996C80.2728 39.0324 78.0019 36.7766 78 33.9892ZM82.9622 37.709C85.0529 37.7186 86.7406 36.0928 86.7657 34.0451C86.7929 31.9569 85.0742 30.2329 82.9797 30.2463C80.92 30.2579 79.2246 31.9435 79.2207 33.9796C79.2188 36.0312 80.8929 37.6994 82.9622 37.709Z" fill="#D8E3FD"/>
</svg>
