<svg width="150" height="150" viewBox="0 0 150 150" fill="none" xmlns="http://www.w3.org/2000/svg">
<circle cx="75" cy="75" r="74.5" stroke="#3760E7"/>
<g clip-path="url(#clip0_580_565)">
<path d="M48.2469 57.0672C49.7062 55.6866 51.1978 54.3267 52.6324 52.9081C56.9477 48.639 61.2345 44.3433 65.5478 40.0722C65.971 39.6531 66.119 39.2814 65.9805 38.665C64.7451 33.1707 69.3887 27.7864 75.0247 28.1353C80.1199 28.4521 83.8621 32.3514 83.6818 37.1876C83.6591 37.7812 83.4484 38.3691 83.4389 38.9609C83.4332 39.2985 83.5547 39.7878 83.7957 39.9547C88.908 43.5012 94.0449 47.0098 99.18 50.5241C99.254 50.5753 99.347 50.6 99.5102 50.674C101.34 48.1478 103.841 46.7766 106.97 46.7178C109.224 46.6741 111.257 47.4157 112.98 48.8988C116.303 51.7626 116.982 56.5021 114.6 60.1264C112.135 63.8797 107.141 65.194 103.028 63.2102C99.6335 61.5715 96.6902 57.236 98.8574 51.8081C93.5401 48.1572 88.2058 44.495 82.7918 40.7778C80.9435 43.7857 78.3304 45.5476 74.7306 45.5362C71.163 45.5248 68.5385 43.854 66.6902 40.7835C60.8587 46.5205 55.0386 52.2481 49.1464 58.0459C50.9283 60.4241 51.6039 63.1115 50.6911 66.0797C50.0516 68.1602 48.7536 69.7514 46.9186 70.895C43.0834 73.2809 38.1078 72.4729 35.1683 69.0098C32.4926 65.8578 32.5571 61.0784 35.248 57.9548C37.7946 55.0019 43.1327 53.1243 48.2469 57.0672ZM107.025 47.9714C102.767 47.979 99.2938 51.3397 99.3052 55.4419C99.3166 59.5252 102.827 62.9276 107.04 62.939C111.283 62.9503 114.843 59.4853 114.805 55.3812C114.767 51.2638 111.302 47.9638 107.025 47.9714ZM74.7363 29.3871C70.4628 29.3852 67.009 32.706 67.0033 36.8235C66.9977 40.9769 70.5064 44.3831 74.7666 44.3566C78.9984 44.33 82.4521 40.9485 82.4445 36.8405C82.437 32.6985 79.0136 29.389 74.7363 29.3871ZM42.1858 56.0716C37.9408 56.0412 34.432 59.364 34.3846 63.4624C34.3371 67.5817 37.8554 71.0126 42.1308 71.0145C46.372 71.0164 49.8561 67.6671 49.8846 63.5629C49.9131 59.4778 46.446 56.1038 42.1858 56.0716Z" fill="#3760E7"/>
<path d="M87.4109 88.0929C87.4109 95.9921 87.4109 103.889 87.409 111.788C87.409 112.198 87.3995 112.61 87.3805 113.019C87.261 115.511 86.1546 116.6 83.6232 116.63C80.7463 116.663 77.8695 116.642 74.9926 116.644C73.4783 116.646 71.9583 116.74 70.4515 116.632C68.1098 116.463 66.6429 115.06 66.4399 112.729C66.123 109.082 65.7283 105.427 65.7188 101.773C65.6827 89.4528 65.7757 77.1309 65.901 64.809C65.9161 63.3941 66.3127 61.9452 66.7549 60.5835C67.2331 59.1136 68.44 58.4555 69.9923 58.4328C73.9375 58.3721 77.8827 58.2943 81.828 58.2298C85.4753 58.1691 86.8112 59.3412 86.9327 62.9864C87.2097 71.3521 87.4052 79.7216 87.6329 88.0891C87.557 88.0891 87.483 88.091 87.4109 88.0929ZM86.1698 88.311C86.2078 88.311 86.2457 88.311 86.2837 88.3091C86.1793 81.675 86.0958 75.0409 85.9573 68.4086C85.9117 66.2636 85.7922 64.1148 85.5758 61.9812C85.3918 60.1757 84.6441 59.5745 82.8508 59.4967C82.3157 59.474 81.7767 59.5043 81.2397 59.5138C77.638 59.5802 74.0381 59.6712 70.4364 59.7072C68.7095 59.7243 68.0396 60.0467 67.6221 61.729C67.2768 63.1248 67.068 64.589 67.0566 66.0247C66.9693 77.2086 66.8801 88.3945 66.9352 99.5785C66.9561 103.802 67.3261 108.028 67.5956 112.247C67.7265 114.303 68.8423 115.454 70.8519 115.472C75.1482 115.506 79.4483 115.468 83.7427 115.362C85.6897 115.312 86.1698 114.696 86.1717 112.767C86.1717 104.616 86.1698 96.4624 86.1698 88.311Z" fill="#3760E7"/>
<path d="M115.021 94.9243C115.021 100.991 115.025 107.058 115.019 113.126C115.017 115.631 114.072 116.604 111.527 116.636C108.777 116.672 106.026 116.64 103.276 116.659C101.855 116.668 100.428 116.814 99.0122 116.742C95.4123 116.562 94.2453 115.481 93.9739 111.959C93.7291 108.782 93.5204 105.594 93.5071 102.408C93.471 94.4767 93.5279 86.5453 93.6171 78.6159C93.6323 77.2143 93.8316 75.7767 94.2073 74.4283C94.6343 72.8959 95.7729 72.0481 97.4542 72.031C101.752 71.9893 106.049 71.8926 110.347 71.8736C113.294 71.8604 114.533 73.0931 114.632 76.0707C114.837 82.354 115.013 88.6372 115.201 94.9205C115.14 94.9224 115.082 94.9243 115.021 94.9243ZM113.821 95.1064C113.837 95.1064 113.852 95.1064 113.865 95.1064C113.865 93.811 113.897 92.5138 113.859 91.2185C113.71 86.1338 113.609 81.0472 113.343 75.9702C113.216 73.5274 112.546 73.0419 110.106 73.0609C105.935 73.0931 101.766 73.1671 97.5946 73.2202C96.5319 73.2335 95.7121 73.6886 95.4142 74.7071C95.1353 75.6629 94.9151 76.6738 94.9037 77.6638C94.8089 86.2912 94.7178 94.9186 94.7386 103.546C94.7462 106.474 95.029 109.408 95.2871 112.331C95.4958 114.698 96.382 115.451 98.7807 115.492C100.424 115.521 102.069 115.472 103.713 115.466C106.242 115.456 108.772 115.511 111.299 115.436C113.493 115.369 113.818 114.978 113.82 112.837C113.825 106.926 113.821 101.016 113.821 95.1064Z" fill="#3760E7"/>
<path d="M58.2818 97.7388C58.2818 102.89 58.2287 108.041 58.3065 113.188C58.3387 115.312 57.7429 116.541 54.8622 116.625C51.862 116.71 48.8561 116.653 45.8522 116.664C44.4308 116.67 43 116.807 41.5919 116.683C38.2995 116.397 37.326 115.432 37.0395 112.168C36.8079 109.53 36.6106 106.876 36.5992 104.231C36.5669 96.7431 36.6239 89.2536 36.6827 81.766C36.6922 80.6053 36.7814 79.42 37.0432 78.2953C37.4987 76.3381 38.698 75.3822 40.6867 75.3481C45.0153 75.2703 49.3438 75.259 53.6724 75.2286C54.05 75.2267 54.4315 75.2571 54.8072 75.2988C56.7485 75.5093 57.8093 76.8198 57.8871 79.1734C58.0939 85.36 58.2799 91.5484 58.4735 97.7369C58.4127 97.7369 58.3463 97.7388 58.2818 97.7388ZM57.0844 96.7109C57.0312 96.7109 56.9762 96.7109 56.9231 96.7109C56.9231 92.5081 56.9572 88.3072 56.9079 84.1045C56.887 82.2762 56.7314 80.446 56.5701 78.6215C56.443 77.1764 55.8509 76.6302 54.4068 76.4652C54.031 76.4215 53.6496 76.4272 53.2701 76.4329C49.1294 76.4879 44.9906 76.5486 40.8499 76.6017C39.3375 76.6207 38.5728 77.1783 38.2027 78.6405C38.0642 79.1867 37.9826 79.7614 37.9769 80.3228C37.9067 88.7909 37.7966 97.259 37.8289 105.727C37.8384 108.272 38.2483 110.816 38.4931 113.359C38.6031 114.504 39.3698 115.071 40.4097 115.288C41.053 115.422 41.7229 115.491 42.3813 115.491C45.1956 115.489 48.0079 115.453 50.8221 115.426C52.2738 115.411 53.7331 115.47 55.1772 115.346C56.8851 115.2 57.0825 114.916 57.0844 113.201C57.0882 107.709 57.0844 102.209 57.0844 96.7109Z" fill="#3760E7"/>
</g>
<defs>
<clipPath id="clip0_580_565">
<rect width="89" height="99" fill="white" transform="translate(30 22)"/>
</clipPath>
</defs>
</svg>
