<svg width="150" height="150" viewBox="0 0 150 150" fill="none" xmlns="http://www.w3.org/2000/svg">
<circle cx="75" cy="75" r="74.5" stroke="#3760E7"/>
<g clip-path="url(#clip0_580_558)">
<path d="M40.1805 96.561C43.0271 100.833 42.8421 104.904 39.7324 107.626C37.227 109.817 32.9272 109.671 30.1813 107.302C27.4826 104.972 27.1702 101.183 29.3386 97.7671C31.1534 94.9097 34.9846 93.6397 39.0706 95.7962C39.903 94.5695 40.7457 93.3305 41.5863 92.0915C42.3365 90.9844 43.1052 89.8876 43.8246 88.7599C44.359 87.9229 45.0722 87.5745 46.0587 87.593C48.1449 87.6301 50.2311 87.6054 52.4118 87.6054C49.7378 78.4436 51.3081 70.1848 57.3364 62.7114C56.8349 61.7384 56.358 60.6808 55.7661 59.6932C53.7251 56.2833 51.639 52.8982 49.5816 49.4986C48.741 48.1091 47.5941 47.4555 45.919 47.5586C44.0794 47.672 42.2255 47.5854 40.3223 47.5854C40.1702 48.2843 40.0674 48.9543 39.8742 49.5975C39.0932 52.1952 37.0564 54.0032 34.627 54.1723C31.6714 54.3784 29.1885 53.4177 27.6594 50.7582C25.8979 47.6988 27.6655 42.819 30.952 41.3882C34.4461 39.8667 38.6657 41.6933 39.8352 45.2888C40.0654 45.9959 40.3408 46.266 41.0972 46.2371C42.6715 46.1753 44.2521 46.2866 45.8224 46.2021C47.9949 46.0845 49.6042 46.9216 50.712 48.777C53.0633 52.7209 55.4146 56.6627 57.7639 60.6086C57.9509 60.922 58.1194 61.2477 58.3044 61.5837C68.9716 50.719 85.7062 52.156 94.7085 61.5549C97.1256 60.7055 97.4689 60.5756 97.1277 57.2152C96.99 55.8525 96.7002 54.5062 96.5193 53.1456C96.2953 51.4571 96.6817 49.9253 97.8738 48.6739C99.2919 47.1834 100.745 45.7258 102.194 44.2662C102.529 43.9281 102.913 43.6395 103.302 43.3055C103.103 43.089 103.022 42.988 102.928 42.9014C99.6722 39.9306 100.022 34.488 103.635 31.8904C106.14 30.0906 109.793 30.3586 112.177 32.5171C114.547 34.6653 115.052 38.3721 113.377 41.2996C111.747 44.1487 108.611 45.2743 105.291 44.1446C104.691 43.9405 104.323 43.9982 103.877 44.4621C102.379 46.0186 100.85 47.5483 99.2899 49.0409C97.8758 50.3954 97.6086 52.0282 97.9231 53.8589C98.1327 55.0752 98.3444 56.2936 98.4801 57.5203C98.813 60.5076 98.4225 61.2353 95.7753 62.6867C95.9459 62.9279 96.1 63.1712 96.2809 63.3959C103.32 72.2196 103.888 84.1068 97.6847 93.5346C97.3127 94.0995 97.2921 94.4994 97.5757 95.0994C98.4657 96.9899 99.2693 98.9195 100.12 100.827C101.499 103.917 103.879 105.424 107.26 105.36C108.728 105.333 110.198 105.356 111.725 105.356C111.881 104.77 112.012 104.1 112.236 103.465C113.223 100.676 115.755 99.2267 118.563 99.8143C121.255 100.377 123.136 102.729 123.058 105.436C122.971 108.44 120.939 110.741 118.086 111.06C115.632 111.337 112.937 109.768 112.076 107.465C111.858 106.881 111.571 106.785 111.034 106.762C108.952 106.671 106.862 106.62 104.794 106.383C102.62 106.133 100.94 104.923 99.8921 103.022C98.8377 101.107 97.9601 99.0927 97.0126 97.1197C96.7762 96.627 96.5707 96.1199 96.3466 95.6127C95.1299 96.7775 94.0077 97.9836 92.7539 99.0309C79.8957 109.753 60.4091 105.296 53.4703 90.036C53.0962 89.2155 52.6831 88.9331 51.7972 88.9661C49.9495 89.0362 48.0976 88.9991 46.2478 88.9578C45.5572 88.9434 45.1318 89.1784 44.7454 89.7701C43.247 92.0647 41.6953 94.3201 40.1805 96.561ZM93.7117 96.1817C99.2159 91.1349 102.474 81.3793 99.4749 72.0691C96.248 62.0497 86.8099 55.1618 76.4222 55.269C65.827 55.3783 56.469 62.4125 53.4703 72.5041C50.6216 82.0906 54.2595 91.7472 59.7267 96.5136C60.703 93.0707 62.1787 89.9 64.491 87.1519C69.5533 81.1361 77.2608 79.5363 83.9078 83.1729C87.8704 85.3417 90.6595 88.5991 92.4518 92.7244C92.9368 93.8438 93.2924 95.021 93.7117 96.1817ZM76.7346 103.595C82.282 103.535 87.4327 101.713 91.9153 98.0207C92.3614 97.6537 92.5628 97.3197 92.4066 96.7136C91.3727 92.6852 89.4366 89.2155 86.3002 86.4447C80.2081 81.066 72.0608 81.3237 66.3572 87.1044C63.6647 89.834 62.0677 93.1759 61.0216 96.8249C60.8325 97.4826 60.9538 97.866 61.4964 98.2928C65.9051 101.762 70.8995 103.531 76.7346 103.595ZM40.9163 101.925C40.9286 98.5237 38.5013 96.058 35.1285 96.0477C31.7392 96.0374 29.242 98.8288 29.2564 102.612C29.2666 105.461 31.9776 107.801 35.2908 107.822C38.5444 107.84 40.904 105.368 40.9163 101.925ZM107.388 32.08C104.262 32.0945 101.91 34.789 101.947 38.3164C101.976 41.0109 104.613 43.2519 107.752 43.2498C110.722 43.2498 113.036 40.7656 113.03 37.5845C113.028 34.387 110.646 32.0656 107.388 32.08ZM38.8466 47.47C38.8425 44.4167 36.5857 42.217 33.4677 42.2232C30.5307 42.2293 28.3315 44.7569 28.3356 48.1235C28.3376 50.7623 30.839 52.9229 33.8644 52.9002C36.7172 52.8817 38.8507 50.5541 38.8466 47.47ZM121.679 105.37C121.687 102.865 119.825 101.006 117.33 101.029C114.993 101.049 113.184 103.078 113.135 105.727C113.094 107.97 115.021 109.689 117.586 109.698C119.942 109.706 121.67 107.877 121.679 105.37Z" fill="#3760E7"/>
<path d="M76.7426 64.8904C80.7217 64.8986 83.8705 68.0941 83.8582 72.1081C83.8459 76.0354 80.6601 79.2145 76.7323 79.2227C72.7676 79.2309 69.5428 76.0107 69.5469 72.0442C69.5489 68.0735 72.7573 64.8821 76.7426 64.8904ZM76.7118 77.9033C79.8893 77.9053 82.5325 75.2706 82.5551 72.0772C82.5777 68.9146 79.9304 66.2222 76.7591 66.1851C73.5466 66.148 70.887 68.8198 70.8952 72.0792C70.9034 75.2933 73.5075 77.9012 76.7118 77.9033Z" fill="#3760E7"/>
</g>
<defs>
<clipPath id="clip0_580_558">
<rect width="104" height="87" fill="white" transform="translate(23 28)"/>
</clipPath>
</defs>
</svg>
