<svg width="575" height="310" viewBox="0 0 449 310" fill="none" xmlns="http://www.w3.org/2000/svg">
<g clip-path="url(#clip0_655_867)">
<rect x="-3527" width="3976" height="310" rx="20" fill="#3760E7"/>
<path d="M-86.1212 243C-99.2121 243 -111.414 240.893 -122.727 236.68C-133.879 232.304 -143.576 226.146 -151.818 218.204C-160.061 210.263 -166.525 200.945 -171.212 190.249C-175.737 179.552 -178 167.803 -178 155C-178 142.197 -175.737 130.448 -171.212 119.751C-166.525 109.055 -160.061 99.7366 -151.818 91.7956C-143.414 83.8545 -133.636 77.7772 -122.485 73.5635C-111.333 69.1878 -99.1313 67 -85.8788 67C-71.1717 67 -57.9192 69.593 -46.1212 74.779C-34.1616 79.8029 -24.1414 87.2578 -16.0606 97.1437L-41.2727 120.481C-47.0909 113.836 -53.5556 108.893 -60.6667 105.652C-67.7778 102.249 -75.5354 100.547 -83.9394 100.547C-91.8586 100.547 -99.1313 101.843 -105.758 104.436C-112.384 107.029 -118.121 110.757 -122.97 115.619C-127.818 120.481 -131.616 126.234 -134.364 132.878C-136.949 139.523 -138.242 146.897 -138.242 155C-138.242 163.103 -136.949 170.477 -134.364 177.122C-131.616 183.766 -127.818 189.519 -122.97 194.381C-118.121 199.243 -112.384 202.971 -105.758 205.564C-99.1313 208.157 -91.8586 209.453 -83.9394 209.453C-75.5354 209.453 -67.7778 207.832 -60.6667 204.591C-53.5556 201.188 -47.0909 196.083 -41.2727 189.276L-16.0606 212.613C-24.1414 222.499 -34.1616 230.035 -46.1212 235.221C-57.9192 240.407 -71.2525 243 -86.1212 243Z" fill="white"/>
<path d="M10.4602 240.083V69.9171H83.9148C99.1067 69.9171 112.198 72.4291 123.187 77.453C134.177 82.3149 142.662 89.3646 148.642 98.6022C154.622 107.84 157.612 118.86 157.612 131.663C157.612 144.304 154.622 155.243 148.642 164.481C142.662 173.556 134.177 180.525 123.187 185.387C112.198 190.249 99.1067 192.68 83.9148 192.68H32.2784L49.7329 175.42V240.083H10.4602ZM118.339 240.083L75.9148 178.337H117.854L160.763 240.083H118.339ZM49.7329 179.796L32.2784 161.32H81.7329C93.8542 161.32 102.905 158.727 108.884 153.541C114.864 148.193 117.854 140.901 117.854 131.663C117.854 122.263 114.864 114.971 108.884 109.785C102.905 104.599 93.8542 102.006 81.7329 102.006H32.2784L49.7329 83.2873V179.796Z" fill="white"/>
<path d="M188.727 240.083V69.9171H221.212L293.455 190.006H276.242L347.273 69.9171H379.515L380 240.083H343.151L342.909 126.558H349.697L292.97 222.094H275.273L217.333 126.558H225.576V240.083H188.727Z" fill="white"/>
<path d="M444 240.083L519.701 69.9171H558.522L634.466 240.083H593.219L531.105 89.8508H546.633L484.277 240.083H444ZM481.851 203.619L492.284 173.718H579.631L590.307 203.619H481.851Z" fill="white"/>
<path d="M652.087 240.083V69.9171H684.6L756.904 190.006H739.677L810.769 69.9171H843.039L843.524 240.083H806.644L806.401 126.558H813.195L756.419 222.094H738.707L680.718 126.558H688.967V240.083H652.087Z" fill="white"/>
<path d="M966.315 243C952.889 243 940.434 240.812 928.949 236.436C917.626 232.061 907.759 225.902 899.348 217.961C891.099 210.02 884.628 200.702 879.938 190.006C875.408 179.309 873.144 167.641 873.144 155C873.144 142.359 875.408 130.691 879.938 119.994C884.628 109.298 891.18 99.9797 899.591 92.0387C908.002 84.0976 917.869 77.9392 929.192 73.5635C940.515 69.1878 952.808 67 966.072 67C979.498 67 991.791 69.1878 1002.95 73.5635C1014.27 77.9392 1024.06 84.0976 1032.31 92.0387C1040.72 99.9797 1047.27 109.298 1051.96 119.994C1056.65 130.529 1059 142.197 1059 155C1059 167.641 1056.65 179.39 1051.96 190.249C1047.27 200.945 1040.72 210.263 1032.31 218.204C1024.06 225.983 1014.27 232.061 1002.95 236.436C991.791 240.812 979.578 243 966.315 243ZM966.072 209.453C973.674 209.453 980.63 208.157 986.938 205.564C993.408 202.971 999.07 199.243 1003.92 194.381C1008.78 189.519 1012.5 183.766 1015.08 177.122C1017.83 170.477 1019.21 163.103 1019.21 155C1019.21 146.897 1017.83 139.523 1015.08 132.878C1012.5 126.234 1008.78 120.481 1003.92 115.619C999.232 110.757 993.651 107.029 987.181 104.436C980.711 101.843 973.674 100.547 966.072 100.547C958.469 100.547 951.433 101.843 944.963 104.436C938.655 107.029 933.074 110.757 928.221 115.619C923.369 120.481 919.568 126.234 916.818 132.878C914.23 139.523 912.936 146.897 912.936 155C912.936 162.941 914.23 170.315 916.818 177.122C919.568 183.766 923.288 189.519 927.979 194.381C932.831 199.243 938.493 202.971 944.963 205.564C951.433 208.157 958.469 209.453 966.072 209.453Z" fill="white"/>
</g>
<rect x="-3526.5" y="0.5" width="3975" height="309" rx="19.5" stroke="#3760E7"/>
<defs>
<clipPath id="clip0_655_867">
<rect x="-3527" width="3976" height="310" rx="20" fill="white"/>
</clipPath>
</defs>
</svg>
