<svg width="70" height="72" viewBox="0 0 70 72" fill="none" xmlns="http://www.w3.org/2000/svg">
<path d="M35 71C15.75 71 0 55.25 0 36C0 16.75 15.75 1 35 1C54.25 1 70 16.75 70 36C70 55.25 54.25 71 35 71ZM35 3.5C17 3.5 2.5 18 2.5 36C2.5 54 17 68.5 35 68.5C53 68.5 67.5 54 67.5 36C67.5 18 53 3.5 35 3.5Z" fill="#3760E7"/>
<path d="M35 16C33 16 31.25 14.25 31.25 12.25C31.25 10.25 33 8.5 35 8.5C37 8.5 38.75 10.25 38.75 12.25C38.75 14.25 37 16 35 16ZM35 11C34.25 11 33.75 11.5 33.75 12.25C33.75 13 34.25 13.5 35 13.5C35.75 13.5 36.25 13 36.25 12.25C36.25 11.5 35.75 11 35 11ZM35 63.5C33 63.5 31.25 61.75 31.25 59.75V22.25C31.25 20.25 33 18.5 35 18.5C37 18.5 38.75 20.25 38.75 22.25V59.75C38.75 61.75 37 63.5 35 63.5ZM35 21C34.25 21 33.75 21.5 33.75 22.25V59.75C33.75 60.5 34.25 61 35 61C35.75 61 36.25 60.5 36.25 59.75V22.25C36.25 21.5 35.75 21 35 21Z" fill="#3760E7"/>
</svg>
