<svg width="80" height="80" viewBox="0 0 80 80" fill="none" xmlns="http://www.w3.org/2000/svg">
<path d="M39.9952 76.3281C30.342 76.3281 21.2525 72.5808 14.4006 65.7762C7.5458 58.9687 3.73595 49.8989 3.67267 40.2377C3.60924 30.5344 7.32814 21.387 14.1445 14.4808C20.961 7.57453 30.0589 3.73609 39.7624 3.67266C49.5027 3.60594 58.6903 7.3625 65.5992 14.2238C72.4541 21.0313 76.2641 30.1011 76.3274 39.7623C76.3908 49.4658 72.6717 58.613 65.8553 65.5192C59.0389 72.4255 49.941 76.2639 40.2375 76.3273C40.1569 76.328 40.0758 76.3281 39.9952 76.3281ZM40.0049 6.01563L39.7777 6.01641C21.0391 6.13906 5.89377 21.4838 6.01642 40.2223C6.13814 58.8389 21.381 73.9844 39.9952 73.9844L40.2224 73.9836C58.961 73.8609 74.1063 58.5163 73.9836 39.7777C73.8619 21.1613 58.6191 6.01563 40.0049 6.01563Z" fill="#3760E7"/>
<g clip-path="url(#clip0_630_2541)">
<path d="M26.875 59.25C30.2577 59.25 33 56.5077 33 53.125C33 49.7423 30.2577 47 26.875 47C23.4923 47 20.75 49.7423 20.75 53.125C20.75 56.5077 23.4923 59.25 26.875 59.25Z" stroke="#3760E7" stroke-width="2" stroke-linecap="round" stroke-linejoin="round"/>
<path d="M26.875 33C30.2577 33 33 30.2577 33 26.875C33 23.4923 30.2577 20.75 26.875 20.75C23.4923 20.75 20.75 23.4923 20.75 26.875C20.75 30.2577 23.4923 33 26.875 33Z" stroke="#3760E7" stroke-width="2" stroke-linecap="round" stroke-linejoin="round"/>
<path d="M26.875 33V47" stroke="#3760E7" stroke-width="2" stroke-linecap="round" stroke-linejoin="round"/>
<path d="M53.125 59.25C56.5077 59.25 59.25 56.5077 59.25 53.125C59.25 49.7423 56.5077 47 53.125 47C49.7423 47 47 49.7423 47 53.125C47 56.5077 49.7423 59.25 53.125 59.25Z" stroke="#3760E7" stroke-width="2" stroke-linecap="round" stroke-linejoin="round"/>
<path d="M53.1255 47L53.1252 38.224C53.1251 35.4394 52.0188 32.7688 50.0498 30.7998L41.75 22.5" stroke="#3760E7" stroke-width="2" stroke-linecap="round" stroke-linejoin="round"/>
<path d="M41.75 31.25V22.5H50.5" stroke="#3760E7" stroke-width="2" stroke-linecap="round" stroke-linejoin="round"/>
</g>
<defs>
<clipPath id="clip0_630_2541">
<rect width="56" height="56" fill="white" transform="translate(12 12)"/>
</clipPath>
</defs>
</svg>
