<svg width="80" height="80" viewBox="0 0 80 80" fill="none" xmlns="http://www.w3.org/2000/svg">
<rect width="80" height="80" fill="black"/>
<path d="M39.9952 76.3281C30.342 76.3281 21.2525 72.5808 14.4006 65.7762C7.5458 58.9687 3.73595 49.8989 3.67267 40.2377C3.60924 30.5344 7.32814 21.387 14.1445 14.4808C20.961 7.57453 30.0589 3.73609 39.7624 3.67266C49.5027 3.60594 58.6903 7.3625 65.5992 14.2238C72.4541 21.0312 76.2641 30.1011 76.3274 39.7623C76.3908 49.4658 72.6717 58.613 65.8553 65.5192C59.0389 72.4255 49.9409 76.2639 40.2375 76.3273C40.1569 76.328 40.0758 76.3281 39.9952 76.3281ZM40.0049 6.01563L39.7777 6.01641C21.0391 6.13906 5.89377 21.4838 6.01642 40.2223C6.13814 58.8389 21.381 73.9844 39.9952 73.9844L40.2224 73.9836C58.9609 73.8609 74.1063 58.5163 73.9836 39.7777C73.8619 21.1613 58.6191 6.01563 40.0049 6.01563Z" fill="#3760E7"/>
<path d="M28.0048 45.7642C28.0048 45.4643 28.1192 45.1643 28.3481 44.9356C28.8058 44.4779 29.5478 44.4779 30.0053 44.9356L35.0078 49.9383L49.9996 28.3432C50.4572 27.8856 51.1993 27.8856 51.6568 28.3432C52.1144 28.8009 52.1144 29.5429 51.6568 30.0004L35.8364 52.424C35.6167 52.6439 35.3186 52.7673 35.0078 52.7673C34.697 52.7673 34.3989 52.6439 34.1792 52.424L28.3481 46.5928C28.1194 46.364 28.0048 46.064 28.0048 45.7642Z" fill="url(#paint0_linear_630_2530)"/>
<rect width="25" height="21" transform="translate(49 56)" fill="black"/>
<path d="M61.4999 60V75M68.7918 67.2916L54 67.5" stroke="#3760E7" stroke-width="2" stroke-linecap="round" stroke-linejoin="round"/>
<defs>
<linearGradient id="paint0_linear_630_2530" x1="8.54148" y1="19.2783" x2="59.9174" y2="70.6541" gradientUnits="userSpaceOnUse">
<stop offset="0.895" stop-color="#3760E7"/>
</linearGradient>
</defs>
</svg>
