<svg width="80" height="80" viewBox="0 0 80 80" fill="none" xmlns="http://www.w3.org/2000/svg">
<path d="M39.9952 76.3281C30.342 76.3281 21.2525 72.5808 14.4006 65.7762C7.5458 58.9687 3.73595 49.8989 3.67267 40.2377C3.60924 30.5344 7.32814 21.387 14.1445 14.4808C20.961 7.57453 30.0589 3.73609 39.7624 3.67266C49.5027 3.60594 58.6903 7.3625 65.5992 14.2238C72.4541 21.0313 76.2641 30.1011 76.3274 39.7623C76.3908 49.4658 72.6717 58.613 65.8553 65.5192C59.0389 72.4255 49.941 76.2639 40.2375 76.3273C40.1569 76.328 40.0758 76.3281 39.9952 76.3281ZM40.0049 6.01563L39.7777 6.01641C21.0391 6.13906 5.89377 21.4838 6.01642 40.2223C6.13814 58.8389 21.381 73.9844 39.9952 73.9844L40.2224 73.9836C58.961 73.8609 74.1063 58.5163 73.9836 39.7777C73.8619 21.1613 58.6191 6.01563 40.0049 6.01563Z" fill="#3760E7"/>
<path d="M28.0618 57.3396C27.82 57.3396 27.5761 57.2651 27.3666 57.1104C26.8458 56.726 26.7354 55.9923 27.1199 55.4716L50.9913 23.1366C51.3757 22.6158 52.1094 22.5054 52.63 22.8899C53.1508 23.2743 53.2613 24.008 52.8768 24.5287L29.0055 56.8637C28.7757 57.1749 28.4211 57.3396 28.0618 57.3396Z" fill="#3760E7"/>
<path d="M28.0656 36.6669C27.7658 36.6669 27.4658 36.5526 27.237 36.3236L21.4058 30.4924C21.1859 30.2727 21.0625 29.9746 21.0625 29.6638C21.0625 29.353 21.1859 29.0549 21.4058 28.8352L27.237 23.0041C27.6947 22.5465 28.4367 22.5463 28.8942 23.0041C29.3519 23.4618 29.3519 24.2038 28.8942 24.6613L23.8916 29.6638L28.8942 34.6665C29.3519 35.1241 29.3519 35.8661 28.8942 36.3236C28.6655 36.5526 28.3656 36.6669 28.0656 36.6669Z" fill="url(#paint0_linear_630_2508)"/>
<path d="M51.9375 57.3396C51.6376 57.3396 51.3376 57.2252 51.1089 56.9963C50.6512 56.5387 50.6512 55.7966 51.1089 55.3391L56.1115 50.3366L51.1089 45.334C50.6512 44.8763 50.6512 44.1343 51.1089 43.6768C51.5665 43.2191 52.3086 43.2191 52.7661 43.6768L58.5973 49.508C58.8171 49.7277 58.9406 50.0258 58.9406 50.3366C58.9406 50.6474 58.8171 50.9455 58.5973 51.1652L52.7661 56.9963C52.5373 57.2251 52.2373 57.3396 51.9375 57.3396Z" fill="url(#paint1_linear_630_2508)"/>
<defs>
<linearGradient id="paint0_linear_630_2508" x1="3.17734" y1="54.5521" x2="54.5531" y2="3.1763" gradientUnits="userSpaceOnUse">
<stop offset="0.895" stop-color="#3760E7"/>
</linearGradient>
<linearGradient id="paint1_linear_630_2508" x1="25.4499" y1="76.8243" x2="76.8257" y2="25.4483" gradientUnits="userSpaceOnUse">
<stop offset="0.895" stop-color="#3760E7"/>
</linearGradient>
</defs>
</svg>
