<?xml version="1.0" encoding="UTF-8"?>
<svg id="_Слой_1" data-name="Слой_1" xmlns="http://www.w3.org/2000/svg" version="1.1" xmlns:xlink="http://www.w3.org/1999/xlink" viewBox="439.31 368.5 538.71 723.35" width="538.71" height="723.35">
  <!-- Generator: Adobe Illustrator 29.4.0, SVG Export Plug-In . SVG Version: 2.1.0 Build 152)  -->
  <defs>
    <style>
      .st0 {
        fill: url(#_Безымянный_градиент_112);
      }
.st2 {
        fill: url(#_Безымянный_градиент_11);
      }

      .st3 {
        fill: url(#_Безымянный_градиент_111);
      }
.st5 {
        fill: url(#_Безымянный_градиент_113);
      }
    </style>
    <linearGradient id="_Безымянный_градиент_11" data-name="Безымянный градиент 11" x1="439.44" y1="596.65" x2="978.02" y2="596.65" gradientUnits="userSpaceOnUse">
      <stop offset="0" stop-color="#07e3fb"/>
      <stop offset=".56" stop-color="#0368f8"/>
      <stop offset="1" stop-color="#7215ea"/>
    </linearGradient>
    <linearGradient id="_Безымянный_градиент_111" data-name="Безымянный градиент 11" x1="439.31" y1="817.1" x2="977.67" y2="817.1" xlink:href="#_Безымянный_градиент_11"/>
    <linearGradient id="_Безымянный_градиент_112" data-name="Безымянный градиент 11" x1="439.44" y1="918.02" x2="977.66" y2="918.02" xlink:href="#_Безымянный_градиент_11"/>
    <linearGradient id="_Безымянный_градиент_113" data-name="Безымянный градиент 11" x1="883.57" y1="817.23" x2="977.66" y2="817.23" xlink:href="#_Безымянный_градиент_11"/>
  </defs>
  <g>
    <path class="st2" d="M439.44,824.82v-66.3c70.24,14.98,138.38-11.53,204.73-31.24,1.58-8.92-.55-6.2-4.85-8.66-15.44-8.82-98.51-34.21-114.57-34.21h-85.3v-62.4h58.76c13.35,0,54.85,12.83,69.99,17.7,45.96,14.77,88.54,39.42,132.67,58.66l16.27-3.09,27.54-14.79c-95.28-52.96-192.11-123.55-305.23-120.89v-66.3c131.48,13.47,234.99,104.52,344.94,170.04l37.89-12.08c-123.41-77.8-235.46-194.06-382.83-220.36v-62.4c138.47,30.27,242.61,144.8,355.18,225.49,15.3,10.97,63.37,47.27,78.39,47.23,31.93-.07,71.05-18.34,105-1.35l-.21,21.17c-149.22-9.09-270.4,98.37-404.69,143.35-17.03,5.71-63.37,20.44-78.7,20.44h-54.97Z"/>
    <path class="st3" d="M439.31,954.22v-62.4c114.56,1.3,209.11-71.22,307.08-120.96.96-10.32-35.78-9.43-26.52-19.39,1.36-1.46,33.85-15.36,36.35-15.61,12.86-1.33,22.62,8.4,33.53,7.66,10.22-.69,29.45-11.37,35.64-15.17s-9.89-8.52-22.12-15.89c19.65-9.12,36.4-11.64,36.4-11.64l26.15,7.96s26.55-8.06,39.79-8.11l-18.95-15.52c33.71-8.7,58.65-6.19,90.99,6.03v25.15c-201.95,14.55-336.5,224.03-538.35,237.9Z"/>
    <path class="st0" d="M439.44,1091.85v-66.3c147-19.08,256.63-142.01,381.1-214.42,0,0,7.73-3.66,2.51-7.1-6.62-4.36-19.63-8.54-19.63-8.54,10.01-5.75,28.7-17.29,36.95-20.45,3.1-1.19,16.83,9.92,31.19,6.99,9.73-1.98,20.68-13.39,31.79-14.51l-16.55-7.23c24.4-22.68,60.12-16.12,90.85-11.63v23.82c-205.59,52.87-331.91,268.97-538.22,319.37Z"/>
    <path class="st5" d="M883.57,829.3c24.8-26.76,61.32-24.5,94.09-27.05v27.12c-30.78,3.74-63.31,3.82-94.09-.07Z"/>
  </g>
</svg>