<svg width="580" height="26" viewBox="0 0 580 26" fill="none" xmlns="http://www.w3.org/2000/svg">
<path d="M-0.000818265 22.3954L0.696252 8.09924C80.0855 15.208 157.533 13.2544 232.881 12.6682C234.765 10.832 232.324 11.3009 227.48 10.533C210.087 7.7786 116.277 -2.2833 98.089 -3.17013L1.4867 -7.8804L2.14277 -21.3356L68.6885 -18.0909C83.8073 -17.3537 130.671 -12.2955 147.766 -10.4094C199.66 -4.68667 247.623 2.97982 297.398 9.56536L315.856 9.7975L347.201 8.12912C239.853 -8.55189 130.935 -29.12 2.79894 -34.7929L3.49601 -49.0891C152.255 -38.9242 268.523 -13.5755 392.353 6.62388L435.39 6.11138C296.446 -17.4792 170.772 -48.7355 4.15208 -62.5443L4.80814 -75.9995C161.307 -61.8261 278.042 -31.3796 404.679 -7.76446C421.891 -4.55415 475.948 5.92756 492.959 6.74834C529.12 8.49642 573.616 6.71709 611.886 12.2553L611.425 16.8086C442.529 6.6086 304.163 23.0884 151.607 25.3719C132.26 25.6627 79.6251 26.2801 62.2639 25.4335L0.0103435 22.3981L-0.000818265 22.3954Z" fill="white"/>
</svg>
