<svg width="258" height="44" viewBox="0 0 258 44" fill="none" xmlns="http://www.w3.org/2000/svg">
<path d="M-52.975 43.7625L-53.124 27.0549C-12.5661 30.4686 26.687 23.4377 64.9227 18.1296C65.8142 15.8736 64.5914 16.57 62.1051 15.9722C53.1773 13.8289 5.19393 7.85784 -4.07171 7.94042L-53.2847 8.37907L-53.4248 -7.34577L-19.5239 -7.64794C-11.8217 -7.71659 12.1501 -4.69683 20.8959 -3.54745C47.4452 -0.0617431 72.0667 5.9311 97.5702 10.5527L106.95 9.69031L122.806 5.82161C67.716 -7.03437 11.6924 -24.3252 -53.565 -23.0731L-53.7139 -39.7807C22.1723 -37.0624 82.0958 -14.6501 145.677 1.29558L167.511 -1.94344C96.1358 -20.9145 31.2285 -49.6358 -53.8541 -55.5056L-53.9943 -71.2304C25.9625 -64.3144 86.3023 -35.9883 151.43 -16.2333C160.281 -13.5475 188.096 -4.64713 196.762 -4.73445C215.183 -4.91628 237.712 -9.72151 257.338 -5.61462L257.264 -0.278671C171.153 -1.802 101.48 25.9011 24.1043 37.9267C14.2919 39.4532 -12.4104 43.4035 -21.2549 43.4823L-52.9693 43.765L-52.975 43.7625Z" fill="#3760E7"/>
</svg>
