<svg width="315" height="117" viewBox="0 0 315 117" fill="none" xmlns="http://www.w3.org/2000/svg">
<path d="M24.041 208.796L20.548 198.961C87.8421 177.564 150.962 150.719 212.745 125.484C213.771 123.63 211.898 124.749 207.697 125.83C192.613 129.714 112.623 153.88 97.4171 159.281L16.653 187.964L13.3655 178.707L69.0008 158.948C81.6409 154.459 121.61 142.408 136.202 138.039C180.496 124.776 222.11 114.114 264.907 102.129L280.149 96.2001L305.445 84.7455C212.442 108.928 117.042 131.016 10.0774 169.448L6.58445 159.613C131.782 117.4 234.585 96.1006 342.14 68.8485L377.379 54.3155C256.433 84.272 144.216 104.703 3.29693 150.356L0.00941969 141.099C132.711 99.028 237.347 81 348.182 55.1173C363.246 51.5999 410.673 40.8209 424.892 35.7643C455.12 25.0172 491.197 9.15241 524.237 0.256782L525.154 3.46794C383.39 52.2961 274.315 108.985 149.536 160.814C133.712 167.388 90.6127 185.155 76.0979 190.31L24.0509 208.794L24.041 208.796Z" fill="white"/>
</svg>
