<svg width="218" height="214" viewBox="0 0 218 214" fill="none" xmlns="http://www.w3.org/2000/svg">
<g clip-path="url(#clip0_600_3514)">
<rect width="218" height="213.725" rx="17.8105" transform="matrix(-1 0 0 1 218 -0.712891)" fill="#D8E3FD"/>
<path d="M84.0625 260.746C231.533 162.076 196.981 60.1997 172.759 94.3958C153.381 121.753 253.499 90.3588 305.981 71.2422" stroke="#3760E7" stroke-width="4.27451"/>
<path d="M35.5079 148.652L29.0961 160.621H26.4459L28.3267 157.116H26.9589L22.0859 148.652H24.9071L28.9252 155.663H29.0961L32.8577 148.652H35.5079ZM48.843 148.652V160.621H46.3638V149.935H39.3536V160.621H36.8744V148.652H48.843ZM57.3894 148.652C58.2443 148.652 59.008 148.749 59.6805 148.943C60.3644 149.126 60.9401 149.399 61.4074 149.764C61.8748 150.117 62.2338 150.556 62.4846 151.08C62.7354 151.593 62.8608 152.18 62.8608 152.841C62.8608 153.503 62.7354 154.095 62.4846 154.62C62.2338 155.133 61.8748 155.571 61.4074 155.936C60.9401 156.29 60.3644 156.563 59.6805 156.757C59.008 156.939 58.2443 157.031 57.3894 157.031H53.7133V160.621H51.2341V148.652H57.3894ZM53.7133 149.935V155.748H57.3894C58.2899 155.748 58.9852 155.514 59.4753 155.047C59.9769 154.568 60.2277 153.833 60.2277 152.841C60.2277 151.85 59.9769 151.12 59.4753 150.653C58.9852 150.174 58.2899 149.935 57.3894 149.935H53.7133ZM66.7031 156.432H72.0035L69.4388 150.106H69.2678L66.7031 156.432ZM71.3196 148.652L76.1925 160.621H73.7304L72.602 157.714H66.1047L64.9762 160.621H62.5141L67.3871 148.652H71.3196ZM77.5657 148.652H83.3791C84.2568 148.652 85.0148 148.732 85.6531 148.892C86.3028 149.04 86.8386 149.257 87.2603 149.542C87.6821 149.815 87.9955 150.146 88.2007 150.533C88.4059 150.921 88.5085 151.348 88.5085 151.816C88.5085 152.42 88.3375 152.944 87.9955 153.389C87.6536 153.833 87.1406 154.164 86.4567 154.38C87.3116 154.551 87.9784 154.888 88.4572 155.389C88.9473 155.879 89.1924 156.512 89.1924 157.287C89.1924 158.313 88.7649 159.128 87.91 159.732C87.0665 160.325 85.7272 160.621 83.892 160.621H77.5657V148.652ZM80.0449 155.15V159.339H83.892C84.7469 159.339 85.4023 159.168 85.8583 158.826C86.3142 158.484 86.5422 157.971 86.5422 157.287C86.5422 156.557 86.3142 156.022 85.8583 155.68C85.4023 155.326 84.7469 155.15 83.892 155.15H80.0449ZM83.3791 153.867C85.0319 153.867 85.8583 153.183 85.8583 151.816C85.8583 151.211 85.6474 150.75 85.2256 150.431C84.8153 150.1 84.1998 149.935 83.3791 149.935H80.0449V153.867H83.3791ZM89.8683 159.595H90.3812C90.7232 159.595 91.0253 159.453 91.2874 159.168C91.5496 158.883 91.7035 158.398 91.7491 157.714L92.3475 148.652H102.521V160.621H100.042V149.935H94.6558L94.1428 157.714C94.063 158.831 93.7496 159.641 93.2024 160.142C92.6667 160.632 91.9258 160.878 90.9797 160.878C90.6833 160.878 90.4211 160.849 90.1932 160.792C90.0678 160.769 89.9595 160.741 89.8683 160.707V159.595ZM107.395 149.935V153.867H113.636V155.15H107.395V159.339H115.346V160.621H104.916V148.652H115.346V149.935H107.395ZM129.023 148.652V160.621H126.544V155.406H119.534V160.621H117.055V148.652H119.534V154.124H126.544V148.652H129.023ZM141.246 160.621V150.875H141.075L134.663 160.621H131.415V148.652H133.894V158.398H134.065L140.476 148.652H143.725V160.621H141.246ZM145.612 160.621L148.433 156.586C147.578 156.255 146.923 155.777 146.467 155.15C146.011 154.523 145.783 153.753 145.783 152.841C145.783 152.18 145.908 151.593 146.159 151.08C146.41 150.556 146.769 150.117 147.236 149.764C147.704 149.399 148.274 149.126 148.946 148.943C149.63 148.749 150.399 148.652 151.254 148.652H157.41V160.621H154.93V157.031H151.254H150.947L148.433 160.621H145.612ZM151.254 149.935C150.354 149.935 149.658 150.174 149.168 150.653C148.678 151.12 148.433 151.85 148.433 152.841C148.433 153.833 148.678 154.568 149.168 155.047C149.658 155.514 150.354 155.748 151.254 155.748H154.93V149.935H151.254ZM29.6091 174.44C30.4868 174.44 31.2562 174.525 31.9173 174.696C32.5784 174.867 33.1313 175.112 33.5758 175.432C34.0204 175.751 34.3509 176.133 34.5675 176.577C34.7955 177.01 34.9095 177.495 34.9095 178.031C34.9095 178.566 34.7955 179.056 34.5675 179.501C34.3509 179.934 34.0204 180.31 33.5758 180.629C33.1313 180.949 32.5784 181.194 31.9173 181.365C31.2562 181.536 30.4868 181.621 29.6091 181.621H23.2828V169.652H33.5416V170.935H25.762V174.44H29.6091ZM25.762 175.722V180.339H29.6091C30.4298 180.339 31.0738 180.139 31.5412 179.74C32.0199 179.33 32.2593 178.76 32.2593 178.031C32.2593 177.301 32.0199 176.737 31.5412 176.338C31.0738 175.927 30.4298 175.722 29.6091 175.722H25.762ZM46.5388 181.621V171.875H46.3678L39.9561 181.621H36.7074V169.652H39.1866V179.398H39.3576L45.7694 169.652H49.018V181.621H46.5388ZM56.2052 170.593C55.3845 170.593 54.6151 170.713 53.897 170.952C53.1903 171.18 52.512 171.573 51.8623 172.132L51.0929 171.106C51.7426 170.547 52.5177 170.108 53.4182 169.789C54.3187 169.47 55.3047 169.311 56.3762 169.311C57.2539 169.311 58.0233 169.39 58.6844 169.55C59.3455 169.709 59.8984 169.932 60.3429 170.217C60.7875 170.502 61.118 170.838 61.3346 171.225C61.5626 171.613 61.6766 172.029 61.6766 172.474C61.6766 173.203 61.4999 173.807 61.1465 174.286C60.7932 174.753 60.2289 175.118 59.4538 175.38C60.3087 175.597 60.9756 175.962 61.4543 176.475C61.9444 176.976 62.1895 177.637 62.1895 178.458C62.1895 178.948 62.0698 179.41 61.8305 179.843C61.6025 180.265 61.2377 180.635 60.7362 180.954C60.246 181.262 59.6134 181.507 58.8383 181.689C58.0632 181.872 57.1285 181.963 56.0342 181.963C54.9172 181.963 53.8856 181.786 52.9395 181.433C52.0048 181.08 51.2126 180.601 50.5629 179.997L51.4178 178.971C52.0675 179.575 52.7571 180.014 53.4866 180.287C54.2161 180.55 55.0083 180.681 55.8632 180.681C56.5244 180.681 57.0886 180.624 57.556 180.51C58.0233 180.384 58.3995 180.213 58.6844 179.997C58.9808 179.78 59.1974 179.529 59.3341 179.244C59.4709 178.948 59.5393 178.629 59.5393 178.287C59.5393 177.603 59.3227 177.079 58.8896 176.714C58.4564 176.338 57.7896 176.15 56.8891 176.15H53.2985V174.867H56.5472C58.2 174.867 59.0264 174.126 59.0264 172.645C59.0264 172.04 58.7813 171.55 58.2912 171.174C57.801 170.787 57.1057 170.593 56.2052 170.593ZM76.1264 169.652V181.621H73.6472V176.406H66.637V181.621H64.1578V169.652H66.637V175.124H73.6472V169.652H76.1264ZM80.9967 170.935V174.867H87.2375V176.15H80.9967V180.339H88.9473V181.621H78.5175V169.652H88.9473V170.935H80.9967ZM96.978 180.681C97.7531 180.681 98.494 180.55 99.2008 180.287C99.9189 180.014 100.603 179.575 101.253 178.971L102.107 179.997C101.458 180.601 100.671 181.08 99.7479 181.433C98.8246 181.786 97.8443 181.963 96.807 181.963C95.7356 181.963 94.7667 181.826 93.9004 181.553C93.0455 181.279 92.3103 180.874 91.6947 180.339C91.0906 179.803 90.6232 179.142 90.2927 178.355C89.9621 177.569 89.7968 176.663 89.7968 175.637C89.7968 174.611 89.9564 173.705 90.2756 172.918C90.6061 172.132 91.0678 171.471 91.6605 170.935C92.2647 170.399 92.9885 169.994 93.832 169.721C94.6755 169.447 95.6102 169.311 96.6361 169.311C97.6733 169.311 98.6536 169.487 99.5769 169.841C100.5 170.194 101.287 170.673 101.936 171.277L101.082 172.303C100.432 171.699 99.7479 171.265 99.0298 171.003C98.3231 170.73 97.5821 170.593 96.807 170.593C96.1915 170.593 95.6159 170.695 95.0801 170.901C94.5444 171.094 94.0828 171.396 93.6952 171.807C93.3076 172.217 92.9999 172.742 92.7719 173.38C92.5553 174.007 92.447 174.759 92.447 175.637C92.447 176.514 92.5553 177.272 92.7719 177.911C92.9999 178.538 93.3133 179.056 93.7123 179.467C94.1226 179.877 94.6014 180.185 95.1485 180.39C95.7071 180.584 96.3169 180.681 96.978 180.681ZM109.627 170.507C109.045 170.507 108.498 170.61 107.985 170.815C107.484 171.02 107.045 171.334 106.669 171.756C106.292 172.177 105.99 172.713 105.762 173.363C105.546 174.001 105.438 174.759 105.438 175.637C105.438 176.514 105.546 177.278 105.762 177.928C105.99 178.566 106.292 179.096 106.669 179.518C107.045 179.94 107.484 180.253 107.985 180.458C108.498 180.664 109.045 180.766 109.627 180.766C110.208 180.766 110.749 180.664 111.251 180.458C111.764 180.253 112.208 179.94 112.585 179.518C112.961 179.096 113.257 178.566 113.474 177.928C113.702 177.278 113.816 176.514 113.816 175.637C113.816 174.759 113.702 174.001 113.474 173.363C113.257 172.713 112.961 172.177 112.585 171.756C112.208 171.334 111.764 171.02 111.251 170.815C110.749 170.61 110.208 170.507 109.627 170.507ZM109.627 169.311C110.652 169.311 111.581 169.447 112.414 169.721C113.257 169.994 113.975 170.399 114.568 170.935C115.172 171.471 115.639 172.132 115.97 172.918C116.3 173.705 116.466 174.611 116.466 175.637C116.466 176.663 116.3 177.569 115.97 178.355C115.639 179.142 115.172 179.803 114.568 180.339C113.975 180.874 113.257 181.279 112.414 181.553C111.581 181.826 110.652 181.963 109.627 181.963C108.601 181.963 107.666 181.826 106.822 181.553C105.979 181.279 105.255 180.874 104.651 180.339C104.058 179.803 103.597 179.142 103.266 178.355C102.947 177.569 102.787 176.663 102.787 175.637C102.787 174.611 102.947 173.705 103.266 172.918C103.597 172.132 104.058 171.471 104.651 170.935C105.255 170.399 105.979 169.994 106.822 169.721C107.666 169.447 108.601 169.311 109.627 169.311ZM126.646 179.911H126.817L131.262 169.652H134.938V181.621H132.459V172.046H132.288L128.185 181.621H125.278L121.174 172.046H121.003V181.621H118.524V169.652H122.2L126.646 179.911Z" fill="#3760E7"/>
<path d="M23.4538 119.028C23.9097 119.028 24.3277 118.816 24.7076 118.39C25.1028 117.965 25.3308 117.379 25.3916 116.635L26.3035 104.78H39.07V119.028H41.0078V124.386H38.2721L37.8161 120.738H25.5055L25.0496 124.386H22.3139V119.028H23.4538ZM28.5832 116.635C28.5528 117.03 28.454 117.379 28.2868 117.683C28.1196 117.987 27.9373 118.238 27.7397 118.436C27.5117 118.679 27.2609 118.876 26.9874 119.028H35.7644V106.49H29.3811L28.5832 116.635ZM42.3783 119.37H43.0622C43.5181 119.37 43.9209 119.18 44.2705 118.801C44.62 118.421 44.8252 117.775 44.886 116.863L45.6839 104.78H59.2483V120.738H55.9427V106.49H48.7615L48.0776 116.863C47.9712 118.352 47.5533 119.431 46.8238 120.1C46.1095 120.753 45.1216 121.08 43.8601 121.08C43.465 121.08 43.1154 121.042 42.8114 120.966C42.6442 120.936 42.4999 120.898 42.3783 120.852V119.37ZM61.7578 120.738L65.5194 115.358C64.3795 114.917 63.5056 114.279 62.8977 113.443C62.2898 112.607 61.9858 111.581 61.9858 110.365C61.9858 109.484 62.153 108.701 62.4874 108.017C62.8217 107.318 63.3005 106.733 63.9236 106.262C64.5467 105.776 65.3066 105.411 66.2033 105.168C67.1152 104.909 68.1411 104.78 69.281 104.78H77.488V120.738H74.1824V115.951H69.281H68.8706L65.5194 120.738H61.7578ZM69.281 106.49C68.0803 106.49 67.1532 106.809 66.4997 107.447C65.8462 108.071 65.5194 109.043 65.5194 110.365C65.5194 111.688 65.8462 112.668 66.4997 113.306C67.1532 113.929 68.0803 114.241 69.281 114.241H74.1824V106.49H69.281Z" fill="#3760E7"/>
<path d="M26.4459 53.8442H31.7463L29.1816 47.5179H29.0106L26.4459 53.8442ZM31.0624 46.0646L35.9353 58.0332H33.4732L32.3448 55.1265H25.8475L24.719 58.0332H22.2569L27.1299 46.0646H31.0624ZM49.2772 46.0646V58.0332H46.7979V52.8183H39.7877V58.0332H37.3085V46.0646H39.7877V51.5359H46.7979V46.0646H49.2772ZM54.8314 53.8442H60.1317L57.567 47.5179H57.3961L54.8314 53.8442ZM59.4478 46.0646L64.3208 58.0332H61.8586L60.7302 55.1265H54.2329L53.1044 58.0332H50.6423L55.5153 46.0646H59.4478ZM64.839 57.0073H65.352C65.6939 57.0073 65.996 56.8648 66.2582 56.5799C66.5204 56.2949 66.6742 55.8105 66.7198 55.1265L67.3183 46.0646H77.4916V58.0332H75.0124V47.3469H69.6265L69.1136 55.1265C69.0338 56.2436 68.7203 57.0529 68.1732 57.5545C67.6374 58.0446 66.8965 58.2897 65.9504 58.2897C65.6541 58.2897 65.3919 58.2612 65.1639 58.2042C65.0385 58.1814 64.9302 58.1529 64.839 58.1187V57.0073ZM89.718 58.0332V48.2873H89.547L83.1353 58.0332H79.8867V46.0646H82.3659V55.8105H82.5369L88.9486 46.0646H92.1972V58.0332H89.718ZM105.283 47.3469H100.667V58.0332H98.1876V47.3469H93.5711V46.0646H105.283V47.3469ZM116.484 58.0332V48.2873H116.313L109.901 58.0332H106.652V46.0646H109.132V55.8105H109.303L115.714 46.0646H118.963V58.0332H116.484ZM129.057 51.9634L133.588 58.0332H130.767L126.834 52.7328H123.842V58.0332H121.363V46.0646H123.842V51.4505H126.663L130.596 46.0646H133.331L129.057 51.9634ZM138.117 53.8442H143.418L140.853 47.5179H140.682L138.117 53.8442ZM142.734 46.0646L147.607 58.0332H145.145L144.016 55.1265H137.519L136.391 58.0332H133.928L138.801 46.0646H142.734ZM33.1142 79.0332V69.2873H32.9432L26.5314 79.0332H23.2828V67.0646H25.762V76.8105H25.933L32.3448 67.0646H35.5934V79.0332H33.1142ZM50.468 67.9195C49.8867 67.9195 49.3395 68.0221 48.8266 68.2272C48.3251 68.4324 47.8862 68.7459 47.5101 69.1676C47.1339 69.5894 46.8318 70.1251 46.6039 70.7749C46.3873 71.4132 46.279 72.1712 46.279 73.0489C46.279 73.9266 46.3873 74.6903 46.6039 75.34C46.8318 75.9784 47.1339 76.5084 47.5101 76.9301C47.8862 77.3519 48.3251 77.6654 48.8266 77.8705C49.3395 78.0757 49.8867 78.1783 50.468 78.1783C51.0493 78.1783 51.5908 78.0757 52.0923 77.8705C52.6053 77.6654 53.0498 77.3519 53.426 76.9301C53.8021 76.5084 54.0985 75.9784 54.3151 75.34C54.543 74.6903 54.657 73.9266 54.657 73.0489C54.657 72.1712 54.543 71.4132 54.3151 70.7749C54.0985 70.1251 53.8021 69.5894 53.426 69.1676C53.0498 68.7459 52.6053 68.4324 52.0923 68.2272C51.5908 68.0221 51.0493 67.9195 50.468 67.9195ZM50.468 66.7226C51.4939 66.7226 52.4229 66.8594 53.255 67.133C54.0985 67.4065 54.8166 67.8112 55.4093 68.3469C56.0135 68.8827 56.4808 69.5438 56.8114 70.3303C57.1419 71.1168 57.3072 72.023 57.3072 73.0489C57.3072 74.0748 57.1419 74.981 56.8114 75.7675C56.4808 76.554 56.0135 77.2151 55.4093 77.7509C54.8166 78.2866 54.0985 78.6912 53.255 78.9648C52.4229 79.2384 51.4939 79.3752 50.468 79.3752C49.4421 79.3752 48.5074 79.2384 47.6639 78.9648C46.8204 78.6912 46.0966 78.2866 45.4925 77.7509C44.8998 77.2151 44.4381 76.554 44.1075 75.7675C43.7884 74.981 43.6288 74.0748 43.6288 73.0489C43.6288 72.023 43.7884 71.1168 44.1075 70.3303C44.4381 69.5438 44.8998 68.8827 45.4925 68.3469C46.0966 67.8112 46.8204 67.4065 47.6639 67.133C48.5074 66.8594 49.4421 66.7226 50.468 66.7226ZM68.8497 68.3469H64.2333V79.0332H61.7541V68.3469H57.1376V67.0646H68.8497V68.3469ZM75.5193 75.1007C74.5162 75.1007 73.6556 75.0209 72.9375 74.8613C72.2308 74.7017 71.6495 74.468 71.1935 74.1603C70.7376 73.8525 70.4013 73.4706 70.1847 73.0147C69.9795 72.5587 69.877 72.0287 69.877 71.4246V67.0646H72.3562V71.4246C72.3562 72.2339 72.5955 72.838 73.0743 73.237C73.553 73.6245 74.368 73.8183 75.5193 73.8183H78.7679V67.0646H81.2472V79.0332H78.7679V75.1007H75.5193ZM86.1228 68.3469V72.2795H92.3635V73.5618H86.1228V77.7509H94.0734V79.0332H83.6435V67.0646H94.0734V68.3469H86.1228ZM106.469 68.3469H101.852V79.0332H99.3731V68.3469H94.7566V67.0646H106.469V68.3469ZM123.312 79.0332H120.832V67.0646H123.312V79.0332ZM113.822 71.5101C115.578 71.5101 116.9 71.852 117.789 72.5359C118.678 73.2085 119.123 74.1204 119.123 75.2716C119.123 76.4229 118.678 77.3405 117.789 78.0244C116.9 78.6969 115.578 79.0332 113.822 79.0332H107.838V67.0646H110.317V71.5101H113.822ZM110.317 72.7924V77.7509H113.822C114.643 77.7509 115.287 77.5457 115.754 77.1353C116.233 76.7136 116.472 76.0923 116.472 75.2716C116.472 74.4509 116.233 73.8354 115.754 73.425C115.287 73.0033 114.643 72.7924 113.822 72.7924H110.317Z" fill="#3760E7"/>
<path d="M103.93 4.39881V0.999128C107.546 1.76726 111.055 0.407902 114.472 -0.60277C114.553 -1.06016 114.443 -0.920691 114.222 -1.04683C113.427 -1.4991 109.149 -2.80102 108.322 -2.80102H103.93V-6.00072H106.956C107.643 -6.00072 109.78 -5.34283 110.56 -5.09311C112.926 -4.33575 115.119 -3.07177 117.391 -2.0852L118.229 -2.24364L119.647 -3.00203C114.741 -5.71767 109.755 -9.33733 103.93 -9.20093V-12.6006C110.7 -11.9099 116.03 -7.24111 121.692 -3.88143L123.643 -4.50086C117.288 -8.49023 111.519 -14.4517 103.93 -15.8003V-19C111.06 -17.4478 116.423 -11.5751 122.219 -7.43751C123.007 -6.87499 125.482 -5.01363 126.256 -5.01569C127.9 -5.01927 129.914 -5.95611 131.662 -5.08491L131.651 -3.99937C123.968 -4.46548 117.728 1.04476 110.813 3.35121C109.936 3.644 107.55 4.39932 106.761 4.39932H103.93L103.93 4.39881Z" fill="#3760E7"/>
<path d="M103.063 11.3319V7.97957C109.149 8.04941 114.172 4.15337 119.376 1.48116C119.427 0.926728 117.476 0.974544 117.967 0.439457C118.04 0.36102 119.766 -0.385737 119.898 -0.399168C120.582 -0.47062 121.1 0.0521092 121.68 0.0123537C122.223 -0.0247157 123.244 -0.598483 123.573 -0.802633C123.902 -1.00678 123.048 -1.26036 122.398 -1.6563C123.442 -2.14626 124.332 -2.28165 124.332 -2.28165L125.721 -1.854C125.721 -1.854 127.131 -2.28702 127.835 -2.2897L126.828 -3.12349C128.619 -3.59089 129.944 -3.45604 131.662 -2.79954V-1.44839C120.933 -0.666713 113.786 10.5873 103.062 11.3325L103.063 11.3319Z" fill="#3760E7"/>
<path d="M103.063 18.2656V14.7948C110.874 13.796 116.699 7.36073 123.313 3.57013C123.313 3.57013 123.724 3.37854 123.447 3.19846C123.095 2.97021 122.404 2.75139 122.404 2.75139C122.936 2.45039 123.929 1.84628 124.367 1.68086C124.532 1.61856 125.261 2.20016 126.024 2.04678C126.541 1.94313 127.123 1.34582 127.714 1.28719L126.834 0.908708C128.131 -0.27857 130.029 0.06484 131.662 0.299887V1.54684C120.737 4.31454 114.025 15.6272 103.062 18.2656H103.063Z" fill="#3760E7"/>
<path d="M127.328 5.01449C128.47 2.6912 130.152 2.88741 131.661 2.66602V5.02056C130.244 5.34527 128.746 5.35222 127.328 5.01449Z" fill="#3760E7"/>
<path d="M159.395 4.39881V0.999128C155.778 1.76726 152.269 0.407902 148.853 -0.60277C148.771 -1.06016 148.881 -0.920691 149.102 -1.04683C149.897 -1.4991 154.175 -2.80102 155.002 -2.80102H159.394V-6.00072H156.368C155.681 -6.00072 153.544 -5.34283 152.764 -5.09311C150.398 -4.33575 148.205 -3.07177 145.933 -2.0852L145.095 -2.24364L143.677 -3.00203C148.583 -5.71767 153.569 -9.33733 159.394 -9.20093V-12.6006C152.624 -11.9099 147.294 -7.24111 141.632 -3.88143L139.681 -4.50086C146.036 -8.49023 151.806 -14.4517 159.394 -15.8003V-19C152.264 -17.4478 146.902 -11.5751 141.105 -7.43751C140.317 -6.87499 137.842 -5.01363 137.069 -5.01569C135.425 -5.01927 133.41 -5.95611 131.662 -5.08491L131.673 -3.99937C139.356 -4.46548 145.596 1.04476 152.511 3.35121C153.388 3.644 155.774 4.39932 156.564 4.39932H159.394L159.395 4.39881Z" fill="#3760E7"/>
<path d="M159.394 11.3319V7.97957C153.493 8.04941 148.622 4.15337 143.575 1.48116C143.526 0.926728 145.418 0.974544 144.941 0.439457C144.871 0.36102 143.198 -0.385737 143.069 -0.399168C142.406 -0.47062 141.903 0.0521092 141.341 0.0123537C140.815 -0.0247157 139.824 -0.598483 139.506 -0.802633C139.187 -1.00678 140.015 -1.26036 140.645 -1.6563C139.633 -2.14626 138.77 -2.28165 138.77 -2.28165L137.423 -1.854C137.423 -1.854 136.055 -2.28702 135.373 -2.2897L136.349 -3.12349C134.613 -3.59089 133.328 -3.45604 131.662 -2.79954V-1.44839C142.065 -0.666713 148.996 10.5873 159.395 11.3325L159.394 11.3319Z" fill="#3760E7"/>
<path d="M159.394 18.2656V14.7948C151.82 13.796 146.171 7.36073 139.757 3.57013C139.757 3.57013 139.359 3.37854 139.628 3.19846C139.969 2.97021 140.639 2.75139 140.639 2.75139C140.124 2.45039 139.161 1.84628 138.736 1.68086C138.576 1.61856 137.868 2.20016 137.128 2.04678C136.627 1.94313 136.063 1.34582 135.49 1.28719L136.343 0.908708C135.086 -0.27857 133.245 0.06484 131.662 0.299887V1.54684C142.255 4.31454 148.764 15.6272 159.395 18.2656H159.394Z" fill="#3760E7"/>
<path d="M136.863 5.01449C135.493 2.6912 133.474 2.88741 131.663 2.66602V5.02056C133.364 5.34527 135.162 5.35222 136.863 5.01449Z" fill="#3760E7"/>
<path d="M103.93 4.39881V0.999128C107.546 1.76726 111.055 0.407902 114.472 -0.60277C114.553 -1.06016 114.443 -0.920691 114.222 -1.04683C113.427 -1.4991 109.149 -2.80102 108.322 -2.80102H103.93V-6.00072H106.956C107.643 -6.00072 109.78 -5.34283 110.56 -5.09311C112.926 -4.33575 115.119 -3.07177 117.391 -2.0852L118.229 -2.24364L119.647 -3.00203C114.741 -5.71767 109.755 -9.33733 103.93 -9.20093V-12.6006C110.7 -11.9099 116.03 -7.24111 121.692 -3.88143L123.643 -4.50086C117.288 -8.49023 111.519 -14.4517 103.93 -15.8003V-19C111.06 -17.4478 116.423 -11.5751 122.219 -7.43751C123.007 -6.87499 125.482 -5.01363 126.256 -5.01569C127.9 -5.01927 129.914 -5.95611 131.662 -5.08491L131.651 -3.99937C123.968 -4.46548 117.728 1.04476 110.813 3.35121C109.936 3.644 107.55 4.39932 106.761 4.39932H103.93L103.93 4.39881Z" fill="#3760E7"/>
<path d="M103.063 11.3319V7.97957C109.149 8.04941 114.172 4.15337 119.376 1.48116C119.427 0.926728 117.476 0.974544 117.967 0.439457C118.04 0.36102 119.766 -0.385737 119.898 -0.399168C120.582 -0.47062 121.1 0.0521092 121.68 0.0123537C122.223 -0.0247157 123.244 -0.598483 123.573 -0.802633C123.902 -1.00678 123.048 -1.26036 122.398 -1.6563C123.442 -2.14626 124.332 -2.28165 124.332 -2.28165L125.721 -1.854C125.721 -1.854 127.131 -2.28702 127.835 -2.2897L126.828 -3.12349C128.619 -3.59089 129.944 -3.45604 131.662 -2.79954V-1.44839C120.933 -0.666713 113.786 10.5873 103.062 11.3325L103.063 11.3319Z" fill="#3760E7"/>
<path d="M103.063 18.2656V14.7948C110.874 13.796 116.699 7.36073 123.313 3.57013C123.313 3.57013 123.724 3.37854 123.447 3.19846C123.095 2.97021 122.404 2.75139 122.404 2.75139C122.936 2.45039 123.929 1.84628 124.367 1.68086C124.532 1.61856 125.261 2.20016 126.024 2.04678C126.541 1.94313 127.123 1.34582 127.714 1.28719L126.834 0.908708C128.131 -0.27857 130.029 0.06484 131.662 0.299887V1.54684C120.737 4.31454 114.025 15.6272 103.062 18.2656H103.063Z" fill="#3760E7"/>
<path d="M127.328 5.01449C128.47 2.6912 130.152 2.88741 131.661 2.66602V5.02056C130.244 5.34527 128.746 5.35222 127.328 5.01449Z" fill="#3760E7"/>
<path d="M159.395 4.39881V0.999128C155.778 1.76726 152.269 0.407902 148.853 -0.60277C148.771 -1.06016 148.881 -0.920691 149.102 -1.04683C149.897 -1.4991 154.175 -2.80102 155.002 -2.80102H159.394V-6.00072H156.368C155.681 -6.00072 153.544 -5.34283 152.764 -5.09311C150.398 -4.33575 148.205 -3.07177 145.933 -2.0852L145.095 -2.24364L143.677 -3.00203C148.583 -5.71767 153.569 -9.33733 159.394 -9.20093V-12.6006C152.624 -11.9099 147.294 -7.24111 141.632 -3.88143L139.681 -4.50086C146.036 -8.49023 151.806 -14.4517 159.394 -15.8003V-19C152.264 -17.4478 146.902 -11.5751 141.105 -7.43751C140.317 -6.87499 137.842 -5.01363 137.069 -5.01569C135.425 -5.01927 133.41 -5.95611 131.662 -5.08491L131.673 -3.99937C139.356 -4.46548 145.596 1.04476 152.511 3.35121C153.388 3.644 155.774 4.39932 156.564 4.39932H159.394L159.395 4.39881Z" fill="#3760E7"/>
<path d="M159.394 11.3319V7.97957C153.493 8.04941 148.622 4.15337 143.575 1.48116C143.526 0.926728 145.418 0.974544 144.941 0.439457C144.871 0.36102 143.198 -0.385737 143.069 -0.399168C142.406 -0.47062 141.903 0.0521092 141.341 0.0123537C140.815 -0.0247157 139.824 -0.598483 139.506 -0.802633C139.187 -1.00678 140.015 -1.26036 140.645 -1.6563C139.633 -2.14626 138.77 -2.28165 138.77 -2.28165L137.423 -1.854C137.423 -1.854 136.055 -2.28702 135.373 -2.2897L136.349 -3.12349C134.613 -3.59089 133.328 -3.45604 131.662 -2.79954V-1.44839C142.065 -0.666713 148.996 10.5873 159.395 11.3325L159.394 11.3319Z" fill="#3760E7"/>
<path d="M159.394 18.2656V14.7948C151.82 13.796 146.171 7.36073 139.757 3.57013C139.757 3.57013 139.359 3.37854 139.628 3.19846C139.969 2.97021 140.639 2.75139 140.639 2.75139C140.124 2.45039 139.161 1.84628 138.736 1.68086C138.576 1.61856 137.868 2.20016 137.128 2.04678C136.627 1.94313 136.063 1.34582 135.49 1.28719L136.343 0.908708C135.086 -0.27857 133.245 0.06484 131.662 0.299887V1.54684C142.255 4.31454 148.764 15.6272 159.395 18.2656H159.394Z" fill="#3760E7"/>
<path d="M136.863 5.01449C135.493 2.6912 133.474 2.88741 131.663 2.66602V5.02056C133.364 5.34527 135.162 5.35222 136.863 5.01449Z" fill="#3760E7"/>
<path d="M57.1328 4.39881V0.999128C60.7496 1.76726 64.2583 0.407902 67.6748 -0.60277C67.7561 -1.06016 67.6464 -0.920691 67.425 -1.04683C66.63 -1.4991 62.3525 -2.80102 61.5256 -2.80102H57.1333V-6.00072H60.159C60.8464 -6.00072 62.9833 -5.34283 63.7629 -5.09311C66.1295 -4.33575 68.322 -3.07177 70.5943 -2.0852L71.4321 -2.24364L72.8502 -3.00203C67.9441 -5.71767 62.9581 -9.33733 57.1333 -9.20093V-12.6006C63.9035 -11.9099 69.2334 -7.24111 74.895 -3.88143L76.846 -4.50086C70.4914 -8.49023 64.7217 -14.4517 57.1333 -15.8003V-19C64.2634 -17.4478 69.6258 -11.5751 75.4222 -7.43751C76.2101 -6.87499 78.6853 -5.01363 79.4587 -5.01569C81.1028 -5.01927 83.1172 -5.95611 84.8653 -5.08491L84.8545 -3.99937C77.1709 -4.46548 70.9311 1.04476 64.0163 3.35121C63.1393 3.644 60.7532 4.39932 59.9638 4.39932H57.1333L57.1328 4.39881Z" fill="#3760E7"/>
<path d="M56.2662 11.3319V7.97957C62.352 8.04941 67.3749 4.15337 72.5794 1.48116C72.6304 0.926728 70.6786 0.974544 71.1706 0.439457C71.2428 0.36102 72.9688 -0.385737 73.1016 -0.399168C73.7848 -0.47062 74.3033 0.0521092 74.8828 0.0123537C75.4258 -0.0247157 76.4473 -0.598483 76.7762 -0.802633C77.105 -1.00678 76.2508 -1.26036 75.6011 -1.6563C76.645 -2.14626 77.5348 -2.28165 77.5348 -2.28165L78.924 -1.854C78.924 -1.854 80.3344 -2.28702 81.0378 -2.2897L80.0311 -3.12349C81.8219 -3.59089 83.1468 -3.45604 84.8648 -2.79954V-1.44839C74.1365 -0.666713 66.9887 10.5873 56.2656 11.3325L56.2662 11.3319Z" fill="#3760E7"/>
<path d="M56.2662 18.2656V14.7948C64.0772 13.796 69.9026 7.36073 76.5165 3.57013C76.5165 3.57013 76.9272 3.37854 76.6499 3.19846C76.2981 2.97021 75.6068 2.75139 75.6068 2.75139C76.1387 2.45039 77.1318 1.84628 77.5702 1.68086C77.7349 1.61856 78.4645 2.20016 79.2275 2.04678C79.7445 1.94313 80.3264 1.34582 80.9167 1.28719L80.0373 0.908708C81.3339 -0.27857 83.2319 0.06484 84.8648 0.299887V1.54684C73.9404 4.31454 67.2282 15.6272 56.2656 18.2656H56.2662Z" fill="#3760E7"/>
<path d="M80.5312 5.09833C81.6734 3.54947 83.3553 3.68028 84.8645 3.53268V5.10238C83.4469 5.31885 81.9488 5.32349 80.5312 5.09833Z" fill="#3760E7"/>
<path d="M112.598 4.39881V0.999128C108.981 1.76726 105.472 0.407902 102.056 -0.60277C101.974 -1.06016 102.084 -0.920691 102.305 -1.04683C103.1 -1.4991 107.378 -2.80102 108.205 -2.80102H112.597V-6.00072H109.571C108.884 -6.00072 106.747 -5.34283 105.968 -5.09311C103.601 -4.33575 101.408 -3.07177 99.1361 -2.0852L98.2983 -2.24364L96.8803 -3.00203C101.786 -5.71767 106.772 -9.33733 112.597 -9.20093V-12.6006C105.827 -11.9099 100.497 -7.24111 94.8355 -3.88143L92.8845 -4.50086C99.2391 -8.49023 105.009 -14.4517 112.597 -15.8003V-19C105.467 -17.4478 100.105 -11.5751 94.3082 -7.43751C93.5204 -6.87499 91.0452 -5.01363 90.2718 -5.01569C88.6276 -5.01927 86.6133 -5.95611 84.8651 -5.08491L84.8759 -3.99937C92.5596 -4.46548 98.7994 1.04476 105.714 3.35121C106.591 3.644 108.977 4.39932 109.767 4.39932H112.597L112.598 4.39881Z" fill="#3760E7"/>
<path d="M112.597 11.3319V7.97957C106.696 8.04941 101.825 4.15337 96.7782 1.48116C96.7288 0.926728 98.6214 0.974544 98.1444 0.439457C98.0743 0.36102 96.4006 -0.385737 96.2719 -0.399168C95.6094 -0.47062 95.1066 0.0521092 94.5446 0.0123537C94.0181 -0.0247157 93.0275 -0.598483 92.7086 -0.802633C92.3898 -1.00678 93.2181 -1.26036 93.8481 -1.6563C92.8359 -2.14626 91.973 -2.28165 91.973 -2.28165L90.6259 -1.854C90.6259 -1.854 89.2582 -2.28702 88.5762 -2.2897L89.5524 -3.12349C87.8158 -3.59089 86.5311 -3.45604 84.8651 -2.79954V-1.44839C95.2684 -0.666713 102.2 10.5873 112.598 11.3325L112.597 11.3319Z" fill="#3760E7"/>
<path d="M112.597 18.2656V14.7948C105.023 13.796 99.3739 7.36073 92.9604 3.57013C92.9604 3.57013 92.5621 3.37854 92.8311 3.19846C93.1722 2.97021 93.8426 2.75139 93.8426 2.75139C93.3268 2.45039 92.3638 1.84628 91.9387 1.68086C91.7789 1.61856 91.0715 2.20016 90.3316 2.04678C89.8302 1.94313 89.266 1.34582 88.6935 1.28719L89.5463 0.908708C88.2891 -0.27857 86.4485 0.06484 84.8651 0.299887V1.54684C95.4584 4.31454 101.967 15.6272 112.598 18.2656H112.597Z" fill="#3760E7"/>
<path d="M90.0625 5.09833C88.6919 3.54947 86.6737 3.68028 84.8627 3.53268V5.10238C86.5637 5.31885 88.3615 5.32349 90.0625 5.09833Z" fill="#3760E7"/>
<path d="M11.1992 4.39881V0.999128C14.816 1.76726 18.3247 0.407902 21.7412 -0.60277C21.8225 -1.06016 21.7128 -0.920691 21.4914 -1.04683C20.6964 -1.4991 16.419 -2.80102 15.592 -2.80102H11.1997V-6.00072H14.2254C14.9128 -6.00072 17.0497 -5.34283 17.8293 -5.09311C20.1959 -4.33575 22.3884 -3.07177 24.6608 -2.0852L25.4985 -2.24364L26.9166 -3.00203C22.0105 -5.71767 17.0245 -9.33733 11.1997 -9.20093V-12.6006C17.9699 -11.9099 23.2998 -7.24111 28.9614 -3.88143L30.9124 -4.50086C24.5578 -8.49023 18.7881 -14.4517 11.1997 -15.8003V-19C18.3298 -17.4478 23.6922 -11.5751 29.4886 -7.43751C30.2765 -6.87499 32.7517 -5.01363 33.5251 -5.01569C35.1692 -5.01927 37.1836 -5.95611 38.9317 -5.08491L38.9209 -3.99937C31.2373 -4.46548 24.9975 1.04476 18.0827 3.35121C17.2058 3.644 14.8196 4.39932 14.0302 4.39932H11.1997L11.1992 4.39881Z" fill="#3760E7"/>
<path d="M10.3326 11.3319V7.97957C16.4184 8.04941 21.4413 4.15337 26.6458 1.48116C26.6968 0.926728 24.745 0.974544 25.237 0.439457C25.3092 0.36102 27.0352 -0.385737 27.168 -0.399168C27.8512 -0.47062 28.3697 0.0521092 28.9492 0.0123537C29.4922 -0.0247157 30.5137 -0.598483 30.8426 -0.802633C31.1714 -1.00678 30.3172 -1.26036 29.6675 -1.6563C30.7114 -2.14626 31.6012 -2.28165 31.6012 -2.28165L32.9904 -1.854C32.9904 -1.854 34.4008 -2.28702 35.1042 -2.2897L34.0975 -3.12349C35.8883 -3.59089 37.2132 -3.45604 38.9312 -2.79954V-1.44839C28.2029 -0.666713 21.0551 10.5873 10.332 11.3325L10.3326 11.3319Z" fill="#3760E7"/>
<path d="M10.3326 18.2656V14.7948C18.1436 13.796 23.969 7.36073 30.5829 3.57013C30.5829 3.57013 30.9937 3.37854 30.7163 3.19846C30.3645 2.97021 29.6732 2.75139 29.6732 2.75139C30.2051 2.45039 31.1982 1.84628 31.6366 1.68086C31.8013 1.61856 32.5309 2.20016 33.2939 2.04678C33.811 1.94313 34.3928 1.34582 34.9832 1.28719L34.1037 0.908708C35.4003 -0.27857 37.2983 0.06484 38.9312 0.299887V1.54684C28.0069 4.31454 21.2946 15.6272 10.332 18.2656H10.3326Z" fill="#3760E7"/>
<path d="M34.5977 5.09833C35.7398 3.54947 37.4217 3.68028 38.9309 3.53268V5.10238C37.5133 5.31885 36.0152 5.32349 34.5977 5.09833Z" fill="#3760E7"/>
<path d="M67.5312 4.39881V0.999128C63.8014 1.76726 60.1831 0.407902 56.6599 -0.60277C56.576 -1.06016 56.6891 -0.920691 56.9174 -1.04683C57.7373 -1.4991 62.1484 -2.80102 63.0012 -2.80102H67.5307V-6.00072H64.4105C63.7016 -6.00072 61.4979 -5.34283 60.694 -5.09311C58.2534 -4.33575 55.9924 -3.07177 53.649 -2.0852L52.7851 -2.24364L51.3227 -3.00203C56.3822 -5.71767 61.5239 -9.33733 67.5307 -9.20093V-12.6006C60.549 -11.9099 55.0525 -7.24111 49.214 -3.88143L47.202 -4.50086C53.7552 -8.49023 59.7052 -14.4517 67.5307 -15.8003V-19C60.1778 -17.4478 54.6479 -11.5751 48.6703 -7.43751C47.8578 -6.87499 45.3053 -5.01363 44.5077 -5.01569C42.8122 -5.01927 40.7349 -5.95611 38.9321 -5.08491L38.9432 -3.99937C46.867 -4.46548 53.3018 1.04476 60.4327 3.35121C61.337 3.644 63.7977 4.39932 64.6118 4.39932H67.5307L67.5312 4.39881Z" fill="#3760E7"/>
<path d="M67.5307 11.3319V7.97957C61.4449 8.04941 56.422 4.15337 51.2175 1.48116C51.1665 0.926728 53.1182 0.974544 52.6263 0.439457C52.5541 0.36102 50.8281 -0.385737 50.6953 -0.399168C50.0121 -0.47062 49.4936 0.0521092 48.914 0.0123537C48.3711 -0.0247157 47.3495 -0.598483 47.0207 -0.802633C46.6919 -1.00678 47.5461 -1.26036 48.1958 -1.6563C47.1519 -2.14626 46.2621 -2.28165 46.2621 -2.28165L44.8729 -1.854C44.8729 -1.854 43.4625 -2.28702 42.7591 -2.2897L43.7658 -3.12349C41.975 -3.59089 40.6501 -3.45604 38.9321 -2.79954V-1.44839C49.6604 -0.666713 56.8082 10.5873 67.5312 11.3325L67.5307 11.3319Z" fill="#3760E7"/>
<path d="M67.5307 18.2656V14.7948C59.7196 13.796 53.8943 7.36073 47.2804 3.57013C47.2804 3.57013 46.8696 3.37854 47.147 3.19846C47.4988 2.97021 48.1901 2.75139 48.1901 2.75139C47.6582 2.45039 46.665 1.84628 46.2267 1.68086C46.0619 1.61856 45.3324 2.20016 44.5693 2.04678C44.0523 1.94313 43.4705 1.34582 42.8801 1.28719L43.7595 0.908708C42.463 -0.27857 40.565 0.06484 38.9321 0.299887V1.54684C49.8564 4.31454 56.5686 15.6272 67.5312 18.2656H67.5307Z" fill="#3760E7"/>
<path d="M44.1328 5.09833C42.7623 3.54947 40.744 3.68028 38.933 3.53268V5.10238C40.634 5.31885 42.4318 5.32349 44.1328 5.09833Z" fill="#3760E7"/>
<path d="M11.1992 4.39881V0.999128C14.816 1.76726 18.3247 0.407902 21.7412 -0.60277C21.8225 -1.06016 21.7128 -0.920691 21.4914 -1.04683C20.6964 -1.4991 16.419 -2.80102 15.592 -2.80102H11.1997V-6.00072H14.2254C14.9128 -6.00072 17.0497 -5.34283 17.8293 -5.09311C20.1959 -4.33575 22.3884 -3.07177 24.6608 -2.0852L25.4985 -2.24364L26.9166 -3.00203C22.0105 -5.71767 17.0245 -9.33733 11.1997 -9.20093V-12.6006C17.9699 -11.9099 23.2998 -7.24111 28.9614 -3.88143L30.9124 -4.50086C24.5578 -8.49023 18.7881 -14.4517 11.1997 -15.8003V-19C18.3298 -17.4478 23.6922 -11.5751 29.4886 -7.43751C30.2765 -6.87499 32.7517 -5.01363 33.5251 -5.01569C35.1692 -5.01927 37.1836 -5.95611 38.9317 -5.08491L38.9209 -3.99937C31.2373 -4.46548 24.9975 1.04476 18.0827 3.35121C17.2058 3.644 14.8196 4.39932 14.0302 4.39932H11.1997L11.1992 4.39881Z" fill="#3760E7"/>
<path d="M10.3326 11.3319V7.97957C16.4184 8.04941 21.4413 4.15337 26.6458 1.48116C26.6968 0.926728 24.745 0.974544 25.237 0.439457C25.3092 0.36102 27.0352 -0.385737 27.168 -0.399168C27.8512 -0.47062 28.3697 0.0521092 28.9492 0.0123537C29.4922 -0.0247157 30.5137 -0.598483 30.8426 -0.802633C31.1714 -1.00678 30.3172 -1.26036 29.6675 -1.6563C30.7114 -2.14626 31.6012 -2.28165 31.6012 -2.28165L32.9904 -1.854C32.9904 -1.854 34.4008 -2.28702 35.1042 -2.2897L34.0975 -3.12349C35.8883 -3.59089 37.2132 -3.45604 38.9312 -2.79954V-1.44839C28.2029 -0.666713 21.0551 10.5873 10.332 11.3325L10.3326 11.3319Z" fill="#3760E7"/>
<path d="M10.3326 18.2656V14.7948C18.1436 13.796 23.969 7.36073 30.5829 3.57013C30.5829 3.57013 30.9937 3.37854 30.7163 3.19846C30.3645 2.97021 29.6732 2.75139 29.6732 2.75139C30.2051 2.45039 31.1982 1.84628 31.6366 1.68086C31.8013 1.61856 32.5309 2.20016 33.2939 2.04678C33.811 1.94313 34.3928 1.34582 34.9832 1.28719L34.1037 0.908708C35.4003 -0.27857 37.2983 0.06484 38.9312 0.299887V1.54684C28.0069 4.31454 21.2946 15.6272 10.332 18.2656H10.3326Z" fill="#3760E7"/>
<path d="M34.5977 5.09833C35.7398 3.54947 37.4217 3.68028 38.9309 3.53268V5.10238C37.5133 5.31885 36.0152 5.32349 34.5977 5.09833Z" fill="#3760E7"/>
<path d="M67.5312 4.39881V0.999128C63.8014 1.76726 60.1831 0.407902 56.6599 -0.60277C56.576 -1.06016 56.6891 -0.920691 56.9174 -1.04683C57.7373 -1.4991 62.1484 -2.80102 63.0012 -2.80102H67.5307V-6.00072H64.4105C63.7016 -6.00072 61.4979 -5.34283 60.694 -5.09311C58.2534 -4.33575 55.9924 -3.07177 53.649 -2.0852L52.7851 -2.24364L51.3227 -3.00203C56.3822 -5.71767 61.5239 -9.33733 67.5307 -9.20093V-12.6006C60.549 -11.9099 55.0525 -7.24111 49.214 -3.88143L47.202 -4.50086C53.7552 -8.49023 59.7052 -14.4517 67.5307 -15.8003V-19C60.1778 -17.4478 54.6479 -11.5751 48.6703 -7.43751C47.8578 -6.87499 45.3053 -5.01363 44.5077 -5.01569C42.8122 -5.01927 40.7349 -5.95611 38.9321 -5.08491L38.9432 -3.99937C46.867 -4.46548 53.3018 1.04476 60.4327 3.35121C61.337 3.644 63.7977 4.39932 64.6118 4.39932H67.5307L67.5312 4.39881Z" fill="#3760E7"/>
<path d="M67.5307 11.3319V7.97957C61.4449 8.04941 56.422 4.15337 51.2175 1.48116C51.1665 0.926728 53.1182 0.974544 52.6263 0.439457C52.5541 0.36102 50.8281 -0.385737 50.6953 -0.399168C50.0121 -0.47062 49.4936 0.0521092 48.914 0.0123537C48.3711 -0.0247157 47.3495 -0.598483 47.0207 -0.802633C46.6919 -1.00678 47.5461 -1.26036 48.1958 -1.6563C47.1519 -2.14626 46.2621 -2.28165 46.2621 -2.28165L44.8729 -1.854C44.8729 -1.854 43.4625 -2.28702 42.7591 -2.2897L43.7658 -3.12349C41.975 -3.59089 40.6501 -3.45604 38.9321 -2.79954V-1.44839C49.6604 -0.666713 56.8082 10.5873 67.5312 11.3325L67.5307 11.3319Z" fill="#3760E7"/>
<path d="M67.5307 18.2656V14.7948C59.7196 13.796 53.8943 7.36073 47.2804 3.57013C47.2804 3.57013 46.8696 3.37854 47.147 3.19846C47.4988 2.97021 48.1901 2.75139 48.1901 2.75139C47.6582 2.45039 46.665 1.84628 46.2267 1.68086C46.0619 1.61856 45.3324 2.20016 44.5693 2.04678C44.0523 1.94313 43.4705 1.34582 42.8801 1.28719L43.7595 0.908708C42.463 -0.27857 40.565 0.06484 38.9321 0.299887V1.54684C49.8564 4.31454 56.5686 15.6272 67.5312 18.2656H67.5307Z" fill="#3760E7"/>
<path d="M44.1328 5.09833C42.7623 3.54947 40.744 3.68028 38.933 3.53268V5.10238C40.634 5.31885 42.4318 5.32349 44.1328 5.09833Z" fill="#3760E7"/>
<path d="M20.7305 4.39881V0.999128C17.1137 1.76726 13.605 0.407902 10.1885 -0.60277C10.1072 -1.06016 10.2168 -0.920691 10.4383 -1.04683C11.2333 -1.4991 15.5107 -2.80102 16.3377 -2.80102H20.73L20.73 -6.00072H17.7043C17.0169 -6.00072 14.88 -5.34283 14.1004 -5.09311C11.7338 -4.33575 9.54127 -3.07177 7.26893 -2.0852L6.43116 -2.24364L5.01307 -3.00203C9.91922 -5.71767 14.9052 -9.33733 20.73 -9.20093V-12.6006C13.9598 -11.9099 8.62987 -7.24111 2.96833 -3.88143L1.0173 -4.50086C7.37191 -8.49023 13.1416 -14.4517 20.73 -15.8003V-19C13.5999 -17.4478 8.2375 -11.5751 2.44105 -7.43751C1.65322 -6.87499 -0.821997 -5.01363 -1.59541 -5.01569C-3.23954 -5.01927 -5.25391 -5.95611 -7.00206 -5.08491L-6.99124 -3.99937C0.692387 -4.46548 6.93218 1.04476 13.847 3.35121C14.7239 3.644 17.1101 4.39932 17.8994 4.39932H20.73L20.7305 4.39881Z" fill="#3760E7"/>
<path d="M20.73 11.3319L20.73 7.97957C14.8285 8.04941 9.95787 4.15337 4.91105 1.48116C4.8616 0.926728 6.75422 0.974544 6.2772 0.439457C6.20715 0.36102 4.53346 -0.385737 4.40467 -0.399168C3.7422 -0.47062 3.23943 0.0521092 2.67741 0.0123537C2.15094 -0.0247157 1.16032 -0.598483 0.841454 -0.802633C0.522581 -1.00678 1.35093 -1.26036 1.98094 -1.6563C0.968693 -2.14626 0.105833 -2.28165 0.105833 -2.28165L-1.24125 -1.854C-1.24125 -1.854 -2.60895 -2.28702 -3.29099 -2.2897L-2.31481 -3.12349C-4.05134 -3.59089 -5.3361 -3.45604 -7.00206 -2.79954V-1.44839C3.40118 -0.666713 10.3324 10.5873 20.7305 11.3325L20.73 11.3319Z" fill="#3760E7"/>
<path d="M20.73 18.2656V14.7948C13.1556 13.796 7.50674 7.36073 1.09325 3.57013C1.09325 3.57013 0.694956 3.37854 0.963924 3.19846C1.30503 2.97021 1.97538 2.75139 1.97538 2.75139C1.4596 2.45039 0.496576 1.84628 0.0714836 1.68086C-0.0882473 1.61856 -0.795702 2.20016 -1.53562 2.04678C-2.03697 1.94313 -2.60119 1.34582 -3.17365 1.28719L-2.32088 0.908708C-3.57812 -0.27857 -5.41865 0.06484 -7.00206 0.299887V1.54684C3.59125 4.31454 10.1001 15.6272 20.7305 18.2656H20.73Z" fill="#3760E7"/>
<path d="M198.773 4.61884V1.21916C202.39 1.98729 205.899 0.627934 209.315 -0.382738C209.397 -0.840132 209.287 -0.700659 209.066 -0.826801C208.271 -1.27907 203.993 -2.58099 203.166 -2.58099H198.774V-5.78069H201.8C202.487 -5.78069 204.624 -5.1228 205.404 -4.87308C207.77 -4.11572 209.963 -2.85174 212.235 -1.86516L213.073 -2.02361L214.491 -2.782C209.585 -5.49764 204.599 -9.11729 198.774 -8.9809V-12.3806C205.544 -11.6899 210.874 -7.02108 216.536 -3.6614L218.487 -4.28083C212.132 -8.2702 206.362 -14.2317 198.774 -15.5803V-18.78C205.904 -17.2278 211.266 -11.355 217.063 -7.21747C217.851 -6.65496 220.326 -4.7936 221.099 -4.79565C222.743 -4.79924 224.758 -5.73608 226.506 -4.86488L226.495 -3.77934C218.812 -4.24545 212.572 1.2648 205.657 3.57124C204.78 3.86404 202.394 4.61935 201.604 4.61935H198.774L198.773 4.61884Z" fill="#3760E7"/>
<path d="M197.907 11.5519V8.1996C203.993 8.26944 209.015 4.3734 214.22 1.70119C214.271 1.14676 212.319 1.19458 212.811 0.659489C212.883 0.581052 214.609 -0.165705 214.742 -0.179136C215.425 -0.250588 215.944 0.272141 216.523 0.232385C217.066 0.195316 218.088 -0.378451 218.417 -0.582601C218.746 -0.786751 217.891 -1.04033 217.242 -1.43627C218.286 -1.92623 219.175 -2.06161 219.175 -2.06161L220.565 -1.63397C220.565 -1.63397 221.975 -2.06698 222.678 -2.06967L221.672 -2.90346C223.462 -3.37086 224.787 -3.23601 226.505 -2.57951V-1.22836C215.777 -0.446681 208.629 10.8073 197.906 11.5525L197.907 11.5519Z" fill="#3760E7"/>
<path d="M197.907 18.4856V15.0149C205.718 14.0161 211.543 7.58079 218.157 3.7902C218.157 3.7902 218.568 3.5986 218.291 3.41852C217.939 3.19028 217.247 2.97146 217.247 2.97146C217.779 2.67045 218.772 2.06634 219.211 1.90092C219.376 1.83862 220.105 2.42022 220.868 2.26684C221.385 2.16319 221.967 1.56588 222.557 1.50725L221.678 1.12877C222.974 -0.0585076 224.873 0.284902 226.505 0.51995V1.7669C215.581 4.5346 208.869 15.8472 197.906 18.4856H197.907Z" fill="#3760E7"/>
<path d="M198.773 4.61884V1.21916C202.39 1.98729 205.899 0.627934 209.315 -0.382738C209.397 -0.840132 209.287 -0.700659 209.066 -0.826801C208.271 -1.27907 203.993 -2.58099 203.166 -2.58099H198.774V-5.78069H201.8C202.487 -5.78069 204.624 -5.1228 205.404 -4.87308C207.77 -4.11572 209.963 -2.85174 212.235 -1.86516L213.073 -2.02361L214.491 -2.782C209.585 -5.49764 204.599 -9.11729 198.774 -8.9809V-12.3806C205.544 -11.6899 210.874 -7.02108 216.536 -3.6614L218.487 -4.28083C212.132 -8.2702 206.362 -14.2317 198.774 -15.5803V-18.78C205.904 -17.2278 211.266 -11.355 217.063 -7.21747C217.851 -6.65496 220.326 -4.7936 221.099 -4.79565C222.743 -4.79924 224.758 -5.73608 226.506 -4.86488L226.495 -3.77934C218.812 -4.24545 212.572 1.2648 205.657 3.57124C204.78 3.86404 202.394 4.61935 201.604 4.61935H198.774L198.773 4.61884Z" fill="#3760E7"/>
<path d="M197.907 11.5519V8.1996C203.993 8.26944 209.015 4.3734 214.22 1.70119C214.271 1.14676 212.319 1.19458 212.811 0.659489C212.883 0.581052 214.609 -0.165705 214.742 -0.179136C215.425 -0.250588 215.944 0.272141 216.523 0.232385C217.066 0.195316 218.088 -0.378451 218.417 -0.582601C218.746 -0.786751 217.891 -1.04033 217.242 -1.43627C218.286 -1.92623 219.175 -2.06161 219.175 -2.06161L220.565 -1.63397C220.565 -1.63397 221.975 -2.06698 222.678 -2.06967L221.672 -2.90346C223.462 -3.37086 224.787 -3.23601 226.505 -2.57951V-1.22836C215.777 -0.446681 208.629 10.8073 197.906 11.5525L197.907 11.5519Z" fill="#3760E7"/>
<path d="M197.907 18.4856V15.0149C205.718 14.0161 211.543 7.58079 218.157 3.7902C218.157 3.7902 218.568 3.5986 218.291 3.41852C217.939 3.19028 217.247 2.97146 217.247 2.97146C217.779 2.67045 218.772 2.06634 219.211 1.90092C219.376 1.83862 220.105 2.42022 220.868 2.26684C221.385 2.16319 221.967 1.56588 222.557 1.50725L221.678 1.12877C222.974 -0.0585076 224.873 0.284902 226.505 0.51995V1.7669C215.581 4.5346 208.869 15.8472 197.906 18.4856H197.907Z" fill="#3760E7"/>
<path d="M151.977 4.61884V1.21916C155.706 1.98729 159.325 0.627934 162.848 -0.382738C162.932 -0.840132 162.819 -0.700659 162.59 -0.826801C161.771 -1.27907 157.359 -2.58099 156.507 -2.58099H151.977V-5.78069H155.097C155.806 -5.78069 158.01 -5.1228 158.814 -4.87308C161.254 -4.11572 163.515 -2.85174 165.859 -1.86516L166.723 -2.02361L168.185 -2.782C163.126 -5.49764 157.984 -9.11729 151.977 -8.9809V-12.3806C158.959 -11.6899 164.455 -7.02108 170.294 -3.6614L172.306 -4.28083C165.753 -8.2702 159.803 -14.2317 151.977 -15.5803V-18.78C159.33 -17.2278 164.86 -11.355 170.838 -7.21747C171.65 -6.65496 174.203 -4.7936 175 -4.79565C176.696 -4.79924 178.773 -5.73608 180.576 -4.86488L180.565 -3.77934C172.641 -4.24545 166.206 1.2648 159.075 3.57124C158.171 3.86404 155.71 4.61935 154.896 4.61935H151.977L151.977 4.61884Z" fill="#3760E7"/>
<path d="M151.977 11.5519V8.1996C158.063 8.26944 163.086 4.3734 168.29 1.70119C168.341 1.14676 166.39 1.19458 166.881 0.659489C166.954 0.581052 168.68 -0.165705 168.813 -0.179136C169.496 -0.250588 170.014 0.272141 170.594 0.232385C171.137 0.195316 172.158 -0.378451 172.487 -0.582601C172.816 -0.786751 171.962 -1.04033 171.312 -1.43627C172.356 -1.92623 173.246 -2.06161 173.246 -2.06161L174.635 -1.63397C174.635 -1.63397 176.045 -2.06698 176.749 -2.06967L175.742 -2.90346C177.533 -3.37086 178.858 -3.23601 180.576 -2.57951V-1.22836C169.847 -0.446681 162.7 10.8073 151.977 11.5525L151.977 11.5519Z" fill="#3760E7"/>
<path d="M151.977 18.4856V15.0149C159.788 14.0161 165.614 7.58079 172.227 3.7902C172.227 3.7902 172.638 3.5986 172.361 3.41852C172.009 3.19028 171.318 2.97146 171.318 2.97146C171.85 2.67045 172.843 2.06634 173.281 1.90092C173.446 1.83862 174.175 2.42022 174.938 2.26684C175.455 2.16319 176.037 1.56588 176.628 1.50725L175.748 1.12877C177.045 -0.0585076 178.943 0.284902 180.576 0.51995V1.7669C169.651 4.5346 162.939 15.8472 151.977 18.4856H151.977Z" fill="#3760E7"/>
<path d="M175.375 5.31837C176.746 3.7695 178.764 3.90031 180.575 3.75272V5.32241C178.874 5.53888 177.076 5.54352 175.375 5.31837Z" fill="#3760E7"/>
<path d="M208.309 4.61884V1.21916C204.692 1.98729 201.183 0.627934 197.767 -0.382738C197.685 -0.840132 197.795 -0.700659 198.016 -0.826801C198.811 -1.27907 203.089 -2.58099 203.916 -2.58099H208.308V-5.78069H205.282C204.595 -5.78069 202.458 -5.1228 201.678 -4.87308C199.312 -4.11572 197.119 -2.85174 194.847 -1.86516L194.009 -2.02361L192.591 -2.782C197.497 -5.49764 202.483 -9.11729 208.308 -8.9809V-12.3806C201.538 -11.6899 196.208 -7.02108 190.546 -3.6614L188.595 -4.28083C194.95 -8.2702 200.72 -14.2317 208.308 -15.5803V-18.78C201.178 -17.2278 195.816 -11.355 190.019 -7.21747C189.231 -6.65496 186.756 -4.7936 185.983 -4.79565C184.339 -4.79924 182.324 -5.73608 180.576 -4.86488L180.587 -3.77934C188.271 -4.24545 194.51 1.2648 201.425 3.57124C202.302 3.86404 204.688 4.61935 205.478 4.61935H208.308L208.309 4.61884Z" fill="#3760E7"/>
<path d="M208.308 11.5519V8.1996C202.407 8.26944 197.536 4.3734 192.489 1.70119C192.44 1.14676 194.332 1.19458 193.855 0.659489C193.785 0.581052 192.112 -0.165705 191.983 -0.179136C191.32 -0.250588 190.818 0.272141 190.256 0.232385C189.729 0.195316 188.738 -0.378451 188.42 -0.582601C188.101 -0.786751 188.929 -1.04033 189.559 -1.43627C188.547 -1.92623 187.684 -2.06161 187.684 -2.06161L186.337 -1.63397C186.337 -1.63397 184.969 -2.06698 184.287 -2.06967L185.263 -2.90346C183.527 -3.37086 182.242 -3.23601 180.576 -2.57951V-1.22836C190.979 -0.446681 197.911 10.8073 208.309 11.5525L208.308 11.5519Z" fill="#3760E7"/>
<path d="M208.308 18.4856V15.0149C200.734 14.0161 195.085 7.58079 188.671 3.7902C188.671 3.7902 188.273 3.5986 188.542 3.41852C188.883 3.19028 189.554 2.97146 189.554 2.97146C189.038 2.67045 188.075 2.06634 187.65 1.90092C187.49 1.83862 186.782 2.42022 186.043 2.26684C185.541 2.16319 184.977 1.56588 184.404 1.50725L185.257 1.12877C184 -0.0585076 182.159 0.284902 180.576 0.51995V1.7669C191.169 4.5346 197.678 15.8472 208.309 18.4856H208.308Z" fill="#3760E7"/>
<path d="M184.91 5.31837C183.768 3.7695 182.086 3.90031 180.577 3.75272V5.32241C181.994 5.53888 183.493 5.54352 184.91 5.31837Z" fill="#3760E7"/>
</g>
<defs>
<clipPath id="clip0_600_3514">
<rect width="218" height="213.013" rx="17.8105" fill="white"/>
</clipPath>
</defs>
</svg>
