<svg width="218" height="214" viewBox="0 0 218 214" fill="none" xmlns="http://www.w3.org/2000/svg">
<g clip-path="url(#clip0_600_4187)">
<rect width="218" height="213.725" rx="17.8105" transform="matrix(1 0 0 -1 0 213.725)" fill="#3760E7"/>
<path d="M77.3184 51.2902H77.4894L81.9349 41.0314H85.611V53H83.1318V43.4251H82.9608L78.8573 53H75.9506L71.8471 43.4251H71.6761V53H69.1969V41.0314H72.8729L77.3184 51.2902ZM91.1612 48.811H96.4616L93.8968 42.4847H93.7259L91.1612 48.811ZM95.7776 41.0314L100.651 53H98.1885L97.06 50.0933H90.5627L89.4343 53H86.9721L91.8451 41.0314H95.7776ZM108.179 41.0314C109.034 41.0314 109.798 41.1283 110.47 41.322C111.154 41.5044 111.73 41.778 112.197 42.1427C112.664 42.4961 113.023 42.935 113.274 43.4593C113.525 43.9722 113.65 44.5593 113.65 45.2204C113.65 45.8815 113.525 46.4742 113.274 46.9986C113.023 47.5115 112.664 47.9504 112.197 48.3151C111.73 48.6685 111.154 48.9421 110.47 49.1358C109.798 49.3182 109.034 49.4094 108.179 49.4094H104.503V53H102.024V41.0314H108.179ZM104.503 42.3137V48.1271H108.179C109.08 48.1271 109.775 47.8934 110.265 47.426C110.767 46.9473 111.017 46.2121 111.017 45.2204C111.017 44.2287 110.767 43.4992 110.265 43.0318C109.775 42.5531 109.08 42.3137 108.179 42.3137H104.503ZM123.226 46.9302L127.757 53H124.936L121.003 47.6996H118.011V53H115.532V41.0314H118.011V46.4173H120.832L124.765 41.0314H127.501L123.226 46.9302ZM131.603 42.3137V46.2463H137.843V47.5286H131.603V51.7176H139.553V53H129.123V41.0314H139.553V42.3137H131.603ZM151.949 42.3137H147.332V53H144.853V42.3137H140.237V41.0314H151.949V42.3137ZM163.149 53V43.2541H162.978L156.566 53H153.318V41.0314H155.797V50.7773H155.968L162.38 41.0314H165.628V53H163.149ZM179.997 41.0314V53H177.518V47.7851H170.507V53H168.028V41.0314H170.507V46.5027H177.518V41.0314H179.997ZM184.867 42.3137V53H182.388V41.0314H192.305V42.3137H184.867Z" fill="#D8E3FD"/>
<path d="M94.9772 175.724C95.8321 175.724 96.5958 175.821 97.2683 176.014C97.9522 176.197 98.5278 176.47 98.9952 176.835C99.4625 177.188 99.8216 177.627 100.072 178.152C100.323 178.665 100.449 179.252 100.449 179.913C100.449 180.574 100.323 181.167 100.072 181.691C99.8216 182.204 99.4625 182.643 98.9952 183.007C98.5278 183.361 97.9522 183.634 97.2683 183.828C96.5958 184.011 95.8321 184.102 94.9772 184.102H91.3011V187.692H88.8219V175.724H94.9772ZM91.3011 177.006V182.819H94.9772C95.8777 182.819 96.573 182.586 97.0631 182.118C97.5647 181.64 97.8154 180.904 97.8154 179.913C97.8154 178.921 97.5647 178.191 97.0631 177.724C96.573 177.245 95.8777 177.006 94.9772 177.006H91.3011ZM104.809 177.006V180.939H111.05V182.221H104.809V186.41H112.76V187.692H102.33V175.724H112.76V177.006H104.809ZM122.163 181.622L126.694 187.692H123.873L119.94 182.392H116.948V187.692H114.469V175.724H116.948V181.11H119.769L123.702 175.724H126.438L122.163 181.622ZM127.206 186.666H127.719C128.061 186.666 128.363 186.524 128.625 186.239C128.887 185.954 129.041 185.47 129.086 184.786L129.685 175.724H139.858V187.692H137.379V177.006H131.993L131.48 184.786C131.4 185.903 131.087 186.712 130.54 187.214C130.004 187.704 129.263 187.949 128.317 187.949C128.021 187.949 127.758 187.92 127.53 187.863C127.405 187.84 127.297 187.812 127.206 187.778V186.666ZM145.416 183.503H150.717L148.152 177.177H147.981L145.416 183.503ZM150.033 175.724L154.906 187.692H152.444L151.315 184.786H144.818L143.689 187.692H141.227L146.1 175.724H150.033ZM164.401 185.982H164.572L169.017 175.724H172.693V187.692H170.214V178.117H170.043L165.939 187.692H163.033L158.929 178.117H158.758V187.692H156.279V175.724H159.955L164.401 185.982ZM178.243 183.503H183.544L180.979 177.177H180.808L178.243 183.503ZM182.86 175.724L187.733 187.692H185.271L184.142 184.786H177.645L176.516 187.692H174.054L178.927 175.724H182.86Z" fill="#D8E3FD"/>
<path d="M113.728 124.301V111.306H113.5L104.951 124.301H100.619V108.343H103.925V121.337H104.153L112.702 108.343H117.033V124.301H113.728Z" fill="#D8E3FD"/>
<path d="M159.479 -10C178.751 4.54032 252.141 34.6936 246.993 58.6494C240.959 86.7296 110.773 77.5995 75.1339 102.27C39.495 126.941 109.189 165.557 266 158.048" stroke="#D8E3FD" stroke-width="4.27451"/>
<path d="M34.3949 120.509H30.9952C31.7634 116.892 30.404 113.384 29.3933 109.967C28.9359 109.886 29.0754 109.995 28.9493 110.217C28.497 111.012 27.1951 115.289 27.1951 116.116V120.508H23.9954V117.483C23.9954 116.795 24.6533 114.658 24.903 113.879C25.6603 111.512 26.9243 109.32 27.9109 107.047L27.7525 106.21L26.9941 104.792C24.2784 109.698 20.6588 114.684 20.7952 120.508H17.3955C18.0862 113.738 22.755 108.408 26.1147 102.747L25.4952 100.796C21.5059 107.15 15.5444 112.92 14.1958 120.508H10.9961C12.5483 113.378 18.421 108.016 22.5586 102.22C23.1211 101.432 24.9825 98.9565 24.9804 98.1831C24.9768 96.539 24.04 94.5246 24.9112 92.7765L25.9967 92.7873C25.5306 100.471 31.0409 106.711 33.3473 113.626C33.6401 114.502 34.3954 116.889 34.3954 117.678V120.508L34.3949 120.509Z" fill="#D8E3FD"/>
<path d="M41.33 121.375H37.9777C38.0475 115.289 34.1515 110.266 31.4793 105.062C30.9248 105.011 30.9727 106.963 30.4376 106.471C30.3591 106.398 29.6124 104.672 29.5989 104.54C29.5275 103.856 30.0502 103.338 30.0105 102.758C29.9734 102.215 29.3996 101.194 29.1955 100.865C28.9913 100.536 28.7377 101.39 28.3418 102.04C27.8518 100.996 27.7165 100.106 27.7165 100.106L28.1441 98.7173C28.1441 98.7173 27.7111 97.3069 27.7084 96.6035L26.8746 97.6102C26.4072 95.8194 26.5421 94.4945 27.1986 92.7765H28.5497C29.3314 103.505 40.5854 110.653 41.3306 121.376L41.33 121.375Z" fill="#D8E3FD"/>
<path d="M48.262 121.375H44.7912C43.7924 113.564 37.3571 107.739 33.5665 101.125C33.5665 101.125 33.3749 100.714 33.1949 100.991C32.9666 101.343 32.7478 102.034 32.7478 102.034C32.4468 101.503 31.8427 100.509 31.6773 100.071C31.615 99.9063 32.1966 99.1768 32.0432 98.4137C31.9395 97.8967 31.3422 97.3149 31.2836 96.7245L30.9051 97.6039C29.7178 96.3074 30.0612 94.4094 30.2963 92.7765H31.5432C34.3109 103.701 45.6236 110.413 48.262 121.376V121.375Z" fill="#D8E3FD"/>
<path d="M35.0125 97.1097C32.6892 95.9675 32.8855 94.2857 32.6641 92.7765H35.0186C35.3433 94.194 35.3503 95.6921 35.0125 97.1097Z" fill="#D8E3FD"/>
<path d="M34.3949 65.0439H30.9952C31.7634 68.6607 30.404 72.1694 29.3933 75.5859C28.9359 75.6672 29.0754 75.5576 28.9493 75.3362C28.497 74.5411 27.1951 70.2637 27.1951 69.4367V65.0445H23.9954V68.0701C23.9954 68.7575 24.6533 70.8945 24.903 71.674C25.6603 74.0406 26.9243 76.2331 27.9109 78.5055L27.7525 79.3433L26.9941 80.7613C24.2784 75.8552 20.6588 70.8692 20.7952 65.0445H17.3955C18.0862 71.8146 22.755 77.1445 26.1147 82.8061L25.4952 84.7571C21.5059 78.4025 15.5444 72.6328 14.1958 65.0445H10.9961C12.5483 72.1745 18.421 77.5369 22.5586 83.3334C23.1211 84.1212 24.9825 86.5964 24.9804 87.3698C24.9768 89.014 24.04 91.0283 24.9112 92.7765L25.9967 92.7657C25.5306 85.082 31.0409 78.8422 33.3473 71.9274C33.6401 71.0505 34.3954 68.6643 34.3954 67.875V65.0445L34.3949 65.0439Z" fill="#D8E3FD"/>
<path d="M41.33 65.0445H37.9777C38.0475 70.9459 34.1515 75.8165 31.4793 80.8634C30.9248 80.9128 30.9727 79.0202 30.4376 79.4972C30.3591 79.5673 29.6124 81.241 29.5989 81.3697C29.5275 82.0322 30.0502 82.535 30.0105 83.097C29.9734 83.6235 29.3996 84.6141 29.1955 84.933C28.9913 85.2518 28.7377 84.4235 28.3418 83.7935C27.8518 84.8057 27.7165 85.6686 27.7165 85.6686L28.1441 87.0157C28.1441 87.0157 27.7111 88.3834 27.7084 89.0654L26.8746 88.0892C26.4072 89.8258 26.5421 91.1105 27.1986 92.7765H28.5497C29.3314 82.3732 40.5854 75.442 41.3306 65.0439L41.33 65.0445Z" fill="#D8E3FD"/>
<path d="M48.262 65.0445H44.7912C43.7924 72.6188 37.3571 78.2677 33.5665 84.6812C33.5665 84.6812 33.3749 85.0795 33.1949 84.8105C32.9666 84.4694 32.7478 83.799 32.7478 83.799C32.4468 84.3148 31.8427 85.2778 31.6773 85.7029C31.615 85.8627 32.1966 86.5701 32.0432 87.31C31.9395 87.8114 31.3422 88.3756 31.2836 88.9481L30.9051 88.0953C29.7178 89.3525 30.0612 91.1931 30.2963 92.7765H31.5432C34.3109 82.1832 45.6236 75.6744 48.262 65.0439V65.0445Z" fill="#D8E3FD"/>
<path d="M35.0125 87.5767C32.6892 88.9472 32.8855 90.9655 32.6641 92.7765H35.0186C35.3433 91.0755 35.3503 89.2777 35.0125 87.5767Z" fill="#D8E3FD"/>
<path d="M34.3949 120.509H30.9952C31.7634 116.892 30.404 113.384 29.3933 109.967C28.9359 109.886 29.0754 109.995 28.9493 110.217C28.497 111.012 27.1951 115.289 27.1951 116.116V120.508H23.9954V117.483C23.9954 116.795 24.6533 114.658 24.903 113.879C25.6603 111.512 26.9243 109.32 27.9109 107.047L27.7525 106.21L26.9941 104.792C24.2784 109.698 20.6588 114.684 20.7952 120.508H17.3955C18.0862 113.738 22.755 108.408 26.1147 102.747L25.4952 100.796C21.5059 107.15 15.5444 112.92 14.1958 120.508H10.9961C12.5483 113.378 18.421 108.016 22.5586 102.22C23.1211 101.432 24.9825 98.9565 24.9804 98.1831C24.9768 96.539 24.04 94.5246 24.9112 92.7765L25.9967 92.7873C25.5306 100.471 31.0409 106.711 33.3473 113.626C33.6401 114.502 34.3954 116.889 34.3954 117.678V120.508L34.3949 120.509Z" fill="#D8E3FD"/>
<path d="M41.33 121.375H37.9777C38.0475 115.289 34.1515 110.266 31.4793 105.062C30.9248 105.011 30.9727 106.963 30.4376 106.471C30.3591 106.398 29.6124 104.672 29.5989 104.54C29.5275 103.856 30.0502 103.338 30.0105 102.758C29.9734 102.215 29.3996 101.194 29.1955 100.865C28.9913 100.536 28.7377 101.39 28.3418 102.04C27.8518 100.996 27.7165 100.106 27.7165 100.106L28.1441 98.7173C28.1441 98.7173 27.7111 97.3069 27.7084 96.6035L26.8746 97.6102C26.4072 95.8194 26.5421 94.4945 27.1986 92.7765H28.5497C29.3314 103.505 40.5854 110.653 41.3306 121.376L41.33 121.375Z" fill="#D8E3FD"/>
<path d="M48.262 121.375H44.7912C43.7924 113.564 37.3571 107.739 33.5665 101.125C33.5665 101.125 33.3749 100.714 33.1949 100.991C32.9666 101.343 32.7478 102.034 32.7478 102.034C32.4468 101.503 31.8427 100.509 31.6773 100.071C31.615 99.9063 32.1966 99.1768 32.0432 98.4137C31.9395 97.8967 31.3422 97.3149 31.2836 96.7245L30.9051 97.6039C29.7178 96.3074 30.0612 94.4094 30.2963 92.7765H31.5432C34.3109 103.701 45.6236 110.413 48.262 121.376V121.375Z" fill="#D8E3FD"/>
<path d="M35.0125 97.1097C32.6892 95.9675 32.8855 94.2857 32.6641 92.7765H35.0186C35.3433 94.194 35.3503 95.6921 35.0125 97.1097Z" fill="#D8E3FD"/>
<path d="M34.3949 65.0439H30.9952C31.7634 68.6607 30.404 72.1694 29.3933 75.5859C28.9359 75.6672 29.0754 75.5576 28.9493 75.3362C28.497 74.5411 27.1951 70.2637 27.1951 69.4367V65.0445H23.9954V68.0701C23.9954 68.7575 24.6533 70.8945 24.903 71.674C25.6603 74.0406 26.9243 76.2331 27.9109 78.5055L27.7525 79.3433L26.9941 80.7613C24.2784 75.8552 20.6588 70.8692 20.7952 65.0445H17.3955C18.0862 71.8146 22.755 77.1445 26.1147 82.8061L25.4952 84.7571C21.5059 78.4025 15.5444 72.6328 14.1958 65.0445H10.9961C12.5483 72.1745 18.421 77.5369 22.5586 83.3334C23.1211 84.1212 24.9825 86.5964 24.9804 87.3698C24.9768 89.014 24.04 91.0283 24.9112 92.7765L25.9967 92.7657C25.5306 85.082 31.0409 78.8422 33.3473 71.9274C33.6401 71.0505 34.3954 68.6643 34.3954 67.875V65.0445L34.3949 65.0439Z" fill="#D8E3FD"/>
<path d="M41.33 65.0445H37.9777C38.0475 70.9459 34.1515 75.8165 31.4793 80.8634C30.9248 80.9128 30.9727 79.0202 30.4376 79.4972C30.3591 79.5673 29.6124 81.241 29.5989 81.3697C29.5275 82.0322 30.0502 82.535 30.0105 83.097C29.9734 83.6235 29.3996 84.6141 29.1955 84.933C28.9913 85.2518 28.7377 84.4235 28.3418 83.7935C27.8518 84.8057 27.7165 85.6686 27.7165 85.6686L28.1441 87.0157C28.1441 87.0157 27.7111 88.3834 27.7084 89.0654L26.8746 88.0892C26.4072 89.8258 26.5421 91.1105 27.1986 92.7765H28.5497C29.3314 82.3732 40.5854 75.442 41.3306 65.0439L41.33 65.0445Z" fill="#D8E3FD"/>
<path d="M48.262 65.0445H44.7912C43.7924 72.6188 37.3571 78.2677 33.5665 84.6812C33.5665 84.6812 33.3749 85.0795 33.1949 84.8105C32.9666 84.4694 32.7478 83.799 32.7478 83.799C32.4468 84.3148 31.8427 85.2778 31.6773 85.7029C31.615 85.8627 32.1966 86.5701 32.0432 87.31C31.9395 87.8114 31.3422 88.3756 31.2836 88.9481L30.9051 88.0953C29.7178 89.3525 30.0612 91.1931 30.2963 92.7765H31.5432C34.3109 82.1832 45.6236 75.6744 48.262 65.0439V65.0445Z" fill="#D8E3FD"/>
<path d="M35.0125 87.5767C32.6892 88.9472 32.8855 90.9655 32.6641 92.7765H35.0186C35.3433 91.0755 35.3503 89.2777 35.0125 87.5767Z" fill="#D8E3FD"/>
<path d="M34.3949 167.308H30.9952C31.7634 163.691 30.404 160.182 29.3933 156.766C28.9359 156.684 29.0754 156.794 28.9493 157.015C28.497 157.81 27.1951 162.088 27.1951 162.915V167.307H23.9954V164.281C23.9954 163.594 24.6533 161.457 24.903 160.678C25.6603 158.311 26.9243 156.118 27.9109 153.846L27.7525 153.008L26.9941 151.59C24.2784 156.496 20.6588 161.482 20.7952 167.307H17.3955C18.0862 160.537 22.755 155.207 26.1147 149.546L25.4952 147.594C21.5059 153.949 15.5444 159.719 14.1958 167.307H10.9961C12.5483 160.177 18.421 154.815 22.5586 149.018C23.1211 148.23 24.9825 145.755 24.9804 144.982C24.9768 143.338 24.04 141.323 24.9112 139.575L25.9967 139.586C25.5306 147.27 31.0409 153.509 33.3473 160.424C33.6401 161.301 34.3954 163.687 34.3954 164.477V167.307L34.3949 167.308Z" fill="#D8E3FD"/>
<path d="M41.33 168.174H37.9777C38.0475 162.088 34.1515 157.065 31.4793 151.861C30.9248 151.81 30.9727 153.761 30.4376 153.269C30.3591 153.197 29.6124 151.471 29.5989 151.338C29.5275 150.655 30.0502 150.137 30.0105 149.557C29.9734 149.014 29.3996 147.993 29.1955 147.664C28.9913 147.335 28.7377 148.189 28.3418 148.839C27.8518 147.795 27.7165 146.905 27.7165 146.905L28.1441 145.516C28.1441 145.516 27.7111 144.106 27.7084 143.402L26.8746 144.409C26.4072 142.618 26.5421 141.293 27.1986 139.575H28.5497C29.3314 150.303 40.5854 157.451 41.3306 168.174L41.33 168.174Z" fill="#D8E3FD"/>
<path d="M48.262 168.174H44.7912C43.7924 160.363 37.3571 154.537 33.5665 147.923C33.5665 147.923 33.3749 147.513 33.1949 147.79C32.9666 148.142 32.7478 148.833 32.7478 148.833C32.4468 148.301 31.8427 147.308 31.6773 146.87C31.615 146.705 32.1966 145.975 32.0432 145.212C31.9395 144.695 31.3422 144.114 31.2836 143.523L30.9051 144.403C29.7178 143.106 30.0612 141.208 30.2963 139.575H31.5432C34.3109 150.499 45.6236 157.212 48.262 168.174V168.174Z" fill="#D8E3FD"/>
<path d="M35.0969 143.908C33.548 142.766 33.6788 141.084 33.5312 139.575H35.1009C35.3174 140.993 35.3221 142.491 35.0969 143.908Z" fill="#D8E3FD"/>
<path d="M34.3949 111.843H30.9952C31.7634 115.459 30.404 118.968 29.3933 122.385C28.9359 122.466 29.0754 122.356 28.9493 122.135C28.497 121.34 27.1951 117.062 27.1951 116.235V111.843H23.9954V114.869C23.9954 115.556 24.6533 117.693 24.903 118.473C25.6603 120.839 26.9243 123.032 27.9109 125.304L27.7525 126.142L26.9941 127.56C24.2784 122.654 20.6588 117.668 20.7952 111.843H17.3955C18.0862 118.613 22.755 123.943 26.1147 129.605L25.4952 131.556C21.5059 125.201 15.5444 119.431 14.1958 111.843H10.9961C12.5483 118.973 18.421 124.336 22.5586 130.132C23.1211 130.92 24.9825 133.395 24.9804 134.168C24.9768 135.813 24.04 137.827 24.9112 139.575L25.9967 139.564C25.5306 131.881 31.0409 125.641 33.3473 118.726C33.6401 117.849 34.3954 115.463 34.3954 114.674V111.843L34.3949 111.843Z" fill="#D8E3FD"/>
<path d="M41.33 111.843H37.9777C38.0475 117.745 34.1515 122.615 31.4793 127.662C30.9248 127.711 30.9727 125.819 30.4376 126.296C30.3591 126.366 29.6124 128.04 29.5989 128.168C29.5275 128.831 30.0502 129.334 30.0105 129.896C29.9734 130.422 29.3996 131.413 29.1955 131.732C28.9913 132.05 28.7377 131.222 28.3418 130.592C27.8518 131.604 27.7165 132.467 27.7165 132.467L28.1441 133.814C28.1441 133.814 27.7111 135.182 27.7084 135.864L26.8746 134.888C26.4072 136.624 26.5421 137.909 27.1986 139.575H28.5497C29.3314 129.172 40.5854 122.241 41.3306 111.843L41.33 111.843Z" fill="#D8E3FD"/>
<path d="M48.262 111.843H44.7912C43.7924 119.417 37.3571 125.066 33.5665 131.48C33.5665 131.48 33.3749 131.878 33.1949 131.609C32.9666 131.268 32.7478 130.598 32.7478 130.598C32.4468 131.113 31.8427 132.076 31.6773 132.502C31.615 132.661 32.1966 133.369 32.0432 134.109C31.9395 134.61 31.3422 135.174 31.2836 135.747L30.9051 134.894C29.7178 136.151 30.0612 137.992 30.2963 139.575H31.5432C34.3109 128.982 45.6236 122.473 48.262 111.843V111.843Z" fill="#D8E3FD"/>
<path d="M35.0969 134.375C33.548 135.746 33.6788 137.764 33.5312 139.575H35.1009C35.3174 137.874 35.3221 136.076 35.0969 134.375Z" fill="#D8E3FD"/>
<path d="M34.3949 213.24H30.9952C31.7634 209.623 30.404 206.114 29.3933 202.698C28.9359 202.616 29.0754 202.726 28.9493 202.947C28.497 203.742 27.1951 208.02 27.1951 208.847V213.239H23.9954V210.213C23.9954 209.526 24.6533 207.389 24.903 206.61C25.6603 204.243 26.9243 202.05 27.9109 199.778L27.7525 198.94L26.9941 197.522C24.2784 202.428 20.6588 207.414 20.7952 213.239H17.3955C18.0862 206.469 22.755 201.139 26.1147 195.478L25.4952 193.526C21.5059 199.881 15.5444 205.651 14.1958 213.239H10.9961C12.5483 206.109 18.421 200.747 22.5586 194.95C23.1211 194.162 24.9825 191.687 24.9804 190.914C24.9768 189.27 24.04 187.255 24.9112 185.507L25.9967 185.518C25.5306 193.202 31.0409 199.441 33.3473 206.356C33.6401 207.233 34.3954 209.619 34.3954 210.409V213.239L34.3949 213.24Z" fill="#D8E3FD"/>
<path d="M41.33 214.106H37.9777C38.0475 208.02 34.1515 202.997 31.4793 197.793C30.9248 197.742 30.9727 199.693 30.4376 199.201C30.3591 199.129 29.6124 197.403 29.5989 197.27C29.5275 196.587 30.0502 196.069 30.0105 195.489C29.9734 194.946 29.3996 193.925 29.1955 193.596C28.9913 193.267 28.7377 194.121 28.3418 194.771C27.8518 193.727 27.7165 192.837 27.7165 192.837L28.1441 191.448C28.1441 191.448 27.7111 190.038 27.7084 189.334L26.8746 190.341C26.4072 188.55 26.5421 187.225 27.1986 185.507H28.5497C29.3314 196.235 40.5854 203.383 41.3306 214.106L41.33 214.106Z" fill="#D8E3FD"/>
<path d="M48.262 214.106H44.7912C43.7924 206.295 37.3571 200.469 33.5665 193.855C33.5665 193.855 33.3749 193.445 33.1949 193.722C32.9666 194.074 32.7478 194.765 32.7478 194.765C32.4468 194.233 31.8427 193.24 31.6773 192.802C31.615 192.637 32.1966 191.907 32.0432 191.144C31.9395 190.627 31.3422 190.046 31.2836 189.455L30.9051 190.335C29.7178 189.038 30.0612 187.14 30.2963 185.507H31.5432C34.3109 196.431 45.6236 203.144 48.262 214.106V214.106Z" fill="#D8E3FD"/>
<path d="M35.0969 189.84C33.548 188.698 33.6788 187.016 33.5312 185.507H35.1009C35.3174 186.925 35.3221 188.423 35.0969 189.84Z" fill="#D8E3FD"/>
<path d="M34.3949 156.908H30.9952C31.7634 160.638 30.404 164.256 29.3933 167.779C28.9359 167.863 29.0754 167.75 28.9493 167.522C28.497 166.702 27.1951 162.291 27.1951 161.438V156.908H23.9954V160.029C23.9954 160.738 24.6533 162.941 24.903 163.745C25.6603 166.186 26.9243 168.447 27.9109 170.79L27.7525 171.654L26.9941 173.117C24.2784 168.057 20.6588 162.915 20.7952 156.908H17.3955C18.0862 163.89 22.755 169.387 26.1147 175.225L25.4952 177.237C21.5059 170.684 15.5444 164.734 14.1958 156.908H10.9961C12.5483 164.261 18.421 169.791 22.5586 175.769C23.1211 176.581 24.9825 179.134 24.9804 179.932C24.9768 181.627 24.04 183.704 24.9112 185.507L25.9967 185.496C25.5306 177.572 31.0409 171.137 33.3473 164.007C33.6401 163.102 34.3954 160.641 34.3954 159.827V156.908L34.3949 156.908Z" fill="#D8E3FD"/>
<path d="M41.33 156.908H37.9777C38.0475 162.994 34.1515 168.017 31.4793 173.222C30.9248 173.273 30.9727 171.321 30.4376 171.813C30.3591 171.885 29.6124 173.611 29.5989 173.744C29.5275 174.427 30.0502 174.946 30.0105 175.525C29.9734 176.068 29.3996 177.09 29.1955 177.419C28.9913 177.747 28.7377 176.893 28.3418 176.243C27.8518 177.287 27.7165 178.177 27.7165 178.177L28.1441 179.566C28.1441 179.566 27.7111 180.977 27.7084 181.68L26.8746 180.673C26.4072 182.464 26.5421 183.789 27.1986 185.507H28.5497C29.3314 174.779 40.5854 167.631 41.3306 156.908L41.33 156.908Z" fill="#D8E3FD"/>
<path d="M48.262 156.908H44.7912C43.7924 164.72 37.3571 170.545 33.5665 177.159C33.5665 177.159 33.3749 177.57 33.1949 177.292C32.9666 176.94 32.7478 176.249 32.7478 176.249C32.4468 176.781 31.8427 177.774 31.6773 178.213C31.615 178.377 32.1966 179.107 32.0432 179.87C31.9395 180.387 31.3422 180.969 31.2836 181.559L30.9051 180.68C29.7178 181.976 30.0612 183.874 30.2963 185.507H31.5432C34.3109 174.583 45.6236 167.871 48.262 156.908V156.908Z" fill="#D8E3FD"/>
<path d="M35.0969 180.307C33.548 181.678 33.6788 183.696 33.5312 185.507H35.1009C35.3174 183.806 35.3221 182.008 35.0969 180.307Z" fill="#D8E3FD"/>
<path d="M34.3949 213.24H30.9952C31.7634 209.623 30.404 206.114 29.3933 202.698C28.9359 202.616 29.0754 202.726 28.9493 202.947C28.497 203.742 27.1951 208.02 27.1951 208.847V213.239H23.9954V210.213C23.9954 209.526 24.6533 207.389 24.903 206.61C25.6603 204.243 26.9243 202.05 27.9109 199.778L27.7525 198.94L26.9941 197.522C24.2784 202.428 20.6588 207.414 20.7952 213.239H17.3955C18.0862 206.469 22.755 201.139 26.1147 195.478L25.4952 193.526C21.5059 199.881 15.5444 205.651 14.1958 213.239H10.9961C12.5483 206.109 18.421 200.747 22.5586 194.95C23.1211 194.162 24.9825 191.687 24.9804 190.914C24.9768 189.27 24.04 187.255 24.9112 185.507L25.9967 185.518C25.5306 193.202 31.0409 199.441 33.3473 206.356C33.6401 207.233 34.3954 209.619 34.3954 210.409V213.239L34.3949 213.24Z" fill="#D8E3FD"/>
<path d="M41.33 214.106H37.9777C38.0475 208.02 34.1515 202.997 31.4793 197.793C30.9248 197.742 30.9727 199.693 30.4376 199.201C30.3591 199.129 29.6124 197.403 29.5989 197.27C29.5275 196.587 30.0502 196.069 30.0105 195.489C29.9734 194.946 29.3996 193.925 29.1955 193.596C28.9913 193.267 28.7377 194.121 28.3418 194.771C27.8518 193.727 27.7165 192.837 27.7165 192.837L28.1441 191.448C28.1441 191.448 27.7111 190.038 27.7084 189.334L26.8746 190.341C26.4072 188.55 26.5421 187.225 27.1986 185.507H28.5497C29.3314 196.235 40.5854 203.383 41.3306 214.106L41.33 214.106Z" fill="#D8E3FD"/>
<path d="M48.262 214.106H44.7912C43.7924 206.295 37.3571 200.469 33.5665 193.855C33.5665 193.855 33.3749 193.445 33.1949 193.722C32.9666 194.074 32.7478 194.765 32.7478 194.765C32.4468 194.233 31.8427 193.24 31.6773 192.802C31.615 192.637 32.1966 191.907 32.0432 191.144C31.9395 190.627 31.3422 190.046 31.2836 189.455L30.9051 190.335C29.7178 189.038 30.0612 187.14 30.2963 185.507H31.5432C34.3109 196.431 45.6236 203.144 48.262 214.106V214.106Z" fill="#D8E3FD"/>
<path d="M35.0969 189.84C33.548 188.698 33.6788 187.016 33.5312 185.507H35.1009C35.3174 186.925 35.3221 188.423 35.0969 189.84Z" fill="#D8E3FD"/>
<path d="M34.3949 156.908H30.9952C31.7634 160.638 30.404 164.256 29.3933 167.779C28.9359 167.863 29.0754 167.75 28.9493 167.522C28.497 166.702 27.1951 162.291 27.1951 161.438V156.908H23.9954V160.029C23.9954 160.738 24.6533 162.941 24.903 163.745C25.6603 166.186 26.9243 168.447 27.9109 170.79L27.7525 171.654L26.9941 173.117C24.2784 168.057 20.6588 162.915 20.7952 156.908H17.3955C18.0862 163.89 22.755 169.387 26.1147 175.225L25.4952 177.237C21.5059 170.684 15.5444 164.734 14.1958 156.908H10.9961C12.5483 164.261 18.421 169.791 22.5586 175.769C23.1211 176.581 24.9825 179.134 24.9804 179.932C24.9768 181.627 24.04 183.704 24.9112 185.507L25.9967 185.496C25.5306 177.572 31.0409 171.137 33.3473 164.007C33.6401 163.102 34.3954 160.641 34.3954 159.827V156.908L34.3949 156.908Z" fill="#D8E3FD"/>
<path d="M41.33 156.908H37.9777C38.0475 162.994 34.1515 168.017 31.4793 173.222C30.9248 173.273 30.9727 171.321 30.4376 171.813C30.3591 171.885 29.6124 173.611 29.5989 173.744C29.5275 174.427 30.0502 174.946 30.0105 175.525C29.9734 176.068 29.3996 177.09 29.1955 177.419C28.9913 177.747 28.7377 176.893 28.3418 176.243C27.8518 177.287 27.7165 178.177 27.7165 178.177L28.1441 179.566C28.1441 179.566 27.7111 180.977 27.7084 181.68L26.8746 180.673C26.4072 182.464 26.5421 183.789 27.1986 185.507H28.5497C29.3314 174.779 40.5854 167.631 41.3306 156.908L41.33 156.908Z" fill="#D8E3FD"/>
<path d="M48.262 156.908H44.7912C43.7924 164.72 37.3571 170.545 33.5665 177.159C33.5665 177.159 33.3749 177.57 33.1949 177.292C32.9666 176.94 32.7478 176.249 32.7478 176.249C32.4468 176.781 31.8427 177.774 31.6773 178.213C31.615 178.377 32.1966 179.107 32.0432 179.87C31.9395 180.387 31.3422 180.969 31.2836 181.559L30.9051 180.68C29.7178 181.976 30.0612 183.874 30.2963 185.507H31.5432C34.3109 174.583 45.6236 167.871 48.262 156.908V156.908Z" fill="#D8E3FD"/>
<path d="M35.0969 180.307C33.548 181.678 33.6788 183.696 33.5312 185.507H35.1009C35.3174 183.806 35.3221 182.008 35.0969 180.307Z" fill="#D8E3FD"/>
<path d="M34.3949 203.707H30.9952C31.7634 207.323 30.404 210.832 29.3933 214.249C28.9359 214.33 29.0754 214.22 28.9493 213.999C28.497 213.204 27.1951 208.926 27.1951 208.099V203.707H23.9954V206.733C23.9954 207.42 24.6533 209.557 24.903 210.337C25.6603 212.703 26.9243 214.896 27.9109 217.168L27.7525 218.006L26.9941 219.424C24.2784 214.518 20.6588 209.532 20.7952 203.707H17.3955C18.0862 210.477 22.755 215.807 26.1147 221.469L25.4952 223.42C21.5059 217.065 15.5444 211.295 14.1958 203.707H10.9961C12.5483 210.837 18.421 216.2 22.5586 221.996C23.1211 222.784 24.9825 225.259 24.9804 226.032C24.9768 227.677 24.04 229.691 24.9112 231.439L25.9967 231.428C25.5306 223.745 31.0409 217.505 33.3473 210.59C33.6401 209.713 34.3954 207.327 34.3954 206.538V203.707L34.3949 203.707Z" fill="#D8E3FD"/>
<path d="M41.33 203.707H37.9777C38.0475 209.609 34.1515 214.479 31.4793 219.526C30.9248 219.575 30.9727 217.683 30.4376 218.16C30.3591 218.23 29.6124 219.904 29.5989 220.032C29.5275 220.695 30.0502 221.198 30.0105 221.76C29.9734 222.286 29.3996 223.277 29.1955 223.596C28.9913 223.914 28.7377 223.086 28.3418 222.456C27.8518 223.468 27.7165 224.331 27.7165 224.331L28.1441 225.678C28.1441 225.678 27.7111 227.046 27.7084 227.728L26.8746 226.752C26.4072 228.488 26.5421 229.773 27.1986 231.439H28.5497C29.3314 221.036 40.5854 214.105 41.3306 203.707L41.33 203.707Z" fill="#D8E3FD"/>
<path d="M48.262 203.707H44.7912C43.7924 211.281 37.3571 216.93 33.5665 223.344C33.5665 223.344 33.3749 223.742 33.1949 223.473C32.9666 223.132 32.7478 222.462 32.7478 222.462C32.4468 222.977 31.8427 223.94 31.6773 224.366C31.615 224.525 32.1966 225.233 32.0432 225.973C31.9395 226.474 31.3422 227.038 31.2836 227.611L30.9051 226.758C29.7178 228.015 30.0612 229.856 30.2963 231.439H31.5432C34.3109 220.846 45.6236 214.337 48.262 203.707V203.707Z" fill="#D8E3FD"/>
<path d="M34.6176 25.6646H31.2179C31.986 22.0478 30.6267 18.5391 29.616 15.1226C29.1586 15.0413 29.2981 15.1509 29.1719 15.3723C28.7197 16.1674 27.4177 20.4448 27.4177 21.2718V25.664H24.218V22.6384C24.218 21.951 24.8759 19.814 25.1256 19.0345C25.883 16.6679 27.147 14.4754 28.1336 12.203L27.9751 11.3652L27.2167 9.94715C24.5011 14.8533 20.8814 19.8393 21.0178 25.664H17.6181C18.3088 18.8939 22.9776 13.5639 26.3373 7.90241L25.7179 5.95138C21.7285 12.306 15.767 18.0757 14.4184 25.664H11.2188C12.7709 18.534 18.6437 13.1716 22.7812 7.37513C23.3438 6.5873 25.2051 4.11209 25.2031 3.33868C25.1995 1.69454 24.2626 -0.319824 25.1338 -2.06798L26.2194 -2.05716C25.7533 5.62647 31.2635 11.8663 33.57 18.7811C33.8628 19.658 34.6181 22.0442 34.6181 22.8335V25.664L34.6176 25.6646Z" fill="#D8E3FD"/>
<path d="M41.5488 26.5307H38.1964C38.2663 20.4448 34.3702 15.422 31.698 10.2174C31.1436 10.1664 31.1914 12.1182 30.6563 11.6263C30.5779 11.554 29.8311 9.82802 29.8177 9.69521C29.7462 9.01204 30.269 8.49355 30.2292 7.91397C30.1921 7.37105 29.6184 6.34948 29.4142 6.02064C29.2101 5.69181 28.9565 6.54604 28.5606 7.19574C28.0706 6.15186 27.9352 5.26203 27.9352 5.26203L28.3629 3.87285C28.3629 3.87285 27.9298 2.46242 27.9272 1.75906L27.0934 2.76575C26.626 0.974947 26.7608 -0.349958 27.4173 -2.06798H28.7685C29.5501 8.66036 40.8042 15.8082 41.5493 26.5312L41.5488 26.5307Z" fill="#D8E3FD"/>
<path d="M48.4807 26.5307H45.01C44.0112 18.7196 37.5759 12.8942 33.7853 6.28031C33.7853 6.28031 33.5937 5.86957 33.4136 6.14694C33.1854 6.4987 32.9665 7.19001 32.9665 7.19001C32.6655 6.65811 32.0614 5.66499 31.896 5.22661C31.8337 5.06189 32.4153 4.33232 32.2619 3.56928C32.1583 3.05227 31.561 2.47042 31.5023 1.88007L31.1239 2.75948C29.9366 1.46295 30.28 -0.435093 30.515 -2.06798H31.762C34.5297 8.85637 45.8423 15.5686 48.4807 26.5312V26.5307Z" fill="#D8E3FD"/>
<path d="M35.3157 2.26526C33.7668 1.12312 33.8976 -0.558765 33.75 -2.06795H35.3197C35.5362 -0.650412 35.5408 0.847722 35.3157 2.26526Z" fill="#D8E3FD"/>
<path d="M34.6176 25.6646H31.2179C31.986 22.0478 30.6267 18.5391 29.616 15.1226C29.1586 15.0413 29.2981 15.1509 29.1719 15.3723C28.7197 16.1674 27.4177 20.4448 27.4177 21.2718V25.664H24.218V22.6384C24.218 21.951 24.8759 19.814 25.1256 19.0345C25.883 16.6679 27.147 14.4754 28.1336 12.203L27.9751 11.3652L27.2167 9.94715C24.5011 14.8533 20.8814 19.8393 21.0178 25.664H17.6181C18.3088 18.8939 22.9776 13.5639 26.3373 7.90241L25.7179 5.95138C21.7285 12.306 15.767 18.0757 14.4184 25.664H11.2188C12.7709 18.534 18.6437 13.1716 22.7812 7.37513C23.3438 6.5873 25.2051 4.11209 25.2031 3.33868C25.1995 1.69454 24.2626 -0.319824 25.1338 -2.06798L26.2194 -2.05716C25.7533 5.62647 31.2635 11.8663 33.57 18.7811C33.8628 19.658 34.6181 22.0442 34.6181 22.8335V25.664L34.6176 25.6646Z" fill="#D8E3FD"/>
<path d="M41.5488 26.5307H38.1964C38.2663 20.4448 34.3702 15.422 31.698 10.2174C31.1436 10.1664 31.1914 12.1182 30.6563 11.6263C30.5779 11.554 29.8311 9.82802 29.8177 9.69521C29.7462 9.01204 30.269 8.49355 30.2292 7.91397C30.1921 7.37105 29.6184 6.34948 29.4142 6.02064C29.2101 5.69181 28.9565 6.54604 28.5606 7.19574C28.0706 6.15186 27.9352 5.26203 27.9352 5.26203L28.3629 3.87285C28.3629 3.87285 27.9298 2.46242 27.9272 1.75906L27.0934 2.76575C26.626 0.974947 26.7608 -0.349958 27.4173 -2.06798H28.7685C29.5501 8.66036 40.8042 15.8082 41.5493 26.5312L41.5488 26.5307Z" fill="#D8E3FD"/>
<path d="M48.4807 26.5307H45.01C44.0112 18.7196 37.5759 12.8942 33.7853 6.28031C33.7853 6.28031 33.5937 5.86957 33.4136 6.14694C33.1854 6.4987 32.9665 7.19001 32.9665 7.19001C32.6655 6.65811 32.0614 5.66499 31.896 5.22661C31.8337 5.06189 32.4153 4.33232 32.2619 3.56928C32.1583 3.05227 31.561 2.47042 31.5023 1.88007L31.1239 2.75948C29.9366 1.46295 30.28 -0.435093 30.515 -2.06798H31.762C34.5297 8.85637 45.8423 15.5686 48.4807 26.5312V26.5307Z" fill="#D8E3FD"/>
<path d="M35.3157 2.26526C33.7668 1.12312 33.8976 -0.558765 33.75 -2.06795H35.3197C35.5362 -0.650412 35.5408 0.847722 35.3157 2.26526Z" fill="#D8E3FD"/>
<path d="M34.6176 72.4632H31.2179C31.986 68.7334 30.6267 65.1151 29.616 61.5918C29.1586 61.5079 29.2981 61.621 29.1719 61.8494C28.7197 62.6692 27.4177 67.0803 27.4177 67.9331V72.4627H24.218V69.3424C24.218 68.6335 24.8759 66.4299 25.1256 65.6259C25.883 63.1854 27.147 60.9243 28.1336 58.581L27.9751 57.717L27.2167 56.2546C24.5011 61.3141 20.8814 66.4559 21.0178 72.4627H17.6181C18.3088 65.4809 22.9776 59.9844 26.3373 54.146L25.7179 52.134C21.7285 58.6872 15.767 64.6372 14.4184 72.4627H11.2188C12.7709 65.1098 18.6437 59.5798 22.7812 53.6022C23.3438 52.7898 25.2051 50.2372 25.2031 49.4396C25.1995 47.7441 24.2626 45.6668 25.1338 43.864L26.2194 43.8752C25.7533 51.7989 31.2635 58.2337 33.57 65.3646C33.8628 66.269 34.6181 68.7297 34.6181 69.5437V72.4627L34.6176 72.4632Z" fill="#D8E3FD"/>
<path d="M41.5488 72.4627H38.1964C38.2663 66.3768 34.3702 61.354 31.698 56.1494C31.1436 56.0984 31.1914 58.0502 30.6563 57.5583C30.5779 57.486 29.8311 55.76 29.8177 55.6272C29.7462 54.944 30.269 54.4256 30.2292 53.846C30.1921 53.3031 29.6184 52.2815 29.4142 51.9526C29.2101 51.6238 28.9565 52.478 28.5606 53.1277C28.0706 52.0839 27.9352 51.194 27.9352 51.194L28.3629 49.8049C28.3629 49.8049 27.9298 48.3944 27.9272 47.6911L27.0934 48.6978C26.626 46.907 26.7608 45.582 27.4173 43.864H28.7685C29.5501 54.5924 40.8042 61.7402 41.5493 72.4632L41.5488 72.4627Z" fill="#D8E3FD"/>
<path d="M48.4807 72.4627H45.01C44.0112 64.6516 37.5759 58.8262 33.7853 52.2123C33.7853 52.2123 33.5937 51.8016 33.4136 52.0789C33.1854 52.4307 32.9665 53.122 32.9665 53.122C32.6655 52.5901 32.0614 51.597 31.896 51.1586C31.8337 50.9939 32.4153 50.2643 32.2619 49.5013C32.1583 48.9843 31.561 48.4024 31.5023 47.8121L31.1239 48.6915C29.9366 47.395 30.28 45.4969 30.515 43.864H31.762C34.5297 54.7884 45.8423 61.5006 48.4807 72.4632V72.4627Z" fill="#D8E3FD"/>
<path d="M35.3157 49.0638C33.7668 47.6933 33.8976 45.675 33.75 43.864H35.3197C35.5362 45.565 35.5408 47.3628 35.3157 49.0638Z" fill="#D8E3FD"/>
<path d="M34.6176 16.1315H31.2179C31.986 19.7483 30.6267 23.2569 29.616 26.6734C29.1586 26.7548 29.2981 26.6451 29.1719 26.4237C28.7197 25.6286 27.4177 21.3512 27.4177 20.5242V16.132H24.218V19.1576C24.218 19.8451 24.8759 21.982 25.1256 22.7616C25.883 25.1281 27.147 27.3207 28.1336 29.593L27.9751 30.4308L27.2167 31.8489C24.5011 26.9427 20.8814 21.9567 21.0178 16.132H17.6181C18.3088 22.9021 22.9776 28.2321 26.3373 33.8936L25.7179 35.8446C21.7285 29.49 15.767 23.7203 14.4184 16.132H11.2188C12.7709 23.2621 18.6437 28.6244 22.7812 34.4209C23.3438 35.2087 25.2051 37.6839 25.2031 38.4573C25.1995 40.1015 24.2626 42.1158 25.1338 43.864L26.2194 43.8532C25.7533 36.1696 31.2635 29.9298 33.57 23.0149C33.8628 22.138 34.6181 19.7519 34.6181 18.9625V16.132L34.6176 16.1315Z" fill="#D8E3FD"/>
<path d="M41.5488 16.132H38.1964C38.2663 22.0334 34.3702 26.9041 31.698 31.9509C31.1436 32.0003 31.1914 30.1077 30.6563 30.5847C30.5779 30.6548 29.8311 32.3285 29.8177 32.4573C29.7462 33.1197 30.269 33.6225 30.2292 34.1845C30.1921 34.711 29.6184 35.7016 29.4142 36.0205C29.2101 36.3394 28.9565 35.511 28.5606 34.881C28.0706 35.8932 27.9352 36.7561 27.9352 36.7561L28.3629 38.1032C28.3629 38.1032 27.9298 39.4709 27.9272 40.1529L27.0934 39.1767C26.626 40.9133 26.7608 42.198 27.4173 43.864H28.7685C29.5501 33.4608 40.8042 26.5296 41.5493 16.1315L41.5488 16.132Z" fill="#D8E3FD"/>
<path d="M48.4807 16.132H45.01C44.0112 23.7064 37.5759 29.3552 33.7853 35.7687C33.7853 35.7687 33.5937 36.167 33.4136 35.898C33.1854 35.5569 32.9665 34.8866 32.9665 34.8866C32.6655 35.4023 32.0614 36.3654 31.896 36.7905C31.8337 36.9502 32.4153 37.6576 32.2619 38.3976C32.1583 38.8989 31.561 39.4631 31.5023 40.0356L31.1239 39.1828C29.9366 40.4401 30.28 42.2806 30.515 43.864H31.762C34.5297 33.2707 45.8423 26.7619 48.4807 16.1315V16.132Z" fill="#D8E3FD"/>
<path d="M35.3157 39.5308C33.7668 40.673 33.8976 42.3548 33.75 43.864H35.3197C35.5362 42.4465 35.5408 40.9484 35.3157 39.5308Z" fill="#D8E3FD"/>
</g>
<defs>
<clipPath id="clip0_600_4187">
<rect x="218" y="213.725" width="218" height="213.725" rx="17.8105" transform="rotate(-180 218 213.725)" fill="white"/>
</clipPath>
</defs>
</svg>
