<svg width="218" height="214" viewBox="0 0 218 214" fill="none" xmlns="http://www.w3.org/2000/svg">
<g clip-path="url(#clip0_600_5527)">
<rect width="218" height="213.725" rx="17.8105" transform="matrix(1 0 0 -1 0 213.725)" fill="#3760E7"/>
<path d="M49.213 81.2578H49.3839L53.8294 70.999H57.5055V82.9677H55.0263V73.3928H54.8553L50.7518 82.9677H47.8451L43.7416 73.3928H43.5706V82.9677H41.0914V70.999H44.7675L49.213 81.2578ZM62.3718 72.2814V76.2139H68.6126V77.4963H62.3718V81.6853H70.3224V82.9677H59.8926V70.999H70.3224V72.2814H62.3718ZM71.8605 81.6853C72.2025 81.6853 72.5159 81.5257 72.8009 81.2066C73.0973 80.8874 73.2683 80.4485 73.3138 79.89L73.9978 70.999H83.5727V81.6853H85.026V85.7033H82.9742L82.6323 82.9677H73.3993L73.0574 85.7033H71.0056V81.6853H71.8605ZM75.7076 79.89C75.6848 80.1864 75.6107 80.4485 75.4853 80.6765C75.3599 80.9045 75.2231 81.0926 75.0749 81.2407C74.904 81.4231 74.7159 81.5713 74.5107 81.6853H81.0935V72.2814H76.306L75.7076 79.89ZM96.7402 82.9677V73.2218H96.5692L90.1574 82.9677H86.9088V70.999H89.388V80.7449H89.559L95.9708 70.999H99.2194V82.9677H96.7402ZM114.699 81.6853V85.7033H112.647L112.305 82.9677H101.619V70.999H104.098V81.6853H110.767V70.999H113.246V81.6853H114.699ZM126.411 82.9677V73.2218H126.24L119.829 82.9677H116.58V70.999H119.059V80.7449H119.23L125.642 70.999H128.89V82.9677H126.411ZM143.259 70.999V82.9677H140.78V77.7527H133.769V82.9677H131.29V70.999H133.769V76.4704H140.78V70.999H143.259ZM152.489 82.0273C153.264 82.0273 154.005 81.8962 154.712 81.634C155.43 81.3604 156.114 80.9216 156.764 80.3175L157.619 81.3433C156.969 81.9475 156.182 82.4262 155.259 82.7796C154.336 83.1329 153.355 83.3096 152.318 83.3096C151.247 83.3096 150.278 83.1728 149.411 82.8993C148.557 82.6257 147.821 82.221 147.206 81.6853C146.602 81.1496 146.134 80.4884 145.804 79.7019C145.473 78.9154 145.308 78.0092 145.308 76.9833C145.308 75.9575 145.468 75.0513 145.787 74.2648C146.117 73.4782 146.579 72.8171 147.172 72.2814C147.776 71.7456 148.5 71.341 149.343 71.0674C150.187 70.7938 151.121 70.6571 152.147 70.6571C153.184 70.6571 154.165 70.8337 155.088 71.1871C156.011 71.5405 156.798 72.0192 157.448 72.6233L156.593 73.6492C155.943 73.0451 155.259 72.6119 154.541 72.3498C153.834 72.0762 153.093 71.9394 152.318 71.9394C151.703 71.9394 151.127 72.042 150.591 72.2472C150.055 72.441 149.594 72.743 149.206 73.1534C148.819 73.5637 148.511 74.0881 148.283 74.7264C148.066 75.3533 147.958 76.1056 147.958 76.9833C147.958 77.861 148.066 78.6191 148.283 79.2574C148.511 79.8843 148.824 80.4029 149.223 80.8133C149.634 81.2237 150.112 81.5314 150.66 81.7366C151.218 81.9304 151.828 82.0273 152.489 82.0273ZM166.852 76.8978L171.383 82.9677H168.562L164.629 77.6673H161.637V82.9677H159.158V70.999H161.637V76.3849H164.458L168.391 70.999H171.127L166.852 76.8978ZM182.581 82.9677V73.2218H182.41L175.998 82.9677H172.75V70.999H175.229V80.7449H175.4L181.812 70.999H185.06V82.9677H182.581ZM189.939 72.2814V76.2139H196.18V77.4963H189.939V81.6853H197.89V82.9677H187.46V70.999H197.89V72.2814H189.939Z" fill="#D8E3FD"/>
<path d="M18.6967 141.216C19.3427 141.216 19.9601 141.107 20.549 140.889C21.1475 140.661 21.7174 140.295 22.2588 139.792L22.9712 140.646C22.4298 141.15 21.7744 141.549 21.005 141.843C20.2356 142.138 19.4186 142.285 18.5542 142.285C17.6614 142.285 16.8539 142.171 16.132 141.943C15.4196 141.715 14.8069 141.378 14.294 140.931C13.7905 140.485 13.4011 139.934 13.1256 139.279C12.8502 138.623 12.7124 137.868 12.7124 137.013C12.7124 136.158 12.8454 135.403 13.1114 134.748C13.3868 134.092 13.7715 133.541 14.2655 133.095C14.7689 132.648 15.3721 132.311 16.075 132.083C16.778 131.855 17.5569 131.741 18.4118 131.741C19.2762 131.741 20.0931 131.888 20.8625 132.183C21.6319 132.477 22.2873 132.876 22.8288 133.38L22.1163 134.235C21.5749 133.731 21.005 133.37 20.4065 133.152C19.8176 132.924 19.2002 132.81 18.5542 132.81C18.0413 132.81 17.5616 132.895 17.1152 133.066C16.6687 133.228 16.284 133.479 15.961 133.821C15.6381 134.163 15.3816 134.6 15.1916 135.132C15.0112 135.655 14.9209 136.282 14.9209 137.013C14.9209 137.744 15.0112 138.376 15.1916 138.908C15.3816 139.431 15.6428 139.863 15.9753 140.205C16.3173 140.547 16.7162 140.803 17.1722 140.974C17.6376 141.136 18.1458 141.216 18.6967 141.216ZM33.1594 133.095H29.3123V142H27.2463V133.095H23.3992V132.026H33.1594V133.095ZM38.7129 132.739C38.2285 132.739 37.7725 132.824 37.3451 132.995C36.9271 133.166 36.5614 133.427 36.2479 133.779C35.9345 134.13 35.6828 134.577 35.4928 135.118C35.3123 135.65 35.2221 136.282 35.2221 137.013C35.2221 137.744 35.3123 138.381 35.4928 138.922C35.6828 139.454 35.9345 139.896 36.2479 140.247C36.5614 140.599 36.9271 140.86 37.3451 141.031C37.7725 141.202 38.2285 141.288 38.7129 141.288C39.1973 141.288 39.6485 141.202 40.0665 141.031C40.4939 140.86 40.8644 140.599 41.1779 140.247C41.4913 139.896 41.7383 139.454 41.9188 138.922C42.1088 138.381 42.2038 137.744 42.2038 137.013C42.2038 136.282 42.1088 135.65 41.9188 135.118C41.7383 134.577 41.4913 134.13 41.1779 133.779C40.8644 133.427 40.4939 133.166 40.0665 132.995C39.6485 132.824 39.1973 132.739 38.7129 132.739ZM38.7129 131.741C39.5678 131.741 40.342 131.855 41.0354 132.083C41.7383 132.311 42.3367 132.648 42.8307 133.095C43.3341 133.541 43.7236 134.092 43.999 134.748C44.2745 135.403 44.4122 136.158 44.4122 137.013C44.4122 137.868 44.2745 138.623 43.999 139.279C43.7236 139.934 43.3341 140.485 42.8307 140.931C42.3367 141.378 41.7383 141.715 41.0354 141.943C40.342 142.171 39.5678 142.285 38.7129 142.285C37.858 142.285 37.0791 142.171 36.3762 141.943C35.6733 141.715 35.0701 141.378 34.5666 140.931C34.0727 140.485 33.688 139.934 33.4125 139.279C33.1465 138.623 33.0136 137.868 33.0136 137.013C33.0136 136.158 33.1465 135.403 33.4125 134.748C33.688 134.092 34.0727 133.541 34.5666 133.095C35.0701 132.648 35.6733 132.311 36.3762 132.083C37.0791 131.855 37.858 131.741 38.7129 131.741ZM52.8956 140.575H53.0381L56.7427 132.026H59.8061V142H57.74V134.021H57.5976L54.1779 142H51.7557L48.3361 134.021H48.1936V142H46.1276V132.026H49.191L52.8956 140.575ZM64.4312 138.509H68.8482L66.7109 133.237H66.5685L64.4312 138.509ZM68.2783 132.026L72.339 142H70.2873L69.3469 139.578H63.9325L62.9921 142H60.9404L65.0011 132.026H68.2783ZM81.2476 133.095H77.4006V142H75.3345V133.095H71.4875V132.026H81.2476V133.095ZM86.8011 132.739C86.3167 132.739 85.8607 132.824 85.4333 132.995C85.0153 133.166 84.6496 133.427 84.3362 133.779C84.0227 134.13 83.771 134.577 83.581 135.118C83.4005 135.65 83.3103 136.282 83.3103 137.013C83.3103 137.744 83.4005 138.381 83.581 138.922C83.771 139.454 84.0227 139.896 84.3362 140.247C84.6496 140.599 85.0153 140.86 85.4333 141.031C85.8607 141.202 86.3167 141.288 86.8011 141.288C87.2856 141.288 87.7368 141.202 88.1547 141.031C88.5822 140.86 88.9526 140.599 89.2661 140.247C89.5796 139.896 89.8265 139.454 90.007 138.922C90.197 138.381 90.292 137.744 90.292 137.013C90.292 136.282 90.197 135.65 90.007 135.118C89.8265 134.577 89.5796 134.13 89.2661 133.779C88.9526 133.427 88.5822 133.166 88.1547 132.995C87.7368 132.824 87.2856 132.739 86.8011 132.739ZM86.8011 131.741C87.656 131.741 88.4302 131.855 89.1236 132.083C89.8265 132.311 90.425 132.648 90.9189 133.095C91.4224 133.541 91.8118 134.092 92.0873 134.748C92.3628 135.403 92.5005 136.158 92.5005 137.013C92.5005 137.868 92.3628 138.623 92.0873 139.279C91.8118 139.934 91.4224 140.485 90.9189 140.931C90.425 141.378 89.8265 141.715 89.1236 141.943C88.4302 142.171 87.656 142.285 86.8011 142.285C85.9462 142.285 85.1673 142.171 84.4644 141.943C83.7615 141.715 83.1583 141.378 82.6549 140.931C82.1609 140.485 81.7762 139.934 81.5007 139.279C81.2348 138.623 81.1018 137.868 81.1018 137.013C81.1018 136.158 81.2348 135.403 81.5007 134.748C81.7762 134.092 82.1609 133.541 82.6549 133.095C83.1583 132.648 83.7615 132.311 84.4644 132.083C85.1673 131.855 85.9462 131.741 86.8011 131.741ZM93.5034 141.145H93.9309C94.2159 141.145 94.4676 141.026 94.686 140.789C94.9045 140.551 95.0328 140.148 95.0708 139.578L95.5694 132.026H104.047V142H101.981V133.095H97.493L97.0655 139.578C96.999 140.509 96.7378 141.183 96.2819 141.601C95.8354 142.009 95.218 142.214 94.4296 142.214C94.1826 142.214 93.9641 142.19 93.7742 142.142C93.6697 142.123 93.5794 142.1 93.5034 142.071V141.145ZM111.457 132.739C110.973 132.739 110.517 132.824 110.09 132.995C109.672 133.166 109.306 133.427 108.993 133.779C108.679 134.13 108.427 134.577 108.237 135.118C108.057 135.65 107.967 136.282 107.967 137.013C107.967 137.744 108.057 138.381 108.237 138.922C108.427 139.454 108.679 139.896 108.993 140.247C109.306 140.599 109.672 140.86 110.09 141.031C110.517 141.202 110.973 141.288 111.457 141.288C111.942 141.288 112.393 141.202 112.811 141.031C113.239 140.86 113.609 140.599 113.922 140.247C114.236 139.896 114.483 139.454 114.663 138.922C114.853 138.381 114.948 137.744 114.948 137.013C114.948 136.282 114.853 135.65 114.663 135.118C114.483 134.577 114.236 134.13 113.922 133.779C113.609 133.427 113.239 133.166 112.811 132.995C112.393 132.824 111.942 132.739 111.457 132.739ZM111.457 131.741C112.312 131.741 113.087 131.855 113.78 132.083C114.483 132.311 115.081 132.648 115.575 133.095C116.079 133.541 116.468 134.092 116.744 134.748C117.019 135.403 117.157 136.158 117.157 137.013C117.157 137.868 117.019 138.623 116.744 139.279C116.468 139.934 116.079 140.485 115.575 140.931C115.081 141.378 114.483 141.715 113.78 141.943C113.087 142.171 112.312 142.285 111.457 142.285C110.603 142.285 109.824 142.171 109.121 141.943C108.418 141.715 107.815 141.378 107.311 140.931C106.817 140.485 106.433 139.934 106.157 139.279C105.891 138.623 105.758 137.868 105.758 137.013C105.758 136.158 105.891 135.403 106.157 134.748C106.433 134.092 106.817 133.541 107.311 133.095C107.815 132.648 108.418 132.311 109.121 132.083C109.824 131.855 110.603 131.741 111.457 131.741ZM120.938 133.095V142H118.872V132.026H127.136V133.095H120.938ZM136.471 142V133.878H136.329L130.986 142H128.278V132.026H130.344V140.148H130.487L135.83 132.026H138.537V142H136.471ZM144.954 138.723C144.118 138.723 143.401 138.656 142.802 138.523C142.214 138.39 141.729 138.196 141.349 137.939C140.969 137.683 140.689 137.365 140.508 136.985C140.337 136.605 140.252 136.163 140.252 135.659V132.026H142.318V135.659C142.318 136.334 142.517 136.837 142.916 137.17C143.315 137.493 143.995 137.654 144.954 137.654H147.661V132.026H149.727V142H147.661V138.723H144.954ZM153.79 133.095V136.372H158.991V137.441H153.79V140.931H160.416V142H151.724V132.026H160.416V133.095H153.79ZM167.108 141.216C167.754 141.216 168.371 141.107 168.96 140.889C169.559 140.661 170.129 140.295 170.67 139.792L171.382 140.646C170.841 141.15 170.186 141.549 169.416 141.843C168.647 142.138 167.83 142.285 166.965 142.285C166.073 142.285 165.265 142.171 164.543 141.943C163.831 141.715 163.218 141.378 162.705 140.931C162.202 140.485 161.812 139.934 161.537 139.279C161.261 138.623 161.124 137.868 161.124 137.013C161.124 136.158 161.257 135.403 161.523 134.748C161.798 134.092 162.183 133.541 162.677 133.095C163.18 132.648 163.783 132.311 164.486 132.083C165.189 131.855 165.968 131.741 166.823 131.741C167.687 131.741 168.504 131.888 169.274 132.183C170.043 132.477 170.699 132.876 171.24 133.38L170.528 134.235C169.986 133.731 169.416 133.37 168.818 133.152C168.229 132.924 167.611 132.81 166.965 132.81C166.453 132.81 165.973 132.895 165.526 133.066C165.08 133.228 164.695 133.479 164.372 133.821C164.049 134.163 163.793 134.6 163.603 135.132C163.422 135.655 163.332 136.282 163.332 137.013C163.332 137.744 163.422 138.376 163.603 138.908C163.793 139.431 164.054 139.863 164.386 140.205C164.728 140.547 165.127 140.803 165.583 140.974C166.049 141.136 166.557 141.216 167.108 141.216ZM179.077 136.942L182.853 142H180.502L177.225 137.583H174.731V142H172.665V132.026H174.731V136.514H177.082L180.359 132.026H182.639L179.077 136.942ZM192.184 142V133.878H192.042L186.699 142H183.992V132.026H186.058V140.148H186.2L191.543 132.026H194.251V142H192.184ZM198.316 133.095V136.372H203.517V137.441H198.316V140.931H204.942V142H196.25V132.026H204.942V133.095H198.316ZM23.185 150.026L17.8418 160H15.6333L17.2007 157.079H16.0608L12 150.026H14.351L17.6993 155.868H17.8418L20.9765 150.026H23.185ZM29.1743 159.216C29.8202 159.216 30.4376 159.107 31.0266 158.889C31.625 158.661 32.1949 158.295 32.7364 157.792L33.4488 158.646C32.9074 159.15 32.2519 159.549 31.4825 159.843C30.7131 160.138 29.8962 160.285 29.0318 160.285C28.1389 160.285 27.3315 160.171 26.6096 159.943C25.8972 159.715 25.2845 159.378 24.7715 158.931C24.2681 158.485 23.8786 157.934 23.6032 157.279C23.3277 156.623 23.19 155.868 23.19 155.013C23.19 154.158 23.323 153.403 23.5889 152.748C23.8644 152.092 24.2491 151.541 24.743 151.095C25.2465 150.648 25.8497 150.311 26.5526 150.083C27.2555 149.855 28.0344 149.741 28.8893 149.741C29.7537 149.741 30.5706 149.888 31.34 150.183C32.1095 150.477 32.7649 150.876 33.3063 151.38L32.5939 152.235C32.0525 151.731 31.4825 151.37 30.8841 151.152C30.2952 150.924 29.6777 150.81 29.0318 150.81C28.5189 150.81 28.0392 150.895 27.5927 151.066C27.1463 151.228 26.7616 151.479 26.4386 151.821C26.1156 152.163 25.8592 152.6 25.6692 153.132C25.4887 153.655 25.3985 154.282 25.3985 155.013C25.3985 155.744 25.4887 156.376 25.6692 156.908C25.8592 157.431 26.1204 157.863 26.4529 158.205C26.7948 158.547 27.1938 158.803 27.6497 158.974C28.1152 159.136 28.6234 159.216 29.1743 159.216ZM34.0193 159.145H34.4467C34.7317 159.145 34.9834 159.026 35.2019 158.789C35.4204 158.551 35.5486 158.148 35.5866 157.578L36.0853 150.026H44.5631V160H42.4971V151.095H38.0088L37.5814 157.578C37.5149 158.509 37.2537 159.183 36.7977 159.601C36.3513 160.009 35.7338 160.214 34.9454 160.214C34.6985 160.214 34.48 160.19 34.29 160.142C34.1855 160.123 34.0953 160.1 34.0193 160.071V159.145ZM56.7465 150.026L51.4034 160H49.1949L50.7622 157.079H49.6224L45.5616 150.026H47.9126L51.2609 155.868H51.4034L54.5381 150.026H56.7465ZM59.9513 151.095V160H57.8853V150.026H66.1494V151.095H59.9513ZM75.4843 160V151.878H75.3418L69.9986 160H67.2914V150.026H69.3575V158.148H69.4999L74.8431 150.026H77.5503V160H75.4843Z" fill="#D8E3FD"/>
<path d="M74.4345 113.589V103.843H74.2635L67.8517 113.589H64.6031V101.62H67.0823V111.366H67.2533L73.6651 101.62H76.9137V113.589H74.4345Z" fill="#D8E3FD"/>
<path d="M127 -15C129.968 2.33551 147.589 36.5078 194.324 34.5131C252.742 32.0196 313.654 59.4477 283.732 90.4379" stroke="#D8E3FD" stroke-width="4.27451"/>
<path d="M14.4261 50.5015L12.1661 47.9618C15.3786 46.1312 17.096 42.7833 18.9764 39.757C18.7331 39.3613 18.7439 39.5384 18.4947 39.5913C17.6001 39.782 13.5392 41.6529 12.9214 42.2027L9.64018 45.1226L7.5131 42.7322L9.7734 40.7208C10.2869 40.2639 12.3206 39.3348 13.069 39.0031C15.3404 37.9956 17.8186 37.4823 20.172 36.7087L20.6925 36.0334L21.2477 34.5242C15.7773 35.757 9.64634 36.3675 5.38567 40.3416L3.12565 37.8019C8.6424 33.8172 15.7278 33.7618 22.1906 32.5079L23.2364 30.7482C15.8371 31.9924 7.5639 31.3744 0.998561 35.4115L-1.12852 33.0212C5.22979 29.4408 13.1398 30.2633 20.2205 29.5009C21.183 29.3974 24.2695 29.1424 24.8459 28.6267C26.0718 27.5311 26.9538 25.4921 28.8389 24.9808L29.5524 25.7989C23.5026 30.5586 22.5043 38.8231 18.8719 45.1429C18.4114 45.9446 17.131 48.0951 16.5413 48.6199L14.4268 50.5015L14.4261 50.5015Z" fill="#D8E3FD"/>
<path d="M18.3879 56.2565L16.1593 53.7522C20.7521 49.7586 21.9144 43.509 24.026 38.0529C23.6955 37.6049 22.2693 38.9381 22.281 38.2113C22.2829 38.1047 23.0758 36.3994 23.1661 36.3011C23.629 35.7936 24.3638 35.8394 24.7703 35.4244C25.1513 35.0358 25.533 33.928 25.643 33.5569C25.7529 33.1858 24.9462 33.5643 24.1976 33.7004C24.6517 32.6404 25.2265 31.9477 25.2265 31.9477L26.5485 31.3437C26.5485 31.3437 27.3143 30.0826 27.838 29.613L26.5316 29.6594C27.5587 28.1197 28.6381 27.3397 30.358 26.688L31.2562 27.6974C23.7613 35.4133 25.903 48.5722 18.3878 56.2573L18.3879 56.2565Z" fill="#D8E3FD"/>
<path d="M22.9974 61.4363L20.6902 58.8435C25.8614 52.9047 25.9351 44.2247 28.3561 36.9962C28.3561 36.9962 28.5356 36.58 28.2086 36.6299C27.7941 36.6932 27.1322 36.9893 27.1322 36.9893C27.3295 36.4109 27.6698 35.2994 27.8873 34.8844C27.9689 34.7283 28.9006 34.6778 29.3687 34.056C29.686 33.6349 29.7236 32.8018 30.1256 32.3656L29.217 32.6675C29.3963 30.9186 31.0425 29.9134 32.4186 29.0035L33.2476 29.935C26.9265 39.2648 29.4326 52.178 22.997 61.4367L22.9974 61.4363Z" fill="#D8E3FD"/>
<path d="M32.3151 35.4061C31.6239 32.9113 33.0107 31.9397 33.991 30.7711L35.5562 32.53C34.7131 33.7149 33.5986 34.7161 32.3151 35.4061Z" fill="#D8E3FD"/>
<path d="M55.8636 13.6296L53.6036 11.0899C51.4123 14.0681 47.8875 15.385 44.6634 16.9012C44.2985 16.6136 44.4732 16.6449 44.5547 16.4035C44.848 15.5371 47.1779 11.721 47.7957 11.1712L51.0769 8.25135L48.9498 5.86104L46.6895 7.87243C46.176 8.32941 45.017 10.2415 44.6006 10.9463C43.3362 13.0853 42.5385 15.4871 41.4968 17.7347L40.7657 18.1732L39.2021 18.5494C41.0619 13.2592 42.3804 7.24062 46.8224 3.47035L44.5624 0.930646C39.964 5.94728 39.086 12.9783 37.09 19.2518L35.2207 20.086C37.3158 12.8814 37.663 4.59236 42.4353 -1.45966L40.3082 -3.84997C36.0136 2.04948 35.9117 10.0015 34.3321 16.9457C34.1175 17.8897 33.5058 20.9257 32.9267 21.4383C31.6961 22.5286 29.5685 23.1678 28.8417 24.9808L29.5714 25.7845C35.0015 20.3284 43.326 20.2968 50.0249 17.4229C50.8747 17.0587 53.1593 16.0367 53.749 15.512L55.8635 13.6303L55.8636 13.6296Z" fill="#D8E3FD"/>
<path d="M60.4691 18.8093L58.2406 16.3049C53.8784 20.2802 47.6498 20.6076 42.1032 21.9664C41.6977 21.5851 43.1433 20.3626 42.4313 20.28C42.3268 20.268 40.58 20.8227 40.4749 20.8983C39.9325 21.2853 39.9044 22.0101 39.4581 22.354C39.0402 22.6763 37.9187 22.9062 37.5448 22.9657C37.1709 23.0251 37.6211 22.285 37.8286 21.5704C36.7467 21.8773 36.0121 22.3498 36.0121 22.3498L35.29 23.5648C35.29 23.5648 33.9804 24.1505 33.4691 24.6019L33.6441 23.3301C32.0361 24.1353 31.166 25.0901 30.3579 26.6881L31.2561 27.6974C39.5474 21.3656 52.2067 25.1651 60.4699 18.8093L60.4691 18.8093Z" fill="#D8E3FD"/>
<path d="M65.0787 23.989L62.7714 21.3962C56.449 25.6853 47.9511 24.6331 40.64 26.0649C40.64 26.0649 40.2151 26.1866 40.2963 25.8732C40.3994 25.476 40.7548 24.8669 40.7548 24.8669C40.1693 24.9849 39.0483 25.1738 38.6208 25.3328C38.4601 25.3924 38.3182 26.2972 37.6635 26.6745C37.22 26.9304 36.4015 26.8592 35.9348 27.196L36.3203 26.3464C34.5918 26.2952 33.4451 27.7753 32.4185 29.0035L33.2475 29.935C43.001 24.9604 55.3838 29.0845 65.0791 23.9887L65.0787 23.989Z" fill="#D8E3FD"/>
<path d="M39.4362 29.0687C36.8679 28.2443 35.4906 29.7325 33.9905 30.7711L35.5557 32.53C37.0424 31.6418 38.39 30.4519 39.4362 29.0687Z" fill="#D8E3FD"/>
<path d="M14.4261 50.5015L12.1661 47.9618C15.3786 46.1312 17.096 42.7833 18.9764 39.757C18.7331 39.3613 18.7439 39.5384 18.4947 39.5913C17.6001 39.782 13.5392 41.6529 12.9214 42.2027L9.64018 45.1226L7.5131 42.7322L9.7734 40.7208C10.2869 40.2639 12.3206 39.3348 13.069 39.0031C15.3404 37.9956 17.8186 37.4823 20.172 36.7087L20.6925 36.0334L21.2477 34.5242C15.7773 35.757 9.64634 36.3675 5.38567 40.3416L3.12565 37.8019C8.6424 33.8172 15.7278 33.7618 22.1906 32.5079L23.2364 30.7482C15.8371 31.9924 7.5639 31.3744 0.998561 35.4115L-1.12852 33.0212C5.22979 29.4408 13.1398 30.2633 20.2205 29.5009C21.183 29.3974 24.2695 29.1424 24.8459 28.6267C26.0718 27.5311 26.9538 25.4921 28.8389 24.9808L29.5524 25.7989C23.5026 30.5586 22.5043 38.8231 18.8719 45.1429C18.4114 45.9446 17.131 48.0951 16.5413 48.6199L14.4268 50.5015L14.4261 50.5015Z" fill="#D8E3FD"/>
<path d="M18.3879 56.2565L16.1593 53.7522C20.7521 49.7586 21.9144 43.509 24.026 38.0529C23.6955 37.6049 22.2693 38.9381 22.281 38.2113C22.2829 38.1047 23.0758 36.3994 23.1661 36.3011C23.629 35.7936 24.3638 35.8394 24.7703 35.4244C25.1513 35.0358 25.533 33.928 25.643 33.5569C25.7529 33.1858 24.9462 33.5643 24.1976 33.7004C24.6517 32.6404 25.2265 31.9477 25.2265 31.9477L26.5485 31.3437C26.5485 31.3437 27.3143 30.0826 27.838 29.613L26.5316 29.6594C27.5587 28.1197 28.6381 27.3397 30.358 26.688L31.2562 27.6974C23.7613 35.4133 25.903 48.5722 18.3878 56.2573L18.3879 56.2565Z" fill="#D8E3FD"/>
<path d="M22.9974 61.4363L20.6902 58.8435C25.8614 52.9047 25.9351 44.2247 28.3561 36.9962C28.3561 36.9962 28.5356 36.58 28.2086 36.6299C27.7941 36.6932 27.1322 36.9893 27.1322 36.9893C27.3295 36.4109 27.6698 35.2994 27.8873 34.8844C27.9689 34.7283 28.9006 34.6778 29.3687 34.056C29.686 33.6349 29.7236 32.8018 30.1256 32.3656L29.217 32.6675C29.3963 30.9186 31.0425 29.9134 32.4186 29.0035L33.2476 29.935C26.9265 39.2648 29.4326 52.178 22.997 61.4367L22.9974 61.4363Z" fill="#D8E3FD"/>
<path d="M32.3151 35.4061C31.6239 32.9113 33.0107 31.9397 33.991 30.7711L35.5562 32.53C34.7131 33.7149 33.5986 34.7161 32.3151 35.4061Z" fill="#D8E3FD"/>
<path d="M55.8636 13.6296L53.6036 11.0899C51.4123 14.0681 47.8875 15.385 44.6634 16.9012C44.2985 16.6136 44.4732 16.6449 44.5547 16.4035C44.848 15.5371 47.1779 11.721 47.7957 11.1712L51.0769 8.25135L48.9498 5.86104L46.6895 7.87243C46.176 8.32941 45.017 10.2415 44.6006 10.9463C43.3362 13.0853 42.5385 15.4871 41.4968 17.7347L40.7657 18.1732L39.2021 18.5494C41.0619 13.2592 42.3804 7.24062 46.8224 3.47035L44.5624 0.930646C39.964 5.94728 39.086 12.9783 37.09 19.2518L35.2207 20.086C37.3158 12.8814 37.663 4.59236 42.4353 -1.45966L40.3082 -3.84997C36.0136 2.04948 35.9117 10.0015 34.3321 16.9457C34.1175 17.8897 33.5058 20.9257 32.9267 21.4383C31.6961 22.5286 29.5685 23.1678 28.8417 24.9808L29.5714 25.7845C35.0015 20.3284 43.326 20.2968 50.0249 17.4229C50.8747 17.0587 53.1593 16.0367 53.749 15.512L55.8635 13.6303L55.8636 13.6296Z" fill="#D8E3FD"/>
<path d="M60.4691 18.8093L58.2406 16.3049C53.8784 20.2802 47.6498 20.6076 42.1032 21.9664C41.6977 21.5851 43.1433 20.3626 42.4313 20.28C42.3268 20.268 40.58 20.8227 40.4749 20.8983C39.9325 21.2853 39.9044 22.0101 39.4581 22.354C39.0402 22.6763 37.9187 22.9062 37.5448 22.9657C37.1709 23.0251 37.6211 22.285 37.8286 21.5704C36.7467 21.8773 36.0121 22.3498 36.0121 22.3498L35.29 23.5648C35.29 23.5648 33.9804 24.1505 33.4691 24.6019L33.6441 23.3301C32.0361 24.1353 31.166 25.0901 30.3579 26.6881L31.2561 27.6974C39.5474 21.3656 52.2067 25.1651 60.4699 18.8093L60.4691 18.8093Z" fill="#D8E3FD"/>
<path d="M65.0787 23.989L62.7714 21.3962C56.449 25.6853 47.9511 24.6331 40.64 26.0649C40.64 26.0649 40.2151 26.1866 40.2963 25.8732C40.3994 25.476 40.7548 24.8669 40.7548 24.8669C40.1693 24.9849 39.0483 25.1738 38.6208 25.3328C38.4601 25.3924 38.3182 26.2972 37.6635 26.6745C37.22 26.9304 36.4015 26.8592 35.9348 27.196L36.3203 26.3464C34.5918 26.2952 33.4451 27.7753 32.4185 29.0035L33.2475 29.935C43.001 24.9604 55.3838 29.0845 65.0791 23.9887L65.0787 23.989Z" fill="#D8E3FD"/>
<path d="M39.4362 29.0687C36.8679 28.2443 35.4906 29.7325 33.9905 30.7711L35.5557 32.53C37.0424 31.6418 38.39 30.4519 39.4362 29.0687Z" fill="#D8E3FD"/>
<path d="M-20.5349 81.6121L-22.7949 79.0724C-19.5824 77.2419 -17.8649 73.8939 -15.9845 70.8677C-16.2278 70.4719 -16.217 70.649 -16.4663 70.702C-17.3609 70.8926 -21.4218 72.7636 -22.0396 73.3133L-25.3208 76.2332L-27.4478 73.8429L-25.1875 71.8315C-24.674 71.3745 -22.6403 70.4454 -21.8919 70.1137C-19.6205 69.1062 -17.1423 68.5929 -14.7889 67.8194L-14.2684 67.1441L-13.7132 65.6348C-19.1836 66.8676 -25.3146 67.4781 -29.5753 71.4522L-31.8353 68.9125C-26.3185 64.9278 -19.2332 64.8724 -12.7703 63.6185L-11.7246 61.8588C-19.1238 63.103 -27.397 62.4851 -33.9624 66.5222L-36.0895 64.1319C-29.7311 60.5515 -21.8211 61.3739 -14.7404 60.6115C-13.7779 60.508 -10.6914 60.253 -10.115 59.7373C-8.88918 58.6417 -8.00715 56.6027 -6.12205 56.0914L-5.40849 56.9096C-11.4583 61.6692 -12.4566 69.9337 -16.0891 76.2535C-16.5495 77.0552 -17.8299 79.2057 -18.4196 79.7305L-20.5341 81.6121L-20.5349 81.6121Z" fill="#D8E3FD"/>
<path d="M-16.5731 87.3672L-18.8016 84.8629C-14.2088 80.8693 -13.0465 74.6197 -10.9349 69.1636C-11.2654 68.7155 -12.6917 70.0488 -12.6799 69.322C-12.6781 69.2154 -11.8851 67.5101 -11.7948 67.4118C-11.332 66.9043 -10.5971 66.9501 -10.1906 66.5351C-9.80965 66.1465 -9.42792 65.0387 -9.31798 64.6676C-9.20804 64.2965 -10.0148 64.6749 -10.7633 64.8111C-10.3092 63.7511 -9.73448 63.0584 -9.73448 63.0584L-8.41242 62.4544C-8.41242 62.4544 -7.64662 61.1933 -7.12296 60.7237L-8.42929 60.7701C-7.4022 59.2304 -6.3228 58.4504 -4.60293 57.7987L-3.70472 58.8081C-11.1996 66.524 -9.0579 79.6829 -16.5731 87.368L-16.5731 87.3672Z" fill="#D8E3FD"/>
<path d="M-11.9635 92.547L-14.2708 89.9542C-9.09958 84.0154 -9.02581 75.3354 -6.60484 68.1069C-6.60484 68.1069 -6.42537 67.6907 -6.75229 67.7406C-7.1668 67.8039 -7.8287 68.1 -7.8287 68.1C-7.63146 67.5215 -7.29115 66.41 -7.07363 65.995C-6.99199 65.839 -6.06034 65.7885 -5.59228 65.1666C-5.27496 64.7455 -5.23736 63.9125 -4.83533 63.4762L-5.74389 63.7781C-5.5646 62.0293 -3.91839 61.024 -2.5423 60.1141L-1.71336 61.0456C-8.0344 70.3755 -5.52833 83.2886 -11.9639 92.5473L-11.9635 92.547Z" fill="#D8E3FD"/>
<path d="M-2.5881 66.5793C-2.76452 64.663 -1.42113 63.6426 -0.391818 62.5291L0.651681 63.7017C-0.263374 64.8058 -1.37946 65.8052 -2.5881 66.5793Z" fill="#D8E3FD"/>
<path d="M20.9026 44.7402L18.6426 42.2005C16.4514 45.1787 12.9266 46.4957 9.70244 48.0119C9.33759 47.7243 9.51224 47.7555 9.59379 47.5141C9.88706 46.6477 12.217 42.8316 12.8348 42.2818L16.116 39.362L13.9889 36.9717L11.7286 38.9831C11.2151 39.44 10.056 41.3521 9.63967 42.0569C8.37522 44.1959 7.57758 46.5977 6.53589 48.8453L5.80471 49.2839L4.24118 49.66C6.10099 44.3698 7.41945 38.3512 11.8615 34.581L9.60144 32.0413C5.00301 37.0579 4.12503 44.0889 2.12906 50.3624L0.259779 51.1966C2.35491 43.992 2.70204 35.703 7.47436 29.651L5.34727 27.2607C1.05264 33.1601 0.950808 41.1121 -0.628831 48.0564C-0.843426 49.0003 -1.45513 52.0363 -2.03426 52.5489C-3.26489 53.6392 -5.39249 54.2785 -6.11928 56.0914L-5.38955 56.8952C0.0405794 51.4391 8.36505 51.4074 15.064 48.5336C15.9137 48.1693 18.1984 47.1473 18.7881 46.6226L20.9026 44.7409L20.9026 44.7402Z" fill="#D8E3FD"/>
<path d="M25.5082 49.9199L23.2796 47.4155C18.9174 51.3909 12.6889 51.7182 7.14226 53.077C6.73674 52.6957 8.1824 51.4732 7.47033 51.3906C7.36585 51.3786 5.61911 51.9334 5.51397 52.0089C4.97158 52.396 4.94348 53.1207 4.4972 53.4646C4.07927 53.7869 2.95781 54.0168 2.58388 54.0763C2.20996 54.1358 2.6602 53.3957 2.86763 52.6811C1.78572 52.988 1.05113 53.4604 1.05113 53.4604L0.329089 54.6754C0.329089 54.6754 -0.980494 55.2611 -1.4918 55.7125L-1.31683 54.4407C-2.92481 55.246 -3.79493 56.2008 -4.60305 57.7987L-3.70483 58.8081C4.58646 52.4762 17.2458 56.2757 25.5089 49.9199L25.5082 49.9199Z" fill="#D8E3FD"/>
<path d="M30.1177 55.0996L27.8105 52.5068C21.4881 56.7959 12.9902 55.7437 5.6791 57.1755C5.6791 57.1755 5.25419 57.2972 5.33541 56.9839C5.4385 56.5866 5.79382 55.9775 5.79382 55.9775C5.2084 56.0955 4.08739 56.2844 3.65985 56.4434C3.49912 56.5031 3.35725 57.4078 2.70253 57.7851C2.2591 58.041 1.44053 57.9699 0.973905 58.3066L1.35935 57.457C-0.369139 57.4058 -1.5158 58.8859 -2.54242 60.1141L-1.71347 61.0456C8.04008 56.071 20.4228 60.1951 30.1181 55.0993L30.1177 55.0996Z" fill="#D8E3FD"/>
<path d="M4.533 60.242C2.47948 59.996 1.05871 61.4355 -0.392318 62.5291L0.651181 63.7018C2.06584 62.7327 3.41192 61.541 4.533 60.242Z" fill="#D8E3FD"/>
<path d="M50.4651 18.7261L48.2051 16.1864C51.5021 14.2807 53.3014 10.8599 55.2616 7.76268C55.0202 7.36521 55.0284 7.54459 54.774 7.60215C53.8609 7.80933 49.7001 9.76913 49.063 10.3361L45.6793 13.3472L43.5522 10.9569L45.8831 8.88262C46.4127 8.41136 48.4963 7.43787 49.2629 7.08997C51.5895 6.03335 54.1189 5.47451 56.5253 4.65371L57.0654 3.96101L57.6537 2.42229C52.0688 3.75701 45.8214 4.47111 41.4247 8.56618L39.1647 6.02648C44.8395 1.90118 52.0493 1.73502 58.6444 0.363564L59.7356 -1.43671C52.1881 -0.0605153 43.7801 -0.558587 37.0376 3.63617L34.9106 1.24586C41.4353 -2.48265 49.4705 -1.77162 56.6866 -2.65445C57.6674 -2.77432 60.8117 -3.0807 61.4062 -3.61244C62.6704 -4.74226 63.5995 -6.82307 65.5254 -7.37069L66.2387 -6.55233C60.0094 -1.63302 58.8655 6.76106 55.0716 13.2246C54.5907 14.0445 53.2546 16.2445 52.6465 16.7857L50.4659 18.7261L50.4651 18.7261Z" fill="#D8E3FD"/>
<path d="M55.0754 23.9051L52.8468 21.4007C57.4396 17.4072 58.6019 11.1576 60.7135 5.70147C60.383 5.25338 58.9568 6.58659 58.9685 5.85984C58.9704 5.75322 59.7633 4.04796 59.8536 3.94964C60.3165 3.4421 61.0513 3.48792 61.4578 3.07293C61.8388 2.68432 62.2205 1.57657 62.3305 1.20546C62.4404 0.834352 61.6337 1.21279 60.8851 1.34891C61.3392 0.288944 61.914 -0.403728 61.914 -0.403728L63.236 -1.00776C63.236 -1.00776 64.0018 -2.26886 64.5255 -2.73844L63.2191 -2.6921C64.2462 -4.23174 65.3256 -5.01177 67.0455 -5.66344L67.9437 -4.65408C60.4488 3.06182 62.5905 16.2207 55.0753 23.9058L55.0754 23.9051Z" fill="#D8E3FD"/>
<path d="M59.6849 29.0848L57.3777 26.492C62.5489 20.5533 62.6226 11.8733 65.0436 4.64475C65.0436 4.64475 65.2231 4.22857 64.8961 4.27843C64.4816 4.34177 63.8197 4.63787 63.8197 4.63787C64.017 4.05941 64.3573 2.94791 64.5748 2.53291C64.6564 2.37687 65.5881 2.32635 66.0562 1.70451C66.3735 1.28338 66.4111 0.450371 66.8131 0.0141219L65.9045 0.315993C66.0838 -1.43286 67.73 -2.43809 69.1061 -3.34801L69.9351 -2.41648C63.614 6.91336 66.1201 19.8265 59.6845 29.0852L59.6849 29.0848Z" fill="#D8E3FD"/>
<path d="M68.4119 3.69335C68.4061 1.62517 70.0008 0.381186 71.2556 -0.932996L72.2991 0.239634C71.1723 1.53216 69.8323 2.73073 68.4119 3.69335Z" fill="#D8E3FD"/>
<path d="M97.1566 -13.5422L94.9281 -16.0466C90.5659 -12.0713 84.3373 -11.7439 78.7907 -10.3851C78.3852 -10.7664 79.8308 -11.9889 79.1188 -12.0715C79.0143 -12.0835 77.2675 -11.5288 77.1624 -11.4532C76.62 -11.0662 76.5919 -10.3414 76.1456 -9.99751C75.7277 -9.67522 74.6062 -9.44531 74.2323 -9.38584C73.8584 -9.32637 74.3086 -10.0665 74.5161 -10.7811C73.4342 -10.4742 72.6996 -10.0017 72.6996 -10.0017L71.9775 -8.78673C71.9775 -8.78673 70.6679 -8.20099 70.1566 -7.74959L70.3316 -9.02141C68.7236 -8.21617 67.8535 -7.26136 67.0454 -5.66343L67.9436 -4.65407C76.2349 -10.986 88.8942 -7.18643 97.1574 -13.5422L97.1566 -13.5422Z" fill="#D8E3FD"/>
<path d="M101.766 -8.36251L99.4589 -10.9553C93.1365 -6.66619 84.6386 -7.71839 77.3275 -6.28659C77.3275 -6.28659 76.9026 -6.16494 76.9838 -6.47828C77.0869 -6.87554 77.4423 -7.48465 77.4423 -7.48465C76.8568 -7.36663 75.7358 -7.17773 75.3083 -7.01871C75.1476 -6.95906 75.0057 -6.05429 74.351 -5.67699C73.9075 -5.42113 73.089 -5.49227 72.6223 -5.15551L73.0078 -6.00515C71.2793 -6.05631 70.1326 -4.57623 69.106 -3.34803L69.935 -2.4165C79.6885 -7.3911 92.0713 -3.26699 101.767 -8.36285L101.766 -8.36251Z" fill="#D8E3FD"/>
<path d="M75.533 -2.64399C73.6501 -3.04179 72.4806 -1.82599 71.2551 -0.932982L72.2986 0.239648C73.5015 -0.540985 74.6237 -1.53345 75.533 -2.64399Z" fill="#D8E3FD"/>
<path d="M174.426 211.501L172.166 208.961C175.379 207.131 177.096 203.783 178.976 200.757C178.733 200.361 178.744 200.538 178.495 200.591C177.6 200.782 173.539 202.653 172.921 203.202L169.64 206.122L167.513 203.732L169.773 201.72C170.287 201.263 172.321 200.334 173.069 200.003C175.34 198.995 177.819 198.482 180.172 197.708L180.693 197.033L181.248 195.524C175.777 196.757 169.646 197.367 165.386 201.341L163.126 198.801C168.642 194.817 175.728 194.761 182.191 193.508L183.236 191.748C175.837 192.992 167.564 192.374 160.999 196.411L158.871 194.021C165.23 190.44 173.14 191.263 180.221 190.5C181.183 190.397 184.27 190.142 184.846 189.626C186.072 188.531 186.954 186.492 188.839 185.98L189.552 186.799C183.503 191.558 182.504 199.823 178.872 206.143C178.411 206.944 177.131 209.095 176.541 209.619L174.427 211.501L174.426 211.501Z" fill="#D8E3FD"/>
<path d="M178.388 217.256L176.159 214.752C180.752 210.758 181.914 204.509 184.026 199.053C183.696 198.604 182.269 199.938 182.281 199.211C182.283 199.104 183.076 197.399 183.166 197.301C183.629 196.793 184.364 196.839 184.77 196.424C185.151 196.035 185.533 194.928 185.643 194.557C185.753 194.185 184.946 194.564 184.198 194.7C184.652 193.64 185.226 192.947 185.226 192.947L186.549 192.343C186.549 192.343 187.314 191.082 187.838 190.613L186.532 190.659C187.559 189.119 188.638 188.339 190.358 187.688L191.256 188.697C183.761 196.413 185.903 209.572 178.388 217.257L178.388 217.256Z" fill="#D8E3FD"/>
<path d="M182.997 222.436L180.69 219.843C185.861 213.904 185.935 205.224 188.356 197.996C188.356 197.996 188.536 197.58 188.209 197.63C187.794 197.693 187.132 197.989 187.132 197.989C187.329 197.41 187.67 196.299 187.887 195.884C187.969 195.728 188.901 195.677 189.369 195.056C189.686 194.634 189.724 193.801 190.126 193.365L189.217 193.667C189.396 191.918 191.043 190.913 192.419 190.003L193.248 190.935C186.927 200.264 189.433 213.178 182.997 222.436L182.997 222.436Z" fill="#D8E3FD"/>
<path d="M192.315 196.406C191.624 193.911 193.011 192.939 193.991 191.771L195.556 193.53C194.713 194.715 193.599 195.716 192.315 196.406Z" fill="#D8E3FD"/>
<path d="M215.864 174.629L213.604 172.09C211.412 175.068 207.888 176.385 204.663 177.901C204.299 177.613 204.473 177.645 204.555 177.403C204.848 176.537 207.178 172.721 207.796 172.171L211.077 169.251L208.95 166.861L206.69 168.872C206.176 169.329 205.017 171.241 204.601 171.946C203.336 174.085 202.539 176.487 201.497 178.734L200.766 179.173L199.202 179.549C201.062 174.259 202.38 168.24 206.822 164.47L204.562 161.93C199.964 166.947 199.086 173.978 197.09 180.251L195.221 181.086C197.316 173.881 197.663 165.592 202.435 159.54L200.308 157.15C196.014 163.049 195.912 171.001 194.332 177.945C194.118 178.889 193.506 181.925 192.927 182.438C191.696 183.528 189.568 184.167 188.842 185.98L189.571 186.784C195.002 181.328 203.326 181.296 210.025 178.423C210.875 178.058 213.159 177.036 213.749 176.512L215.864 174.63L215.864 174.629Z" fill="#D8E3FD"/>
<path d="M220.469 179.809L218.241 177.305C213.878 181.28 207.65 181.607 202.103 182.966C201.698 182.585 203.143 181.362 202.431 181.28C202.327 181.268 200.58 181.822 200.475 181.898C199.933 182.285 199.904 183.01 199.458 183.354C199.04 183.676 197.919 183.906 197.545 183.965C197.171 184.025 197.621 183.285 197.829 182.57C196.747 182.877 196.012 183.349 196.012 183.349L195.29 184.564C195.29 184.564 193.98 185.15 193.469 185.602L193.644 184.33C192.036 185.135 191.166 186.09 190.358 187.688L191.256 188.697C199.547 182.365 212.207 186.165 220.47 179.809L220.469 179.809Z" fill="#D8E3FD"/>
<path d="M225.079 184.989L222.771 182.396C216.449 186.685 207.951 185.633 200.64 187.065C200.64 187.065 200.215 187.186 200.296 186.873C200.399 186.476 200.755 185.866 200.755 185.866C200.169 185.984 199.048 186.173 198.621 186.332C198.46 186.392 198.318 187.297 197.663 187.674C197.22 187.93 196.401 187.859 195.935 188.196L196.32 187.346C194.592 187.295 193.445 188.775 192.419 190.003L193.247 190.935C203.001 185.96 215.384 190.084 225.079 184.988L225.079 184.989Z" fill="#D8E3FD"/>
<path d="M199.436 190.068C196.868 189.244 195.491 190.732 193.99 191.771L195.556 193.53C197.042 192.641 198.39 191.451 199.436 190.068Z" fill="#D8E3FD"/>
<path d="M174.426 211.501L172.166 208.961C175.379 207.131 177.096 203.783 178.976 200.757C178.733 200.361 178.744 200.538 178.495 200.591C177.6 200.782 173.539 202.653 172.921 203.202L169.64 206.122L167.513 203.732L169.773 201.72C170.287 201.263 172.321 200.334 173.069 200.003C175.34 198.995 177.819 198.482 180.172 197.708L180.693 197.033L181.248 195.524C175.777 196.757 169.646 197.367 165.386 201.341L163.126 198.801C168.642 194.817 175.728 194.761 182.191 193.508L183.236 191.748C175.837 192.992 167.564 192.374 160.999 196.411L158.871 194.021C165.23 190.44 173.14 191.263 180.221 190.5C181.183 190.397 184.27 190.142 184.846 189.626C186.072 188.531 186.954 186.492 188.839 185.98L189.552 186.799C183.503 191.558 182.504 199.823 178.872 206.143C178.411 206.944 177.131 209.095 176.541 209.619L174.427 211.501L174.426 211.501Z" fill="#D8E3FD"/>
<path d="M178.388 217.256L176.159 214.752C180.752 210.758 181.914 204.509 184.026 199.053C183.696 198.604 182.269 199.938 182.281 199.211C182.283 199.104 183.076 197.399 183.166 197.301C183.629 196.793 184.364 196.839 184.77 196.424C185.151 196.035 185.533 194.928 185.643 194.557C185.753 194.185 184.946 194.564 184.198 194.7C184.652 193.64 185.226 192.947 185.226 192.947L186.549 192.343C186.549 192.343 187.314 191.082 187.838 190.613L186.532 190.659C187.559 189.119 188.638 188.339 190.358 187.688L191.256 188.697C183.761 196.413 185.903 209.572 178.388 217.257L178.388 217.256Z" fill="#D8E3FD"/>
<path d="M182.997 222.436L180.69 219.843C185.861 213.904 185.935 205.224 188.356 197.996C188.356 197.996 188.536 197.58 188.209 197.63C187.794 197.693 187.132 197.989 187.132 197.989C187.329 197.41 187.67 196.299 187.887 195.884C187.969 195.728 188.901 195.677 189.369 195.056C189.686 194.634 189.724 193.801 190.126 193.365L189.217 193.667C189.396 191.918 191.043 190.913 192.419 190.003L193.248 190.935C186.927 200.264 189.433 213.178 182.997 222.436L182.997 222.436Z" fill="#D8E3FD"/>
<path d="M192.315 196.406C191.624 193.911 193.011 192.939 193.991 191.771L195.556 193.53C194.713 194.715 193.599 195.716 192.315 196.406Z" fill="#D8E3FD"/>
<path d="M215.864 174.629L213.604 172.09C211.412 175.068 207.888 176.385 204.663 177.901C204.299 177.613 204.473 177.645 204.555 177.403C204.848 176.537 207.178 172.721 207.796 172.171L211.077 169.251L208.95 166.861L206.69 168.872C206.176 169.329 205.017 171.241 204.601 171.946C203.336 174.085 202.539 176.487 201.497 178.734L200.766 179.173L199.202 179.549C201.062 174.259 202.38 168.24 206.822 164.47L204.562 161.93C199.964 166.947 199.086 173.978 197.09 180.251L195.221 181.086C197.316 173.881 197.663 165.592 202.435 159.54L200.308 157.15C196.014 163.049 195.912 171.001 194.332 177.945C194.118 178.889 193.506 181.925 192.927 182.438C191.696 183.528 189.568 184.167 188.842 185.98L189.571 186.784C195.002 181.328 203.326 181.296 210.025 178.423C210.875 178.058 213.159 177.036 213.749 176.512L215.864 174.63L215.864 174.629Z" fill="#D8E3FD"/>
<path d="M220.469 179.809L218.241 177.305C213.878 181.28 207.65 181.607 202.103 182.966C201.698 182.585 203.143 181.362 202.431 181.28C202.327 181.268 200.58 181.822 200.475 181.898C199.933 182.285 199.904 183.01 199.458 183.354C199.04 183.676 197.919 183.906 197.545 183.965C197.171 184.025 197.621 183.285 197.829 182.57C196.747 182.877 196.012 183.349 196.012 183.349L195.29 184.564C195.29 184.564 193.98 185.15 193.469 185.602L193.644 184.33C192.036 185.135 191.166 186.09 190.358 187.688L191.256 188.697C199.547 182.365 212.207 186.165 220.47 179.809L220.469 179.809Z" fill="#D8E3FD"/>
<path d="M225.079 184.989L222.771 182.396C216.449 186.685 207.951 185.633 200.64 187.065C200.64 187.065 200.215 187.186 200.296 186.873C200.399 186.476 200.755 185.866 200.755 185.866C200.169 185.984 199.048 186.173 198.621 186.332C198.46 186.392 198.318 187.297 197.663 187.674C197.22 187.93 196.401 187.859 195.935 188.196L196.32 187.346C194.592 187.295 193.445 188.775 192.419 190.003L193.247 190.935C203.001 185.96 215.384 190.084 225.079 184.988L225.079 184.989Z" fill="#D8E3FD"/>
<path d="M199.436 190.068C196.868 189.244 195.491 190.732 193.99 191.771L195.556 193.53C197.042 192.641 198.39 191.451 199.436 190.068Z" fill="#D8E3FD"/>
<path d="M139.465 242.612L137.205 240.072C140.418 238.241 142.135 234.894 144.015 231.867C143.772 231.472 143.783 231.649 143.534 231.702C142.639 231.892 138.578 233.763 137.96 234.313L134.679 237.233L132.552 234.843L134.812 232.831C135.326 232.374 137.36 231.445 138.108 231.113C140.379 230.106 142.858 229.593 145.211 228.819L145.732 228.144L146.287 226.634C140.816 227.867 134.685 228.478 130.425 232.452L128.165 229.912C133.681 225.927 140.767 225.872 147.23 224.618L148.275 222.858C140.876 224.103 132.603 223.485 126.038 227.522L123.911 225.131C130.269 221.551 138.179 222.374 145.26 221.611C146.222 221.508 149.309 221.253 149.885 220.737C151.111 219.641 151.993 217.602 153.878 217.091L154.592 217.909C148.542 222.669 147.543 230.933 143.911 237.253C143.45 238.055 142.17 240.205 141.58 240.73L139.466 242.612L139.465 242.612Z" fill="#D8E3FD"/>
<path d="M180.903 205.74L178.643 203.2C176.451 206.178 172.927 207.495 169.702 209.011C169.338 208.724 169.512 208.755 169.594 208.514C169.887 207.647 172.217 203.831 172.835 203.281L176.116 200.362L173.989 197.971L171.729 199.983C171.215 200.44 170.056 202.352 169.64 203.057C168.375 205.196 167.578 207.597 166.536 209.845L165.805 210.284L164.241 210.66C166.101 205.369 167.419 199.351 171.861 195.581L169.601 193.041C165.003 198.058 164.125 205.089 162.129 211.362L160.26 212.196C162.355 204.992 162.702 196.703 167.474 190.651L165.347 188.26C161.053 194.16 160.951 202.112 159.371 209.056C159.157 210 158.545 213.036 157.966 213.549C156.735 214.639 154.608 215.278 153.881 217.091L154.61 217.895C160.041 212.439 168.365 212.407 175.064 209.533C175.914 209.169 178.198 208.147 178.788 207.622L180.903 205.741L180.903 205.74Z" fill="#D8E3FD"/>
<path d="M185.508 210.92L183.28 208.415C178.917 212.39 172.689 212.718 167.142 214.077C166.737 213.695 168.182 212.473 167.47 212.39C167.366 212.378 165.619 212.933 165.514 213.009C164.972 213.396 164.943 214.12 164.497 214.464C164.079 214.787 162.958 215.016 162.584 215.076C162.21 215.135 162.66 214.395 162.868 213.681C161.786 213.988 161.051 214.46 161.051 214.46L160.329 215.675C160.329 215.675 159.02 216.261 158.508 216.712L158.683 215.44C157.075 216.246 156.205 217.2 155.397 218.798L156.295 219.808C164.586 213.476 177.246 217.275 185.509 210.92L185.508 210.92Z" fill="#D8E3FD"/>
<path d="M190.118 216.099L187.81 213.506C181.488 217.796 172.99 216.743 165.679 218.175C165.679 218.175 165.254 218.297 165.335 217.983C165.438 217.586 165.794 216.977 165.794 216.977C165.208 217.095 164.087 217.284 163.66 217.443C163.499 217.503 163.357 218.407 162.703 218.785C162.259 219.041 161.441 218.969 160.974 219.306L161.359 218.457C159.631 218.405 158.484 219.886 157.458 221.114L158.287 222.045C168.04 217.071 180.423 221.195 190.118 216.099L190.118 216.099Z" fill="#D8E3FD"/>
<path d="M210.465 179.726L208.205 177.186C211.502 175.28 213.301 171.859 215.262 168.762C215.02 168.365 215.028 168.544 214.774 168.602C213.861 168.809 209.7 170.769 209.063 171.336L205.679 174.347L203.552 171.956L205.883 169.882C206.413 169.411 208.496 168.437 209.263 168.09C211.59 167.033 214.119 166.474 216.525 165.653L217.065 164.961L217.654 163.422C212.069 164.757 205.821 165.471 201.425 169.566L199.165 167.026C204.84 162.901 212.049 162.735 218.644 161.363L219.736 159.563C212.188 160.939 203.78 160.441 197.038 164.636L194.911 162.245C201.435 158.517 209.471 159.228 216.687 158.345C217.667 158.225 220.812 157.919 221.406 157.387C222.67 156.257 223.599 154.177 225.525 153.629L226.239 154.447C220.009 159.367 218.865 167.761 215.072 174.224C214.591 175.044 213.255 177.244 212.646 177.785L210.466 179.726L210.465 179.726Z" fill="#D8E3FD"/>
<path d="M215.075 184.905L212.847 182.4C217.44 178.407 218.602 172.157 220.714 166.701C220.383 166.253 218.957 167.586 218.969 166.859C218.97 166.753 219.763 165.048 219.854 164.949C220.316 164.442 221.051 164.488 221.458 164.073C221.839 163.684 222.221 162.576 222.33 162.205C222.44 161.834 221.634 162.212 220.885 162.349C221.339 161.289 221.914 160.596 221.914 160.596L223.236 159.992C223.236 159.992 224.002 158.731 224.525 158.261L223.219 158.308C224.246 156.768 225.326 155.988 227.046 155.336L227.944 156.346C220.449 164.061 222.591 177.22 215.075 184.905L215.075 184.905Z" fill="#D8E3FD"/>
<path d="M219.685 190.084L217.378 187.492C222.549 181.553 222.623 172.873 225.044 165.644C225.044 165.644 225.223 165.228 224.896 165.278C224.482 165.341 223.82 165.637 223.82 165.637C224.017 165.059 224.357 163.948 224.575 163.533C224.656 163.376 225.588 163.326 226.056 162.704C226.373 162.283 226.411 161.45 226.813 161.014L225.905 161.316C226.084 159.567 227.73 158.562 229.106 157.652L229.935 158.583C223.614 167.913 226.12 180.826 219.685 190.085L219.685 190.084Z" fill="#D8E3FD"/>
<path d="M252.547 142.278L250.287 139.738C248.096 142.716 244.571 144.033 241.347 145.549C240.982 145.262 241.157 145.293 241.238 145.052C241.532 144.185 243.862 140.369 244.479 139.819L247.761 136.899L245.633 134.509L243.373 136.521C242.86 136.978 241.701 138.89 241.284 139.594C240.02 141.733 239.222 144.135 238.18 146.383L237.449 146.821L235.886 147.198C237.746 141.907 239.064 135.889 243.506 132.118L241.246 129.579C236.648 134.595 235.77 141.626 233.774 147.9L231.904 148.734C233.999 141.53 234.347 133.241 239.119 127.188L236.992 124.798C232.697 130.698 232.595 138.65 231.016 145.594C230.801 146.538 230.189 149.574 229.61 150.086C228.38 151.177 226.252 151.816 225.525 153.629L226.255 154.433C231.685 148.977 240.01 148.945 246.709 146.071C247.558 145.707 249.843 144.685 250.433 144.16L252.547 142.278L252.547 142.278Z" fill="#D8E3FD"/>
</g>
<defs>
<clipPath id="clip0_600_5527">
<rect x="218" y="213.725" width="218" height="213.725" rx="17.8105" transform="rotate(-180 218 213.725)" fill="white"/>
</clipPath>
</defs>
</svg>
