<svg width="218" height="218" viewBox="0 0 218 218" fill="none" xmlns="http://www.w3.org/2000/svg">
<g clip-path="url(#clip0_600_4019)">
<rect x="218" width="218" height="218" rx="18.1667" transform="rotate(90 218 0)" fill="#D8E3FD"/>
<path d="M34.503 107.252V119.46H31.9742V114.141H24.8238V119.46H22.295V107.252H24.8238V112.833H31.9742V107.252H34.503ZM39.4707 108.56V112.571H45.8363V113.879H39.4707V118.152H47.5803V119.46H36.9419V107.252H47.5803V108.56H39.4707ZM49.1492 118.152C49.498 118.152 49.8177 117.989 50.1084 117.664C50.4107 117.338 50.5851 116.89 50.6316 116.321L51.3292 107.252H61.0956V118.152H62.578V122.25H60.4852L60.1364 119.46H50.7188L50.37 122.25H48.2772L48.2772 118.152H49.1492ZM53.0732 116.321C53.05 116.623 52.9744 116.89 52.8465 117.123C52.7186 117.356 52.5791 117.547 52.4279 117.699C52.2535 117.885 52.0617 118.036 51.8524 118.152H58.5668V108.56H53.6836L53.0732 116.321ZM64.4985 107.252H70.4281C71.3233 107.252 72.0965 107.333 72.7476 107.496C73.4103 107.647 73.9568 107.868 74.3869 108.159C74.8171 108.438 75.1369 108.775 75.3461 109.17C75.5554 109.566 75.6601 110.002 75.6601 110.478C75.6601 111.095 75.4857 111.629 75.1369 112.083C74.7881 112.536 74.2649 112.873 73.5673 113.094C74.4393 113.269 75.1194 113.612 75.6077 114.123C76.1077 114.623 76.3577 115.269 76.3577 116.059C76.3577 117.106 75.9217 117.937 75.0497 118.553C74.1893 119.158 72.8232 119.46 70.9513 119.46H64.4985V107.252ZM67.0273 113.879V118.152H70.9513C71.8233 118.152 72.4918 117.978 72.9569 117.629C73.4219 117.28 73.6545 116.757 73.6545 116.059C73.6545 115.315 73.4219 114.769 72.9569 114.42C72.4918 114.059 71.8233 113.879 70.9513 113.879H67.0273ZM70.4281 112.571C72.1139 112.571 72.9569 111.874 72.9569 110.478C72.9569 109.862 72.7418 109.391 72.3116 109.066C71.893 108.729 71.2652 108.56 70.4281 108.56H67.0273V112.571H70.4281ZM88.4751 119.46V109.519H88.3007L81.7607 119.46H78.447V107.252H80.9758V117.193H81.1502L87.6903 107.252H91.0039V119.46H88.4751ZM100.951 107.252H103.48V112.746H105.834L108.973 107.252H111.764L108.276 113.269L112.025 119.46H109.148L105.921 114.054H103.48V119.46H100.951V114.054H98.5092L95.2828 119.46H92.4052L96.1548 113.269L92.6668 107.252H95.4572L98.5964 112.746H100.951V107.252ZM123.44 119.46V109.519H123.266L116.726 119.46H113.412V107.252H115.941V117.193H116.115L122.655 107.252H125.969V119.46H123.44ZM136.701 117.716H136.875L141.41 107.252H145.159V119.46H142.63V109.694H142.456L138.27 119.46H135.306L131.12 109.694H130.946V119.46H128.417V107.252H132.166L136.701 117.716ZM154.221 108.124C153.628 108.124 153.07 108.229 152.547 108.438C152.035 108.647 151.588 108.967 151.204 109.397C150.82 109.827 150.512 110.374 150.28 111.036C150.059 111.688 149.948 112.461 149.948 113.356C149.948 114.251 150.059 115.03 150.28 115.693C150.512 116.344 150.82 116.885 151.204 117.315C151.588 117.745 152.035 118.065 152.547 118.274C153.07 118.483 153.628 118.588 154.221 118.588C154.814 118.588 155.366 118.483 155.878 118.274C156.401 118.065 156.855 117.745 157.238 117.315C157.622 116.885 157.924 116.344 158.145 115.693C158.378 115.03 158.494 114.251 158.494 113.356C158.494 112.461 158.378 111.688 158.145 111.036C157.924 110.374 157.622 109.827 157.238 109.397C156.855 108.967 156.401 108.647 155.878 108.438C155.366 108.229 154.814 108.124 154.221 108.124ZM154.221 106.903C155.268 106.903 156.215 107.043 157.064 107.322C157.924 107.601 158.657 108.014 159.261 108.56C159.878 109.106 160.354 109.781 160.691 110.583C161.029 111.385 161.197 112.31 161.197 113.356C161.197 114.402 161.029 115.327 160.691 116.129C160.354 116.931 159.878 117.606 159.261 118.152C158.657 118.698 157.924 119.111 157.064 119.39C156.215 119.669 155.268 119.809 154.221 119.809C153.175 119.809 152.221 119.669 151.361 119.39C150.501 119.111 149.762 118.698 149.146 118.152C148.542 117.606 148.071 116.931 147.733 116.129C147.408 115.327 147.245 114.402 147.245 113.356C147.245 112.31 147.408 111.385 147.733 110.583C148.071 109.781 148.542 109.106 149.146 108.56C149.762 108.014 150.501 107.601 151.361 107.322C152.221 107.043 153.175 106.903 154.221 106.903ZM170.273 118.501C171.063 118.501 171.819 118.367 172.54 118.1C173.272 117.821 173.97 117.373 174.633 116.757L175.505 117.803C174.842 118.419 174.04 118.908 173.098 119.268C172.156 119.629 171.156 119.809 170.098 119.809C169.005 119.809 168.017 119.669 167.134 119.39C166.262 119.111 165.512 118.698 164.884 118.152C164.268 117.606 163.791 116.931 163.454 116.129C163.117 115.327 162.948 114.402 162.948 113.356C162.948 112.31 163.111 111.385 163.436 110.583C163.773 109.781 164.244 109.106 164.849 108.56C165.465 108.014 166.203 107.601 167.064 107.322C167.924 107.043 168.878 106.903 169.924 106.903C170.982 106.903 171.982 107.083 172.924 107.444C173.865 107.804 174.668 108.293 175.33 108.909L174.458 109.955C173.796 109.339 173.098 108.897 172.366 108.63C171.645 108.351 170.889 108.211 170.098 108.211C169.471 108.211 168.883 108.316 168.337 108.525C167.79 108.723 167.32 109.031 166.924 109.449C166.529 109.868 166.215 110.403 165.983 111.054C165.762 111.693 165.651 112.461 165.651 113.356C165.651 114.251 165.762 115.024 165.983 115.675C166.215 116.315 166.535 116.844 166.942 117.263C167.36 117.681 167.849 117.995 168.407 118.204C168.976 118.402 169.598 118.501 170.273 118.501ZM187.975 108.56H183.266V119.46H180.737V108.56H176.029V107.252H187.975V108.56ZM195.824 111.786C197.615 111.786 198.964 112.135 199.87 112.833C200.777 113.519 201.231 114.449 201.231 115.623C201.231 116.797 200.777 117.733 199.87 118.431C198.964 119.117 197.615 119.46 195.824 119.46H189.372V107.252H191.9V111.786H195.824ZM191.9 113.094V118.152H195.824C196.662 118.152 197.318 117.943 197.795 117.524C198.283 117.094 198.528 116.46 198.528 115.623C198.528 114.786 198.283 114.158 197.795 113.74C197.318 113.309 196.662 113.094 195.824 113.094H191.9Z" fill="#3760E7"/>
<path d="M0.0633171 240.163C1.63776 234.955 29.0676 229.335 151.148 202.013C303.748 167.859 53.3889 184.24 -6.47668 158.413C-33.4257 146.786 158.84 137.097 243.86 126.439" stroke="#3760E7" stroke-width="4.36"/>
<path d="M-25.8937 101.723C-24.3193 96.5155 3.11062 90.896 125.191 63.5733C277.791 29.42 27.4319 45.801 -32.4337 19.9732C-59.3827 8.34667 132.883 -1.34225 217.903 -12" stroke="#3760E7" stroke-width="4.36"/>
</g>
<defs>
<clipPath id="clip0_600_4019">
<rect x="218" width="218" height="218" rx="18.1667" transform="rotate(90 218 0)" fill="white"/>
</clipPath>
</defs>
</svg>
