<svg width="218" height="214" viewBox="0 0 218 214" fill="none" xmlns="http://www.w3.org/2000/svg">
<g clip-path="url(#clip0_600_3957)">
<rect x="-0.356209" y="0.356209" width="217.288" height="213.013" rx="17.4542" transform="matrix(-1 0 0 1 217.288 6.10352e-05)" fill="white" stroke="#3760E7" stroke-width="0.712418"/>
<path d="M33.0572 79.5427V89.5166H30.9912V80.6114H25.1493V89.5166H23.0833V79.5427H33.0572ZM40.1791 79.5427C40.8916 79.5427 41.528 79.6235 42.0884 79.785C42.6584 79.9369 43.138 80.1649 43.5275 80.4689C43.917 80.7634 44.2162 81.1291 44.4251 81.566C44.6341 81.9935 44.7386 82.4827 44.7386 83.0336C44.7386 83.5845 44.6341 84.0785 44.4251 84.5154C44.2162 84.9429 43.917 85.3086 43.5275 85.6125C43.138 85.907 42.6584 86.135 42.0884 86.2965C41.528 86.4485 40.8916 86.5244 40.1791 86.5244H37.1157V89.5166H35.0497V79.5427H40.1791ZM37.1157 80.6114V85.4558H40.1791C40.9295 85.4558 41.509 85.2611 41.9174 84.8716C42.3354 84.4727 42.5444 83.86 42.5444 83.0336C42.5444 82.2072 42.3354 81.5993 41.9174 81.2098C41.509 80.8109 40.9295 80.6114 40.1791 80.6114H37.1157ZM51.7209 80.2552C51.2364 80.2552 50.7805 80.3407 50.353 80.5116C49.9351 80.6826 49.5694 80.9438 49.2559 81.2953C48.9424 81.6468 48.6907 82.0932 48.5007 82.6346C48.3203 83.1666 48.23 83.7983 48.23 84.5297C48.23 85.2611 48.3203 85.8975 48.5007 86.439C48.6907 86.9709 48.9424 87.4126 49.2559 87.7641C49.5694 88.1155 49.9351 88.3767 50.353 88.5477C50.7805 88.7187 51.2364 88.8042 51.7209 88.8042C52.2053 88.8042 52.6565 88.7187 53.0745 88.5477C53.5019 88.3767 53.8724 88.1155 54.1858 87.7641C54.4993 87.4126 54.7463 86.9709 54.9268 86.439C55.1167 85.8975 55.2117 85.2611 55.2117 84.5297C55.2117 83.7983 55.1167 83.1666 54.9268 82.6346C54.7463 82.0932 54.4993 81.6468 54.1858 81.2953C53.8724 80.9438 53.5019 80.6826 53.0745 80.5116C52.6565 80.3407 52.2053 80.2552 51.7209 80.2552ZM51.7209 79.2578C52.5758 79.2578 53.3499 79.3718 54.0434 79.5997C54.7463 79.8277 55.3447 80.1649 55.8386 80.6114C56.3421 81.0578 56.7315 81.6088 57.007 82.2642C57.2825 82.9196 57.4202 83.6748 57.4202 84.5297C57.4202 85.3846 57.2825 86.1397 57.007 86.7952C56.7315 87.4506 56.3421 88.0015 55.8386 88.448C55.3447 88.8944 54.7463 89.2316 54.0434 89.4596C53.3499 89.6876 52.5758 89.8016 51.7209 89.8016C50.866 89.8016 50.0871 89.6876 49.3841 89.4596C48.6812 89.2316 48.078 88.8944 47.5746 88.448C47.0807 88.0015 46.6959 87.4506 46.4205 86.7952C46.1545 86.1397 46.0215 85.3846 46.0215 84.5297C46.0215 83.6748 46.1545 82.9196 46.4205 82.2642C46.6959 81.6088 47.0807 81.0578 47.5746 80.6114C48.078 80.1649 48.6812 79.8277 49.3841 79.5997C50.0871 79.3718 50.866 79.2578 51.7209 79.2578ZM67.3284 89.5166V81.395H67.1859L61.8428 89.5166H59.1356V79.5427H61.2016V87.6643H61.3441L66.6872 79.5427H69.3944V89.5166H67.3284ZM75.3837 80.3264C74.6998 80.3264 74.0586 80.4261 73.4602 80.6256C72.8713 80.8156 72.3061 81.1433 71.7646 81.6088L71.1235 80.7539C71.6649 80.2884 72.3108 79.9227 73.0612 79.6567C73.8117 79.3908 74.6333 79.2578 75.5262 79.2578C76.2576 79.2578 76.8988 79.3243 77.4497 79.4573C78.0007 79.5902 78.4614 79.7755 78.8318 80.0129C79.2023 80.2504 79.4778 80.5306 79.6582 80.8536C79.8482 81.1766 79.9432 81.5233 79.9432 81.8937C79.9432 82.5017 79.796 83.0051 79.5015 83.4041C79.207 83.7935 78.7368 84.0975 78.0909 84.3159C78.8033 84.4964 79.359 84.8004 79.758 85.2278C80.1664 85.6458 80.3707 86.1967 80.3707 86.8807C80.3707 87.2891 80.2709 87.6738 80.0714 88.0348C79.8815 88.3862 79.5775 88.6949 79.1595 88.9609C78.7511 89.2174 78.2239 89.4216 77.578 89.5736C76.9321 89.7256 76.1531 89.8016 75.2412 89.8016C74.3104 89.8016 73.4507 89.6543 72.6623 89.3599C71.8834 89.0654 71.2232 88.6664 70.6818 88.163L71.3942 87.3081C71.9356 87.8115 72.5103 88.1773 73.1182 88.4052C73.7262 88.6237 74.3863 88.7329 75.0988 88.7329C75.6497 88.7329 76.1199 88.6854 76.5094 88.5905C76.8988 88.486 77.2123 88.3435 77.4497 88.163C77.6967 87.9825 77.8772 87.7736 77.9912 87.5361C78.1052 87.2891 78.1622 87.0231 78.1622 86.7382C78.1622 86.1682 77.9817 85.7313 77.6207 85.4273C77.2598 85.1139 76.7041 84.9571 75.9537 84.9571H72.9615V83.8885H75.6687C77.046 83.8885 77.7347 83.2711 77.7347 82.0362C77.7347 81.5328 77.5305 81.1243 77.122 80.8109C76.7136 80.4879 76.1341 80.3264 75.3837 80.3264ZM82.0109 79.5427H86.8553C87.5868 79.5427 88.2184 79.6092 88.7504 79.7422C89.2918 79.8657 89.7383 80.0462 90.0897 80.2837C90.4412 80.5116 90.7024 80.7871 90.8734 81.1101C91.0444 81.433 91.1298 81.7892 91.1298 82.1787C91.1298 82.6821 90.9874 83.1191 90.7024 83.4895C90.4174 83.86 89.99 84.1355 89.42 84.3159C90.1325 84.4584 90.6881 84.7386 91.0871 85.1566C91.4956 85.5651 91.6998 86.0922 91.6998 86.7382C91.6998 87.5931 91.3436 88.2722 90.6312 88.7757C89.9282 89.2696 88.8121 89.5166 87.2828 89.5166H82.0109V79.5427ZM84.0769 84.9571V88.448H87.2828C87.9952 88.448 88.5414 88.3055 88.9213 88.0205C89.3013 87.7356 89.4913 87.3081 89.4913 86.7382C89.4913 86.1302 89.3013 85.6838 88.9213 85.3988C88.5414 85.1044 87.9952 84.9571 87.2828 84.9571H84.0769ZM86.8553 83.8885C88.2327 83.8885 88.9213 83.3186 88.9213 82.1787C88.9213 81.6753 88.7456 81.2905 88.3942 81.0246C88.0522 80.7491 87.5393 80.6114 86.8553 80.6114H84.0769V83.8885H86.8553ZM98.8212 80.2552C98.3367 80.2552 97.8808 80.3407 97.4533 80.5116C97.0354 80.6826 96.6697 80.9438 96.3562 81.2953C96.0427 81.6468 95.791 82.0932 95.6011 82.6346C95.4206 83.1666 95.3303 83.7983 95.3303 84.5297C95.3303 85.2611 95.4206 85.8975 95.6011 86.439C95.791 86.9709 96.0427 87.4126 96.3562 87.7641C96.6697 88.1155 97.0354 88.3767 97.4533 88.5477C97.8808 88.7187 98.3367 88.8042 98.8212 88.8042C99.3056 88.8042 99.7568 88.7187 100.175 88.5477C100.602 88.3767 100.973 88.1155 101.286 87.7641C101.6 87.4126 101.847 86.9709 102.027 86.439C102.217 85.8975 102.312 85.2611 102.312 84.5297C102.312 83.7983 102.217 83.1666 102.027 82.6346C101.847 82.0932 101.6 81.6468 101.286 81.2953C100.973 80.9438 100.602 80.6826 100.175 80.5116C99.7568 80.3407 99.3056 80.2552 98.8212 80.2552ZM98.8212 79.2578C99.6761 79.2578 100.45 79.3718 101.144 79.5997C101.847 79.8277 102.445 80.1649 102.939 80.6114C103.442 81.0578 103.832 81.6088 104.107 82.2642C104.383 82.9196 104.521 83.6748 104.521 84.5297C104.521 85.3846 104.383 86.1397 104.107 86.7952C103.832 87.4506 103.442 88.0015 102.939 88.448C102.445 88.8944 101.847 89.2316 101.144 89.4596C100.45 89.6876 99.6761 89.8016 98.8212 89.8016C97.9663 89.8016 97.1874 89.6876 96.4844 89.4596C95.7815 89.2316 95.1783 88.8944 94.6749 88.448C94.181 88.0015 93.7963 87.4506 93.5208 86.7952C93.2548 86.1397 93.1218 85.3846 93.1218 84.5297C93.1218 83.6748 93.2548 82.9196 93.5208 82.2642C93.7963 81.6088 94.181 81.0578 94.6749 80.6114C95.1783 80.1649 95.7815 79.8277 96.4844 79.5997C97.1874 79.3718 97.9663 79.2578 98.8212 79.2578ZM105.384 88.448C105.669 88.448 105.93 88.315 106.167 88.049C106.414 87.7831 106.557 87.4173 106.595 86.9519L107.165 79.5427H115.144V88.448H116.355V91.7963H114.645L114.36 89.5166H106.666L106.381 91.7963H104.671V88.448H105.384ZM108.59 86.9519C108.571 87.1989 108.509 87.4173 108.404 87.6073C108.3 87.7973 108.186 87.954 108.062 88.0775C107.92 88.2295 107.763 88.353 107.592 88.448H113.078V80.6114H109.088L108.59 86.9519ZM123.345 88.7329C123.991 88.7329 124.608 88.6237 125.197 88.4052C125.796 88.1773 126.366 87.8115 126.907 87.3081L127.62 88.163C127.078 88.6664 126.423 89.0654 125.653 89.3599C124.884 89.6543 124.067 89.8016 123.203 89.8016C122.31 89.8016 121.502 89.6876 120.78 89.4596C120.068 89.2316 119.455 88.8944 118.942 88.448C118.439 88.0015 118.049 87.4506 117.774 86.7952C117.498 86.1397 117.361 85.3846 117.361 84.5297C117.361 83.6748 117.494 82.9196 117.76 82.2642C118.035 81.6088 118.42 81.0578 118.914 80.6114C119.417 80.1649 120.02 79.8277 120.723 79.5997C121.426 79.3718 122.205 79.2578 123.06 79.2578C123.924 79.2578 124.741 79.405 125.511 79.6995C126.28 79.9939 126.936 80.3929 127.477 80.8963L126.765 81.7512C126.223 81.2478 125.653 80.8868 125.055 80.6684C124.466 80.4404 123.849 80.3264 123.203 80.3264C122.69 80.3264 122.21 80.4119 121.763 80.5829C121.317 80.7444 120.932 80.9961 120.609 81.338C120.286 81.68 120.03 82.1169 119.84 82.6489C119.659 83.1713 119.569 83.7983 119.569 84.5297C119.569 85.2611 119.659 85.8928 119.84 86.4247C120.03 86.9471 120.291 87.3793 120.624 87.7213C120.966 88.0633 121.365 88.3197 121.82 88.4907C122.286 88.6522 122.794 88.7329 123.345 88.7329ZM137.808 80.6114H133.961V89.5166H131.895V80.6114H128.048V79.5427H137.808V80.6114ZM138.949 79.5427H143.793C144.525 79.5427 145.156 79.6092 145.688 79.7422C146.23 79.8657 146.676 80.0462 147.028 80.2837C147.379 80.5116 147.64 80.7871 147.811 81.1101C147.982 81.433 148.068 81.7892 148.068 82.1787C148.068 82.6821 147.925 83.1191 147.64 83.4895C147.355 83.86 146.928 84.1355 146.358 84.3159C147.07 84.4584 147.626 84.7386 148.025 85.1566C148.433 85.5651 148.638 86.0922 148.638 86.7382C148.638 87.5931 148.281 88.2722 147.569 88.7757C146.866 89.2696 145.75 89.5166 144.221 89.5166H138.949V79.5427ZM141.015 84.9571V88.448H144.221C144.933 88.448 145.479 88.3055 145.859 88.0205C146.239 87.7356 146.429 87.3081 146.429 86.7382C146.429 86.1302 146.239 85.6838 145.859 85.3988C145.479 85.1044 144.933 84.9571 144.221 84.9571H141.015ZM143.793 83.8885C145.17 83.8885 145.859 83.3186 145.859 82.1787C145.859 81.6753 145.683 81.2905 145.332 81.0246C144.99 80.7491 144.477 80.6114 143.793 80.6114H141.015V83.8885H143.793ZM152.411 80.6114V83.8885H157.611V84.9571H152.411V88.448H159.036V89.5166H150.345V79.5427H159.036V80.6114H152.411ZM170.434 79.5427V89.5166H168.368V85.1709H162.526V89.5166H160.46V79.5427H162.526V84.1022H168.368V79.5427H170.434ZM182.401 79.5427V89.5166H180.335V85.1709H174.493V89.5166H172.427V79.5427H174.493V84.1022H180.335V79.5427H182.401ZM197.288 89.5166H195.222V79.5427H197.288V89.5166ZM189.38 83.2473C190.843 83.2473 191.945 83.5323 192.686 84.1022C193.427 84.6627 193.797 85.4226 193.797 86.382C193.797 87.3414 193.427 88.106 192.686 88.6759C191.945 89.2364 190.843 89.5166 189.38 89.5166H184.393V79.5427H186.459V83.2473H189.38ZM186.459 84.3159V88.448H189.38C190.064 88.448 190.601 88.277 190.99 87.935C191.389 87.5836 191.589 87.0659 191.589 86.382C191.589 85.698 191.389 85.1851 190.99 84.8431C190.601 84.4917 190.064 84.3159 189.38 84.3159H186.459ZM201.348 80.6114V83.8885H206.548V84.9571H201.348V88.448H207.973V89.5166H199.282V79.5427H207.973V80.6114H201.348ZM29.4951 102.458L33.2709 107.517H30.9199L27.6428 103.1H25.1493V107.517H23.0833V97.5427H25.1493V102.031H27.5003L30.7774 97.5427H33.0572L29.4951 102.458ZM39.1144 98.2552C38.63 98.2552 38.174 98.3407 37.7466 98.5116C37.3286 98.6826 36.9629 98.9438 36.6494 99.2953C36.336 99.6468 36.0843 100.093 35.8943 100.635C35.7138 101.167 35.6236 101.798 35.6236 102.53C35.6236 103.261 35.7138 103.898 35.8943 104.439C36.0843 104.971 36.336 105.413 36.6494 105.764C36.9629 106.116 37.3286 106.377 37.7466 106.548C38.174 106.719 38.63 106.804 39.1144 106.804C39.5988 106.804 40.05 106.719 40.468 106.548C40.8955 106.377 41.2659 106.116 41.5794 105.764C41.8928 105.413 42.1398 104.971 42.3203 104.439C42.5103 103.898 42.6053 103.261 42.6053 102.53C42.6053 101.798 42.5103 101.167 42.3203 100.635C42.1398 100.093 41.8928 99.6468 41.5794 99.2953C41.2659 98.9438 40.8955 98.6826 40.468 98.5116C40.05 98.3407 39.5988 98.2552 39.1144 98.2552ZM39.1144 97.2578C39.9693 97.2578 40.7435 97.3718 41.4369 97.5997C42.1398 97.8277 42.7382 98.1649 43.2322 98.6114C43.7356 99.0578 44.1251 99.6088 44.4005 100.264C44.676 100.92 44.8138 101.675 44.8138 102.53C44.8138 103.385 44.676 104.14 44.4005 104.795C44.1251 105.451 43.7356 106.002 43.2322 106.448C42.7382 106.894 42.1398 107.232 41.4369 107.46C40.7435 107.688 39.9693 107.802 39.1144 107.802C38.2595 107.802 37.4806 107.688 36.7777 107.46C36.0748 107.232 35.4716 106.894 34.9681 106.448C34.4742 106.002 34.0895 105.451 33.814 104.795C33.548 104.14 33.4151 103.385 33.4151 102.53C33.4151 101.675 33.548 100.92 33.814 100.264C34.0895 99.6088 34.4742 99.0578 34.9681 98.6114C35.4716 98.1649 36.0748 97.8277 36.7777 97.5997C37.4806 97.3718 38.2595 97.2578 39.1144 97.2578ZM53.2971 106.092H53.4396L57.1442 97.5427H60.2076V107.517H58.1415V99.5375H57.9991L54.5794 107.517H52.1572L48.7376 99.5375H48.5951V107.517H46.5291V97.5427H49.5925L53.2971 106.092ZM72.1706 97.5427V107.517H70.1046V98.6114H64.2628V107.517H62.1968V97.5427H72.1706ZM76.7991 104.026H81.2161L79.0788 98.7539H78.9364L76.7991 104.026ZM80.6462 97.5427L84.7069 107.517H82.6552L81.7148 105.094H76.3004L75.36 107.517H73.3083L77.369 97.5427H80.6462ZM95.8251 97.5427V107.517H93.7591V103.171H87.9173V107.517H85.8513V97.5427H87.9173V102.102H93.7591V97.5427H95.8251ZM106.01 107.517V99.395H105.868L100.525 107.517H97.8177V97.5427H99.8837V105.664H100.026L105.369 97.5427H108.076V107.517H106.01ZM118.269 107.517V99.395H118.127L112.783 107.517H110.076V97.5427H112.142V105.664H112.285L117.628 97.5427H120.335V107.517H118.269Z" fill="#3760E7"/>
<path d="M285.752 163.691L301.93 174.71C266.953 178.672 243.037 189.336 218.26 198.706C219.732 200.334 220.018 199.686 222.536 199.7C231.573 199.748 274.811 196.338 281.973 194.863L320.01 187.028L335.237 197.4L309.034 202.797C303.081 204.023 281.445 205.702 273.505 206.283C249.406 208.049 224.404 207.863 200.03 208.719L193.529 210.727L184.857 215.714C240.268 215.765 300.672 218.604 350.466 207.772L366.644 218.792C304.727 228.629 236.352 223.003 171.335 222.212L157.386 227.7C231.402 229.296 309.737 238.327 381.871 229.163L397.097 239.534C327.964 247.221 253.578 237.751 183.691 234.679C174.191 234.261 143.898 232.643 137.21 234.029C122.989 236.973 110.003 243.603 90.7176 243.897L85.6455 240.359C154.404 228.165 182.219 199.174 231.126 179.364C237.327 176.851 254.397 170.147 261.233 168.739L285.745 163.69L285.752 163.691Z" fill="#3760E7"/>
<path d="M254.302 141.831L269.622 152.266C218.196 162.575 193.821 183.39 162.327 200.71C164.432 202.524 180.604 198.999 178.918 201.516C178.67 201.885 167.589 207.195 166.535 207.466C161.124 208.87 154.381 208.14 149.696 209.266C145.306 210.321 139.349 213.874 137.521 215.078C135.692 216.282 144.025 215.594 151.29 215.702C144.763 219.033 137.909 220.994 137.909 220.994L124.289 222.065C124.289 222.065 114.424 225.853 108.529 227.078L120.794 227.932C107.891 232.484 96.1488 234.356 78.7213 235.284L72.5466 231.078C159.067 210.089 167.661 162.695 254.304 141.829L254.302 141.831Z" fill="#3760E7"/>
<path d="M220.161 119.001L236.458 130.101C175.553 146.806 156.851 177.463 119.108 201.026C119.108 201.026 116.559 202.35 119.734 202.446C123.759 202.567 130.592 202.071 130.592 202.071C127.539 203.954 122.035 207.604 119.131 208.891C118.04 209.375 109.183 208.777 103.495 210.588C99.6401 211.813 97.5586 214.73 92.8764 215.939L102.039 215.628C96.7256 221.668 79.1741 223.852 64.358 225.925L58.5029 221.937C137.246 194.19 140.494 146.4 220.165 119L220.161 119.001Z" fill="#3760E7"/>
<path d="M85.6467 203.798C81.8316 210.742 65.4044 213.606 51.8516 216.984L44.8161 212.192C57.197 208.781 71.2864 205.861 85.6467 203.798Z" fill="#3760E7"/>
<path d="M-25.7911 56.8003C138.386 52.5077 188.132 52.4047 217.651 64.1979C280.33 89.2383 160.966 133.766 47.7406 123.035C-42.84 114.449 -48.5723 93.2763 -10.8304 77.2981" stroke="#3760E7" stroke-width="4.27451"/>
</g>
<defs>
<clipPath id="clip0_600_3957">
<rect width="218" height="213.725" rx="17.8105" fill="white"/>
</clipPath>
</defs>
</svg>
