<svg width="218" height="214" viewBox="0 0 218 214" fill="none" xmlns="http://www.w3.org/2000/svg">
<g clip-path="url(#clip0_600_2754)">
<rect x="-0.356209" y="0.356209" width="217.288" height="213.013" rx="17.4542" transform="matrix(-1 0 0 1 217.288 6.10352e-05)" fill="white" stroke="#3760E7" stroke-width="0.712418"/>
<path d="M30.4194 59.4552V71.4238H27.9402V60.7376H20.93V71.4238H18.4508V59.4552H30.4194ZM38.9657 59.4552C39.8206 59.4552 40.5844 59.5521 41.2569 59.7459C41.9408 59.9282 42.5164 60.2018 42.9838 60.5666C43.4511 60.9199 43.8102 61.3588 44.061 61.8831C44.3117 62.3961 44.4371 62.9831 44.4371 63.6442C44.4371 64.3053 44.3117 64.8981 44.061 65.4224C43.8102 65.9354 43.4511 66.3742 42.9838 66.739C42.5164 67.0923 41.9408 67.3659 41.2569 67.5597C40.5844 67.7421 39.8206 67.8332 38.9657 67.8332H35.2897V71.4238H32.8104V59.4552H38.9657ZM35.2897 60.7376V66.5509H38.9657C39.8662 66.5509 40.5616 66.3172 41.0517 65.8499C41.5532 65.3711 41.804 64.6359 41.804 63.6442C41.804 62.6525 41.5532 61.923 41.0517 61.4557C40.5616 60.9769 39.8662 60.7376 38.9657 60.7376H35.2897ZM52.8158 60.3101C52.2345 60.3101 51.6874 60.4127 51.1744 60.6179C50.6729 60.823 50.234 61.1365 49.8579 61.5583C49.4817 61.98 49.1796 62.5158 48.9517 63.1655C48.7351 63.8038 48.6268 64.5618 48.6268 65.4395C48.6268 66.3172 48.7351 67.0809 48.9517 67.7307C49.1796 68.369 49.4817 68.899 49.8579 69.3208C50.234 69.7425 50.6729 70.056 51.1744 70.2612C51.6874 70.4663 52.2345 70.5689 52.8158 70.5689C53.3972 70.5689 53.9386 70.4663 54.4401 70.2612C54.9531 70.056 55.3976 69.7425 55.7738 69.3208C56.1499 68.899 56.4463 68.369 56.6629 67.7307C56.8909 67.0809 57.0048 66.3172 57.0048 65.4395C57.0048 64.5618 56.8909 63.8038 56.6629 63.1655C56.4463 62.5158 56.1499 61.98 55.7738 61.5583C55.3976 61.1365 54.9531 60.823 54.4401 60.6179C53.9386 60.4127 53.3972 60.3101 52.8158 60.3101ZM52.8158 59.1132C53.8417 59.1132 54.7707 59.25 55.6028 59.5236C56.4463 59.7972 57.1644 60.2018 57.7572 60.7376C58.3613 61.2733 58.8286 61.9344 59.1592 62.7209C59.4898 63.5074 59.655 64.4136 59.655 65.4395C59.655 66.4654 59.4898 67.3716 59.1592 68.1581C58.8286 68.9446 58.3613 69.6057 57.7572 70.1415C57.1644 70.6772 56.4463 71.0819 55.6028 71.3554C54.7707 71.629 53.8417 71.7658 52.8158 71.7658C51.7899 71.7658 50.8552 71.629 50.0117 71.3554C49.1682 71.0819 48.4444 70.6772 47.8403 70.1415C47.2476 69.6057 46.7859 68.9446 46.4554 68.1581C46.1362 67.3716 45.9766 66.4654 45.9766 65.4395C45.9766 64.4136 46.1362 63.5074 46.4554 62.7209C46.7859 61.9344 47.2476 61.2733 47.8403 60.7376C48.4444 60.2018 49.1682 59.7972 50.0117 59.5236C50.8552 59.25 51.7899 59.1132 52.8158 59.1132ZM60.6909 70.1415C61.0329 70.1415 61.3464 69.9819 61.6313 69.6627C61.9277 69.3436 62.0987 68.9047 62.1443 68.3462L62.8282 59.4552H72.4031V70.1415H73.8564V74.1595H71.8047L71.4627 71.4238H62.2298L61.8878 74.1595H59.836V70.1415H60.6909ZM64.538 68.3462C64.5152 68.6425 64.4411 68.9047 64.3157 69.1327C64.1903 69.3607 64.0536 69.5487 63.9054 69.6969C63.7344 69.8793 63.5463 70.0275 63.3411 70.1415H69.9239V60.7376H65.1364L64.538 68.3462ZM78.9024 67.2348H84.2027L81.638 60.9085H81.4671L78.9024 67.2348ZM83.5188 59.4552L88.3918 71.4238H85.9296L84.8012 68.5172H78.3039L77.1754 71.4238H74.7133L79.5863 59.4552H83.5188ZM97.1171 59.4552H99.5963V64.8411H101.905L104.982 59.4552H107.718L104.298 65.354L107.974 71.4238H105.153L101.99 66.1234H99.5963V71.4238H97.1171V66.1234H94.7234L91.5602 71.4238H88.7391L92.4151 65.354L88.9955 59.4552H91.7312L94.8089 64.8411H97.1171V59.4552ZM119.166 71.4238V61.6779H118.995L112.583 71.4238H109.334V59.4552H111.813V69.2011H111.984L118.396 59.4552H121.645V71.4238H119.166ZM28.2821 92.4238V82.6779H28.1112L21.6994 92.4238H18.4508V80.4552H20.93V90.2011H21.101L27.5127 80.4552H30.7614V92.4238H28.2821ZM49.825 81.7376H45.2085V92.4238H42.7293V81.7376H38.1128V80.4552H49.825V81.7376ZM56.4892 81.3101C55.9079 81.3101 55.3608 81.4127 54.8478 81.6179C54.3463 81.823 53.9074 82.1365 53.5313 82.5583C53.1551 82.98 52.853 83.5158 52.6251 84.1655C52.4085 84.8038 52.3002 85.5618 52.3002 86.4395C52.3002 87.3172 52.4085 88.0809 52.6251 88.7307C52.853 89.369 53.1551 89.899 53.5313 90.3208C53.9074 90.7425 54.3463 91.056 54.8478 91.2612C55.3608 91.4663 55.9079 91.5689 56.4892 91.5689C57.0706 91.5689 57.612 91.4663 58.1135 91.2612C58.6265 91.056 59.071 90.7425 59.4472 90.3208C59.8233 89.899 60.1197 89.369 60.3363 88.7307C60.5643 88.0809 60.6782 87.3172 60.6782 86.4395C60.6782 85.5618 60.5643 84.8038 60.3363 84.1655C60.1197 83.5158 59.8233 82.98 59.4472 82.5583C59.071 82.1365 58.6265 81.823 58.1135 81.6179C57.612 81.4127 57.0706 81.3101 56.4892 81.3101ZM56.4892 80.1132C57.5151 80.1132 58.4441 80.25 59.2762 80.5236C60.1197 80.7972 60.8378 81.2018 61.4306 81.7376C62.0347 82.2733 62.502 82.9344 62.8326 83.7209C63.1632 84.5074 63.3284 85.4136 63.3284 86.4395C63.3284 87.4654 63.1632 88.3716 62.8326 89.1581C62.502 89.9446 62.0347 90.6057 61.4306 91.1415C60.8378 91.6772 60.1197 92.0819 59.2762 92.3554C58.4441 92.629 57.5151 92.7658 56.4892 92.7658C55.4633 92.7658 54.5287 92.629 53.6851 92.3554C52.8416 92.0819 52.1178 91.6772 51.5137 91.1415C50.921 90.6057 50.4593 89.9446 50.1288 89.1581C49.8096 88.3716 49.65 87.4654 49.65 86.4395C49.65 85.4136 49.8096 84.5074 50.1288 83.7209C50.4593 82.9344 50.921 82.2733 51.5137 81.7376C52.1178 81.2018 52.8416 80.7972 53.6851 80.5236C54.5287 80.25 55.4633 80.1132 56.4892 80.1132ZM71.5422 80.4552C72.3971 80.4552 73.1608 80.5521 73.8333 80.7459C74.5172 80.9282 75.0929 81.2018 75.5602 81.5666C76.0276 81.9199 76.3866 82.3588 76.6374 82.8831C76.8882 83.3961 77.0136 83.9831 77.0136 84.6442C77.0136 85.3053 76.8882 85.8981 76.6374 86.4224C76.3866 86.9354 76.0276 87.3742 75.5602 87.739C75.0929 88.0923 74.5172 88.3659 73.8333 88.5597C73.1608 88.7421 72.3971 88.8332 71.5422 88.8332H67.8661V92.4238H65.3869V80.4552H71.5422ZM67.8661 81.7376V87.5509H71.5422C72.4427 87.5509 73.138 87.3172 73.6281 86.8499C74.1297 86.3711 74.3805 85.6359 74.3805 84.6442C74.3805 83.6525 74.1297 82.923 73.6281 82.4557C73.138 81.9769 72.4427 81.7376 71.5422 81.7376H67.8661ZM81.3742 81.7376V92.4238H78.895V80.4552H88.8119V81.7376H81.3742ZM95.4774 81.3101C94.8961 81.3101 94.349 81.4127 93.836 81.6179C93.3345 81.823 92.8956 82.1365 92.5195 82.5583C92.1433 82.98 91.8412 83.5158 91.6133 84.1655C91.3967 84.8038 91.2884 85.5618 91.2884 86.4395C91.2884 87.3172 91.3967 88.0809 91.6133 88.7307C91.8412 89.369 92.1433 89.899 92.5195 90.3208C92.8956 90.7425 93.3345 91.056 93.836 91.2612C94.349 91.4663 94.8961 91.5689 95.4774 91.5689C96.0588 91.5689 96.6002 91.4663 97.1017 91.2612C97.6147 91.056 98.0592 90.7425 98.4354 90.3208C98.8115 89.899 99.1079 89.369 99.3245 88.7307C99.5525 88.0809 99.6664 87.3172 99.6664 86.4395C99.6664 85.5618 99.5525 84.8038 99.3245 84.1655C99.1079 83.5158 98.8115 82.98 98.4354 82.5583C98.0592 82.1365 97.6147 81.823 97.1017 81.6179C96.6002 81.4127 96.0588 81.3101 95.4774 81.3101ZM95.4774 80.1132C96.5033 80.1132 97.4323 80.25 98.2644 80.5236C99.1079 80.7972 99.826 81.2018 100.419 81.7376C101.023 82.2733 101.49 82.9344 101.821 83.7209C102.151 84.5074 102.317 85.4136 102.317 86.4395C102.317 87.4654 102.151 88.3716 101.821 89.1581C101.49 89.9446 101.023 90.6057 100.419 91.1415C99.826 91.6772 99.1079 92.0819 98.2644 92.3554C97.4323 92.629 96.5033 92.7658 95.4774 92.7658C94.4515 92.7658 93.5169 92.629 92.6733 92.3554C91.8298 92.0819 91.106 91.6772 90.5019 91.1415C89.9092 90.6057 89.4475 89.9446 89.117 89.1581C88.7978 88.3716 88.6382 87.4654 88.6382 86.4395C88.6382 85.4136 88.7978 84.5074 89.117 83.7209C89.4475 82.9344 89.9092 82.2733 90.5019 81.7376C91.106 81.2018 91.8298 80.7972 92.6733 80.5236C93.5169 80.25 94.4515 80.1132 95.4774 80.1132ZM104.375 80.4552H110.188C111.066 80.4552 111.824 80.535 112.462 80.6946C113.112 80.8428 113.648 81.0593 114.07 81.3443C114.491 81.6179 114.805 81.9484 115.01 82.336C115.215 82.7235 115.318 83.151 115.318 83.6183C115.318 84.2225 115.147 84.7468 114.805 85.1914C114.463 85.6359 113.95 85.9665 113.266 86.183C114.121 86.354 114.788 86.6903 115.267 87.1918C115.757 87.682 116.002 88.3146 116.002 89.0897C116.002 90.1156 115.574 90.9306 114.719 91.5347C113.876 92.1275 112.537 92.4238 110.701 92.4238H104.375V80.4552ZM106.854 86.9525V91.1415H110.701C111.556 91.1415 112.212 90.9705 112.668 90.6285C113.124 90.2866 113.352 89.7736 113.352 89.0897C113.352 88.3602 113.124 87.8245 112.668 87.4825C112.212 87.1291 111.556 86.9525 110.701 86.9525H106.854ZM110.188 85.6701C111.841 85.6701 112.668 84.9862 112.668 83.6183C112.668 83.0142 112.457 82.5526 112.035 82.2334C111.625 81.9028 111.009 81.7376 110.188 81.7376H106.854V85.6701H110.188ZM116.678 91.3979H117.191C117.533 91.3979 117.835 91.2555 118.097 90.9705C118.359 90.6855 118.513 90.2011 118.558 89.5172L119.157 80.4552H129.33V92.4238H126.851V81.7376H121.465L120.952 89.5172C120.872 90.6342 120.559 91.4435 120.012 91.9451C119.476 92.4352 118.735 92.6803 117.789 92.6803C117.493 92.6803 117.23 92.6518 117.003 92.5948C116.877 92.572 116.769 92.5435 116.678 92.5093V91.3979ZM131.212 92.4238L134.034 88.3887C133.179 88.0581 132.523 87.5794 132.067 86.9525C131.611 86.3255 131.383 85.5561 131.383 84.6442C131.383 83.9831 131.509 83.3961 131.759 82.8831C132.01 82.3588 132.369 81.9199 132.837 81.5666C133.304 81.2018 133.874 80.9282 134.546 80.7459C135.23 80.5521 136 80.4552 136.855 80.4552H143.01V92.4238H140.531V88.8332H136.855H136.547L134.034 92.4238H131.212ZM136.855 81.7376C135.954 81.7376 135.259 81.9769 134.769 82.4557C134.279 82.923 134.034 83.6525 134.034 84.6442C134.034 85.6359 134.279 86.3711 134.769 86.8499C135.259 87.3172 135.954 87.5509 136.855 87.5509H140.531V81.7376H136.855Z" fill="#3760E7"/>
<path d="M-23 48.6566C120.157 44.3626 163.534 44.2596 189.274 56.0565C243.927 81.1046 139.846 125.646 41.1173 114.912C-37.8661 106.324 -25.9885 84.9436 6.92122 68.9605" stroke="#3760E7" stroke-width="4.27451"/>
<path d="M133.105 172.095L146.004 161.475C154.363 177.567 170.457 186.604 184.941 196.381C186.93 195.26 186.059 195.281 185.848 194.049C185.086 189.626 176.692 169.365 174.114 166.234L160.423 149.606L172.563 139.61L181.995 151.065C184.137 153.667 188.302 163.813 189.785 167.544C194.288 178.87 196.327 191.119 199.667 202.803L202.879 205.48L210.177 208.48C205.187 181.422 203.379 151.239 184.705 129.613L197.604 118.993C216.087 146.782 214.987 181.545 219.887 213.474L228.319 218.925C223.647 182.405 228.281 141.939 209.744 108.997L221.884 99.0019C238.22 130.844 232.653 169.491 235.023 204.361C235.344 209.101 235.998 224.287 238.416 227.208C243.555 233.422 253.388 238.121 255.532 247.461L251.379 250.811C229.197 220.266 188.841 213.856 158.536 194.882C154.691 192.477 144.388 185.803 141.927 182.814L133.104 172.098L133.105 172.095Z" fill="#3760E7"/>
<path d="M109.443 195.162L121.563 185.182C139.706 207.732 168.975 214.574 194.368 225.726C196.526 224.263 190.454 217.24 193.876 217.453C194.378 217.485 202.295 221.598 202.745 222.046C205.068 224.341 204.745 227.8 206.641 229.81C208.416 231.693 213.578 233.735 215.31 234.334C217.042 234.934 215.377 231.043 214.845 227.479C219.772 229.853 222.951 232.717 222.951 232.717L225.603 239.089C225.603 239.089 231.432 242.978 233.568 245.553L233.54 239.375C240.643 244.558 244.16 249.823 246.979 258.084L242.094 262.107C206.84 225.048 144.545 232.309 109.439 195.162L109.443 195.162Z" fill="#3760E7"/>
<path d="M84.0016 217.708L96.8102 207.162C124.106 232.802 165.463 234.635 199.443 247.398C199.443 247.398 201.392 248.323 201.218 246.758C200.997 244.773 199.715 241.57 199.715 241.57C202.434 242.608 207.665 244.419 209.601 245.525C210.328 245.941 210.387 250.386 213.26 252.722C215.205 254.305 219.168 254.626 221.169 256.615L219.907 252.236C228.208 253.389 232.678 261.4 236.746 268.109L232.144 271.898C188.91 240.202 126.873 249.934 84 217.706L84.0016 217.708Z" fill="#3760E7"/>
</g>
<defs>
<clipPath id="clip0_600_2754">
<rect width="218" height="213.725" rx="17.8105" fill="white"/>
</clipPath>
</defs>
</svg>
