<svg width="218" height="218" viewBox="0 0 218 218" fill="none" xmlns="http://www.w3.org/2000/svg">
<g clip-path="url(#clip0_600_4621)">
<rect width="218" height="218" rx="18.1667" fill="#D8E3FD"/>
<path d="M39.8506 157.392L33.3106 169.6H30.6074L32.5258 166.024H31.1306L26.1602 157.392H29.0378L33.1362 164.542H33.3106L37.1474 157.392H39.8506ZM47.1815 168.64C47.9721 168.64 48.7278 168.507 49.4487 168.239C50.1812 167.96 50.8788 167.513 51.5415 166.896L52.4135 167.943C51.7508 168.559 50.9485 169.047 50.0068 169.408C49.065 169.768 48.0651 169.948 47.0071 169.948C45.9142 169.948 44.9259 169.809 44.0423 169.53C43.1703 169.251 42.4204 168.838 41.7925 168.292C41.1763 167.745 40.6996 167.071 40.3624 166.269C40.0253 165.466 39.8567 164.542 39.8567 163.496C39.8567 162.449 40.0195 161.525 40.345 160.723C40.6822 159.92 41.1531 159.246 41.7576 158.7C42.3739 158.153 43.1122 157.74 43.9725 157.461C44.8329 157.182 45.7863 157.043 46.8327 157.043C47.8907 157.043 48.8906 157.223 49.8324 157.583C50.7741 157.944 51.5764 158.432 52.2391 159.048L51.3671 160.095C50.7044 159.479 50.0068 159.037 49.2743 158.769C48.5534 158.49 47.7977 158.351 47.0071 158.351C46.3792 158.351 45.7921 158.455 45.2456 158.665C44.6992 158.862 44.2283 159.17 43.833 159.589C43.4377 160.008 43.1238 160.542 42.8912 161.194C42.6703 161.833 42.5599 162.6 42.5599 163.496C42.5599 164.391 42.6703 165.164 42.8912 165.815C43.1238 166.455 43.4435 166.984 43.8504 167.402C44.269 167.821 44.7573 168.135 45.3154 168.344C45.8851 168.542 46.5071 168.64 47.1815 168.64ZM53.1118 168.553H53.635C53.9838 168.553 54.2919 168.408 54.5593 168.117C54.8267 167.827 54.9837 167.332 55.0302 166.635L55.6406 157.392H66.0174V169.6H63.4886V158.7H57.995L57.4718 166.635C57.3904 167.774 57.0707 168.6 56.5126 169.111C55.9661 169.611 55.2104 169.861 54.2454 169.861C53.9431 169.861 53.6757 169.832 53.4431 169.774C53.3152 169.751 53.2048 169.722 53.1118 169.687V168.553ZM80.9299 157.392L74.3899 169.6H71.6867L73.6051 166.024H72.2099L67.2395 157.392H70.1171L74.2155 164.542H74.3899L78.2267 157.392H80.9299ZM84.8526 158.7V169.6H82.3238V157.392H92.439V158.7H84.8526ZM103.865 169.6V159.659H103.69L97.1505 169.6H93.8369V157.392H96.3657V167.332H96.5401L103.08 157.392H106.394V169.6H103.865ZM37.409 191.6V181.659H37.2346L30.6946 191.6H27.381V179.392H29.9098V189.332H30.0842L36.6242 179.392H39.9378V191.6H37.409ZM56.3307 185.408L60.9523 191.6H58.0747L54.0635 186.193H51.0115V191.6H48.4827V179.392H51.0115V184.885H53.8891L57.9003 179.392H60.6907L56.3307 185.408ZM68.1047 180.264C67.5118 180.264 66.9537 180.368 66.4305 180.578C65.9189 180.787 65.4713 181.107 65.0876 181.537C64.7039 181.967 64.3958 182.513 64.1633 183.176C63.9424 183.827 63.8319 184.6 63.8319 185.496C63.8319 186.391 63.9424 187.17 64.1633 187.833C64.3958 188.484 64.7039 189.024 65.0876 189.454C65.4713 189.885 65.9189 190.204 66.4305 190.414C66.9537 190.623 67.5118 190.728 68.1047 190.728C68.6977 190.728 69.2499 190.623 69.7615 190.414C70.2847 190.204 70.7382 189.885 71.1218 189.454C71.5055 189.024 71.8078 188.484 72.0287 187.833C72.2613 187.17 72.3775 186.391 72.3775 185.496C72.3775 184.6 72.2613 183.827 72.0287 183.176C71.8078 182.513 71.5055 181.967 71.1218 181.537C70.7382 181.107 70.2847 180.787 69.7615 180.578C69.2499 180.368 68.6977 180.264 68.1047 180.264ZM68.1047 179.043C69.1511 179.043 70.0987 179.182 70.9474 179.461C71.8078 179.74 72.5403 180.153 73.1449 180.7C73.7611 181.246 74.2378 181.92 74.575 182.723C74.9121 183.525 75.0807 184.449 75.0807 185.496C75.0807 186.542 74.9121 187.466 74.575 188.269C74.2378 189.071 73.7611 189.745 73.1449 190.292C72.5403 190.838 71.8078 191.251 70.9474 191.53C70.0987 191.809 69.1511 191.948 68.1047 191.948C67.0583 191.948 66.1049 191.809 65.2446 191.53C64.3842 191.251 63.6459 190.838 63.0297 190.292C62.4251 189.745 61.9542 189.071 61.617 188.269C61.2915 187.466 61.1287 186.542 61.1287 185.496C61.1287 184.449 61.2915 183.525 61.617 182.723C61.9542 181.92 62.4251 181.246 63.0297 180.7C63.6459 180.153 64.3842 179.74 65.2446 179.461C66.1049 179.182 67.0583 179.043 68.1047 179.043ZM89.3883 179.392V191.6H86.8595V186.28H79.7091V191.6H77.1803V179.392H79.7091V184.972H86.8595V179.392H89.3883ZM98.8032 190.64C99.5938 190.64 100.35 190.507 101.07 190.239C101.803 189.96 102.5 189.513 103.163 188.896L104.035 189.943C103.372 190.559 102.57 191.047 101.628 191.408C100.687 191.768 99.6868 191.948 98.6288 191.948C97.5359 191.948 96.5476 191.809 95.664 191.53C94.792 191.251 94.0421 190.838 93.4142 190.292C92.798 189.745 92.3213 189.071 91.9842 188.269C91.647 187.466 91.4784 186.542 91.4784 185.496C91.4784 184.449 91.6412 183.525 91.9667 182.723C92.3039 181.92 92.7748 181.246 93.3794 180.7C93.9956 180.153 94.7339 179.74 95.5942 179.461C96.4546 179.182 97.408 179.043 98.4544 179.043C99.5124 179.043 100.512 179.223 101.454 179.583C102.396 179.944 103.198 180.432 103.861 181.048L102.989 182.095C102.326 181.479 101.628 181.037 100.896 180.769C100.175 180.49 99.4194 180.351 98.6288 180.351C98.001 180.351 97.4138 180.455 96.8674 180.665C96.3209 180.862 95.85 181.17 95.4547 181.589C95.0594 182.008 94.7455 182.542 94.513 183.194C94.2921 183.833 94.1816 184.6 94.1816 185.496C94.1816 186.391 94.2921 187.164 94.513 187.815C94.7455 188.455 95.0652 188.984 95.4722 189.402C95.8907 189.821 96.379 190.135 96.9371 190.344C97.5068 190.542 98.1289 190.64 98.8032 190.64ZM108.832 187.327H114.238L111.622 180.874H111.448L108.832 187.327ZM113.541 179.392L118.511 191.6H116L114.849 188.635H108.221L107.07 191.6H104.559L109.529 179.392H113.541ZM119.04 190.553H119.563C119.912 190.553 120.22 190.408 120.487 190.117C120.755 189.827 120.912 189.332 120.958 188.635L121.569 179.392H131.945V191.6H129.417V180.7H123.923L123.4 188.635C123.318 189.774 122.999 190.6 122.441 191.111C121.894 191.611 121.138 191.861 120.173 191.861C119.871 191.861 119.604 191.832 119.371 191.774C119.243 191.751 119.133 191.722 119.04 191.687V190.553ZM145.288 180.7H140.58V191.6H138.051V180.7H133.342V179.392H145.288V180.7ZM156.713 191.6V181.659H156.538L149.998 191.6H146.685V179.392H149.214V189.332H149.388L155.928 179.392H159.242V191.6H156.713ZM173.897 179.392V191.6H171.369V186.28H164.218V191.6H161.689V179.392H164.218V184.972H171.369V179.392H173.897ZM178.865 180.7V191.6H176.336V179.392H186.451V180.7H178.865Z" fill="#3760E7"/>
<path d="M-2.90625 104.64C13.5744 93.0959 68.7757 64.4091 62.0837 39.7963C56.7974 20.3538 26.0127 8.20222 17.9279 16.4045C2.96734 31.5824 106.061 54.6294 151.874 94.1033C187.61 124.895 231.815 173.096 231.08 185.3C228.493 228.259 160.812 79.3973 243.07 85.02" stroke="#3760E7" stroke-width="4.36"/>
</g>
<defs>
<clipPath id="clip0_600_4621">
<rect width="218" height="218" rx="18.1667" fill="white"/>
</clipPath>
</defs>
</svg>
