<svg width="218" height="214" viewBox="0 0 218 214" fill="none" xmlns="http://www.w3.org/2000/svg">
<g clip-path="url(#clip0_600_4939)">
<rect width="218" height="213.725" rx="17.8105" transform="matrix(-1 0 0 1 218 6.10352e-05)" fill="#3760E7"/>
<path d="M-55.2069 38C-67.646 54.287 -56.5302 83.8651 87.4458 71.8817C231.422 59.8983 52.334 120.624 -55.2069 152.484" stroke="#D8E3FD" stroke-width="4.27451"/>
<path d="M27.9657 164.184V154.438H27.7948L21.383 164.184H18.1344V152.215H20.6136V161.961H20.7846L27.1963 152.215H30.445V164.184H27.9657ZM45.6615 163.243C46.4366 163.243 47.1776 163.112 47.8843 162.85C48.6024 162.576 49.2863 162.138 49.936 161.533L50.7909 162.559C50.1412 163.163 49.3547 163.642 48.4314 163.996C47.5081 164.349 46.5278 164.526 45.4906 164.526C44.4191 164.526 43.4502 164.389 42.5839 164.115C41.729 163.842 40.9938 163.437 40.3782 162.901C39.7741 162.366 39.3068 161.704 38.9762 160.918C38.6456 160.131 38.4804 159.225 38.4804 158.199C38.4804 157.173 38.6399 156.267 38.9591 155.481C39.2897 154.694 39.7513 154.033 40.344 153.497C40.9482 152.962 41.672 152.557 42.5155 152.283C43.359 152.01 44.2937 151.873 45.3196 151.873C46.3569 151.873 47.3371 152.05 48.2604 152.403C49.1837 152.756 49.9702 153.235 50.62 153.839L49.7651 154.865C49.1153 154.261 48.4314 153.828 47.7133 153.566C47.0066 153.292 46.2657 153.155 45.4906 153.155C44.875 153.155 44.2994 153.258 43.7637 153.463C43.2279 153.657 42.7663 153.959 42.3787 154.369C41.9912 154.78 41.6834 155.304 41.4554 155.942C41.2388 156.569 41.1306 157.322 41.1306 158.199C41.1306 159.077 41.2388 159.835 41.4554 160.473C41.6834 161.1 41.9969 161.619 42.3958 162.029C42.8062 162.44 43.2849 162.747 43.832 162.953C44.3906 163.146 45.0004 163.243 45.6615 163.243ZM63.0167 153.497H58.4002V164.184H55.921V153.497H51.3046V152.215H63.0167V153.497ZM70.5412 152.215C71.3961 152.215 72.1598 152.312 72.8323 152.506C73.5162 152.688 74.0919 152.962 74.5592 153.326C75.0266 153.68 75.3856 154.119 75.6364 154.643C75.8872 155.156 76.0126 155.743 76.0126 156.404C76.0126 157.065 75.8872 157.658 75.6364 158.182C75.3856 158.695 75.0266 159.134 74.5592 159.499C74.0919 159.852 73.5162 160.126 72.8323 160.319C72.1598 160.502 71.3961 160.593 70.5412 160.593H66.8651V164.184H64.3859V152.215H70.5412ZM66.8651 153.497V159.311H70.5412C71.4417 159.311 72.137 159.077 72.6271 158.61C73.1287 158.131 73.3795 157.396 73.3795 156.404C73.3795 155.412 73.1287 154.683 72.6271 154.215C72.137 153.737 71.4417 153.497 70.5412 153.497H66.8651ZM79.8549 159.995H85.1553L82.5906 153.668H82.4196L79.8549 159.995ZM84.4714 152.215L89.3444 164.184H86.8822L85.7538 161.277H79.2565L78.128 164.184H75.6659L80.5389 152.215H84.4714ZM97.5055 158.045L102.601 164.184H99.694L96.0521 159.806L92.4273 164.184H89.5207L94.5988 158.045L89.7771 152.215H92.6838L96.0521 156.301L99.4375 152.215H102.344L97.5055 158.045ZM109.437 153.07C108.856 153.07 108.309 153.172 107.796 153.378C107.294 153.583 106.855 153.896 106.479 154.318C106.103 154.74 105.801 155.276 105.573 155.925C105.356 156.564 105.248 157.322 105.248 158.199C105.248 159.077 105.356 159.841 105.573 160.49C105.801 161.129 106.103 161.659 106.479 162.081C106.855 162.502 107.294 162.816 107.796 163.021C108.309 163.226 108.856 163.329 109.437 163.329C110.019 163.329 110.56 163.226 111.062 163.021C111.574 162.816 112.019 162.502 112.395 162.081C112.771 161.659 113.068 161.129 113.284 160.49C113.512 159.841 113.626 159.077 113.626 158.199C113.626 157.322 113.512 156.564 113.284 155.925C113.068 155.276 112.771 154.74 112.395 154.318C112.019 153.896 111.574 153.583 111.062 153.378C110.56 153.172 110.019 153.07 109.437 153.07ZM109.437 151.873C110.463 151.873 111.392 152.01 112.224 152.283C113.068 152.557 113.786 152.962 114.379 153.497C114.983 154.033 115.45 154.694 115.781 155.481C116.111 156.267 116.276 157.173 116.276 158.199C116.276 159.225 116.111 160.131 115.781 160.918C115.45 161.704 114.983 162.366 114.379 162.901C113.786 163.437 113.068 163.842 112.224 164.115C111.392 164.389 110.463 164.526 109.437 164.526C108.411 164.526 107.477 164.389 106.633 164.115C105.79 163.842 105.066 163.437 104.462 162.901C103.869 162.366 103.407 161.704 103.077 160.918C102.758 160.131 102.598 159.225 102.598 158.199C102.598 157.173 102.758 156.267 103.077 155.481C103.407 154.694 103.869 154.033 104.462 153.497C105.066 152.962 105.79 152.557 106.633 152.283C107.477 152.01 108.411 151.873 109.437 151.873ZM118.335 152.215H124.148C125.026 152.215 125.784 152.295 126.422 152.454C127.072 152.603 127.608 152.819 128.029 153.104C128.451 153.378 128.765 153.708 128.97 154.096C129.175 154.483 129.278 154.911 129.278 155.378C129.278 155.982 129.107 156.507 128.765 156.951C128.423 157.396 127.91 157.726 127.226 157.943C128.081 158.114 128.748 158.45 129.226 158.952C129.716 159.442 129.962 160.074 129.962 160.849C129.962 161.875 129.534 162.69 128.679 163.294C127.836 163.887 126.496 164.184 124.661 164.184H118.335V152.215ZM120.814 158.712V162.901H124.661C125.516 162.901 126.171 162.73 126.627 162.388C127.083 162.046 127.311 161.533 127.311 160.849C127.311 160.12 127.083 159.584 126.627 159.242C126.171 158.889 125.516 158.712 124.661 158.712H120.814ZM124.148 157.43C125.801 157.43 126.627 156.746 126.627 155.378C126.627 154.774 126.417 154.312 125.995 153.993C125.584 153.663 124.969 153.497 124.148 153.497H120.814V157.43H124.148ZM147.484 164.184H145.004V152.215H147.484V164.184ZM137.994 156.66C139.75 156.66 141.072 157.002 141.961 157.686C142.85 158.359 143.295 159.271 143.295 160.422C143.295 161.573 142.85 162.491 141.961 163.175C141.072 163.847 139.75 164.184 137.994 164.184H132.01V152.215H134.489V156.66H137.994ZM134.489 157.943V162.901H137.994C138.815 162.901 139.459 162.696 139.926 162.286C140.405 161.864 140.644 161.243 140.644 160.422C140.644 159.601 140.405 158.986 139.926 158.575C139.459 158.154 138.815 157.943 137.994 157.943H134.489ZM152.355 153.497V157.43H158.596V158.712H152.355V162.901H160.306V164.184H149.876V152.215H160.306V153.497H152.355ZM30.3595 173.215L23.9477 185.184H21.2975L23.1783 181.678H21.8104L16.9375 173.215H19.7587L23.7767 180.225H23.9477L27.7093 173.215H30.3595ZM37.5466 184.243C38.3218 184.243 39.0627 184.112 39.7694 183.85C40.4875 183.576 41.1714 183.138 41.8212 182.533L42.6761 183.559C42.0263 184.163 41.2398 184.642 40.3165 184.996C39.3932 185.349 38.4129 185.526 37.3757 185.526C36.3042 185.526 35.3353 185.389 34.469 185.115C33.6141 184.842 32.8789 184.437 32.2634 183.901C31.6592 183.366 31.1919 182.704 30.8613 181.918C30.5308 181.131 30.3655 180.225 30.3655 179.199C30.3655 178.173 30.5251 177.267 30.8442 176.481C31.1748 175.694 31.6364 175.033 32.2292 174.497C32.8333 173.962 33.5571 173.557 34.4006 173.283C35.2441 173.01 36.1788 172.873 37.2047 172.873C38.242 172.873 39.2223 173.05 40.1455 173.403C41.0688 173.756 41.8554 174.235 42.5051 174.839L41.6502 175.865C41.0005 175.261 40.3165 174.828 39.5984 174.566C38.8917 174.292 38.1508 174.155 37.3757 174.155C36.7601 174.155 36.1845 174.258 35.6488 174.463C35.113 174.657 34.6514 174.959 34.2638 175.369C33.8763 175.78 33.5685 176.304 33.3405 176.942C33.124 177.569 33.0157 178.322 33.0157 179.199C33.0157 180.077 33.124 180.835 33.3405 181.473C33.5685 182.1 33.882 182.619 34.2809 183.029C34.6913 183.44 35.17 183.747 35.7172 183.953C36.2757 184.146 36.8855 184.243 37.5466 184.243ZM43.3606 184.158H43.8736C44.2155 184.158 44.5176 184.015 44.7798 183.73C45.042 183.445 45.1958 182.961 45.2414 182.277L45.8399 173.215H56.0132V185.184H53.534V174.497H48.1481L47.6352 182.277C47.5554 183.394 47.2419 184.203 46.6948 184.705C46.159 185.195 45.4181 185.44 44.472 185.44C44.1757 185.44 43.9135 185.412 43.6855 185.355C43.5601 185.332 43.4518 185.303 43.3606 185.269V184.158ZM70.6334 173.215L64.2216 185.184H61.5714L63.4522 181.678H62.0843L57.2114 173.215H60.0326L64.0506 180.225H64.2216L67.9832 173.215H70.6334ZM74.4791 174.497V185.184H71.9999V173.215H81.9167V174.497H74.4791ZM93.1186 185.184V175.438H92.9476L86.5359 185.184H83.2872V173.215H85.7665V182.961H85.9374L92.3492 173.215H95.5978V185.184H93.1186Z" fill="#D8E3FD"/>
<path d="M28.7459 47.6839H26.2667V46.3161H25.7537C24.8304 46.3161 23.9926 46.2021 23.2403 45.9741C22.4994 45.7347 21.8611 45.3928 21.3253 44.9482C20.801 44.5037 20.3963 43.9508 20.1114 43.2897C19.8264 42.6286 19.6839 41.8706 19.6839 41.0157C19.6839 40.1608 19.8264 39.4028 20.1114 38.7416C20.3963 38.0805 20.801 37.5277 21.3253 37.0831C21.8611 36.6386 22.4994 36.3023 23.2403 36.0744C23.9926 35.835 24.8304 35.7153 25.7537 35.7153H26.2667V34.3475H28.7459V35.7153H29.2588C30.1821 35.7153 31.0142 35.835 31.7551 36.0744C32.5075 36.3023 33.1458 36.6386 33.6701 37.0831C34.2059 37.5277 34.6162 38.0805 34.9012 38.7416C35.1861 39.4028 35.3286 40.1608 35.3286 41.0157C35.3286 41.8706 35.1861 42.6286 34.9012 43.2897C34.6162 43.9508 34.2059 44.5037 33.6701 44.9482C33.1458 45.3928 32.5075 45.7347 31.7551 45.9741C31.0142 46.2021 30.1821 46.3161 29.2588 46.3161H28.7459V47.6839ZM28.7459 45.0337H29.2588C29.7262 45.0337 30.165 44.9596 30.5754 44.8115C30.9971 44.6633 31.3619 44.4296 31.6696 44.1104C31.9774 43.7913 32.2225 43.3809 32.4049 42.8794C32.5872 42.3664 32.6784 41.7452 32.6784 41.0157C32.6784 40.2862 32.5872 39.6706 32.4049 39.1691C32.2225 38.6562 31.9774 38.2401 31.6696 37.9209C31.3619 37.6018 30.9971 37.3681 30.5754 37.2199C30.165 37.0717 29.7262 36.9976 29.2588 36.9976H28.7459V45.0337ZM26.2667 36.9976H25.7537C25.2864 36.9976 24.8418 37.0717 24.4201 37.2199C24.0097 37.3681 23.6507 37.6018 23.3429 37.9209C23.0351 38.2401 22.7901 38.6562 22.6077 39.1691C22.4253 39.6706 22.3341 40.2862 22.3341 41.0157C22.3341 41.7452 22.4253 42.3664 22.6077 42.8794C22.7901 43.3809 23.0351 43.7913 23.3429 44.1104C23.6507 44.4296 24.0097 44.6633 24.4201 44.8115C24.8418 44.9596 25.2864 45.0337 25.7537 45.0337H26.2667V36.9976ZM47.0428 47V37.2541H46.8718L40.46 47H37.2114V35.0314H39.6906V44.7773H39.8616L46.2734 35.0314H49.522V47H47.0428ZM63.8904 35.0314V47H61.4111V41.7851H54.401V47H51.9217V35.0314H54.401V40.5027H61.4111V35.0314H63.8904ZM69.4446 42.811H74.7449L72.1802 36.4847H72.0093L69.4446 42.811ZM74.061 35.0314L78.934 47H76.4718L75.3434 44.0933H68.8461L67.7177 47H65.2555L70.1285 35.0314H74.061ZM92.2758 35.0314V47H89.7966V41.7851H82.7864V47H80.3072V35.0314H82.7864V40.5027H89.7966V35.0314H92.2758ZM101.506 46.0596C102.281 46.0596 103.022 45.9285 103.729 45.6664C104.447 45.3928 105.131 44.9539 105.781 44.3498L106.635 45.3757C105.986 45.9798 105.199 46.4586 104.276 46.8119C103.353 47.1653 102.372 47.342 101.335 47.342C100.264 47.342 99.2947 47.2052 98.4284 46.9316C97.5735 46.658 96.8383 46.2534 96.2228 45.7176C95.6186 45.1819 95.1513 44.5208 94.8207 43.7343C94.4902 42.9478 94.3249 42.0416 94.3249 41.0157C94.3249 39.9898 94.4845 39.0836 94.8036 38.2971C95.1342 37.5106 95.5958 36.8495 96.1886 36.3137C96.7927 35.778 97.5165 35.3733 98.36 35.0998C99.2035 34.8262 100.138 34.6894 101.164 34.6894C102.201 34.6894 103.182 34.8661 104.105 35.2195C105.028 35.5728 105.815 36.0516 106.464 36.6557L105.61 37.6816C104.96 37.0774 104.276 36.6443 103.558 36.3821C102.851 36.1085 102.11 35.9718 101.335 35.9718C100.72 35.9718 100.144 36.0744 99.6082 36.2795C99.0724 36.4733 98.6108 36.7754 98.2232 37.1857C97.8357 37.5961 97.5279 38.1204 97.2999 38.7587C97.0834 39.3857 96.9751 40.138 96.9751 41.0157C96.9751 41.8934 97.0834 42.6514 97.2999 43.2897C97.5279 43.9167 97.8414 44.4353 98.2403 44.8456C98.6507 45.256 99.1294 45.5638 99.6766 45.7689C100.235 45.9627 100.845 46.0596 101.506 46.0596ZM114.155 35.8863C113.573 35.8863 113.026 35.9889 112.513 36.194C112.012 36.3992 111.573 36.7127 111.197 37.1344C110.82 37.5562 110.518 38.0919 110.29 38.7416C110.074 39.38 109.966 40.138 109.966 41.0157C109.966 41.8934 110.074 42.6571 110.29 43.3068C110.518 43.9452 110.82 44.4752 111.197 44.8969C111.573 45.3187 112.012 45.6322 112.513 45.8373C113.026 46.0425 113.573 46.1451 114.155 46.1451C114.736 46.1451 115.277 46.0425 115.779 45.8373C116.292 45.6322 116.736 45.3187 117.113 44.8969C117.489 44.4752 117.785 43.9452 118.002 43.3068C118.23 42.6571 118.344 41.8934 118.344 41.0157C118.344 40.138 118.23 39.38 118.002 38.7416C117.785 38.0919 117.489 37.5562 117.113 37.1344C116.736 36.7127 116.292 36.3992 115.779 36.194C115.277 35.9889 114.736 35.8863 114.155 35.8863ZM114.155 34.6894C115.18 34.6894 116.109 34.8262 116.942 35.0998C117.785 35.3733 118.503 35.778 119.096 36.3137C119.7 36.8495 120.167 37.5106 120.498 38.2971C120.829 39.0836 120.994 39.9898 120.994 41.0157C120.994 42.0416 120.829 42.9478 120.498 43.7343C120.167 44.5208 119.7 45.1819 119.096 45.7176C118.503 46.2534 117.785 46.658 116.942 46.9316C116.109 47.2052 115.18 47.342 114.155 47.342C113.129 47.342 112.194 47.2052 111.351 46.9316C110.507 46.658 109.783 46.2534 109.179 45.7176C108.586 45.1819 108.125 44.5208 107.794 43.7343C107.475 42.9478 107.315 42.0416 107.315 41.0157C107.315 39.9898 107.475 39.0836 107.794 38.2971C108.125 37.5106 108.586 36.8495 109.179 36.3137C109.783 35.778 110.507 35.3733 111.351 35.0998C112.194 34.8262 113.129 34.6894 114.155 34.6894ZM123.052 35.0314H128.866C129.743 35.0314 130.501 35.1112 131.14 35.2707C131.789 35.4189 132.325 35.6355 132.747 35.9205C133.169 36.194 133.482 36.5246 133.687 36.9122C133.892 37.2997 133.995 37.7272 133.995 38.1945C133.995 38.7986 133.824 39.323 133.482 39.7675C133.14 40.2121 132.627 40.5426 131.943 40.7592C132.798 40.9302 133.465 41.2665 133.944 41.768C134.434 42.2581 134.679 42.8908 134.679 43.6659C134.679 44.6918 134.251 45.5068 133.397 46.1109C132.553 46.7036 131.214 47 129.379 47H123.052V35.0314ZM125.531 41.5286V45.7176H129.379C130.233 45.7176 130.889 45.5467 131.345 45.2047C131.801 44.8627 132.029 44.3498 132.029 43.6659C132.029 42.9364 131.801 42.4006 131.345 42.0587C130.889 41.7053 130.233 41.5286 129.379 41.5286H125.531ZM128.866 40.2463C130.518 40.2463 131.345 39.5624 131.345 38.1945C131.345 37.5904 131.134 37.1287 130.712 36.8096C130.302 36.479 129.686 36.3137 128.866 36.3137H125.531V40.2463H128.866ZM152.201 47H149.722V35.0314H152.201V47ZM142.712 39.4769C144.467 39.4769 145.789 39.8188 146.678 40.5027C147.567 41.1753 148.012 42.0872 148.012 43.2384C148.012 44.3897 147.567 45.3073 146.678 45.9912C145.789 46.6637 144.467 47 142.712 47H136.727V35.0314H139.207V39.4769H142.712ZM139.207 40.7592V45.7176H142.712C143.532 45.7176 144.176 45.5125 144.644 45.1021C145.122 44.6804 145.362 44.0591 145.362 43.2384C145.362 42.4177 145.122 41.8022 144.644 41.3918C144.176 40.9701 143.532 40.7592 142.712 40.7592H139.207ZM157.073 36.3137V40.2463H163.313V41.5286H157.073V45.7176H165.023V47H154.593V35.0314H165.023V36.3137H157.073Z" fill="#D8E3FD"/>
<path d="M192.395 116.509H188.995C189.763 112.892 188.404 109.384 187.393 105.967C186.936 105.886 187.075 105.995 186.949 106.217C186.497 107.012 185.195 111.289 185.195 112.116V116.508H181.995V113.483C181.995 112.795 182.653 110.658 182.903 109.879C183.66 107.512 184.924 105.32 185.911 103.047L185.752 102.21L184.994 100.792C182.278 105.698 178.659 110.684 178.795 116.508H175.395C176.086 109.738 180.755 104.408 184.115 98.7468L183.495 96.7958C179.506 103.15 173.544 108.92 172.196 116.508H168.996C170.548 109.378 176.421 104.016 180.559 98.2196C181.121 97.4317 182.982 94.9565 182.98 94.1831C182.977 92.539 182.04 90.5246 182.911 88.7764L183.997 88.7873C183.531 96.4709 189.041 102.711 191.347 109.626C191.64 110.502 192.395 112.889 192.395 113.678V116.508L192.395 116.509Z" fill="#D8E3FD"/>
<path d="M199.33 117.375H195.978C196.048 111.289 192.151 106.266 189.479 101.062C188.925 101.011 188.973 102.963 188.438 102.471C188.359 102.398 187.612 100.672 187.599 100.54C187.527 99.8565 188.05 99.338 188.01 98.7584C187.973 98.2155 187.4 97.1939 187.195 96.8651C186.991 96.5362 186.738 97.3905 186.342 98.0402C185.852 96.9963 185.716 96.1065 185.716 96.1065L186.144 94.7173C186.144 94.7173 185.711 93.3068 185.708 92.6035L184.875 93.6102C184.407 91.8194 184.542 90.4945 185.199 88.7764H186.55C187.331 99.5048 198.585 106.653 199.331 117.376L199.33 117.375Z" fill="#D8E3FD"/>
<path d="M206.262 117.375H202.791C201.792 109.564 195.357 103.739 191.567 97.1247C191.567 97.1247 191.375 96.714 191.195 96.9914C190.967 97.3431 190.748 98.0344 190.748 98.0344C190.447 97.5025 189.843 96.5094 189.677 96.071C189.615 95.9063 190.197 95.1767 190.043 94.4137C189.94 93.8967 189.342 93.3148 189.284 92.7245L188.905 93.6039C187.718 92.3074 188.061 90.4093 188.296 88.7764H189.543C192.311 99.7008 203.624 106.413 206.262 117.376V117.375Z" fill="#D8E3FD"/>
<path d="M193.013 93.1096C190.689 91.9675 190.885 90.2856 190.664 88.7764H193.019C193.343 90.194 193.35 91.6921 193.013 93.1096Z" fill="#D8E3FD"/>
<path d="M192.395 61.0439H188.995C189.763 64.6607 188.404 68.1694 187.393 71.5859C186.936 71.6672 187.075 71.5576 186.949 71.3362C186.497 70.5411 185.195 66.2637 185.195 65.4367V61.0445H181.995V64.0701C181.995 64.7575 182.653 66.8945 182.903 67.674C183.66 70.0406 184.924 72.2331 185.911 74.5055L185.752 75.3433L184.994 76.7613C182.278 71.8552 178.659 66.8692 178.795 61.0445H175.395C176.086 67.8146 180.755 73.1445 184.115 78.8061L183.495 80.7571C179.506 74.4025 173.544 68.6328 172.196 61.0445H168.996C170.548 68.1745 176.421 73.5369 180.559 79.3334C181.121 80.1212 182.982 82.5964 182.98 83.3698C182.977 85.014 182.04 87.0283 182.911 88.7765L183.997 88.7657C183.531 81.082 189.041 74.8422 191.347 67.9274C191.64 67.0505 192.395 64.6643 192.395 63.875V61.0445L192.395 61.0439Z" fill="#D8E3FD"/>
<path d="M199.33 61.0445H195.978C196.048 66.9459 192.151 71.8165 189.479 76.8634C188.925 76.9128 188.973 75.0202 188.438 75.4972C188.359 75.5673 187.612 77.241 187.599 77.3697C187.527 78.0322 188.05 78.535 188.01 79.097C187.973 79.6235 187.4 80.6141 187.195 80.933C186.991 81.2518 186.738 80.4235 186.342 79.7935C185.852 80.8057 185.716 81.6686 185.716 81.6686L186.144 83.0157C186.144 83.0157 185.711 84.3834 185.708 85.0654L184.875 84.0892C184.407 85.8258 184.542 87.1105 185.199 88.7765H186.55C187.331 78.3732 198.585 71.442 199.331 61.0439L199.33 61.0445Z" fill="#D8E3FD"/>
<path d="M206.262 61.0445H202.791C201.792 68.6188 195.357 74.2677 191.567 80.6812C191.567 80.6812 191.375 81.0795 191.195 80.8105C190.967 80.4694 190.748 79.799 190.748 79.799C190.447 80.3148 189.843 81.2778 189.677 81.7029C189.615 81.8627 190.197 82.5701 190.043 83.31C189.94 83.8114 189.342 84.3756 189.284 84.9481L188.905 84.0953C187.718 85.3525 188.061 87.1931 188.296 88.7765H189.543C192.311 78.1832 203.624 71.6744 206.262 61.0439V61.0445Z" fill="#D8E3FD"/>
<path d="M193.013 83.5766C190.689 84.9472 190.885 86.9654 190.664 88.7764H193.019C193.343 87.0754 193.35 85.2776 193.013 83.5766Z" fill="#D8E3FD"/>
<path d="M192.395 116.509H188.995C189.763 112.892 188.404 109.384 187.393 105.967C186.936 105.886 187.075 105.995 186.949 106.217C186.497 107.012 185.195 111.289 185.195 112.116V116.508H181.995V113.483C181.995 112.795 182.653 110.658 182.903 109.879C183.66 107.512 184.924 105.32 185.911 103.047L185.752 102.21L184.994 100.792C182.278 105.698 178.659 110.684 178.795 116.508H175.395C176.086 109.738 180.755 104.408 184.115 98.7468L183.495 96.7958C179.506 103.15 173.544 108.92 172.196 116.508H168.996C170.548 109.378 176.421 104.016 180.559 98.2196C181.121 97.4317 182.982 94.9565 182.98 94.1831C182.977 92.539 182.04 90.5246 182.911 88.7764L183.997 88.7873C183.531 96.4709 189.041 102.711 191.347 109.626C191.64 110.502 192.395 112.889 192.395 113.678V116.508L192.395 116.509Z" fill="#D8E3FD"/>
<path d="M199.33 117.375H195.978C196.048 111.289 192.151 106.266 189.479 101.062C188.925 101.011 188.973 102.963 188.438 102.471C188.359 102.398 187.612 100.672 187.599 100.54C187.527 99.8565 188.05 99.338 188.01 98.7584C187.973 98.2155 187.4 97.1939 187.195 96.8651C186.991 96.5362 186.738 97.3905 186.342 98.0402C185.852 96.9963 185.716 96.1065 185.716 96.1065L186.144 94.7173C186.144 94.7173 185.711 93.3068 185.708 92.6035L184.875 93.6102C184.407 91.8194 184.542 90.4945 185.199 88.7764H186.55C187.331 99.5048 198.585 106.653 199.331 117.376L199.33 117.375Z" fill="#D8E3FD"/>
<path d="M206.262 117.375H202.791C201.792 109.564 195.357 103.739 191.567 97.1247C191.567 97.1247 191.375 96.714 191.195 96.9914C190.967 97.3431 190.748 98.0344 190.748 98.0344C190.447 97.5025 189.843 96.5094 189.677 96.071C189.615 95.9063 190.197 95.1767 190.043 94.4137C189.94 93.8967 189.342 93.3148 189.284 92.7245L188.905 93.6039C187.718 92.3074 188.061 90.4093 188.296 88.7764H189.543C192.311 99.7008 203.624 106.413 206.262 117.376V117.375Z" fill="#D8E3FD"/>
<path d="M193.013 93.1096C190.689 91.9675 190.885 90.2856 190.664 88.7764H193.019C193.343 90.194 193.35 91.6921 193.013 93.1096Z" fill="#D8E3FD"/>
<path d="M192.395 61.0439H188.995C189.763 64.6607 188.404 68.1694 187.393 71.5859C186.936 71.6672 187.075 71.5576 186.949 71.3362C186.497 70.5411 185.195 66.2637 185.195 65.4367V61.0445H181.995V64.0701C181.995 64.7575 182.653 66.8945 182.903 67.674C183.66 70.0406 184.924 72.2331 185.911 74.5055L185.752 75.3433L184.994 76.7613C182.278 71.8552 178.659 66.8692 178.795 61.0445H175.395C176.086 67.8146 180.755 73.1445 184.115 78.8061L183.495 80.7571C179.506 74.4025 173.544 68.6328 172.196 61.0445H168.996C170.548 68.1745 176.421 73.5369 180.559 79.3334C181.121 80.1212 182.982 82.5964 182.98 83.3698C182.977 85.014 182.04 87.0283 182.911 88.7765L183.997 88.7657C183.531 81.082 189.041 74.8422 191.347 67.9274C191.64 67.0505 192.395 64.6643 192.395 63.875V61.0445L192.395 61.0439Z" fill="#D8E3FD"/>
<path d="M199.33 61.0445H195.978C196.048 66.9459 192.151 71.8165 189.479 76.8634C188.925 76.9128 188.973 75.0202 188.438 75.4972C188.359 75.5673 187.612 77.241 187.599 77.3697C187.527 78.0322 188.05 78.535 188.01 79.097C187.973 79.6235 187.4 80.6141 187.195 80.933C186.991 81.2518 186.738 80.4235 186.342 79.7935C185.852 80.8057 185.716 81.6686 185.716 81.6686L186.144 83.0157C186.144 83.0157 185.711 84.3834 185.708 85.0654L184.875 84.0892C184.407 85.8258 184.542 87.1105 185.199 88.7765H186.55C187.331 78.3732 198.585 71.442 199.331 61.0439L199.33 61.0445Z" fill="#D8E3FD"/>
<path d="M206.262 61.0445H202.791C201.792 68.6188 195.357 74.2677 191.567 80.6812C191.567 80.6812 191.375 81.0795 191.195 80.8105C190.967 80.4694 190.748 79.799 190.748 79.799C190.447 80.3148 189.843 81.2778 189.677 81.7029C189.615 81.8627 190.197 82.5701 190.043 83.31C189.94 83.8114 189.342 84.3756 189.284 84.9481L188.905 84.0953C187.718 85.3525 188.061 87.1931 188.296 88.7765H189.543C192.311 78.1832 203.624 71.6744 206.262 61.0439V61.0445Z" fill="#D8E3FD"/>
<path d="M193.013 83.5766C190.689 84.9472 190.885 86.9654 190.664 88.7764H193.019C193.343 87.0754 193.35 85.2776 193.013 83.5766Z" fill="#D8E3FD"/>
<path d="M192.395 163.308H188.995C189.763 159.691 188.404 156.182 187.393 152.766C186.936 152.684 187.075 152.794 186.949 153.015C186.497 153.81 185.195 158.088 185.195 158.915V163.307H181.995V160.281C181.995 159.594 182.653 157.457 182.903 156.678C183.66 154.311 184.924 152.118 185.911 149.846L185.752 149.008L184.994 147.59C182.278 152.496 178.659 157.482 178.795 163.307H175.395C176.086 156.537 180.755 151.207 184.115 145.545L183.495 143.594C179.506 149.949 173.544 155.719 172.196 163.307H168.996C170.548 156.177 176.421 150.815 180.559 145.018C181.121 144.23 182.982 141.755 182.98 140.982C182.977 139.338 182.04 137.323 182.911 135.575L183.997 135.586C183.531 143.27 189.041 149.509 191.347 156.424C191.64 157.301 192.395 159.687 192.395 160.477V163.307L192.395 163.308Z" fill="#D8E3FD"/>
<path d="M199.33 164.174H195.978C196.048 158.088 192.151 153.065 189.479 147.86C188.925 147.809 188.973 149.761 188.438 149.269C188.359 149.197 187.612 147.471 187.599 147.338C187.527 146.655 188.05 146.137 188.01 145.557C187.973 145.014 187.4 143.993 187.195 143.664C186.991 143.335 186.738 144.189 186.342 144.839C185.852 143.795 185.716 142.905 185.716 142.905L186.144 141.516C186.144 141.516 185.711 140.105 185.708 139.402L184.875 140.409C184.407 138.618 184.542 137.293 185.199 135.575H186.55C187.331 146.303 198.585 153.451 199.331 164.174L199.33 164.174Z" fill="#D8E3FD"/>
<path d="M206.262 164.174H202.791C201.792 156.363 195.357 150.537 191.567 143.923C191.567 143.923 191.375 143.513 191.195 143.79C190.967 144.142 190.748 144.833 190.748 144.833C190.447 144.301 189.843 143.308 189.677 142.87C189.615 142.705 190.197 141.975 190.043 141.212C189.94 140.695 189.342 140.113 189.284 139.523L188.905 140.403C187.718 139.106 188.061 137.208 188.296 135.575H189.543C192.311 146.499 203.624 153.212 206.262 164.174V164.174Z" fill="#D8E3FD"/>
<path d="M193.097 139.908C191.548 138.766 191.679 137.084 191.531 135.575H193.101C193.317 136.993 193.322 138.491 193.097 139.908Z" fill="#D8E3FD"/>
<path d="M192.395 107.843H188.995C189.763 111.459 188.404 114.968 187.393 118.384C186.936 118.466 187.075 118.356 186.949 118.135C186.497 117.34 185.195 113.062 185.195 112.235V107.843H181.995V110.869C181.995 111.556 182.653 113.693 182.903 114.473C183.66 116.839 184.924 119.032 185.911 121.304L185.752 122.142L184.994 123.56C182.278 118.654 178.659 113.668 178.795 107.843H175.395C176.086 114.613 180.755 119.943 184.115 125.605L183.495 127.556C179.506 121.201 173.544 115.431 172.196 107.843H168.996C170.548 114.973 176.421 120.336 180.559 126.132C181.121 126.92 182.982 129.395 182.98 130.168C182.977 131.813 182.04 133.827 182.911 135.575L183.997 135.564C183.531 127.881 189.041 121.641 191.347 114.726C191.64 113.849 192.395 111.463 192.395 110.674V107.843L192.395 107.843Z" fill="#D8E3FD"/>
<path d="M199.33 107.843H195.978C196.048 113.744 192.151 118.615 189.479 123.662C188.925 123.711 188.973 121.819 188.438 122.296C188.359 122.366 187.612 124.04 187.599 124.168C187.527 124.831 188.05 125.334 188.01 125.896C187.973 126.422 187.4 127.413 187.195 127.732C186.991 128.05 186.738 127.222 186.342 126.592C185.852 127.604 185.716 128.467 185.716 128.467L186.144 129.814C186.144 129.814 185.711 131.182 185.708 131.864L184.875 130.888C184.407 132.624 184.542 133.909 185.199 135.575H186.55C187.331 125.172 198.585 118.241 199.331 107.843L199.33 107.843Z" fill="#D8E3FD"/>
<path d="M206.262 107.843H202.791C201.792 115.417 195.357 121.066 191.567 127.48C191.567 127.48 191.375 127.878 191.195 127.609C190.967 127.268 190.748 126.598 190.748 126.598C190.447 127.113 189.843 128.076 189.677 128.502C189.615 128.661 190.197 129.369 190.043 130.109C189.94 130.61 189.342 131.174 189.284 131.747L188.905 130.894C187.718 132.151 188.061 133.992 188.296 135.575H189.543C192.311 124.982 203.624 118.473 206.262 107.843V107.843Z" fill="#D8E3FD"/>
<path d="M193.097 130.375C191.548 131.746 191.679 133.764 191.531 135.575H193.101C193.317 133.874 193.322 132.076 193.097 130.375Z" fill="#D8E3FD"/>
<path d="M192.395 209.24H188.995C189.763 205.623 188.404 202.114 187.393 198.698C186.936 198.616 187.075 198.726 186.949 198.947C186.497 199.742 185.195 204.02 185.195 204.847V209.239H181.995V206.213C181.995 205.526 182.653 203.389 182.903 202.609C183.66 200.243 184.924 198.05 185.911 195.778L185.752 194.94L184.994 193.522C182.278 198.428 178.659 203.414 178.795 209.239H175.395C176.086 202.469 180.755 197.139 184.115 191.477L183.495 189.526C179.506 195.881 173.544 201.651 172.196 209.239H168.996C170.548 202.109 176.421 196.747 180.559 190.95C181.121 190.162 182.982 187.687 182.98 186.914C182.977 185.27 182.04 183.255 182.911 181.507L183.997 181.518C183.531 189.201 189.041 195.441 191.347 202.356C191.64 203.233 192.395 205.619 192.395 206.409V209.239L192.395 209.24Z" fill="#D8E3FD"/>
<path d="M199.33 210.106H195.978C196.048 204.02 192.151 198.997 189.479 193.792C188.925 193.741 188.973 195.693 188.438 195.201C188.359 195.129 187.612 193.403 187.599 193.27C187.527 192.587 188.05 192.069 188.01 191.489C187.973 190.946 187.4 189.924 187.195 189.596C186.991 189.267 186.738 190.121 186.342 190.771C185.852 189.727 185.716 188.837 185.716 188.837L186.144 187.448C186.144 187.448 185.711 186.037 185.708 185.334L184.875 186.341C184.407 184.55 184.542 183.225 185.199 181.507H186.55C187.331 192.235 198.585 199.383 199.331 210.106L199.33 210.106Z" fill="#D8E3FD"/>
<path d="M206.262 210.106H202.791C201.792 202.295 195.357 196.469 191.567 189.855C191.567 189.855 191.375 189.445 191.195 189.722C190.967 190.074 190.748 190.765 190.748 190.765C190.447 190.233 189.843 189.24 189.677 188.802C189.615 188.637 190.197 187.907 190.043 187.144C189.94 186.627 189.342 186.045 189.284 185.455L188.905 186.334C187.718 185.038 188.061 183.14 188.296 181.507H189.543C192.311 192.431 203.624 199.144 206.262 210.106V210.106Z" fill="#D8E3FD"/>
<path d="M193.097 185.84C191.548 184.698 191.679 183.016 191.531 181.507H193.101C193.317 182.925 193.322 184.423 193.097 185.84Z" fill="#D8E3FD"/>
<path d="M192.395 152.908H188.995C189.763 156.638 188.404 160.256 187.393 163.779C186.936 163.863 187.075 163.75 186.949 163.522C186.497 162.702 185.195 158.291 185.195 157.438V152.908H181.995V156.029C181.995 156.738 182.653 158.941 182.903 159.745C183.66 162.186 184.924 164.447 185.911 166.79L185.752 167.654L184.994 169.116C182.278 164.057 178.659 158.915 178.795 152.908H175.395C176.086 159.89 180.755 165.387 184.115 171.225L183.495 173.237C179.506 166.684 173.544 160.734 172.196 152.908H168.996C170.548 160.261 176.421 165.791 180.559 171.769C181.121 172.581 182.982 175.134 182.98 175.931C182.977 177.627 182.04 179.704 182.911 181.507L183.997 181.496C183.531 173.572 189.041 167.137 191.347 160.006C191.64 159.102 192.395 156.641 192.395 155.827V152.908L192.395 152.908Z" fill="#D8E3FD"/>
<path d="M199.33 152.908H195.978C196.048 158.994 192.151 164.017 189.479 169.222C188.925 169.273 188.973 167.321 188.438 167.813C188.359 167.885 187.612 169.611 187.599 169.744C187.527 170.427 188.05 170.946 188.01 171.525C187.973 172.068 187.4 173.09 187.195 173.418C186.991 173.747 186.738 172.893 186.342 172.243C185.852 173.287 185.716 174.177 185.716 174.177L186.144 175.566C186.144 175.566 185.711 176.977 185.708 177.68L184.875 176.673C184.407 178.464 184.542 179.789 185.199 181.507H186.55C187.331 170.779 198.585 163.631 199.331 152.908L199.33 152.908Z" fill="#D8E3FD"/>
<path d="M206.262 152.908H202.791C201.792 160.72 195.357 166.545 191.567 173.159C191.567 173.159 191.375 173.57 191.195 173.292C190.967 172.94 190.748 172.249 190.748 172.249C190.447 172.781 189.843 173.774 189.677 174.212C189.615 174.377 190.197 175.107 190.043 175.87C189.94 176.387 189.342 176.969 189.284 177.559L188.905 176.68C187.718 177.976 188.061 179.874 188.296 181.507H189.543C192.311 170.583 203.624 163.871 206.262 152.908V152.908Z" fill="#D8E3FD"/>
<path d="M193.097 176.307C191.548 177.678 191.679 179.696 191.531 181.507H193.101C193.317 179.806 193.322 178.008 193.097 176.307Z" fill="#D8E3FD"/>
<path d="M192.395 209.24H188.995C189.763 205.623 188.404 202.114 187.393 198.698C186.936 198.616 187.075 198.726 186.949 198.947C186.497 199.742 185.195 204.02 185.195 204.847V209.239H181.995V206.213C181.995 205.526 182.653 203.389 182.903 202.609C183.66 200.243 184.924 198.05 185.911 195.778L185.752 194.94L184.994 193.522C182.278 198.428 178.659 203.414 178.795 209.239H175.395C176.086 202.469 180.755 197.139 184.115 191.477L183.495 189.526C179.506 195.881 173.544 201.651 172.196 209.239H168.996C170.548 202.109 176.421 196.747 180.559 190.95C181.121 190.162 182.982 187.687 182.98 186.914C182.977 185.27 182.04 183.255 182.911 181.507L183.997 181.518C183.531 189.201 189.041 195.441 191.347 202.356C191.64 203.233 192.395 205.619 192.395 206.409V209.239L192.395 209.24Z" fill="#D8E3FD"/>
<path d="M199.33 210.106H195.978C196.048 204.02 192.151 198.997 189.479 193.792C188.925 193.741 188.973 195.693 188.438 195.201C188.359 195.129 187.612 193.403 187.599 193.27C187.527 192.587 188.05 192.069 188.01 191.489C187.973 190.946 187.4 189.924 187.195 189.596C186.991 189.267 186.738 190.121 186.342 190.771C185.852 189.727 185.716 188.837 185.716 188.837L186.144 187.448C186.144 187.448 185.711 186.037 185.708 185.334L184.875 186.341C184.407 184.55 184.542 183.225 185.199 181.507H186.55C187.331 192.235 198.585 199.383 199.331 210.106L199.33 210.106Z" fill="#D8E3FD"/>
<path d="M206.262 210.106H202.791C201.792 202.295 195.357 196.469 191.567 189.855C191.567 189.855 191.375 189.445 191.195 189.722C190.967 190.074 190.748 190.765 190.748 190.765C190.447 190.233 189.843 189.24 189.677 188.802C189.615 188.637 190.197 187.907 190.043 187.144C189.94 186.627 189.342 186.045 189.284 185.455L188.905 186.334C187.718 185.038 188.061 183.14 188.296 181.507H189.543C192.311 192.431 203.624 199.144 206.262 210.106V210.106Z" fill="#D8E3FD"/>
<path d="M193.097 185.84C191.548 184.698 191.679 183.016 191.531 181.507H193.101C193.317 182.925 193.322 184.423 193.097 185.84Z" fill="#D8E3FD"/>
<path d="M192.395 152.908H188.995C189.763 156.638 188.404 160.256 187.393 163.779C186.936 163.863 187.075 163.75 186.949 163.522C186.497 162.702 185.195 158.291 185.195 157.438V152.908H181.995V156.029C181.995 156.738 182.653 158.941 182.903 159.745C183.66 162.186 184.924 164.447 185.911 166.79L185.752 167.654L184.994 169.116C182.278 164.057 178.659 158.915 178.795 152.908H175.395C176.086 159.89 180.755 165.387 184.115 171.225L183.495 173.237C179.506 166.684 173.544 160.734 172.196 152.908H168.996C170.548 160.261 176.421 165.791 180.559 171.769C181.121 172.581 182.982 175.134 182.98 175.931C182.977 177.627 182.04 179.704 182.911 181.507L183.997 181.496C183.531 173.572 189.041 167.137 191.347 160.006C191.64 159.102 192.395 156.641 192.395 155.827V152.908L192.395 152.908Z" fill="#D8E3FD"/>
<path d="M199.33 152.908H195.978C196.048 158.994 192.151 164.017 189.479 169.222C188.925 169.273 188.973 167.321 188.438 167.813C188.359 167.885 187.612 169.611 187.599 169.744C187.527 170.427 188.05 170.946 188.01 171.525C187.973 172.068 187.4 173.09 187.195 173.418C186.991 173.747 186.738 172.893 186.342 172.243C185.852 173.287 185.716 174.177 185.716 174.177L186.144 175.566C186.144 175.566 185.711 176.977 185.708 177.68L184.875 176.673C184.407 178.464 184.542 179.789 185.199 181.507H186.55C187.331 170.779 198.585 163.631 199.331 152.908L199.33 152.908Z" fill="#D8E3FD"/>
<path d="M206.262 152.908H202.791C201.792 160.72 195.357 166.545 191.567 173.159C191.567 173.159 191.375 173.57 191.195 173.292C190.967 172.94 190.748 172.249 190.748 172.249C190.447 172.781 189.843 173.774 189.677 174.212C189.615 174.377 190.197 175.107 190.043 175.87C189.94 176.387 189.342 176.969 189.284 177.559L188.905 176.68C187.718 177.976 188.061 179.874 188.296 181.507H189.543C192.311 170.583 203.624 163.871 206.262 152.908V152.908Z" fill="#D8E3FD"/>
<path d="M193.097 176.307C191.548 177.678 191.679 179.696 191.531 181.507H193.101C193.317 179.806 193.322 178.008 193.097 176.307Z" fill="#D8E3FD"/>
<path d="M192.395 199.707H188.995C189.763 203.323 188.404 206.832 187.393 210.248C186.936 210.33 187.075 210.22 186.949 209.999C186.497 209.204 185.195 204.926 185.195 204.099V199.707H181.995V202.733C181.995 203.42 182.653 205.557 182.903 206.337C183.66 208.703 184.924 210.896 185.911 213.168L185.752 214.006L184.994 215.424C182.278 210.518 178.659 205.532 178.795 199.707H175.395C176.086 206.477 180.755 211.807 184.115 217.469L183.495 219.42C179.506 213.065 173.544 207.295 172.196 199.707H168.996C170.548 206.837 176.421 212.199 180.559 217.996C181.121 218.784 182.982 221.259 182.98 222.032C182.977 223.677 182.04 225.691 182.911 227.439L183.997 227.428C183.531 219.745 189.041 213.505 191.347 206.59C191.64 205.713 192.395 203.327 192.395 202.538V199.707L192.395 199.707Z" fill="#D8E3FD"/>
<path d="M199.33 199.707H195.978C196.048 205.608 192.151 210.479 189.479 215.526C188.925 215.575 188.973 213.683 188.438 214.16C188.359 214.23 187.612 215.904 187.599 216.032C187.527 216.695 188.05 217.198 188.01 217.76C187.973 218.286 187.4 219.277 187.195 219.596C186.991 219.914 186.738 219.086 186.342 218.456C185.852 219.468 185.716 220.331 185.716 220.331L186.144 221.678C186.144 221.678 185.711 223.046 185.708 223.728L184.875 222.752C184.407 224.488 184.542 225.773 185.199 227.439H186.55C187.331 217.036 198.585 210.105 199.331 199.707L199.33 199.707Z" fill="#D8E3FD"/>
<path d="M206.262 199.707H202.791C201.792 207.281 195.357 212.93 191.567 219.344C191.567 219.344 191.375 219.742 191.195 219.473C190.967 219.132 190.748 218.462 190.748 218.462C190.447 218.977 189.843 219.94 189.677 220.365C189.615 220.525 190.197 221.233 190.043 221.973C189.94 222.474 189.342 223.038 189.284 223.611L188.905 222.758C187.718 224.015 188.061 225.856 188.296 227.439H189.543C192.311 216.846 203.624 210.337 206.262 199.707V199.707Z" fill="#D8E3FD"/>
<path d="M192.618 21.6645H189.218C189.986 18.0477 188.627 14.539 187.616 11.1225C187.159 11.0412 187.298 11.1509 187.172 11.3723C186.72 12.1673 185.418 16.4448 185.418 17.2717V21.664H182.218V18.6383C182.218 17.9509 182.876 15.814 183.126 15.0344C183.883 12.6678 185.147 10.4753 186.134 8.20295L185.975 7.36518L185.217 5.94709C182.501 10.8532 178.881 15.8392 179.018 21.664H175.618C176.309 14.8938 180.978 9.56389 184.337 3.90235L183.718 1.95132C179.729 8.30594 173.767 14.0756 172.418 21.664H169.219C170.771 14.5339 176.644 9.17152 180.781 3.37507C181.344 2.58724 183.205 0.112024 183.203 -0.661385C183.199 -2.30552 182.263 -4.31989 183.134 -6.06804L184.219 -6.05722C183.753 1.62641 189.264 7.8662 191.57 14.781C191.863 15.658 192.618 18.0441 192.618 18.8335V21.664L192.618 21.6645Z" fill="#D8E3FD"/>
<path d="M199.549 22.5306H196.196C196.266 16.4447 192.37 11.4219 189.698 6.21736C189.144 6.16636 189.191 8.11812 188.656 7.6262C188.578 7.55395 187.831 5.82796 187.818 5.69515C187.746 5.01198 188.269 4.49349 188.229 3.91391C188.192 3.37099 187.618 2.34942 187.414 2.02058C187.21 1.69175 186.956 2.54597 186.561 3.19568C186.071 2.1518 185.935 1.26197 185.935 1.26197L186.363 -0.127209C186.363 -0.127209 185.93 -1.53765 185.927 -2.241L185.093 -1.23431C184.626 -3.02511 184.761 -4.35002 185.417 -6.06804H186.768C187.55 4.6603 198.804 11.8081 199.549 22.5311L199.549 22.5306Z" fill="#D8E3FD"/>
<path d="M206.485 22.5306H203.014C202.015 14.7195 195.58 8.89415 191.789 2.28024C191.789 2.28024 191.598 1.8695 191.418 2.14688C191.189 2.49864 190.97 3.18995 190.97 3.18995C190.669 2.65805 190.065 1.66493 189.9 1.22655C189.838 1.06182 190.419 0.332264 190.266 -0.430779C190.162 -0.947796 189.565 -1.52964 189.506 -2.11999L189.128 -1.24058C187.94 -2.53711 188.284 -4.43515 188.519 -6.06804H189.766C192.534 4.85631 203.846 11.5685 206.485 22.5311V22.5306Z" fill="#D8E3FD"/>
<path d="M192.618 21.6645H189.218C189.986 18.0477 188.627 14.539 187.616 11.1225C187.159 11.0412 187.298 11.1509 187.172 11.3723C186.72 12.1673 185.418 16.4448 185.418 17.2717V21.664H182.218V18.6383C182.218 17.9509 182.876 15.814 183.126 15.0344C183.883 12.6678 185.147 10.4753 186.134 8.20295L185.975 7.36518L185.217 5.94709C182.501 10.8532 178.881 15.8392 179.018 21.664H175.618C176.309 14.8938 180.978 9.56389 184.337 3.90235L183.718 1.95132C179.729 8.30594 173.767 14.0756 172.418 21.664H169.219C170.771 14.5339 176.644 9.17152 180.781 3.37507C181.344 2.58724 183.205 0.112024 183.203 -0.661385C183.199 -2.30552 182.263 -4.31989 183.134 -6.06804L184.219 -6.05722C183.753 1.62641 189.264 7.8662 191.57 14.781C191.863 15.658 192.618 18.0441 192.618 18.8335V21.664L192.618 21.6645Z" fill="#D8E3FD"/>
<path d="M199.549 22.5306H196.196C196.266 16.4447 192.37 11.4219 189.698 6.21736C189.144 6.16636 189.191 8.11812 188.656 7.6262C188.578 7.55395 187.831 5.82796 187.818 5.69515C187.746 5.01198 188.269 4.49349 188.229 3.91391C188.192 3.37099 187.618 2.34942 187.414 2.02058C187.21 1.69175 186.956 2.54597 186.561 3.19568C186.071 2.1518 185.935 1.26197 185.935 1.26197L186.363 -0.127209C186.363 -0.127209 185.93 -1.53765 185.927 -2.241L185.093 -1.23431C184.626 -3.02511 184.761 -4.35002 185.417 -6.06804H186.768C187.55 4.6603 198.804 11.8081 199.549 22.5311L199.549 22.5306Z" fill="#D8E3FD"/>
<path d="M206.485 22.5306H203.014C202.015 14.7195 195.58 8.89415 191.789 2.28024C191.789 2.28024 191.598 1.8695 191.418 2.14688C191.189 2.49864 190.97 3.18995 190.97 3.18995C190.669 2.65805 190.065 1.66493 189.9 1.22655C189.838 1.06182 190.419 0.332264 190.266 -0.430779C190.162 -0.947796 189.565 -1.52964 189.506 -2.11999L189.128 -1.24058C187.94 -2.53711 188.284 -4.43515 188.519 -6.06804H189.766C192.534 4.85631 203.846 11.5685 206.485 22.5311V22.5306Z" fill="#D8E3FD"/>
<path d="M192.618 68.4631H189.218C189.986 64.7333 188.627 61.115 187.616 57.5918C187.159 57.5079 187.298 57.621 187.172 57.8493C186.72 58.6692 185.418 63.0803 185.418 63.9331V68.4626H182.218V65.3424C182.218 64.6335 182.876 62.4298 183.126 61.6258C183.883 59.1853 185.147 56.9243 186.134 54.5809L185.975 53.717L185.217 52.2546C182.501 57.314 178.881 62.4558 179.018 68.4626H175.618C176.309 61.4809 180.978 55.9844 184.337 50.1459L183.718 48.1339C179.729 54.6871 173.767 60.6371 172.418 68.4626H169.219C170.771 61.1097 176.644 55.5798 180.781 49.6022C181.344 48.7897 183.205 46.2372 183.203 45.4396C183.199 43.7441 182.263 41.6667 183.134 39.864L184.219 39.8751C183.753 47.7989 189.264 54.2336 191.57 61.3646C191.863 62.2689 192.618 64.7296 192.618 65.5436V68.4626L192.618 68.4631Z" fill="#D8E3FD"/>
<path d="M199.549 68.4626H196.196C196.266 62.3767 192.37 57.3539 189.698 52.1494C189.144 52.0984 189.191 54.0501 188.656 53.5582C188.578 53.486 187.831 51.76 187.818 51.6272C187.746 50.944 188.269 50.4255 188.229 49.8459C188.192 49.303 187.618 48.2814 187.414 47.9526C187.21 47.6238 186.956 48.478 186.561 49.1277C186.071 48.0838 185.935 47.194 185.935 47.194L186.363 45.8048C186.363 45.8048 185.93 44.3944 185.927 43.691L185.093 44.6977C184.626 42.9069 184.761 41.582 185.417 39.864H186.768C187.55 50.5923 198.804 57.7401 199.549 68.4631L199.549 68.4626Z" fill="#D8E3FD"/>
<path d="M206.485 68.4626H203.014C202.015 60.6515 195.58 54.8262 191.789 48.2123C191.789 48.2123 191.598 47.8015 191.418 48.0789C191.189 48.4306 190.97 49.122 190.97 49.122C190.669 48.5901 190.065 47.5969 189.9 47.1586C189.838 46.9938 190.419 46.2643 190.266 45.5012C190.162 44.9842 189.565 44.4024 189.506 43.812L189.128 44.6914C187.94 43.3949 188.284 41.4969 188.519 39.864H189.766C192.534 50.7883 203.846 57.5005 206.485 68.4631V68.4626Z" fill="#D8E3FD"/>
<path d="M193.316 45.0638C191.767 43.6933 191.898 41.675 191.75 39.864H193.32C193.536 41.565 193.541 43.3628 193.316 45.0638Z" fill="#D8E3FD"/>
<path d="M192.618 12.1315H189.218C189.986 15.7483 188.627 19.2569 187.616 22.6734C187.159 22.7548 187.298 22.6451 187.172 22.4237C186.72 21.6286 185.418 17.3512 185.418 16.5242V12.132H182.218V15.1576C182.218 15.8451 182.876 17.982 183.126 18.7616C183.883 21.1281 185.147 23.3207 186.134 25.593L185.975 26.4308L185.217 27.8489C182.501 22.9427 178.881 17.9567 179.018 12.132H175.618C176.309 18.9021 180.978 24.2321 184.337 29.8936L183.718 31.8446C179.729 25.49 173.767 19.7203 172.418 12.132H169.219C170.771 19.2621 176.644 24.6244 180.781 30.4209C181.344 31.2087 183.205 33.6839 183.203 34.4573C183.199 36.1015 182.263 38.1158 183.134 39.864L184.219 39.8532C183.753 32.1696 189.264 25.9298 191.57 19.0149C191.863 18.138 192.618 15.7519 192.618 14.9625V12.132L192.618 12.1315Z" fill="#D8E3FD"/>
<path d="M199.549 12.132L196.196 12.132C196.266 18.0334 192.37 22.9041 189.698 27.9509C189.144 28.0003 189.191 26.1077 188.656 26.5847C188.578 26.6548 187.831 28.3285 187.818 28.4573C187.746 29.1197 188.269 29.6225 188.229 30.1845C188.192 30.711 187.618 31.7016 187.414 32.0205C187.21 32.3394 186.956 31.511 186.561 30.881C186.071 31.8932 185.935 32.7561 185.935 32.7561L186.363 34.1032C186.363 34.1032 185.93 35.4709 185.927 36.1529L185.093 35.1767C184.626 36.9133 184.761 38.198 185.417 39.864H186.768C187.55 29.4608 198.804 22.5296 199.549 12.1315L199.549 12.132Z" fill="#D8E3FD"/>
<path d="M206.485 12.132H203.014C202.015 19.7064 195.58 25.3552 191.789 31.7687C191.789 31.7687 191.598 32.167 191.418 31.898C191.189 31.5569 190.97 30.8866 190.97 30.8866C190.669 31.4023 190.065 32.3654 189.9 32.7905C189.838 32.9502 190.419 33.6576 190.266 34.3976C190.162 34.8989 189.565 35.4631 189.506 36.0356L189.128 35.1828C187.94 36.4401 188.284 38.2806 188.519 39.864H189.766C192.534 29.2707 203.846 22.7619 206.485 12.1315V12.132Z" fill="#D8E3FD"/>
<path d="M193.316 35.5308C191.767 36.6729 191.898 38.3548 191.75 39.864H193.32C193.536 38.4464 193.541 36.9483 193.316 35.5308Z" fill="#D8E3FD"/>
</g>
<defs>
<clipPath id="clip0_600_4939">
<rect width="218" height="213.725" rx="17.8105" fill="white"/>
</clipPath>
</defs>
</svg>
