<svg width="375" height="70" viewBox="0 0 375 70" fill="none" xmlns="http://www.w3.org/2000/svg">
<g clip-path="url(#clip0_1618_4831)">
<rect x="-16.2578" width="446" height="34.7736" rx="2.24346" transform="rotate(4.52686 -16.2578 0)" fill="white"/>
<path d="M-10.6652 27.4572L-0.693499 9.09895L3.6476 9.44265L10.6333 29.1435L6.02091 28.7783L0.405217 11.429L2.14166 11.5664L-6.1613 27.8138L-10.6652 27.4572ZM-6.10979 23.7148L-4.67839 20.4636L5.08908 21.2369L6.01816 24.675L-6.10979 23.7148Z" fill="#3760E7"/>
<path d="M12.6038 29.2995L14.1103 10.271L17.746 10.5589L24.7681 24.6277L22.8417 24.4752L31.8546 11.6759L35.4631 11.9616L34.0108 30.9944L29.8868 30.6678L30.8647 17.971L31.6244 18.0311L24.4297 28.2116L22.4491 28.0548L16.8104 16.8583L17.7329 16.9313L16.7278 29.626L12.6038 29.2995Z" fill="#3760E7"/>
<path d="M47.7158 32.4077C46.2145 32.2888 44.8411 31.9339 43.5956 31.3429C42.3682 30.7534 41.3194 29.9774 40.4491 29.0149C39.5969 28.0539 38.9559 26.9545 38.5261 25.7169C38.1143 24.4808 37.9644 23.1559 38.0763 21.7424C38.1882 20.3288 38.5447 19.0441 39.1459 17.8881C39.7651 16.7335 40.5802 15.7495 41.5911 14.936C42.602 14.1224 43.7598 13.5212 45.0647 13.1321C46.3696 12.743 47.7637 12.6072 49.2469 12.7247C50.7482 12.8435 52.1035 13.197 53.3128 13.7851C54.5402 14.3747 55.58 15.15 56.4322 16.111C57.3025 17.0735 57.9525 18.1735 58.3824 19.4111C58.8137 20.6306 58.9726 21.9562 58.8593 23.3878C58.7474 24.8014 58.3811 26.0945 57.7604 27.2671C57.1412 28.4217 56.3261 29.4057 55.3152 30.2192C54.3239 31.0161 53.1757 31.609 51.8708 31.9981C50.584 32.3886 49.199 32.5251 47.7158 32.4077ZM47.9857 28.6542C48.8358 28.7215 49.6251 28.6381 50.3535 28.404C51.0999 28.1713 51.766 27.8046 52.3517 27.3039C52.9374 26.8032 53.4043 26.1928 53.7526 25.4727C54.1189 24.754 54.3379 23.9417 54.4097 23.0355C54.4814 22.1294 54.3929 21.2927 54.1443 20.5253C53.9137 19.7594 53.5486 19.0831 53.049 18.4965C52.5675 17.9113 51.9765 17.445 51.2759 17.0978C50.5754 16.7506 49.8 16.5433 48.9499 16.476C48.0998 16.4087 47.3015 16.4914 46.555 16.724C45.8266 16.9581 45.1696 17.3255 44.5839 17.8263C43.9982 18.327 43.5222 18.9367 43.1559 19.6553C42.8076 20.3754 42.5977 21.1885 42.5259 22.0947C42.4556 22.9826 42.535 23.8187 42.7642 24.6027C43.0128 25.3701 43.3779 26.0464 43.8594 26.6316C44.359 27.2182 44.9591 27.6851 45.6597 28.0324C46.3602 28.3796 47.1356 28.5869 47.9857 28.6542Z" fill="#3760E7"/>
<path d="M75.5128 34.6083C74.049 34.4924 72.7032 34.1488 71.4754 33.5775C70.2671 32.9894 69.2373 32.2149 68.3859 31.254C67.5345 30.293 66.8941 29.1937 66.4647 27.9562C66.0534 26.72 65.9044 25.3861 66.0178 23.9544C66.1311 22.5228 66.4882 21.2289 67.0889 20.0729C67.7077 18.9184 68.5131 17.9336 69.5051 17.1185C70.5152 16.3049 71.6623 15.7119 72.9466 15.3395C74.2324 14.9489 75.6162 14.8123 77.0982 14.9296C78.7427 15.0598 80.2017 15.4671 81.4751 16.1515C82.768 16.8191 83.8225 17.7415 84.6386 18.9185L81.6127 21.3049C81.0209 20.5104 80.3417 19.9004 79.5753 19.475C78.8102 19.0315 77.9578 18.7725 77.018 18.6981C76.1325 18.628 75.3077 18.7086 74.5438 18.9399C73.7799 19.1712 73.1053 19.5372 72.5201 20.0379C71.9349 20.5387 71.4592 21.1484 71.0932 21.8671C70.7452 22.5872 70.5353 23.4003 70.4636 24.3064C70.3918 25.2126 70.4711 26.0486 70.7015 26.8145C70.9499 27.5818 71.3236 28.2588 71.8228 28.8454C72.3219 29.432 72.9305 29.8996 73.6485 30.2482C74.3665 30.5968 75.1683 30.8062 76.0538 30.8763C76.9936 30.9507 77.8754 30.8382 78.6993 30.5387C79.5246 30.2211 80.2927 29.7075 81.0036 28.9978L83.6163 31.8307C82.6251 32.8646 81.4379 33.6186 80.0546 34.0926C78.6894 34.568 77.1755 34.74 75.5128 34.6083Z" fill="#3760E7"/>
<path d="M86.3387 35.1372L87.8453 16.1087L96.0592 16.7591C97.758 16.8936 99.1996 17.2904 100.384 17.9494C101.57 18.5904 102.456 19.4539 103.043 20.5398C103.63 21.6257 103.867 22.8845 103.754 24.3161C103.642 25.7297 103.21 26.9265 102.46 27.9065C101.711 28.8684 100.7 29.5726 99.4285 30.0189C98.1565 30.4653 96.6711 30.6212 94.9723 30.4867L89.1982 30.0296L91.3028 28.2541L90.7303 35.4849L86.3387 35.1372ZM98.4021 36.0923L94.2047 28.8121L98.8945 29.1834L103.146 36.4679L98.4021 36.0923ZM91.2641 28.7434L89.4758 26.5229L95.006 26.9607C96.3614 27.0681 97.3964 26.8582 98.111 26.3313C98.827 25.7862 99.2259 24.9971 99.3077 23.9642C99.3909 22.9131 99.1212 22.0711 98.4984 21.4382C97.8756 20.8054 96.8865 20.4353 95.5311 20.328L90.0009 19.8901L92.1185 17.9515L91.2641 28.7434Z" fill="#3760E7"/>
<path d="M106.273 36.7155L107.78 17.687L111.412 17.9746L118.427 32.0429L116.503 31.8905L125.509 19.0907L129.114 19.3761L127.662 38.4089L123.541 38.0827L124.519 25.3858L125.278 25.4459L118.089 35.6268L116.11 35.4701L110.477 24.274L111.399 24.347L110.394 37.0417L106.273 36.7155Z" fill="#3760E7"/>
<path d="M134.819 38.9755L144.791 20.6173L149.132 20.961L156.118 40.6618L151.505 40.2966L145.89 22.9473L147.626 23.0848L139.323 39.3321L134.819 38.9755ZM139.375 35.2331L140.806 31.9819L150.573 32.7552L151.503 36.1933L139.375 35.2331Z" fill="#3760E7"/>
<path d="M158.088 40.8178L159.595 21.7893L163.23 22.0772L170.252 36.146L168.326 35.9935L177.339 23.1942L180.947 23.4799L179.495 42.5127L175.371 42.1862L176.349 29.4893L177.109 29.5494L169.914 39.7299L167.933 39.5731L162.295 28.3766L163.217 28.4496L162.212 41.1443L158.088 40.8178Z" fill="#3760E7"/>
<path d="M193.2 43.926C191.699 43.8071 190.326 43.4522 189.08 42.8612C187.853 42.2717 186.804 41.4957 185.933 40.5332C185.081 39.5722 184.44 38.4729 184.01 37.2352C183.599 35.9991 183.449 34.6742 183.561 33.2607C183.673 31.8471 184.029 30.5624 184.63 29.4064C185.25 28.2518 186.065 27.2678 187.075 26.4543C188.086 25.6408 189.244 25.0395 190.549 24.6504C191.854 24.2614 193.248 24.1255 194.731 24.243C196.233 24.3618 197.588 24.7153 198.797 25.3034C200.025 25.893 201.064 26.6683 201.917 27.6293C202.787 28.5918 203.437 29.6918 203.867 30.9294C204.298 32.1489 204.457 33.4745 204.344 34.9061C204.232 36.3197 203.865 37.6128 203.245 38.7854C202.626 39.94 201.81 40.924 200.8 41.7376C199.808 42.5344 198.66 43.1273 197.355 43.5164C196.068 43.9069 194.683 44.0434 193.2 43.926ZM193.47 40.1725C194.32 40.2398 195.109 40.1564 195.838 39.9223C196.584 39.6896 197.25 39.3229 197.836 38.8222C198.422 38.3215 198.889 37.7111 199.237 36.991C199.603 36.2724 199.822 35.46 199.894 34.5538C199.966 33.6477 199.877 32.811 199.629 32.0436C199.398 31.2777 199.033 30.6014 198.533 30.0148C198.052 29.4296 197.461 28.9634 196.76 28.6161C196.06 28.2689 195.284 28.0616 194.434 27.9943C193.584 27.927 192.786 28.0097 192.039 28.2423C191.311 28.4765 190.654 28.8439 190.068 29.3446C189.483 29.8453 189.007 30.455 188.64 31.1736C188.292 31.8937 188.082 32.7068 188.01 33.613C187.94 34.501 188.019 35.337 188.249 36.121C188.497 36.8884 188.862 37.5647 189.344 38.1499C189.843 38.7365 190.443 39.2034 191.144 39.5507C191.845 39.8979 192.62 40.1052 193.47 40.1725Z" fill="#3760E7"/>
<path d="M220.989 46.1266C219.526 46.0107 218.18 45.6671 216.952 45.0958C215.744 44.5077 214.714 43.7332 213.862 42.7723C213.011 41.8113 212.371 40.712 211.941 39.4745C211.53 38.2383 211.381 36.9044 211.494 35.4728C211.608 34.0411 211.965 32.7473 212.565 31.5912C213.184 30.4367 213.99 29.4519 214.982 28.6368C215.992 27.8233 217.139 27.2302 218.423 26.8578C219.709 26.4672 221.093 26.3306 222.575 26.4479C224.219 26.5781 225.678 26.9854 226.952 27.6698C228.245 28.3375 229.299 29.2598 230.115 30.4368L227.089 32.8232C226.497 32.0287 225.818 31.4187 225.052 30.9933C224.287 30.5498 223.434 30.2908 222.495 30.2164C221.609 30.1463 220.784 30.2269 220.02 30.4582C219.256 30.6895 218.582 31.0555 217.997 31.5562C217.411 32.057 216.936 32.6667 216.57 33.3854C216.222 34.1055 216.012 34.9186 215.94 35.8247C215.868 36.7309 215.948 37.5669 216.178 38.3328C216.426 39.1001 216.8 39.7771 217.299 40.3637C217.798 40.9503 218.407 41.4179 219.125 41.7665C219.843 42.1151 220.645 42.3245 221.53 42.3946C222.47 42.469 223.352 42.3565 224.176 42.057C225.001 41.7394 225.769 41.2258 226.48 40.5161L229.093 43.349C228.102 44.3829 226.914 45.1369 225.531 45.6109C224.166 46.0864 222.652 46.2583 220.989 46.1266Z" fill="#3760E7"/>
<path d="M231.815 46.6555L233.322 27.627L241.536 28.2774C243.235 28.4119 244.676 28.8087 245.861 29.4678C247.046 30.1087 247.933 30.9722 248.52 32.0581C249.107 33.144 249.343 34.4028 249.23 35.8345C249.118 37.248 248.687 38.4448 247.937 39.4248C247.187 40.3867 246.177 41.0909 244.905 41.5372C243.633 41.9836 242.148 42.1395 240.449 42.005L234.675 41.5479L236.779 39.7724L236.207 47.0032L231.815 46.6555ZM243.879 47.6106L239.681 40.3304L244.371 40.7017L248.623 47.9862L243.879 47.6106ZM236.741 40.2617L234.952 38.0412L240.483 38.4791C241.838 38.5864 242.873 38.3765 243.588 37.8496C244.304 37.3045 244.702 36.5154 244.784 35.4825C244.868 34.4314 244.598 33.5894 243.975 32.9565C243.352 32.3237 242.363 31.9536 241.008 31.8463L235.478 31.4084L237.595 29.4698L236.741 40.2617Z" fill="#3760E7"/>
<path d="M251.75 48.2338L253.256 29.2053L256.889 29.4929L263.904 43.5612L261.979 43.4088L270.985 30.609L274.591 30.8944L273.138 49.9272L269.018 49.601L269.996 36.9041L270.755 36.9642L263.566 47.1451L261.587 46.9884L255.954 35.7923L256.875 35.8653L255.87 48.56L251.75 48.2338Z" fill="#3760E7"/>
<path d="M280.186 50.485L290.158 32.1268L294.499 32.4705L301.485 52.1713L296.872 51.8061L291.257 34.4568L292.993 34.5943L284.69 50.8416L280.186 50.485ZM284.742 46.7426L286.173 43.4914L295.941 44.2647L296.87 47.7028L284.742 46.7426Z" fill="#3760E7"/>
<path d="M303.455 52.3273L304.962 33.2989L308.598 33.5867L315.62 47.6555L313.693 47.503L322.706 34.7037L326.315 34.9894L324.862 54.0222L320.738 53.6957L321.716 40.9988L322.476 41.059L315.281 51.2394L313.301 51.0826L307.662 39.8861L308.584 39.9591L307.579 52.6538L303.455 52.3273Z" fill="#3760E7"/>
<path d="M338.567 55.4355C337.066 55.3166 335.693 54.9617 334.447 54.3707C333.22 53.7812 332.171 53.0052 331.301 52.0427C330.448 51.0817 329.807 49.9824 329.378 48.7448C328.966 47.5086 328.816 46.1837 328.928 44.7702C329.04 43.3567 329.396 42.0719 329.997 40.9159C330.617 39.7614 331.432 38.7773 332.443 37.9638C333.454 37.1503 334.611 36.549 335.916 36.1599C337.221 35.7709 338.615 35.6351 340.098 35.7525C341.6 35.8714 342.955 36.2248 344.164 36.813C345.392 37.4025 346.432 38.1778 347.284 39.1388C348.154 40.1013 348.804 41.2013 349.234 42.4389C349.665 43.6584 349.824 44.984 349.711 46.4157C349.599 47.8292 349.233 49.1223 348.612 50.295C347.993 51.4495 347.178 52.4336 346.167 53.2471C345.175 54.0439 344.027 54.6369 342.722 55.0259C341.436 55.4164 340.051 55.5529 338.567 55.4355ZM338.837 51.682C339.687 51.7493 340.477 51.6659 341.205 51.4318C341.952 51.1992 342.618 50.8325 343.203 50.3318C343.789 49.8311 344.256 49.2206 344.604 48.5005C344.97 47.7819 345.189 46.9695 345.261 46.0634C345.333 45.1572 345.245 44.3205 344.996 43.5531C344.765 42.7872 344.4 42.1109 343.901 41.5243C343.419 40.9391 342.828 40.4729 342.127 40.1256C341.427 39.7784 340.652 39.5711 339.801 39.5038C338.951 39.4365 338.153 39.5192 337.407 39.7519C336.678 39.986 336.021 40.3534 335.435 40.8541C334.85 41.3548 334.374 41.9645 334.007 42.6832C333.659 43.4033 333.449 44.2164 333.377 45.1225C333.307 46.0105 333.387 46.8465 333.616 47.6306C333.864 48.3979 334.229 49.0742 334.711 49.6594C335.211 50.246 335.811 50.713 336.511 51.0602C337.212 51.4075 337.987 51.6147 338.837 51.682Z" fill="#3760E7"/>
<path d="M366.364 57.6362C364.901 57.5203 363.555 57.1766 362.327 56.6053C361.119 56.0173 360.089 55.2428 359.237 54.2818C358.386 53.3208 357.746 52.2216 357.316 50.984C356.905 49.7478 356.756 48.4139 356.869 46.9823C356.983 45.5506 357.34 44.2568 357.94 43.1008C358.559 41.9462 359.365 40.9614 360.357 40.1464C361.367 39.3328 362.514 38.7398 363.798 38.3673C365.084 37.9767 366.468 37.8401 367.95 37.9574C369.594 38.0876 371.053 38.4949 372.327 39.1793C373.62 39.847 374.674 40.7693 375.49 41.9463L372.464 44.3327C371.872 43.5382 371.193 42.9282 370.427 42.5028C369.662 42.0593 368.809 41.8003 367.87 41.7259C366.984 41.6558 366.159 41.7364 365.395 41.9677C364.631 42.199 363.957 42.565 363.372 43.0658C362.786 43.5665 362.311 44.1762 361.945 44.8949C361.597 45.615 361.387 46.4282 361.315 47.3343C361.243 48.2404 361.323 49.0764 361.553 49.8423C361.801 50.6097 362.175 51.2866 362.674 51.8732C363.173 52.4598 363.782 52.9274 364.5 53.276C365.218 53.6247 366.02 53.834 366.905 53.9041C367.845 53.9786 368.727 53.866 369.551 53.5665C370.376 53.2489 371.144 52.7353 371.855 52.0257L374.468 54.8585C373.477 55.8924 372.289 56.6464 370.906 57.1204C369.541 57.5959 368.027 57.7678 366.364 57.6362Z" fill="#3760E7"/>
<path d="M377.19 58.165L378.697 39.1366L386.911 39.7869C388.61 39.9214 390.051 40.3182 391.236 40.9773C392.421 41.6182 393.308 42.4817 393.895 43.5676C394.482 44.6535 394.718 45.9123 394.605 47.344C394.493 48.7575 394.062 49.9543 393.312 50.9343C392.562 51.8962 391.552 52.6004 390.28 53.0468C389.008 53.4931 387.523 53.6491 385.824 53.5146L380.05 53.0574L382.154 51.2819L381.582 58.5127L377.19 58.165ZM389.254 59.1201L385.056 51.8399L389.746 52.2112L393.998 59.4957L389.254 59.1201ZM382.116 51.7712L380.327 49.5507L385.858 49.9886C387.213 50.0959 388.248 49.8861 388.963 49.3591C389.679 48.814 390.077 48.025 390.159 46.992C390.243 45.9409 389.973 45.0989 389.35 44.4661C388.727 43.8332 387.738 43.4631 386.383 43.3558L380.853 42.918L382.97 40.9794L382.116 51.7712Z" fill="#3760E7"/>
<path d="M397.125 59.7433L398.631 40.7148L402.264 41.0024L409.279 55.0707L407.354 54.9183L416.36 42.1185L419.966 42.404L418.513 61.4367L414.393 61.1105L415.371 48.4136L416.13 48.4737L408.941 58.6546L406.962 58.4979L401.329 47.3019L402.25 47.3748L401.245 60.0695L397.125 59.7433Z" fill="#3760E7"/>
</g>
<rect x="-16.2063" y="0.0603383" width="445.888" height="34.6615" rx="2.18737" transform="rotate(4.52686 -16.2063 0.0603383)" stroke="#3760E7" stroke-width="0.112173"/>
<defs>
<clipPath id="clip0_1618_4831">
<rect x="-16.2578" width="446" height="34.7736" rx="2.24346" transform="rotate(4.52686 -16.2578 0)" fill="white"/>
</clipPath>
</defs>
</svg>
