<svg width="375" height="70" viewBox="0 0 375 70" fill="none" xmlns="http://www.w3.org/2000/svg">
<g clip-path="url(#clip0_1618_4773)">
<rect x="-7.92188" width="446" height="34.7736" rx="2.24346" transform="rotate(4.52686 -7.92188 0)" fill="white"/>
<path d="M-2.32925 27.4572L7.64244 9.09895L11.9835 9.44265L18.9693 29.1435L14.3568 28.7783L8.74115 11.429L10.4776 11.5664L2.17464 27.8138L-2.32925 27.4572ZM2.22615 23.7148L3.65754 20.4636L13.425 21.2369L14.3541 24.675L2.22615 23.7148Z" fill="#3760E7"/>
<path d="M20.9397 29.2995L22.4463 10.271L26.0819 10.5589L33.104 24.6277L31.1777 24.4752L40.1905 11.6759L43.799 11.9616L42.3468 30.9944L38.2227 30.6678L39.2007 17.971L39.9604 18.0311L32.7657 28.2116L30.785 28.0548L25.1464 16.8583L26.0688 16.9313L25.0638 29.626L20.9397 29.2995Z" fill="#3760E7"/>
<path d="M56.0518 32.4077C54.5505 32.2888 53.1771 31.9339 51.9316 31.3429C50.7042 30.7534 49.6553 29.9774 48.785 29.0149C47.9329 28.0539 47.2919 26.9545 46.862 25.7169C46.4502 24.4808 46.3003 23.1559 46.4122 21.7424C46.5241 20.3288 46.8807 19.0441 47.4818 17.8881C48.1011 16.7335 48.9161 15.7495 49.927 14.936C50.9379 14.1224 52.0958 13.5212 53.4007 13.1321C54.7056 12.743 56.0996 12.6072 57.5828 12.7247C59.0841 12.8435 60.4394 13.197 61.6488 13.7851C62.8762 14.3747 63.916 15.15 64.7682 16.111C65.6384 17.0735 66.2885 18.1735 66.7183 19.4111C67.1496 20.6306 67.3086 21.9562 67.1952 23.3878C67.0833 24.8014 66.717 26.0945 66.0963 27.2671C65.4771 28.4217 64.662 29.4057 63.6512 30.2192C62.6598 31.0161 61.5117 31.609 60.2068 31.9981C58.92 32.3886 57.535 32.5251 56.0518 32.4077ZM56.3216 28.6542C57.1718 28.7215 57.961 28.6381 58.6894 28.404C59.4359 28.1713 60.102 27.8046 60.6876 27.3039C61.2733 26.8032 61.7403 26.1928 62.0885 25.4727C62.4548 24.754 62.6739 23.9417 62.7456 23.0355C62.8174 22.1294 62.7289 21.2927 62.4802 20.5253C62.2496 19.7594 61.8846 19.0831 61.385 18.4965C60.9035 17.9113 60.3124 17.445 59.6119 17.0978C58.9113 16.7506 58.136 16.5433 57.2858 16.476C56.4357 16.4087 55.6374 16.4914 54.8909 16.724C54.1625 16.9581 53.5055 17.3255 52.9198 17.8263C52.3341 18.327 51.8581 18.9367 51.4918 19.6553C51.1436 20.3754 50.9336 21.1885 50.8619 22.0947C50.7915 22.9826 50.871 23.8187 51.1001 24.6027C51.3488 25.3701 51.7139 26.0464 52.1954 26.6316C52.695 27.2182 53.295 27.6851 53.9956 28.0324C54.6962 28.3796 55.4715 28.5869 56.3216 28.6542Z" fill="#3760E7"/>
<path d="M83.8488 34.6083C82.3849 34.4924 81.0391 34.1488 79.8113 33.5775C78.6031 32.9894 77.5733 32.2149 76.7219 31.254C75.8705 30.293 75.2301 29.1937 74.8007 27.9562C74.3894 26.72 74.2404 25.3861 74.3537 23.9544C74.4671 22.5228 74.8241 21.2289 75.4248 20.0729C76.0436 18.9184 76.849 17.9336 77.841 17.1185C78.8511 16.3049 79.9983 15.7119 81.2826 15.3395C82.5683 14.9489 83.9522 14.8123 85.4341 14.9296C87.0787 15.0598 88.5377 15.4671 89.811 16.1515C91.1039 16.8191 92.1584 17.7415 92.9745 18.9185L89.9486 21.3049C89.3568 20.5104 88.6777 19.9004 87.9112 19.475C87.1461 19.0315 86.2937 18.7725 85.354 18.6981C84.4684 18.628 83.6437 18.7086 82.8797 18.9399C82.1158 19.1712 81.4412 19.5372 80.856 20.0379C80.2708 20.5387 79.7952 21.1484 79.4291 21.8671C79.0811 22.5872 78.8713 23.4003 78.7995 24.3064C78.7278 25.2126 78.8071 26.0486 79.0374 26.8145C79.2858 27.5818 79.6596 28.2588 80.1587 28.8454C80.6578 29.432 81.2664 29.8996 81.9844 30.2482C82.7024 30.5968 83.5042 30.8062 84.3898 30.8763C85.3295 30.9507 86.2114 30.8382 87.0352 30.5387C87.8606 30.2211 88.6287 29.7075 89.3395 28.9978L91.9522 31.8307C90.9611 32.8646 89.7739 33.6186 88.3906 34.0926C87.0254 34.568 85.5114 34.74 83.8488 34.6083Z" fill="#3760E7"/>
<path d="M94.6746 35.1372L96.1812 16.1087L104.395 16.7591C106.094 16.8936 107.536 17.2904 108.72 17.9494C109.906 18.5904 110.792 19.4539 111.379 20.5398C111.966 21.6257 112.203 22.8845 112.089 24.3161C111.978 25.7297 111.546 26.9265 110.796 27.9065C110.047 28.8684 109.036 29.5726 107.764 30.0189C106.492 30.4653 105.007 30.6212 103.308 30.4867L97.5341 30.0296L99.6387 28.2541L99.0662 35.4849L94.6746 35.1372ZM106.738 36.0923L102.541 28.8121L107.23 29.1834L111.482 36.4679L106.738 36.0923ZM99.6 28.7434L97.8117 26.5229L103.342 26.9607C104.697 27.0681 105.732 26.8582 106.447 26.3313C107.163 25.7862 107.562 24.9971 107.644 23.9642C107.727 22.9131 107.457 22.0711 106.834 21.4382C106.212 20.8054 105.222 20.4353 103.867 20.328L98.3369 19.8901L100.454 17.9515L99.6 28.7434Z" fill="#3760E7"/>
<path d="M114.609 36.7155L116.116 17.687L119.748 17.9746L126.763 32.0429L124.839 31.8905L133.845 19.0907L137.45 19.3761L135.998 38.4089L131.877 38.0827L132.855 25.3858L133.614 25.4459L126.425 35.6268L124.446 35.4701L118.813 24.274L119.735 24.347L118.73 37.0417L114.609 36.7155Z" fill="#3760E7"/>
<path d="M143.155 38.9755L153.127 20.6173L157.468 20.961L164.454 40.6618L159.841 40.2966L154.226 22.9473L155.962 23.0848L147.659 39.3321L143.155 38.9755ZM147.711 35.2331L149.142 31.9819L158.909 32.7552L159.838 36.1933L147.711 35.2331Z" fill="#3760E7"/>
<path d="M166.424 40.8178L167.931 21.7893L171.566 22.0772L178.588 36.146L176.662 35.9935L185.675 23.1942L189.283 23.4799L187.831 42.5127L183.707 42.1862L184.685 29.4893L185.445 29.5494L178.25 39.7299L176.269 39.5731L170.631 28.3766L171.553 28.4496L170.548 41.1443L166.424 40.8178Z" fill="#3760E7"/>
<path d="M201.536 43.926C200.035 43.8071 198.661 43.4522 197.416 42.8612C196.189 42.2717 195.14 41.4957 194.269 40.5332C193.417 39.5722 192.776 38.4729 192.346 37.2352C191.935 35.9991 191.785 34.6742 191.897 33.2607C192.009 31.8471 192.365 30.5624 192.966 29.4064C193.585 28.2518 194.401 27.2678 195.411 26.4543C196.422 25.6408 197.58 25.0395 198.885 24.6504C200.19 24.2614 201.584 24.1255 203.067 24.243C204.569 24.3618 205.924 24.7153 207.133 25.3034C208.361 25.893 209.4 26.6683 210.253 27.6293C211.123 28.5918 211.773 29.6918 212.203 30.9294C212.634 32.1489 212.793 33.4745 212.68 34.9061C212.568 36.3197 212.201 37.6128 211.581 38.7854C210.961 39.94 210.146 40.924 209.136 41.7376C208.144 42.5344 206.996 43.1273 205.691 43.5164C204.404 43.9069 203.019 44.0434 201.536 43.926ZM201.806 40.1725C202.656 40.2398 203.445 40.1564 204.174 39.9223C204.92 39.6896 205.586 39.3229 206.172 38.8222C206.758 38.3215 207.225 37.7111 207.573 36.991C207.939 36.2724 208.158 35.46 208.23 34.5538C208.302 33.6477 208.213 32.811 207.965 32.0436C207.734 31.2777 207.369 30.6014 206.869 30.0148C206.388 29.4296 205.797 28.9634 205.096 28.6161C204.396 28.2689 203.62 28.0616 202.77 27.9943C201.92 27.927 201.122 28.0097 200.375 28.2423C199.647 28.4765 198.99 28.8439 198.404 29.3446C197.819 29.8453 197.343 30.455 196.976 31.1736C196.628 31.8937 196.418 32.7068 196.346 33.613C196.276 34.501 196.355 35.337 196.584 36.121C196.833 36.8884 197.198 37.5647 197.68 38.1499C198.179 38.7365 198.779 39.2034 199.48 39.5507C200.181 39.8979 200.956 40.1052 201.806 40.1725Z" fill="#3760E7"/>
<path d="M229.325 46.1266C227.861 46.0107 226.516 45.6671 225.288 45.0958C224.08 44.5077 223.05 43.7332 222.198 42.7723C221.347 41.8113 220.707 40.712 220.277 39.4745C219.866 38.2383 219.717 36.9044 219.83 35.4728C219.944 34.0411 220.301 32.7473 220.901 31.5912C221.52 30.4367 222.326 29.4519 223.318 28.6368C224.328 27.8233 225.475 27.2302 226.759 26.8578C228.045 26.4672 229.429 26.3306 230.911 26.4479C232.555 26.5781 234.014 26.9854 235.288 27.6698C236.58 28.3375 237.635 29.2598 238.451 30.4368L235.425 32.8232C234.833 32.0287 234.154 31.4187 233.388 30.9933C232.623 30.5498 231.77 30.2908 230.831 30.2164C229.945 30.1463 229.12 30.2269 228.356 30.4582C227.592 30.6895 226.918 31.0555 226.333 31.5562C225.747 32.057 225.272 32.6667 224.906 33.3854C224.558 34.1055 224.348 34.9186 224.276 35.8247C224.204 36.7309 224.284 37.5669 224.514 38.3328C224.762 39.1001 225.136 39.7771 225.635 40.3637C226.134 40.9503 226.743 41.4179 227.461 41.7665C228.179 42.1151 228.981 42.3245 229.866 42.3946C230.806 42.469 231.688 42.3565 232.512 42.057C233.337 41.7394 234.105 41.2258 234.816 40.5161L237.429 43.349C236.438 44.3829 235.25 45.1369 233.867 45.6109C232.502 46.0864 230.988 46.2583 229.325 46.1266Z" fill="#3760E7"/>
<path d="M240.151 46.6555L241.658 27.627L249.872 28.2774C251.57 28.4119 253.012 28.8087 254.197 29.4678C255.382 30.1087 256.269 30.9722 256.856 32.0581C257.443 33.144 257.679 34.4028 257.566 35.8345C257.454 37.248 257.023 38.4448 256.272 39.4248C255.523 40.3867 254.513 41.0909 253.241 41.5372C251.969 41.9836 250.484 42.1395 248.785 42.005L243.011 41.5479L245.115 39.7724L244.543 47.0032L240.151 46.6555ZM252.215 47.6106L248.017 40.3304L252.707 40.7017L256.959 47.9862L252.215 47.6106ZM245.077 40.2617L243.288 38.0412L248.818 38.4791C250.174 38.5864 251.209 38.3765 251.924 37.8496C252.64 37.3045 253.038 36.5154 253.12 35.4825C253.203 34.4314 252.934 33.5894 252.311 32.9565C251.688 32.3237 250.699 31.9536 249.344 31.8463L243.813 31.4084L245.931 29.4698L245.077 40.2617Z" fill="#3760E7"/>
<path d="M260.086 48.2338L261.592 29.2053L265.225 29.4929L272.24 43.5612L270.315 43.4088L279.321 30.609L282.927 30.8944L281.474 49.9272L277.354 49.601L278.332 36.9041L279.091 36.9642L271.902 47.1451L269.923 46.9884L264.289 35.7923L265.211 35.8653L264.206 48.56L260.086 48.2338Z" fill="#3760E7"/>
<path d="M288.522 50.485L298.494 32.1268L302.835 32.4705L309.821 52.1713L305.208 51.8061L299.593 34.4568L301.329 34.5943L293.026 50.8416L288.522 50.485ZM293.078 46.7426L294.509 43.4914L304.277 44.2647L305.206 47.7028L293.078 46.7426Z" fill="#3760E7"/>
<path d="M311.791 52.3273L313.298 33.2989L316.933 33.5867L323.956 47.6555L322.029 47.503L331.042 34.7037L334.651 34.9894L333.198 54.0222L329.074 53.6957L330.052 40.9988L330.812 41.059L323.617 51.2394L321.637 51.0826L315.998 39.8861L316.92 39.9591L315.915 52.6538L311.791 52.3273Z" fill="#3760E7"/>
<path d="M346.903 55.4355C345.402 55.3166 344.029 54.9617 342.783 54.3707C341.556 53.7812 340.507 53.0052 339.637 52.0427C338.784 51.0817 338.143 49.9824 337.714 48.7448C337.302 47.5086 337.152 46.1837 337.264 44.7702C337.376 43.3567 337.732 42.0719 338.333 40.9159C338.953 39.7614 339.768 38.7773 340.779 37.9638C341.789 37.1503 342.947 36.549 344.252 36.1599C345.557 35.7709 346.951 35.6351 348.434 35.7525C349.936 35.8714 351.291 36.2248 352.5 36.813C353.728 37.4025 354.768 38.1778 355.62 39.1388C356.49 40.1013 357.14 41.2013 357.57 42.4389C358.001 43.6584 358.16 44.984 358.047 46.4157C357.935 47.8292 357.569 49.1223 356.948 50.295C356.329 51.4495 355.514 52.4336 354.503 53.2471C353.511 54.0439 352.363 54.6369 351.058 55.0259C349.772 55.4164 348.387 55.5529 346.903 55.4355ZM347.173 51.682C348.023 51.7493 348.813 51.6659 349.541 51.4318C350.287 51.1992 350.954 50.8325 351.539 50.3318C352.125 49.8311 352.592 49.2206 352.94 48.5005C353.306 47.7819 353.525 46.9695 353.597 46.0634C353.669 45.1572 353.58 44.3205 353.332 43.5531C353.101 42.7872 352.736 42.1109 352.237 41.5243C351.755 40.9391 351.164 40.4729 350.463 40.1256C349.763 39.7784 348.988 39.5711 348.137 39.5038C347.287 39.4365 346.489 39.5192 345.742 39.7519C345.014 39.986 344.357 40.3534 343.771 40.8541C343.186 41.3548 342.71 41.9645 342.343 42.6832C341.995 43.4033 341.785 44.2164 341.713 45.1225C341.643 46.0105 341.723 46.8465 341.952 47.6306C342.2 48.3979 342.565 49.0742 343.047 49.6594C343.547 50.246 344.147 50.713 344.847 51.0602C345.548 51.4075 346.323 51.6147 347.173 51.682Z" fill="#3760E7"/>
<path d="M374.7 57.6362C373.236 57.5203 371.891 57.1766 370.663 56.6053C369.455 56.0173 368.425 55.2428 367.573 54.2818C366.722 53.3208 366.082 52.2216 365.652 50.984C365.241 49.7478 365.092 48.4139 365.205 46.9823C365.319 45.5506 365.676 44.2568 366.276 43.1008C366.895 41.9462 367.701 40.9614 368.693 40.1464C369.703 39.3328 370.85 38.7398 372.134 38.3673C373.42 37.9767 374.804 37.8401 376.286 37.9574C377.93 38.0876 379.389 38.4949 380.663 39.1793C381.955 39.847 383.01 40.7693 383.826 41.9463L380.8 44.3327C380.208 43.5382 379.529 42.9282 378.763 42.5028C377.998 42.0593 377.145 41.8003 376.206 41.7259C375.32 41.6558 374.495 41.7364 373.731 41.9677C372.967 42.199 372.293 42.565 371.708 43.0658C371.122 43.5665 370.647 44.1762 370.281 44.8949C369.933 45.615 369.723 46.4282 369.651 47.3343C369.579 48.2404 369.659 49.0764 369.889 49.8423C370.137 50.6097 370.511 51.2866 371.01 51.8732C371.509 52.4598 372.118 52.9274 372.836 53.276C373.554 53.6247 374.356 53.834 375.241 53.9041C376.181 53.9786 377.063 53.866 377.887 53.5665C378.712 53.2489 379.48 52.7353 380.191 52.0257L382.804 54.8585C381.813 55.8924 380.625 56.6464 379.242 57.1204C377.877 57.5959 376.363 57.7678 374.7 57.6362Z" fill="#3760E7"/>
<path d="M385.526 58.165L387.033 39.1366L395.247 39.7869C396.945 39.9214 398.387 40.3182 399.572 40.9773C400.757 41.6182 401.644 42.4817 402.231 43.5676C402.818 44.6535 403.054 45.9123 402.941 47.344C402.829 48.7575 402.398 49.9543 401.647 50.9343C400.898 51.8962 399.888 52.6004 398.616 53.0468C397.344 53.4931 395.859 53.6491 394.16 53.5146L388.386 53.0574L390.49 51.2819L389.918 58.5127L385.526 58.165ZM397.59 59.1201L393.392 51.8399L398.082 52.2112L402.334 59.4957L397.59 59.1201ZM390.452 51.7712L388.663 49.5507L394.193 49.9886C395.549 50.0959 396.584 49.8861 397.299 49.3591C398.015 48.814 398.413 48.025 398.495 46.992C398.578 45.9409 398.309 45.0989 397.686 44.4661C397.063 43.8332 396.074 43.4631 394.719 43.3558L389.188 42.918L391.306 40.9794L390.452 51.7712Z" fill="#3760E7"/>
<path d="M405.461 59.7433L406.967 40.7148L410.6 41.0024L417.615 55.0707L415.69 54.9183L424.696 42.1185L428.302 42.404L426.849 61.4367L422.729 61.1105L423.707 48.4136L424.466 48.4737L417.277 58.6546L415.298 58.4979L409.664 47.3019L410.586 47.3748L409.581 60.0695L405.461 59.7433Z" fill="#3760E7"/>
</g>
<rect x="-7.87039" y="0.0603383" width="445.888" height="34.6615" rx="2.18737" transform="rotate(4.52686 -7.87039 0.0603383)" stroke="#3760E7" stroke-width="0.112173"/>
<defs>
<clipPath id="clip0_1618_4773">
<rect x="-7.92188" width="446" height="34.7736" rx="2.24346" transform="rotate(4.52686 -7.92188 0)" fill="white"/>
</clipPath>
</defs>
</svg>
