<svg width="132" height="30" viewBox="0 0 132 30" fill="none" xmlns="http://www.w3.org/2000/svg">
<path fill-rule="evenodd" clip-rule="evenodd" d="M53.555 4.50544C50.6678 1.61294 46.8922 0.166687 43.0796 0.166687C39.3041 0.166687 35.4915 1.61294 32.6043 4.50544C26.8298 10.2904 26.8298 19.6725 32.6043 25.4946C38.3787 31.2796 47.7436 31.2796 53.555 25.4946C59.3294 19.7096 59.3294 10.2904 53.555 4.50544ZM49.3723 21.3042C45.8928 24.79 40.2665 24.79 36.824 21.3042C33.3446 17.8184 33.3446 12.1817 36.824 8.73294C40.3035 5.2471 45.9298 5.2471 49.3723 8.73294C52.8147 12.1817 52.8147 17.8184 49.3723 21.3042Z" fill="#3760E7"/>
<path fill-rule="evenodd" clip-rule="evenodd" d="M84.647 4.50544C81.7598 1.61294 77.9842 0.166687 74.1716 0.166687C70.396 0.166687 66.5834 1.61294 63.6962 4.50544C57.9218 10.2904 57.9218 19.6725 63.6962 25.4946C69.4706 31.2796 78.8356 31.2796 84.647 25.4946C90.4214 19.7096 90.4214 10.2904 84.647 4.50544ZM80.4643 21.3042C76.9848 24.79 71.3584 24.79 67.916 21.3042C64.4365 17.8184 64.4365 12.1817 67.916 8.73294C71.3955 5.2471 77.0218 5.2471 80.4643 8.73294C83.9067 12.1817 83.9067 17.8184 80.4643 21.3042ZM6.0631 29.7592L7.54372 29.8334H29.753L29.679 28.35C29.4939 25.9025 27.7542 24.1225 25.3112 23.9742L23.8305 23.9H10.505L28.2724 6.10002L28.1984 4.61669C28.0873 2.16919 26.2736 0.352103 23.8305 0.240853L22.3499 0.166687H0.140625L0.214655 1.65002C0.399732 4.06044 2.17648 5.87752 4.58248 6.02586L6.0631 6.10002H19.3887L1.62124 23.9L1.69527 25.3834C1.84334 27.8309 3.62008 29.6109 6.0631 29.7592ZM107.412 9.06669C107.93 9.95669 108.078 10.9209 108.152 12.0334L108.226 13.5167V23.9L108.3 25.3834C108.448 27.7938 110.225 29.6109 112.668 29.7592L114.148 29.8334V13.5167L114.222 12.0334C114.296 10.9209 114.444 9.91961 114.963 9.0296C115.999 7.2496 117.887 6.10002 120.071 6.10002C122.255 6.10002 124.18 7.28669 125.216 9.06669C125.734 9.95669 125.882 10.9579 125.919 12.0334L125.993 13.5167V23.9L126.067 25.3834C126.215 27.8309 127.992 29.6109 130.435 29.7592L131.916 29.8334V13.5167V12.0334C131.916 5.4696 126.623 0.166687 120.071 0.166687C116.517 0.166687 113.371 1.72419 111.187 4.17169C109.003 1.72419 105.857 0.166687 102.303 0.166687C99.8604 0.166687 97.5654 0.908354 95.6776 2.20627C94.5301 0.908354 91.9391 0.166687 90.4584 0.166687V29.8334L91.9391 29.7592C94.4191 29.6109 96.1958 27.8309 96.3069 25.3834L96.3809 23.9V13.5167L96.455 12.0334C96.529 10.9209 96.677 9.9196 97.1953 9.06669C98.2317 7.28669 100.119 6.10002 102.303 6.10002C104.487 6.10002 106.412 7.28669 107.412 9.06669Z" fill="#3760E7"/>
</svg>
