<svg width="206" height="222" viewBox="0 0 206 222" fill="none" xmlns="http://www.w3.org/2000/svg">
<rect width="206" height="296" rx="25" fill="white"/>
<g clip-path="url(#clip0_721_273)">
<path d="M176 8C189.807 8 201 19.1929 201 33V229C201 242.807 189.807 254 176 254H34C20.1929 254 9 242.807 9 229V33C9 19.1929 20.1929 8 34 8H54.0088C54.2731 16.8814 61.5546 24 70.5 24H139.5C148.445 24 155.727 16.8814 155.991 8H176Z" fill="#3760E7"/>
</g>
<circle cx="49" cy="97" r="15.5" fill="#3760E7" stroke="#3760E7"/>
<circle cx="86" cy="97" r="15.5" fill="#3760E7" stroke="#3760E7"/>
<circle cx="123" cy="97" r="15.5" fill="#3760E7" stroke="#3760E7"/>
<g clip-path="url(#clip1_721_273)">
<path d="M108.596 174.207C108.596 172.441 108.596 170.764 108.596 169.043C108.414 169.034 108.244 169.016 108.073 169.02C104.205 169.127 100.337 169.218 96.4707 169.361C95.6862 169.389 94.889 169.549 94.1342 169.771C92.613 170.22 92.0957 171.205 92.455 172.746C92.5218 173.033 92.7656 173.439 92.3098 173.557C91.8497 173.676 91.8603 173.189 91.7935 172.913C91.3334 171.002 92.0458 169.633 93.9434 169.116C95.1053 168.8 96.3371 168.664 97.5446 168.615C101.022 168.474 104.503 168.417 107.982 168.327C108.175 168.321 108.368 168.308 108.589 168.296C108.589 167.212 108.589 166.154 108.589 164.997C107.799 164.997 107.009 165.007 106.22 164.995C103.535 164.957 100.849 164.948 98.1647 164.856C95.9502 164.779 93.743 164.521 91.8031 163.323C89.2503 161.747 87.9379 159.49 88.3705 156.412C88.7341 153.831 90.2659 152.052 92.4232 150.751C93.8724 149.878 95.453 149.442 97.1386 149.325C97.9633 149.268 98.7817 149.115 99.6022 148.996C100.124 148.921 100.373 148.616 100.462 148.084C101.184 143.756 103.949 141.151 108.32 140.6C110.627 140.31 112.886 140.414 114.986 141.481C117.6 142.809 119.104 144.961 119.408 147.912C119.436 148.175 119.419 148.443 119.404 148.708C119.389 148.97 119.351 149.229 119.316 149.559C119.548 149.533 119.731 149.508 119.917 149.494C123.193 149.241 126.057 150.145 128.221 152.702C130.244 155.092 130.065 158.541 127.941 161.09C126.325 163.03 124.174 163.955 121.786 164.438C118.998 165.001 116.167 164.977 113.342 165.014C112.158 165.03 110.974 165.041 109.791 165.022C109.394 165.016 109.27 165.139 109.282 165.537C109.309 166.436 109.29 167.335 109.29 168.285C109.526 168.285 109.699 168.284 109.87 168.285C113.705 168.317 117.539 168.32 121.371 168.399C122.384 168.419 123.421 168.566 124.395 168.84C125.758 169.222 126.705 170.118 126.907 171.611C126.944 171.884 126.901 172.183 126.82 172.447C126.785 172.562 126.565 172.679 126.426 172.684C126.346 172.686 126.17 172.444 126.191 172.343C126.344 171.56 126.109 170.911 125.587 170.343C124.927 169.621 124.055 169.308 123.129 169.247C121.033 169.109 118.933 169 116.833 168.968C114.431 168.931 112.028 168.987 109.624 169.005C109.537 169.007 109.451 169.026 109.328 169.041C109.328 170.737 109.328 172.426 109.328 174.231C110.203 174.231 111.049 174.215 111.894 174.235C113.82 174.279 114.349 174.79 114.345 176.733C114.337 180.296 114.296 183.858 114.243 187.42C114.221 188.92 113.484 189.635 112.009 189.651C110.454 189.668 108.899 189.686 107.345 189.66C105.979 189.638 104.992 188.715 104.804 187.352C104.77 187.107 104.756 186.858 104.757 186.611C104.773 183.561 104.783 180.513 104.821 177.463C104.829 176.866 104.894 176.258 105.03 175.676C105.259 174.69 105.836 174.247 106.836 174.211C107.414 174.19 107.995 174.207 108.596 174.207ZM108.219 164.396C108.219 164.376 108.22 164.357 108.22 164.337C109.916 164.337 111.612 164.349 113.307 164.334C116.026 164.31 118.749 164.3 121.435 163.799C123.385 163.436 125.23 162.803 126.704 161.393C128.279 159.884 129.176 158.082 128.88 155.839C128.642 154.034 127.627 152.693 126.157 151.72C124.004 150.296 121.652 149.756 119.095 150.359C118.554 150.486 118.405 150.329 118.523 149.784C118.594 149.457 118.683 149.127 118.696 148.795C118.818 145.742 117.397 143.55 114.785 142.161C112.576 140.985 110.178 140.926 107.766 141.424C105.765 141.836 103.991 142.681 102.655 144.3C101.695 145.464 101.332 146.861 101.111 148.306C101.004 149.006 100.646 149.456 99.9669 149.592C99.1729 149.75 98.3715 149.916 97.5668 149.964C95.3162 150.099 93.2787 150.766 91.5264 152.219C87.5171 155.543 88.3471 161.239 93.1335 163.226C94.519 163.801 95.9809 164.065 97.4661 164.113C101.05 164.235 104.636 164.306 108.219 164.396ZM105.585 177.284C105.555 177.369 105.533 177.402 105.532 177.435C105.503 180.644 105.459 183.853 105.458 187.062C105.458 187.967 106.099 188.782 106.867 188.903C107.552 189.011 108.255 189.009 109.047 189.063C108.256 188.258 108.164 187.63 108.681 187.097C109.137 186.628 109.942 186.577 110.4 187.045C110.595 187.244 110.803 187.579 110.77 187.819C110.714 188.233 110.474 188.621 110.307 189.029C110.917 189 111.618 188.97 112.319 188.931C112.996 188.893 113.354 188.59 113.49 187.925C113.546 187.649 113.585 187.364 113.589 187.082C113.635 183.997 113.673 180.912 113.71 177.829C113.712 177.658 113.689 177.485 113.676 177.284C110.961 177.284 108.283 177.284 105.585 177.284ZM113.611 176.547C113.611 175.257 113.427 175.01 112.253 174.966C110.562 174.903 108.869 174.89 107.176 174.875C106.046 174.864 105.577 175.377 105.608 176.547C108.266 176.547 110.925 176.547 113.611 176.547ZM109.593 187.194C109.338 187.517 109.063 187.716 109.084 187.878C109.108 188.061 109.394 188.335 109.569 188.337C109.747 188.339 110.04 188.079 110.074 187.894C110.104 187.738 109.835 187.527 109.593 187.194Z" fill="#3760E7"/>
<path d="M95.8814 181.354C95.8083 183.804 95.7754 185.717 95.6874 187.628C95.6259 188.957 94.904 189.632 93.5906 189.649C92.0015 189.67 90.4124 189.688 88.8243 189.662C87.3921 189.637 86.2621 188.582 86.2589 187.154C86.2515 183.541 86.2812 179.927 86.3787 176.314C86.4105 175.157 86.9087 174.143 88.6017 174.192C90.5067 174.246 92.4128 174.246 94.3157 174.337C95.1478 174.376 95.5676 174.798 95.6832 175.631C95.8051 176.505 95.8518 177.393 95.874 178.276C95.9048 179.48 95.8814 180.686 95.8814 181.354ZM90.4611 188.991C89.7562 188.302 89.6438 187.635 90.1325 187.111C90.5597 186.653 91.3665 186.557 91.8022 187.005C92.046 187.256 92.2569 187.678 92.2368 188.009C92.2167 188.353 91.9018 188.681 91.7068 189.031C92.2845 189.004 92.8835 188.942 93.4814 188.957C94.5065 188.983 94.9994 188.628 95.0312 187.342C95.1107 184.173 95.1245 181.002 95.1616 177.831C95.1637 177.658 95.1447 177.484 95.1341 177.285C92.4117 177.285 89.7201 177.285 86.9723 177.285C86.9723 178.042 86.9776 178.765 86.9713 179.488C86.949 181.898 86.9119 184.306 86.9013 186.715C86.895 188.05 87.5798 188.88 88.7735 188.983C89.3289 189.032 89.8897 188.991 90.4611 188.991ZM87.054 176.546C89.7339 176.546 92.4117 176.546 95.0895 176.546C95.0758 175.245 94.9083 175.018 93.6626 174.964C92.0407 174.895 90.4156 174.891 88.7915 174.875C87.4971 174.862 87.1653 175.19 87.054 176.546ZM91.0643 187.201C90.8025 187.52 90.5173 187.722 90.5406 187.879C90.5682 188.064 90.8555 188.331 91.04 188.338C91.2096 188.346 91.5043 188.078 91.5361 187.895C91.5636 187.735 91.2986 187.526 91.0643 187.201Z" fill="#3760E7"/>
<path d="M132.798 182.012C132.798 183.766 132.804 185.519 132.793 187.273C132.791 187.57 132.743 187.875 132.672 188.165C132.446 189.093 131.795 189.623 130.792 189.643C129.204 189.673 127.613 189.65 126.025 189.679C124.187 189.712 123.289 188.273 123.286 186.929C123.278 183.527 123.332 180.126 123.378 176.724C123.384 176.358 123.468 175.985 123.569 175.63C123.843 174.666 124.373 174.215 125.359 174.217C127.335 174.22 129.312 174.233 131.285 174.327C132.276 174.375 132.711 174.901 132.799 175.906C132.868 176.698 132.902 177.496 132.914 178.292C132.932 179.532 132.919 180.772 132.919 182.013C132.879 182.012 132.839 182.012 132.798 182.012ZM128.578 189.038C129.363 189.002 130.011 188.977 130.66 188.941C131.641 188.886 132.009 188.54 132.067 187.539C132.128 186.478 132.159 185.415 132.175 184.354C132.208 182.158 132.218 179.962 132.249 177.765C132.254 177.394 132.154 177.238 131.74 177.241C129.339 177.26 126.938 177.258 124.537 177.242C124.148 177.24 124.01 177.348 124.015 177.748C124.03 178.934 124.009 180.121 124.005 181.308C123.998 183.186 123.984 185.063 123.993 186.941C123.998 187.857 124.496 188.695 125.231 188.852C125.967 189.01 126.737 189.002 127.493 189.067C126.771 188.295 126.673 187.641 127.224 187.087C127.713 186.596 128.565 186.61 129.03 187.117C129.519 187.655 129.392 188.363 128.578 189.038ZM132.138 176.542C132.203 175.342 131.949 175.006 130.822 174.968C129.06 174.908 127.297 174.889 125.536 174.877C124.559 174.871 124.03 175.54 124.169 176.542C126.826 176.542 129.482 176.542 132.138 176.542ZM128.07 187.2C127.846 187.53 127.588 187.747 127.62 187.904C127.657 188.087 127.957 188.348 128.126 188.336C128.31 188.325 128.593 188.05 128.613 187.866C128.631 187.707 128.342 187.514 128.07 187.2Z" fill="#3760E7"/>
<path d="M109.583 175.177C109.935 175.177 110.29 175.145 110.635 175.192C110.779 175.211 110.901 175.397 111.034 175.507C110.9 175.618 110.77 175.817 110.631 175.823C109.929 175.855 109.224 175.855 108.523 175.822C108.386 175.816 108.258 175.613 108.125 175.501C108.26 175.393 108.384 175.21 108.529 175.19C108.874 175.146 109.231 175.177 109.583 175.177Z" fill="#3760E7"/>
<path d="M91.0702 175.179C91.4211 175.179 91.7773 175.147 92.1218 175.195C92.2596 175.214 92.372 175.41 92.496 175.525C92.3762 175.629 92.2607 175.817 92.1377 175.822C91.419 175.851 90.6981 175.854 89.9794 175.821C89.8511 175.816 89.7323 175.603 89.6094 175.486C89.7451 175.383 89.8723 175.209 90.0186 175.191C90.3642 175.147 90.7193 175.177 91.0702 175.177C91.0702 175.178 91.0702 175.178 91.0702 175.179Z" fill="#3760E7"/>
<path d="M128.115 175.839C127.764 175.839 127.409 175.87 127.063 175.824C126.917 175.805 126.791 175.625 126.656 175.519C126.781 175.405 126.903 175.199 127.034 175.192C127.752 175.16 128.473 175.162 129.192 175.191C129.312 175.195 129.425 175.386 129.542 175.49C129.418 175.605 129.304 175.801 129.167 175.82C128.822 175.868 128.467 175.836 128.116 175.836C128.115 175.838 128.115 175.839 128.115 175.839Z" fill="#3760E7"/>
</g>
<circle cx="108.298" cy="167.298" r="38.2979" stroke="#3760E7" stroke-width="6"/>
<defs>
<clipPath id="clip0_721_273">
<rect width="192" height="64" fill="white" transform="translate(9 8)"/>
</clipPath>
<clipPath id="clip1_721_273">
<rect width="54.2772" height="57.227" fill="white" transform="translate(81.1602 138.389)"/>
</clipPath>
</defs>
</svg>
