<svg width="218" height="318" viewBox="0 0 218 318" fill="none" xmlns="http://www.w3.org/2000/svg">
<rect width="218" height="318" rx="25" fill="#3760E7"/>
<g clip-path="url(#clip0_721_312)">
<path d="M175 8C188.807 8 200 19.1929 200 33V229C200 242.807 188.807 254 175 254H33C19.1929 254 8 242.807 8 229V33C8 19.1929 19.1929 8 33 8H53.0088C53.2731 16.8814 60.5546 24 69.5 24H138.5C147.445 24 154.727 16.8814 154.991 8H175Z" fill="#3760E7"/>
</g>
<path d="M38.8064 30.551C38.7968 28.5653 37.4947 26.8418 35.4691 26.2519C34.8318 26.0662 34.1328 26.0641 33.4614 25.9828C31.4009 25.7324 30.0061 24.6752 29.3071 22.8633C28.5704 20.9527 29.3168 18.7861 31.047 17.5925C32.83 16.3621 35.2154 16.3573 36.9864 17.6245C38.2589 18.535 38.9556 19.7723 38.9511 21.274C38.943 23.835 41.1466 25.8757 43.7805 25.893C45.7371 25.9063 47.2418 26.7562 48.1714 28.3914C49.6338 30.9607 48.259 34.1323 45.2874 35.0004C44.6286 35.193 43.9052 35.1951 43.21 35.2772C41.0702 35.529 39.4089 37.0028 39.0431 39.008C38.9333 39.609 38.937 40.2294 38.8087 40.8262C38.3368 43.0241 36.1035 44.5988 33.7173 44.4492C30.6211 44.2552 28.4858 41.5843 29.1424 38.7284C29.6128 36.6843 31.651 35.1311 33.8954 35.1103C35.3541 35.0971 36.5984 34.6199 37.577 33.5947C38.4021 32.7308 38.825 31.7168 38.8064 30.551Z" fill="#3760E7"/>
<path d="M28.9999 11.5086C29.0029 14.1925 26.8292 16.3356 24.0649 16.3726C21.5341 16.4066 19.5568 18.1312 19.2369 20.527C18.8724 23.2536 21.081 25.8181 24.0321 25.8377C25.8822 25.85 27.3217 26.6486 28.2984 28.1777C29.7892 30.5119 28.9047 33.6556 26.4059 34.9864C23.954 36.2925 20.843 35.3173 19.5925 32.8614C19.2384 32.1649 19.0785 31.4322 19.0673 30.6633C19.0383 28.5716 17.6866 26.7753 15.6327 26.1686C15.1655 26.0303 14.6597 25.9644 14.1709 25.9579C11.6647 25.9246 9.55126 24.0566 9.31396 21.6318C9.0588 19.0246 10.7884 16.7896 13.4389 16.3248C13.851 16.2524 14.278 16.2705 14.6969 16.2321C17.1458 16.0069 19.0457 14.0217 19.0747 11.6281C19.1097 8.68636 21.3957 6.74744 23.9004 6.67141C26.7124 6.58525 28.9969 8.766 28.9999 11.5086Z" fill="#3760E7"/>
<defs>
<clipPath id="clip0_721_312">
<rect width="192" height="64" fill="white" transform="translate(8 8)"/>
</clipPath>
</defs>
</svg>
