<svg width="123" height="178" viewBox="0 0 123 178" fill="none" xmlns="http://www.w3.org/2000/svg">
<rect width="123" height="178" rx="15" fill="white"/>
<g clip-path="url(#clip0_1033_917)">
<path d="M102 5C110.284 5 117 11.7157 117 20V127.909C117 136.193 110.284 142.909 102 142.909H21C12.7158 142.909 6.00005 136.193 6 127.909V20C6 11.7157 12.7157 5 21 5H33.7803C33.9236 9.81708 37.8708 13.6777 42.7227 13.6777H80.1465C84.9983 13.6777 88.9455 9.81708 89.0889 5H102Z" fill="#3760E7"/>
</g>
<g clip-path="url(#clip1_1033_917)">
<path d="M64.9868 118.913C64.9868 117.216 64.9868 115.603 64.9868 113.949C64.8115 113.941 64.6484 113.923 64.4844 113.927C60.7656 114.03 57.0469 114.118 53.3301 114.255C52.576 114.282 51.8096 114.436 51.084 114.649C49.6216 115.081 49.1243 116.028 49.4697 117.509C49.5339 117.785 49.7683 118.175 49.3301 118.289C48.8878 118.403 48.898 117.935 48.8338 117.67C48.3915 115.832 49.0764 114.516 50.9006 114.019C52.0175 113.716 53.2017 113.585 54.3625 113.538C57.7052 113.402 61.052 113.348 64.3967 113.261C64.5822 113.256 64.7677 113.242 64.9796 113.231C64.9796 112.189 64.9796 111.172 64.9796 110.06C64.2204 110.06 63.4612 110.069 62.7029 110.058C60.1215 110.021 57.5391 110.013 54.9587 109.924C52.8298 109.85 50.708 109.602 48.843 108.45C46.389 106.935 45.1273 104.765 45.5431 101.807C45.8926 99.325 47.3653 97.6153 49.4392 96.3647C50.8323 95.5251 52.3518 95.1059 53.9722 94.9934C54.7651 94.9392 55.5518 94.792 56.3406 94.6774C56.842 94.6048 57.0815 94.3124 57.1671 93.8001C57.8611 89.6402 60.519 87.1359 64.7218 86.6062C66.9394 86.3271 69.1111 86.4273 71.13 87.4529C73.6421 88.7291 75.0882 90.7978 75.3807 93.6354C75.4072 93.888 75.3909 94.1457 75.3767 94.4003C75.3624 94.6519 75.3257 94.9014 75.2921 95.2184C75.5153 95.1938 75.6916 95.1693 75.8699 95.156C79.019 94.9126 81.7726 95.7818 83.8526 98.2401C85.7981 100.538 85.6259 103.853 83.5836 106.304C82.0305 108.168 79.9627 109.058 77.6666 109.522C74.9863 110.063 72.2653 110.041 69.5494 110.076C68.411 110.092 67.2727 110.102 66.1353 110.084C65.7542 110.077 65.6349 110.196 65.6462 110.578C65.6716 111.443 65.6543 112.308 65.6543 113.221C65.8805 113.221 66.0467 113.22 66.2118 113.221C69.8979 113.251 73.584 113.255 77.2681 113.33C78.2414 113.35 79.2381 113.491 80.1747 113.754C81.4852 114.122 82.3953 114.983 82.59 116.418C82.6256 116.68 82.5838 116.967 82.5064 117.221C82.4728 117.333 82.2608 117.445 82.1273 117.449C82.0508 117.451 81.8817 117.219 81.901 117.122C82.0488 116.369 81.8226 115.744 81.3212 115.198C80.6862 114.505 79.8475 114.203 78.9578 114.145C76.943 114.012 74.9242 113.908 72.9053 113.877C70.596 113.841 68.2857 113.896 65.9753 113.913C65.8918 113.914 65.8082 113.932 65.69 113.947C65.69 115.578 65.69 117.202 65.69 118.937C66.5318 118.937 67.345 118.922 68.1572 118.94C70.009 118.983 70.5175 119.474 70.5134 121.342C70.5053 124.767 70.4666 128.191 70.4156 131.616C70.3942 133.058 69.6859 133.745 68.2673 133.76C66.7733 133.777 65.2782 133.794 63.7842 133.769C62.4706 133.748 61.5218 132.86 61.3414 131.55C61.3088 131.315 61.2955 131.075 61.2966 130.838C61.3119 127.906 61.321 124.975 61.3577 122.044C61.3648 121.47 61.428 120.885 61.5585 120.326C61.7786 119.378 62.333 118.952 63.2951 118.918C63.8505 118.897 64.4089 118.913 64.9868 118.913ZM64.624 109.482C64.624 109.463 64.625 109.444 64.625 109.425C66.2556 109.425 67.8862 109.436 69.5157 109.422C72.1298 109.399 74.7468 109.389 77.3293 108.908C79.2034 108.559 80.9777 107.95 82.3943 106.595C83.9087 105.144 84.7709 103.412 84.4865 101.256C84.2572 99.5203 83.2819 98.2309 81.8684 97.2962C79.7986 95.927 77.5382 95.4075 75.0801 95.9873C74.5593 96.1101 74.4167 95.9587 74.5298 95.4352C74.5981 95.1202 74.6837 94.8032 74.6959 94.4842C74.8131 91.5494 73.4475 89.4418 70.9364 88.1064C68.8125 86.9764 66.5073 86.9192 64.1888 87.3977C62.2647 87.7945 60.5597 88.6064 59.2757 90.1628C58.3523 91.2815 58.0038 92.6251 57.7908 94.0138C57.6879 94.6866 57.3444 95.1192 56.6912 95.2501C55.9279 95.4024 55.1574 95.562 54.3839 95.608C52.2203 95.7378 50.2616 96.379 48.577 97.7758C44.7227 100.971 45.5207 106.447 50.122 108.357C51.454 108.91 52.8593 109.163 54.2871 109.21C57.7327 109.327 61.1794 109.395 64.624 109.482ZM62.0925 121.872C62.0629 121.954 62.0426 121.985 62.0415 122.017C62.013 125.102 61.9712 128.186 61.9702 131.271C61.9702 132.141 62.5857 132.925 63.3246 133.041C63.983 133.146 64.6586 133.144 65.4199 133.195C64.6596 132.422 64.571 131.817 65.0683 131.305C65.5065 130.854 66.2811 130.805 66.7213 131.255C66.9088 131.446 67.1086 131.768 67.077 131.999C67.023 132.397 66.7916 132.77 66.6316 133.162C67.2176 133.134 67.8923 133.106 68.5659 133.068C69.2161 133.032 69.5606 132.741 69.691 132.102C69.745 131.836 69.7827 131.562 69.7868 131.291C69.8306 128.325 69.8673 125.36 69.903 122.395C69.905 122.231 69.8826 122.065 69.8704 121.872C67.2604 121.872 64.6861 121.872 62.0925 121.872ZM69.8082 121.163C69.8082 119.923 69.6309 119.686 68.5027 119.644C66.8762 119.582 65.2487 119.57 63.6212 119.556C62.5348 119.545 62.0843 120.038 62.1139 121.163C64.6698 121.163 67.2258 121.163 69.8082 121.163ZM65.9448 131.398C65.7002 131.709 65.4352 131.9 65.4556 132.056C65.479 132.231 65.7542 132.495 65.9223 132.497C66.0935 132.499 66.3748 132.249 66.4074 132.071C66.436 131.922 66.1781 131.718 65.9448 131.398Z" fill="#3760E7"/>
<path d="M52.768 125.785C52.6977 128.14 52.6661 129.98 52.5815 131.816C52.5224 133.095 51.8283 133.743 50.5655 133.759C49.0377 133.78 47.5099 133.797 45.9831 133.772C44.6062 133.748 43.5197 132.734 43.5167 131.361C43.5095 127.887 43.5381 124.412 43.6318 120.939C43.6624 119.827 44.1414 118.852 45.7691 118.899C47.6006 118.951 49.4332 118.951 51.2626 119.038C52.0627 119.076 52.4663 119.482 52.5774 120.283C52.6946 121.122 52.7395 121.976 52.7609 122.825C52.7904 123.983 52.768 125.142 52.768 125.785ZM47.5568 133.127C46.879 132.465 46.771 131.824 47.2408 131.319C47.6516 130.88 48.4272 130.787 48.8461 131.218C49.0805 131.459 49.2833 131.864 49.264 132.182C49.2446 132.514 48.9419 132.829 48.7544 133.165C49.3098 133.14 49.8857 133.08 50.4605 133.095C51.4461 133.119 51.92 132.778 51.9506 131.541C52.027 128.495 52.0403 125.446 52.0759 122.398C52.078 122.231 52.0596 122.064 52.0494 121.873C49.4321 121.873 46.8444 121.873 44.2026 121.873C44.2026 122.6 44.2077 123.296 44.2016 123.991C44.1802 126.307 44.1445 128.623 44.1343 130.939C44.1282 132.222 44.7866 133.02 45.9342 133.119C46.4683 133.166 47.0074 133.127 47.5568 133.127ZM44.2811 121.162C46.8576 121.162 49.4321 121.162 52.0066 121.162C51.9934 119.912 51.8324 119.693 50.6348 119.642C49.0754 119.575 47.513 119.571 45.9515 119.556C44.7071 119.543 44.3881 119.858 44.2811 121.162ZM48.1367 131.406C47.885 131.713 47.6108 131.907 47.6332 132.058C47.6597 132.236 47.9359 132.492 48.1133 132.5C48.2764 132.507 48.5597 132.249 48.5903 132.073C48.6168 131.92 48.362 131.718 48.1367 131.406Z" fill="#3760E7"/>
<path d="M88.2556 126.417C88.2556 128.103 88.2606 129.789 88.2505 131.475C88.2484 131.761 88.2026 132.054 88.1343 132.333C87.9172 133.225 87.2914 133.735 86.3262 133.754C84.7994 133.783 83.2706 133.761 81.7439 133.788C79.9765 133.82 79.1133 132.436 79.1102 131.145C79.1021 127.874 79.1541 124.604 79.1989 121.333C79.204 120.981 79.2855 120.623 79.3824 120.282C79.6453 119.354 80.1549 118.921 81.1028 118.923C83.0026 118.926 84.9034 118.938 86.8001 119.029C87.7531 119.075 88.172 119.58 88.2566 120.547C88.3228 121.309 88.3554 122.076 88.3666 122.841C88.384 124.033 88.3717 125.226 88.3717 126.418C88.333 126.417 88.2943 126.417 88.2556 126.417ZM84.1981 133.173C84.9523 133.138 85.5761 133.113 86.1998 133.079C87.1426 133.026 87.4962 132.693 87.5523 131.731C87.6114 130.711 87.641 129.689 87.6563 128.669C87.6879 126.558 87.698 124.446 87.7276 122.334C87.7327 121.978 87.6359 121.827 87.2384 121.83C84.9299 121.849 82.6214 121.847 80.3129 121.831C79.9388 121.829 79.8063 121.934 79.8114 122.318C79.8257 123.458 79.8053 124.6 79.8012 125.741C79.7951 127.546 79.7809 129.351 79.79 131.156C79.7951 132.036 80.2731 132.842 80.9805 132.994C81.6878 133.145 82.4277 133.138 83.1544 133.2C82.4604 132.458 82.3666 131.829 82.8966 131.296C83.3664 130.825 84.1859 130.838 84.6323 131.326C85.1031 131.842 84.9808 132.523 84.1981 133.173ZM87.6206 121.158C87.6828 120.005 87.4392 119.682 86.3558 119.645C84.6618 119.588 82.9669 119.569 81.273 119.558C80.3343 119.552 79.8257 120.195 79.9592 121.158C82.5134 121.158 85.0675 121.158 87.6206 121.158ZM83.7099 131.406C83.4938 131.723 83.2462 131.931 83.2767 132.083C83.3124 132.258 83.6008 132.509 83.7639 132.498C83.9402 132.486 84.2124 132.223 84.2317 132.046C84.2491 131.892 83.9708 131.707 83.7099 131.406Z" fill="#3760E7"/>
<path d="M65.9372 119.846C66.2757 119.846 66.6173 119.815 66.9497 119.86C67.0883 119.878 67.2056 120.057 67.3331 120.164C67.2046 120.27 67.0792 120.462 66.9456 120.468C66.2706 120.498 65.5925 120.498 64.9175 120.467C64.786 120.461 64.6626 120.265 64.5352 120.158C64.6647 120.053 64.7839 119.877 64.9236 119.859C65.256 119.816 65.5986 119.846 65.9372 119.846Z" fill="#3760E7"/>
<path d="M48.1394 119.848C48.4769 119.848 48.8195 119.817 49.1509 119.863C49.2835 119.882 49.3916 120.07 49.5109 120.181C49.3956 120.281 49.2845 120.462 49.1662 120.467C48.4749 120.495 47.7815 120.498 47.0902 120.466C46.9669 120.461 46.8527 120.256 46.7344 120.144C46.8649 120.044 46.9872 119.877 47.128 119.859C47.4604 119.817 47.8019 119.846 48.1394 119.846C48.1394 119.847 48.1394 119.847 48.1394 119.848Z" fill="#3760E7"/>
<path d="M83.7546 120.483C83.4171 120.483 83.0755 120.512 82.7431 120.468C82.6024 120.45 82.4811 120.277 82.3516 120.175C82.4719 120.065 82.5891 119.867 82.7146 119.861C83.4059 119.83 84.0992 119.832 84.7905 119.86C84.9058 119.864 85.0149 120.047 85.127 120.147C85.0077 120.258 84.8986 120.446 84.7661 120.464C84.4347 120.51 84.0931 120.48 83.7556 120.48C83.7546 120.482 83.7546 120.483 83.7546 120.483Z" fill="#3760E7"/>
</g>
<circle cx="64.7012" cy="112.271" r="36.7012" stroke="#3760E7" stroke-width="6"/>
<circle cx="18.5" cy="55.5" r="9" fill="#3760E7" stroke="#3760E7"/>
<circle cx="40.5" cy="55.5" r="9" fill="#3760E7" stroke="#3760E7"/>
<circle cx="62.5" cy="55.5" r="9" fill="#3760E7" stroke="#3760E7"/>
<defs>
<clipPath id="clip0_1033_917">
<rect width="111" height="26" fill="white" transform="translate(6 5)"/>
</clipPath>
<clipPath id="clip1_1033_917">
<rect width="52.1787" height="55.0145" fill="white" transform="translate(38.6133 84.48)"/>
</clipPath>
</defs>
</svg>
