<svg width="298" height="79" viewBox="0 0 298 79" fill="none" xmlns="http://www.w3.org/2000/svg">
<path d="M339.715 0.484946L341.543 17.0565C296.257 18.2623 253.457 29.6903 211.612 39.2926C210.849 41.6335 212.134 40.8036 214.949 41.1154C225.056 42.2319 278.826 42.724 289.086 41.5922L343.58 35.5809L345.301 51.1777L307.762 55.3186C299.233 56.2594 272.367 55.9772 262.56 55.8269C232.791 55.374 204.909 52.2135 176.186 50.5144L165.877 52.4333L148.691 58.0708C211.021 64.5936 274.828 75.4136 347.022 66.777L348.85 83.3486C264.482 89.2474 195.843 73.7842 123.795 65.1559L99.9218 70.8455C180.908 81.5945 255.697 102.757 350.57 98.9454L352.291 114.542C262.994 116.734 193.306 95.4468 119.165 83.2115C109.088 81.5477 77.3777 75.8622 67.7832 76.9307C47.3865 79.1983 22.8983 86.5218 0.740792 84.6677L0.291292 79.3614C95.8717 71.1177 170.325 35.7184 254.877 15.0121C265.599 12.3847 294.797 5.43732 304.591 4.35698L339.709 0.483145L339.715 0.484946Z" fill="#3760E7"/>
</svg>
