<svg width="55" height="55" viewBox="0 0 55 55" fill="none" xmlns="http://www.w3.org/2000/svg">
<circle cx="27.5" cy="27.5" r="27.5" fill="#3760E7"/>
<path d="M9 27.1916C9 27.4953 9.12631 27.7865 9.35114 28.0013C9.57597 28.216 9.88091 28.3366 10.1989 28.3366L42.9071 29.145L37.7615 34.0595C37.5431 34.2755 37.4223 34.5647 37.425 34.8649C37.4278 35.1651 37.5539 35.4523 37.7761 35.6646C37.9984 35.8769 38.2991 35.9973 38.6134 36C38.9278 36.0026 39.2306 35.8872 39.4567 35.6786L46.6499 28.8084C46.7609 28.7031 46.8489 28.5778 46.909 28.4399C46.9691 28.3019 47 28.154 47 28.0046V28C47 27.8511 46.9688 27.7023 46.9065 27.5626C46.8467 27.4238 46.7587 27.2977 46.6475 27.1916L39.4543 20.3214C39.2282 20.1128 38.9254 19.9974 38.611 20C38.2967 20.0027 37.996 20.1231 37.7737 20.3354C37.5515 20.5477 37.4254 20.8349 37.4226 21.1351C37.4199 21.4353 37.5407 21.7245 37.7591 21.9405L42.9071 26.855L10.1989 26.0466C9.88091 26.0466 9.57597 26.1672 9.35114 26.3819C9.12631 26.5967 9 26.8879 9 27.1916Z" fill="white"/>
</svg>
