<svg width="114" height="30" viewBox="0 0 114 30" fill="none" xmlns="http://www.w3.org/2000/svg">
<path d="M0 13.4843C0 14.0537 0.242092 14.5997 0.673019 15.0024C1.10394 15.405 1.68841 15.6312 2.29783 15.6312L106.155 17.1469L96.2929 26.3616C95.8744 26.7665 95.6428 27.3088 95.648 27.8717C95.6532 28.4346 95.8949 28.9731 96.3209 29.3712C96.747 29.7692 97.3233 29.995 97.9258 29.9999C98.5282 30.0048 99.1087 29.7884 99.542 29.3973L113.329 16.5157C113.542 16.3182 113.71 16.0834 113.826 15.8247C113.941 15.5661 114 15.2887 114 15.0086V15C114 14.7209 113.94 14.4418 113.821 14.1799C113.706 13.9196 113.538 13.6831 113.324 13.4843L99.5374 0.602669C99.1041 0.211588 98.5236 -0.00481045 97.9212 8.11597e-05C97.3187 0.00497277 96.7424 0.230763 96.3163 0.628822C95.8903 1.02688 95.6486 1.56536 95.6434 2.12828C95.6382 2.6912 95.8698 3.23352 96.2883 3.63843L106.155 12.8531L2.29783 11.3373C1.68841 11.3373 1.10394 11.5635 0.673019 11.9662C0.242092 12.3688 0 12.9149 0 13.4843Z" fill="black"/>
</svg>
