<svg width="1323" height="30" viewBox="0 0 1323 30" fill="none" xmlns="http://www.w3.org/2000/svg">
<path d="M-11 13.4843C-11 14.0537 -10.7579 14.5997 -10.327 15.0024C-9.89606 15.405 -9.31159 15.6312 -8.70217 15.6312L1315.16 17.1469L1305.29 26.3616C1304.87 26.7665 1304.64 27.3088 1304.65 27.8717C1304.65 28.4346 1304.89 28.9731 1305.32 29.3712C1305.75 29.7692 1306.32 29.995 1306.93 29.9999C1307.53 30.0048 1308.11 29.7884 1308.54 29.3973L1322.33 16.5157C1322.54 16.3182 1322.71 16.0834 1322.83 15.8247C1322.94 15.5661 1323 15.2887 1323 15.0086V15C1323 14.7209 1322.94 14.4418 1322.82 14.1799C1322.71 13.9196 1322.54 13.6831 1322.32 13.4843L1308.54 0.602669C1308.1 0.211588 1307.52 -0.00481045 1306.92 8.11597e-05C1306.32 0.00497277 1305.74 0.230763 1305.32 0.628822C1304.89 1.02688 1304.65 1.56536 1304.64 2.12828C1304.64 2.6912 1304.87 3.23352 1305.29 3.63843L1315.16 12.8531L-8.70217 11.3373C-9.31159 11.3373 -9.89606 11.5635 -10.327 11.9662C-10.7579 12.3688 -11 12.9149 -11 13.4843Z" fill="black"/>
</svg>
